<svg version="1.1" xmlns="http://www.w3.org/2000/svg" xmlns:xlink="http://www.w3.org/1999/xlink" x="0px" y="0px"
        width="20px" height="60px" viewBox="0 0 20 60" enable-background="new 0 0 20 60" xml:space="preserve">
    <symbol id="svg-btn-comments" viewBox="0 0 20 20">
        <path d="M16,4H4C3.45,4,3,4.45,3,5v9c0,0.55,0.45,1,1,1h2l2,2h1l2-2h5c0.55,0,1-0.45,1-1V5C17,4.45,16.55,4,16,4zM16,14h-5h-0.414l-2,2H8.414l-2-2H6H4V5h12V14z"/>
        <rect x="6" y="7" width="8" height="1"/>
        <rect x="6" y="9" width="8" height="1"/>
        <rect x="6" y="11" width="8" height="1"/>
    </symbol>
    <symbol id="svg-btn-goback" viewBox="0 20 20 20">
        <path d="M17,26h-6v-1c0-0.553-0.448-1-1-1H3c-0.552,0-1,0.447-1,1v11c0,0.553,0.448,1,1,1h14c0.552,0,1-0.447,1-1v-9C18,26.447,17.552,26,17,26z M17,36H3V25h7v1c0,0.553,0.448,1,1,1h6v1V36z"/>
        <polygon points="13,31 10,28 10,30 6,30 6,32 10,32 10,34 	"/>
    </symbol>
    <symbol id="svg-btn-users" viewBox="0 0 20 20">
   		<path fill="#FFFFFF" d="M7,3.999c1.103,0,2,0.897,2,2C9,7.103,8.103,8,7,8C5.897,8,5,7.103,5,5.999C5,4.896,5.897,3.999,7,3.999 M7,2.999c-1.657,0-3,1.344-3,3S5.343,9,7,9c1.657,0,3-1.345,3-3.001S8.657,2.999,7,2.999L7,2.999z"/>
		<path fill="#FFFFFF" d="M7,11.666c4.185,0,4.909,2.268,5,2.642V16H2v-1.688C2.1,13.905,2.841,11.666,7,11.666 M7,10.666 c-5.477,0-6,3.545-6,3.545V17h12v-2.789C13,14.211,12.477,10.666,7,10.666L7,10.666z"/>
		<circle fill="#FFFFFF" cx="14.5" cy="8.001" r="2.5"/>
		<path fill="#FFFFFF" d="M14.5,11.863c-0.566,0-1.056,0.059-1.49,0.152c0.599,0.726,0.895,1.481,0.979,2.049L14,14.138V17h5v-2.263 C19,14.737,18.607,11.863,14.5,11.863z"/>
    </symbol>
    <symbol id="svg-btn-download" viewBox="0 0 20 20">
        <rect x="4" y="16" width="12" height="1"/>
        <polygon points="14.243,7.585 11,10.829 11,4 9,4 9,10.827 5.758,7.585 4.344,9 10.001,14.656 15.657,9 "/>
    </symbol>
    <symbol id="svg-btn-print" viewBox="0 0 20 20">
        <rect x="7" y="12" width="5" height="1"/>
        <rect x="7" y="14" width="5" height="1"/>
        <path d="M16,7h-2V5c0-0.552-0.447-1-1-1H6C5.448,4,5,4.448,5,5v2H3C2.448,7,2,7.448,2,8v5c0,0.553,0.448,1,1,1h2v2
            c0,0.553,0.448,1,1,1h7c0.553,0,1-0.447,1-1v-2h2c0.553,0,1-0.447,1-1V8C17,7.448,16.553,7,16,7z M6,5h7v2H6V5z M5,13H3v-2h2V13z
            M13,16H6v-5h7V16z M16,13h-2v-2h2V13z M3,10V8h13v2H3z"/>
    </symbol>
    <symbol id="svg-btn-edit" viewBox="0 0 20 20">
        <polygon points="11.738,7.891 6.434,13.195 5.02,14.859 4.5,17.5 7,17.5 8.555,15.566 13.859,10.137"/>	
	<path d="M15.273,8.598l-2.121-2.121l1.414-1.414c0.391-0.391,1.023-0.391,1.414,0l0.707,0.707
		c0.391,0.391,0.391,1.023,0,1.414L15.273,8.598z"/>
    </symbol>
</svg>
