<svg version="1.1" xmlns="http://www.w3.org/2000/svg" xmlns:xlink="http://www.w3.org/1999/xlink" x="0px" y="0px"
        width="20px" height="60px" viewBox="0 0 20 60" enable-background="new 0 0 20 60" xml:space="preserve">
    <symbol id="svg-btn-comments" viewBox="0 0 20 20">
        <path d="M16,4H4C3.45,4,3,4.45,3,5v9c0,0.55,0.45,1,1,1h2l2,2h1l2-2h5c0.55,0,1-0.45,1-1V5C17,4.45,16.55,4,16,4zM16,14h-5h-0.414l-2,2H8.414l-2-2H6H4V5h12V14z"/>
        <rect x="6" y="7" width="8" height="1"/>
        <rect x="6" y="9" width="8" height="1"/>
        <rect x="6" y="11" width="8" height="1"/>
    </symbol>
    <symbol id="svg-btn-goback" viewBox="0 20 20 20">
        <path d="M17,26h-6v-1c0-0.553-0.448-1-1-1H3c-0.552,0-1,0.447-1,1v11c0,0.553,0.448,1,1,1h14c0.552,0,1-0.447,1-1v-9C18,26.447,17.552,26,17,26z M17,36H3V25h7v1c0,0.553,0.448,1,1,1h6v1V36z"/>
        <polygon points="13,31 10,28 10,30 6,30 6,32 10,32 10,34 	"/>
    </symbol>
    <symbol id="svg-btn-users" viewBox="0 0 20 20">
		<path d="M7,3.999c1.103,0,2,0.897,2,2C9,7.103,8.103,8,7,8C5.897,8,5,7.103,5,5.999C5,4.896,5.897,3.999,7,3.999 M7,2.999c-1.657,0-3,1.344-3,3S5.343,9,7,9c1.657,0,3-1.345,3-3.001S8.657,2.999,7,2.999L7,2.999z"/>
		<path d="M7,11.666c4.185,0,4.909,2.268,5,2.642V16H2v-1.688C2.1,13.905,2.841,11.666,7,11.666 M7,10.666 c-5.477,0-6,3.545-6,3.545V17h12v-2.789C13,14.211,12.477,10.666,7,10.666L7,10.666z"/>
		<circle cx="14.5" cy="8.001" r="2.5"/>
		<path d="M14.5,11.863c-0.566,0-1.056,0.059-1.49,0.152c0.599,0.726,0.895,1.481,0.979,2.049L14,14.138V17h5v-2.263 C19,14.737,18.607,11.863,14.5,11.863z"/>
    </symbol>
    <symbol id="svg-btn-download" viewBox="0 0 20 20">
        <rect x="4" y="16" width="12" height="1"/>
        <polygon points="14.243,7.585 11,10.829 11,4 9,4 9,10.827 5.758,7.585 4.344,9 10.001,14.656 15.657,9 "/>
    </symbol>
    <symbol id="svg-btn-print" viewBox="0 0 20 20">
        <rect x="4" y="8" width="1" height="1" fill="#ffffff"/>
        <path fill-rule="evenodd" clip-rule="evenodd" d="M14 4H6V6H14V4ZM5 4V6H3C2.44772 6 2 6.44772 2 7V12V13H3H5V15C5 15.5523 5.44772 16 6 16H14C14.5523 16 15 15.5523 15 15V13H17H18V12V7C18 6.44772 17.5523 6 17 6H15V4C15 3.44772 14.5523 3 14 3H6C5.44772 3 5 3.44772 5 4ZM15 12H17V7H14H6H3V12H5V11C5 10.4477 5.44772 10 6 10H14C14.5523 10 15 10.4477 15 11V12ZM6 11H14V15H6V11Z" fill="#ffffff"/>
    </symbol>
    <symbol id="svg-btn-edit" viewBox="0 0 20 20">
        <polygon points="11.738,7.891 6.434,13.195 5.02,14.859 4.5,17.5 7,17.5 8.555,15.566 13.859,10.137"/>	
	<path d="M15.273,8.598l-2.121-2.121l1.414-1.414c0.391-0.391,1.023-0.391,1.414,0l0.707,0.707
		c0.391,0.391,0.391,1.023,0,1.414L15.273,8.598z"/>
    </symbol>
    <symbol id="svg-btn-save" viewBox="0 0 20 20">
        <path fill-rule="evenodd" clip-rule="evenodd" d="M15 15H4V4H6V7H12V4H12.5858L15 6.41421V15ZM11 4H10V6H11V4ZM4 3H13L16 6V15C16 15.5523 15.5523 16 15 16H4C3.44772 16 3 15.5523 3 15V4C3 3.44772 3.44772 3 4 3Z" fill="#ffffff"/>
        <rect x="6" y="10" width="7" height="1" fill="#ffffff"/>
        <rect x="6" y="12" width="7" height="1" fill="#ffffff"/>
    </symbol>
    <symbol id="svg-btn-save-coauth" viewBox="0 0 20 20">
        <rect x="6" y="10" width="3" height="1" fill="#ffffff"/>
        <rect x="6" y="12" width="2" height="1" fill="#ffffff"/>
        <path fill-rule="evenodd" clip-rule="evenodd" d="M16 12.9996C16 11.3427 14.6569 9.99957 13 9.99957C11.3431 9.99957 10 11.3427 10 12.9996C10 14.3058 10.8348 15.417 12 15.8289V16.8736C10.2748 16.4295 9 14.8634 9 12.9996C9 10.7904 10.7909 8.99957 13 8.99957C15.2091 8.99957 17 10.7904 17 12.9996C17 14.1945 16.476 15.2671 15.6453 16H17V17H14L14 16.8736V15.8289L14 14H15V15.2357C15.6137 14.6864 16 13.8881 16 12.9996Z" fill="#ffffff"/>
        <path fill-rule="evenodd" clip-rule="evenodd" d="M8 15H4V4H6V7H12V4H12.5858L15 6.41421V8H16V6L13 3H4C3.44772 3 3 3.44772 3 4V15C3 15.5523 3.44772 16 4 16H8V15ZM10 4H11V6H10V4Z" fill="#ffffff"/>
    </symbol>
    <symbol id="svg-btn-save-sync" viewBox="0 0 20 20">
        <rect x="6" y="10" width="3" height="1" fill="#ffffff"/>
        <rect x="6" y="12" width="3" height="1" fill="#ffffff"/>
        <rect x="10" y="10" width="9" height="7" rx="1" fill="#FFD114"/>
        <rect x="12" y="12" width="5" height="1" fill="#444444"/>
        <rect x="12" y="14" width="5" height="1" fill="#444444"/>
        <path fill-rule="evenodd" clip-rule="evenodd" d="M4 15H9V16H4C3.44772 16 3 15.5523 3 15V4C3 3.44772 3.44772 3 4 3H13L16 6V9H15V6.41421L12.5858 4H12V7H6V4H4V15ZM10 4H11V6H10V4Z" fill="#ffffff"/>
    </symbol>
    <symbol id="svg-btn-undo" viewBox="0 0 20 20">
        <path d="M11.355,7.625c-1.965,0-3.864,0.777-5.151,2.033L4,7.625V14h6.407l-2.091-2.219
		c0.845-1.277,2.313-2.215,3.99-2.215c2.461,0,5.405,1.78,5.694,4.119C17.601,10.291,14.966,7.625,11.355,7.625z"/>
    </symbol>
    <symbol id="svg-btn-redo" viewBox="0 0 20 20">
        <path d="M10.645,7.625c1.965,0,3.863,0.777,5.15,2.033L18,7.625V14h-6.406l2.09-2.219
        c-0.845-1.277-2.313-2.215-3.989-2.215c-2.461,0-5.405,1.78-5.694,4.119C4.399,10.291,7.034,7.625,10.645,7.625z"/>
    </symbol>
    <symbol id="svg-btn-options" viewBox="0 0 20 20">
        <rect x="3" y="6" width="14" height="1"/>
        <rect x="3" y="10" width="14" height="1"/>
        <rect x="3" y="14" width="14" height="1"/>
    </symbol>
    <symbol id="svg-btn-undock" viewBox="0 0 20 20">
        <path fill-rule="evenodd" clip-rule="evenodd" d="M3 7H6V8V9H3V16H12V14H13V16C13 16.5523 12.5523 17 12 17H3C2.44772 17 2 16.5523 2 16V8C2 7.44769 2.44772 7 3 7Z"/>
        <path fill-rule="evenodd" clip-rule="evenodd" d="M17 5H8L8 12H17V5ZM7 4C7 3.44772 7.44772 3 8 3H17C17.5523 3 18 3.44772 18 4V12C18 12.5523 17.5523 13 17 13H8C7.44771 13 7 12.5523 7 12V4Z"/>
        <path fill-rule="evenodd" clip-rule="evenodd" d="M9.64645 10.6464L14.1464 6.14642L14.8536 6.85353L10.3536 11.3535L9.64645 10.6464Z"/>
        <path fill-rule="evenodd" clip-rule="evenodd" d="M14 6H11V7H14L14 10H15V7V6H14Z"/>
    </symbol>
</svg>
