<svg version="1.1" xmlns="http://www.w3.org/2000/svg" xmlns:xlink="http://www.w3.org/1999/xlink" x="0px" y="0px" width="30px"
	 height="30px" viewBox="0 0 30 30" enable-background="new 0 0 30 30" xml:space="preserve">
    <symbol id="svg-btn-users-150" viewBox="0 0 30 30">
		<path display="inline" d="M11.051,6c2.205,0,4,1.794,4,4s-1.795,4-4,4c-2.206,0-4-1.794-4-4S8.845,6,11.051,6 M11.051,5
	c-2.761,0-5,2.238-5,5c0,2.76,2.239,5,5,5c2.762,0,5-2.24,5-5C16.051,7.238,13.813,5,11.051,5L11.051,5z"/>
		<path display="inline"  d="M11,18c6.825,0,7.887,3.874,8,4.407V25H3v-2.593C3.11,21.895,4.176,18,11,18 M11,17
	c-8.216,0-9,5.316-9,5.316V26h18v-3.684C20,22.316,19.216,17,11,17L11,17z"/>
		<circle cx="21.041" cy="13" r="4"/>
		<path d="M21,18c-0.728,0-1,0-2,0c1.635,1.63,2,2,2,2v6h7v-3.146C28,22.854,27.572,18,21,18z"/>
	</symbol>
    <symbol id="svg-btn-goback-150" viewBox="0 0 30 30">
		<polygon display="inline" points="19.5,16.5 15,12 15,15 9,15 9,18 15,18 15,21 	"/>
		<path display="inline" d="M15,7v3h11v14H4V7H15 M15,6H4C3.45,6,3,6.45,3,7v17c0,0.55,0.45,1,1,1h22
		c0.55,0,1-0.45,1-1V10c0-0.55-0.45-1-1-1H16V7C16,6.45,15.55,6,15,6L15,6z"/>
	</symbol>
    <symbol id="svg-btn-comments-150" viewBox="0 0 30 30">
		<rect x="9" y="11" width="12" height="1"/>
		<rect x="9" y="14" width="12" height="1"/>
		<rect x="9" y="17" width="9" height="1"/>
		<path d="M23.375,8C23.65,8,24,8.386,24,8.641V20c0,0.448-0.552,1-1,1h-6h-0.333L16.4,21.2L13,23.75L9.6,21.2
			L9.333,21H9H7c-0.449,0-1-0.552-1-1V8.656C6,8.401,6.318,8,6.594,8 M23.5,7h-17C5.671,7,5,7.653,5,8.462V20c0,1,1,2,2,2h2l4,3l4-3
			h6c1,0,2-1,2-2V8.462C25,7.653,24.329,7,23.5,7L23.5,7z"/>
	</symbol>
</svg>
