<svg version="1.1" xmlns="http://www.w3.org/2000/svg" xmlns:xlink="http://www.w3.org/1999/xlink" x="0px" y="0px"
        width="20px" height="60px" viewBox="0 0 20 60" enable-background="new 0 0 20 60" xml:space="preserve">
    <symbol id="svg-btn-comments" viewBox="0 0 20 20">
        <path d="M16,4H4C3.45,4,3,4.45,3,5v9c0,0.55,0.45,1,1,1h2l2,2h1l2-2h5c0.55,0,1-0.45,1-1V5C17,4.45,16.55,4,16,4zM16,14h-5h-0.414l-2,2H8.414l-2-2H6H4V5h12V14z"/>
        <rect x="6" y="7" width="8" height="1"/>
        <rect x="6" y="9" width="8" height="1"/>
        <rect x="6" y="11" width="8" height="1"/>
    </symbol>
    <symbol id="svg-btn-goback" viewBox="0 20 20 20">
        <path d="M17,26h-6v-1c0-0.553-0.448-1-1-1H3c-0.552,0-1,0.447-1,1v11c0,0.553,0.448,1,1,1h14c0.552,0,1-0.447,1-1v-9C18,26.447,17.552,26,17,26z M17,36H3V25h7v1c0,0.553,0.448,1,1,1h6v1V36z"/>
        <polygon points="13,31 10,28 10,30 6,30 6,32 10,32 10,34 	"/>
    </symbol>
    <symbol id="svg-btn-users" viewBox="0 0 20 20">
		<path d="M7,3.999c1.103,0,2,0.897,2,2C9,7.103,8.103,8,7,8C5.897,8,5,7.103,5,5.999C5,4.896,5.897,3.999,7,3.999 M7,2.999c-1.657,0-3,1.344-3,3S5.343,9,7,9c1.657,0,3-1.345,3-3.001S8.657,2.999,7,2.999L7,2.999z"/>
		<path d="M7,11.666c4.185,0,4.909,2.268,5,2.642V16H2v-1.688C2.1,13.905,2.841,11.666,7,11.666 M7,10.666 c-5.477,0-6,3.545-6,3.545V17h12v-2.789C13,14.211,12.477,10.666,7,10.666L7,10.666z"/>
		<circle cx="14.5" cy="8.001" r="2.5"/>
		<path d="M14.5,11.863c-0.566,0-1.056,0.059-1.49,0.152c0.599,0.726,0.895,1.481,0.979,2.049L14,14.138V17h5v-2.263 C19,14.737,18.607,11.863,14.5,11.863z"/>
    </symbol>
    <symbol id="svg-btn-download" viewBox="0 0 20 20">
        <rect x="4" y="16" width="12" height="1"/>
        <polygon points="14.243,7.585 11,10.829 11,4 9,4 9,10.827 5.758,7.585 4.344,9 10.001,14.656 15.657,9 "/>
    </symbol>
    <symbol id="svg-btn-print" viewBox="0 0 20 20">
        <rect x="7" y="12" width="5" height="1"/>
        <rect x="7" y="14" width="5" height="1"/>
        <path d="M16,7h-2V5c0-0.552-0.447-1-1-1H6C5.448,4,5,4.448,5,5v2H3C2.448,7,2,7.448,2,8v5c0,0.553,0.448,1,1,1h2v2
            c0,0.553,0.448,1,1,1h7c0.553,0,1-0.447,1-1v-2h2c0.553,0,1-0.447,1-1V8C17,7.448,16.553,7,16,7z M6,5h7v2H6V5z M5,13H3v-2h2V13z
            M13,16H6v-5h7V16z M16,13h-2v-2h2V13z M3,10V8h13v2H3z"/>
    </symbol>
    <symbol id="svg-btn-edit" viewBox="0 0 20 20">
        <polygon points="11.738,7.891 6.434,13.195 5.02,14.859 4.5,17.5 7,17.5 8.555,15.566 13.859,10.137"/>	
	<path d="M15.273,8.598l-2.121-2.121l1.414-1.414c0.391-0.391,1.023-0.391,1.414,0l0.707,0.707
		c0.391,0.391,0.391,1.023,0,1.414L15.273,8.598z"/>
    </symbol>
    <symbol id="svg-btn-save" viewBox="0 0 20 20">
        <rect x="7" y="13" width="6" height="1"/>
	    <rect x="7" y="11" width="6" height="1"/>
	    <path d="M13,4H5C4.447,4,4,4.447,4,5v10c0,0.553,0.447,1,1,1h10c0.553,0,1-0.447,1-1V7L13,4z M11,5v2h-1V5H11z
		 M15,15H5V5h2v3h5V5h0.5L15,7.5V15z"/>
    </symbol>
    <symbol id="svg-btn-save-coauth" viewBox="0 0 20 20">
        <path d="M14,9c-2.209,0-4,1.791-4,4c0,0.348,0.059,0.679,0.142,1h1.043C11.072,13.686,11,13.353,11,13
            c0-1.654,1.346-3,3-3s3,1.346,3,3s-1.346,3-3,3v-1l-2,1.5l2,1.5v-1c2.209,0,4-1.791,4-4S16.209,9,14,9z"/>
        <rect x="6" y="13" width="3" height="1"/>
        <rect x="6" y="11" width="3" height="1"/>
        <path d="M9,15H4V5h2v3h3h2V5h0.5L14,7.5V8h1V7l-3-3H4C3.447,4,3,4.447,3,5v10c0,0.553,0.447,1,1,1h5V15z M9,5h1v2H9 V5z"/>
    </symbol>
    <symbol id="svg-btn-save-sync" viewBox="0 0 20 20">
        <path fill="#FFD112" d="M18,16c0.553,0,1-0.447,1-1v-5c0-0.553-0.447-1-1-1h-7c-0.553,0-1,0.447-1,1v5c0,0.553,0.447,1,1,1h1
                l1.5,2l1.5-2H18z"/>
        <rect x="12" y="11" fill="#444444" width="5" height="1"/>
        <rect x="12" y="13" fill="#444444" width="5" height="1"/>
        <rect x="6" y="13" width="3" height="1"/>
        <rect x="6" y="11" width="3" height="1"/>
        <path d="M9,15H4V5h2v3h3h2V5h0.5L14,7.5V8h1V7l-3-3H4C3.447,4,3,4.447,3,5v10c0,0.553,0.447,1,1,1h5V15z M9,5h1v2H9 V5z"/>
    </symbol>
    <symbol id="svg-btn-undo" viewBox="0 0 20 20">
        <path d="M11.355,7.625c-1.965,0-3.864,0.777-5.151,2.033L4,7.625V14h6.407l-2.091-2.219
		c0.845-1.277,2.313-2.215,3.99-2.215c2.461,0,5.405,1.78,5.694,4.119C17.601,10.291,14.966,7.625,11.355,7.625z"/>
    </symbol>
    <symbol id="svg-btn-redo" viewBox="0 0 20 20">
        <path d="M10.645,7.625c1.965,0,3.863,0.777,5.15,2.033L18,7.625V14h-6.406l2.09-2.219
        c-0.845-1.277-2.313-2.215-3.989-2.215c-2.461,0-5.405,1.78-5.694,4.119C4.399,10.291,7.034,7.625,10.645,7.625z"/>
    </symbol>
    <symbol id="svg-btn-options" viewBox="0 0 20 20">
        <rect x="3" y="6" width="14" height="1"/>
        <rect x="3" y="10" width="14" height="1"/>
        <rect x="3" y="14" width="14" height="1"/>
    </symbol>
    <symbol id="svg-btn-undock" viewBox="0 0 20 20">
        <path fill-rule="evenodd" clip-rule="evenodd" d="M3 7H6V8V9H3V16H12V14H13V16C13 16.5523 12.5523 17 12 17H3C2.44772 17 2 16.5523 2 16V8C2 7.44769 2.44772 7 3 7Z"/>
        <path fill-rule="evenodd" clip-rule="evenodd" d="M17 5H8L8 12H17V5ZM7 4C7 3.44772 7.44772 3 8 3H17C17.5523 3 18 3.44772 18 4V12C18 12.5523 17.5523 13 17 13H8C7.44771 13 7 12.5523 7 12V4Z"/>
        <path fill-rule="evenodd" clip-rule="evenodd" d="M9.64645 10.6464L14.1464 6.14642L14.8536 6.85353L10.3536 11.3535L9.64645 10.6464Z"/>
        <path fill-rule="evenodd" clip-rule="evenodd" d="M14 6H11V7H14L14 10H15V7V6H14Z"/>
    </symbol>
</svg>
