<svg xmlns="http://www.w3.org/2000/svg" xmlns:xlink="http://www.w3.org/1999/xlink" fill="none" version="1.1" width="85" height="20" viewBox="0 0 85 20"><clipPath id="master_svg0_1_18455"><rect x="0" y="0" width="85" height="20" rx="0"/></clipPath><g clip-path="url(#master_svg0_1_18455)" style="mix-blend-mode:passthrough"><rect x="0" y="0" width="85" height="20" rx="0" fill="#FFFFFF" fill-opacity="0"/><g><g style="mix-blend-mode:passthrough"><g><g style="mix-blend-mode:passthrough"><g></g></g><g style="mix-blend-mode:passthrough"><g><g style="mix-blend-mode:passthrough"><g><path d="M33.797688603401184,14.587716341018677C33.797688603401184,14.587716341018677,34.856048603401184,14.587716341018677,34.856048603401184,14.587716341018677C36.10789860340118,14.587716341018677,36.82270860340118,15.157254341018676,36.82270860340118,16.250466341018676C36.82270860340118,17.339456341018675,36.10789860340118,17.940736341018678,34.88909860340119,17.940736341018678C34.88909860340119,17.940736341018678,33.797688603401184,17.940736341018678,33.797688603401184,17.940736341018678C33.797688603401184,17.940736341018678,33.797688603401184,14.587716341018677,33.797688603401184,14.587716341018677C33.797688603401184,14.587716341018677,33.797688603401184,14.587716341018677,33.797688603401184,14.587716341018677ZM34.81178860340118,17.50780634101868C35.68704860340118,17.50780634101868,36.157988603401186,17.084326341018677,36.157988603401186,16.250466341018676C36.157988603401186,15.412407341018676,35.68704860340118,15.015924341018676,34.81178860340118,15.015924341018676C34.81178860340118,15.015924341018676,34.440274603401186,15.015924341018676,34.440274603401186,15.015924341018676C34.440274603401186,15.015924341018676,34.440274603401186,17.50780634101868,34.440274603401186,17.50780634101868C34.440274603401186,17.50780634101868,34.81178860340118,17.50780634101868,34.81178860340118,17.50780634101868C34.81178860340118,17.50780634101868,34.81178860340118,17.50780634101868,34.81178860340118,17.50780634101868Z" fill="#444444" fill-opacity="1"/><path d="M37.40020954608917,16.692567622032165C37.40020954608917,15.854241622032166,38.081702546089176,15.371227622032166,38.83515954608917,15.371227622032166C39.588609546089174,15.371227622032166,40.27036954608917,15.854241622032166,40.27036954608917,16.692567622032165C40.27036954608917,17.521707622032167,39.588609546089174,17.999997622032165,38.83515954608917,17.999997622032165C38.081702546089176,17.999997622032165,37.40020954608917,17.521707622032167,37.40020954608917,16.692567622032165C37.40020954608917,16.692567622032165,37.40020954608917,16.692567622032165,37.40020954608917,16.692567622032165ZM39.61631954608917,16.692567622032165C39.61631954608917,16.159469622032166,39.31703954608917,15.804159622032165,38.83515954608917,15.804159622032165C38.35886454608917,15.804159622032165,38.05956454608917,16.159469622032166,38.05956454608917,16.692567622032165C38.05956454608917,17.220947622032167,38.35886454608917,17.571787622032165,38.83515954608917,17.571787622032165C39.31703954608917,17.571787622032165,39.61631954608917,17.220947622032167,39.61631954608917,16.692567622032165C39.61631954608917,16.692567622032165,39.61631954608917,16.692567622032165,39.61631954608917,16.692567622032165Z" fill="#444444" fill-opacity="1"/><path d="M40.803353905677795,16.692567622032165C40.803353905677795,15.854241622032166,41.5069709056778,15.371227622032166,42.31026390567779,15.371227622032166C42.698073905677795,15.371227622032166,42.98059390567779,15.498924622032165,43.2023139056778,15.658361622032166C43.2023139056778,15.658361622032166,42.886223905677795,16.000032622032165,42.886223905677795,16.000032622032165C42.72018390567779,15.877065622032166,42.54853390567779,15.804159622032165,42.33797390567779,15.804159622032165C41.82839390567779,15.804159622032165,41.4624739056778,16.159469622032166,41.4624739056778,16.692567622032165C41.4624739056778,17.220947622032167,41.811613905677795,17.571787622032165,42.321193905677795,17.571787622032165C42.5762639056778,17.571787622032165,42.803333905677796,17.471607622032167,42.986443905677795,17.343927622032165C42.986443905677795,17.343927622032165,43.24682390567779,17.690057622032164,43.24682390567779,17.690057622032164C42.969633905677796,17.895117622032167,42.6095739056778,17.999997622032165,42.2604239056778,17.999997622032165C41.434995905677795,17.999997622032165,40.803353905677795,17.521707622032167,40.803353905677795,16.692567622032165C40.803353905677795,16.692567622032165,40.803353905677795,16.692567622032165,40.803353905677795,16.692567622032165Z" fill="#444444" fill-opacity="1"/><path d="M43.84593117237094,17.011398563575746C43.84593117237094,17.011398563575746,43.84593117237094,15.434948563575745,43.84593117237094,15.434948563575745C43.84593117237094,15.434948563575745,44.48317617237091,15.434948563575745,44.48317617237091,15.434948563575745C44.48317617237091,15.434948563575745,44.48317617237091,16.947688563575745,44.48317617237091,16.947688563575745C44.48317617237091,17.380358563575744,44.63271617237091,17.548958563575745,44.99253117237091,17.548958563575745C45.27529117237091,17.548958563575745,45.469061172370914,17.439608563575746,45.72411117237091,17.175298563575744C45.72411117237091,17.175298563575744,45.72411117237091,15.434948563575745,45.72411117237091,15.434948563575745C45.72411117237091,15.434948563575745,46.36112117237091,15.434948563575745,46.36112117237091,15.434948563575745C46.36112117237091,15.434948563575745,46.36112117237091,17.940718563575743,46.36112117237091,17.940718563575743C46.36112117237091,17.940718563575743,45.84034117237091,17.940718563575743,45.84034117237091,17.940718563575743C45.84034117237091,17.940718563575743,45.79049117237091,17.562598563575744,45.79049117237091,17.562598563575744C45.79049117237091,17.562598563575744,45.77370117237091,17.562598563575744,45.77370117237091,17.562598563575744C45.49706117237091,17.826918563575745,45.19774117237091,17.999988563575744,44.77663817237091,17.999988563575744C44.128435172370914,17.999988563575744,43.84593117237094,17.649128563575744,43.84593117237094,17.011398563575746C43.84593117237094,17.011398563575746,43.84593117237094,17.011398563575746,43.84593117237094,17.011398563575746Z" fill="#444444" fill-opacity="1"/><path d="M47.32106411457062,15.434968722032165C47.32106411457062,15.434968722032165,47.84183811457062,15.434968722032165,47.84183811457062,15.434968722032165C47.84183811457062,15.434968722032165,47.89195111457062,15.785816622032165,47.89195111457062,15.785816622032165C47.89195111457062,15.785816622032165,47.90848511457062,15.785816622032165,47.90848511457062,15.785816622032165C48.168865114570615,15.558204622032166,48.473504114570616,15.371227622032166,48.85037411457062,15.371227622032166C49.30452411457062,15.371227622032166,49.559574114570616,15.544310622032166,49.692584114570614,15.831437622032166C49.99162411457062,15.567127622032165,50.30185411457062,15.371227622032166,50.684304114570615,15.371227622032166C51.32155411457062,15.371227622032166,51.62034411457062,15.726550622032166,51.62034411457062,16.364526622032166C51.62034411457062,16.364526622032166,51.62034411457062,17.940737622032167,51.62034411457062,17.940737622032167C51.62034411457062,17.940737622032167,50.98334411457062,17.940737622032167,50.98334411457062,17.940737622032167C50.98334411457062,17.940737622032167,50.98334411457062,16.428237622032164,50.98334411457062,16.428237622032164C50.98334411457062,15.995571622032166,50.817024114570614,15.822266622032165,50.47375411457062,15.822266622032165C50.26319411457062,15.822266622032165,50.04147411457062,15.936318622032166,49.78666411457062,16.163930622032165C49.78666411457062,16.163930622032165,49.78666411457062,17.940737622032167,49.78666411457062,17.940737622032167C49.78666411457062,17.940737622032167,49.149654114570616,17.940737622032167,49.149654114570616,17.940737622032167C49.149654114570616,17.940737622032167,49.149654114570616,16.428237622032164,49.149654114570616,16.428237622032164C49.149654114570616,15.995571622032166,48.988944114570614,15.822266622032165,48.63981411457062,15.822266622032165C48.434864114570615,15.822266622032165,48.20778611457062,15.936318622032166,47.95273311457062,16.163930622032165C47.95273311457062,16.163930622032165,47.95273311457062,17.940737622032167,47.95273311457062,17.940737622032167C47.95273311457062,17.940737622032167,47.32106411457062,17.940737622032167,47.32106411457062,17.940737622032167C47.32106411457062,17.940737622032167,47.32106411457062,15.434968722032165,47.32106411457062,15.434968722032165C47.32106411457062,15.434968722032165,47.32106411457062,15.434968722032165,47.32106411457062,15.434968722032165Z" fill="#444444" fill-opacity="1"/><path d="M52.32572662830353,16.692567622032165C52.32572662830353,15.877065622032166,53.001891628303525,15.371227622032166,53.716456628303526,15.371227622032166C54.52533662830353,15.371227622032166,54.95762662830353,15.849773622032165,54.95762662830353,16.560397622032166C54.95762662830353,16.660577622032164,54.946446628303526,16.765447622032166,54.92964662830353,16.824477622032166C54.92964662830353,16.824477622032166,52.952027628303526,16.824477622032166,52.952027628303526,16.824477622032166C53.001891628303525,17.302767622032164,53.36731662830353,17.589887622032165,53.893926628303525,17.589887622032165C54.16525662830353,17.589887622032165,54.397936628303526,17.521707622032167,54.619416628303526,17.403187622032167C54.619416628303526,17.403187622032167,54.841166628303526,17.735687622032167,54.841166628303526,17.735687622032167C54.558636628303525,17.890657622032165,54.20952662830353,17.999997622032165,53.81053662830353,17.999997622032165C52.985095628303526,17.999997622032165,52.32572662830353,17.516977622032165,52.32572662830353,16.692567622032165C52.32572662830353,16.692567622032165,52.32572662830353,16.692567622032165,52.32572662830353,16.692567622032165ZM54.40886662830353,16.464707622032165C54.40886662830353,16.032040622032167,54.17059662830353,15.781355622032166,53.72763662830353,15.781355622032166C53.34517662830353,15.781355622032166,53.00723362830353,16.022849622032165,52.94646462830353,16.464707622032165C52.94646462830353,16.464707622032165,54.40886662830353,16.464707622032165,54.40886662830353,16.464707622032165C54.40886662830353,16.464707622032165,54.40886662830353,16.464707622032165,54.40886662830353,16.464707622032165Z" fill="#444444" fill-opacity="1"/><path d="M55.67319595813751,15.434968722032165C55.67319595813751,15.434968722032165,56.193983958137515,15.434968722032165,56.193983958137515,15.434968722032165C56.193983958137515,15.434968722032165,56.24408295813751,15.781355622032166,56.24408295813751,15.781355622032166C56.24408295813751,15.781355622032166,56.260589958137516,15.781355622032166,56.260589958137516,15.781355622032166C56.54310795813751,15.558204622032166,56.85336595813751,15.371227622032166,57.26886595813751,15.371227622032166C57.91703595813751,15.371227622032166,58.20515595813751,15.726550622032166,58.20515595813751,16.364526622032166C58.20515595813751,16.364526622032166,58.20515595813751,17.940737622032167,58.20515595813751,17.940737622032167C58.20515595813751,17.940737622032167,57.56816595813751,17.940737622032167,57.56816595813751,17.940737622032167C57.56816595813751,17.940737622032167,57.56816595813751,16.428237622032164,57.56816595813751,16.428237622032164C57.56816595813751,15.995571622032166,57.41304595813751,15.822266622032165,57.05296595813751,15.822266622032165C56.77045595813751,15.822266622032165,56.576424958137515,15.940779622032165,56.304850958137514,16.163930622032165C56.304850958137514,16.163930622032165,56.304850958137514,17.940737622032167,56.304850958137514,17.940737622032167C56.304850958137514,17.940737622032167,55.67319595813751,17.940737622032167,55.67319595813751,17.940737622032167C55.67319595813751,17.940737622032167,55.67319595813751,15.434968722032165,55.67319595813751,15.434968722032165C55.67319595813751,15.434968722032165,55.67319595813751,15.434968722032165,55.67319595813751,15.434968722032165Z" fill="#444444" fill-opacity="1"/><path d="M59.2314804129715,17.120761817541123C59.2314804129715,17.120761817541123,59.2314804129715,15.854231817541123,59.2314804129715,15.854231817541123C59.2314804129715,15.854231817541123,58.7882434129715,15.854231817541123,58.7882434129715,15.854231817541123C58.7882434129715,15.854231817541123,58.7882434129715,15.462468817541122,58.7882434129715,15.462468817541122C58.7882434129715,15.462468817541122,59.2592074129715,15.434954817541122,59.2592074129715,15.434954817541122C59.2592074129715,15.434954817541122,59.33115441297149,14.742671817541122,59.33115441297149,14.742671817541122C59.33115441297149,14.742671817541122,59.8687234129715,14.742671817541122,59.8687234129715,14.742671817541122C59.8687234129715,14.742671817541122,59.8687234129715,15.434954817541122,59.8687234129715,15.434954817541122C59.8687234129715,15.434954817541122,60.6608334129715,15.434954817541122,60.6608334129715,15.434954817541122C60.6608334129715,15.434954817541122,60.6608334129715,15.854231817541123,60.6608334129715,15.854231817541123C60.6608334129715,15.854231817541123,59.8687234129715,15.854231817541123,59.8687234129715,15.854231817541123C59.8687234129715,15.854231817541123,59.8687234129715,17.12521181754112,59.8687234129715,17.12521181754112C59.8687234129715,17.42598181754112,59.9961234129715,17.580711817541122,60.3117134129715,17.580711817541122C60.417223412971495,17.580711817541122,60.5499734129715,17.553431817541124,60.6387134129715,17.52169181754112C60.6387134129715,17.52169181754112,60.75492341297149,17.90899181754112,60.75492341297149,17.90899181754112C60.583303412971496,17.954361817541123,60.3783234129715,17.999991817541122,60.1568434129715,17.999991817541122C59.4697364129715,17.999991817541122,59.2314804129715,17.64913181754112,59.2314804129715,17.120761817541123C59.2314804129715,17.120761817541123,59.2314804129715,17.120761817541123,59.2314804129715,17.120761817541123Z" fill="#444444" fill-opacity="1"/><path d="M62.40703690052035,16.27327872375488C62.40703690052035,15.180064723754883,63.21617990052032,14.523988723754883,64.24657690052032,14.523988723754883C64.75643690052033,14.523988723754883,65.15539690052033,14.724342723754884,65.40435690052033,14.947735723754883C65.40435690052033,14.947735723754883,65.05520690052032,15.284696723754882,65.05520690052032,15.284696723754882C64.84466690052032,15.106923723754882,64.59009690052032,14.984191723754883,64.25775690052032,14.984191723754883C63.55413690052033,14.984191723754883,63.06641990052032,15.466949723754883,63.06641990052032,16.255178723754884C63.06641990052032,17.052328723754883,63.520576900520325,17.539798723754885,64.24097690052032,17.539798723754885C64.61224690052032,17.539798723754885,64.90033690052033,17.403188723754884,65.14395690052032,17.18449872375488C65.14395690052032,17.18449872375488,65.48774690052032,17.51698872375488,65.48774690052032,17.51698872375488C65.16073690052032,17.826928723754882,64.74496690052032,17.99999872375488,64.21884690052032,17.99999872375488C63.194055900520326,17.99999872375488,62.40703690052035,17.371198723754883,62.40703690052035,16.27327872375488C62.40703690052035,16.27327872375488,62.40703690052035,16.27327872375488,62.40703690052035,16.27327872375488Z" fill="#444444" fill-opacity="1"/><path d="M65.93783295154574,16.692567622032165C65.93783295154574,15.877065622032166,66.61373595154572,15.371227622032166,67.32856295154572,15.371227622032166C68.13719295154571,15.371227622032166,68.56973295154572,15.849773622032165,68.56973295154572,16.560397622032166C68.56973295154572,16.660577622032164,68.55830295154571,16.765447622032166,68.54177295154571,16.824477622032166C68.54177295154571,16.824477622032166,66.56389895154571,16.824477622032166,66.56389895154571,16.824477622032166C66.61373595154572,17.302767622032164,66.97941295154571,17.589887622032165,67.50580295154572,17.589887622032165C67.77713295154571,17.589887622032165,68.01004295154571,17.521707622032167,68.23155295154571,17.403187622032167C68.23155295154571,17.403187622032167,68.45327295154571,17.735687622032167,68.45327295154571,17.735687622032167C68.17077295154571,17.890657622032165,67.82160295154571,17.999997622032165,67.42264295154571,17.999997622032165C66.59696695154571,17.999997622032165,65.93783295154574,17.516977622032165,65.93783295154574,16.692567622032165C65.93783295154574,16.692567622032165,65.93783295154574,16.692567622032165,65.93783295154574,16.692567622032165ZM68.02099295154572,16.464707622032165C68.02099295154572,16.032040622032167,67.78271295154572,15.781355622032166,67.33975295154572,15.781355622032166C66.95703295154571,15.781355622032166,66.61933995154571,16.022849622032165,66.55830895154571,16.464707622032165C66.55830895154571,16.464707622032165,68.02099295154572,16.464707622032165,68.02099295154572,16.464707622032165C68.02099295154572,16.464707622032165,68.02099295154572,16.464707622032165,68.02099295154572,16.464707622032165Z" fill="#444444" fill-opacity="1"/><path d="M69.2853022813797,15.434968722032165C69.2853022813797,15.434968722032165,69.8060762813797,15.434968722032165,69.8060762813797,15.434968722032165C69.8060762813797,15.434968722032165,69.8561892813797,15.781355622032166,69.8561892813797,15.781355622032166C69.8561892813797,15.781355622032166,69.8724612813797,15.781355622032166,69.8724612813797,15.781355622032166C70.1552412813797,15.558204622032166,70.4654622813797,15.371227622032166,70.8809822813797,15.371227622032166C71.5291622813797,15.371227622032166,71.8175322813797,15.726550622032166,71.8175322813797,16.364526622032166C71.8175322813797,16.364526622032166,71.8175322813797,17.940737622032167,71.8175322813797,17.940737622032167C71.8175322813797,17.940737622032167,71.1802822813797,17.940737622032167,71.1802822813797,17.940737622032167C71.1802822813797,17.940737622032167,71.1802822813797,16.428237622032164,71.1802822813797,16.428237622032164C71.1802822813797,15.995571622032166,71.0248922813797,15.822266622032165,70.6650822813797,15.822266622032165C70.3823022813797,15.822266622032165,70.1885582813797,15.940779622032165,69.9169572813797,16.163930622032165C69.9169572813797,16.163930622032165,69.9169572813797,17.940737622032167,69.9169572813797,17.940737622032167C69.9169572813797,17.940737622032167,69.2853022813797,17.940737622032167,69.2853022813797,17.940737622032167C69.2853022813797,17.940737622032167,69.2853022813797,15.434968722032165,69.2853022813797,15.434968722032165C69.2853022813797,15.434968722032165,69.2853022813797,15.434968722032165,69.2853022813797,15.434968722032165Z" fill="#444444" fill-opacity="1"/><path d="M72.84356510681916,17.120761817541123C72.84356510681916,17.120761817541123,72.84356510681916,15.854231817541123,72.84356510681916,15.854231817541123C72.84356510681916,15.854231817541123,72.40034210681915,15.854231817541123,72.40034210681915,15.854231817541123C72.40034210681915,15.854231817541123,72.40034210681915,15.462468817541122,72.40034210681915,15.462468817541122C72.40034210681915,15.462468817541122,72.87130610681915,15.434954817541122,72.87130610681915,15.434954817541122C72.87130610681915,15.434954817541122,72.94324010681915,14.742671817541122,72.94324010681915,14.742671817541122C72.94324010681915,14.742671817541122,73.48081210681916,14.742671817541122,73.48081210681916,14.742671817541122C73.48081210681916,14.742671817541122,73.48081210681916,15.434954817541122,73.48081210681916,15.434954817541122C73.48081210681916,15.434954817541122,74.27293210681916,15.434954817541122,74.27293210681916,15.434954817541122C74.27293210681916,15.434954817541122,74.27293210681916,15.854231817541123,74.27293210681916,15.854231817541123C74.27293210681916,15.854231817541123,73.48081210681916,15.854231817541123,73.48081210681916,15.854231817541123C73.48081210681916,15.854231817541123,73.48081210681916,17.12521181754112,73.48081210681916,17.12521181754112C73.48081210681916,17.42598181754112,73.60795210681916,17.580711817541122,73.92378210681915,17.580711817541122C74.02906210681915,17.580711817541122,74.16180210681915,17.553431817541124,74.25055210681916,17.52169181754112C74.25055210681916,17.52169181754112,74.36701210681915,17.90899181754112,74.36701210681915,17.90899181754112C74.19534210681915,17.954361817541123,73.99014210681915,17.999991817541122,73.76865210681915,17.999991817541122C73.08183510681916,17.999991817541122,72.84356510681916,17.64913181754112,72.84356510681916,17.120761817541123C72.84356510681916,17.120761817541123,72.84356510681916,17.120761817541123,72.84356510681916,17.120761817541123Z" fill="#444444" fill-opacity="1"/><path d="M74.6281863451004,16.692567622032165C74.6281863451004,15.877065622032166,75.3041033451004,15.371227622032166,76.01864634510041,15.371227622032166C76.8275563451004,15.371227622032166,77.2598563451004,15.849773622032165,77.2598563451004,16.560397622032166C77.2598563451004,16.660577622032164,77.2486463451004,16.765447622032166,77.2318663451004,16.824477622032166C77.2318663451004,16.824477622032166,75.2542663451004,16.824477622032166,75.2542663451004,16.824477622032166C75.3041033451004,17.302767622032164,75.6697663451004,17.589887622032165,76.1961563451004,17.589887622032165C76.4674663451004,17.589887622032165,76.7004063451004,17.521707622032167,76.9218763451004,17.403187622032167C76.9218763451004,17.403187622032167,77.1436163451004,17.735687622032167,77.1436163451004,17.735687622032167C76.86110634510041,17.890657622032165,76.51197634510041,17.999997622032165,76.1129963451004,17.999997622032165C75.2873203451004,17.999997622032165,74.6281863451004,17.516977622032165,74.6281863451004,16.692567622032165C74.6281863451004,16.692567622032165,74.6281863451004,16.692567622032165,74.6281863451004,16.692567622032165ZM76.7111063451004,16.464707622032165C76.7111063451004,16.032040622032167,76.47307634510041,15.781355622032166,76.0301063451004,15.781355622032166C75.6473863451004,15.781355622032166,75.3096933451004,16.022849622032165,75.2489383451004,16.464707622032165C75.2489383451004,16.464707622032165,76.7111063451004,16.464707622032165,76.7111063451004,16.464707622032165C76.7111063451004,16.464707622032165,76.7111063451004,16.464707622032165,76.7111063451004,16.464707622032165Z" fill="#444444" fill-opacity="1"/><path d="M77.97564041614532,15.434968722032165C77.97564041614532,15.434968722032165,78.49642841614532,15.434968722032165,78.49642841614532,15.434968722032165C78.49642841614532,15.434968722032165,78.54654141614533,15.886236622032165,78.54654141614533,15.886236622032165C78.54654141614533,15.886236622032165,78.56277241614532,15.886236622032165,78.56277241614532,15.886236622032165C78.77895941614533,15.562666622032166,79.10034041614533,15.371227622032203,79.42737041614532,15.371227622032203C79.57692041614533,15.371227622032203,79.67634041614532,15.389590322032166,79.77067041614532,15.426032922032165C79.77067041614532,15.426032922032165,79.65423041614532,15.881519622032165,79.65423041614532,15.881519622032165C79.54920041614533,15.854241622032166,79.47163041614533,15.840608622032166,79.34983041614532,15.840608622032166C79.10034041614533,15.840608622032166,78.80106941614532,15.981703622032166,78.60730941614533,16.378157622032166C78.60730941614533,16.378157622032166,78.60730941614533,17.940737622032167,78.60730941614533,17.940737622032167C78.60730941614533,17.940737622032167,77.97564041614532,17.940737622032167,77.97564041614532,17.940737622032167C77.97564041614532,17.940737622032167,77.97564041614532,15.434968722032165,77.97564041614532,15.434968722032165C77.97564041614532,15.434968722032165,77.97564041614532,15.434968722032165,77.97564041614532,15.434968722032165Z" fill="#444444" fill-opacity="1"/></g></g><g style="mix-blend-mode:passthrough"><g><path d="M33.403791427612305,10.63556287022233C34.179880427612304,10.45976287022233,34.890381427612304,10.25745287022233,35.53574142761231,10.028082870222331C36.181121427612304,9.79898287022233,36.781771427612306,9.52821287022233,37.338651427612305,9.21581287022233C36.15774142761231,8.064582870222331,35.1876114276123,6.64952287022233,34.428571427612304,4.97117287022233C34.428571427612304,4.97117287022233,36.61749142761231,4.97117287022233,36.61749142761231,4.97117287022233C37.292131427612304,6.23968287022233,38.06822142761231,7.26916287022233,38.945521427612306,8.05962287022233C39.45130142761231,7.59099287022233,39.917401427612305,7.06187287022233,40.3435914276123,6.47125287022233C40.769031427612305,5.881132870222331,41.1720714276123,5.19556287022233,41.5514814276123,4.415012870222331C41.5514814276123,4.415012870222331,33.403791427612305,4.415012870222331,33.403791427612305,4.415012870222331C33.403791427612305,4.415012870222331,33.403791427612305,2.96600087022233,33.403791427612305,2.96600087022233C33.403791427612305,2.96600087022233,38.02168142761231,2.98062887022233,38.02168142761231,2.98062887022233C38.02168142761231,2.98062887022233,37.6674614276123,2.05851287022233,37.6674614276123,2.05851287022233C37.6674614276123,2.05851287022233,39.717031427612305,2.05851287022233,39.717031427612305,2.05851287022233C39.717031427612305,2.05851287022233,40.0712514276123,2.96600087022233,40.0712514276123,2.96600087022233C40.0712514276123,2.96600087022233,44.48669142761231,2.96600087022233,44.48669142761231,2.96600087022233C44.48669142761231,2.96600087022233,44.48669142761231,4.415012870222331,44.48669142761231,4.415012870222331C44.48669142761231,4.415012870222331,43.68959142761231,4.415012870222331,43.68959142761231,4.415012870222331C42.92211142761231,6.33735287022233,41.8762014276123,7.93763287022233,40.5521114276123,9.21581287022233C41.108751427612304,9.52821287022233,41.709911427612305,9.79898287022233,42.35502142761231,10.028082870222331C43.0001714276123,10.25745287022233,43.7108914276123,10.45976287022233,44.48669142761231,10.63556287022233C44.48669142761231,10.63556287022233,44.48669142761231,12.55291287022233,44.48669142761231,12.55291287022233C42.344091427612305,12.22141287022233,40.49719142761231,11.53834287022233,38.945521427612306,10.50389287022233C38.1607714276123,11.02111287022233,37.310941427612306,11.45057287022233,36.39601142761231,11.79174287022233C35.4808114276123,12.13341287022233,34.48351142761231,12.38711287022233,33.403791427612305,12.55291287022233C33.403791427612305,12.55291287022233,33.403791427612305,10.63556287022233,33.403791427612305,10.63556287022233C33.403791427612305,10.63556287022233,33.403791427612305,10.63556287022233,33.403791427612305,10.63556287022233Z" fill="#444444" fill-opacity="1"/><path d="M45.23333168029785,2.834098C45.23333168029785,2.834098,46.63751168029785,2.834098,46.63751168029785,2.834098C46.63751168029785,2.834098,46.63751168029785,2,46.63751168029785,2C46.63751168029785,2,48.13045168029785,2,48.13045168029785,2C48.13045168029785,2,48.13045168029785,2.834098,48.13045168029785,2.834098C48.13045168029785,2.834098,49.53490168029785,2.834098,49.53490168029785,2.834098C49.53490168029785,2.834098,49.53490168029785,4.28312,49.53490168029785,4.28312C49.53490168029785,4.28312,48.13045168029785,4.28312,48.13045168029785,4.28312C48.13045168029785,4.28312,48.13045168029785,12.553,48.13045168029785,12.553C48.13045168029785,12.553,46.63751168029785,12.553,46.63751168029785,12.553C46.63751168029785,12.553,46.63751168029785,4.28312,46.63751168029785,4.28312C46.63751168029785,4.28312,45.23333168029785,4.28312,45.23333168029785,4.28312C45.23333168029785,4.28312,45.23333168029785,2.834098,45.23333168029785,2.834098C45.23333168029785,2.834098,45.23333168029785,2.834098,45.23333168029785,2.834098ZM45.23333168029785,12.553C45.23333168029785,12.553,45.473657680297855,4.66372,45.473657680297855,4.66372C45.473657680297855,4.66372,46.46056168029785,4.66372,46.46056168029785,4.66372C46.46056168029785,4.66372,46.219990680297855,12.553,46.219990680297855,12.553C46.219990680297855,12.553,45.23333168029785,12.553,45.23333168029785,12.553C45.23333168029785,12.553,45.23333168029785,12.553,45.23333168029785,12.553ZM49.53490168029785,12.553C49.53490168029785,12.553,48.548011680297854,12.553,48.548011680297854,12.553C48.548011680297854,12.553,48.30743168029785,4.66372,48.30743168029785,4.66372C48.30743168029785,4.66372,49.29434168029785,4.66372,49.29434168029785,4.66372C49.29434168029785,4.66372,49.53490168029785,12.553,49.53490168029785,12.553C49.53490168029785,12.553,49.53490168029785,12.553,49.53490168029785,12.553ZM50.67335168029785,4.59057C50.67335168029785,4.59057,50.06613168029785,2.40961,50.06613168029785,2.40961C50.06613168029785,2.40961,51.50845168029785,2.40961,51.50845168029785,2.40961C51.50845168029785,2.40961,52.10324168029785,4.59057,52.10324168029785,4.59057C52.10324168029785,4.59057,50.67335168029785,4.59057,50.67335168029785,4.59057C50.67335168029785,4.59057,50.67335168029785,4.59057,50.67335168029785,4.59057ZM56.30353168029785,11.00154C56.30353168029785,11.22594,56.267431680297854,11.43571,56.19603168029785,11.63084C56.124031680297854,11.82622,56.025131680297854,11.99682,55.89853168029785,12.1431C55.77233168029785,12.2894,55.62463168029785,12.4045,55.45583168029785,12.487C55.286931680297855,12.5701,55.10587168029785,12.6115,54.911861680297854,12.6115C54.911861680297854,12.6115,50.10399168029785,12.6115,50.10399168029785,12.6115C50.10399168029785,12.6115,50.10399168029785,11.26486,50.10399168029785,11.26486C50.10399168029785,11.26486,54.266471680297855,11.26486,54.266471680297855,11.26486C54.376071680297855,11.26486,54.46913168029785,11.22148,54.544901680297855,11.13445C54.620941680297854,11.04742,54.65885168029785,10.93609,54.65885168029785,10.80071C54.65885168029785,10.80071,54.65885168029785,9.567160000000001,54.65885168029785,9.567160000000001C54.65885168029785,9.567160000000001,50.10399168029785,9.567160000000001,50.10399168029785,9.567160000000001C50.10399168029785,9.567160000000001,50.10399168029785,8.23518,50.10399168029785,8.23518C50.10399168029785,8.23518,54.65885168029785,8.23518,54.65885168029785,8.23518C54.65885168029785,8.23518,54.65885168029785,6.66889,54.65885168029785,6.66889C54.65885168029785,6.66889,50.10399168029785,6.66889,50.10399168029785,6.66889C50.10399168029785,6.66889,50.10399168029785,5.33714,50.10399168029785,5.33714C50.10399168029785,5.33714,52.457461680297854,5.33714,52.457461680297854,5.33714C52.457461680297854,5.33714,52.457461680297854,2.0585196,52.457461680297854,2.0585196C52.457461680297854,2.0585196,53.950141680297854,2.0585196,53.950141680297854,2.0585196C53.950141680297854,2.0585196,53.950141680297854,5.33714,53.950141680297854,5.33714C53.950141680297854,5.33714,56.30353168029785,5.33714,56.30353168029785,5.33714C56.30353168029785,5.33714,56.30353168029785,11.00154,56.30353168029785,11.00154C56.30353168029785,11.00154,56.30353168029785,11.00154,56.30353168029785,11.00154ZM56.265731680297854,2.40961C56.265731680297854,2.40961,55.65843168029785,4.59057,55.65843168029785,4.59057C55.65843168029785,4.59057,54.22859168029785,4.59057,54.22859168029785,4.59057C54.22859168029785,4.59057,54.82334168029785,2.40961,54.82334168029785,2.40961C54.82334168029785,2.40961,56.265731680297854,2.40961,56.265731680297854,2.40961C56.265731680297854,2.40961,56.265731680297854,2.40961,56.265731680297854,2.40961Z" fill="#444444" fill-opacity="1"/><path d="M63.451640763549804,2.05851287022233C63.451640763549804,2.05851287022233,63.451640763549804,2.93674387022233,63.451640763549804,2.93674387022233C63.451640763549804,2.93674387022233,68.1325607635498,2.93674387022233,68.1325607635498,2.93674387022233C68.1325607635498,2.93674387022233,68.1325607635498,4.06367287022233,68.1325607635498,4.06367287022233C68.1325607635498,4.06367287022233,68.1325607635498,4.29773287022233,68.1325607635498,4.29773287022233C68.1325607635498,4.29773287022233,68.1325607635498,9.405982870222331,68.1325607635498,9.405982870222331C68.1325607635498,9.79650287022233,68.01456076354981,10.12825287022233,67.77866076354981,10.40124287022233C67.5421607635498,10.67473287022233,67.2553607635498,10.81111287022233,66.9181007635498,10.81111287022233C66.9181007635498,10.81111287022233,63.451640763549804,10.81111287022233,63.451640763549804,10.81111287022233C63.451640763549804,10.81111287022233,63.451640763549804,12.55291287022233,63.451640763549804,12.55291287022233C63.451640763549804,12.55291287022233,61.756290763549806,12.55291287022233,61.756290763549806,12.55291287022233C61.756290763549806,12.55291287022233,61.756290763549806,10.81111287022233,61.756290763549806,10.81111287022233C61.756290763549806,10.81111287022233,57.062360763549805,10.81111287022233,57.062360763549805,10.81111287022233C57.062360763549805,10.81111287022233,57.062360763549805,10.67944287022233,57.062360763549805,10.67944287022233C57.062360763549805,10.67944287022233,57.062360763549805,9.44986287022233,57.062360763549805,9.44986287022233C57.062360763549805,9.44986287022233,57.062360763549805,4.29773287022233,57.062360763549805,4.29773287022233C57.062360763549805,4.29773287022233,57.062360763549805,4.06367287022233,57.062360763549805,4.06367287022233C57.062360763549805,4.06367287022233,57.062360763549805,2.93674387022233,57.062360763549805,2.93674387022233C57.062360763549805,2.93674387022233,61.756290763549806,2.93674387022233,61.756290763549806,2.93674387022233C61.756290763549806,2.93674387022233,61.756290763549806,2.05851287022233,61.756290763549806,2.05851287022233C61.756290763549806,2.05851287022233,63.451640763549804,2.05851287022233,63.451640763549804,2.05851287022233C63.451640763549804,2.05851287022233,63.451640763549804,2.05851287022233,63.451640763549804,2.05851287022233ZM61.756290763549806,9.44986287022233C61.756290763549806,9.44986287022233,61.756290763549806,4.29773287022233,61.756290763549806,4.29773287022233C61.756290763549806,4.29773287022233,58.75795076354981,4.29773287022233,58.75795076354981,4.29773287022233C58.75795076354981,4.29773287022233,58.75795076354981,9.44986287022233,58.75795076354981,9.44986287022233C58.75795076354981,9.44986287022233,61.756290763549806,9.44986287022233,61.756290763549806,9.44986287022233C61.756290763549806,9.44986287022233,61.756290763549806,9.44986287022233,61.756290763549806,9.44986287022233ZM63.451640763549804,4.29773287022233C63.451640763549804,4.29773287022233,63.451640763549804,9.44986287022233,63.451640763549804,9.44986287022233C63.451640763549804,9.44986287022233,66.1590607635498,9.44986287022233,66.1590607635498,9.44986287022233C66.2350707635498,9.44986287022233,66.3004507635498,9.418372870222331,66.3551107635498,9.354902870222329C66.4097807635498,9.29143287022233,66.4375007635498,9.21581287022233,66.4375007635498,9.12803287022233C66.4375007635498,9.12803287022233,66.4375007635498,4.29773287022233,66.4375007635498,4.29773287022233C66.4375007635498,4.29773287022233,63.451640763549804,4.29773287022233,63.451640763549804,4.29773287022233C63.451640763549804,4.29773287022233,63.451640763549804,4.29773287022233,63.451640763549804,4.29773287022233Z" fill="#444444" fill-opacity="1"/><path d="M69.70155205895996,3.14154287022233C69.70155205895996,3.14154287022233,71.39689605895997,3.14154287022233,71.39689605895997,3.14154287022233C71.39689605895997,3.14154287022233,70.57451605895996,11.89439287022233,70.57451605895996,11.89439287022233C70.57451605895996,11.89439287022233,68.86647605895996,11.89439287022233,68.86647605895996,11.89439287022233C68.86647605895996,11.89439287022233,69.70155205895996,3.14154287022233,69.70155205895996,3.14154287022233C69.70155205895996,3.14154287022233,69.70155205895996,3.14154287022233,69.70155205895996,3.14154287022233ZM73.38340605895996,2.05851287022233C73.38340605895996,2.05851287022233,73.38340605895996,10.86962287022233,73.38340605895996,10.86962287022233C73.38340605895996,10.95765287022233,73.41034605895996,11.03327287022233,73.46555605895996,11.09674287022233C73.52021605895996,11.16022287022233,73.58555605895997,11.191702870222331,73.66135605895997,11.191702870222331C73.66135605895997,11.191702870222331,77.26740605895996,11.191702870222331,77.26740605895996,11.191702870222331C77.26740605895996,11.191702870222331,76.83717605895995,12.55291287022233,76.83717605895995,12.55291287022233C76.83717605895995,12.55291287022233,72.86439605895995,12.55291287022233,72.86439605895995,12.55291287022233C72.52722605895997,12.55291287022233,72.24037605895997,12.41661287022233,72.00413605895996,12.14311287022233C71.76790605895997,11.87010287022233,71.64990605895996,11.53834287022233,71.64990605895996,11.14781287022233C71.64990605895996,11.14781287022233,71.64990605895996,2.05851287022233,71.64990605895996,2.05851287022233C71.64990605895996,2.05851287022233,73.38340605895996,2.05851287022233,73.38340605895996,2.05851287022233C73.38340605895996,2.05851287022233,73.38340605895996,2.05851287022233,73.38340605895996,2.05851287022233ZM76.84988605895997,10.16719287022233C76.84988605895997,10.16719287022233,75.07849605895996,10.16719287022233,75.07849605895996,10.16719287022233C75.07849605895996,10.16719287022233,73.85129605895996,2.29256387022233,73.85129605895996,2.29256387022233C73.85129605895996,2.29256387022233,75.62267605895997,2.29256387022233,75.62267605895997,2.29256387022233C75.62267605895997,2.29256387022233,76.84988605895997,10.16719287022233,76.84988605895997,10.16719287022233C76.84988605895997,10.16719287022233,76.84988605895997,10.16719287022233,76.84988605895997,10.16719287022233ZM79.99997605895996,12.333312870222331C79.99997605895996,12.333312870222331,78.22889605895996,12.333312870222331,78.22889605895996,12.333312870222331C78.22889605895996,12.333312870222331,76.59662605895996,3.14154287022233,76.59662605895996,3.14154287022233C76.59662605895996,3.14154287022233,78.36798605895996,3.14154287022233,78.36798605895996,3.14154287022233C78.36798605895996,3.14154287022233,79.99997605895996,12.333312870222331,79.99997605895996,12.333312870222331C79.99997605895996,12.333312870222331,79.99997605895996,12.333312870222331,79.99997605895996,12.333312870222331Z" fill="#444444" fill-opacity="1"/></g></g></g></g><g style="mix-blend-mode:passthrough"><g><path d="M15.082995414733887,13.063363460083007C15.358474414733887,13.709003460083007,15.718618414733887,14.311523460083007,16.149515414733887,14.859083460083008C16.853445414733887,14.451863460083008,17.461205414733886,13.903213460083007,17.932565414733887,13.253913460083009C17.264425414733886,12.333433460083008,16.870015414733885,11.211163460083007,16.870015414733885,10.000093460083008C16.870015414733885,11.300843460083009,16.151285414733888,12.437983460083007,15.082995414733887,13.063363460083007C15.082995414733887,13.063363460083007,15.082995414733887,13.063363460083007,15.082995414733887,13.063363460083007Z" fill="#444444" fill-opacity="1"/><path d="M22.6608832913208,13.574073460083008C22.6608832913208,13.574073460083008,26.1821032913208,13.574073460083008,26.1821032913208,13.574073460083008C26.1821032913208,13.574073460083008,26.1821032913208,15.646553460083009,26.1821032913208,15.646553460083009C26.1821032913208,15.646553460083009,22.6608832913208,15.646553460083009,22.6608832913208,15.646553460083009C21.5859732913208,15.646553460083009,20.5793632913208,15.358563460083008,19.715833291320802,14.859083460083008C19.2113032913208,15.500193460083008,18.6097262913208,16.064333460083006,17.9325532913208,16.53170346008301C19.2701132913208,17.45499346008301,20.9010432913208,17.99996346008301,22.6608832913208,17.99996346008301C22.6608832913208,17.99996346008301,28.5956532913208,17.99996346008301,28.5956532913208,17.99996346008301C28.5956532913208,17.99996346008301,28.5956532913208,11.220653460083009,28.5956532913208,11.220653460083009C28.5956532913208,11.220653460083009,22.6608832913208,11.220653460083009,22.6608832913208,11.220653460083009C21.970433291320802,11.220653460083009,21.4088932913208,10.673099460083009,21.4088932913208,10.000093460083008C21.4088932913208,11.084623460083009,21.1853732913208,12.119163460083008,20.7823332913208,13.063363460083007C21.3326032913208,13.385223460083008,21.9737632913208,13.574073460083008,22.6608832913208,13.574073460083008C22.6608832913208,13.574073460083008,22.6608832913208,13.574073460083008,22.6608832913208,13.574073460083008Z" fill="#444444" fill-opacity="1"/><path d="M16.870015414733885,10.000081299972535C16.870015414733885,8.789001299972535,17.264425414733886,7.666521299972534,17.932565414733887,6.746031299972534C17.461205414733886,6.0967282999725345,16.853445414733887,5.548096299972534,16.149515414733887,5.140881299972534C15.718618414733887,5.688437299972534,15.358474414733887,6.290951299972534,15.082995414733887,6.936601299972534C16.151285414733888,7.561971299972534,16.870015414733885,8.699111299972534,16.870015414733885,10.000081299972535C16.870015414733885,10.000081299972535,16.870015414733885,10.000081299972535,16.870015414733885,10.000081299972535Z" fill="#444444" fill-opacity="1"/><path d="M22.6608832913208,8.77932C22.6608832913208,8.77932,28.5956532913208,8.77932,28.5956532913208,8.77932C28.5956532913208,8.77932,28.5956532913208,2,28.5956532913208,2C28.5956532913208,2,22.6608832913208,2,22.6608832913208,2C20.9010432913208,2,19.2701132913208,2.5449580000000003,17.9325532913208,3.46826C18.6097262913208,3.93561,19.2113032913208,4.4997799999999994,19.715833291320802,5.14088C20.5793632913208,4.6414,21.5859732913208,4.35339,22.6608832913208,4.35339C22.6608832913208,4.35339,26.1821032913208,4.35339,26.1821032913208,4.35339C26.1821032913208,4.35339,26.1821032913208,6.42591,26.1821032913208,6.42591C26.1821032913208,6.42591,22.6608832913208,6.42591,22.6608832913208,6.42591C21.9737632913208,6.42591,21.3326032913208,6.61454,20.7823332913208,6.93659C21.1853732913208,7.8808,21.4088932913208,8.91534,21.4088932913208,10.00009C21.4088932913208,9.32687,21.970433291320802,8.77932,22.6608832913208,8.77932C22.6608832913208,8.77932,22.6608832913208,8.77932,22.6608832913208,8.77932Z" fill="#444444" fill-opacity="1"/><path d="M13.204446818695068,11.220677625427246C13.204446818695068,11.220677625427246,11.952676818695068,11.220677625427246,11.952676818695068,11.220677625427246C11.952676818695068,11.220677625427246,11.952676818695068,8.779337625427246,11.952676818695068,8.779337625427246C11.952676818695068,8.779337625427246,13.204446818695068,8.779337625427246,13.204446818695068,8.779337625427246C13.894666818695068,8.779337625427246,14.456446818695069,9.326877625427246,14.456446818695069,10.000117625427245C14.456446818695069,8.915347625427247,14.679966818695068,7.880827625427246,15.082996818695069,6.936606625427246C14.532726818695068,6.614543625427246,13.891586818695068,6.425917625427246,13.204446818695068,6.425917625427246C13.204446818695068,6.425917625427246,9.539086818695068,6.425917625427246,9.539086818695068,6.425917625427246C9.539086818695068,6.425917625427246,9.539086818695068,13.574057625427246,9.539086818695068,13.574057625427246C9.539086818695068,13.574057625427246,13.204446818695068,13.574057625427246,13.204446818695068,13.574057625427246C13.891586818695068,13.574057625427246,14.532726818695068,13.385237625427246,15.082996818695069,13.063377625427247C14.679966818695068,12.119187625427246,14.456446818695069,11.084647625427246,14.456446818695069,10.000117625427245C14.456446818695069,10.673117625427246,13.894666818695068,11.220677625427246,13.204446818695068,11.220677625427246C13.204446818695068,11.220677625427246,13.204446818695068,11.220677625427246,13.204446818695068,11.220677625427246Z" fill="#A3A3A3" fill-opacity="1"/><path d="M16.1495,14.8591C15.286,15.3586,14.27913,15.6466,13.20445,15.6466C13.20445,15.6466,7.41357,15.6466,7.41357,15.6466C7.41357,15.6466,7.41357,4.35339,7.41357,4.35339C7.41357,4.35339,13.20445,4.35339,13.20445,4.35339C14.27913,4.35339,15.286,4.6414,16.1495,5.14088C16.6538,4.4997799999999994,17.2556,3.93561,17.9326,3.46826C16.595,2.5449580000000003,14.96427,2,13.20445,2C13.20445,2,5,2,5,2C5,2,5,18,5,18C5,18,13.20445,18,13.20445,18C14.96427,18,16.595,17.455,17.9326,16.5317C17.2556,16.0643,16.6538,15.5002,16.1495,14.8591C16.1495,14.8591,16.1495,14.8591,16.1495,14.8591Z" fill="#A3A3A3" fill-opacity="1"/><path d="M19.715821337280275,14.85908009185791C19.011901337280275,14.45186009185791,18.404121337280273,13.90324409185791,17.932551337280273,13.25393009185791C17.461201337280272,13.90324409185791,16.853452337280274,14.45186009185791,16.149511337280273,14.85908009185791C16.653799337280272,15.50019009185791,17.255591337280272,16.06435009185791,17.932551337280273,16.53170009185791C18.609731337280273,16.06435009185791,19.21131133728027,15.50019009185791,19.715821337280275,14.85908009185791C19.715821337280275,14.85908009185791,19.715821337280275,14.85908009185791,19.715821337280275,14.85908009185791Z" fill="#444444" fill-opacity="1"/><path d="M16.149511337280273,5.140885175819397C16.853452337280274,5.548105175819397,17.461201337280272,6.096725175819397,17.932551337280273,6.746045175819397C18.404121337280273,6.096725175819397,19.011901337280275,5.548105175819397,19.715821337280275,5.140885175819397C19.21131133728027,4.499775175819397,18.609731337280273,3.9356281758193967,17.932551337280273,3.468265175819397C17.255591337280272,3.9356281758193967,16.653799337280272,4.499775175819397,16.149511337280273,5.140885175819397C16.149511337280273,5.140885175819397,16.149511337280273,5.140885175819397,16.149511337280273,5.140885175819397Z" fill="#444444" fill-opacity="1"/><path d="M15.083001693969727,6.936599254608154C14.679961693969727,7.880812254608154,14.456445693969751,8.915349254608154,14.456445693969751,10.000089254608154C14.456445693969751,11.084639254608154,14.679961693969727,12.119169254608154,15.083001693969727,13.063369254608155C16.151275693969726,12.437999254608155,16.870035693969726,11.300849254608154,16.870035693969726,10.000089254608154C16.870035693969726,8.699119254608155,16.151275693969726,7.561972254608154,15.083001693969727,6.936599254608154C15.083001693969727,6.936599254608154,15.083001693969727,6.936599254608154,15.083001693969727,6.936599254608154Z" fill="#A3A3A3" fill-opacity="1"/><path d="M18.99530029296875,10.000089254608154C18.99530029296875,11.300849254608154,19.71404329296875,12.437999254608155,20.78234029296875,13.063369254608155C21.18537029296875,12.119169254608154,21.40887029296875,11.084639254608154,21.40887029296875,10.000089254608154C21.40887029296875,8.915349254608154,21.18537029296875,7.880812254608154,20.78234029296875,6.936599254608154C19.71404329296875,7.561972254608154,18.99530029296875,8.699339254608155,18.99530029296875,10.000089254608154C18.99530029296875,10.000089254608154,18.99530029296875,10.000089254608154,18.99530029296875,10.000089254608154Z" fill="#A3A3A3" fill-opacity="1"/></g></g></g></g></g></g></svg>