<svg version="1.1" xmlns="http://www.w3.org/2000/svg" xmlns:xlink="http://www.w3.org/1999/xlink" x="0px" y="0px" width="28px" height="60px" viewBox="0 0 28 60" enable-background="new 0 0 20 60" xml:space="preserve">
  <symbol id="svg-icon-crypted" viewBox="0 0 20 20">
    <path fill-rule="evenodd" clip-rule="evenodd" d="M10 3.00049C6.99987 4.99948 4 5.00023 4 5.00023V8.50023C4 10.5001 4.56284 15.9767 9.99961 17.0001C15.4364 15.9767 16 10.5001 16 8.50023V5.00023C16 5.00023 13.0001 4.99948 10 3.00049ZM14.0232 7.96528L12.9768 7.03517L9.42726 11.0284L6.94813 8.96247L6.05187 10.038L9.57274 12.972L14.0232 7.96528Z"/>
  </symbol>
  <symbol id="svg-icon-users" viewBox="0 0 28 20">
    <path fill-rule="evenodd" clip-rule="evenodd" d="M27 10c0 4.9706-4.0294 9-9 9s-9-4.0294-9-9 4.0294-9 9-9 9 4.0294 9 9Zm1 0c0 5.5228-4.4772 10-10 10-2.6253 0-5.0143-1.0116-6.7984-2.6664C10.2212 17.7622 9.1384 18 8 18c-4.4183 0-8-3.5817-8-8s3.5817-8 8-8c1.1384 0 2.2212.2378 3.2016.6664C12.9857 1.0116 15.3747 0 18 0c5.5228 0 10 4.4771 10 10ZM10.4512 3.4412A6.9851 6.9851 0 0 0 8 3c-3.866 0-7 3.134-7 7 0 1.5218.4856 2.9302 1.3103 4.0786a10.8167 10.8167 0 0 1 1.1237-.7596C4.5435 12.6664 6.1317 12 8 12c.0672 0 .134.0009.2006.0026a9.9847 9.9847 0 0 1-.1513-1.003A2.7009 2.7009 0 0 1 8 11c-1.6569 0-3-1.3431-3-3s1.3431-3 3-3c.426 0 .8314.0888 1.1985.249a10.0216 10.0216 0 0 1 1.2527-1.8078ZM8.767 6.1524A1.9939 1.9939 0 0 0 8 6c-1.1046 0-2 .8954-2 2s.8954 2 2 2c0-1.3635.2729-2.6632.767-3.8476Zm-.3043 6.8632A6.9148 6.9148 0 0 0 8 13c-1.6317 0-3.0435.5836-4.059 1.181a9.8046 9.8046 0 0 0-.9906.6668C4.2242 16.1743 6.0157 17 8 17a6.9835 6.9835 0 0 0 2.4512-.4412 9.9832 9.9832 0 0 1-1.9885-3.5432Z"/>
  </symbol>
</svg>
