<svg width="16" height="16" viewBox="0 0 16 16" xmlns="http://www.w3.org/2000/svg">
<path d="M16 2H0V14H16V2Z" fill="#006C35"/>
<path fill-rule="evenodd" clip-rule="evenodd" d="M6.75837 4.83595C6.74906 4.83567 6.73514 4.84087 6.71562 4.85245C6.67174 4.88186 6.58478 4.97246 6.58212 5.0767C6.57946 5.13551 6.56836 5.13528 6.60687 5.1727C6.63468 5.21281 6.66247 5.20887 6.71861 5.17945C6.75086 5.15569 6.76175 5.14054 6.77261 5.1007C6.78599 5.03389 6.70231 5.13231 6.69161 5.05795C6.67292 4.98891 6.72634 4.96052 6.77711 4.8937C6.77828 4.86223 6.77884 4.83656 6.75836 4.83595L6.75837 4.83595ZM7.57585 4.84045C7.56017 4.84256 7.54099 4.86265 7.51435 4.91095C7.49527 4.96153 7.41294 5.03808 7.47235 5.19595C7.52095 5.29605 7.54092 5.45872 7.51885 5.63995C7.48518 5.69145 7.4775 5.7092 7.43335 5.7607C7.37133 5.82739 7.30415 5.81034 7.25261 5.78545C7.20444 5.75298 7.16659 5.73632 7.14461 5.63319C7.14857 5.46882 7.15815 5.19978 7.12811 5.14268C7.08381 5.05427 7.01081 5.08598 6.97961 5.11268C6.82967 5.24977 6.75562 5.48125 6.71035 5.66543C6.66877 5.79966 6.62446 5.76084 6.59335 5.70668C6.51761 5.6357 6.51229 5.08069 6.42085 5.17193C6.2744 5.59049 6.50489 6.04901 6.66459 6.00445C6.77981 6.05215 6.85292 5.83283 6.90009 5.5927C6.93236 5.52531 6.95702 5.51756 6.97359 5.5522C6.96934 5.87155 6.99649 5.94278 7.07859 6.03969C7.26174 6.18099 7.41323 6.05759 7.42511 6.04569C7.43698 6.03381 7.56761 5.90319 7.56761 5.90319C7.59934 5.86981 7.64128 5.86778 7.68611 5.89719C7.72967 5.93679 7.72408 6.005 7.81736 6.05244C7.89586 6.08384 8.06348 6.06008 8.10236 5.99244C8.15468 5.90277 8.16737 5.87195 8.19161 5.83794C8.22896 5.78823 8.29286 5.81024 8.29286 5.82594C8.28691 5.85366 8.24936 5.88101 8.27486 5.93094C8.31927 5.96425 8.32959 5.94284 8.35586 5.93544C8.44877 5.89103 8.51861 5.68944 8.51861 5.68944C8.52272 5.61426 8.47994 5.61996 8.45261 5.63544C8.41695 5.65724 8.41476 5.66464 8.37911 5.68644C8.33368 5.69319 8.24568 5.72316 8.20211 5.65569C8.15762 5.57458 8.15737 5.4615 8.12336 5.37969C8.12336 5.37374 8.06392 5.25105 8.11886 5.24319C8.14658 5.24834 8.2062 5.26375 8.21561 5.21394C8.24469 5.16539 8.15287 5.02766 8.09036 4.9582C8.0361 4.89864 7.96118 4.89138 7.88861 4.9522C7.83778 4.99896 7.84532 5.05118 7.83536 5.1007C7.82241 5.15757 7.82489 5.22801 7.88261 5.3032C7.93333 5.40322 8.02549 5.53156 7.99511 5.71268C7.99511 5.71268 7.94156 5.79889 7.84736 5.78768C7.8081 5.77912 7.74412 5.76213 7.71011 5.51094C7.68437 5.3208 7.71656 5.05441 7.63586 4.92968C7.61764 4.88262 7.60199 4.83692 7.57586 4.84043L7.57585 4.84045ZM7.31713 4.86061C7.29272 4.86274 7.26568 4.89117 7.24363 4.94611C7.22472 4.98788 7.20161 5.20636 7.20538 5.20636C7.19029 5.27139 7.27332 5.29894 7.31113 5.21536C7.36781 5.06214 7.36808 4.99686 7.37188 4.93188C7.36305 4.88237 7.34154 4.85849 7.31713 4.86062L7.31713 4.86061ZM8.27262 4.87786C8.24755 4.88013 8.22758 4.89481 8.22012 4.93186C8.21013 5.01897 8.21524 5.06633 8.22987 5.13886C8.2411 5.18722 8.31148 5.26818 8.34612 5.31511C8.51163 5.53757 8.67087 5.7611 8.82464 5.99237C8.84881 6.16409 8.86652 6.33206 8.87789 6.49937C8.9028 6.86618 8.91038 7.32281 8.88764 7.70911C8.95636 7.71182 9.06648 7.59814 9.10514 7.43162C9.13027 7.20128 9.09618 6.7313 9.09389 6.59537C9.09227 6.53893 9.08879 6.4716 9.08489 6.40111C9.26375 6.69341 9.43728 7.00308 9.60763 7.34311C9.66973 7.3136 9.65596 6.96396 9.61963 6.91486C9.48329 6.62141 9.29493 6.33175 9.23489 6.22035C9.21321 6.18011 9.13938 6.06783 9.05189 5.93835C9.03578 5.75358 9.01827 5.59709 9.00689 5.54983C8.97875 5.35452 9.08716 5.57186 9.07214 5.45833C9.03696 5.26329 8.92931 5.13073 8.80214 4.95208C8.76113 4.89397 8.76195 4.88212 8.69864 4.96633C8.6608 5.05217 8.66131 5.12359 8.67239 5.19058C8.65574 5.16638 8.63515 5.13769 8.60564 5.10208C8.49581 5.00786 8.48904 5.00271 8.39789 4.92583C8.36915 4.90543 8.31443 4.87404 8.27264 4.87783L8.27262 4.87786ZM11.1046 4.90711C11.0924 4.90521 11.0791 4.91121 11.0641 4.93336C11.0355 4.95847 11.0047 5.00394 11.0056 5.06236C11.0126 5.16529 11.0309 5.27068 11.0379 5.37362C11.0403 5.38739 11.0429 5.40109 11.0454 5.41487C11.0343 5.40076 11.0247 5.38974 11.0191 5.38412C10.8185 5.17335 11.1113 5.34967 10.9809 5.18687C10.8706 5.06575 10.8383 5.02721 10.7439 4.95437C10.6965 4.92377 10.6679 4.8653 10.6524 4.96487C10.6462 5.05234 10.6397 5.15363 10.6456 5.22738C10.6453 5.26836 10.6877 5.3455 10.7244 5.39088C10.8582 5.55532 10.9949 5.73029 11.1324 5.91288C11.1613 6.28526 11.169 6.62662 11.1984 6.99962C11.1942 7.15916 11.1451 7.37105 11.0986 7.39111C11.0986 7.39111 11.0276 7.43192 10.9801 7.38661C10.9456 7.37275 10.8076 7.15636 10.8076 7.15636C10.737 7.0916 10.6899 7.11011 10.6396 7.15636C10.501 7.29021 10.4383 7.54091 10.3441 7.71362C10.3198 7.75215 10.2514 7.78495 10.1754 7.71062C9.98222 7.44671 10.0952 7.07106 10.0711 7.16762C9.89909 7.3615 9.97528 7.68278 10.0141 7.75187C10.0709 7.86535 10.1168 7.938 10.2271 7.99413C10.3277 8.06813 10.406 8.02194 10.4491 7.97013C10.5503 7.86529 10.5516 7.59717 10.5991 7.54413C10.6324 7.44669 10.7159 7.46345 10.7566 7.50663C10.7961 7.56335 10.8427 7.60026 10.9006 7.63113C10.995 7.71437 11.1076 7.72949 11.2186 7.65363C11.2945 7.61108 11.3437 7.55578 11.3881 7.44663C11.4358 7.31917 11.4122 6.65122 11.4016 6.27963C11.4729 6.38002 11.5432 6.48259 11.6131 6.58637C11.6438 6.91256 11.6577 7.2338 11.6476 7.54186C11.6404 7.60311 11.8614 7.35899 11.8599 7.24335C11.8589 7.14217 11.8601 7.05047 11.8599 6.96509C11.9671 7.13623 12.0708 7.31021 12.1689 7.48635C12.2297 7.45415 12.2088 7.11008 12.1704 7.0626C12.0677 6.89032 11.9362 6.70414 11.8344 6.56009C11.8143 6.37829 11.7869 6.1638 11.7744 6.09809C11.755 5.99562 11.7355 5.8417 11.7061 5.72009C11.6981 5.67261 11.6738 5.52093 11.6814 5.50634C11.6934 5.47241 11.7386 5.50743 11.7609 5.46809C11.7942 5.43173 11.6453 5.04574 11.5696 4.93558C11.5424 4.88621 11.4933 4.90329 11.4324 4.98358C11.3759 5.03641 11.3966 5.15694 11.4181 5.27158C11.4741 5.56376 11.5241 5.86131 11.5636 6.15809C11.4904 6.04927 11.4011 5.91759 11.3131 5.7906C11.3108 5.77836 11.3019 5.73348 11.3019 5.73286C11.3019 5.72761 11.2897 5.49384 11.2794 5.43811C11.2776 5.41549 11.2722 5.40898 11.2959 5.41186C11.321 5.433 11.3244 5.43414 11.3401 5.44111C11.3655 5.44576 11.3877 5.40286 11.3724 5.36311C11.2939 5.21833 11.2154 5.0729 11.1369 4.92811C11.1274 4.91881 11.1168 4.90901 11.1046 4.90711L11.1046 4.90711ZM3.7959 4.91461C3.75241 4.91337 3.70442 4.94033 3.72315 4.99261C3.71224 5.0211 3.80829 5.11743 3.82515 5.17036C3.84027 5.20805 3.81016 5.32941 3.84165 5.34061C3.87061 5.35316 3.91049 5.2566 3.92565 5.16736C3.93405 5.11847 3.9277 4.95116 3.8139 4.91685C3.80808 4.91553 3.80212 4.91477 3.7959 4.9146L3.7959 4.91461ZM12.1217 4.91557C12.1118 4.91655 12.0998 4.93258 12.0812 4.97182C12.0367 5.04473 12.0214 5.17528 12.0392 5.29056C12.1464 6.01544 12.226 6.71734 12.2425 7.35982C12.2333 7.4208 12.2306 7.45324 12.202 7.53007C12.1387 7.61116 12.069 7.71281 12.0032 7.76182C11.9375 7.81081 11.7977 7.85751 11.752 7.89382C11.6069 7.97766 11.6062 8.07409 11.7235 8.07757C11.9256 8.0541 12.1648 8.03752 12.3295 7.78883C12.3736 7.71913 12.4255 7.5302 12.4277 7.41457C12.4431 6.73664 12.4191 6.07379 12.3175 5.58383C12.311 5.5361 12.2899 5.42639 12.298 5.41208C12.3111 5.37852 12.3772 5.41543 12.4007 5.37683C12.4353 5.34155 12.2297 5.07836 12.1577 4.96583C12.1434 4.93756 12.1345 4.91431 12.1217 4.91557L12.1217 4.91557ZM10.0023 4.92682C9.99391 4.92826 9.98159 4.94096 9.95875 4.97107C9.90229 5.15567 9.88245 5.30642 9.90401 5.42107C10.049 6.17789 10.1976 6.86738 10.174 7.58781C10.2428 7.58827 10.3223 7.43049 10.3563 7.27433C10.3749 7.0592 10.3438 6.92827 10.3383 6.80181C10.3327 6.67537 10.1951 5.64948 10.1673 5.55381C10.1336 5.37292 10.301 5.53002 10.2828 5.42481C10.2249 5.29218 10.0805 5.09904 10.0353 4.98381C10.0183 4.95296 10.0162 4.92441 10.0023 4.92681L10.0023 4.92682ZM4.84153 4.94107C4.82371 4.94416 4.80651 4.95884 4.80028 4.98307C4.79636 4.99894 4.80715 5.02534 4.79278 5.03332C4.78453 5.04164 4.75323 5.03605 4.75453 4.99207C4.75453 4.97806 4.74425 4.96345 4.73803 4.95457C4.73179 4.95048 4.72758 4.94932 4.71628 4.94932C4.70252 4.94988 4.70283 4.95351 4.69528 4.96507C4.69192 4.97683 4.6876 4.98835 4.6876 5.00179C4.68588 5.01744 4.67962 5.02274 4.6681 5.02504C4.65523 5.02504 4.65828 5.02644 4.64785 5.01979C4.64166 5.01302 4.63435 5.01035 4.63435 4.99879C4.63435 4.98682 4.63121 4.9677 4.6276 4.95979C4.62214 4.95258 4.6135 4.94883 4.6036 4.94629C4.54968 4.94648 4.54575 5.00844 4.54885 5.03179C4.54481 5.03619 4.54281 5.14601 4.61635 5.17654C4.71507 5.22361 4.9002 5.20371 4.89235 5.04454C4.89235 5.03046 4.88926 4.98318 4.88785 4.97029C4.87778 4.94682 4.85918 4.93795 4.84135 4.94104L4.84153 4.94107ZM6.16605 4.94257C6.13193 4.94431 6.10181 4.95409 6.07605 4.96732C6.01061 5.02997 5.99527 5.13041 6.04679 5.19307C6.09694 5.21675 6.14698 5.26722 6.11354 5.29507C5.97174 5.44653 5.60266 5.69963 5.58406 5.74581C5.58391 5.74619 5.58339 5.74697 5.58331 5.74731C5.58326 5.74764 5.58331 5.74851 5.58331 5.74881C5.58332 5.74895 5.58328 5.74943 5.58331 5.74956C5.58343 5.74994 5.58382 5.75075 5.58406 5.75106C5.58415 5.75116 5.5847 5.75172 5.5848 5.75181C5.58492 5.75188 5.58542 5.75174 5.58555 5.75181C5.5857 5.75188 5.58614 5.7525 5.5863 5.75256C5.58647 5.75261 5.58686 5.75251 5.58705 5.75256C5.5871 5.75261 5.58774 5.75325 5.5878 5.75331C5.60656 5.76589 5.8375 5.76559 5.86306 5.75405C5.86325 5.75396 5.86365 5.7534 5.8638 5.75331C5.86388 5.75326 5.86449 5.75335 5.86455 5.75331C5.8646 5.75326 5.86451 5.75261 5.86455 5.75256C5.94392 5.72331 6.32055 5.29281 6.32055 5.29281C6.30103 5.2761 6.28305 5.26378 6.26355 5.24706C6.24265 5.22897 6.24476 5.21118 6.26355 5.19306C6.35683 5.13878 6.32727 5.01935 6.27855 4.96506C6.23817 4.94696 6.20017 4.94082 6.16605 4.94256L6.16605 4.94257ZM9.62805 4.94407C9.61813 4.94505 9.60606 4.96033 9.58755 4.99957C9.54304 5.07248 9.51279 5.19945 9.51629 5.31831C9.61272 5.98585 9.64228 6.57001 9.70529 7.23757C9.71042 7.30213 9.70096 7.39592 9.65804 7.43332C9.49931 7.59907 9.27042 7.80349 9.0213 7.89757C8.9945 7.92767 9.08794 8.05595 9.2088 8.05583C9.41091 8.03236 9.58855 7.91892 9.75331 7.62008C9.79736 7.55039 9.87479 7.40121 9.87706 7.28557C9.89247 6.60764 9.84289 6.08055 9.74131 5.59057C9.7348 5.54284 9.73923 5.48639 9.74731 5.47207C9.7604 5.45644 9.80477 5.47243 9.82831 5.43382C9.86285 5.39855 9.73605 5.1061 9.66406 4.99356C9.64968 4.9653 9.64081 4.9428 9.62806 4.94406L9.62805 4.94407ZM4.26477 4.96447C4.23687 4.96773 4.21063 4.99044 4.19802 5.02072C4.19335 5.12779 4.19272 5.2348 4.20477 5.33346C4.25346 5.50652 4.26888 5.65874 4.29252 5.83598C4.29907 6.07336 4.15544 5.93866 4.16202 5.82098C4.19518 5.66812 4.18623 5.42747 4.15677 5.36646C4.1334 5.30548 4.10634 5.29043 4.04952 5.30046C4.0044 5.29771 3.88785 5.4247 3.85526 5.63498C3.85526 5.63498 3.82812 5.74289 3.81626 5.83898C3.80032 5.94757 3.72839 6.02447 3.67826 5.82398C3.63494 5.67825 3.60831 5.31921 3.53576 5.40323C3.51498 5.68358 3.49031 6.17687 3.72851 6.22749C4.01663 6.25519 3.85748 5.74043 3.96176 5.64698C3.98148 5.6008 4.01802 5.59997 4.02102 5.65823V6.09548C4.01838 6.23762 4.11192 6.27987 4.18452 6.30923C4.26006 6.3034 4.31016 6.30547 4.33977 6.37898C4.35157 6.63103 4.36396 6.8837 4.37577 7.13572C4.37577 7.13572 4.55042 7.18591 4.55877 6.71047C4.56714 6.4313 4.50318 6.19704 4.54077 6.14272C4.5421 6.08936 4.6105 6.08672 4.65777 6.11272C4.73307 6.16585 4.76648 6.23122 4.88352 6.20498C5.0616 6.15592 5.16887 6.06947 5.17151 5.93272C5.16111 5.80277 5.14608 5.67268 5.08977 5.54272C5.09763 5.51909 5.05568 5.4576 5.06351 5.43397C5.09552 5.48409 5.14394 5.47993 5.15501 5.43397C5.1247 5.33409 5.07751 5.23838 5.00127 5.19697C4.93825 5.14145 4.84604 5.15319 4.81227 5.26897C4.79662 5.40238 4.86062 5.5605 4.95777 5.68971C4.9784 5.7402 5.00726 5.82417 4.99451 5.89971C4.94282 5.9292 4.89156 5.91693 4.84826 5.87121C4.84826 5.87121 4.70651 5.7651 4.70651 5.74147C4.74413 5.50063 4.71462 5.47305 4.69377 5.40621C4.6792 5.31395 4.63548 5.28473 4.60002 5.22171C4.56455 5.18412 4.51645 5.18412 4.49352 5.22171C4.43086 5.33032 4.46026 5.56352 4.50552 5.66797C4.53822 5.76403 4.58838 5.82397 4.56477 5.82397C4.54532 5.87825 4.50476 5.86562 4.47552 5.80297C4.43376 5.67347 4.42527 5.48048 4.42527 5.39348C4.41273 5.28561 4.39876 5.0552 4.32776 4.99673C4.30882 4.97093 4.28646 4.96195 4.26477 4.96448L4.26477 4.96447ZM5.27651 4.96597C5.26221 4.96778 5.24641 4.97592 5.22776 4.98022C5.16651 4.99972 5.10917 5.05267 5.12726 5.15572C5.19966 5.59569 5.24686 5.93147 5.31926 6.37146C5.33039 6.42299 5.2872 6.49091 5.23151 6.48396C5.13683 6.41991 5.11333 6.29017 4.95177 6.29571C4.83481 6.29712 4.70142 6.42439 4.68477 6.54697C4.66527 6.64438 4.65833 6.75001 4.68477 6.83497C4.76697 6.93381 4.86543 6.92327 4.95177 6.90097C5.02277 6.87175 5.08118 6.80178 5.10627 6.81847C5.10634 6.81854 5.10696 6.81837 5.10702 6.81847C5.10709 6.81856 5.10695 6.81912 5.10702 6.81922C5.1225 6.84628 5.10556 7.07513 4.77251 7.25196C4.56783 7.34386 4.40492 7.36582 4.31725 7.19871C4.26294 7.09428 4.3212 6.69653 4.1875 6.78845C3.7921 7.80766 5.11385 7.94993 5.2615 6.83045C5.27106 6.79887 5.30019 6.76718 5.32075 6.77495C5.32977 6.7788 5.33803 6.79105 5.341 6.81395C5.31035 7.82759 4.31846 7.89707 4.15 7.57821C4.10825 7.50305 4.09569 7.33574 4.0915 7.23547C4.08387 7.17481 4.06865 7.13982 4.051 7.12597C4.01081 7.09577 3.95681 7.17452 3.94525 7.31122C3.92854 7.42121 3.93325 7.45141 3.93325 7.55722C3.98616 8.35783 5.26257 8.01384 5.47 7.35247C5.57269 7.01056 5.46791 6.75264 5.50225 6.72098C5.50255 6.72073 5.50343 6.72045 5.50375 6.72023C5.50407 6.72004 5.5049 6.71965 5.50525 6.71948C5.50561 6.71934 5.50637 6.71885 5.50675 6.71873C5.50792 6.71842 5.50988 6.718 5.51125 6.71798C5.63796 6.85447 5.81576 6.73533 5.85474 6.68798C5.87145 6.6643 5.91326 6.64911 5.94248 6.67973C6.04133 6.75078 6.21457 6.71729 6.25074 6.59199C6.27164 6.46946 6.28931 6.34332 6.29349 6.2125C6.22911 6.23249 6.17715 6.24746 6.15624 6.2695C6.15126 6.27494 6.14758 6.28097 6.14649 6.2875C6.1409 6.32371 6.13558 6.36004 6.12999 6.39625C6.12939 6.39924 6.12843 6.40201 6.12699 6.4045C6.12424 6.40894 6.11971 6.41304 6.11499 6.41575C6.09223 6.42817 6.05254 6.42107 6.05049 6.388C6.01986 6.24876 5.89383 6.23065 5.81724 6.4465C5.76571 6.48825 5.67176 6.4964 5.66199 6.43375C5.67452 6.28894 5.61617 6.26951 5.49924 6.33775C5.46164 6.05092 5.42435 5.77708 5.38674 5.49026C5.43548 5.48886 5.48018 5.5242 5.52474 5.46851C5.47652 5.31854 5.37448 5.0134 5.31699 4.98477C5.31654 4.98455 5.31594 4.98419 5.31549 4.98402C5.31288 4.98089 5.30979 4.978 5.30724 4.97577C5.30618 4.97487 5.30454 4.97353 5.30349 4.97277C5.30244 4.97204 5.30079 4.97112 5.29974 4.97052C5.29743 4.96925 5.29454 4.96822 5.29224 4.96752C5.287 4.96603 5.2819 4.96533 5.27649 4.96602L5.27651 4.96597ZM9.22067 4.96822C9.17009 4.96672 9.11412 4.99859 9.13592 5.06197C9.12322 5.09653 9.2446 5.21379 9.26417 5.27797C9.2994 5.37657 9.23727 5.47062 9.27392 5.48422C9.30764 5.49943 9.35456 5.38242 9.37217 5.27422C9.39252 5.18675 9.33011 5.00748 9.24167 4.97047C9.23489 4.96888 9.2279 4.96844 9.22067 4.96823L9.22067 4.96822ZM6.14795 5.07622C6.17099 5.07387 6.19882 5.09504 6.21245 5.12497C6.22699 5.15689 6.2197 5.1874 6.19595 5.19322C6.1722 5.19903 6.14149 5.1779 6.12695 5.14597C6.11241 5.11404 6.1197 5.08278 6.14345 5.07697C6.14493 5.0766 6.14641 5.07637 6.14795 5.07622ZM11.8479 5.22397C11.8018 5.22235 11.7516 5.25737 11.7715 5.32597C11.7599 5.36339 11.8699 5.49049 11.8877 5.55997C11.9037 5.60941 11.8633 5.76876 11.8967 5.78347C11.9274 5.79994 11.9707 5.67337 11.9867 5.55622C11.9956 5.49209 11.9481 5.26704 11.8674 5.22696C11.8613 5.22523 11.8545 5.22419 11.8479 5.22396V5.22397ZM8.69651 5.30197C8.70073 5.32077 8.70494 5.3397 8.70776 5.35897C8.71721 5.40053 8.72536 5.44181 8.73401 5.48272C8.69761 5.43259 8.66747 5.39208 8.65451 5.37772C8.57214 5.27982 8.65637 5.31343 8.69651 5.30197H8.69651ZM9.42251 5.65897C9.40469 5.66205 9.38749 5.67749 9.38126 5.70172C9.37734 5.71758 9.38888 5.74323 9.37451 5.75122C9.36626 5.75954 9.3342 5.75469 9.33551 5.71072C9.33551 5.69671 9.32523 5.68134 9.31901 5.67246C9.31277 5.66838 9.30856 5.66721 9.29726 5.66721C9.28349 5.66777 9.28381 5.6714 9.27626 5.68296C9.27307 5.69475 9.26876 5.70636 9.26876 5.71971C9.26704 5.73536 9.26152 5.74066 9.25001 5.74296C9.23714 5.74296 9.23944 5.74436 9.22901 5.73771C9.22282 5.73094 9.21551 5.72828 9.21551 5.71671C9.21551 5.70474 9.21236 5.68562 9.20876 5.67771C9.20329 5.6705 9.19465 5.6675 9.18476 5.66496C9.13084 5.66516 9.12766 5.72637 9.13076 5.74971C9.12672 5.75411 9.12397 5.86468 9.19751 5.89521C9.29623 5.94229 9.4821 5.92164 9.47425 5.76246C9.47425 5.74838 9.4704 5.70111 9.469 5.68821C9.45893 5.66475 9.44032 5.65587 9.4225 5.65896L9.42251 5.65897ZM6.10763 5.69197C6.09546 5.69073 6.0795 5.69519 6.06113 5.70622C5.97383 5.75344 5.94002 5.89351 5.99438 5.97547C6.04516 6.04766 6.12544 6.02122 6.13613 6.02122C6.22167 6.03191 6.27263 5.86072 6.27263 5.86072C6.27263 5.86072 6.27521 5.81259 6.17363 5.90347C6.13089 5.91148 6.12507 5.89604 6.11438 5.87197C6.10548 5.82744 6.10739 5.78228 6.12788 5.73772C6.13734 5.711 6.12793 5.69404 6.10763 5.69197L6.10763 5.69197ZM10.7936 5.71372C10.7452 5.71136 10.6936 5.74274 10.6804 5.80897C10.6806 5.84804 10.698 5.86951 10.6946 5.90497C10.6896 5.92524 10.6687 5.93857 10.6189 5.91472C10.6267 5.90756 10.5866 5.85097 10.5866 5.85097C10.5478 5.82731 10.4959 5.85225 10.4621 5.87422C10.4436 5.90799 10.4298 5.96587 10.4509 6.02497C10.5066 6.128 10.6979 6.3038 10.7891 6.30548C10.7908 6.21259 10.7999 6.08906 10.8049 6.01222C10.807 5.98322 10.8138 5.95125 10.8416 5.94397C10.8694 5.93672 10.9176 5.97191 10.9181 5.94172C10.9131 5.88263 10.9013 5.79542 10.8679 5.75422C10.8508 5.72889 10.8227 5.71514 10.7936 5.71372L10.7936 5.71372ZM6.91475 6.03697C6.91346 6.03745 6.91218 6.03855 6.911 6.03922C6.91042 6.03957 6.90934 6.0403 6.90875 6.04072C6.8991 6.04797 6.88771 6.06469 6.86225 6.08272C6.81931 6.13156 6.81162 6.16557 6.81425 6.26347C6.81669 6.27383 6.89577 6.49368 6.96275 6.64821C7.00791 6.80884 7.0497 6.99276 7.019 7.16647C6.91327 7.39611 6.70069 7.60207 6.49551 7.71396C6.39098 7.74744 6.3007 7.73604 6.27651 7.71321C6.27632 7.71302 6.27594 7.71264 6.27577 7.71246C6.21573 7.6721 6.21435 7.60025 6.21802 7.58796C6.21802 7.58789 6.21802 7.5873 6.21802 7.58721C6.21816 7.58707 6.21863 7.58659 6.21877 7.58646C6.3919 7.46587 6.58966 7.36827 6.74451 7.04272C6.79023 6.91831 6.80419 6.84361 6.75876 6.65123C6.74105 6.57955 6.71917 6.52056 6.67026 6.46973C6.67038 6.46959 6.67088 6.46911 6.67101 6.46898C6.70048 6.45488 6.77695 6.51122 6.78876 6.47573C6.77066 6.38388 6.70845 6.26057 6.63801 6.19748C6.57632 6.14145 6.50922 6.13497 6.45276 6.18623C6.38916 6.22162 6.37563 6.34872 6.40626 6.45997C6.44027 6.54372 6.5321 6.55841 6.59751 6.72697C6.59751 6.72714 6.5975 6.72766 6.59751 6.72772C6.59887 6.73829 6.61996 6.85354 6.58701 6.90022C6.56027 6.9836 6.21683 7.25444 6.1925 7.27073C6.19223 7.271 6.19051 7.27198 6.19025 7.27223C6.1901 7.27238 6.18963 7.27286 6.1895 7.27298C6.18943 7.27303 6.18891 7.27357 6.18875 7.27373C6.18868 7.2738 6.18807 7.2744 6.188 7.27448C6.18793 7.27448 6.18733 7.27448 6.18725 7.27448C6.1872 7.27448 6.18667 7.27448 6.1865 7.27448C6.18636 7.27436 6.18589 7.27387 6.18576 7.27373C6.18576 7.27366 6.18575 7.27305 6.18576 7.27298C6.18561 7.27272 6.18514 7.27175 6.18501 7.27148C6.18397 7.26472 6.18579 7.2475 6.18501 7.21973C6.18275 7.16899 6.20375 7.05418 6.20226 7.03448C6.20226 7.03441 6.20225 7.03381 6.20226 7.03373C6.20211 7.03359 6.20165 7.03311 6.20151 7.03298C6.20151 7.03291 6.2015 7.03232 6.20151 7.03223C6.20134 7.03224 6.20078 7.03224 6.20076 7.03223C6.08723 7.10553 6.04974 7.33022 6.02901 7.39675C5.74161 7.59532 5.41523 7.74307 5.22727 7.94423C5.12937 8.09712 5.90176 7.76868 5.99152 7.72898C5.99229 7.72956 5.99306 7.73049 5.99377 7.73123C6.01083 7.75001 6.01229 7.81548 6.06352 7.87448C6.14381 7.98324 6.31446 8.05022 6.48052 8.00873C6.75899 7.90808 6.91943 7.71829 7.08278 7.50773C7.10612 7.47377 7.14271 7.44701 7.17652 7.47323C7.28877 7.72451 7.61239 7.90331 8.03078 7.92175C8.12759 7.80401 8.08129 7.74612 8.04203 7.72149C8.02994 7.71346 7.83395 7.63705 7.80353 7.56099C7.78437 7.49021 7.83095 7.42744 7.92428 7.38025C8.19291 7.34776 8.45698 7.31167 8.71254 7.2295C8.71512 7.14364 8.76569 7.01526 8.79954 6.9595C8.82303 6.92081 8.83814 6.91698 8.84379 6.9115C8.84398 6.9113 8.84438 6.91094 8.84454 6.91075C8.84461 6.91065 8.84522 6.9101 8.84528 6.91C8.84543 6.90988 8.8459 6.90938 8.84603 6.90925C8.84603 6.90899 8.84604 6.90802 8.84603 6.90775C8.84618 6.90605 8.84602 6.90313 8.84528 6.90025L8.80178 6.87475L7.94453 6.871C7.93394 6.86692 7.92606 6.86283 7.92128 6.859C7.92091 6.8587 7.9201 6.8578 7.91978 6.8575C7.91963 6.85736 7.91917 6.8569 7.91903 6.85675C7.91889 6.85661 7.9184 6.85615 7.91828 6.856C7.91816 6.85574 7.91765 6.85476 7.91753 6.8545C7.91746 6.85443 7.91687 6.85383 7.91678 6.85375C7.91678 6.85368 7.91678 6.85308 7.91678 6.85301C7.91671 6.85293 7.91612 6.85234 7.91603 6.85226C7.91603 6.85218 7.91603 6.85159 7.91603 6.85151C7.91603 6.85144 7.91603 6.85084 7.91603 6.85076C7.91603 6.85069 7.91603 6.85009 7.91603 6.85001C7.91603 6.84989 7.91604 6.84937 7.91603 6.84926C7.91604 6.84921 7.91604 6.84867 7.91603 6.84851C7.91603 6.84844 7.91604 6.84784 7.91603 6.84776C7.91603 6.84769 7.91604 6.84709 7.91603 6.84701C7.91603 6.84694 7.91604 6.84635 7.91603 6.84627C7.91618 6.84612 7.91664 6.84565 7.91678 6.84552C7.91698 6.84512 7.91727 6.84441 7.91753 6.84402C7.92172 6.83838 7.93186 6.83306 7.94453 6.82827C8.14923 6.80038 8.5129 6.74076 8.53704 6.39101C8.53327 6.20883 8.45909 6.08955 8.23556 6.0565C8.0713 6.0692 7.95416 6.22808 7.97304 6.40301C7.96518 6.45011 7.98898 6.54254 7.94079 6.55301C7.62572 6.5818 7.28182 6.77921 7.27028 6.9205C7.27021 6.92049 7.2696 6.9205 7.26953 6.9205C7.26941 6.92064 7.26891 6.92111 7.26878 6.92125C7.26854 6.92137 7.26768 6.9218 7.26728 6.922C7.26702 6.92199 7.26605 6.92201 7.26578 6.922C7.26528 6.92216 7.26405 6.92261 7.26353 6.92275C7.26339 6.92276 7.26298 6.92274 7.26279 6.92275C7.26236 6.92274 7.26157 6.92275 7.26129 6.92275C7.26114 6.92274 7.26073 6.92274 7.26054 6.92275C7.26022 6.92275 7.2593 6.92276 7.25904 6.92275C7.25822 6.92258 7.25674 6.92217 7.25604 6.922C7.23554 6.91631 7.20915 6.88249 7.21329 6.835C7.20129 6.59075 7.12179 6.31436 6.99729 6.10151C6.95286 6.05709 6.9335 6.03909 6.92079 6.03701C6.92038 6.03696 6.91969 6.03703 6.91929 6.03701C6.91876 6.03701 6.91771 6.03701 6.91704 6.03701C6.91692 6.03701 6.9164 6.037 6.91629 6.03701C6.91622 6.03701 6.91561 6.03701 6.91554 6.03701C6.91545 6.03703 6.91488 6.03698 6.91479 6.03701L6.91475 6.03697ZM7.73526 6.16597C7.71744 6.16906 7.70024 6.18375 7.69401 6.20797C7.69009 6.22384 7.70163 6.25024 7.68726 6.25822C7.67901 6.26655 7.64696 6.2617 7.64826 6.21772C7.64826 6.20372 7.63798 6.18835 7.63176 6.17947C7.62552 6.17538 7.62206 6.17422 7.61076 6.17422C7.597 6.17478 7.59656 6.17841 7.58901 6.18997C7.58582 6.20175 7.58151 6.21337 7.58151 6.22672C7.57979 6.24237 7.57428 6.24767 7.56276 6.24997C7.54989 6.24997 7.55294 6.25137 7.54251 6.24472C7.53632 6.23795 7.52826 6.23528 7.52826 6.22372C7.52826 6.21175 7.52587 6.19263 7.52226 6.18472C7.51679 6.17751 7.50741 6.17451 7.49751 6.17197C7.44359 6.17216 7.44042 6.23338 7.44351 6.25672C7.43947 6.26112 7.43672 6.37169 7.51026 6.40222C7.60898 6.44929 7.84424 6.42158 7.78701 6.26947C7.787 6.25539 7.78316 6.20812 7.78175 6.19522C7.77168 6.17176 7.75308 6.16288 7.73526 6.16597L7.73526 6.16597ZM11.0465 6.30172C11.0441 6.30128 11.0412 6.30145 11.0383 6.30247C11.0383 6.30247 10.5809 6.62789 10.5695 6.63921C10.5242 6.67954 10.5469 6.82134 10.5695 6.80496C10.6023 6.81757 11.0628 6.50549 11.0541 6.46896C11.0741 6.47014 11.0838 6.30842 11.0466 6.30171L11.0465 6.30172ZM8.1675 6.34996C8.18617 6.34798 8.21066 6.35432 8.23425 6.36796C8.2684 6.38771 8.28945 6.41754 8.28675 6.43921C8.28666 6.4398 8.28687 6.44089 8.28675 6.44146C8.28661 6.44203 8.28542 6.44315 8.28525 6.44371C8.28506 6.44426 8.28472 6.44542 8.2845 6.44596C8.28436 6.44631 8.28392 6.44711 8.28375 6.44746C8.28359 6.4478 8.2832 6.44862 8.283 6.44896C8.28189 6.45079 8.28004 6.45271 8.2785 6.45421C8.26209 6.46954 8.2242 6.46736 8.1885 6.44671C8.15467 6.42714 8.13376 6.39708 8.136 6.37546C8.13608 6.37487 8.13665 6.37379 8.13675 6.37321C8.13732 6.37053 8.13838 6.36808 8.13975 6.36571C8.14024 6.36486 8.14068 6.36349 8.14125 6.36271C8.14137 6.36257 8.14188 6.36211 8.142 6.36196C8.14301 6.36078 8.14453 6.35921 8.14575 6.35821C8.15119 6.35393 8.1589 6.35087 8.1675 6.34996V6.34996ZM4.16166 6.43246C3.92464 6.43679 3.57755 6.74314 3.56841 6.91321C3.81851 6.7931 4.06417 6.6775 4.31841 6.55321C4.27738 6.49196 4.31592 6.43676 4.16166 6.43246L4.16166 6.43246ZM4.92966 6.53896C4.9529 6.53922 4.9774 6.5507 4.99041 6.58321C5.00212 6.61304 4.99097 6.64423 4.97691 6.65971C4.97684 6.65983 4.97698 6.66034 4.97691 6.66046C4.9767 6.66081 4.9764 6.66164 4.97616 6.66196C4.96621 6.67478 4.93129 6.66946 4.90641 6.66946C4.87632 6.66813 4.86148 6.66319 4.84341 6.63871C4.83478 6.6115 4.86108 6.58476 4.87266 6.56446C4.87278 6.56427 4.8733 6.5639 4.87341 6.56371C4.87467 6.56182 4.87673 6.55955 4.87866 6.55771C4.88766 6.54947 4.90323 6.54176 4.91991 6.53971C4.92316 6.53931 4.92635 6.53893 4.92966 6.53896L4.92966 6.53896ZM10.9575 6.63328C10.9154 6.63848 10.8753 6.67833 10.8938 6.74203C10.8822 6.77945 10.9509 6.91031 10.9688 6.97978C10.9848 7.02922 10.9481 7.16907 10.9815 7.18378C11.0122 7.20025 11.0931 7.10076 11.0903 6.97603C11.0992 6.9119 11.0674 6.67562 10.9868 6.63552C10.9775 6.63293 10.9672 6.63207 10.9575 6.63327L10.9575 6.63328ZM5.83806 6.86428C5.80081 6.86689 5.76758 6.88679 5.78256 6.93928C5.78031 6.97736 5.8878 7.02366 5.89431 7.11178C5.90967 7.14812 5.87133 7.26447 5.90331 7.27528C5.93268 7.28738 5.97343 7.19485 5.98881 7.10878C5.99733 7.06163 5.95193 6.89672 5.87481 6.86729C5.86298 6.86475 5.85048 6.86343 5.83806 6.86429V6.86428ZM7.37032 7.07353C7.37315 7.07334 7.37564 7.07355 7.37857 7.07353C7.37906 7.07353 7.37957 7.07353 7.38007 7.07353C7.47557 7.09949 7.61636 7.10218 7.73858 7.11478C7.83813 7.1211 7.88731 7.19903 7.79408 7.23178C7.70211 7.26328 7.61374 7.28788 7.61333 7.42078C7.62542 7.48662 7.62286 7.52117 7.61258 7.53704C7.61178 7.53823 7.61048 7.53981 7.60958 7.54079C7.60946 7.54093 7.60896 7.5414 7.60883 7.54153C7.60869 7.54165 7.60822 7.54216 7.60808 7.54228C7.60794 7.5424 7.60747 7.54292 7.60734 7.54303L7.60659 7.54378C7.60632 7.5439 7.60535 7.5444 7.60509 7.54453C7.60375 7.54536 7.60204 7.54625 7.60059 7.54678C7.5993 7.54721 7.59746 7.5473 7.59609 7.54753C7.57422 7.55073 7.54247 7.52988 7.51884 7.51753C7.46213 7.47681 7.303 7.37819 7.28034 7.16653C7.27711 7.11876 7.31287 7.07757 7.37034 7.07353L7.37032 7.07353ZM3.62776 7.23628C3.62179 7.23647 3.60985 7.2543 3.59401 7.27453C3.453 7.49917 3.44046 7.83448 3.51826 7.93453C3.5596 7.9818 3.62777 8.00259 3.67801 7.98778C3.7666 7.94937 3.80553 7.76994 3.78451 7.7043C3.75495 7.65802 3.73152 7.65069 3.70201 7.69005C3.63967 7.81661 3.61373 7.73003 3.60826 7.6593C3.59871 7.52516 3.6117 7.40163 3.62626 7.30381C3.63401 7.25367 3.63373 7.23612 3.62776 7.23631L3.62776 7.23628ZM8.4316 7.53124C8.42111 7.53068 8.40993 7.53232 8.3986 7.53799C8.39637 7.53799 8.29766 7.60475 8.26585 7.65124C8.24645 7.666 8.24865 7.67883 8.2546 7.70449C8.26972 7.73926 8.29636 7.72835 8.3266 7.71199C8.36673 7.70653 8.38614 7.73281 8.38285 7.78099C8.36432 7.84108 8.3911 7.86347 8.3911 7.86725C8.3911 7.87102 8.42974 7.90419 8.4751 7.87775C8.57085 7.84119 8.63051 7.80564 8.76459 7.77649C8.79979 7.77579 8.79775 7.68161 8.74209 7.67824C8.66947 7.6819 8.60246 7.68561 8.52984 7.74274C8.48516 7.75307 8.47751 7.72588 8.46759 7.70149C8.45624 7.64099 8.49313 7.59835 8.48559 7.55299C8.4876 7.55499 8.46304 7.53293 8.43159 7.53124H8.4316ZM11.5074 7.64599C11.4896 7.64655 11.4709 7.64901 11.4437 7.65124C11.4143 7.65748 11.404 7.67036 11.3987 7.70599C11.4008 7.76003 11.4338 7.75735 11.4677 7.77874C11.4873 7.80368 11.5 7.82626 11.4662 7.86724C11.4341 7.89663 11.4113 7.91285 11.3792 7.94224C11.364 7.96807 11.3546 8.00776 11.4009 8.02024C11.4865 8.04428 11.6844 7.91567 11.6844 7.91299C11.7165 7.88894 11.7059 7.84324 11.7032 7.84324C11.6845 7.82185 11.6423 7.8347 11.6139 7.83124C11.6004 7.83124 11.5561 7.82468 11.5772 7.78549C11.5948 7.76111 11.6013 7.74653 11.6132 7.71649C11.6265 7.6871 11.6148 7.66728 11.5667 7.65124C11.5422 7.64679 11.5252 7.64543 11.5074 7.64599L11.5074 7.64599ZM10.2225 10.2476C10.2223 10.2477 10.2219 10.2482 10.2217 10.2483C10.0795 10.2848 10.0839 10.4325 10.1752 10.4973C8.67297 10.4973 6.36763 10.4718 5.87323 10.4718C5.59663 10.4718 4.72154 10.4388 4.70472 10.4388C4.89239 10.7133 5.16425 10.7692 5.51997 10.7748C6.18722 10.7748 9.27885 10.7666 10.1587 10.7666C10.0961 10.8776 10.1644 11.0564 10.2134 11.0891C10.2145 11.0898 10.2162 11.0908 10.2172 11.0914C10.219 11.0923 10.2214 11.0931 10.2232 11.0936C10.2238 11.0937 10.2249 11.0935 10.2254 11.0936C10.2837 11.1073 10.3093 11.0652 10.3289 11.0343C10.4234 11.0427 10.9553 11.0504 11.0039 11.0336C11.0041 11.0335 11.0045 11.0329 11.0047 11.0328C11.0376 11.0813 11.0703 11.1271 11.1329 11.1191C11.2426 11.0956 11.329 11.0837 11.3317 10.8611C11.3317 10.8611 11.3205 10.4819 11.0714 10.5056C11.0125 10.5145 10.8472 10.5311 10.8472 10.5311C10.6559 10.5083 10.5155 10.506 10.3004 10.4981C10.3203 10.4729 10.3553 10.3708 10.3124 10.3339C10.3012 10.3246 10.2846 10.3194 10.2614 10.3211C10.2613 10.3211 10.2609 10.3211 10.2607 10.3211C10.2604 10.3211 10.2595 10.3212 10.2592 10.3211C10.259 10.3211 10.2586 10.3204 10.2584 10.3204C10.2578 10.3201 10.2568 10.32 10.2562 10.3196C10.255 10.3188 10.2535 10.3171 10.2524 10.3159C10.2522 10.3155 10.2512 10.3147 10.2509 10.3144C10.2401 10.2985 10.2341 10.2597 10.2269 10.2499C10.2268 10.2498 10.2263 10.2492 10.2262 10.2491C10.2261 10.249 10.2255 10.2484 10.2254 10.2484C10.2252 10.2482 10.2242 10.2477 10.2239 10.2476C10.2238 10.2476 10.2233 10.2476 10.2232 10.2476C10.2231 10.2476 10.2225 10.2476 10.2224 10.2476L10.2225 10.2476ZM10.3245 10.7898C10.3247 10.7897 10.325 10.79 10.3252 10.7898C10.5444 10.8005 10.7503 10.7919 10.9695 10.8026C11.0042 10.8321 10.9868 10.8998 10.9642 10.9121C10.9632 10.9126 10.9615 10.9133 10.9605 10.9136C10.9597 10.9138 10.9583 10.9136 10.9575 10.9136C10.9567 10.9136 10.9553 10.9138 10.9545 10.9136C10.8832 10.9118 10.842 10.9101 10.7707 10.9083C10.7706 10.9048 10.7702 10.901 10.7692 10.8978C10.7523 10.8478 10.63 10.8511 10.6012 10.8903C10.6008 10.8909 10.6001 10.892 10.5997 10.8926C10.5993 10.8934 10.5986 10.8948 10.5982 10.8956C10.5978 10.8966 10.5971 10.8983 10.5967 10.8993C10.5963 10.9008 10.5962 10.903 10.596 10.9046C10.5958 10.9064 10.5951 10.9087 10.5952 10.9106C10.499 10.9222 10.4124 10.9074 10.3162 10.9038C10.288 10.8687 10.2913 10.8051 10.3245 10.7898L10.3245 10.7898Z" fill="white"/>
</svg>
