<svg width="16" height="16" viewBox="0 0 16 16" xmlns="http://www.w3.org/2000/svg">
<path d="M16 2H0V14H16V2Z" fill="#41479B"/>
<path d="M12 4H11V5H12V4Z" fill="white"/>
<path d="M10 7H9V8H10V7Z" fill="white"/>
<path d="M13 9H12V10H13V9Z" fill="white"/>
<path d="M11 12H10V13H11V12Z" fill="white"/>
<path d="M4 10H3V11H4V10Z" fill="white"/>
<path d="M14 7H13V8H14V7Z" fill="white"/>
<path d="M7.85 8L0.15 8C0.0500001 8 0 7.95001 0 7.85001L0 2.14999C0 2.04999 0.0500001 2 0.15 2L7.85 2C7.95 2 8 2.04999 8 2.14999L8 7.85001C8 7.95001 7.95 8 7.85 8Z" fill="#41479B"/>
<path d="M8 2.14999C8 2.04999 8 2 8 2L6.5 2L5 3.5V2L3 2L3 3.5L1.5 2L0.15 2C0.0500001 2 0 2.04999 0 2.14999L0 2.5L1.5 4H0L0 6H1.5L0 7.5L0 7.85001C0 7.95001 0.0500001 8 0.15 8H1.5L3 6.5V8H5V6L7 8H8V7.85001L8 7.5L6.5 6L8 6V4L6.5 4L8 2.5V2.14999Z" fill="#F5F5F5"/>
<path d="M8 4.5L4.5 4.5V2H3.5L3.5 4.5H0L0 5.5H3.5L3.5 8H4.5V5.5L8 5.5V4.5Z" fill="#FF4B55"/>
<path d="M6.5 8L5 6.5V6H5.5L7 7.5L7.5 8H6.5Z" fill="#FF4B55"/>
<path d="M0.5 2L2.5 4L3 4V3.5L1.5 2L0.5 2Z" fill="#FF4B55"/>
<path d="M0.5 8L2.5 6H2H1.5L0 7.5L0 8H0.5Z" fill="#FF4B55"/>
<path d="M7.5 2L5.5 4H6H6.5L8 2.5V2L7.5 2Z" fill="#FF4B55"/>
</svg>
