<svg width="16" height="16" viewBox="0 0 16 16" xmlns="http://www.w3.org/2000/svg">
<path d="M16 14H0V3.06665C0 2.53332 0.1 2 0.3 2H15.7C15.9 2 16 2.53332 16 3.06665V14Z" fill="#F5F5F5"/>
<path d="M9.68963 5.39705C8.25013 4.41155 6.30583 4.81447 5.3468 6.29014C4.86576 7.0267 5.0613 8.02755 5.781 8.5203C6.50017 9.01305 7.52041 9.23854 8.00024 8.49939C8.48008 7.76028 9.40346 7.13705 10.1226 7.62722C10.8429 8.11997 11.0367 9.12082 10.5561 9.85738C11.5158 8.37926 11.1279 6.3826 9.68963 5.39705Z" fill="#FF4B55"/>
<path d="M5.36633 6.27536C4.88526 7.01172 5.08081 8.0123 5.80055 8.50492C6.51975 8.99754 7.49129 8.79748 7.97115 8.05854C8.45101 7.31962 9.42319 7.12204 10.1424 7.61208C10.8627 8.1047 11.0565 9.10528 10.5759 9.84164C9.61749 11.322 7.67374 11.7198 6.23416 10.7345C4.79589 9.74939 4.40664 7.75326 5.36633 6.27536Z" fill="#41479B"/>
<path d="M11.8731 3.94391L12.5344 4.85909C12.5899 4.93598 12.5674 5.0398 12.4841 5.09117L12.3164 5.19457C12.2328 5.24613 12.1195 5.2254 12.0637 5.14824L11.4017 4.23329C11.3459 4.15632 11.3685 4.05232 11.4521 4.00094L11.6206 3.89736C11.7043 3.84591 11.8174 3.86679 11.8731 3.94391Z" fill="#464655"/>
<path d="M12.893 5.35578L13.5564 6.27039C13.6124 6.34762 13.5895 6.45212 13.5054 6.5033L13.337 6.60579C13.2534 6.65667 13.1409 6.63575 13.0853 6.55908L12.4223 5.64542C12.3665 5.5685 12.3889 5.46442 12.4725 5.41297L12.6405 5.30953C12.7241 5.25808 12.8371 5.27878 12.893 5.35578Z" fill="#464655"/>
<path d="M12.5814 3.50923L14.265 5.83583C14.3207 5.91284 14.2981 6.01688 14.2145 6.06821L14.0453 6.17203C13.9617 6.22336 13.8487 6.20255 13.7929 6.12555L12.1087 3.7991C12.0529 3.72206 12.0756 3.61794 12.1593 3.5666L12.329 3.4626C12.4127 3.41145 12.5256 3.43222 12.5814 3.50923Z" fill="#464655"/>
<path d="M13.2867 3.07481L13.9494 3.99178C14.0052 4.06901 13.9823 4.17328 13.8982 4.22443L13.7297 4.32695C13.6461 4.37783 13.5335 4.35691 13.4779 4.28009L12.8148 3.36434C12.759 3.28733 12.7816 3.18325 12.8653 3.13188L13.0343 3.02814C13.1179 2.97681 13.231 2.99765 13.2867 3.07481Z" fill="#464655"/>
<path d="M14.3082 4.48882L14.9698 5.40388C15.0255 5.48081 15.0029 5.5847 14.9195 5.63608L14.7515 5.73951C14.6678 5.791 14.5546 5.77023 14.4988 5.69307L13.8372 4.77801C13.7815 4.70108 13.8041 4.59719 13.8875 4.54581L14.0555 4.44238C14.1392 4.39085 14.2524 4.41158 14.3082 4.48882Z" fill="#464655"/>
<path d="M2.91614 9.44279L4.59957 11.7669C4.65532 11.8438 4.63281 11.9479 4.54918 11.9993L4.38061 12.1029C4.29698 12.1543 4.18395 12.1336 4.12812 12.0565L2.44469 9.73244C2.3889 9.65547 2.41145 9.55143 2.49508 9.50005L2.6637 9.39639C2.74728 9.34498 2.86035 9.36575 2.91614 9.44279Z" fill="#464655"/>
<path d="M2.20895 9.87737L2.86988 10.7902C2.92559 10.8672 2.90312 10.971 2.8197 11.0225L2.65203 11.1258C2.56844 11.1773 2.45529 11.1567 2.39942 11.0796L1.7377 10.167C1.68187 10.09 1.70438 9.98593 1.78801 9.93452L1.9565 9.83093C2.04009 9.77956 2.15316 9.80033 2.20895 9.87737Z" fill="#464655"/>
<path d="M3.23066 11.2886L3.89234 12.2038C3.94801 12.2807 3.92545 12.3846 3.84195 12.436L3.67379 12.5395C3.59012 12.591 3.47701 12.5702 3.42117 12.4931L2.75909 11.5781C2.70338 11.5012 2.72593 11.3972 2.80948 11.3458L2.97805 11.2422C3.06176 11.1906 3.17487 11.2115 3.23066 11.2886Z" fill="#464655"/>
<path d="M1.50255 10.3119L3.18491 12.6362C3.24062 12.7131 3.21806 12.8171 3.13464 12.8685L2.96652 12.972C2.8829 13.0235 2.76978 13.0027 2.71395 12.9257L1.0306 10.6017C0.974809 10.5247 0.997448 10.4207 1.08108 10.3693L1.25023 10.2655C1.33377 10.2141 1.4468 10.2349 1.50255 10.3119Z" fill="#464655"/>
<path d="M2.44461 6.26983L4.12779 3.94383C4.18358 3.86675 4.29665 3.84594 4.38032 3.89736L4.54885 4.00098C4.63243 4.05235 4.65495 4.15639 4.59924 4.23336L2.9154 6.55807C2.85973 6.63488 2.74712 6.65577 2.66353 6.60481L2.49566 6.50248C2.41162 6.45129 2.38878 6.34699 2.44461 6.26983Z" fill="#464655"/>
<path d="M1.7376 5.8357L3.42108 3.50924C3.47687 3.43216 3.59002 3.41135 3.67369 3.46284L3.84181 3.56635C3.92527 3.61773 3.94779 3.72165 3.89212 3.79858L2.2091 6.12515C2.1533 6.20223 2.04023 6.22308 1.95657 6.17163L1.78799 6.068C1.70445 6.01667 1.68189 5.91266 1.7376 5.8357Z" fill="#464655"/>
<path d="M1.03049 5.4035L2.71412 3.07474C2.76991 2.99762 2.88311 2.97677 2.96677 3.02826L3.13489 3.13177C3.21832 3.18314 3.24087 3.28696 3.18529 3.36392L1.50268 5.69303C1.44697 5.77011 1.33386 5.79103 1.2502 5.73966L1.08113 5.63584C0.997459 5.58451 0.974861 5.48051 1.03049 5.4035Z" fill="#464655"/>
<path d="M11.4018 11.7665L12.0635 10.8538C12.1194 10.7768 12.2325 10.7561 12.3161 10.8076L12.4838 10.911C12.5672 10.9624 12.5896 11.0663 12.5339 11.1432L11.873 12.056C11.8172 12.1331 11.7041 12.1539 11.6205 12.1025L11.452 11.9989C11.3685 11.9475 11.3459 11.8435 11.4018 11.7665Z" fill="#464655"/>
<path d="M12.4221 10.3601L13.0849 9.44292C13.1406 9.36584 13.2537 9.34495 13.3374 9.39633L13.5063 9.49999C13.5899 9.55136 13.6125 9.65552 13.5567 9.73253L12.8925 10.6482C12.8368 10.725 12.7242 10.7459 12.6406 10.6948L12.4731 10.5926C12.3892 10.5414 12.3663 10.4372 12.4221 10.3601Z" fill="#464655"/>
<path d="M12.1087 12.2036L12.7708 11.2886C12.8266 11.2115 12.9396 11.1907 13.0233 11.242L13.1925 11.346C13.2761 11.3973 13.2987 11.5013 13.243 11.5783L12.5813 12.4934C12.5256 12.5705 12.4126 12.5914 12.3289 12.5401L12.1592 12.436C12.0756 12.3848 12.0529 12.2806 12.1087 12.2036Z" fill="#464655"/>
<path d="M13.1293 10.7891L13.7918 9.87625C13.8477 9.79935 13.9606 9.77862 14.0442 9.82992L14.2133 9.93373C14.297 9.98511 14.3196 10.0893 14.2637 10.1663L13.6012 11.0792C13.5454 11.1561 13.4324 11.1769 13.3489 11.1256L13.1797 11.0218C13.096 10.9703 13.0734 10.8662 13.1293 10.7891Z" fill="#464655"/>
<path d="M12.8149 12.6354L13.4778 11.722C13.5334 11.6453 13.6459 11.6244 13.7294 11.6752L13.8979 11.7778C13.982 11.829 14.0049 11.9333 13.949 12.0106L13.2866 12.9252C13.2309 13.0022 13.1179 13.023 13.0342 12.9717L12.8652 12.868C12.7815 12.8165 12.759 12.7124 12.8149 12.6354Z" fill="#464655"/>
<path d="M13.8372 11.2266L14.4984 10.312C14.5542 10.2349 14.6674 10.2141 14.7511 10.2656L14.919 10.3689C15.0025 10.4204 15.0249 10.5244 14.9692 10.6013L14.3074 11.5146C14.2518 11.5915 14.139 11.6123 14.0554 11.5613L13.888 11.4591C13.8042 11.4079 13.7814 11.3037 13.8372 11.2266Z" fill="#464655"/>
</svg>
