<svg width="24" height="24" viewBox="0 0 24 24" xmlns="http://www.w3.org/2000/svg">
<path fill-rule="evenodd" clip-rule="evenodd" d="M5.21967 13.0156C5.43415 12.8014 5.75696 12.7366 6.03705 12.8525C6.31706 12.9687 6.49987 13.2427 6.49994 13.5459V19.5459C6.49994 19.96 6.16394 20.2956 5.74994 20.2959C5.33573 20.2959 4.99994 19.9601 4.99994 19.5459V15.3564L4.28022 16.0762C3.98737 16.369 3.51258 16.3689 3.21967 16.0762C2.92678 15.7833 2.92678 15.3085 3.21967 15.0156L5.21967 13.0156ZM19.6913 12.5518C20.286 12.6124 20.7499 13.115 20.7499 13.7256C20.7499 14.1296 20.5893 14.5171 20.3037 14.8027L19.3808 15.7246C20.1857 16.0674 20.7499 16.8658 20.7499 17.7959C20.7499 19.0385 19.7426 20.0459 18.4999 20.0459H16.9999C16.5857 20.0459 16.2499 19.7101 16.2499 19.2959C16.2499 18.8817 16.5857 18.5459 16.9999 18.5459H18.4999C18.9141 18.5459 19.2499 18.2101 19.2499 17.7959C19.2499 17.3817 18.9141 17.0459 18.4999 17.0459H17.7499C17.4466 17.0459 17.1727 16.8633 17.0566 16.583C16.9405 16.3028 17.0052 15.9801 17.2197 15.7656L18.9394 14.0459H16.9999C16.5857 14.0459 16.2499 13.7101 16.2499 13.2959C16.2499 12.8817 16.5857 12.5459 16.9999 12.5459H19.5703L19.6913 12.5518ZM11.8281 12.6299C13.1197 12.63 14.1668 13.6771 14.1669 14.9688C14.1668 15.6627 13.8583 16.3213 13.3251 16.7656L11.289 18.4629H13.4169C13.831 18.463 14.1668 18.7989 14.1669 19.2129C14.1667 19.6268 13.8309 19.9628 13.4169 19.9629H10.3144C9.72066 19.9629 9.23193 19.5117 9.17279 18.9336L9.16694 18.8164L9.17377 18.6895C9.20624 18.3966 9.3512 18.1253 9.58002 17.9346L12.3652 15.6133C12.5562 15.454 12.6668 15.2175 12.6669 14.9688C12.6668 14.5055 12.2913 14.13 11.8281 14.1299H11.6669C11.1147 14.1299 10.6669 14.5776 10.6669 15.1299C10.6667 15.5438 10.3309 15.8798 9.91694 15.8799C9.50288 15.8799 9.1672 15.5439 9.16694 15.1299C9.16694 13.7492 10.2862 12.6299 11.6669 12.6299H11.8281Z" fill="#444444"/>
<path d="M5.99928 3.5459C6.31443 3.54609 6.59562 3.74385 6.70338 4.04004L8.31959 8.48438L8.92603 10.1504C9.06752 10.5395 8.86669 10.9696 8.47779 11.1113C8.0886 11.2526 7.65739 11.0523 7.51588 10.6631L7.0901 9.49023H4.90748L4.4817 10.6631C4.34013 11.0522 3.90993 11.2527 3.52076 11.1113C3.13174 10.9697 2.93011 10.5395 3.07154 10.1504L3.67799 8.48438L5.2942 4.04004L5.34205 3.93359C5.47237 3.69718 5.72333 3.54603 5.99928 3.5459ZM11.9915 3.53516C13.2384 3.53519 14.2492 4.54603 14.2493 5.79297C14.2493 6.15256 14.1625 6.49122 14.0129 6.79297C14.7458 7.16321 15.2493 7.92165 15.2493 8.79883C15.249 10.0399 14.2424 11.046 13.0012 11.0459H10.4993C10.0853 11.0457 9.74943 10.7099 9.74928 10.2959V4.28516C9.74928 3.87102 10.0852 3.53529 10.4993 3.53516H11.9915ZM18.8821 3.5459C19.8512 3.54607 20.7377 4.09412 21.1712 4.96094C21.3559 5.33119 21.2052 5.78154 20.8352 5.9668C20.4649 6.15171 20.0146 6.00108 19.8294 5.63086C19.65 5.27245 19.2829 5.04607 18.8821 5.0459H18.5003C17.8099 5.0459 17.2503 5.60554 17.2503 6.2959V8.2959C17.2505 8.98608 17.81 9.5459 18.5003 9.5459H18.8821C19.2828 9.54583 19.65 9.31926 19.8294 8.96094C20.0146 8.59072 20.4649 8.44009 20.8352 8.625C21.2052 8.81026 21.3559 9.26061 21.1712 9.63086C20.7377 10.4977 19.8512 11.0459 18.8821 11.0459H18.5003C16.9816 11.0459 15.7505 9.81451 15.7503 8.2959V6.2959C15.7503 4.77712 16.9815 3.5459 18.5003 3.5459H18.8821ZM11.2493 9.5459H13.0022C13.4147 9.5457 13.749 9.21129 13.7493 8.79883C13.7493 8.38615 13.4148 8.05098 13.0022 8.05078H11.2493V9.5459ZM5.45338 7.99023H6.5442L5.9983 6.48926L5.45338 7.99023ZM11.2493 6.55078H11.9915C12.41 6.55075 12.7493 6.21151 12.7493 5.79297C12.7492 5.37445 12.41 5.03519 11.9915 5.03516H11.2493V6.55078Z" fill="#444444"/>
</svg>
