<svg width="24" height="24" viewBox="0 0 24 24" xmlns="http://www.w3.org/2000/svg">
<path d="M9.5 12.5459C9.91416 12.5459 10.2499 12.8818 10.25 13.2959V20.2959C10.25 20.7101 9.91421 21.0459 9.5 21.0459C9.08579 21.0459 8.75 20.7101 8.75 20.2959V18.0459H7.81055L5.03027 20.8262C4.73738 21.1191 4.26262 21.1191 3.96973 20.8262C3.67683 20.5333 3.67683 20.0585 3.96973 19.7656L5.78516 17.9492C4.61333 17.6343 3.75 16.5672 3.75 15.2959C3.75007 13.7772 4.98126 12.5459 6.5 12.5459H9.5ZM6.5 14.0459C5.80969 14.0459 5.25007 14.6056 5.25 15.2959C5.25 15.9863 5.80964 16.5459 6.5 16.5459H8.75V14.0459H6.5Z" fill="#444444"/>
<path d="M16.7679 2.46191C17.1819 2.46203 17.5177 2.7979 17.5179 3.21191L17.5169 18.4854L19.8987 16.1045C20.1916 15.8122 20.6665 15.812 20.9593 16.1045C21.2521 16.3974 21.2521 16.8731 20.9593 17.166L17.2972 20.8262C17.0042 21.119 16.5295 21.1191 16.2366 20.8262L12.5765 17.166C12.2838 16.8731 12.2836 16.3973 12.5765 16.1045C12.8692 15.8121 13.3442 15.8122 13.637 16.1045L16.0169 18.4844L16.0179 3.21191C16.018 2.79789 16.3538 2.46199 16.7679 2.46191Z" fill="#444444"/>
<path d="M7.55078 2.5459C7.85337 2.54596 8.12664 2.72858 8.24316 3.00781L10.2773 7.88867L11.2939 10.3291C11.4532 10.7114 11.2718 11.1502 10.8896 11.3096C10.5074 11.4688 10.0685 11.2885 9.90918 10.9062L9.08496 8.92676H6.0166L5.19238 10.9062C5.03307 11.2885 4.5942 11.4687 4.21191 11.3096C3.82961 11.1502 3.64831 10.7114 3.80762 10.3291L4.82422 7.88867L6.8584 3.00781C6.97496 2.72859 7.24817 2.5459 7.55078 2.5459ZM6.6416 7.42676H8.45996L7.55078 5.24512L6.6416 7.42676Z" fill="#40865C"/>
</svg>
