<svg width="24" height="24" viewBox="0 0 24 24" xmlns="http://www.w3.org/2000/svg">
<path d="M18 1.5459C19.2426 1.5459 20.25 2.55326 20.25 3.7959V19.7959C20.25 21.0385 19.2426 22.0459 18 22.0459H7C5.75736 22.0459 4.75 21.0385 4.75 19.7959V3.7959C4.75 2.55326 5.75736 1.5459 7 1.5459H18ZM7 3.0459C6.58579 3.0459 6.25 3.38168 6.25 3.7959V19.7959C6.25 20.2101 6.58579 20.5459 7 20.5459H18C18.4142 20.5459 18.75 20.2101 18.75 19.7959V3.7959C18.75 3.38169 18.4142 3.0459 18 3.0459H7ZM8.5 16.7959C9.32843 16.7959 10 17.4675 10 18.2959C10 19.1243 9.32843 19.7959 8.5 19.7959C7.67157 19.7959 7 19.1243 7 18.2959C7 17.4675 7.67157 16.7959 8.5 16.7959ZM12.5 16.7959C13.3284 16.7959 14 17.4675 14 18.2959C14 19.1243 13.3284 19.7959 12.5 19.7959C11.6716 19.7959 11 19.1243 11 18.2959C11 17.4675 11.6716 16.7959 12.5 16.7959ZM16.5 12.7959C17.3284 12.7959 18 13.4675 18 14.2959V18.2959C18 19.1243 17.3284 19.7959 16.5 19.7959C15.7233 19.7959 15.0846 19.2056 15.0078 18.4492L15 18.2959V14.2959C15 13.4675 15.6716 12.7959 16.5 12.7959ZM8.5 17.7959C8.22386 17.7959 8 18.0198 8 18.2959C8 18.572 8.22386 18.7959 8.5 18.7959C8.77614 18.7959 9 18.572 9 18.2959C9 18.0198 8.77614 17.7959 8.5 17.7959ZM12.5 17.7959C12.2239 17.7959 12 18.0198 12 18.2959C12 18.572 12.2239 18.7959 12.5 18.7959C12.7761 18.7959 13 18.572 13 18.2959C13 18.0198 12.7761 17.7959 12.5 17.7959ZM16.5 13.7959C16.2239 13.7959 16 14.0198 16 14.2959V18.2959L16.0098 18.3965C16.0563 18.6245 16.2583 18.7959 16.5 18.7959C16.7761 18.7959 17 18.572 17 18.2959V14.2959C17 14.0198 16.7761 13.7959 16.5 13.7959ZM8.5 12.7959C9.32843 12.7959 10 13.4675 10 14.2959C10 15.1243 9.32843 15.7959 8.5 15.7959C7.67157 15.7959 7 15.1243 7 14.2959C7 13.4675 7.67157 12.7959 8.5 12.7959ZM12.5 12.7959C13.3284 12.7959 14 13.4675 14 14.2959C14 15.1243 13.3284 15.7959 12.5 15.7959C11.6716 15.7959 11 15.1243 11 14.2959C11 13.4675 11.6716 12.7959 12.5 12.7959ZM8.5 13.7959C8.22386 13.7959 8 14.0198 8 14.2959C8 14.572 8.22386 14.7959 8.5 14.7959C8.77614 14.7959 9 14.572 9 14.2959C9 14.0198 8.77614 13.7959 8.5 13.7959ZM12.5 13.7959C12.2239 13.7959 12 14.0198 12 14.2959C12 14.572 12.2239 14.7959 12.5 14.7959C12.7761 14.7959 13 14.572 13 14.2959C13 14.0198 12.7761 13.7959 12.5 13.7959ZM8.5 8.7959C9.32843 8.7959 10 9.46747 10 10.2959C10 11.1243 9.32843 11.7959 8.5 11.7959C7.67157 11.7959 7 11.1243 7 10.2959C7 9.46747 7.67157 8.7959 8.5 8.7959ZM12.5 8.7959C13.3284 8.7959 14 9.46747 14 10.2959C14 11.1243 13.3284 11.7959 12.5 11.7959C11.6716 11.7959 11 11.1243 11 10.2959C11 9.46747 11.6716 8.7959 12.5 8.7959ZM16.5 8.7959C17.3284 8.7959 18 9.46747 18 10.2959C18 11.1243 17.3284 11.7959 16.5 11.7959C15.6716 11.7959 15 11.1243 15 10.2959C15 9.46747 15.6716 8.7959 16.5 8.7959ZM8.5 9.7959C8.22386 9.7959 8 10.0198 8 10.2959C8 10.572 8.22386 10.7959 8.5 10.7959C8.77614 10.7959 9 10.572 9 10.2959C9 10.0198 8.77614 9.7959 8.5 9.7959ZM12.5 9.7959C12.2239 9.7959 12 10.0198 12 10.2959C12 10.572 12.2239 10.7959 12.5 10.7959C12.7761 10.7959 13 10.572 13 10.2959C13 10.0198 12.7761 9.7959 12.5 9.7959ZM16.5 9.7959C16.2239 9.7959 16 10.0198 16 10.2959C16 10.572 16.2239 10.7959 16.5 10.7959C16.7761 10.7959 17 10.572 17 10.2959C17 10.0198 16.7761 9.7959 16.5 9.7959ZM16.5 3.7959C17.3284 3.7959 18 4.46747 18 5.2959V6.2959C18 7.12433 17.3284 7.7959 16.5 7.7959H8.5C7.67157 7.7959 7 7.12433 7 6.2959V5.2959C7 4.46747 7.67157 3.7959 8.5 3.7959H16.5ZM8.5 4.7959C8.22386 4.7959 8 5.01976 8 5.2959V6.2959C8 6.57204 8.22386 6.7959 8.5 6.7959H16.5C16.7761 6.7959 17 6.57204 17 6.2959V5.2959C17 5.01976 16.7761 4.7959 16.5 4.7959H8.5Z" fill="#444444"/>
</svg>
