<svg width="24" height="24" viewBox="0 0 24 24" xmlns="http://www.w3.org/2000/svg">
<path d="M12 1.6709C17.5919 1.6709 22.125 6.20402 22.125 11.7959C22.125 17.3878 17.5919 21.9209 12 21.9209C6.40812 21.9209 1.875 17.3878 1.875 11.7959C1.875 6.20402 6.40812 1.6709 12 1.6709ZM12 3.1709C7.23654 3.1709 3.375 7.03244 3.375 11.7959C3.375 16.5594 7.23654 20.4209 12 20.4209C16.7635 20.4209 20.625 16.5594 20.625 11.7959C20.625 7.03244 16.7635 3.1709 12 3.1709ZM12 4.5459C12.4142 4.5459 12.75 4.88168 12.75 5.2959V10.4971C13.1982 10.7565 13.5 11.2408 13.5 11.7959C13.5 12.6243 12.8284 13.2959 12 13.2959C11.4451 13.2959 10.9616 12.9939 10.7021 12.5459H7C6.58579 12.5459 6.25 12.2101 6.25 11.7959C6.25 11.3817 6.58579 11.0459 7 11.0459H10.7021C10.8338 10.8185 11.0226 10.6287 11.25 10.4971V5.2959C11.25 4.88168 11.5858 4.5459 12 4.5459Z" fill="#444444"/>
</svg>
