<svg width="24" height="24" viewBox="0 0 24 24" xmlns="http://www.w3.org/2000/svg">
<path d="M9.5 2.5459C9.91421 2.5459 10.25 2.88168 10.25 3.2959V10.2959C10.25 10.7101 9.91419 11.0459 9.5 11.0459C9.08581 11.0459 8.75004 10.7101 8.75 10.2959V8.0459H7.81055L5.03027 10.8262C4.73738 11.1191 4.26262 11.1191 3.96973 10.8262C3.67683 10.5333 3.67683 10.0585 3.96973 9.76562L5.78613 7.94824C4.61398 7.63355 3.75004 6.56738 3.75 5.2959C3.75 3.77712 4.98122 2.5459 6.5 2.5459H9.5ZM6.5 4.0459C5.80964 4.0459 5.25 4.60554 5.25 5.2959C5.25004 5.98622 5.80967 6.5459 6.5 6.5459H8.75V4.0459H6.5Z" fill="#444444"/>
<path d="M16.7679 2.46191C17.1819 2.46203 17.5177 2.7979 17.5179 3.21191L17.5169 18.4854L19.8987 16.1045C20.1916 15.8122 20.6665 15.812 20.9593 16.1045C21.2521 16.3974 21.2521 16.8731 20.9593 17.166L17.2972 20.8262C17.0042 21.119 16.5295 21.1191 16.2366 20.8262L12.5765 17.166C12.2838 16.8731 12.2836 16.3973 12.5765 16.1045C12.8692 15.8121 13.3442 15.8122 13.637 16.1045L16.0169 18.4844L16.0179 3.21191C16.018 2.79789 16.3538 2.46199 16.7679 2.46191Z" fill="#444444"/>
<path d="M7.55078 12.0459C7.85337 12.046 8.12664 12.2286 8.24316 12.5078L10.2773 17.3887L11.2939 19.8291C11.4532 20.2114 11.2718 20.6502 10.8896 20.8096C10.5074 20.9688 10.0685 20.7885 9.90918 20.4062L9.08496 18.4268H6.0166L5.19238 20.4062C5.03307 20.7885 4.5942 20.9687 4.21191 20.8096C3.82961 20.6502 3.64831 20.2114 3.80762 19.8291L4.82422 17.3887L6.8584 12.5078C6.97496 12.2286 7.24817 12.0459 7.55078 12.0459ZM6.6416 16.9268H8.45996L7.55078 14.7451L6.6416 16.9268Z" fill="#40865C"/>
</svg>
