<svg width="24" height="24" viewBox="0 0 24 24" xmlns="http://www.w3.org/2000/svg">
<path fill-rule="evenodd" clip-rule="evenodd" d="M16.5043 6.74121C18.0216 6.74551 19.2494 7.97685 19.2494 9.49414C19.2492 10.0739 19.0683 10.6111 18.7621 11.0547C19.6451 11.5122 20.2492 12.433 20.2494 13.4961C20.2491 15.0147 19.018 16.2471 17.4994 16.2471H13.4994C13.0856 16.247 12.7499 15.9108 12.7494 15.4971V7.48242L12.764 7.33496C12.793 7.19078 12.8645 7.05661 12.9701 6.95117C13.1111 6.81068 13.3023 6.73195 13.5013 6.73242L16.5043 6.74121ZM7.49939 6.7461C7.81187 6.7461 8.09166 6.93994 8.20154 7.23242L10.3832 13.0508L11.2015 15.2324C11.3469 15.6202 11.1507 16.0527 10.7631 16.1982C10.3754 16.3435 9.94278 16.1473 9.79724 15.7598L9.1615 14.0645H5.83728L5.20154 15.7598C5.05595 16.1473 4.62342 16.3436 4.23572 16.1982C3.84829 16.0526 3.65192 15.6201 3.79724 15.2324L4.6156 13.0508L6.79724 7.23242L6.84607 7.12793C6.97738 6.89473 7.22592 6.74621 7.49939 6.7461ZM14.2494 14.7471H17.4994C18.1896 14.7471 18.7491 14.1862 18.7494 13.4961C18.7491 12.806 18.1896 12.2461 17.4994 12.2461H14.2494V14.7471ZM6.39978 12.5645H8.599L7.49939 9.63184L6.39978 12.5645ZM14.2494 10.7461H16.4965C17.1881 10.7461 17.7489 10.1856 17.7494 9.49414C17.7494 8.8037 17.1908 8.2433 16.5004 8.24121L14.2494 8.23438V10.7461Z" fill="#444444"/>
</svg>
