<svg width="24" height="24" viewBox="0 0 24 24" xmlns="http://www.w3.org/2000/svg">
<path d="M16.5059 1.42676C16.9199 1.42687 17.2557 1.76274 17.2559 2.17676V2.72461H19.3994C20.3657 2.72482 21.1494 3.50824 21.1494 4.47461V19.3408C21.1492 20.307 20.3656 21.0906 19.3994 21.0908H4.5332C3.56683 21.0908 2.78341 20.3071 2.7832 19.3408V4.47461C2.7832 3.50811 3.5667 2.72461 4.5332 2.72461H6.67383V2.17676C6.67398 1.76268 7.00972 1.42677 7.42383 1.42676C7.83795 1.42676 8.17368 1.76267 8.17383 2.17676V2.72461H15.7559V2.17676C15.756 1.76268 16.0918 1.42677 16.5059 1.42676ZM4.2832 19.3408C4.28341 19.4787 4.39526 19.5908 4.5332 19.5908H19.3994C19.5372 19.5906 19.6492 19.4786 19.6494 19.3408V9.41309H4.2832V19.3408ZM13.9111 15.6982C14.3251 15.6984 14.6609 16.0343 14.6611 16.4482C14.6609 16.8622 14.3251 17.1981 13.9111 17.1982H7.42383C7.00975 17.1982 6.67403 16.8623 6.67383 16.4482C6.67405 16.0342 7.00976 15.6983 7.42383 15.6982H13.9111ZM16.5059 11.8057C16.9198 11.8058 17.2556 12.1417 17.2559 12.5557C17.2559 12.9698 16.92 13.3056 16.5059 13.3057H7.42383C7.00963 13.3057 6.67383 12.9699 6.67383 12.5557C6.67405 12.1416 7.00976 11.8057 7.42383 11.8057H16.5059ZM4.5332 4.22461C4.39513 4.22461 4.2832 4.33654 4.2832 4.47461V7.91309H19.6494V4.47461C19.6494 4.33667 19.5373 4.22482 19.3994 4.22461H17.2559V4.77148C17.2559 5.18563 16.92 5.52138 16.5059 5.52148C16.0917 5.52147 15.7559 5.18569 15.7559 4.77148V4.22461H8.17383V4.77148C8.17383 5.1857 7.83804 5.52148 7.42383 5.52148C7.00963 5.52147 6.67383 5.18569 6.67383 4.77148V4.22461H4.5332Z" fill="#444444"/>
</svg>
