<svg width="24" height="24" viewBox="0 0 24 24" xmlns="http://www.w3.org/2000/svg">
<path d="M7.23215 2.45898C6.81812 2.4591 6.4823 2.79498 6.48215 3.20898L6.48312 18.4824L4.10129 16.1016C3.80843 15.8093 3.33348 15.8091 3.04074 16.1016C2.7479 16.3945 2.7479 16.8702 3.04074 17.1631L6.70285 20.8232C6.99577 21.1161 7.47053 21.1162 7.7634 20.8232L11.4236 17.1631C11.7162 16.8702 11.7164 16.3944 11.4236 16.1016C11.1308 15.8091 10.6558 15.8093 10.363 16.1016L7.98312 18.4814L7.98215 3.20898C7.98198 2.79496 7.64619 2.45906 7.23215 2.45898Z" fill="#444444"/>
<path d="M19.3848 2.55078C19.6298 2.58595 19.8448 2.74064 19.9542 2.96777C20.0791 3.22761 20.0434 3.53659 19.8634 3.76172L15.9581 8.64453H19.2784C19.6926 8.64453 20.0283 8.98038 20.0284 9.39453C20.0284 9.80873 19.6926 10.1445 19.2784 10.1445H14.3975C14.1095 10.1444 13.8467 9.97931 13.7218 9.71973C13.597 9.45994 13.6316 9.15085 13.8116 8.92578L17.7178 4.04297H14.3975C13.9834 4.04285 13.6475 3.70711 13.6475 3.29297C13.6476 2.87889 13.9835 2.54309 14.3975 2.54297H19.2784L19.3848 2.55078Z" fill="#444444"/>
<path d="M16.4486 12.2207C16.7512 12.2208 17.0245 12.4034 17.141 12.6826L19.1752 17.5635L20.1918 20.0039C20.351 20.3862 20.1696 20.825 19.7875 20.9844C19.4052 21.1436 18.9663 20.9633 18.807 20.5811L17.9828 18.6016H14.9144L14.0902 20.5811C13.9309 20.9633 13.492 21.1436 13.1097 20.9844C12.7274 20.825 12.5461 20.3862 12.7054 20.0039L13.722 17.5635L15.7562 12.6826C15.8728 12.4034 16.146 12.2207 16.4486 12.2207ZM15.5394 17.1016H17.3578L16.4486 14.9199L15.5394 17.1016Z" fill="#40865C"/>
</svg>
