<svg width="24" height="24" viewBox="0 0 24 24" xmlns="http://www.w3.org/2000/svg">
<path d="M21.4999 4.54688C22.4664 4.54688 23.2499 5.33037 23.2499 6.29688V17.2969C23.2496 18.2632 22.4662 19.0469 21.4999 19.0469H2.49988C1.5336 19.0468 0.75014 18.2631 0.749878 17.2969V6.29688C0.749878 5.33044 1.53346 4.54697 2.49988 4.54688H21.4999ZM2.49988 6.04688C2.36187 6.04695 2.24988 6.15885 2.24988 6.29688V17.2969C2.25014 17.4347 2.36203 17.5468 2.49988 17.5469H21.4999C21.6378 17.5469 21.7496 17.4347 21.7499 17.2969V6.29688C21.7499 6.1588 21.6379 6.04688 21.4999 6.04688H2.49988ZM12.1005 8.94629C13.619 8.94653 14.8504 10.1777 14.8505 11.6963V11.8965C14.8503 13.415 13.6189 14.6462 12.1005 14.6465H11.9003C10.3817 14.6464 9.15042 13.4151 9.15027 11.8965V11.6963C9.15038 10.1777 10.3816 8.94639 11.9003 8.94629H12.1005ZM4.99988 10.3457C5.75044 10.3457 6.36777 10.9166 6.44226 11.6475L6.45007 11.7959L6.44226 11.9443C6.368 12.6755 5.75061 13.2461 4.99988 13.2461L4.85144 13.2383C4.12047 13.1638 3.54968 12.5465 3.54968 11.7959C3.54985 10.9953 4.19926 10.3458 4.99988 10.3457ZM18.9999 10.3457C19.7504 10.3457 20.3678 10.9166 20.4423 11.6475L20.4501 11.7959L20.4423 11.9443C20.368 12.6755 19.7506 13.2461 18.9999 13.2461L18.8514 13.2383C18.1205 13.1638 17.5497 12.5465 17.5497 11.7959C17.5498 10.9953 18.1993 10.3458 18.9999 10.3457ZM11.9003 10.4463C11.2101 10.4464 10.6504 11.0061 10.6503 11.6963V11.8965C10.6504 12.5866 11.2101 13.1464 11.9003 13.1465H12.1005C12.7905 13.1462 13.3503 12.5866 13.3505 11.8965V11.6963C13.3504 11.0062 12.7905 10.4465 12.1005 10.4463H11.9003ZM4.99988 11.7461C4.97938 11.7462 4.96162 11.7587 4.95398 11.7764L4.95007 11.7959L4.95398 11.8154C4.95898 11.8273 4.96851 11.8367 4.98035 11.8418L4.99988 11.8457C5.02746 11.8457 5.04968 11.8235 5.04968 11.7959L5.04578 11.7764C5.03809 11.7587 5.0204 11.7461 4.99988 11.7461ZM18.9999 11.7461C18.9794 11.7462 18.9616 11.7587 18.954 11.7764L18.9501 11.7959L18.954 11.8154C18.959 11.8273 18.9685 11.8367 18.9803 11.8418L18.9999 11.8457C19.0275 11.8457 19.0497 11.8235 19.0497 11.7959L19.0458 11.7764C19.0381 11.7587 19.0204 11.7461 18.9999 11.7461Z" fill="#444444"/>
</svg>
