<svg width="24" height="24" viewBox="0 0 24 24" xmlns="http://www.w3.org/2000/svg">
<path d="M7.96996 8.76562C8.18444 8.55139 8.50724 8.48655 8.78735 8.60254C9.06747 8.71857 9.25007 8.99272 9.25024 9.2959V16.2959C9.25024 16.7101 8.91441 17.0458 8.50024 17.0459C8.08603 17.0459 7.75024 16.7101 7.75024 16.2959V11.1064L6.6018 12.2549C6.30892 12.5477 5.83413 12.5477 5.54125 12.2549C5.24854 11.962 5.24846 11.4872 5.54125 11.1943L7.96996 8.76562ZM13.5002 8.5459C15.0189 8.54602 16.2502 9.77817 16.2502 11.2969V14.2969C16.25 15.8154 15.0188 17.0458 13.5002 17.0459C11.9815 17.0459 10.7502 15.8147 10.7502 14.2959V11.2959C10.7505 9.77734 11.9816 8.5459 13.5002 8.5459ZM13.5002 10.0459C12.81 10.0459 12.2505 10.6058 12.2502 11.2959V14.2959C12.2502 14.9863 12.8099 15.5459 13.5002 15.5459C14.1905 15.5458 14.7502 14.9862 14.7502 14.2959V11.2959C14.75 10.6058 14.1903 10.046 13.5002 10.0459ZM17.5579 4.79688C18.3539 4.797 18.9999 5.44221 19.0002 6.23828C19.0002 6.76495 18.7131 7.25084 18.2512 7.50391L17.7161 7.79688H18.5002C18.7763 7.797 19.0002 8.02081 19.0002 8.29688C19 8.5727 18.7761 8.79675 18.5002 8.79688H16.6204C16.2726 8.79685 15.9824 8.5496 15.9153 8.22168L15.9006 8.07715L15.9075 7.97949C15.9381 7.75535 16.0729 7.55582 16.2747 7.44531L17.7707 6.62695C17.9122 6.54944 18.0001 6.39958 18.0002 6.23828C17.9999 5.99451 17.8016 5.797 17.5579 5.79688H17.5002C17.2241 5.79688 17.0002 6.02077 17.0002 6.29688V6.34668C17 6.62252 16.7761 6.84655 16.5002 6.84668C16.2243 6.84668 16.0005 6.6226 16.0002 6.34668V6.29688C16.0002 5.46848 16.6718 4.79688 17.5002 4.79688H17.5579Z" fill="#444444"/>
</svg>
