<svg width="24" height="24" viewBox="0 0 24 24" xmlns="http://www.w3.org/2000/svg">
<path d="M10.5785 2.04688C11.3154 2.04693 12.0239 2.34487 12.5384 2.87402C12.8267 3.17094 12.8204 3.64594 12.5238 3.93457C12.2271 4.223 11.752 4.21618 11.4632 3.91992C11.2319 3.68199 10.9115 3.54693 10.5785 3.54688C10.1329 3.54697 9.76433 3.89329 9.73571 4.33496L9.49548 8.04688H11.0004C11.4145 8.04699 11.7504 8.38273 11.7504 8.79688C11.7501 9.2108 11.4143 9.54676 11.0004 9.54688H9.39782L8.76208 19.3564C8.68172 20.5897 7.65491 21.5466 6.42223 21.5469C5.68546 21.5469 4.97676 21.2488 4.46227 20.7197C4.17371 20.4228 4.18107 19.9479 4.4779 19.6592C4.77491 19.3706 5.24976 19.3769 5.53844 19.6738C5.76967 19.9115 6.08943 20.0469 6.42223 20.0469C6.86748 20.0466 7.23618 19.6999 7.26501 19.2588L7.89489 9.54688H7.00036C6.58631 9.54688 6.25062 9.21086 6.25036 8.79688C6.25036 8.38266 6.58614 8.04688 7.00036 8.04688H7.99157L8.23864 4.23828C8.31859 3.00446 9.34514 2.04697 10.5785 2.04688ZM18.431 10.3086C18.7006 9.99425 19.1742 9.95802 19.4886 10.2275C19.8027 10.4972 19.8391 10.9708 19.5697 11.2852L16.9877 14.2969L19.5697 17.3086C19.8389 17.623 19.8029 18.0967 19.4886 18.3662C19.1743 18.6355 18.7006 18.5991 18.431 18.2852L16.0004 15.4492L13.5697 18.2852C13.3002 18.5992 12.8265 18.6353 12.5121 18.3662C12.1978 18.0967 12.1617 17.623 12.431 17.3086L15.0121 14.2969L12.431 11.2852C12.1615 10.9708 12.1978 10.4971 12.5121 10.2275C12.8265 9.95802 13.3001 9.99425 13.5697 10.3086L16.0004 13.1436L18.431 10.3086Z" fill="#444444"/>
</svg>
