<svg width="24" height="24" viewBox="0 0 24 24" xmlns="http://www.w3.org/2000/svg">
<path d="M7.23215 2.45898C6.81812 2.4591 6.4823 2.79498 6.48215 3.20898L6.48312 18.4824L4.10129 16.1016C3.80843 15.8093 3.33348 15.8091 3.04074 16.1016C2.7479 16.3945 2.7479 16.8702 3.04074 17.1631L6.70285 20.8232C6.99577 21.1161 7.47053 21.1162 7.7634 20.8232L11.4236 17.1631C11.7162 16.8702 11.7164 16.3944 11.4236 16.1016C11.1308 15.8091 10.6558 15.8093 10.363 16.1016L7.98312 18.4814L7.98215 3.20898C7.98198 2.79496 7.64619 2.45906 7.23215 2.45898Z" fill="#444444"/>
<path d="M19.3854 13.3721C19.6305 13.4073 19.8454 13.5618 19.9547 13.7891C20.0795 14.0489 20.044 14.3579 19.8639 14.583L15.9586 19.4658H19.279C19.6932 19.4658 20.029 19.8016 20.029 20.2158C20.0288 20.6299 19.6931 20.9658 19.279 20.9658H14.3981C14.11 20.9658 13.8473 20.8006 13.7223 20.541C13.5974 20.2812 13.6322 19.9722 13.8122 19.7471L17.7184 14.8643H14.3981C13.984 14.8643 13.6482 14.5284 13.6481 14.1143C13.6481 13.7 13.9839 13.3643 14.3981 13.3643H19.279L19.3854 13.3721Z" fill="#444444"/>
<path d="M16.4489 2.54297C16.7515 2.54303 17.0247 2.72565 17.1413 3.00488L19.1754 7.88574L20.192 10.3262C20.3513 10.7084 20.1699 11.1472 19.7878 11.3066C19.4055 11.4658 18.9666 11.2856 18.8073 10.9033L17.9831 8.92383H14.9147L14.0905 10.9033C13.9312 11.2856 13.4923 11.4658 13.11 11.3066C12.7277 11.1473 12.5464 10.7085 12.7057 10.3262L13.7223 7.88574L15.7565 3.00488C15.8731 2.72566 16.1463 2.54297 16.4489 2.54297ZM15.5397 7.42383H17.3581L16.4489 5.24219L15.5397 7.42383Z" fill="#40865C"/>
</svg>
