<svg width="24" height="24" viewBox="0 0 24 24" xmlns="http://www.w3.org/2000/svg">
<path d="M18 12C21.3137 12 24 14.6863 24 18C24 21.3137 21.3137 24 18 24C14.6863 24 12 21.3137 12 18C12 14.6863 14.6863 12 18 12ZM14.748 15.4961V16.7305H17.2266V22H18.7461V16.7305H21.252V15.4961H14.748Z" fill-opacity="0.4"/>
<path d="M20 1C21.6569 1 23 2.34315 23 4V13.1016C21.7295 11.8048 19.9588 11 18 11C16.4041 11 14.9333 11.5345 13.7559 12.4336C12.9439 12.7579 12.1876 13.2535 11.5127 13.8906C10.5508 13.3194 9.48499 13.001 8.36328 13.001C6.76785 13.001 5.28629 13.6442 4.05664 14.7451C4.05266 14.7484 4.04852 14.7526 4.04395 14.7568C4.01773 14.7836 4 14.8268 4 14.876C4.00018 14.9592 4.05128 15.0273 4.11426 15.0273C4.12166 15.0273 4.12941 15.0254 4.13672 15.0234C4.14165 15.0217 4.14579 15.02 4.15039 15.0176C4.85513 14.7366 5.60318 14.584 6.37695 14.584C8.20983 14.584 9.86396 15.0974 11.1797 16.4268C11.0635 16.9326 11 17.4589 11 18C11 19.9591 11.8055 21.7294 13.1025 23H4C2.34315 23 1 21.6569 1 20V4C1 2.34315 2.34315 1 4 1H20ZM18.0889 7.03125C16.9747 6.89149 15.9104 7.23084 15.0107 7.92188C14.3944 7.45815 13.6964 7.15582 12.9453 7.06152C11.9101 6.93164 10.9178 7.2166 10.0605 7.8125C10.0522 7.81828 10.0432 7.82478 10.0352 7.83008C10.0143 7.85168 10 7.88608 10 7.92383C10.0002 7.98926 10.04 8.04199 10.0898 8.04199C10.0943 8.04193 10.0989 8.04133 10.1035 8.04004C10.1055 8.03975 10.1075 8.03863 10.1094 8.03809C10.5703 7.92502 11.051 7.8927 11.541 7.9541C12.9167 8.12654 14.1159 8.69056 14.957 9.95605C15.001 10.0167 15.0403 10.0133 15.085 9.95312C16.1429 8.32615 17.7651 7.68285 19.5088 7.90137C19.6061 7.9139 19.7023 7.93028 19.7979 7.94922C19.8309 7.95586 19.8813 7.96627 19.9111 7.9707C19.9686 7.9791 19.9999 7.91834 20 7.85254C19.9995 7.80799 19.9848 7.7705 19.9521 7.74902V7.74805C19.9187 7.72504 19.8851 7.70332 19.8516 7.68164C19.3131 7.33674 18.7192 7.11034 18.0889 7.03125Z" fill="#DD9426"/>
</svg>
