<svg width="24" height="24" viewBox="0 0 24 24" xmlns="http://www.w3.org/2000/svg">
<path d="M18 12C21.3137 12 24 14.6863 24 18C24 21.3137 21.3137 24 18 24C14.6863 24 12 21.3137 12 18C12 14.6863 14.6863 12 18 12ZM14.748 15.4961V16.7305H17.2266V22H18.7461V16.7305H21.252V15.4961H14.748Z" fill-opacity="0.4"/>
<path d="M20 1C21.6569 1 23 2.34315 23 4V13.1016C22.1803 12.265 21.1523 11.634 20 11.291V6H4V18H11C11 19.9591 11.8055 21.7294 13.1025 23H4C2.34315 23 1 21.6569 1 20V4C1 2.34315 2.34315 1 4 1H20ZM19 7V11.0723C18.6733 11.0255 18.3396 11 18 11C14.4736 11 11.5576 13.6078 11.0723 17H5V7H19Z" fill="#BE6650"/>
</svg>
