<svg xmlns="http://www.w3.org/2000/svg" width="24" height="24" viewBox="0 0 24 24" fill="none"><path fill-rule="evenodd" clip-rule="evenodd" d="M18 12C14.6863 12 12 14.6863 12 18C12 21.3137 14.6863 24 18 24C21.3137 24 24 21.3137 24 18C24 14.6863 21.3137 12 18 12ZM18.7458 22V16.7307H21.2522V15.4956H18.7458H17.2265H14.7478V16.7307H17.2265V22H18.7458Z" fill="#A8A8A8"/><path fill-rule="evenodd" clip-rule="evenodd" d="M1 4C1 2.34315 2.34315 1 4 1H20C21.6569 1 23 2.34315 23 4V13.101C22.1803 12.2645 21.1523 11.6328 20 11.2899V6H4V18H11C11 19.9587 11.8045 21.7295 13.101 23H4C2.34315 23 1 21.6569 1 20V4ZM19 11.0709C18.6734 11.0242 18.3395 11 18 11C14.4735 11 11.5561 13.6077 11.0709 17H5V7H19V11.0709Z" fill="#BE664F"/></svg>