<svg width="24" height="30" viewBox="0 0 24 30" fill="none" xmlns="http://www.w3.org/2000/svg">
    <path d="M1 2a2 2 0 0 1 2-2h14l6 6v22a2 2 0 0 1-2 2H3a2 2 0 0 1-2-2z" fill="#705CED"/>
    <path d="m17 0 6 6h-5a1 1 0 0 1-1-1z" fill="#000" fill-opacity=".25"/>
    <path d="M8.984 15.374q.12-.066.221-.167l2.002-2.002a1 1 0 0 0 .167-.221q.06.015.126.016H16v5h-1a1 1 0 0 0-1 1v3a1 1 0 0 0 1 1h3a1 1 0 0 0 1-1v-3a1 1 0 0 0-1-1h-1v-5.5a.5.5 0 0 0-.5-.5h-5a.5.5 0 0 0-.125.016 1 1 0 0 0-.168-.222L9.205 9.792a1 1 0 0 0-1.41 0l-2.002 2.002a1 1 0 0 0 0 1.41l2.002 2.003a1 1 0 0 0 .221.167A.5.5 0 0 0 8 15.5V18H7a1 1 0 0 0-1 1v3a1 1 0 0 0 1 1h3a1 1 0 0 0 1-1v-3a1 1 0 0 0-1-1H9v-2.5a.5.5 0 0 0-.016-.126m-.484-.876L6.501 12.5l1.999-2 1.999 1.999zM7 19h3v3H7zm8 3v-3h3v3z" fill="#fff"/>
</svg>
