<svg width="600" height="40" viewBox="0 0 600 40" fill="none" xmlns="http://www.w3.org/2000/svg">
    <g id="menu-dark">
        <path d="M17 6H3v1h14zm0 4H3v1h14zM3 14h14v1H3z" fill="#000"/>
    </g>
    <g id="menu-light">
        <path d="M17 26H3v1h14zm0 4H3v1h14zM3 34h14v1H3z" fill="#fff"/>
    </g>
    <g id="download-dark">
        <path d="M30 2h1v11.293l4.647-4.647.707.708-5.854 5.853-5.853-5.853.707-.708L30 13.293zm-6 14h13v1H24z" fill="#000"/>
    </g>
    <g id="download-light">
        <path d="M30 22h1v11.293l4.647-4.646.707.707-5.854 5.853-5.853-5.853.707-.707L30 33.293zm-6 14h13v1H24z" fill="#fff"/>
    </g>
    <g id="share-dark">
        <path d="M56 5a2 2 0 0 1-3.377 1.45l-4.715 2.947a2 2 0 0 1 0 1.206l4.715 2.947a2 2 0 1 1-.53.848l-4.716-2.948a2 2 0 1 1 0-2.9l4.715-2.947A2 2 0 1 1 56 5" fill="#000"/>
    </g>
    <g id="share-light">
        <path d="M56 25a2 2 0 0 1-3.377 1.45l-4.715 2.947a2 2 0 0 1 0 1.206l4.715 2.947a2 2 0 1 1-.53.848l-4.716-2.948a2 2 0 1 1 0-2.9l4.715-2.947A2 2 0 1 1 56 25" fill="#fff"/>
    </g>
    <g id="embed-dark">
        <path d="m67.147 4.646.707.708L63.707 9.5l4.147 4.147-.707.707L62.293 9.5zm5.707 0-.707.708L76.293 9.5l-4.147 4.147.708.707L77.707 9.5z" fill="#000"/>
    </g>
    <g id="embed-light">
        <path d="m67.147 24.647.707.707-4.147 4.146 4.147 4.147-.707.707-4.854-4.854zm5.707 0-.707.707 4.146 4.146-4.147 4.147.708.707 4.853-4.854z" fill="#fff"/>
    </g>
    <g id="full-screen-dark">
        <path d="M86 3h-3v3h1V4h2zm0 3v8h8V6zm7 1v6h-6V7zm4-4v3h-1V4h-2V3zm-3 14h3v-3h-1v2h-2zm-11 0v-3h1v2h2v1z" fill="#000"/>
    </g>
    <g id="full-screen-light">
        <path d="M86 23h-3v3h1v-2h2zm0 3v8h8v-8zm7 1v6h-6v-6zm4-4v3h-1v-2h-2v-1zm-3 14h3v-3h-1v2h-2zm-11 0v-3h1v2h2v1z" fill="#fff"/>
    </g>
    <g id="zoom-in-dark">
        <path d="M111 5h-1v5h-5v1h5v5h1v-5h5v-1h-5z" fill="#000"/>
    </g>
    <g id="zoom-in-light">
        <path d="M111 25h-1v5h-5v1h5v5h1v-5h5v-1h-5z" fill="#fff"/>
    </g>
    <g id="zoom-out-dark">
        <path d="M135 11v-1h-10v1z" fill="#000"/>
    </g>
    <g id="zoom-out-light">
        <path d="M135 31v-1h-10v1z" fill="#fff"/>
    </g>
    <g id="go-to-first-dark">
        <path d="M146 5h-1v10h1zm1 5 8-5v10z" fill="#000"/>
    </g>
    <g id="go-to-first-light">
        <path d="M146 25h-1v10h1zm1 5 8-5v10z" fill="#fff"/>
    </g>
    <g id="go-to-last-dark">
        <path d="m173 10-8 5V5zm2 5h-1V5h1z" fill="#000"/>
    </g>
    <g id="go-to-last-light">
        <path d="m173 30-8 5V25zm2 5h-1V25h1z" fill="#fff"/>
    </g>
    <g id="play-dark">
        <path d="m185 3 13 7-13 7z" fill="#000"/>
    </g>
    <g id="play-light">
        <path d="m185 23 13 7-13 7z" fill="#fff"/>
    </g>
    <g id="pause-dark">
        <path d="M205 15V5h4v10zm6 0V5h4v10z" fill="#000"/>
    </g>
    <g id="pause-light">
        <path d="M205 35V25h4v10zm6 0V25h4v10z" fill="#fff"/>
    </g>
    <g id="print-dark">
        <path d="M226 4v2h8V4zm-1 2V4a1 1 0 0 1 1-1h8a1 1 0 0 1 1 1v2h2a1 1 0 0 1 1 1v6a1 1 0 0 1-1 1h-2v2a1 1 0 0 1-1 1h-8a1 1 0 0 1-1-1v-2h-2a1 1 0 0 1-1-1V7a1 1 0 0 1 1-1zm0 7v-2a1 1 0 0 1 1-1h8a1 1 0 0 1 1 1v2h2V7h-14v6zm0-5h-1v1h1zm9 3h-8v5h8zm-7 1h6v1h-6zm6 2h-6v1h6z" fill="#000"/>
    </g>
    <g id="print-light">
        <path d="M226 24v2h8v-2zm-1 2v-2a1 1 0 0 1 1-1h8a1 1 0 0 1 1 1v2h2a1 1 0 0 1 1 1v6a1 1 0 0 1-1 1h-2v2a1 1 0 0 1-1 1h-8a1 1 0 0 1-1-1v-2h-2a1 1 0 0 1-1-1v-6a1 1 0 0 1 1-1zm0 7v-2a1 1 0 0 1 1-1h8a1 1 0 0 1 1 1v2h2v-6h-14v6zm0-5h-1v1h1zm9 3h-8v5h8zm-7 1h6v1h-6zm6 2h-6v1h6z" fill="#fff"/>
    </g>
    <g id="clear-style-dark">
        <path d="M253.268 4.56a2.5 2.5 0 0 0-3.536 0l-6.171 6.172a2.5 2.5 0 0 0 0 3.536l1.585 1.585.147.147H255v-1h-4.293l4.732-4.732a2.5 2.5 0 0 0 0-3.536zM249.293 15h-3.586l-1.439-1.44a1.5 1.5 0 0 1 0-2.121l4.232-4.232 4.293 4.293zm-.086-8.5 1.232-1.233a1.5 1.5 0 0 1 2.122 0l2.171 2.172a1.5 1.5 0 0 1 0 2.121l-1.232 1.233z" fill="#000"/>
    </g>
    <g id="clear-style-light">
        <path d="M253.268 24.56a2.5 2.5 0 0 0-3.536 0l-6.171 6.172a2.5 2.5 0 0 0 0 3.535l1.585 1.586.147.147H255v-1h-4.293l4.732-4.733a2.5 2.5 0 0 0 0-3.535zM249.293 35h-3.586l-1.439-1.44a1.5 1.5 0 0 1 0-2.121l4.232-4.232 4.293 4.293zm-.086-8.5 1.232-1.233a1.5 1.5 0 0 1 2.122 0l2.171 2.172a1.5 1.5 0 0 1 0 2.121l-1.232 1.233z" fill="#fff"/>
    </g>
    <g id="edit-dark">
        <path d="m272 5 3 3 2-2V5l-2-2h-1zm-9 12v-3l8-8 3 3-8 8z" fill="#000"/>
    </g>
    <g id="edit-light">
        <path d="m272 25 3 3 2-2v-1l-2-2h-1zm-9 12v-3l8-8 3 3-8 8z" fill="#fff"/>
    </g>
    <g id="more-vertical-dark">
        <path d="M289 6a1 1 0 1 0 2 0 1 1 0 0 0-2 0m0 4a1 1 0 1 0 2 0 1 1 0 0 0-2 0m1 5a1 1 0 1 1 0-2 1 1 0 0 1 0 2" fill="#000"/>
    </g>
    <g id="more-vertical-light">
        <path d="M289 26a1 1 0 1 0 2 0 1 1 0 0 0-2 0m0 4a1 1 0 1 0 2 0 1 1 0 0 0-2 0m1 5a1 1 0 1 1 0-2 1 1 0 0 1 0 2" fill="#fff"/>
    </g>
    <g id="go-to-location-dark">
        <path d="m313.207 11.5-2.853 2.854-.708-.707 1.672-1.672H306v-1h5.268l-1.622-1.621.708-.708z" fill="#000"/>
        <path d="M311 6h6c.55 0 1 .45 1 1v9c0 .55-.45 1-1 1h-14c-.55 0-1-.45-1-1V5c0-.55.45-1 1-1h7c.55 0 1 .45 1 1zm-8-1v11h14V7h-7V5z" fill="#000"/>
    </g>
    <g id="go-to-location-light">
        <path d="m313.207 31.5-2.853 2.854-.708-.707 1.672-1.672H306v-1h5.268l-1.622-1.621.708-.707z" fill="#fff"/>
        <path d="M311 26h6c.55 0 1 .45 1 1v9c0 .55-.45 1-1 1h-14c-.55 0-1-.45-1-1V25c0-.55.45-1 1-1h7c.55 0 1 .45 1 1zm-8-1v11h14v-9h-7v-2z" fill="#fff"/>
    </g>
    <g id="arrow-down-dark">
        <path d="M331 3h-1v11.293l-4.646-4.647-.708.708 5.5 5.5.354.353.354-.353 5.5-5.5-.708-.708L331 14.293z" fill="#000"/>
    </g>
    <g id="arrow-down-light">
        <path d="M331 23h-1v11.293l-4.646-4.646-.708.707 5.5 5.5.354.353.354-.353 5.5-5.5-.708-.707L331 34.293z" fill="#fff"/>
    </g>
    <g id="arrow-up-dark">
        <path d="M350 16.207h1V4.914l4.646 4.647.708-.707-5.5-5.5L350.5 3l-.354.354-5.5 5.5.708.707L350 4.914z" fill="#000"/>
    </g>
    <g id="arrow-up-light">
        <path d="M350 36.207h1V24.914l4.646 4.647.708-.707-5.5-5.5L350.5 23l-.354.354-5.5 5.5.708.707L350 24.914z" fill="#fff"/>
    </g>
    <g id="close-dark">
        <path d="m369.439 9.5-3.969-3.97 1.06-1.06 3.97 3.97 3.97-3.97 1.06 1.06-3.969 3.97 3.969 3.97-1.06 1.06-3.97-3.97-3.97 3.97-1.06-1.06z" fill="#000"/>
    </g>
    <g id="close-light">
        <path d="m369.439 29.5-3.969-3.97 1.06-1.06 3.97 3.97 3.97-3.97 1.06 1.06-3.969 3.97 3.969 3.97-1.06 1.06-3.97-3.97-3.97 3.97-1.06-1.06z" fill="#fff"/>
    </g>
    <g id="cut-dark">
        <path d="M385.5 4a2.5 2.5 0 1 0 1.413 4.563L389.402 10l-2.489 1.437a2.5 2.5 0 1 0 .711.744l2.777-1.604 6.678 3.856a1 1 0 0 0 1.367-.366L391.401 10l7.045-4.067a1 1 0 0 0-1.367-.366l-6.677 3.856-2.778-1.604A2.5 2.5 0 0 0 385.5 4M384 6.5a1.5 1.5 0 1 1 3 0 1.5 1.5 0 0 1-3 0m0 7a1.5 1.5 0 1 1 3 0 1.5 1.5 0 0 1-3 0" fill="#000"/>
    </g>
    <g id="cut-light">
        <path d="M385.5 24a2.5 2.5 0 1 0 1.413 4.563L389.402 30l-2.489 1.437a2.5 2.5 0 1 0 .711.744l2.777-1.604 6.678 3.856a1 1 0 0 0 1.367-.366L391.401 30l7.045-4.067a1 1 0 0 0-1.367-.366l-6.677 3.856-2.778-1.604A2.5 2.5 0 0 0 385.5 24m-1.5 2.5a1.5 1.5 0 1 1 3 0 1.5 1.5 0 0 1-3 0m0 7a1.5 1.5 0 1 1 3 0 1.5 1.5 0 0 1-3 0" fill="#fff"/>
    </g>
    <g id="copy-dark">
        <path d="M404 5h8v2h1V5a1 1 0 0 0-1-1h-8a1 1 0 0 0-1 1v7a1 1 0 0 0 1 1h2v-1h-2zm7 1h-6v1h6zm-3 3h8v7h-8zm0-1a1 1 0 0 0-1 1v7a1 1 0 0 0 1 1h8a1 1 0 0 0 1-1V9a1 1 0 0 0-1-1zm-2 0h-1v1h1zm-1 2h1v1h-1zm10 1v-1h-6v1zm0 1v1h-6v-1zm0 3v-1h-6v1z" fill="#000"/>
    </g>
    <g id="copy-light">
        <path d="M404 25h8v2h1v-2a1 1 0 0 0-1-1h-8a1 1 0 0 0-1 1v7a1 1 0 0 0 1 1h2v-1h-2zm7 1h-6v1h6zm-3 3h8v7h-8zm0-1a1 1 0 0 0-1 1v7a1 1 0 0 0 1 1h8a1 1 0 0 0 1-1v-7a1 1 0 0 0-1-1zm-2 0h-1v1h1zm-1 2h1v1h-1zm10 1v-1h-6v1zm0 1v1h-6v-1zm0 3v-1h-6v1z" fill="#fff"/>
    </g>
    <g id="paste-dark">
        <path d="M426 3h6v1h2a1 1 0 0 1 1 1v2h-1V5h-2v1h-6V5h-2v7h2v1h-2a1 1 0 0 1-1-1V5a1 1 0 0 1 1-1h2zm10 13h-8V9h8zm-8-8a1 1 0 0 0-1 1v7a1 1 0 0 0 1 1h8a1 1 0 0 0 1-1V9a1 1 0 0 0-1-1zm1 3v-1h6v1zm6 1h-6v1h6zm-6 3v-1h6v1z" fill="#000"/>
    </g>
    <g id="paste-light">
        <path d="M426 23h6v1h2a1 1 0 0 1 1 1v2h-1v-2h-2v1h-6v-1h-2v7h2v1h-2a1 1 0 0 1-1-1v-7a1 1 0 0 1 1-1h2zm10 13h-8v-7h8zm-8-8a1 1 0 0 0-1 1v7a1 1 0 0 0 1 1h8a1 1 0 0 0 1-1v-7a1 1 0 0 0-1-1zm1 3v-1h6v1zm6 1h-6v1h6zm-6 3v-1h6v1z" fill="#fff"/>
    </g>
    <g id="undo-dark">
        <path d="m445.707 8 3.447 3.447-.707.707-4.654-4.654 4.654-4.653.707.707L445.707 7H452c1.5 0 2.76.353 3.651 1.128.902.786 1.349 1.939 1.349 3.372 0 1.434-.447 2.587-1.349 3.372C454.76 15.648 453.5 16 452 16h-2v-1h2c1.36 0 2.35-.32 2.994-.882.633-.55 1.006-1.398 1.006-2.618s-.373-2.067-1.006-2.618C454.35 8.322 453.36 8 452 8z" fill="#000"/>
    </g>
    <g id="undo-light">
        <path d="m445.707 28 3.447 3.447-.707.707-4.654-4.654 4.654-4.653.707.707L445.707 27H452c1.5 0 2.76.353 3.651 1.128.902.786 1.349 1.939 1.349 3.372 0 1.434-.447 2.587-1.349 3.372C454.76 35.648 453.5 36 452 36h-2v-1h2c1.36 0 2.35-.32 2.994-.882.633-.55 1.006-1.398 1.006-2.618s-.373-2.067-1.006-2.618C454.35 28.322 453.36 28 452 28z" fill="#fff"/>
    </g>
    <g id="redo-dark">
        <path d="m474.293 8-3.447 3.447.707.707 4.654-4.654-4.653-4.653-.708.707L474.293 7H468c-1.5 0-2.76.353-3.651 1.128-.902.786-1.349 1.939-1.349 3.372 0 1.434.447 2.587 1.349 3.372C465.24 15.648 466.5 16 468 16h2v-1h-2c-1.36 0-2.35-.32-2.994-.882-.633-.55-1.006-1.398-1.006-2.618s.373-2.067 1.006-2.618C465.65 8.322 466.64 8 468 8z" fill="#000"/>
    </g>
    <g id="redo-light">
        <path d="m474.293 28-3.447 3.447.707.707 4.654-4.654-4.653-4.653-.708.707L474.293 27H468c-1.5 0-2.76.353-3.651 1.128-.902.786-1.349 1.939-1.349 3.372 0 1.434.447 2.587 1.349 3.372C465.24 35.648 466.5 36 468 36h2v-1h-2c-1.36 0-2.35-.32-2.994-.882-.633-.55-1.006-1.398-1.006-2.618s.373-2.067 1.006-2.618c.644-.56 1.634-.882 2.994-.882z" fill="#fff"/>
    </g>
    <g id="search-dark">
        <path d="M493 8.5a4.5 4.5 0 1 0-9 0 4.5 4.5 0 0 0 9 0m-.98 4.227a5.5 5.5 0 1 1 .707-.707l4.127 4.127-.708.707z" fill="#000"/>
    </g>
    <g id="search-light">
        <path d="M493 28.5a4.5 4.5 0 1 0-9 0 4.5 4.5 0 0 0 9 0m-.98 4.227a5.5 5.5 0 1 1 .707-.707l4.127 4.127-.708.707z" fill="#fff"/>
    </g>
    <g id="show-dark">
        <path d="M509.93 13a6.99 6.99 0 0 0 5.745-3 6.99 6.99 0 0 0-5.745-3 6.99 6.99 0 0 0-5.746 3 6.99 6.99 0 0 0 5.746 3m0-7a8 8 0 0 1 6.929 4 8 8 0 0 1-6.929 4 8 8 0 0 1-6.93-4 8 8 0 0 1 6.93-4m0 6a2 2 0 1 0 0-4 2 2 0 0 0 0 4" fill="#000"/>
    </g>
    <g id="show-light">
        <path d="M509.93 33a6.99 6.99 0 0 0 5.745-3 6.99 6.99 0 0 0-5.745-3 6.99 6.99 0 0 0-5.746 3 6.99 6.99 0 0 0 5.746 3m0-7a8 8 0 0 1 6.929 4 8 8 0 0 1-6.929 4 8 8 0 0 1-6.93-4 8 8 0 0 1 6.93-4m0 6a2 2 0 1 0 0-4 2 2 0 0 0 0 4" fill="#fff"/>
    </g>
    <g id="hide-dark">
        <path d="m525.354 15.354 10-10-.708-.708-10 10zM530 6q.482 0 .948.052L530 7c-2.527 0-4.689 1.231-5.842 3a6.3 6.3 0 0 0 1.36 1.482l-.711.712A7.1 7.1 0 0 1 523 10c1.243-2.365 3.91-4 7-4m5.842 4c-1.153 1.769-3.315 3-5.842 3l-.948.948q.466.051.948.052c3.09 0 5.757-1.635 7-4a7.1 7.1 0 0 0-1.806-2.193l-.712.711a6.3 6.3 0 0 1 1.36 1.482" fill="#000"/>
    </g>
    <g id="hide-light">
        <path d="m525.354 35.354 10-10-.708-.707-10 10zM530 26q.482 0 .948.052L530 27c-2.527 0-4.689 1.231-5.842 3a6.3 6.3 0 0 0 1.36 1.482l-.711.712A7.1 7.1 0 0 1 523 30c1.243-2.365 3.91-4 7-4m5.842 4c-1.153 1.769-3.315 3-5.842 3l-.948.948q.466.051.948.052c3.09 0 5.757-1.635 7-4a7.1 7.1 0 0 0-1.806-2.193l-.712.711c.539.427.999.928 1.36 1.482" fill="#fff"/>
    </g>
    <g id="chevron-up-dark">
        <path d="m550 6.293.354.354 5.5 5.5-.708.707L550 7.707l-5.146 5.147-.708-.707 5.5-5.5z" fill="#000"/>
    </g>
    <g id="chevron-up-light">
        <path d="m550 26.293.354.354 5.5 5.5-.708.707L550 27.707l-5.146 5.147-.708-.707 5.5-5.5z" fill="#fff"/>
    </g>
    <g id="chevron-down-dark">
        <path d="m570 13.707.354-.353 5.5-5.5-.708-.708L570 12.293l-5.146-5.147-.708.708 5.5 5.5z" fill="#000"/>
    </g>
    <g id="chevron-down-light">
        <path d="m570 33.707.354-.353 5.5-5.5-.708-.707L570 32.292l-5.146-5.146-.708.707 5.5 5.5z" fill="#fff"/>
    </g>
    <g id="filing-status-dark">
        <path d="M595 6h-6V5h6zm-6 2h4V7h-4zm6 3h-6v-1h6zm-6 2h4v-1h-4z" fill="#000"/>
        <path d="M582 3a1 1 0 0 1 1-1h14a1 1 0 0 1 1 1v14a1 1 0 0 1-1 1h-14a1 1 0 0 1-1-1zm5 0v14h10V3zm-1 0h-3v14h3z" fill="#000"/>
    </g>
    <g id="filing-status-light">
        <path d="M595 26h-6v-1h6zm-6 2h4v-1h-4zm6 3h-6v-1h6zm-6 2h4v-1h-4z" fill="#fff"/>
        <path d="M582 23a1 1 0 0 1 1-1h14a1 1 0 0 1 1 1v14a1 1 0 0 1-1 1h-14a1 1 0 0 1-1-1zm5 0v14h10V23zm-1 0h-3v14h3z" fill="#fff"/>
    </g>
</svg>
