<svg width="480" height="40" viewBox="0 0 480 40" fill="none" xmlns="http://www.w3.org/2000/svg">
<g id="icon-menu-sprite Embedded Viewer">
<g id="view-settings">
<path id="Union" fill-rule="evenodd" clip-rule="evenodd" d="M17 26H3V27H17V26ZM17 30H3V31H17V30ZM3 34H17V35H3V34Z" fill="white"/>
</g>
<g id="download">
<path id="Union_2" fill-rule="evenodd" clip-rule="evenodd" d="M30 22H31V33.2929L35.6464 28.6464L36.3535 29.3536L30.8535 34.8536L30.5 35.2071L30.1464 34.8536L24.6464 29.3536L25.3535 28.6464L30 33.2929V22ZM37 36H24V37H37V36Z" fill="white"/>
</g>
<g id="share">
<path id="share_2" d="M56 25C56 26.1046 55.1046 27 54 27C53.4663 27 52.9815 26.791 52.6229 26.4503L47.9076 29.3974C47.9676 29.5875 48 29.79 48 30C48 30.21 47.9676 30.4125 47.9076 30.6026L52.6229 33.5497C52.9815 33.209 53.4663 33 54 33C55.1046 33 56 33.8954 56 35C56 36.1046 55.1046 37 54 37C52.8954 37 52 36.1046 52 35C52 34.79 52.0324 34.5875 52.0924 34.3974L47.3771 31.4503C47.0185 31.791 46.5337 32 46 32C44.8954 32 44 31.1046 44 30C44 28.8954 44.8954 28 46 28C46.5337 28 47.0185 28.209 47.3771 28.5497L52.0924 25.6026C52.0324 25.4125 52 25.21 52 25C52 23.8954 52.8954 23 54 23C55.1046 23 56 23.8954 56 25Z" fill="white"/>
</g>
<g id="embed ">
<g id="embed _2">
<path d="M67.8536 25.3536L67.1465 24.6465L62.293 29.5L67.1465 34.3536L67.8536 33.6465L63.7072 29.5L67.8536 25.3536Z" fill="white"/>
<path d="M72.1465 25.3536L72.8536 24.6465L77.7072 29.5L72.8536 34.3536L72.1465 33.6465L76.293 29.5L72.1465 25.3536Z" fill="white"/>
</g>
</g>
<g id="full-screen">
<path id="Union_3" fill-rule="evenodd" clip-rule="evenodd" d="M86 23H83V26H84V24H86V23ZM93 27H87V33H93V27ZM86 26V34H94V26H86ZM97 23V26H96V24L94 24V23H97ZM94 37H97V34H96V36H94V37ZM83 37V34H84L84 36H86L86 37H83Z" fill="white"/>
</g>
<g id="zoom-in">
<path id="Union_4" fill-rule="evenodd" clip-rule="evenodd" d="M111 25H110V30H105V31H110V36H111V31H116V30H111V25Z" fill="white"/>
</g>
<g id="zoom-out">
<rect id="Rectangle 44.8" x="135" y="30" width="1" height="10" transform="rotate(90 135 30)" fill="white"/>
</g>
<g id="scroll-to-first-sheet">
<path id="Union_5" fill-rule="evenodd" clip-rule="evenodd" d="M146 25H145V35H146V25ZM147 30L155 25V35L147 30Z" fill="white"/>
</g>
<g id="scroll-to-last-sheet">
<path id="Union_6" fill-rule="evenodd" clip-rule="evenodd" d="M173 30L165 35V25L173 30ZM175 35H174V25H175V35Z" fill="white"/>
</g>
<g id="play">
<path id="Vector 8 (Stroke)" fill-rule="evenodd" clip-rule="evenodd" d="M185 23L198 30L185 37V23Z" fill="white"/>
</g>
<g id="pause">
<path id="Union_7" fill-rule="evenodd" clip-rule="evenodd" d="M205 35V25H209V35H205ZM211 35V25H215V35H211Z" fill="white"/>
</g>
<g id=" print">
<path id="Union_8" fill-rule="evenodd" clip-rule="evenodd" d="M226 24H234V26H226V24ZM225 26V24C225 23.4477 225.448 23 226 23H234C234.552 23 235 23.4477 235 24V26H237C237.552 26 238 26.4477 238 27V33C238 33.5523 237.552 34 237 34H235V36C235 36.5523 234.552 37 234 37H226C225.448 37 225 36.5523 225 36V34H223C222.448 34 222 33.5523 222 33V27C222 26.4477 222.448 26 223 26H225ZM225 33V31C225 30.4477 225.448 30 226 30H234C234.552 30 235 30.4477 235 31V33H237V27H234H226H223V33H225ZM225 28H224V29H225V28ZM234 31H226V36H234V31ZM227 32H233V33H227V32ZM233 34H227V35H233V34Z" fill="white"/>
</g>
<g id="clear-style">
<path id="Union_9" fill-rule="evenodd" clip-rule="evenodd" d="M253.268 24.5608C252.292 23.5845 250.709 23.5845 249.732 24.5608L243.561 30.7324C242.585 31.7087 242.585 33.2916 243.561 34.268L245.147 35.8537L245.293 36.0002L245.5 36.0002H249.5L249.707 36.0002L255 36.0002V35.0002H250.707L255.44 30.268C256.416 29.2916 256.416 27.7087 255.44 26.7324L253.268 24.5608ZM249.293 35.0002L252.793 31.5002L248.5 27.2073L244.268 31.4395C243.682 32.0253 243.682 32.9751 244.268 33.5609L245.707 35.0002L249.293 35.0002ZM249.207 26.5002L253.5 30.7931L254.732 29.5608C255.318 28.9751 255.318 28.0253 254.732 27.4395L252.561 25.268C251.975 24.6822 251.025 24.6822 250.44 25.268L249.207 26.5002Z" fill="white"/>
</g>
<g id="view-settings_2">
<path id="Union_10" fill-rule="evenodd" clip-rule="evenodd" d="M17 6H3V7H17V6ZM17 10H3V11H17V10ZM3 14H17V15H3V14Z" fill="black"/>
</g>
<g id="download_2">
<path id="Union_11" fill-rule="evenodd" clip-rule="evenodd" d="M30 2H31V13.2929L35.6464 8.64645L36.3535 9.35355L30.8535 14.8536L30.5 15.2071L30.1464 14.8536L24.6464 9.35355L25.3535 8.64645L30 13.2929V2ZM37 16H24V17H37V16Z" fill="black"/>
</g>
<g id="share_3">
<path id="share_4" d="M56 5C56 6.10457 55.1046 7 54 7C53.4663 7 52.9815 6.79098 52.6229 6.45034L47.9076 9.39737C47.9676 9.58754 48 9.78999 48 10C48 10.21 47.9676 10.4125 47.9076 10.6026L52.6229 13.5497C52.9815 13.209 53.4663 13 54 13C55.1046 13 56 13.8954 56 15C56 16.1046 55.1046 17 54 17C52.8954 17 52 16.1046 52 15C52 14.79 52.0324 14.5875 52.0924 14.3974L47.3771 11.4503C47.0185 11.791 46.5337 12 46 12C44.8954 12 44 11.1046 44 10C44 8.89543 44.8954 8 46 8C46.5337 8 47.0185 8.20902 47.3771 8.54966L52.0924 5.60264C52.0324 5.41246 52 5.21001 52 5C52 3.89543 52.8954 3 54 3C55.1046 3 56 3.89543 56 5Z" fill="black"/>
</g>
<g id="embed _3">
<g id="embed _4">
<path d="M67.8536 5.35359L67.1465 4.64648L62.293 9.50004L67.1465 14.3536L67.8536 13.6465L63.7072 9.50004L67.8536 5.35359Z" fill="black"/>
<path d="M72.1465 5.35359L72.8536 4.64648L77.7072 9.50004L72.8536 14.3536L72.1465 13.6465L76.293 9.50004L72.1465 5.35359Z" fill="black"/>
</g>
</g>
<g id="full-screen_2">
<path id="Union_12" fill-rule="evenodd" clip-rule="evenodd" d="M86 3H83V6H84V4H86V3ZM93 7H87V13H93V7ZM86 6V14H94V6H86ZM97 3V6H96V4L94 4V3H97ZM94 17H97V14H96V16H94V17ZM83 17V14H84L84 16H86L86 17H83Z" fill="black"/>
</g>
<g id="zoom-in_2">
<path id="Union_13" fill-rule="evenodd" clip-rule="evenodd" d="M111 5H110V10H105V11H110V16H111V11H116V10H111V5Z" fill="black"/>
</g>
<g id="zoom-out_2">
<rect id="Rectangle 44.8_2" x="135" y="10" width="1" height="10" transform="rotate(90 135 10)" fill="black"/>
</g>
<g id="scroll-to-first-sheet_2">
<path id="Union_14" fill-rule="evenodd" clip-rule="evenodd" d="M146 5H145V15H146V5ZM147 10L155 5V15L147 10Z" fill="black"/>
</g>
<g id="scroll-to-last-sheet_2">
<path id="Union_15" fill-rule="evenodd" clip-rule="evenodd" d="M173 10L165 15V5L173 10ZM175 15H174V5H175V15Z" fill="black"/>
</g>
<g id="play_2">
<path id="Vector 8 (Stroke)_2" fill-rule="evenodd" clip-rule="evenodd" d="M185 3L198 10L185 17V3Z" fill="black"/>
</g>
<g id="pause_2">
<path id="Union_16" fill-rule="evenodd" clip-rule="evenodd" d="M205 15V5H209V15H205ZM211 15V5H215V15H211Z" fill="black"/>
</g>
<g id=" print_2">
<path id="Union_17" fill-rule="evenodd" clip-rule="evenodd" d="M226 4H234V6H226V4ZM225 6V4C225 3.44772 225.448 3 226 3H234C234.552 3 235 3.44772 235 4V6H237C237.552 6 238 6.44772 238 7V13C238 13.5523 237.552 14 237 14H235V16C235 16.5523 234.552 17 234 17H226C225.448 17 225 16.5523 225 16V14H223C222.448 14 222 13.5523 222 13V7C222 6.44772 222.448 6 223 6H225ZM225 13V11C225 10.4477 225.448 10 226 10H234C234.552 10 235 10.4477 235 11V13H237V7H234H226H223V13H225ZM225 8H224V9H225V8ZM234 11H226V16H234V11ZM227 12H233V13H227V12ZM233 14H227V15H233V14Z" fill="black"/>
</g>
<g id="clear-style_2">
<path id="Union_18" fill-rule="evenodd" clip-rule="evenodd" d="M253.268 4.56085C252.292 3.58454 250.709 3.58453 249.732 4.56085L243.561 10.7324C242.585 11.7087 242.585 13.2916 243.561 14.268L245.147 15.8537L245.293 16.0002L245.5 16.0002H249.5L249.707 16.0002L255 16.0002V15.0002H250.707L255.44 10.268C256.416 9.29164 256.416 7.70873 255.44 6.73242L253.268 4.56085ZM249.293 15.0002L252.793 11.5002L248.5 7.20729L244.268 11.4395C243.682 12.0253 243.682 12.9751 244.268 13.5609L245.707 15.0002L249.293 15.0002ZM249.207 6.50019L253.5 10.7931L254.732 9.56085C255.318 8.97506 255.318 8.02531 254.732 7.43953L252.561 5.26795C251.975 4.68217 251.025 4.68217 250.44 5.26795L249.207 6.50019Z" fill="black"/>
</g>
<g id="edit">
<path id="Union_19" fill-rule="evenodd" clip-rule="evenodd" d="M272 25L275 28L277 26V25L275 23H274L272 25ZM263 37V34L271 26L274 29L266 37H263Z" fill="white"/>
</g>
<g id="more-vertical">
<circle id="Ellipse" cx="290" cy="26" r="1" transform="rotate(90 290 26)" fill="white"/>
<circle id="Ellipse_2" cx="290" cy="30" r="1" transform="rotate(90 290 30)" fill="white"/>
<circle id="Ellipse_3" cx="290" cy="34" r="1" transform="rotate(90 290 34)" fill="white"/>
</g>
<g id="go-to-location">
<path id="Union_20" fill-rule="evenodd" clip-rule="evenodd" d="M311 26H317C317.55 26 318 26.45 318 27V36C318 36.55 317.55 37 317 37H303C302.45 37 302 36.55 302 36V25C302 24.45 302.45 24 303 24H310C310.55 24 311 24.45 311 25V26ZM303 25V36H317V27H310V25H303ZM310.354 34.3536L309.646 33.6465L311.318 31.9747H306V30.9747H311.268L309.646 29.3536L310.354 28.6465L313.207 31.5L310.354 34.3536Z" fill="white"/>
</g>
<g id="arrow-bottom">
<path id="Union_21" fill-rule="evenodd" clip-rule="evenodd" d="M331 23H330V34.2929L325.354 29.6464L324.646 30.3536L330.146 35.8536L330.5 36.2071L330.854 35.8536L336.354 30.3536L335.646 29.6464L331 34.2929V23Z" fill="white"/>
</g>
<g id="edit_2">
<path id="Union_22" fill-rule="evenodd" clip-rule="evenodd" d="M272 5L275 8L277 6V5L275 3H274L272 5ZM263 17V14L271 6L274 9L266 17H263Z" fill="black"/>
</g>
<g id="more-vertical_2">
<circle id="Ellipse_4" cx="290" cy="6" r="1" transform="rotate(90 290 6)" fill="black"/>
<circle id="Ellipse_5" cx="290" cy="10" r="1" transform="rotate(90 290 10)" fill="black"/>
<circle id="Ellipse_6" cx="290" cy="14" r="1" transform="rotate(90 290 14)" fill="black"/>
</g>
<g id="go-to-location_2">
<path id="Union_23" fill-rule="evenodd" clip-rule="evenodd" d="M311 6H317C317.55 6 318 6.45 318 7V16C318 16.55 317.55 17 317 17H303C302.45 17 302 16.55 302 16V5C302 4.45 302.45 4 303 4H310C310.55 4 311 4.45 311 5V6ZM303 5V16H317V7H310V5H303ZM310.354 14.3536L309.646 13.6465L311.318 11.9747H306V10.9747H311.268L309.646 9.35359L310.354 8.64648L313.207 11.5L310.354 14.3536Z" fill="black"/>
</g>
<g id="arrow-bottom_2">
<path id="Union_24" fill-rule="evenodd" clip-rule="evenodd" d="M331 3H330V14.2929L325.354 9.64645L324.646 10.3536L330.146 15.8536L330.5 16.2071L330.854 15.8536L336.354 10.3536L335.646 9.64645L331 14.2929V3Z" fill="black"/>
</g>
<g id="arrow-top">
<path id="Union_25" fill-rule="evenodd" clip-rule="evenodd" d="M350 36.207L351 36.207L351 24.9141L355.646 29.5606L356.354 28.8535L350.854 23.3535L350.5 22.9999L350.146 23.3535L344.646 28.8535L345.354 29.5606L350 24.9141L350 36.207Z" fill="white"/>
</g>
<g id="arrow-top_2">
<path id="Union_26" fill-rule="evenodd" clip-rule="evenodd" d="M350 16.207L351 16.207L351 4.91414L355.646 9.56059L356.354 8.85348L350.854 3.35348L350.5 2.99993L350.146 3.35348L344.646 8.85348L345.354 9.56059L350 4.91414L350 16.207Z" fill="black"/>
</g>
<g id="close">
<path id="Vector 73" d="M366 25L375 34M375 25L366 34" stroke="white" stroke-width="1.5"/>
</g>
<g id="close_2">
<path id="Vector 73_2" d="M366 5L375 14M375 5L366 14" stroke="black" stroke-width="1.5"/>
</g>
<g id="20 / Cut">
<circle id="Ellipse 103" cx="385.5" cy="13.5" r="2" stroke="black"/>
<circle id="Ellipse 104" cx="385.5" cy="6.5" r="2" stroke="black"/>
<path id="Rectangle 1552" d="M387.188 7.56689L398.446 14.0669C398.17 14.5452 397.559 14.7091 397.08 14.4329L386.688 8.43292L387.188 7.56689Z" fill="black"/>
<path id="Rectangle 1553" d="M386.688 11.5669L397.08 5.56689C397.558 5.29075 398.17 5.45463 398.446 5.93292L387.188 12.4329L386.688 11.5669Z" fill="black"/>
</g>
<g id="20 / Cut_2">
<circle id="Ellipse 103_2" cx="385.5" cy="33.5" r="2" stroke="white"/>
<circle id="Ellipse 104_2" cx="385.5" cy="26.5" r="2" stroke="white"/>
<path id="Rectangle 1552_2" d="M387.188 27.5669L398.446 34.0669C398.17 34.5452 397.559 34.7091 397.08 34.4329L386.688 28.4329L387.188 27.5669Z" fill="white"/>
<path id="Rectangle 1553_2" d="M386.688 31.5669L397.08 25.5669C397.558 25.2908 398.17 25.4546 398.446 25.9329L387.188 32.4329L386.688 31.5669Z" fill="white"/>
</g>
<g id="20 / copy">
<path id="Union_27" fill-rule="evenodd" clip-rule="evenodd" d="M404 5H412V7H413V5C413 4.44772 412.552 4 412 4H404C403.448 4 403 4.44772 403 5V12C403 12.5523 403.448 13 404 13H406V12H404V5ZM411 6H405V7H411V6ZM408 9V16H416V9H408ZM408 8C407.448 8 407 8.44772 407 9V16C407 16.5523 407.448 17 408 17H416C416.552 17 417 16.5523 417 16V9C417 8.44772 416.552 8 416 8H408ZM406 8H405V9H406V8ZM405 10H406V11H405V10ZM415 11V10H409V11H415ZM415 12V13H409V12H415ZM415 15V14H409V15H415Z" fill="black"/>
</g>
<g id="20 / copy_2">
<path id="Union_28" fill-rule="evenodd" clip-rule="evenodd" d="M404 25H412V27H413V25C413 24.4477 412.552 24 412 24H404C403.448 24 403 24.4477 403 25V32C403 32.5523 403.448 33 404 33H406V32H404V25ZM411 26H405V27H411V26ZM408 29V36H416V29H408ZM408 28C407.448 28 407 28.4477 407 29V36C407 36.5523 407.448 37 408 37H416C416.552 37 417 36.5523 417 36V29C417 28.4477 416.552 28 416 28H408ZM406 28H405V29H406V28ZM405 30H406V31H405V30ZM415 31V30H409V31H415ZM415 32V33H409V32H415ZM415 35V34H409V35H415Z" fill="white"/>
</g>
<g id="20 / paste">
<path id="Union_29" fill-rule="evenodd" clip-rule="evenodd" d="M426 3H432V4H434C434.552 4 435 4.44772 435 5V7H434V5H432V6H426V5H424V12H426V13H424C423.448 13 423 12.5523 423 12V5C423 4.44772 423.448 4 424 4H426V3ZM436 16V9H428V16H436ZM428 8C427.448 8 427 8.44772 427 9V16C427 16.5523 427.448 17 428 17H436C436.552 17 437 16.5523 437 16V9C437 8.44772 436.552 8 436 8H428ZM429 11V10H435V11H429ZM435 12H429V13H435V12ZM429 15V14H435V15H429Z" fill="black"/>
</g>
<g id="20 / paste_2">
<path id="Union_30" fill-rule="evenodd" clip-rule="evenodd" d="M426 23H432V24H434C434.552 24 435 24.4477 435 25V27H434V25H432V26H426V25H424V32H426V33H424C423.448 33 423 32.5523 423 32V25C423 24.4477 423.448 24 424 24H426V23ZM436 36V29H428V36H436ZM428 28C427.448 28 427 28.4477 427 29V36C427 36.5523 427.448 37 428 37H436C436.552 37 437 36.5523 437 36V29C437 28.4477 436.552 28 436 28H428ZM429 31V30H435V31H429ZM435 32H429V33H435V32ZM429 35V34H435V35H429Z" fill="white"/>
</g>
<g id="20 / redo">
<path id="Vector" d="M469.1 7C471.1 7 473.2 8.3 474.5 9.5L477 7V14H470L472.5 11.5C471.7 10.2 469.9 9.1 468.2 9.1C465.7 9.1 462.8 10.8 462.5 13.2C462.9 9.7 465.5 7 469.1 7Z" fill="black"/>
</g>
<g id="20 / redo_2">
<path id="Vector_2" d="M469.1 27C471.1 27 473.2 28.3 474.5 29.5L477 27V34H470L472.5 31.5C471.7 30.2 469.9 29.1 468.2 29.1C465.7 29.1 462.8 30.8 462.5 33.2C462.9 29.7 465.5 27 469.1 27Z" fill="white"/>
</g>
<g id="20 / undo">
<path id="Vector_3" d="M450.9 7C448.9 7 446.8 8.3 445.5 9.5L443 7V14H450L447.5 11.5C448.3 10.2 450.1 9.1 451.8 9.1C454.3 9.1 457.2 10.8 457.5 13.2C457.1 9.7 454.5 7 450.9 7Z" fill="black"/>
</g>
<g id="20 / undo_2">
<path id="Vector_4" d="M450.9 27C448.9 27 446.8 28.3 445.5 29.5L443 27V34H450L447.5 31.5C448.3 30.2 450.1 29.1 451.8 29.1C454.3 29.1 457.2 30.8 457.5 33.2C457.1 29.7 454.5 27 450.9 27Z" fill="white"/>
</g>
</g>
</svg>
