<svg width="64" height="64" viewBox="0 0 64 64" xmlns="http://www.w3.org/2000/svg">
<rect opacity="0.3" x="21" y="13" width="35" height="1" fill="#444444"/>
<rect opacity="0.3" x="21" y="31" width="35" height="1" fill="#444444"/>
<rect opacity="0.3" x="21" y="49" width="35" height="1" fill="#444444"/>
<path d="M8.60498 18V11.2754H8.5835L6.53174 12.7524V11.7319L8.59424 10.2495H9.53955V18H8.60498ZM13.4014 14.9492C13.4014 17.4038 12.585 18.7466 11.876 19.6489H11.0918C11.5645 19.1011 12.4507 17.3823 12.4507 14.9492C12.4507 12.5161 11.5591 10.792 11.0918 10.2495H11.876C12.585 11.1519 13.4014 12.4946 13.4014 14.9492Z" fill="#444444"/>
<path d="M6.58008 30.4839C6.58008 29.1304 7.67578 28.1206 9.13672 28.1206C10.5225 28.1206 11.6128 29.0605 11.6128 30.2476C11.6128 31.1123 11.2207 31.7568 9.92627 33.0942L7.96582 35.1191V35.1406H11.7417V36H6.62842V35.334L9.35693 32.4604C10.3989 31.3647 10.646 30.9512 10.646 30.3066C10.646 29.5601 9.96387 28.9639 9.10986 28.9639C8.20215 28.9639 7.51465 29.6191 7.51465 30.4839V30.4893H6.58008V30.4839ZM14.7549 32.9492C14.7549 35.4038 13.9385 36.7466 13.2295 37.6489H12.4453C12.918 37.1011 13.8042 35.3823 13.8042 32.9492C13.8042 30.5161 12.9126 28.792 12.4453 28.2495H13.2295C13.9385 29.1519 14.7549 30.4946 14.7549 32.9492Z" fill="#444444"/>
<path d="M8.20752 49.4229V48.6064H9.13672C10.0283 48.6064 10.6514 48.0317 10.6514 47.2476C10.6514 46.4795 10.1304 45.9585 9.14746 45.9585C8.25586 45.9585 7.66504 46.4688 7.5791 47.2798H6.6499C6.75732 45.9639 7.73486 45.1206 9.19043 45.1206C10.5762 45.1206 11.6235 45.9531 11.6235 47.1187C11.6235 48.0908 11.0005 48.7891 10.0337 48.9609V48.9824C11.2046 49.0522 11.9565 49.7773 11.9565 50.8677C11.9565 52.1997 10.7427 53.1289 9.22266 53.1289C7.60059 53.1289 6.56396 52.2319 6.49414 50.9482H7.42334C7.50928 51.7432 8.16992 52.291 9.21191 52.291C10.2378 52.291 10.9736 51.7109 10.9736 50.8999C10.9736 49.9868 10.2861 49.4229 9.17969 49.4229H8.20752ZM15.0342 49.9492C15.0342 52.4038 14.2178 53.7466 13.5088 54.6489H12.7246C13.1973 54.1011 14.0835 52.3823 14.0835 49.9492C14.0835 47.5161 13.1919 45.792 12.7246 45.2495H13.5088C14.2178 46.1519 15.0342 47.4946 15.0342 49.9492Z" fill="#444444"/>
</svg>
