<svg width="64" height="64" viewBox="0 0 64 64" xmlns="http://www.w3.org/2000/svg">
<rect opacity="0.3" width="35" height="1" transform="matrix(-1 0 0 1 43 13)" fill="#444444"/>
<rect opacity="0.3" width="35" height="1" transform="matrix(-1 0 0 1 43 31)" fill="#444444"/>
<rect opacity="0.3" width="35" height="1" transform="matrix(-1 0 0 1 43 49)" fill="#444444"/>
<path d="M54.0679 17.3018C53.3965 17.3018 52.9507 16.9526 52.9507 16.4209C52.9507 15.8945 53.3804 15.5615 54.1323 15.5132L55.6255 15.4219V15.8784C55.6255 16.6841 54.9487 17.3018 54.0679 17.3018ZM53.8584 18.0967C54.6104 18.0967 55.3193 17.6777 55.6523 17.0386H55.6738V18H56.5601V14.1382C56.5601 13.0264 55.7329 12.3174 54.4224 12.3174C53.1011 12.3174 52.2739 13.0586 52.2095 14.0254H53.1118C53.23 13.4775 53.6812 13.1392 54.4009 13.1392C55.1743 13.1392 55.6255 13.5474 55.6255 14.2295V14.6968L54.0249 14.7881C52.7358 14.8633 52 15.4648 52 16.4209C52 17.4253 52.7466 18.0967 53.8584 18.0967Z" fill="#444444"/>
<path d="M48.6904 14.9497C48.6904 12.4951 49.5068 11.1523 50.2158 10.25H51C50.5327 10.7925 49.6411 12.5166 49.6411 14.9497C49.6411 17.3828 50.5273 19.1016 51 19.6494H50.2158C49.5068 18.7471 48.6904 17.4043 48.6904 14.9497Z" fill="#444444"/>
<path d="M48 32.9497C48 30.4951 48.8164 29.1523 49.5254 28.25H50.3096C49.8423 28.7925 48.9507 30.5166 48.9507 32.9497C48.9507 35.3828 49.8369 37.1016 50.3096 37.6494H49.5254C48.8164 36.7471 48 35.4043 48 32.9497Z" fill="#444444"/>
<path d="M54.7285 36.0972C56.1572 36.0972 57.1025 34.9639 57.1025 33.2075C57.1025 31.4565 56.1519 30.3179 54.7446 30.3179C53.9551 30.3179 53.3052 30.71 52.9561 31.3491H52.9346V28.25H52V36.0005H52.8916V35.0552H52.9131C53.2729 35.6997 53.9121 36.0972 54.7285 36.0972ZM54.5459 31.1396C55.5342 31.1396 56.1465 31.9399 56.1465 33.2075C56.1465 34.4858 55.5342 35.2754 54.5459 35.2754C53.6006 35.2754 52.9292 34.4536 52.9292 33.2075C52.9292 31.9668 53.6006 31.1396 54.5459 31.1396Z" fill="#444444"/>
<path d="M56.9146 49.2456C56.7964 48.2412 55.9639 47.3174 54.5674 47.3174C53.0259 47.3174 52 48.4453 52 50.207C52 52.0063 53.0312 53.0967 54.5781 53.0967C55.8457 53.0967 56.7803 52.3125 56.9253 51.2007H56.0068C55.8457 51.8721 55.3462 52.2749 54.5835 52.2749C53.6167 52.2749 52.9507 51.5068 52.9507 50.207C52.9507 48.9395 53.606 48.1392 54.5728 48.1392C55.3945 48.1392 55.8672 48.6387 56.0015 49.2456H56.9146Z" fill="#444444"/>
<path d="M48.6904 49.9497C48.6904 47.4951 49.5068 46.1523 50.2158 45.25H51C50.5327 45.7925 49.6411 47.5166 49.6411 49.9497C49.6411 52.3828 50.5273 54.1016 51 54.6494H50.2158C49.5068 53.7471 48.6904 52.4043 48.6904 49.9497Z" fill="#444444"/>
</svg>
