<svg width="64" height="64" viewBox="0 0 64 64" xmlns="http://www.w3.org/2000/svg">
<path d="M55.0732 18.0005H56.0078V10.25H55.0625L53 11.7324V12.7529L55.0518 11.2759H55.0732V18.0005Z" fill="#444444"/>
<path d="M52 30.4844V30.4897H52.9346V30.4844C52.9346 29.6196 53.6221 28.9644 54.5298 28.9644C55.3838 28.9644 56.0659 29.5605 56.0659 30.3071C56.0659 30.9517 55.8188 31.3652 54.7769 32.4609L52.0483 35.3345V36.0005H57.1616V35.1411H53.3857V35.1196L55.3462 33.0947C56.6406 31.7573 57.0327 31.1128 57.0327 30.248C57.0327 29.061 55.9424 28.1211 54.5566 28.1211C53.0957 28.1211 52 29.1309 52 30.4844Z" fill="#444444"/>
<path d="M53.7134 49.4233H54.6855C55.792 49.4233 56.4795 49.9873 56.4795 50.9004C56.4795 51.7114 55.7437 52.2915 54.7178 52.2915C53.6758 52.2915 53.0151 51.7437 52.9292 50.9487H52C52.0698 52.2324 53.1064 53.1294 54.7285 53.1294C56.2485 53.1294 57.4624 52.2002 57.4624 50.8682C57.4624 49.7778 56.7104 49.0527 55.5396 48.9829V48.9614C56.5063 48.7896 57.1294 48.0913 57.1294 47.1191C57.1294 45.9536 56.082 45.1211 54.6963 45.1211C53.2407 45.1211 52.2632 45.9644 52.1558 47.2803H53.085C53.1709 46.4692 53.7617 45.959 54.6533 45.959C55.6362 45.959 56.1572 46.48 56.1572 47.248C56.1572 48.0322 55.5342 48.6069 54.6426 48.6069H53.7134V49.4233Z" fill="#444444"/>
<rect opacity="0.3" width="35" height="1" transform="matrix(-1 0 0 1 43 13)" fill="#444444"/>
<rect opacity="0.3" width="35" height="1" transform="matrix(-1 0 0 1 43 31)" fill="#444444"/>
<rect opacity="0.3" width="35" height="1" transform="matrix(-1 0 0 1 43 49)" fill="#444444"/>
<path d="M48.6904 14.9497C48.6904 12.4951 49.5068 11.1523 50.2158 10.25H51C50.5327 10.7925 49.6411 12.5166 49.6411 14.9497C49.6411 17.3828 50.5273 19.1016 51 19.6494H50.2158C49.5068 18.7471 48.6904 17.4043 48.6904 14.9497Z" fill="#444444"/>
<path d="M48 32.9497C48 30.4951 48.8164 29.1523 49.5254 28.25H50.3096C49.8423 28.7925 48.9507 30.5166 48.9507 32.9497C48.9507 35.3828 49.8369 37.1016 50.3096 37.6494H49.5254C48.8164 36.7471 48 35.4043 48 32.9497Z" fill="#444444"/>
<path d="M48.6904 49.9497C48.6904 47.4951 49.5068 46.1523 50.2158 45.25H51C50.5327 45.7925 49.6411 47.5166 49.6411 49.9497C49.6411 52.3828 50.5273 54.1016 51 54.6494H50.2158C49.5068 53.7471 48.6904 52.4043 48.6904 49.9497Z" fill="#444444"/>
</svg>
