<svg xmlns="http://www.w3.org/2000/svg" width="24" height="24" viewBox="0 0 24 24" fill="none"><mask id="mask0_57_6088" style="mask-type:alpha" maskUnits="userSpaceOnUse" x="0" y="0" width="24" height="24"><path fill-rule="evenodd" clip-rule="evenodd" d="M4 1C2.34315 1 1 2.34315 1 4V20C1 21.6569 2.34315 23 4 23H20C21.6569 23 23 21.6569 23 20V4C23 2.34315 21.6569 1 20 1H4ZM5 9V15H6.07143V13H7.67857C8.56617 13 9.28571 12.3284 9.28571 11.5V10.5C9.28571 9.67163 8.56617 9 7.67857 9H5ZM6.07143 10H7.67857C7.97445 10 8.21429 10.2239 8.21429 10.5V11.5C8.21429 11.7761 7.97445 12 7.67857 12H6.07143V10ZM15.7143 15H16.7857V13H19.4643V12H16.7857V10H20V9H15.7143V15ZM10.3571 9H13.0357C13.9233 9 14.6429 9.67163 14.6429 10.5V13.5C14.6429 14.3284 13.9233 15 13.0357 15H10.3571V9ZM13.0357 10H11.4286V14H13.0357C13.3316 14 13.5714 13.7761 13.5714 13.5V10.5C13.5714 10.2239 13.3316 10 13.0357 10Z" fill="black"/></mask><g mask="url(#mask0_57_6088)"><rect width="24" height="24" fill="#DB4437"/></g></svg>