<svg xmlns="http://www.w3.org/2000/svg" width="28" height="28" fill="none" viewBox="0 0 28 28">
  <path fill="#000" fill-rule="evenodd" d="M25 6H9.078L6.562 20.68 5.938 16H3v1h2.062l.942 7.066.989.018L9.922 7H25V6Zm-8.392 7.396a4.487 4.487 0 0 0-.795-1.118l-2.868.505v.387c.215-.014.405-.022.57-.022.515 0 .906.097 1.17.29.265.194.48.523.645.989.036.1.276 1.02.72 2.76-.18.401-.559 1.053-1.139 1.956-.58.902-1.038 1.49-1.375 1.761-.136.115-.247.172-.333.172-.1 0-.243-.082-.43-.247-.257-.23-.5-.344-.73-.344a.788.788 0 0 0-.58.237.801.801 0 0 0-.236.59c0 .265.085.477.257.634.237.208.498.312.785.312.408 0 .83-.18 1.267-.537.673-.559 1.569-1.809 2.686-3.75.472 2.128.784 3.33.934 3.61.237.451.555.677.956.677.272 0 .605-.158 1-.473a6.727 6.727 0 0 0 1.718-2.105l-.376-.194c-.28.53-.616.96-1.01 1.29-.2.164-.376.247-.526.247-.093 0-.186-.054-.28-.162-.092-.114-.207-.454-.343-1.02l-.88-3.696c.615-1.066 1.145-1.786 1.589-2.159.236-.2.44-.3.612-.3.115 0 .34.057.677.171.172.065.333.097.483.097.258 0 .487-.09.688-.269.107-.1.161-.286.161-.558a.774.774 0 0 0-.28-.602c-.178-.164-.422-.247-.73-.247a1.47 1.47 0 0 0-.57.108c-.271.114-.586.33-.944.644a5.81 5.81 0 0 0-.913.978l-.946 1.418c-.293-1.096-.505-1.773-.634-2.03Z" clip-rule="evenodd"/>
</svg>
