<svg xmlns="http://www.w3.org/2000/svg" width="28" height="28" fill="none" viewBox="0 0 28 28">
  <path fill="#000" fill-rule="evenodd" d="M3.091 14c1.897 4.133 6.071 7 10.913 7 4.841 0 9.015-2.867 10.912-7-1.897-4.133-6.07-7-10.912-7A12.002 12.002 0 0 0 3.09 14Zm22.916 0c-1.959-4.698-6.595-8-12.003-8S3.959 9.302 2 14c1.96 4.698 6.596 8 12.004 8 5.408 0 10.044-3.302 12.003-8Z" clip-rule="evenodd"/>
  <path fill="#000" d="M17.004 14a3 3 0 1 1-6 0 3 3 0 0 1 6 0Z"/>
  <path fill="#000" fill-rule="evenodd" d="M14.004 21a7 7 0 1 0 0-14 7 7 0 0 0 0 14Zm0 1a8 8 0 1 0 0-16 8 8 0 0 0 0 16Z" clip-rule="evenodd"/>
</svg>
