<svg width="28" height="28" viewBox="0 0 28 28" fill="none" xmlns="http://www.w3.org/2000/svg">
    <path d="M4 7h14v3h1V4a1 1 0 0 0-1-1H4a1 1 0 0 0-1 1v14a1 1 0 0 0 1 1h6v-1H4zm14-1H4V4h14z" fill="#000"/>
    <path d="M16 9H6v1h10zm-6 3H6v1h4zm-4 3h4v1H6zm14 10a2 2 0 0 0 2-2v-7h2a1 1 0 0 0 1-1v-1a2 2 0 0 0-2-2h-9a2 2 0 0 0-2 2v7h-2a1 1 0 0 0-1 1v1a2 2 0 0 0 2 2zm3-12a1 1 0 0 1 1 1v1h-2v-1.001a1 1 0 0 1 .998-.999zm-10 1a1 1 0 0 1 1-1h7.268a2 2 0 0 0-.268.998V23a1 1 0 0 1-1 1h-.001A1 1 0 0 1 19 23v-2h-6zm5.207 9.888.06.112H11a1 1 0 0 1-1-1v-1h8v1c0 .319.075.62.207.887" fill="#000"/>
</svg>
