<svg xmlns="http://www.w3.org/2000/svg" width="28" height="28" fill="none" viewBox="0 0 28 28">
  <path fill="#000" fill-rule="evenodd" d="M10 3h12c.6 0 1 .4 1 1v5h-1V4H10V3Zm2 3h8v1h-8V6ZM8 16v-1h8v1H8Zm12-7h-7v1h7V9Zm-6 3h4v1h-4v-1Zm0 6H8v1h6v-1Zm-6 3h5v1H8v-1Zm14 3H6V9H5v15c0 .6.4 1 1 1h16c.6 0 1-.4 1-1v-6h-1v6Zm-5-1.9h-1.2l-.5-1.1 4.4-7.1 1.7 1.1-4.4 7.1Zm3.196-9.03 1.05-1.702 1.702 1.051-1.05 1.702-1.702-1.05Zm-7.696.13-.6 1h-1.2l-4-7.3 1.7-1 4.1 7.3ZM5.215 4.203l1.745-.977.978 1.745-1.745.977-.978-1.745Z" clip-rule="evenodd"/>
</svg>
