<svg width="28" height="28" fill="none" xmlns="http://www.w3.org/2000/svg"><path d="m14.866 7.635 2.97-2.97a3.2 3.2 0 0 1 4.526 0l.99.99a3.2 3.2 0 0 1 0 4.525l-2.97 2.97a3.2 3.2 0 0 1-3.308.763l-.766.765a4.202 4.202 0 0 0 4.78-.82l2.97-2.97a4.2 4.2 0 0 0 0-5.94l-.99-.99a4.2 4.2 0 0 0-5.939 0l-2.97 2.97a4.202 4.202 0 0 0-.82 4.78l.765-.765a3.2 3.2 0 0 1 .762-3.308zM4.967 17.534l2.97-2.97a3.2 3.2 0 0 1 3.308-.762l.765-.766a4.202 4.202 0 0 0-4.78.821l-2.97 2.97a4.2 4.2 0 0 0 0 5.94l.99.99a4.2 4.2 0 0 0 5.94 0l2.97-2.97a4.202 4.202 0 0 0 .82-4.781l-.766.765a3.2 3.2 0 0 1-.762 3.309l-2.97 2.97a3.2 3.2 0 0 1-4.525 0l-.99-.99a3.2 3.2 0 0 1 0-4.526z" fill="#000"/><path d="m9.06 19.648 10.89-10.89-.708-.707-10.89 10.89.708.707z" fill="#000"/></svg>