<svg width="28" height="28" viewBox="0 0 28 28" fill="none" xmlns="http://www.w3.org/2000/svg">
<path fill-rule="evenodd" clip-rule="evenodd" d="M22.7106 10.4179C23.3046 11.012 23.3046 11.988 22.7106 12.5821L19.9997 15.293L13.7068 9.00007L16.4606 6.24635C17.0379 5.66903 17.9617 5.66904 18.539 6.24636L22.7106 10.4179ZM12.9997 9.70718L19.2926 16.0001L14.2976 20.995H8.99978L8.70179 20.995L6.2889 18.5821C5.69485 17.9881 5.69485 17.012 6.28891 16.4179L12.9997 9.70718ZM14.7018 22.005L14.7018 22.005H14.4997L8.4997 22.005H8.29762L8.15329 21.8607L5.59608 19.3035C4.60599 18.3134 4.60599 16.6866 5.59608 15.6965L15.7677 5.52496C16.7299 4.56276 18.2697 4.56277 19.2318 5.52497L23.4034 9.69653C24.3935 10.6866 24.3935 12.3134 23.4034 13.3035L15.7119 20.995H21.9998V22.005L14.7018 22.005Z" fill="black"/>
</svg>
