<svg xmlns="http://www.w3.org/2000/svg" width="28" height="28" fill="none" viewBox="0 0 28 28">
  <path fill="#000" fill-rule="evenodd" d="M8.606 4.653a5.618 5.618 0 0 0-.639-.766c-.174-.166-.406-.347-.68-.381a.694.694 0 0 0-.475.11.789.789 0 0 0-.274.326c-.097.207-.127.462-.135.7-.03.96.301 2.707.76 4.643.106.447.22.907.34 1.375a23.493 23.493 0 0 1-1.252 2.58 39.845 39.845 0 0 1-2.437 3.802 41.822 41.822 0 0 1-1.18 1.56l-.016.02-.004.005-.001.001a.5.5 0 1 0 .775.633l.006-.008.018-.023.07-.086.256-.326c.219-.283.527-.69.888-1.192a40.84 40.84 0 0 0 2.498-3.9c.274-.492.54-1 .785-1.515.171.633.347 1.267.523 1.888a6.026 6.026 0 0 0-.412.676c-.688 1.308-1.086 3.155-.607 5.182.216.97.675 1.943 1.196 2.736.51.778 1.126 1.452 1.693 1.755.275.147.664.271 1.037.093.385-.184.537-.583.586-.961.1-.757-.126-2.018-.75-3.893a147.78 147.78 0 0 1-1.64-5.37c.11-.122.219-.227.325-.313.322-.261.53-.29.608-.276.053.02.125.076.209.254.09.192.15.432.22.714l.005.02c.034.136.072.284.117.42.043.131.104.286.198.42a.81.81 0 0 0 .502.345.904.904 0 0 0 .615-.114 1.01 1.01 0 0 0 .389-.381c.084-.138.147-.295.199-.445.074-.219.142-.484.207-.743l.067-.258c.093-.352.193-.688.328-.978.095-.205.2-.37.317-.496l.01.038c.023.088.043.176.066.274.01.047.021.096.034.148.035.15.077.32.135.474.055.146.144.338.304.483.19.173.445.249.72.184.233-.055.443-.203.63-.375a.5.5 0 0 0-.68-.735l-.053.048a3.51 3.51 0 0 1-.083-.307l-.028-.121a9.847 9.847 0 0 0-.078-.328 2.147 2.147 0 0 0-.174-.471c-.079-.145-.233-.358-.513-.43-.286-.072-.539.042-.718.167l-.007.005c-.37.27-.615.646-.79 1.02a6.9 6.9 0 0 0-.387 1.145l-.079.305c-.062.243-.114.45-.175.628a2.28 2.28 0 0 1-.034.095 7.649 7.649 0 0 1-.068-.26l-.014-.052c-.062-.253-.144-.58-.277-.863-.144-.309-.392-.658-.838-.792l-.011-.003-.012-.003c-.53-.133-1.069.125-1.49.467l-.005.003c-.232-.832-.461-1.678-.675-2.505.225-.588.413-1.175.547-1.75.364-1.557.358-3.12-.49-4.319l-.002-.003ZM3 18.945l.388.316L3 18.945ZM8.124 8.748l-.03.126c-.429-1.83-.7-3.337-.692-4.134.108.121.238.283.391.495.601.851.67 2.062.331 3.513Zm.263 10.982c-.398-1.678-.104-3.203.426-4.307.576 1.968 1.11 3.673 1.413 4.58.624 1.875.774 2.94.708 3.447a.774.774 0 0 1-.038.17.69.69 0 0 1-.123-.054c-.345-.184-.849-.691-1.328-1.422-.47-.716-.873-1.58-1.057-2.408l-.001-.006ZM26.03 7.317l-3.464-2-7.79 13.494-1.268 6.196 4.732-4.196 5.29-9.164.866.5-2.5 4.33.866.5 3-5.196-1.732-1 2-3.464Zm-1.366.366-1.5 2.598-1.732-1 1.5-2.598 1.732 1Zm-2 3.464-1.732-1-5 8.66 1.732 1 5-8.66ZM15.09 22.268l.51-2.498 1.397.806-1.907 1.692Z" clip-rule="evenodd"/>
</svg>
