<svg width="28" height="28" viewBox="0 0 28 28" fill="none" xmlns="http://www.w3.org/2000/svg">
<path fill-rule="evenodd" clip-rule="evenodd" d="M9.8233 12.5L4.18996 19H13V16C13 15.4477 13.4477 15 14 15H20.4266L22.2599 12.5L17.4933 6H4.18996L9.8233 12.5ZM2 5H18L23.5 12.5L21.6667 15H24C24.5523 15 25 15.4477 25 16V23C25 23.5523 24.5523 24 24 24H14C13.4477 24 13 23.5523 13 23V20H2L8.5 12.5L2 5ZM14 16V19V20H15V19H16V20H17V19H23V18H17V17H23L24 16H14ZM23 18V17L24 16V23H14V20H23V19V18ZM16 17H15V18H16V17ZM16 21H15V22H16V21ZM23 21V22H17V21H23Z" fill="black"/>
</svg>
