<svg width="28" height="28" viewBox="0 0 28 28" fill="none" xmlns="http://www.w3.org/2000/svg">
<path d="M9 15L9 13L17 13L17 10L19 10L19 18L17 18L17 15L9 15Z" fill="black"/>
<rect x="23.5" y="3.5" width="2" height="2" transform="rotate(90 23.5 3.5)" stroke="black"/>
<rect x="6.5" y="3.5" width="2" height="2" transform="rotate(90 6.5 3.5)" stroke="black"/>
<rect x="6.5" y="22.5" width="2" height="2" transform="rotate(90 6.5 22.5)" stroke="black"/>
<rect x="23.5" y="22.5" width="2" height="2" transform="rotate(90 23.5 22.5)" stroke="black"/>
<rect x="7" y="4" width="14" height="1" fill="black"/>
<rect x="23" y="6" width="16" height="0.999999" transform="rotate(90 23 6)" fill="black"/>
<rect x="7" y="23" width="14" height="1" fill="black"/>
<rect x="6" y="6" width="16" height="0.999999" transform="rotate(90 6 6)" fill="black"/>
</svg>
