<svg xmlns="http://www.w3.org/2000/svg" width="28" height="28" fill="none" viewBox="0 0 28 28">
  <path fill="#000" fill-rule="evenodd" d="M4 19V4h6v4a1 1 0 0 0 1 1h4v2h1V8.414a1 1 0 0 0-.293-.707l-4.414-4.414A1 1 0 0 0 10.586 3H4a1 1 0 0 0-1 1v15a1 1 0 0 0 1 1h3v-1H4Zm7-14v-.586L14.586 8H11V5Zm-2 8v11h15v-6h-4a1 1 0 0 1-1-1v-4H9Zm11 .414L23.586 17H20v-3.586ZM9 12a1 1 0 0 0-1 1v11a1 1 0 0 0 1 1h15a1 1 0 0 0 1-1v-6.586a1 1 0 0 0-.293-.707l-4.414-4.414a1 1 0 0 0-.707-.293H9Z" clip-rule="evenodd"/>
</svg>
