<svg xmlns="http://www.w3.org/2000/svg" width="28" height="28" fill="none" viewBox="0 0 28 28">
  <path fill="#000" fill-rule="evenodd" d="M10.325 17a1 1 0 0 1 .624.22L15 20.46V7.54l-4.05 3.24a1 1 0 0 1-.625.22H6v6h4.325Zm0 1H5.5a.5.5 0 0 1-.5-.5v-7a.5.5 0 0 1 .5-.5h4.825l4.863-3.89A.5.5 0 0 1 16 6.5v15a.5.5 0 0 1-.812.39L10.325 18Zm7.912-7.925a.5.5 0 0 1 .688.162A7.099 7.099 0 0 1 20 14c0 1.378-.417 2.68-1.073 3.76a.5.5 0 1 1-.854-.52c.57-.94.927-2.063.927-3.24a6.1 6.1 0 0 0-.925-3.237.5.5 0 0 1 .162-.688Zm1.633-3.911a.5.5 0 0 0-.74.672C20.932 8.818 22 11.293 22 14c0 2.686-1.088 5.188-2.871 7.165a.5.5 0 0 0 .742.67C21.798 19.698 23 16.964 23 14c0-2.982-1.18-5.691-3.13-7.836Z" clip-rule="evenodd"/>
</svg>
