<svg xmlns="http://www.w3.org/2000/svg" width="28" height="28" fill="none" viewBox="0 0 28 28">
    <path fill="#000" d="M20.69 14a7 7 0 0 0-.038-.84l-.085-.585 2.256-1.716-1.625-2.731-2.175.842-.516.2-.443-.331a7 7 0 0 0-1.513-.862l-.526-.217L15.62 5h-3.24l-.405 2.771-.541.212c-.377.148-.88.427-1.522.874l-.437.305-2.672-1.034-1.625 2.731 2.257 1.716-.085.584a7 7 0 0 0-.04.841c0 .427.017.696.038.84l.085.585-2.257 1.715 1.625 2.731 2.176-.84.515-.2.444.33q.54.404 1.12.687l.392.175.527.217.403 2.76h3.242l.406-2.771.54-.212c.378-.148.881-.427 1.522-.874l.438-.305.496.192 2.175.841 1.625-2.731-2.256-1.715.085-.584A7 7 0 0 0 20.69 14m.987.575a5 5 0 0 1-.035.411l2.162 1.643q.336.234.096.657l-2.067 3.475q-.168.287-.52.216l-.104-.029-2.548-.985q-1.008.704-1.73.985l-.384 2.63q-.096.421-.48.422h-4.133l-.092-.007q-.261-.04-.36-.316l-.029-.1-.384-2.629a8 8 0 0 1-1.73-.985l-2.548.985q-.432.141-.624-.187l-2.066-3.475q-.24-.422.095-.657l2.163-1.643A7 7 0 0 1 6.31 14q0-.657.048-.986L4.196 11.37q-.294-.205-.147-.555l.052-.102 2.066-3.475q.192-.328.624-.187l2.548.985q1.01-.704 1.73-.985l.384-2.63q.084-.369.389-.415L11.934 4h4.133q.384 0 .48.423l.385 2.629q.912.375 1.73.985l2.547-.985q.432-.141.624.187l2.067 3.475q.24.422-.096.657l-2.162 1.643q.048.329.048.986z"/>
    <path fill="#000" d="M16 14a2 2 0 1 0-4 0 2 2 0 0 0 4 0m1 0a3 3 0 1 1-6 0 3 3 0 0 1 6 0"/>
</svg>
