<svg xmlns="http://www.w3.org/2000/svg" width="28" height="28" viewBox="0 0 28 28" stroke="currentColor" stroke-linecap="round" stroke-linejoin="round" fill="none">
    <path d="M23.5 14a9.5 9.5 0 0 1-14.483 8.09.151.151 0 0 0-.126-.015l-3.923 1.273a.25.25 0 0 1-.314-.316l1.281-3.906a.151.151 0 0 0-.015-.127A9.5 9.5 0 1 1 23.5 14Z" class="icon-gray-primary"/>
    <path d="M11 14a1 1 0 1 1-2 0 1 1 0 0 1 2 0Zm4 0a1 1 0 1 1-2 0 1 1 0 0 1 2 0Zm4 0a1 1 0 1 1-2 0 1 1 0 0 1 2 0Z" class="icon-blue-primary"/>
</svg>
