<svg xmlns="http://www.w3.org/2000/svg" width="28" height="28" fill="none" viewBox="0 0 28 28">
  <path fill="#000" fill-rule="evenodd" d="M17 9c0 6.627-5.372 12-12 12h-.142A9.968 9.968 0 0 0 12 24c5.523 0 10-4.477 10-10 0-3.98-2.325-7.418-5.693-9.028C16.757 6.232 17 7.588 17 9Zm-1 0c0 6.075-4.925 11-11 11-.414 0-.822-.023-1.224-.067-.438-.049-.763.427-.493.777A10.982 10.982 0 0 0 12 25c6.075 0 11-4.925 11-11 0-4.845-3.131-8.958-7.48-10.425-.419-.141-.763.32-.575.719A10.956 10.956 0 0 1 16 9Z" clip-rule="evenodd"/>
</svg>
