<svg xmlns="http://www.w3.org/2000/svg" width="28" height="28" fill="none" viewBox="0 0 28 28">
  <path fill="#000" fill-rule="evenodd" d="M10 18h1V5.994h4V5H6v1l4-.006V18Zm10.139-1.688.22 1.512H21V11.47c0-1.155-.26-2.004-.782-2.55-.516-.544-1.298-.816-2.347-.816-1.025 0-2.062.246-3.111.738l.325.756c.95-.493 1.866-.739 2.75-.739.821 0 1.416.232 1.785.695.37.463.554 1.148.554 2.056v.633l-1.82.053c-1.47.03-2.595.302-3.374.817-.774.516-1.16 1.24-1.16 2.171 0 .85.26 1.515.782 1.995.521.48 1.25.721 2.188.721.691 0 1.29-.126 1.793-.378.51-.258 1.005-.694 1.485-1.31h.07Zm-.888.027c-.586.58-1.389.87-2.408.87-.668 0-1.187-.164-1.556-.492-.363-.334-.545-.8-.545-1.398 0-.75.284-1.3.853-1.652.574-.357 1.532-.568 2.874-.633l1.67-.07v.94c0 1.037-.296 1.849-.888 2.435ZM7.424 24.265C8.186 23.045 10.207 21 14 21c3.793 0 5.814 2.046 6.576 3.265l.848-.53C20.519 22.288 18.207 20 14 20c-4.207 0-6.52 2.288-7.424 3.735l.848.53Z" clip-rule="evenodd"/>
</svg>
