<svg width="28" height="28" viewBox="0 0 28 28" fill="none" xmlns="http://www.w3.org/2000/svg">
    <path opacity=".4" d="M11 18a7 7 0 0 0 6.938-7.938A7.001 7.001 0 0 1 17 24a7 7 0 0 1-6.938-6.062q.46.061.938.062m-.938-.062A7.001 7.001 0 0 1 11 4c3.548 0 6.48 2.64 6.938 6.062a7 7 0 0 0-7.875 7.875" fill="#000"/>
    <path d="M11 4c3.548 0 6.48 2.64 6.938 6.062A7.001 7.001 0 0 1 17 24a7 7 0 0 1-6.938-6.062A7.001 7.001 0 0 1 11 4m6 7a6 6 0 0 0-6 6 6 6 0 0 0 6-6m-7 5.917A7 7 0 0 1 16.918 10 6.002 6.002 0 0 0 5 11a6 6 0 0 0 5 5.917M23 17a6 6 0 0 0-5-5.917A7 7 0 0 1 11.083 18 6.002 6.002 0 0 0 23 17" fill="#000"/>
</svg>
