<svg xmlns="http://www.w3.org/2000/svg" width="28" height="28" fill="none" viewBox="0 0 28 28">
  <path fill="#000" fill-rule="evenodd" d="M6 4H5v1H4a1 1 0 0 0-1 1v11a1 1 0 0 0 1 1h7v-1H4V6h1v1h1V6h2v1h1V6h3v1h1V6h2v1h1V6h1v4h1V6a1 1 0 0 0-1-1h-1V4h-1v1h-2V4h-1v1H9V4H8v1H6V4ZM5 8h1v1H5V8Zm2 0h1v1H7V8Zm3 0H9v1h1V8Zm1 0h1v1h-1V8Zm3 0h-1v1h1V8Zm1 0h1v1h-1V8Zm-9 2H5v1h1v-1Zm1 0h1v1H7v-1Zm3 0H9v1h1v-1Zm1 0h1v1h-1v-1Zm3 0h-1v1h1v-1Zm1 0h1v1h-1v-1Zm-9 2H5v1h1v-1Zm1 0h1v1H7v-1Zm3 0H9v1h1v-1Zm1 0h1v1h-1v-1Zm-5 2H5v1h1v-1Zm1 0h1v1H7v-1Zm17 3.5a5.5 5.5 0 1 1-11 0 5.5 5.5 0 0 1 11 0Zm1 0a6.5 6.5 0 1 1-13 0 6.5 6.5 0 0 1 13 0Zm-6 .5h2v-1h-2v-4h-1v5h1Z" clip-rule="evenodd"/>
</svg>
