<svg xmlns="http://www.w3.org/2000/svg" width="28" height="28" fill="none" viewBox="0 0 28 28">
  <path fill="#000" fill-rule="evenodd" d="M2 14h4.014a8.63 8.63 0 0 0 0 1H2v-1Zm6.853-5.854a8.734 8.734 0 0 0-.707.707L5.308 6.015l.707-.707 2.838 2.838ZM14.5 6a8.64 8.64 0 0 0-.5.014V2h1v4.014A8.63 8.63 0 0 0 14.5 6Zm6.354 2.853a8.549 8.549 0 0 0-.707-.707l2.838-2.838.707.707-2.838 2.838ZM23 14.5a8.63 8.63 0 0 0-.015-.5H27v1h-4.015a8.63 8.63 0 0 0 .015-.5Zm-2.854 6.354c.25-.222.486-.458.708-.707l2.838 2.838-.707.707-2.838-2.838ZM14.5 23c.168 0 .335-.005.5-.015V27h-1v-4.015c.165.01.332.015.5.015Zm-6.354-2.854c.222.25.458.486.707.708l-2.838 2.838-.707-.707 2.838-2.838ZM21 14.5a6.5 6.5 0 1 1-13 0 6.5 6.5 0 0 1 13 0Zm1 0a7.5 7.5 0 1 1-15 0 7.5 7.5 0 0 1 15 0Z" clip-rule="evenodd"/>
</svg>
