<svg xmlns="http://www.w3.org/2000/svg" width="24" height="24" viewBox="0 0 24 24"><path fill-rule="evenodd" clip-rule="evenodd" d="M7 1V3.5C7 3.77614 6.77614 4 6.5 4H4V3H6V1H7ZM17 3.5V1H18V3H20V4H17.5C17.2239 4 17 3.77614 17 3.5ZM17 20.5V23H18V21H20V20H17.5C17.2239 20 17 20.2239 17 20.5ZM7 20.5V23H6V21H4V20H6.5C6.77614 20 7 20.2239 7 20.5ZM16 6H8C7.44772 6 7 6.44772 7 7V17C7 17.5523 7.44772 18 8 18H16C16.5523 18 17 17.5523 17 17V7C17 6.44772 16.5523 6 16 6ZM8 5C6.89543 5 6 5.89543 6 7V17C6 18.1046 6.89543 19 8 19H16C17.1046 19 18 18.1046 18 17V7C18 5.89543 17.1046 5 16 5H8ZM9 8.5C9 8.22386 9.22386 8 9.5 8H14.5C14.7761 8 15 8.22386 15 8.5C15 8.77614 14.7761 9 14.5 9H9.5C9.22386 9 9 8.77614 9 8.5ZM9.5 11C9.22386 11 9 11.2239 9 11.5C9 11.7761 9.22386 12 9.5 12H14.5C14.7761 12 15 11.7761 15 11.5C15 11.2239 14.7761 11 14.5 11H9.5ZM9 14.5C9 14.2239 9.22386 14 9.5 14H14.5C14.7761 14 15 14.2239 15 14.5C15 14.7761 14.7761 15 14.5 15H9.5C9.22386 15 9 14.7761 9 14.5Z" /></svg>