<svg width="24" height="24" viewBox="0 0 24 24" xmlns="http://www.w3.org/2000/svg">
<path d="M8.0061 11.749C6.21118 11.749 4.7561 13.2041 4.7561 14.999V15.9189C4.16518 16.1999 3.7561 16.8012 3.7561 17.499V21.499C3.7561 22.4655 4.53961 23.249 5.5061 23.249H10.5061C11.4726 23.249 12.2561 22.4655 12.2561 21.499V17.499C12.2561 16.8012 11.847 16.1999 11.2561 15.9189V14.999C11.2561 13.2041 9.80103 11.749 8.0061 11.749ZM10.5061 17.249C10.6442 17.249 10.7561 17.361 10.7561 17.499V21.499C10.7561 21.6371 10.6442 21.749 10.5061 21.749H5.5061C5.36803 21.749 5.2561 21.6371 5.2561 21.499V17.499C5.2561 17.361 5.36803 17.249 5.5061 17.249H10.5061ZM8.0061 13.249C8.9726 13.249 9.7561 14.0325 9.7561 14.999V15.749H6.2561V14.999C6.2561 14.0325 7.03961 13.249 8.0061 13.249Z" fill="#446ECA"/>
<path d="M15.4561 1.74951C15.6556 1.74951 15.8475 1.82874 15.9883 1.97021L20.96 6.97021L21.0518 7.0835C21.1325 7.20461 21.1769 7.34797 21.1777 7.49561L21.25 20.4897C21.2552 21.4597 20.471 22.2493 19.501 22.2495H14.5059C14.0919 22.2493 13.756 21.9135 13.7559 21.4995C13.7559 21.0854 14.0918 20.7497 14.5059 20.7495H19.501C19.6391 20.7493 19.7513 20.6367 19.751 20.4985L19.6816 8.24951H15.5566C15.0875 8.24945 14.7064 7.86898 14.7061 7.3999V3.24951H7.50586C7.36785 3.24959 7.25586 3.36149 7.25586 3.49951V9.49951C7.25569 9.91357 6.91996 10.2495 6.50586 10.2495C6.09192 10.2493 5.75604 9.91346 5.75586 9.49951V3.49951C5.75586 2.53307 6.53942 1.74959 7.50586 1.74951H15.4561ZM16.2061 6.74951H18.624L16.2061 4.31689V6.74951Z" fill="#444444"/>
</svg>
