<svg width="24" height="24" viewBox="0 0 24 24" xmlns="http://www.w3.org/2000/svg">
<path fill-rule="evenodd" clip-rule="evenodd" d="M7.75 6.74935C8.16421 6.74935 8.5 7.08514 8.5 7.49935C8.49982 7.91342 8.1641 8.24935 7.75 8.24935H5.75C5.61193 8.24935 5.5 8.36128 5.5 8.49935V19.4994C5.50018 19.6373 5.61204 19.7494 5.75 19.7494H17.75C17.888 19.7494 17.9998 19.6373 18 19.4994V8.49935C18 8.36128 17.8881 8.24935 17.75 8.24935H15.75C15.3359 8.24935 15.0002 7.91342 15 7.49935C15 7.08514 15.3358 6.74935 15.75 6.74935H17.75C18.7165 6.74935 19.5 7.53286 19.5 8.49935V19.4994C19.4998 20.4657 18.7164 21.2494 17.75 21.2494H5.75C4.78361 21.2494 4.00018 20.4657 4 19.4994V8.49935C4 7.53286 4.7835 6.74935 5.75 6.74935H7.75ZM11.2197 0.969081C11.5126 0.676255 11.9874 0.676389 12.2803 0.969081L15.2803 3.96908C15.5729 4.262 15.5731 4.73683 15.2803 5.02963C14.9875 5.32222 14.5126 5.32217 14.2197 5.02963L12.5 3.3099V13.4994C12.4998 13.9133 12.164 14.2493 11.75 14.2494C11.336 14.2492 11.0002 13.9133 11 13.4994V3.3099L9.28027 5.02963C8.98746 5.32222 8.51258 5.32217 8.21973 5.02963C7.9271 4.73679 7.9271 4.26192 8.21973 3.96908L11.2197 0.969081Z" fill="#444444"/>
</svg>
