<svg xmlns="http://www.w3.org/2000/svg" width="24" height="24" viewBox="0 0 24 24"><path fill-rule="evenodd" clip-rule="evenodd" d="M11.9993 3.60374L9.86591 8.73314C9.6499 9.25249 9.16149 9.60734 8.6008 9.65229L3.06318 10.0962L7.28226 13.7103C7.70944 14.0763 7.896 14.6504 7.76549 15.1976L6.47649 20.6013L11.2175 17.7056C11.6975 17.4124 12.3012 17.4124 12.7812 17.7056L17.5222 20.6013L16.2332 15.1976C16.1027 14.6504 16.2892 14.0763 16.7164 13.7103L20.9355 10.0962L15.3979 9.65229C14.8372 9.60734 14.3488 9.25249 14.1328 8.73314L11.9993 3.60374ZM12.461 2.10974C12.2902 1.6991 11.7085 1.6991 11.5377 2.10974L8.94259 8.34911C8.87059 8.52222 8.70778 8.64051 8.52089 8.65549L1.78497 9.19551C1.34164 9.23105 1.16188 9.7843 1.49965 10.0736L6.63171 14.4698C6.7741 14.5918 6.83629 14.7832 6.79278 14.9655L5.22486 21.5386C5.12166 21.9713 5.59229 22.3132 5.97184 22.0814L11.7387 18.559C11.8987 18.4612 12.1 18.4612 12.26 18.559L18.0269 22.0814C18.4064 22.3132 18.877 21.9713 18.7738 21.5386L17.2059 14.9655C17.1624 14.7832 17.2246 14.5918 17.367 14.4698L22.499 10.0736C22.8368 9.7843 22.6571 9.23105 22.2137 9.19551L15.4778 8.65549C15.2909 8.64051 15.1281 8.52222 15.0561 8.34911L12.461 2.10974Z" /></svg>