<svg xmlns="http://www.w3.org/2000/svg" width="24" height="24" viewBox="0 0 24 24"><path fill-rule="evenodd" clip-rule="evenodd" d="M9 1L3 7V22H10V21H4V8H10V2H19V10H20V1H9ZM4.41422 7L9 2.41422V7H4.41422Z"/><g clip-path="url(#clip0_205_12376)"><path fill-rule="evenodd" clip-rule="evenodd" d="M14.5002 15.5V15.5003C14.5001 15.6797 14.5002 15.8457 14.5008 16H14.5V17H13.5V16H13.5007C13.5001 15.8416 13.5001 15.675 13.5002 15.5C13.5002 13.567 15.0672 12 17.0002 12C18.9332 12 20.5002 13.567 20.5002 15.5C20.5002 15.675 20.5002 15.8416 20.4995 16H20.5V17H19.5V16H19.4994C19.5001 15.8457 19.5002 15.6795 19.5002 15.5C19.5002 14.1193 18.3809 13 17.0002 13C15.6195 13 14.5002 14.1193 14.5002 15.5ZM13.5 18H20.5C20.5 18 21 18 21 18.5V22.5C21 23 20.5 23 20.5 23H13.5C13.5 23 13 23 13 22.5V18.5C13 18 13.5 18 13.5 18ZM12 18C12 17 13 17 13 17H21C21 17 22 17 22 18V22.6667C22 23.3111 21.6443 24 21 24H13C13 24 12 24 12 23V18ZM17.5833 20.4023C17.7623 20.2421 17.875 20.0092 17.875 19.7501C17.875 19.2668 17.4832 18.8751 17 18.8751C16.5168 18.8751 16.125 19.2668 16.125 19.7501C16.125 20.0092 16.2377 20.2421 16.4167 20.4023V22.0834H17.5833V20.4023Z"/></g><defs><clipPath id="clip0_205_12376"><rect width="12" height="12" transform="translate(11 12)"/></clipPath></defs></svg>