<svg width="24" height="24" viewBox="0 0 24 24" xmlns="http://www.w3.org/2000/svg">
<path d="M22.2832 21.3291C22.6973 21.3291 23.0331 21.665 23.0332 22.0791C23.0332 22.4933 22.6974 22.8291 22.2832 22.8291H1.75C1.33579 22.8291 1 22.4933 1 22.0791C1.00007 21.6649 1.33583 21.3291 1.75 21.3291H22.2832ZM22.2832 18.3955C22.6973 18.3955 23.033 18.7315 23.0332 19.1455C23.0332 19.5597 22.6974 19.8955 22.2832 19.8955H1.75C1.33579 19.8955 1 19.5597 1 19.1455C1.00021 18.7315 1.33592 18.3955 1.75 18.3955H22.2832ZM22.2832 3.72949C22.6974 3.72953 23.0332 4.0653 23.0332 4.47949C23.0331 4.89356 22.6973 5.22946 22.2832 5.22949H1.75C1.33587 5.22949 1.00014 4.89359 1 4.47949C1 4.06528 1.33579 3.72949 1.75 3.72949H22.2832ZM22.2832 0.795898C22.6974 0.795934 23.0332 1.13171 23.0332 1.5459C23.0332 1.96009 22.6974 2.29586 22.2832 2.2959H1.75C1.33579 2.2959 1 1.96011 1 1.5459C1 1.13168 1.33579 0.795898 1.75 0.795898H22.2832Z" fill="#444444"/>
<path d="M16 6.7959C16.5523 6.7959 17 7.24361 17 7.7959V15.7959C17 16.3482 16.5523 16.7959 16 16.7959H8C7.44772 16.7959 7 16.3482 7 15.7959V7.7959C7 7.24361 7.44772 6.7959 8 6.7959H16Z" fill="#446ECA"/>
</svg>
