<svg xmlns="http://www.w3.org/2000/svg" width="24" height="24" viewBox="0 0 24 24"><path fill-rule="evenodd" clip-rule="evenodd" d="M17.6475 4.08287C16.1841 2.63905 13.8115 2.63904 12.3481 4.08287L3.09754 13.2097C1.63415 14.6536 1.63415 16.9945 3.09754 18.4383L5.47447 20.7834L5.69398 21L6.00441 21H12L12.3104 21L20.2439 21V19.5211H13.8093L20.9025 12.5229C22.3658 11.079 22.3658 8.73813 20.9025 7.29431L17.6475 4.08287ZM11.6896 19.5211L16.9357 14.3451L10.5011 7.99658L4.15742 14.2554C3.27939 15.1217 3.27939 16.5263 4.15742 17.3926L6.31485 19.5211L11.6896 19.5211ZM11.561 6.95087L17.9956 13.2994L19.8426 11.4771C20.7206 10.6108 20.7206 9.20631 19.8426 8.34002L16.5876 5.12858C15.7096 4.26228 14.286 4.26228 13.408 5.12857L11.561 6.95087Z"/></svg>