<svg xmlns="http://www.w3.org/2000/svg" width="24" height="24" viewBox="0 0 24 24"><path fill-rule="evenodd" clip-rule="evenodd" d="M3 5C3 3.89543 3.89543 3 5 3H15.3787C15.9091 3 16.4178 3.21071 16.7929 3.58579L20.4142 7.20711C20.7893 7.58218 21 8.09089 21 8.62132V19C21 20.1046 20.1046 21 19 21H5C3.89543 21 3 20.1046 3 19V5ZM5 4C4.44772 4 4 4.44772 4 5V19C4 19.5523 4.44772 20 5 20H6V14C6 12.8954 6.89543 12 8 12H16C17.1046 12 18 12.8954 18 14V20H19C19.5523 20 20 19.5523 20 19V8.62132C20 8.3561 19.8946 8.10175 19.7071 7.91421L15.7929 4H15V7C15 7.55228 14.5523 8 14 8H8C7.44772 8 7 7.55228 7 7V4H5ZM13 4V7H14V4H13ZM17 20V14C17 13.4477 16.5523 13 16 13H8C7.44772 13 7 13.4477 7 14V20H17ZM15 15C15.2761 15 15.5 15.2239 15.5 15.5C15.5 15.7761 15.2761 16 15 16H9C8.72386 16 8.5 15.7761 8.5 15.5C8.5 15.2239 8.72386 15 9 15H15ZM12.5 17.5C12.5 17.7761 12.2761 18 12 18H9C8.72386 18 8.5 17.7761 8.5 17.5C8.5 17.2239 8.72386 17 9 17H12C12.2761 17 12.5 17.2239 12.5 17.5Z"/></svg>