<svg xmlns="http://www.w3.org/2000/svg" width="24" height="24" viewBox="0 0 24 24"><path fill-rule="evenodd" clip-rule="evenodd" d="M22 12C22 17.5228 17.5228 22 12 22C6.47715 22 2 17.5228 2 12C2 6.47715 6.47715 2 12 2C17.5228 2 22 6.47715 22 12ZM12 21C16.9706 21 21 16.9706 21 12C21 7.02944 16.9706 3 12 3C7.02944 3 3 7.02944 3 12C3 16.9706 7.02944 21 12 21Z" /><path d="M16.7555 13.884C16.5938 14.1521 16.2284 14.2075 15.9946 13.9992L12.3326 10.7364C12.143 10.5675 11.857 10.5674 11.6674 10.7364L8.00539 13.9992C7.77164 14.2075 7.40615 14.1521 7.24454 13.884L7.21363 13.8327C7.08968 13.6271 7.12942 13.3623 7.30828 13.2022L11.6664 9.29878C11.8563 9.12871 12.1437 9.12871 12.3336 9.29878L16.6917 13.2022C16.8706 13.3623 16.9103 13.6271 16.7864 13.8327L16.7555 13.884Z" /><path fill-rule="evenodd" clip-rule="evenodd" d="M22 12C22 17.5228 17.5228 22 12 22C6.47715 22 2 17.5228 2 12C2 6.47715 6.47715 2 12 2C17.5228 2 22 6.47715 22 12ZM12 21C16.9706 21 21 16.9706 21 12C21 7.02944 16.9706 3 12 3C7.02944 3 3 7.02944 3 12C3 16.9706 7.02944 21 12 21Z" /><path d="M16.7555 13.884C16.5938 14.1521 16.2284 14.2075 15.9946 13.9992L12.3326 10.7364C12.143 10.5675 11.857 10.5674 11.6674 10.7364L8.00539 13.9992C7.77164 14.2075 7.40615 14.1521 7.24454 13.884L7.21363 13.8327C7.08968 13.6271 7.12942 13.3623 7.30828 13.2022L11.6664 9.29878C11.8563 9.12871 12.1437 9.12871 12.3336 9.29878L16.6917 13.2022C16.8706 13.3623 16.9103 13.6271 16.7864 13.8327L16.7555 13.884Z" /></svg>