<svg width="24" height="24" viewBox="0 0 24 24" xmlns="http://www.w3.org/2000/svg">
<path fill-rule="evenodd" clip-rule="evenodd" d="M7.2373 3.51249C6.55391 2.82917 5.44609 2.82917 4.7627 3.51249L3.17676 5.09842C2.49357 5.78183 2.49348 6.88968 3.17676 7.57303L16.4697 20.866C16.6104 21.0066 16.8011 21.0857 17 21.0857H20C20.4141 21.0857 20.7499 20.7498 20.75 20.3357V17.3357C20.75 17.1369 20.6708 16.9461 20.5303 16.8055L7.2373 3.51249ZM19.25 17.6463V19.5857H17.3105L7.06055 9.33573L9 7.39628L19.25 17.6463ZM5.82324 4.57303C5.92085 4.4755 6.07915 4.4755 6.17676 4.57303L7.93945 6.33573L6 8.27518L4.2373 6.51249C4.13982 6.41492 4.1399 6.25659 4.2373 6.15897L5.82324 4.57303Z" fill="#444444"/>
<path d="M3.25 19.75C2.83579 19.75 2.5 20.0858 2.5 20.5C2.50019 20.914 2.83591 21.25 3.25 21.25H13.25C13.6641 21.25 13.9998 20.914 14 20.5C14 20.0858 13.6642 19.75 13.25 19.75H3.25Z" fill="#444444"/>
</svg>
