<svg width="24" height="24" viewBox="0 0 24 24" xmlns="http://www.w3.org/2000/svg">
<path fill-rule="evenodd" clip-rule="evenodd" d="M10.9786 2.69543C11.3678 1.76677 12.7034 1.76701 13.0929 2.69543L13.129 2.79113L14.9786 8.43957L20.923 8.45324C22.0341 8.45604 22.4953 9.87711 21.5978 10.5323L16.797 14.0362L18.6212 19.6945C18.9622 20.7521 17.7532 21.6307 16.8527 20.9796L12.0353 17.4952L7.21887 20.9796C6.31833 21.63 5.11034 20.752 5.45129 19.6945L7.27453 14.0362L2.47375 10.5323C1.57666 9.87701 2.03853 8.45604 3.14953 8.45324L9.09289 8.43957L10.9435 2.79113L10.9786 2.69543Z" fill="#DCE7FA"/>
<path fill-rule="evenodd" clip-rule="evenodd" d="M10.9786 2.69543C11.3678 1.76677 12.7034 1.76701 13.0929 2.69543L13.129 2.79113L14.9786 8.43957L20.923 8.45324C22.0341 8.45604 22.4953 9.87711 21.5978 10.5323L16.797 14.0362L18.6212 19.6945C18.9622 20.7521 17.7532 21.6307 16.8527 20.9796L12.0353 17.4952L7.21887 20.9796C6.31833 21.63 5.11034 20.752 5.45129 19.6945L7.27453 14.0362L2.47375 10.5323C1.57666 9.87701 2.03853 8.45604 3.14953 8.45324L9.09289 8.43957L10.9435 2.79113L10.9786 2.69543ZM10.4405 9.14757C10.2861 9.61912 9.84595 9.93844 9.34973 9.93957L4.2218 9.95031L8.3634 12.9747C8.76424 13.2673 8.93268 13.7846 8.78039 14.257L7.2052 19.1368L11.3624 16.1329L11.5187 16.0372C11.8434 15.8735 12.228 15.8737 12.5529 16.0372L12.7101 16.1329L16.8654 19.1368L15.2921 14.257C15.14 13.7848 15.3075 13.2673 15.7081 12.9747L19.8497 9.95031L14.7218 9.93957C14.2259 9.93819 13.7864 9.61886 13.632 9.14757L12.0353 4.27355L10.4405 9.14757Z" fill="#446ECA"/>
</svg>
