<svg width="24" height="24" viewBox="0 0 24 24" xmlns="http://www.w3.org/2000/svg">
<path d="M13.6611 3.06045C14.6374 2.08439 16.2201 2.0843 17.1963 3.06045L22.9395 8.80362C23.9156 9.77986 23.9155 11.3625 22.9395 12.3388L13.7783 21.4999H21.1426V22.4999H4.95314L4.81056 22.3739L1.25294 19.2118C0.177847 18.2562 0.129373 16.5922 1.1465 15.5751L13.6611 3.06045ZM1.85353 16.2821C1.24326 16.8924 1.27292 17.8904 1.91798 18.4638L5.33302 21.4999H12.3643L18.1504 15.7138L10.2861 7.84951L1.85353 16.2821ZM16.4893 3.76748C15.9036 3.18185 14.954 3.18194 14.3682 3.76748L10.9932 7.14248L18.8574 15.0067L22.2324 11.6317C22.818 11.046 22.8181 10.0964 22.2324 9.51065L16.4893 3.76748Z"/>
</svg>
