<svg xmlns="http://www.w3.org/2000/svg" width="24" height="24" viewBox="0 0 24 24"><path fill-rule="evenodd" clip-rule="evenodd" d="M11.9995 2C15.3132 2 17.9995 4.68629 17.9995 8V10H18.9995C20.1041 10 20.9995 10.8954 20.9995 12V20C20.9995 21.1046 20.1041 22 18.9995 22H4.99951C3.89494 22 2.99951 21.1046 2.99951 20V12C2.99951 10.8954 3.89494 10 4.99951 10H5.99951V8C5.99951 4.68629 8.6858 2 11.9995 2ZM16.9995 10V8C16.9995 5.23858 14.7609 3 11.9995 3C9.23809 3 6.99951 5.23858 6.99951 8V10H16.9995ZM3.99951 12C3.99951 11.4477 4.44723 11 4.99951 11H18.9995C19.5518 11 19.9995 11.4477 19.9995 12V20C19.9995 20.5523 19.5518 21 18.9995 21H4.99951C4.44723 21 3.99951 20.5523 3.99951 20V12Z"/></svg>