<svg width="24" height="24" viewBox="0 0 24 24" xmlns="http://www.w3.org/2000/svg">
<path fill-rule="evenodd" clip-rule="evenodd" d="M12.8846 3.26273C13.568 2.57943 14.6758 2.5794 15.3592 3.26273L20.9491 8.85257C21.6295 9.53311 21.6333 10.6358 20.9569 11.3203L13.118 19.25H19.9999C20.4141 19.25 20.7498 19.5858 20.7499 20C20.7496 20.414 20.4139 20.75 19.9999 20.75H6.58384C6.31666 20.7499 6.06142 20.636 5.88365 20.4366L2.19029 16.2901C1.57352 15.5978 1.60327 14.5435 2.25865 13.8877L12.8846 3.26273ZM3.32017 14.9493C3.2269 15.0429 3.22155 15.1932 3.30943 15.292L6.83579 19.25H11.0096L15.0936 15.1182L9.12193 9.14652L3.32017 14.9493ZM14.2987 4.32328C14.2011 4.22574 14.0428 4.22576 13.9452 4.32328L10.1825 8.08597L16.1473 14.0508L19.8895 10.2657C19.9861 10.1679 19.9857 10.0103 19.8885 9.91312L14.2987 4.32328Z" fill="#444444"/>
</svg>
