<svg width="24" height="24" viewBox="0 0 24 24" xmlns="http://www.w3.org/2000/svg">
<path d="M17 11.749C18.7949 11.749 20.25 13.2041 20.25 14.999V15.9189C20.8409 16.1999 21.25 16.8012 21.25 17.499V21.499C21.25 22.4655 20.4665 23.249 19.5 23.249H14.5C13.5335 23.249 12.75 22.4655 12.75 21.499V17.499C12.75 16.8012 13.1591 16.1999 13.75 15.9189V14.999C13.75 13.2041 15.2051 11.749 17 11.749ZM14.5 17.249C14.3619 17.249 14.25 17.361 14.25 17.499V21.499C14.25 21.6371 14.3619 21.749 14.5 21.749H19.5C19.6381 21.749 19.75 21.6371 19.75 21.499V17.499C19.75 17.361 19.6381 17.249 19.5 17.249H14.5ZM17 13.249C16.0335 13.249 15.25 14.0325 15.25 14.999V15.749H18.75V14.999C18.75 14.0325 17.9665 13.249 17 13.249Z" fill="#446ECA"/>
<path d="M9.55005 1.74951C9.35047 1.74951 9.15858 1.82874 9.01782 1.97021L4.04614 6.97021L3.95435 7.0835C3.87364 7.20461 3.8292 7.34797 3.82837 7.49561L3.7561 20.4897C3.75086 21.4597 4.53514 22.2493 5.50513 22.2495H10.5002C10.9142 22.2493 11.2501 21.9135 11.2502 21.4995C11.2502 21.0854 10.9143 20.7497 10.5002 20.7495H5.50513C5.36698 20.7493 5.25475 20.6367 5.25513 20.4985L5.32446 8.24951H9.44946C9.91862 8.24945 10.2997 7.86898 10.3 7.3999V3.24951H17.5002C17.6383 3.24959 17.7502 3.36149 17.7502 3.49951V9.49951C17.7504 9.91357 18.0861 10.2495 18.5002 10.2495C18.9142 10.2493 19.2501 9.91346 19.2502 9.49951V3.49951C19.2502 2.53307 18.4667 1.74959 17.5002 1.74951H9.55005ZM8.80005 6.74951H6.38208L8.80005 4.31689V6.74951Z" fill="#444444"/>
</svg>
