<svg width="24" height="24" viewBox="0 0 24 24" xmlns="http://www.w3.org/2000/svg">
<path fill-rule="evenodd" clip-rule="evenodd" d="M10.9786 2.69543C11.3678 1.76677 12.7034 1.76701 13.0928 2.69543L13.129 2.79113L14.9786 8.43957L20.9229 8.45324C22.034 8.45604 22.4953 9.87711 21.5977 10.5323L16.7969 14.0362L18.6212 19.6945C18.9621 20.7521 17.7532 21.6307 16.8526 20.9796L12.0352 17.4952L7.21881 20.9796C6.31827 21.63 5.11028 20.752 5.45123 19.6945L7.27447 14.0362L2.47369 10.5323C1.5766 9.87701 2.03847 8.45604 3.14947 8.45324L9.09283 8.43957L10.9434 2.79113L10.9786 2.69543ZM10.4405 9.14757C10.286 9.61912 9.84589 9.93844 9.34967 9.93957L4.22174 9.95031L8.36334 12.9747C8.76418 13.2673 8.93262 13.7846 8.78033 14.257L7.20514 19.1368L11.3624 16.1329L11.5186 16.0372C11.8434 15.8735 12.2279 15.8737 12.5528 16.0372L12.71 16.1329L16.8653 19.1368L15.292 14.257C15.1399 13.7848 15.3075 13.2673 15.7081 12.9747L19.8497 9.95031L14.7217 9.93957C14.2258 9.93819 13.7864 9.61886 13.6319 9.14757L12.0352 4.27355L10.4405 9.14757Z" fill="#444444"/>
</svg>
