<svg xmlns="http://www.w3.org/2000/svg" width="24" height="24" viewBox="0 0 24 24"><path fill-rule="evenodd" clip-rule="evenodd" d="M2 12C2 6.47715 6.47715 2 12 2C17.5228 2 22 6.47715 22 12C22 17.5228 17.5228 22 12 22C6.47715 22 2 17.5228 2 12ZM12 3C7.02944 3 3 7.02944 3 12C3 16.9706 7.02944 21 12 21C16.9706 21 21 16.9706 21 12C21 7.02944 16.9706 3 12 3Z" /><path d="M7.24454 10.116C7.40616 9.84787 7.77164 9.79253 8.0054 10.0008L11.6674 13.2636C11.857 13.4325 12.143 13.4325 12.3326 13.2636L15.9946 10.0008C16.2284 9.79253 16.5938 9.84787 16.7555 10.116L16.7864 10.1673C16.9103 10.3729 16.8706 10.6377 16.6917 10.7978L12.3336 14.7012C12.1437 14.8713 11.8563 14.8713 11.6664 14.7012L7.30828 10.7978C7.12942 10.6377 7.08969 10.3729 7.21364 10.1673L7.24454 10.116Z" /><path fill-rule="evenodd" clip-rule="evenodd" d="M2 12C2 6.47715 6.47715 2 12 2C17.5228 2 22 6.47715 22 12C22 17.5228 17.5228 22 12 22C6.47715 22 2 17.5228 2 12ZM12 3C7.02944 3 3 7.02944 3 12C3 16.9706 7.02944 21 12 21C16.9706 21 21 16.9706 21 12C21 7.02944 16.9706 3 12 3Z" /><path d="M7.24454 10.116C7.40616 9.84787 7.77164 9.79253 8.0054 10.0008L11.6674 13.2636C11.857 13.4325 12.143 13.4325 12.3326 13.2636L15.9946 10.0008C16.2284 9.79253 16.5938 9.84787 16.7555 10.116L16.7864 10.1673C16.9103 10.3729 16.8706 10.6377 16.6917 10.7978L12.3336 14.7012C12.1437 14.8713 11.8563 14.8713 11.6664 14.7012L7.30828 10.7978C7.12942 10.6377 7.08969 10.3729 7.21364 10.1673L7.24454 10.116Z" /></svg>