<svg width="24" height="24" viewBox="0 0 24 24" xmlns="http://www.w3.org/2000/svg">
<path fill-rule="evenodd" clip-rule="evenodd" d="M10.3234 3.26273C9.64004 2.57943 8.53223 2.5794 7.84884 3.26273L2.25899 8.85257C1.57855 9.53311 1.57478 10.6358 2.25118 11.3203L10.09 19.25H3.20821C2.794 19.25 2.45823 19.5858 2.45821 20C2.45845 20.414 2.79416 20.75 3.20821 20.75H16.6242C16.8914 20.7499 17.1466 20.636 17.3244 20.4366L21.0178 16.2901C21.6345 15.5978 21.6048 14.5435 20.9494 13.8877L10.3234 3.26273ZM19.8879 14.9493C19.9812 15.0429 19.9865 15.1932 19.8986 15.292L16.3723 19.25H12.1984L8.11446 15.1182L14.0861 9.14652L19.8879 14.9493ZM8.90938 4.32328C9.00699 4.22574 9.16528 4.22576 9.2629 4.32328L13.0256 8.08597L7.06075 14.0508L3.31856 10.2657C3.22197 10.1679 3.22241 10.0103 3.31954 9.91312L8.90938 4.32328Z" fill="#444444"/>
</svg>
