<svg width="24" height="24" viewBox="0 0 24 24" xmlns="http://www.w3.org/2000/svg">
<path d="M17.5 1.75C18.4665 1.75 19.25 2.5335 19.25 3.5V20.5C19.25 21.4665 18.4665 22.25 17.5 22.25H6.5C5.5335 22.25 4.75 21.4665 4.75 20.5V3.5C4.75 2.5335 5.5335 1.75 6.5 1.75H17.5ZM6.5 3.25C6.36193 3.25 6.25 3.36193 6.25 3.5V20.5C6.25 20.6381 6.36193 20.75 6.5 20.75H17.5C17.6381 20.75 17.75 20.6381 17.75 20.5V3.5C17.75 3.36193 17.6381 3.25 17.5 3.25H6.5ZM14.5 17.75C14.9142 17.75 15.25 18.0858 15.25 18.5C15.25 18.9142 14.9142 19.25 14.5 19.25H9.5C9.08579 19.25 8.75 18.9142 8.75 18.5C8.75 18.0858 9.08579 17.75 9.5 17.75H14.5Z" fill="#444444"/>
</svg>
