<svg width="24" height="24" viewBox="0 0 24 24" xmlns="http://www.w3.org/2000/svg">
<path d="M9.54956 1.74951C9.35218 1.74957 9.16256 1.82753 9.02222 1.96631L3.97241 6.96631C3.83033 7.10714 3.74976 7.29944 3.74976 7.49951V20.4995C3.74993 21.4658 4.53347 22.2494 5.49976 22.2495H17.4998C18.4661 22.2495 19.2496 21.4659 19.2498 20.4995V3.49951C19.2498 2.53301 18.4663 1.74951 17.4998 1.74951H9.54956ZM17.4998 3.24951C17.6378 3.24951 17.7498 3.36144 17.7498 3.49951V20.4995C17.7496 20.6374 17.6377 20.7495 17.4998 20.7495H5.49976C5.3619 20.7494 5.24993 20.6374 5.24976 20.4995V8.24951H9.40112C9.86698 8.24931 10.2459 7.87356 10.2507 7.40771L10.2917 3.24951H17.4998ZM8.75757 6.74951H6.323L8.78198 4.31494L8.75757 6.74951Z" fill="#444444"/>
</svg>
