<svg width="28" height="28" viewBox="0 0 28 28" fill="none" xmlns="http://www.w3.org/2000/svg">
<path fill-rule="evenodd" clip-rule="evenodd" d="M16.8571 8.28641L11.1429 14.0007H9V11.8578L14.7143 6.14355L16.8571 8.28641Z" fill="black"/>
<path fill-rule="evenodd" clip-rule="evenodd" d="M15.4277 5.42857L17.5706 7.57143L18.9992 6.14286V5.42857L17.5706 4H16.8563L15.4277 5.42857Z" fill="black"/>
<path fill-rule="evenodd" clip-rule="evenodd" d="M11 8H6C5.44772 8 5 8.44772 5 9V12V13V16V17V20C5 20.5523 5.44772 21 6 21H14H15H23C23.5523 21 24 20.5523 24 20V17V16V13V12V9C24 8.44772 23.5523 8 23 8H19V9H23V12H19H15H14V13V14V16H6V13H8V12H6V9H8H11V8ZM14 17V20H6V17H14ZM23 13V16H15V13H23ZM15 20V17H23V20H15Z" fill="black"/>
</svg>
