<svg width="28" height="28" viewBox="0 0 28 28" fill="none" xmlns="http://www.w3.org/2000/svg">
<path d="M16.4608 15.6438L16.3028 16.2103H15.0214L14.056 19.9614C13.6288 21.6152 13.1988 22.8941 12.7658 23.7983C12.1514 25.0744 11.4902 25.9557 10.7822 26.4421C10.2439 26.814 9.70561 27 9.16731 27C8.81624 27 8.51783 26.897 8.27208 26.691C8.09069 26.5479 8 26.3619 8 26.133C8 25.9499 8.07607 25.7897 8.2282 25.6524C8.37447 25.5207 8.55586 25.4549 8.77235 25.4549C8.93033 25.4549 9.06491 25.5036 9.17608 25.6009C9.2814 25.6981 9.33406 25.8097 9.33406 25.9356C9.33406 26.0615 9.27263 26.1788 9.14975 26.2876C9.05613 26.3677 9.00933 26.4278 9.00933 26.4678C9.00933 26.5193 9.0298 26.5594 9.07076 26.588C9.12342 26.628 9.20534 26.6481 9.31651 26.6481C9.56811 26.6481 9.83434 26.5708 10.1152 26.4163C10.3902 26.2618 10.6359 26.03 10.8524 25.721C11.0689 25.4177 11.2737 24.9771 11.4668 24.3991C11.5487 24.1588 11.7681 23.3662 12.1251 22.0215L13.6522 16.2103H12.1251L12.2479 15.6438C12.7336 15.6438 13.073 15.6123 13.266 15.5494C13.4591 15.4807 13.6347 15.3548 13.7926 15.1717C13.9565 14.9828 14.1671 14.6338 14.4246 14.1245C14.7698 13.4378 15.1004 12.9056 15.4163 12.5279C15.8493 12.0186 16.3028 11.6381 16.7767 11.3863C17.2565 11.1288 17.7071 11 18.1284 11C18.573 11 18.93 11.1116 19.1991 11.3348C19.4683 11.5522 19.6029 11.7897 19.6029 12.0472C19.6029 12.2475 19.5356 12.4163 19.401 12.5536C19.2664 12.691 19.0938 12.7597 18.8832 12.7597C18.7018 12.7597 18.5526 12.7082 18.4355 12.6052C18.3244 12.5021 18.2688 12.3791 18.2688 12.2361C18.2688 12.1445 18.3068 12.0329 18.3829 11.9013C18.459 11.7639 18.497 11.6724 18.497 11.6266C18.497 11.5465 18.4707 11.4864 18.418 11.4464C18.3419 11.3891 18.2308 11.3605 18.0845 11.3605C17.7159 11.3605 17.3853 11.475 17.0927 11.7039C16.7007 12.0072 16.3496 12.4821 16.0395 13.1288C15.8815 13.4664 15.5919 14.3047 15.1706 15.6438H16.4608Z" fill="black"/>
<path d="M19.2518 15.4378C19.5385 15.7353 19.755 16.0329 19.9013 16.3305C20.0066 16.5365 20.1792 17.0773 20.4191 17.9528L21.1914 16.8197C21.3962 16.5451 21.6449 16.2847 21.9375 16.0386C22.23 15.7868 22.4875 15.6152 22.7098 15.5236C22.8502 15.4664 23.0053 15.4378 23.175 15.4378C23.4266 15.4378 23.6255 15.5036 23.7718 15.6352C23.9239 15.7668 24 15.927 24 16.1159C24 16.3333 23.9561 16.4821 23.8683 16.5622C23.7045 16.7053 23.5173 16.7768 23.3066 16.7768C23.1838 16.7768 23.0521 16.7511 22.9117 16.6996C22.6367 16.608 22.4524 16.5622 22.3587 16.5622C22.2183 16.5622 22.0516 16.6423 21.8585 16.8026C21.4957 17.1001 21.0627 17.6753 20.5595 18.5279L21.2792 21.4807C21.3904 21.9328 21.484 22.2046 21.5601 22.2961C21.6361 22.382 21.7122 22.4249 21.7883 22.4249C21.9111 22.4249 22.0545 22.3591 22.2183 22.2275C22.5401 21.9642 22.8151 21.6209 23.0433 21.1974L23.3505 21.3519C22.9819 22.0272 22.5138 22.588 21.9462 23.0343C21.6244 23.2861 21.3523 23.412 21.13 23.412C20.8023 23.412 20.542 23.2318 20.3489 22.8712C20.226 22.6481 19.9715 21.6867 19.5853 19.9871C18.6725 21.5379 17.9411 22.5365 17.3911 22.9828C17.0342 23.269 16.689 23.412 16.3555 23.412C16.1214 23.412 15.9078 23.329 15.7148 23.1631C15.5743 23.0372 15.5041 22.8684 15.5041 22.6567C15.5041 22.4678 15.5685 22.3104 15.6972 22.1845C15.8259 22.0587 15.9839 21.9957 16.1711 21.9957C16.3584 21.9957 16.5573 22.0873 16.768 22.2704C16.9201 22.402 17.0371 22.4678 17.119 22.4678C17.1892 22.4678 17.2799 22.422 17.3911 22.3305C17.6661 22.113 18.0406 21.6438 18.5145 20.9227C18.9885 20.2017 19.2986 19.681 19.4449 19.3605C19.0821 17.97 18.8861 17.2346 18.8568 17.1545C18.7223 16.7825 18.5467 16.5193 18.3302 16.3648C18.1137 16.2103 17.7948 16.133 17.3736 16.133C17.239 16.133 17.0839 16.1388 16.9084 16.1502V15.8412L19.2518 15.4378Z" fill="black"/>
<path d="M3.86393 8.6929C3.79373 8.62287 3.73066 8.55818 3.67509 8.5C3.73066 8.44182 3.79373 8.37713 3.86393 8.3071C4.18006 7.99174 4.63776 7.57107 5.20223 7.15118C6.34236 6.30306 7.86166 5.5 9.5 5.5C11.1383 5.5 12.6576 6.30306 13.7978 7.15118C14.3622 7.57107 14.8199 7.99174 15.1361 8.3071C15.2063 8.37713 15.2693 8.44183 15.3249 8.5C15.2693 8.55818 15.2063 8.62287 15.1361 8.6929C14.8199 9.00826 14.3622 9.42893 13.7978 9.84882C12.6576 10.6969 11.1383 11.5 9.5 11.5C7.86166 11.5 6.34236 10.6969 5.20223 9.84882C4.63776 9.42893 4.18006 9.00826 3.86393 8.6929Z" stroke="black"/>
<circle cx="9.5" cy="8.5" r="1.5" fill="black"/>
</svg>
