<svg width="28" height="28" viewBox="0 0 28 28" fill="none" xmlns="http://www.w3.org/2000/svg">
<path fill-rule="evenodd" clip-rule="evenodd" d="M18 13C18.5523 13 19 13.4477 19 14L17 14C17 13.4477 17.4477 13 18 13ZM16 14C16 12.8954 16.8954 12 18 12C19.1046 12 20 12.8954 20 14C20.5523 14 21 14.4477 21 15V18C21 18.5523 20.5523 19 20 19H16C15.4477 19 15 18.5523 15 18V15C15 14.4477 15.4477 14 16 14ZM20 15H19H17H16L16 18H20V15Z" fill="black"/>
<path fill-rule="evenodd" clip-rule="evenodd" d="M11 9H17V11H18V9V8H17H11H10H4C3.44772 8 3 8.44772 3 9V12V13V16V17H4H10H11H14V16H11V13H14H15V12H11V9ZM4 9H10V12H4V9ZM4 16V13H10V16H4Z" fill="black"/>
<path opacity="0.4" fill-rule="evenodd" clip-rule="evenodd" d="M24 9H18V11H17V9V8H18H24C24.5523 8 25 8.44772 25 9V12V13V16V17V20C25 20.5523 24.5523 21 24 21H18H17H11H10H4C3.44772 21 3 20.5523 3 20V17V16H4H10H11H14V17H11V20H14H17H18H22H24V17H22V16H24V13H22H21V12H24V9ZM10 17H4V20H10V17Z" fill="black"/>
</svg>
