<svg width="28" height="28" viewBox="0 0 28 28" fill="none" xmlns="http://www.w3.org/2000/svg">
<path fill-rule="evenodd" clip-rule="evenodd" d="M6 4H22V24H6V4ZM5 4C5 3.44772 5.44772 3 6 3H22C22.5523 3 23 3.44772 23 4V24C23 24.5523 22.5523 25 22 25H6C5.44772 25 5 24.5523 5 24V4ZM8 7H20V9H8V7ZM7 7C7 6.44772 7.44772 6 8 6H20C20.5523 6 21 6.44772 21 7V9C21 9.55228 20.5523 10 20 10H8C7.44772 10 7 9.55228 7 9V7ZM10 13H8V14H10V13ZM8 12C7.44772 12 7 12.4477 7 13V14C7 14.5523 7.44772 15 8 15H10C10.5523 15 11 14.5523 11 14V13C11 12.4477 10.5523 12 10 12H8ZM13 13H15V14H13V13ZM12 13C12 12.4477 12.4477 12 13 12H15C15.5523 12 16 12.4477 16 13V14C16 14.5523 15.5523 15 15 15H13C12.4477 15 12 14.5523 12 14V13ZM20 13H18V14H20V13ZM18 12C17.4477 12 17 12.4477 17 13V14C17 14.5523 17.4477 15 18 15H20C20.5523 15 21 14.5523 21 14V13C21 12.4477 20.5523 12 20 12H18ZM8 17H10V18H8V17ZM7 17C7 16.4477 7.44772 16 8 16H10C10.5523 16 11 16.4477 11 17V18C11 18.5523 10.5523 19 10 19H8C7.44772 19 7 18.5523 7 18V17ZM15 17H13V18H15V17ZM13 16C12.4477 16 12 16.4477 12 17V18C12 18.5523 12.4477 19 13 19H15C15.5523 19 16 18.5523 16 18V17C16 16.4477 15.5523 16 15 16H13ZM18 17H20V22H18V17ZM17 17C17 16.4477 17.4477 16 18 16H20C20.5523 16 21 16.4477 21 17V22C21 22.5523 20.5523 23 20 23H18C17.4477 23 17 22.5523 17 22V17ZM15 21H13V22H15V21ZM13 20C12.4477 20 12 20.4477 12 21V22C12 22.5523 12.4477 23 13 23H15C15.5523 23 16 22.5523 16 22V21C16 20.4477 15.5523 20 15 20H13ZM8 21H10V22H8V21ZM7 21C7 20.4477 7.44772 20 8 20H10C10.5523 20 11 20.4477 11 21V22C11 22.5523 10.5523 23 10 23H8C7.44772 23 7 22.5523 7 22V21Z" fill="black"/>
</svg>
