<svg width="28" height="28" viewBox="0 0 28 28" fill="none" xmlns="http://www.w3.org/2000/svg">
    <path d="M9 4H4v5h5zM8 5v3H5V5zm1 7H4v12h5zm-1 1v10H5V13zm16-4H12V4h12zm-1-4H13v3h10zm-4.735 10.559.138-.496h-1.129q.553-1.757.76-2.2.409-.85.922-1.247.384-.3.868-.3a.48.48 0 0 1 .292.075q.069.052.069.157 0 .06-.1.24a.6.6 0 0 0-.1.293q0 .188.146.324.153.135.392.135a.607.607 0 0 0 .63-.624q0-.338-.354-.623-.353-.293-.937-.293-.552 0-1.182.338-.623.33-1.19.999-.415.495-.868 1.397-.339.669-.553.916-.208.24-.461.33-.254.084-.891.083l-.108.496h1.337l-1.337 5.085q-.468 1.765-.575 2.08-.255.76-.538 1.157-.285.405-.645.608a1.46 1.46 0 0 1-.7.203q-.144 0-.214-.052a.12.12 0 0 1-.054-.106q0-.052.123-.157.16-.143.161-.308a.4.4 0 0 0-.138-.293.52.52 0 0 0-.353-.128.7.7 0 0 0-.476.173q-.2.18-.2.42 0 .3.238.489.322.27.783.27.706 0 1.413-.488.93-.639 1.736-2.314.568-1.186 1.129-3.357l.845-3.282z" fill="#000"/>
    <path d="M21.414 15.664a3.1 3.1 0 0 0-.569-.781l-2.05.353v.27q.23-.015.407-.015.552 0 .837.203t.46.691q.04.105.515 1.93-.192.42-.814 1.367t-.983 1.232q-.145.12-.238.12-.108 0-.307-.172-.276-.24-.522-.24a.57.57 0 0 0-.584.578q0 .277.184.443a.84.84 0 0 0 .561.217q.438 0 .906-.375.723-.585 1.92-2.621.506 2.23.668 2.523.254.474.684.473.291 0 .714-.33.745-.585 1.229-1.472l-.27-.135q-.299.555-.721.901-.215.173-.376.173-.1 0-.2-.113-.099-.12-.246-.713l-.63-2.584q.66-1.12 1.137-1.51.254-.21.438-.21.123 0 .484.12.185.068.345.068a.73.73 0 0 0 .492-.188q.115-.105.115-.39a.54.54 0 0 0-.2-.421q-.192-.173-.522-.173-.222 0-.407.075-.291.12-.676.45a4 4 0 0 0-.652.684l-.676.992q-.315-1.15-.453-1.42" fill="#000"/>
</svg>
