<svg width="28" height="28" viewBox="0 0 28 28" fill="none" xmlns="http://www.w3.org/2000/svg">
<path fill-rule="evenodd" clip-rule="evenodd" d="M10 3H2V4H10V3ZM10 5H2V6H10V5ZM10 7H2V8H10V7ZM2 9H10V10H2V9ZM10 11H2V12H10V11ZM2 15H10V16H2V15ZM10 17H2V18H10V17ZM2 19H10V20H2V19ZM10 21H2V22H10V21ZM2 23H10V24H2V23Z" fill="black"/>
<path opacity="0.4" fill-rule="evenodd" clip-rule="evenodd" d="M12 3H19V4H12V3ZM19 5H12V6H19V5ZM25 5H21V6H25V5ZM25 3H21V4H25V3ZM12 7H19V8H12V7ZM25 7H21V8H25V7ZM12 9H19V10H12V9ZM25 9H21V10H25V9ZM12 11H19V12H12V11ZM25 11H21V12H25V11ZM12 15H19V16H12V15ZM25 15H21V16H25V15ZM12 17H19V18H12V17ZM25 17H21V18H25V17ZM12 19H19V20H12V19ZM25 19H21V20H25V19ZM12 21H19V22H12V21ZM25 21H21V22H25V21ZM12 23H19V24H12V23ZM25 23H21V24H25V23Z" fill="black"/>
</svg>
