<svg width="28" height="28" viewBox="0 0 28 28" fill="none" xmlns="http://www.w3.org/2000/svg">
    <path d="M13 23v-6h4v6h-4Zm4 1c.6 0 1-.4 1-1v-6c0-.6-.4-1-1-1h-4c-.6 0-1 .4-1 1v6c0 .6.4 1 1 1h4ZM5 23v-3h4v3H5Zm4 1c.6 0 1-.4 1-1v-3c0-.6-.4-1-1-1H5c-.6 0-1 .4-1 1v3c0 .6.4 1 1 1h4Zm12-1V11h4v12h-4Zm4 1c.6 0 1-.4 1-1V11c0-.6-.4-1-1-1h-4c-.6 0-1 .4-1 1v12c0 .6.4 1 1 1h4ZM10.5 7l.848 3.152L14.5 11l-3.152.848L10.5 15l-.849-3.152L6.5 11l3.151-.848L10.5 7Zm-5-4 .636 2.364L8.5 6l-2.364.636L5.5 9l-.636-2.364L2.5 6l2.364-.636L5.5 3ZM14 2l.53 1.97 1.97.53-1.97.53L14 7l-.53-1.97-1.97-.53 1.97-.53L14 2Z" fill="#000"/>
</svg>
