<svg width="28" height="28" viewBox="0 0 28 28" fill="none" xmlns="http://www.w3.org/2000/svg">
<path fill-rule="evenodd" clip-rule="evenodd" d="M16 4H18V5H16V4ZM16.9999 17.7069L16.9999 20.0002L15.9999 20.0002L15.9999 15.9998L19.9999 15.9998V16.9998L17.707 16.9998L22.3534 21.6463L21.6463 22.3534L16.9999 17.7069ZM21 4H19V5H21V4ZM23 7H24V9H23V7ZM22 4H24V5V6H23V5H22V4ZM23 10H24V12H23V10ZM24 13H23V15H24V13ZM23 16H24V18H23V16ZM24 19H23V21H24V19ZM4 16H5V18H4V16ZM5 19H4V21H5V19ZM19 23H21V24H19V23ZM23 22H24V24H23H22V23H23V22ZM16 23H18V24H16V23ZM15 24V23H13V24H15ZM10 23H12V24H10V23ZM9 23H7V24H9V23ZM5 22H4V23V24H6V23H5V22ZM10 5H14V9H10V5ZM10 10H14V14H10V10ZM9 5V9H5V5H9ZM9 10H5V14H9V10ZM4 9V10V14V15H5H14H15V14V5V4H14H10H9H5H4V5V9Z" fill="black"/>
</svg>
