<svg width="28" height="28" fill="none" xmlns="http://www.w3.org/2000/svg"><path fill-rule="evenodd" clip-rule="evenodd" d="M9 4H4v5h5V4zM8 5H5v3h3V5zM9 12H4v12h5V12zm-1 1H5v10h3V13zM12 9h12V4H12v5zm1-4v3h10V5H13z" fill="#000"/><path d="M25 15.288v.005l.002-.002-.002-.003z" fill="#000"/><path d="m24.295 15.998-2.293-2.294L22 16a6 6 0 0 1-6 6h-2.293L16 24.293l-.707.707-3.503-3.503 3.5-3.5.708.708-2.294 2.293L16 21a5 5 0 0 0 5-5v-2.293L18.707 16 18 15.293l3.503-3.503 3.5 3.5-.708.708z" fill="#000"/></svg>