<svg width="28" height="28" viewBox="0 0 28 28" fill="none" xmlns="http://www.w3.org/2000/svg">
<path d="M2 19H8V20C8 20.5523 7.55228 21 7 21H3C2.44772 21 2 20.5523 2 20V19Z" fill="black"/>
<path opacity="0.4" fill-rule="evenodd" clip-rule="evenodd" d="M3 7H9V10H3V7ZM9 11H3V14H9V11ZM2 11V14V15V18V19H3H9H10H16H17H18V18H17V15H19V14H17V11H23V12H24V11V10V7C24 6.44772 23.5523 6 23 6H17H16H10H9H3C2.44772 6 2 6.44772 2 7V10V11ZM16 15V18H10V15H16ZM10 14H16V11H10V14ZM16 7H10V10H16V7ZM23 10V7H17V10H23ZM9 15V18H3V15H9Z" fill="black"/>
<path fill-rule="evenodd" clip-rule="evenodd" d="M3 7H23V12H24V7C24 6.44772 23.5523 6 23 6H3C2.44772 6 2 6.44772 2 7V18V19H3H18V18H3V7Z" fill="black"/>
<rect x="19.5" y="16.5" width="6" height="5" rx="0.5" stroke="black"/>
<path d="M20.5 15.5C20.5 14.3954 21.3954 13.5 22.5 13.5C23.6046 13.5 24.5 14.3954 24.5 15.5V16.5H20.5V15.5Z" stroke="black"/>
</svg>
