<svg width="28" height="28" viewBox="0 0 28 28" fill="none" xmlns="http://www.w3.org/2000/svg">
    <path d="M7.659 14.992c.322.335.566.67.73 1.005.119.232.313.84.583 1.825l.869-1.275c.23-.309.51-.602.839-.879.329-.283.619-.476.869-.579a1.38 1.38 0 0 1 .523-.097c.283 0 .507.074.671.223a.69.69 0 0 1 .257.54c0 .245-.05.412-.148.502a.933.933 0 0 1-.632.242c-.138 0-.286-.029-.444-.087-.31-.103-.517-.154-.622-.154-.158 0-.346.09-.563.27-.408.335-.895.982-1.461 1.94l.81 3.323c.124.508.23.814.315.917.086.097.171.145.257.145.138 0 .3-.074.484-.222a3.81 3.81 0 0 0 .928-1.159l.346.174a6.076 6.076 0 0 1-1.58 1.893c-.362.283-.668.424-.918.424-.37 0-.662-.202-.88-.608-.137-.25-.424-1.332-.858-3.245-1.027 1.745-1.85 2.869-2.469 3.37-.401.323-.79.483-1.165.483a1.08 1.08 0 0 1-.72-.28.728.728 0 0 1-.238-.57.71.71 0 0 1 .218-.53.733.733 0 0 1 .533-.213c.21 0 .434.103.671.31.171.147.303.221.395.221.08 0 .181-.051.306-.154.31-.245.73-.773 1.264-1.584.533-.811.882-1.397 1.047-1.757-.408-1.565-.629-2.392-.662-2.482-.151-.419-.349-.715-.592-.889-.244-.173-.603-.26-1.076-.26-.152 0-.326.006-.524.019v-.348l2.637-.454ZM21 9.5a4.5 4.5 0 1 0-9 0 4.5 4.5 0 0 0 9 0Zm-.98 4.227a5.5 5.5 0 1 1 .707-.707l4.127 4.127-.707.707-4.127-4.127Z" fill="#000"/>
</svg>