<svg width="28" height="28" viewBox="0 0 28 28" fill="none" xmlns="http://www.w3.org/2000/svg">
<path opacity="0.4" fill-rule="evenodd" clip-rule="evenodd" d="M20 2H14V3H20V2ZM12 4H5V5H12V4ZM12 14H2V15H12V14ZM14 4H20V5H14V4ZM2 2H12V3H2V2ZM12 6H5V7H12V6ZM14 6H20V7H14V6ZM12 8H5V9H12V8ZM14 8H20V9H14V8ZM12 10H5V11H12V10ZM14 10H20V11H14V10ZM12 16H5V17H12V16ZM14 16H20V17H14V16ZM20 14H14V15H20V14ZM5 18H12V19H5V18ZM20 18H14V19H20V18ZM5 20H12V21H5V20ZM20 20H14V21H20V20Z" fill="black"/>
<path fill-rule="evenodd" clip-rule="evenodd" d="M26 2H22V3H26V2ZM26 4H22V5H26V4ZM22 6H26V7H22V6ZM26 8H22V9H26V8ZM22 10H26V11H22V10ZM26 16H22V17H26V16ZM22 14H26V15H22V14ZM12 24H2V25H12V24ZM14 24H20V25H14V24ZM26 24H22V25H26V24ZM22 18H26V19H22V18ZM26 20H22V21H26V20Z" fill="black"/>
</svg>
