<svg width="28" height="28" viewBox="0 0 28 28" fill="none" xmlns="http://www.w3.org/2000/svg">
<path opacity="0.4" fill-rule="evenodd" clip-rule="evenodd" d="M11 2H3V3H11V2ZM16 4H8V5H16V4ZM11 16H3V17H11V16ZM18 4H24V5H18V4ZM8 6H16V7H8V6ZM24 6H18V7H24V6ZM8 8H16V9H8V8ZM24 8H18V9H24V8ZM8 10H16V11H8V10ZM24 10H18V11H24V10ZM8 12H16V13H8V12ZM24 12H18V13H24V12ZM8 18H16V19H8V18ZM24 18H18V19H24V18ZM8 20H16V21H8V20ZM24 20H18V21H24V20ZM8 22H16V23H8V22ZM24 22H18V23H24V22ZM8 24H16V25H8V24ZM24 24H18V25H24V24Z" fill="black"/>
</svg>
