<svg width="28" height="28" viewBox="0 0 28 28" fill="none" xmlns="http://www.w3.org/2000/svg">
<path fill-rule="evenodd" clip-rule="evenodd" d="M6 3H8V4H6V6H5V4C5 3.44772 5.44772 3 6 3ZM20 4V6H19V4L17 4V3H19C19.5523 3 20 3.44772 20 4ZM5 18V20C5 20.5523 5.44771 21 6 21H8L8 20H6L6 18H5ZM15 3H10V4H15V3ZM19 10V8H20V10H19ZM5 8V11H6L6 8H5ZM5 16V13H6L6 16H5ZM13 11C12.4477 11 12 11.4477 12 12V14H10C9.44772 14 9 14.4477 9 15V21C9 21.5523 9.44772 22 10 22H12V24C12 24.5523 12.4477 25 13 25H21C21.5523 25 22 24.5523 22 24V22H24C24.5523 22 25 21.5523 25 21V15C25 14.4477 24.5523 14 24 14H22V12C22 11.4477 21.5523 11 21 11H13ZM13 18C12.4477 18 12 18.4477 12 19V21H10V15H13H21H24V21H22V19C22 18.4477 21.5523 18 21 18H13ZM21 14V12H13V14H21ZM11 16H12V17H11V16ZM13 24V19H21V24H13ZM20 21V20H14V21H20ZM14 23V22H20V23H14Z" fill="black"/>
</svg>
