<svg xmlns="http://www.w3.org/2000/svg" width="28" height="28" fill="none" viewBox="0 0 28 28">
    <path fill="#000" d="M14 4c1.548 0 2.8 1.307 3.634 3.068.341.721.626 1.547.847 2.45.903.221 1.73.507 2.45.848C22.694 11.201 24 12.452 24 14c0 1.611-1.413 2.9-3.297 3.738l-.457.203-.406-.913.457-.203C22.107 16.021 23 14.977 23 14c0-.937-.82-1.936-2.496-2.73a11.5 11.5 0 0 0-1.792-.66A19.7 19.7 0 0 1 19 14q-.001.15-.005.297l1.505-1.504.707.707-2.707 2.707-.524-.524-.041-.002.002-.037-2.144-2.144.707-.707 1.495 1.495q.004-.144.005-.288a18.4 18.4 0 0 0-.355-3.646A18.4 18.4 0 0 0 14 10c-1.301 0-2.534.127-3.646.354A18.4 18.4 0 0 0 10 14c0 1.3.127 2.533.354 3.645A18.4 18.4 0 0 0 14 18q.144-.001.288-.005L12.793 16.5l.707-.707 2.707 2.707-2.707 2.707-.707-.707 1.504-1.505q-.149.004-.297.005a19.7 19.7 0 0 1-3.39-.288c.186.658.408 1.26.66 1.792C12.064 22.18 13.063 23 14 23c.977 0 2.02-.894 2.825-2.703l.203-.457.913.406-.203.457C16.901 22.587 15.611 24 14 24c-1.548 0-2.8-1.307-3.634-3.068a13 13 0 0 1-.848-2.45 13 13 0 0 1-2.45-.848C5.307 16.799 4 15.548 4 14s1.307-2.8 3.068-3.634a13 13 0 0 1 2.45-.848 13 13 0 0 1 .848-2.45C11.201 5.307 12.452 4 14 4m-4.713 6.61c-.658.186-1.259.408-1.79.66C5.82 12.064 5 13.063 5 14s.82 1.936 2.496 2.73c.532.252 1.134.473 1.791.659A19.7 19.7 0 0 1 9 14c0-1.187.1-2.33.287-3.39M14 5c-.937 0-1.936.82-2.73 2.496a11.4 11.4 0 0 0-.66 1.791A19.7 19.7 0 0 1 14 9c1.187 0 2.328.1 3.389.287a11.5 11.5 0 0 0-.659-1.79C15.936 5.82 14.938 5 14 5"/>
</svg>
