<svg width="28" height="28" viewBox="0 0 28 28" fill="none" xmlns="http://www.w3.org/2000/svg">
<path fill-rule="evenodd" clip-rule="evenodd" d="M2 3H10V4H2V3ZM2 13H10V14H2V13ZM19 3H12V4H19V3ZM12 5H19V6H12V5ZM19 7H12V8H19V7ZM12 9H19V10H12V9ZM19 11H12V12H19V11ZM12 13H19V14H12V13ZM19 15H12V16H19V15ZM12 17H19V18H12V17ZM19 19H12V20H19V19Z" fill="black"/>
<path opacity="0.4" fill-rule="evenodd" clip-rule="evenodd" d="M21 3H25V4H21V3ZM21 5H25V6H21V5ZM25 7H21V8H25V7ZM21 9H25V10H21V9ZM25 11H21V12H25V11ZM21 13H25V14H21V13ZM25 15H21V16H25V15ZM21 17H25V18H21V17ZM25 19H21V20H25V19Z" fill="black"/>
</svg>
