<svg width="28" height="28" viewBox="0 0 28 28" fill="none" xmlns="http://www.w3.org/2000/svg">
<path fill-rule="evenodd" clip-rule="evenodd" d="M17.0001 6C16.8584 5.81114 16.7033 5.63214 16.5356 5.46447C16.0713 5.00017 15.5201 4.63188 14.9135 4.3806C14.3068 4.12933 13.6567 4 13.0001 4C12.3434 4 11.6933 4.12933 11.0866 4.3806C10.48 4.63188 9.92881 5.00017 9.46452 5.46447C9.00023 5.92876 8.63193 6.47996 8.38066 7.08658C8.25823 7.38215 8.16475 7.68805 8.10107 8H9.12707C9.17366 7.81956 9.2329 7.6422 9.30454 7.46927C9.50555 6.98396 9.80019 6.54301 10.1716 6.17157C10.5431 5.80014 10.984 5.5055 11.4693 5.30448C11.9546 5.10346 12.4748 5 13.0001 5C13.5253 5 14.0455 5.10346 14.5308 5.30448C15.0161 5.5055 15.457 5.80014 15.8285 6.17157C16.0762 6.41928 16.2897 6.69792 16.4642 7L14.0001 7V8H16.873H17.899L18.0001 8V4H17.0001V6ZM22 12H15V15H22V12ZM14 12V15V16V19V20V23V24H15H22H23V23V20V19V16V15V12V11H22H15H14V12ZM22 19V16H15V19H22ZM15 20V23H22V20H15ZM21 13H16V14H21V13ZM5 14H11V15H5V14ZM5 16H11V17H5V16ZM11 18H5V19H11V18ZM5 20H11V21H5V20ZM16 17H21V18H16V17ZM21 21H16V22H21V21Z" fill="black"/>
</svg>
