<svg width="28" height="28" fill="none" xmlns="http://www.w3.org/2000/svg"><path fill-rule="evenodd" clip-rule="evenodd" d="M25 3H3v19h5v-1H4V8h20v8h1V3zm-1 4H4V4h20v3z" fill="#000"/><path fill-rule="evenodd" clip-rule="evenodd" d="M13.854 15.854a.5.5 0 0 0-.708-.708L9.44 18.854A1.5 1.5 0 0 0 9 19.914v3.244c0 .333.11.655.314.918l1.038 1.342a1.5 1.5 0 0 0 1.186.582h2.221a1.5 1.5 0 0 0 1.296-.744l.74-1.27A1.5 1.5 0 0 0 16 23.23V22h2v1.23c0 .265.07.526.204.755l.741 1.27a1.5 1.5 0 0 0 1.296.745h2.22a1.5 1.5 0 0 0 1.187-.582l1.038-1.342a1.5 1.5 0 0 0 .314-.918v-3.244a1.5 1.5 0 0 0-.44-1.06l-3.706-3.708a.5.5 0 0 0-.708.708l3.708 3.707a.5.5 0 0 1 .146.353V20h-4.5a1.5 1.5 0 0 0-1.415 1h-2.17a1.5 1.5 0 0 0-1.415-1H10v-.086a.5.5 0 0 1 .146-.353l3.708-3.707zM10 23.158V21h4.5a.5.5 0 0 1 .5.5v1.73a.5.5 0 0 1-.068.252l-.741 1.27a.5.5 0 0 1-.432.248h-2.22a.5.5 0 0 1-.396-.194l-1.038-1.342a.5.5 0 0 1-.105-.306zM19.5 21H24v2.158a.5.5 0 0 1-.105.306l-1.038 1.342a.5.5 0 0 1-.395.194H20.24a.5.5 0 0 1-.432-.248l-.74-1.27A.5.5 0 0 1 19 23.23V21.5a.5.5 0 0 1 .5-.5z" fill="#000"/></svg>