<svg width="28" height="28" fill="none" xmlns="http://www.w3.org/2000/svg"><g opacity=".4" fill="#000"><path d="M3 7h7v3H3V7zM18 7h7v3h-7V7zM10 15H3v3h7v-3z"/></g><path d="M4 8h5v1H4V8zM9 12H4v1h5v-1zM4 20h5v1H4v-1zM9 16H4v1h5v-1z" fill="#000"/><path fill-rule="evenodd" clip-rule="evenodd" d="M11 6H2v17h9V6zm-1 1H3v3h7V7zm0 7H3v-3h7v3zm-7 8v-3h7v3H3zm0-7h7v3H3v-3z" fill="#000"/><path d="M24 8h-5v1h5V8zM24 12h-5v1h5v-1z" fill="#000"/><path fill-rule="evenodd" clip-rule="evenodd" d="M17 23h9V6h-9v17zm8-16h-7v3h7V7zm0 7h-7v-3h7v3zm-7 8v-3h7v3h-7zm7-7v3h-7v-3h7z" fill="#000"/><path d="m16.207 14.5-2.353-2.354-.708.708L14.293 14H12v1h2.293l-1.147 1.146.708.708 2.353-2.354z" fill="#000"/></svg>