<svg width="28" height="28" fill="none" xmlns="http://www.w3.org/2000/svg"><path d="M2 7.5A1.5 1.5 0 0 1 3.5 6H21v1H3.5a.5.5 0 0 0-.5.5V18H2V7.5z" fill="#000"/><path d="M4 9.5A1.5 1.5 0 0 1 5.5 8H23v1H5.5a.5.5 0 0 0-.5.5V20H4V9.5z" fill="#000"/><path d="M11 21v-1h7v-1H7v-8h17v3h1v-3a1 1 0 0 0-1-1H7a1 1 0 0 0-1 1v10a1 1 0 0 0 1 1h3a1 1 0 0 0 1-1z" fill="#000"/><path fill-rule="evenodd" clip-rule="evenodd" d="M20 18v-.5a2.5 2.5 0 0 1 5 0v.5a1 1 0 0 1 1 1v4a1 1 0 0 1-1 1h-5a1 1 0 0 1-1-1v-4a1 1 0 0 1 1-1zm4-.5v.5h-3v-.5a1.5 1.5 0 0 1 3 0zm1 1.5h-5v4h5v-4z" fill="#000"/><path opacity=".4" fill-rule="evenodd" clip-rule="evenodd" d="M13 11h-1v2H7v1h5v2H7v1h5v2h1v-2h6v-3h5v-1h-5v-2h-1v2h-5v-2zm5 5v-2h-5v2h5z" fill="#000"/></svg>