<svg width="28" height="28" viewBox="0 0 28 28" fill="none" xmlns="http://www.w3.org/2000/svg">
<path fill-rule="evenodd" clip-rule="evenodd" d="M22 5H18V6H20.2929L14.5 11.7929L11.5 8.7929L5.64648 14.6465L6.35359 15.3536L11.5 10.2071L14.5 13.2071L21 6.70712V9H22V5ZM22 12H18V13H22V12ZM18 14H22V15H18V14ZM16 16H12V17H16V16ZM16 18H12V19H16V18ZM16 22H12V23H16V22ZM12 20H16V21H12V20ZM6 22H10V23H6V22ZM6 20H10V21H6V20ZM22 22H18V23H22V22ZM18 20H22V21H18V20ZM22 18H18V19H22V18ZM18 16H22V17H18V16Z" fill="black"/>
</svg>
