<svg width="28" height="28" viewBox="0 0 28 28" fill="none" xmlns="http://www.w3.org/2000/svg">
<path d="M23 8.5H5.5C4.94772 8.5 4.5 8.94772 4.5 9.5V20" stroke="black"/>
<path d="M21 6.5H3.5C2.94772 6.5 2.5 6.94772 2.5 7.5V18" stroke="black"/>
<path d="M6 20H11V21C11 21.5523 10.5523 22 10 22H7C6.44772 22 6 21.5523 6 21V20Z" fill="black"/>
<rect x="19.5" y="18.5" width="6" height="5" rx="0.5" stroke="black"/>
<path d="M20.5 17.5C20.5 16.3954 21.3954 15.5 22.5 15.5C23.6046 15.5 24.5 16.3954 24.5 17.5V18.5H20.5V17.5Z" stroke="black"/>
<path opacity="0.4" fill-rule="evenodd" clip-rule="evenodd" d="M7 11H12V13H7V11ZM7 14H12V16H7V14ZM18 16H13V14H18V16ZM25 13V14H24H19V16V17H18H13V19H18V20H13H12H7H6V19V17V16V14V13V11C6 10.4477 6.44772 10 7 10H12H13H18H19H24C24.5523 10 25 10.4477 25 11V13ZM18 13H13V11H18V13ZM19 11V13H24V11H19ZM12 17V19H7V17H12Z" fill="black"/>
<path fill-rule="evenodd" clip-rule="evenodd" d="M7 11H24V14H25V11C25 10.4477 24.5523 10 24 10H7C6.44772 10 6 10.4477 6 11V19V20H7H18V19H7V11Z" fill="black"/>
</svg>
