<svg width="28" height="28" viewBox="0 0 28 28" fill="none" xmlns="http://www.w3.org/2000/svg">
<path fill-rule="evenodd" clip-rule="evenodd" d="M16.5 16H12.5C11.1193 16 10 17.1193 10 18.5C10 19.8807 11.1193 21 12.5 21H13V22H12.5C10.567 22 9 20.433 9 18.5C9 16.567 10.567 15 12.5 15H16.5C18.433 15 20 16.567 20 18.5C20 20.433 18.433 22 16.5 22H16V21H16.5C17.8807 21 19 19.8807 19 18.5C19 17.1193 17.8807 16 16.5 16ZM21.5 24H17.5C16.1193 24 15 22.8807 15 21.5C15 20.1193 16.1193 19 17.5 19H18V18H17.5C15.567 18 14 19.567 14 21.5C14 23.433 15.567 25 17.5 25H21.5C23.433 25 25 23.433 25 21.5C25 19.567 23.433 18 21.5 18H21V19H21.5C22.8807 19 24 20.1193 24 21.5C24 22.8807 22.8807 24 21.5 24Z" fill="black"/>
<path fill-rule="evenodd" clip-rule="evenodd" d="M13 24H6L6 4H14V5V9C14 9.55228 14.4477 10 15 10H19H20V16H21V9.41421C21 9.149 20.8946 8.89464 20.7071 8.70711L15.2929 3.29289C15.1054 3.10536 14.851 3 14.5858 3H6C5.44772 3 5 3.44772 5 4V24C5 24.5523 5.44772 25 6 25H13V24ZM15 4.41421L19.5858 9H19H15V5V4.41421Z" fill="black"/>
</svg>
