<svg width="28" height="28" viewBox="0 0 28 28" fill="none" xmlns="http://www.w3.org/2000/svg">
<path d="M24.5 16V7.5M8 21.5H3.5V7.5M3.5 7.5V3.5H24.5V7.5M3.5 7.5H24.5" stroke="black"/>
<path d="M9.5 20.5H14.5C15.0523 20.5 15.5 20.9477 15.5 21.5V21.5M15.5 21.5V23.2297C15.5 23.4067 15.453 23.5806 15.3638 23.7335L14.6227 25.0039C14.4435 25.3111 14.1146 25.5 13.759 25.5H11.5382C11.2288 25.5 10.9368 25.3567 10.7474 25.112L9.70913 23.7703C9.57356 23.5951 9.5 23.3798 9.5 23.1583V19.9142C9.5 19.649 9.60536 19.3946 9.79289 19.2071L13.5 15.5M15.5 21.5H18.5M18.5 21.5V21.5C18.5 20.9477 18.9477 20.5 19.5 20.5H24.5M18.5 21.5V23.2297C18.5 23.4067 18.547 23.5806 18.6362 23.7335L19.3773 25.0039C19.5565 25.3111 19.8854 25.5 20.241 25.5H22.4618C22.7712 25.5 23.0632 25.3567 23.2526 25.112L24.2909 23.7703C24.4264 23.5951 24.5 23.3798 24.5 23.1583V19.9142C24.5 19.649 24.3946 19.3946 24.2071 19.2071L20.5 15.5" stroke="black" stroke-linecap="round"/>
</svg>
