<svg width="24" height="24" viewBox="0 0 24 24" xmlns="http://www.w3.org/2000/svg">
<path d="M17.345 8.97876C18.126 8.19806 19.3921 8.19791 20.1731 8.97876L21.4055 10.2112C22.1861 10.9921 22.1861 12.2583 21.4055 13.0393L19.7844 14.6604L12.7844 21.5354C12.652 21.6653 12.4756 21.7414 12.2903 21.7493L9.29028 21.8743C9.08622 21.8828 8.88694 21.8076 8.7395 21.6663C8.59223 21.5248 8.50903 21.3294 8.50903 21.1252V18.0002C8.50905 17.799 8.59011 17.6061 8.73364 17.4651L15.7336 10.5901L17.345 8.97876ZM10.009 18.3147V20.343L11.9387 20.2629L18.1936 14.1204L16.2542 12.1809L10.009 18.3147ZM7.76196 2.12524C8.0572 2.12648 8.32466 2.30077 8.44458 2.57056L12.4446 11.5706C12.6128 11.9491 12.4422 12.3926 12.0637 12.5608C11.6852 12.729 11.2417 12.5584 11.0735 12.1799L10.3821 10.6252H5.05981L3.44165 14.1858C3.27017 14.5627 2.82549 14.7292 2.44849 14.5579C2.07159 14.3864 1.90506 13.9417 2.07642 13.5647L7.07642 2.5647L7.12915 2.46899C7.26639 2.25611 7.50375 2.12425 7.76196 2.12524ZM19.1125 10.0393C18.9174 9.84424 18.6008 9.84439 18.4055 10.0393L17.3196 11.1252L19.259 13.0647L20.345 11.9788C20.5398 11.7836 20.5398 11.4669 20.345 11.2717L19.1125 10.0393ZM5.74146 9.12524H9.71509L7.75024 4.70435L5.74146 9.12524Z" fill="#444444"/>
</svg>
