<svg width="24" height="24" viewBox="0 0 24 24" xmlns="http://www.w3.org/2000/svg">
<path d="M8.96973 4.46973C9.26262 4.17683 9.73738 4.17683 10.0303 4.46973C10.3231 4.76262 10.3231 5.2374 10.0303 5.53027L7.31055 8.25H13.5C16.6756 8.25003 19.25 10.8244 19.25 14C19.25 17.1756 16.6756 19.75 13.5 19.75H12.5C12.0858 19.75 11.75 19.4142 11.75 19C11.75 18.5858 12.0858 18.25 12.5 18.25H13.5C15.8472 18.25 17.75 16.3472 17.75 14C17.75 11.6528 15.8472 9.75003 13.5 9.75H7.31055L10.0303 12.4697C10.3231 12.7626 10.3231 13.2374 10.0303 13.5303C9.7374 13.8231 9.26262 13.8231 8.96973 13.5303L4.96973 9.53027C4.67683 9.23738 4.67683 8.76262 4.96973 8.46973L8.96973 4.46973Z" fill="#444444"/>
</svg>
