<svg width="24" height="24" viewBox="0 0 24 24" xmlns="http://www.w3.org/2000/svg">
<path d="M20.5 4.54199C21.4665 4.54199 22.25 5.32549 22.25 6.29199V18.2959C22.25 19.2624 21.4665 20.0459 20.5 20.0459H3.5C2.5335 20.0459 1.75 19.2624 1.75 18.2959V6.29199C1.75 5.32549 2.5335 4.54199 3.5 4.54199H20.5ZM3.5 6.04199C3.36193 6.04199 3.25 6.15392 3.25 6.29199V18.2959C3.25 18.434 3.36193 18.5459 3.5 18.5459H20.5C20.6381 18.5459 20.75 18.434 20.75 18.2959V6.29199C20.75 6.15392 20.6381 6.04199 20.5 6.04199H3.5Z" fill="#444444"/>
<path d="M18 14.5459C18.4142 14.5459 18.75 14.8817 18.75 15.2959C18.75 15.7101 18.4142 16.0459 18 16.0459H6C5.58579 16.0459 5.25 15.7101 5.25 15.2959C5.25 14.8817 5.58579 14.5459 6 14.5459H18ZM18 11.5459C18.4142 11.5459 18.75 11.8817 18.75 12.2959C18.75 12.7101 18.4142 13.0459 18 13.0459H6C5.58579 13.0459 5.25 12.7101 5.25 12.2959C5.25 11.8817 5.58579 11.5459 6 11.5459H18ZM18 8.5459C18.4142 8.5459 18.75 8.88168 18.75 9.2959C18.75 9.71011 18.4142 10.0459 18 10.0459H6C5.58579 10.0459 5.25 9.71011 5.25 9.2959C5.25 8.88168 5.58579 8.5459 6 8.5459H18Z" fill="#446ECA"/>
</svg>
