<svg width="24" height="24" viewBox="0 0 24 24" xmlns="http://www.w3.org/2000/svg">
<path d="M18.4287 3.82129C19.3949 3.82152 20.1785 4.60514 20.1787 5.57129V18.4287C20.1785 19.3949 19.3949 20.1785 18.4287 20.1787H5.57129C4.60513 20.1785 3.8215 19.3949 3.82129 18.4287V5.57129C3.82156 4.60517 4.60517 3.82154 5.57129 3.82129H18.4287ZM6.44727 18.6787H17.5518L11.999 13.5879L6.44727 18.6787ZM5.57129 5.32129C5.43359 5.32154 5.32156 5.4336 5.32129 5.57129V17.6748L11.4932 12.0186L11.6074 11.9326C11.8875 11.7603 12.256 11.789 12.5068 12.0186L18.6787 17.6758V5.57129C18.6785 5.43357 18.5664 5.32152 18.4287 5.32129H5.57129ZM14.8584 7.24805C15.9038 7.24805 16.7515 8.0953 16.752 9.14062C16.752 10.1864 15.9041 11.0342 14.8584 11.0342C13.8129 11.0338 12.9648 10.1862 12.9648 9.14062C12.9653 8.0955 13.8132 7.24838 14.8584 7.24805ZM14.8584 8.74805C14.6417 8.74838 14.4653 8.92393 14.4648 9.14062C14.4648 9.35774 14.6414 9.53384 14.8584 9.53418C15.0757 9.53418 15.252 9.35795 15.252 9.14062C15.2515 8.92373 15.0754 8.74805 14.8584 8.74805Z" fill="#444444"/>
</svg>
