<svg width="24" height="24" viewBox="0 0 24 24" xmlns="http://www.w3.org/2000/svg">
<path d="M8.98242 4C9.51279 4.00005 10.0215 4.21091 10.3965 4.58594L11.6641 5.85352C11.7578 5.94724 11.885 5.99995 12.0176 6H19.25C20.3546 6 21.25 6.89543 21.25 8V18.5C21.25 19.6046 20.3546 20.5 19.25 20.5H4.75C3.64543 20.5 2.75 19.6046 2.75 18.5V6C2.75 4.89543 3.64543 4 4.75 4H8.98242ZM4.75 5.5C4.47386 5.5 4.25 5.72386 4.25 6V18.5C4.25 18.7761 4.47386 19 4.75 19H19.25C19.5261 19 19.75 18.7761 19.75 18.5V8C19.75 7.72386 19.5261 7.5 19.25 7.5H12.0176C11.4872 7.49995 10.9785 7.28909 10.6035 6.91406L9.33594 5.64648C9.24221 5.55276 9.11496 5.50005 8.98242 5.5H4.75ZM10.7197 9.21973C11.0126 8.92683 11.4874 8.92683 11.7803 9.21973C12.073 9.51263 12.0731 9.98742 11.7803 10.2803L10.0605 12H16.25C16.6642 12 17 12.3358 17 12.75C16.9999 13.1641 16.6641 13.5 16.25 13.5H10.0605L11.7803 15.2197C12.073 15.5126 12.0731 15.9874 11.7803 16.2803C11.4874 16.573 11.0126 16.573 10.7197 16.2803L7.71973 13.2803C7.42687 12.9874 7.42695 12.5126 7.71973 12.2197L10.7197 9.21973Z" fill="#444444"/>
</svg>
