<svg width="24" height="24" viewBox="0 0 24 24" xmlns="http://www.w3.org/2000/svg">
<path d="M10 3.24854H5.52734C5.3894 3.24869 5.27734 3.36056 5.27734 3.49854V20.4985C5.27755 20.6363 5.38953 20.7484 5.52734 20.7485H10V22.2485H5.52734C4.5611 22.2484 3.77755 21.4648 3.77734 20.4985V3.49854C3.77734 2.53213 4.56098 1.74869 5.52734 1.74854H10V3.24854ZM18.499 1.74854C19.4655 1.74854 20.249 2.53204 20.249 3.49854V20.4985C20.2488 21.4648 19.4654 22.2485 18.499 22.2485H14V20.7485H18.499C18.637 20.7485 18.7488 20.6364 18.749 20.4985V3.49854C18.749 3.36046 18.6371 3.24854 18.499 3.24854H14V1.74854H18.499Z" fill="#444444"/>
<path d="M11.25 21.248C11.25 20.8338 11.5858 20.498 12 20.498C12.4142 20.498 12.75 20.8338 12.75 21.248V22.248C12.75 22.6623 12.4142 22.998 12 22.998C11.5858 22.998 11.25 22.6623 11.25 22.248V21.248ZM11.25 17.248C11.25 16.8338 11.5858 16.498 12 16.498C12.4142 16.498 12.75 16.8338 12.75 17.248V18.248C12.75 18.6623 12.4142 18.998 12 18.998C11.5858 18.998 11.25 18.6623 11.25 18.248V17.248ZM11.25 13.248C11.25 12.8338 11.5858 12.498 12 12.498C12.4142 12.498 12.75 12.8338 12.75 13.248V14.248C12.75 14.6623 12.4142 14.998 12 14.998C11.5858 14.998 11.25 14.6623 11.25 14.248V13.248ZM11.25 9.24805C11.25 8.83383 11.5858 8.49805 12 8.49805C12.4142 8.49805 12.75 8.83383 12.75 9.24805V10.248C12.75 10.6623 12.4142 10.998 12 10.998C11.5858 10.998 11.25 10.6623 11.25 10.248V9.24805ZM11.25 5.24805C11.25 4.83383 11.5858 4.49805 12 4.49805C12.4142 4.49805 12.75 4.83383 12.75 5.24805V6.24805C12.75 6.66226 12.4142 6.99805 12 6.99805C11.5858 6.99805 11.25 6.66226 11.25 6.24805V5.24805ZM11.25 1.24805C11.25 0.833834 11.5858 0.498047 12 0.498047C12.4142 0.498047 12.75 0.833834 12.75 1.24805V2.24805C12.75 2.66226 12.4142 2.99805 12 2.99805C11.5858 2.99805 11.25 2.66226 11.25 2.24805V1.24805Z" fill="#446ECA"/>
</svg>
