<svg width="24" height="24" viewBox="0 0 24 24" xmlns="http://www.w3.org/2000/svg">
<path d="M15 13.5835C17.0711 13.5835 18.75 15.2624 18.75 17.3335V18.3335C18.75 19.3 17.9665 20.0835 17 20.0835H7C6.0335 20.0835 5.25 19.3 5.25 18.3335V17.3335C5.25 15.2624 6.92893 13.5835 9 13.5835H15ZM9 15.0835C7.75736 15.0835 6.75 16.0909 6.75 17.3335V18.3335C6.75 18.4716 6.86193 18.5835 7 18.5835H17C17.1381 18.5835 17.25 18.4716 17.25 18.3335V17.3335C17.25 16.0909 16.2426 15.0835 15 15.0835H9ZM12.0225 3.91553C14.3697 3.91553 16.2725 5.81929 16.2725 8.1665C16.2722 10.5135 14.3695 12.4165 12.0225 12.4165C9.67541 12.4165 7.77272 10.5135 7.77246 8.1665C7.77246 5.81929 9.67525 3.91553 12.0225 3.91553ZM12.0225 5.4165C10.5037 5.4165 9.27246 6.64772 9.27246 8.1665C9.27272 9.68506 10.5038 10.9165 12.0225 10.9165C13.5411 10.9165 14.7722 9.68506 14.7725 8.1665C14.7725 6.64772 13.5412 5.4165 12.0225 5.4165Z" fill="#444444"/>
</svg>
