<svg width="24" height="24" viewBox="0 0 24 24" xmlns="http://www.w3.org/2000/svg">
<path d="M11.917 16.916C12.8832 16.9162 13.6667 17.6999 13.667 18.666C13.667 19.6324 12.8833 20.4158 11.917 20.416C10.9507 20.416 10.1673 19.6333 10.167 18.667C10.167 17.7005 10.9505 16.916 11.917 16.916ZM11.917 10.249C12.8831 10.2492 13.6666 11.033 13.667 11.999C13.667 12.9654 12.8833 13.7488 11.917 13.749C10.9507 13.749 10.1673 12.9663 10.167 12C10.1672 11.0336 10.9506 10.249 11.917 10.249ZM11.917 3.58301C12.8832 3.58321 13.6667 4.36685 13.667 5.33301C13.6668 6.29923 12.8832 7.08281 11.917 7.08301C10.9508 7.08301 10.1674 6.3001 10.167 5.33398C10.167 4.36749 10.9505 3.58301 11.917 3.58301Z" fill="#444444"/>
</svg>
