<svg width="24" height="24" viewBox="0 0 24 24" xmlns="http://www.w3.org/2000/svg">
<path d="M20.5 16C20.9142 16 21.25 16.3358 21.25 16.75C21.25 17.1642 20.9142 17.5 20.5 17.5H3.5C3.08579 17.5 2.75 17.1642 2.75 16.75C2.75 16.3358 3.08579 16 3.5 16H20.5ZM20.5 11C20.9142 11 21.25 11.3358 21.25 11.75C21.25 12.1642 20.9142 12.5 20.5 12.5H3.5C3.08579 12.5 2.75 12.1642 2.75 11.75C2.75 11.3358 3.08579 11 3.5 11H20.5ZM20.5 6C20.9142 6 21.25 6.33579 21.25 6.75C21.25 7.16421 20.9142 7.5 20.5 7.5H3.5C3.08579 7.5 2.75 7.16421 2.75 6.75C2.75 6.33579 3.08579 6 3.5 6H20.5Z" fill="#444444"/>
</svg>
