<svg width="24" height="24" viewBox="0 0 24 24" xmlns="http://www.w3.org/2000/svg">
<path d="M6.5 2.75C5.5335 2.75 4.75 3.5335 4.75 4.5V5.5C4.75 5.91421 5.08579 6.25 5.5 6.25C5.91421 6.25 6.25 5.91421 6.25 5.5V4.5C6.25 4.36193 6.36193 4.25 6.5 4.25H19.5C19.6381 4.25 19.75 4.36193 19.75 4.5V14.5C19.75 14.6381 19.6381 14.75 19.5 14.75H17.5996C17.1305 14.7502 16.7502 15.1305 16.75 15.5996V17.6895L16.5303 17.4697C16.2374 17.1768 15.7626 17.1768 15.4697 17.4697C15.1768 17.7626 15.1768 18.2374 15.4697 18.5303L16.7988 19.8594C17.3342 20.3948 18.2498 20.0159 18.25 19.2588V16.25H19.5C20.4665 16.25 21.25 15.4665 21.25 14.5V4.5C21.25 3.5335 20.4665 2.75 19.5 2.75H6.5Z" fill="#444444"/>
<path d="M13.5 7.75C14.4665 7.75 15.25 8.5335 15.25 9.5V15.5C15.25 16.4665 14.4665 17.25 13.5 17.25H10.8105L7.20117 20.8594C6.66575 21.3948 5.75017 21.0159 5.75 20.2588V17.25H4.5C3.5335 17.25 2.75 16.4665 2.75 15.5V9.5C2.75 8.5335 3.5335 7.75 4.5 7.75H13.5ZM4.5 9.25C4.36193 9.25 4.25 9.36193 4.25 9.5V15.5C4.25 15.6381 4.36193 15.75 4.5 15.75H6.40039C6.86952 15.7502 7.24979 16.1305 7.25 16.5996V18.6895L9.82324 16.1162L9.91504 16.0332C10.1374 15.851 10.417 15.75 10.707 15.75H13.5C13.6381 15.75 13.75 15.6381 13.75 15.5V9.5C13.75 9.36193 13.6381 9.25 13.5 9.25H4.5Z" fill="#444444"/>
</svg>
