<svg width="24" height="24" viewBox="0 0 24 24" xmlns="http://www.w3.org/2000/svg">
<path d="M6.15503 8.97876C5.37399 8.19806 4.10785 8.19791 3.3269 8.97876L2.09448 10.2112C1.31385 10.9921 1.31385 12.2583 2.09448 13.0393L3.71558 14.6604L10.7156 21.5354C10.848 21.6653 11.0244 21.7414 11.2097 21.7493L14.2097 21.8743C14.4138 21.8828 14.6131 21.8076 14.7605 21.6663C14.9078 21.5248 14.991 21.3294 14.991 21.1252V18.0002C14.9909 17.799 14.9099 17.6061 14.7664 17.4651L7.76636 10.5901L6.15503 8.97876ZM13.491 18.3147V20.343L11.5613 20.2629L5.3064 14.1204L7.24585 12.1809L13.491 18.3147ZM15.738 2.12524C15.4428 2.12648 15.1753 2.30077 15.0554 2.57056L11.0554 11.5706C10.8872 11.9491 11.0578 12.3926 11.4363 12.5608C11.8148 12.729 12.2583 12.5584 12.4265 12.1799L13.1179 10.6252H18.4402L20.0583 14.1858C20.2298 14.5627 20.6745 14.7292 21.0515 14.5579C21.4284 14.3864 21.5949 13.9417 21.4236 13.5647L16.4236 2.5647L16.3708 2.46899C16.2336 2.25611 15.9963 2.12425 15.738 2.12524ZM4.38745 10.0393C4.58261 9.84424 4.89923 9.84439 5.09448 10.0393L6.18042 11.1252L4.24097 13.0647L3.15503 11.9788C2.96019 11.7836 2.96018 11.4669 3.15503 11.2717L4.38745 10.0393ZM17.7585 9.12524H13.7849L15.7498 4.70435L17.7585 9.12524Z" fill="#444444"/>
</svg>
