<svg width="24" height="24" viewBox="0 0 24 24" xmlns="http://www.w3.org/2000/svg">
<path d="M18.5 17.7495C19.4662 17.7499 20.25 18.5332 20.25 19.4995L20.249 21.4995V22.2495H18.749V21.4995L18.75 19.4995C18.75 19.3617 18.6378 19.2499 18.5 19.2495H5.47168C5.33363 19.2495 5.22168 19.3615 5.22168 19.4995V22.2495H3.72168V19.4995C3.72168 18.533 4.5052 17.7495 5.47168 17.7495H18.5ZM5.25 2.99658L5.27441 10.4995C5.27489 10.6372 5.38669 10.7485 5.52441 10.7485H18.499C18.6371 10.7485 18.749 10.6366 18.749 10.4985L18.75 2.99854V2.24854H20.25V2.99854L20.249 10.4985C20.249 11.465 19.4655 12.2485 18.499 12.2485H5.52441C4.56017 12.2485 3.77758 11.4686 3.77441 10.5044L3.75 3.00049L3.74805 2.25049L5.24805 2.24658L5.25 2.99658Z" fill="#444444"/>
<path d="M4.5 14.249C4.91421 14.249 5.25 14.5848 5.25 14.999C5.25 15.4132 4.91421 15.749 4.5 15.749H3.5C3.08579 15.749 2.75 15.4132 2.75 14.999C2.75 14.5848 3.08579 14.249 3.5 14.249H4.5ZM8.5 14.249C8.91421 14.249 9.25 14.5848 9.25 14.999C9.25 15.4132 8.91421 15.749 8.5 15.749H7.5C7.08579 15.749 6.75 15.4132 6.75 14.999C6.75 14.5848 7.08579 14.249 7.5 14.249H8.5ZM12.5 14.249C12.9142 14.249 13.25 14.5848 13.25 14.999C13.25 15.4132 12.9142 15.749 12.5 15.749H11.5C11.0858 15.749 10.75 15.4132 10.75 14.999C10.75 14.5848 11.0858 14.249 11.5 14.249H12.5ZM16.5 14.249C16.9142 14.249 17.25 14.5848 17.25 14.999C17.25 15.4132 16.9142 15.749 16.5 15.749H15.5C15.0858 15.749 14.75 15.4132 14.75 14.999C14.75 14.5848 15.0858 14.249 15.5 14.249H16.5ZM20.5 14.249C20.9142 14.249 21.25 14.5848 21.25 14.999C21.25 15.4132 20.9142 15.749 20.5 15.749H19.5C19.0858 15.749 18.75 15.4132 18.75 14.999C18.75 14.5848 19.0858 14.249 19.5 14.249H20.5Z" fill="#446ECA"/>
</svg>
