<svg xmlns="http://www.w3.org/2000/svg" viewBox="0 0 100 127" version="1.1" width="100" height="127"><defs><style>.cls-2-1{opacity:0.2;}</style></defs><symbol id="svg-format-blank"><path fill="#fff" d="M95,23v96a3,3,0,0,1-3,3H8a3,3,0,0,1-3-3V8A3,3,0,0,1,8,5H77Z"/><path class="cls-2-1" d="M77,5H8A3,3,0,0,0,5,8V119a3,3,0,0,0,3,3H92a3,3,0,0,0,3-3V23ZM94,119a2,2,0,0,1-2,2H8a2,2,0,0,1-2-2V8A2,2,0,0,1,8,6H76.59l.41.41V20a3,3,0,0,0,3,3H93.59l.41.41Z"/><g class="cls-2-1"><rect x="50" y="86" width="25" height="2"/><rect x="25" y="80" width="50" height="2"/><rect x="25" y="74" width="50" height="2"/><rect x="25" y="68" width="50" height="2"/><rect x="25" y="62" width="50" height="2"/><rect x="25" y="43" width="24" height="2"/><rect x="25" y="37" width="19" height="2"/></g></symbol></svg>