<svg width="80" height="100" viewBox="0 0 80 100" fill="none" xmlns="http://www.w3.org/2000/svg">
<g clip-path="url(#clip0_2964_22039)">
<path d="M75 19V92.6667C75 93.2855 74.7542 93.879 74.3166 94.3166C73.879 94.7542 73.2855 95 72.6667 95H7.33333C6.71449 95 6.121 94.7542 5.68342 94.3166C5.24583 93.879 5 93.2855 5 92.6667V7.33333C5 6.71449 5.24583 6.121 5.68342 5.68342C6.121 5.24583 6.71449 5 7.33333 5H61L75 19Z" fill="#646464"/>
<path fill-rule="evenodd" clip-rule="evenodd" d="M31 33H21V35H31V33ZM31 38H21V40H31V38ZM21 43H31V45H21V43ZM31 48H21V50H31V48ZM21 53H31V55H21V53ZM31 58H21V60H31V58ZM21 63H31V65H21V63ZM45 33H35V35H45V33ZM45 38H35V40H45V38ZM35 43H45V45H35V43ZM45 48H35V50H45V48ZM35 53H45V55H35V53ZM45 58H35V60H45V58ZM35 63H45V65H35V63ZM49 33H59V35H49V33ZM49 38H59V40H49V38ZM59 43H49V45H59V43ZM49 48H59V50H49V48ZM59 53H49V55H59V53ZM49 58H59V60H49V58ZM59 63H49V65H59V63Z" fill="white"/>
<path opacity="0.2" d="M75 19H63.3333C62.7145 19 62.121 18.7542 61.6834 18.3166C61.2458 17.879 61 17.2855 61 16.6667V5L75 19Z" fill="black"/>
<path d="M33.6836 79.8223C33.3359 79.8223 33.0273 79.8906 32.7578 80.0273C32.4922 80.1602 32.2676 80.3535 32.084 80.6074C31.9043 80.8613 31.7676 81.168 31.6738 81.5273C31.5801 81.8867 31.5332 82.291 31.5332 82.7402C31.5332 83.3457 31.6074 83.8633 31.7559 84.293C31.9082 84.7188 32.1426 85.0449 32.459 85.2715C32.7754 85.4941 33.1836 85.6055 33.6836 85.6055C34.0312 85.6055 34.3789 85.5664 34.7266 85.4883C35.0781 85.4102 35.459 85.2988 35.8691 85.1543V86.6777C35.4902 86.834 35.1172 86.9453 34.75 87.0117C34.3828 87.082 33.9707 87.1172 33.5137 87.1172C32.6309 87.1172 31.9043 86.9355 31.334 86.5723C30.7676 86.2051 30.3477 85.6934 30.0742 85.0371C29.8008 84.377 29.6641 83.6074 29.6641 82.7285C29.6641 82.0801 29.752 81.4863 29.9277 80.9473C30.1035 80.4082 30.3613 79.9414 30.7012 79.5469C31.041 79.1523 31.4609 78.8477 31.9609 78.6328C32.4609 78.418 33.0352 78.3105 33.6836 78.3105C34.1094 78.3105 34.5352 78.3652 34.9609 78.4746C35.3906 78.5801 35.8008 78.7266 36.1914 78.9141L35.6055 80.3906C35.2852 80.2383 34.9629 80.1055 34.6387 79.9922C34.3145 79.8789 33.9961 79.8223 33.6836 79.8223ZM42.7539 84.6211C42.7539 85.1289 42.6309 85.5703 42.3848 85.9453C42.1387 86.3203 41.7793 86.6094 41.3066 86.8125C40.8379 87.0156 40.2676 87.1172 39.5957 87.1172C39.2988 87.1172 39.0078 87.0977 38.7227 87.0586C38.4414 87.0195 38.1699 86.9629 37.9082 86.8887C37.6504 86.8105 37.4043 86.7148 37.1699 86.6016V84.9141C37.5762 85.0938 37.998 85.2559 38.4355 85.4004C38.873 85.5449 39.3066 85.6172 39.7363 85.6172C40.0332 85.6172 40.2715 85.5781 40.4512 85.5C40.6348 85.4219 40.7676 85.3145 40.8496 85.1777C40.9316 85.041 40.9727 84.8848 40.9727 84.709C40.9727 84.4941 40.9004 84.3105 40.7559 84.1582C40.6113 84.0059 40.4121 83.8633 40.1582 83.7305C39.9082 83.5977 39.625 83.4551 39.3086 83.3027C39.1094 83.209 38.8926 83.0957 38.6582 82.9629C38.4238 82.8262 38.2012 82.6602 37.9902 82.4648C37.7793 82.2695 37.6055 82.0332 37.4688 81.7559C37.3359 81.4746 37.2695 81.1387 37.2695 80.748C37.2695 80.2363 37.3867 79.7988 37.6211 79.4355C37.8555 79.0723 38.1895 78.7949 38.623 78.6035C39.0605 78.4082 39.5762 78.3105 40.1699 78.3105C40.6152 78.3105 41.0391 78.3633 41.4414 78.4688C41.8477 78.5703 42.2715 78.7188 42.7129 78.9141L42.127 80.3262C41.7324 80.166 41.3789 80.043 41.0664 79.957C40.7539 79.8672 40.4355 79.8223 40.1113 79.8223C39.8848 79.8223 39.6914 79.8594 39.5312 79.9336C39.3711 80.0039 39.25 80.1055 39.168 80.2383C39.0859 80.3672 39.0449 80.5176 39.0449 80.6895C39.0449 80.8926 39.1035 81.0645 39.2207 81.2051C39.3418 81.3418 39.5215 81.4746 39.7598 81.6035C40.002 81.7324 40.3027 81.8828 40.6621 82.0547C41.0996 82.2617 41.4727 82.4785 41.7812 82.7051C42.0938 82.9277 42.334 83.1914 42.502 83.4961C42.6699 83.7969 42.7539 84.1719 42.7539 84.6211ZM51.0273 78.4336L48.1152 87H46.1348L43.2285 78.4336H45.0625L46.6738 83.5312C46.7012 83.6172 46.7461 83.7793 46.8086 84.0176C46.8711 84.252 46.9336 84.502 46.9961 84.7676C47.0625 85.0293 47.1074 85.2461 47.1309 85.418C47.1543 85.2461 47.1953 85.0293 47.2539 84.7676C47.3164 84.5059 47.377 84.2578 47.4355 84.0234C47.498 83.7852 47.543 83.6211 47.5703 83.5312L49.1934 78.4336H51.0273Z" fill="white"/>
</g>
<defs>
<clipPath id="clip0_2964_22039">
<rect width="80" height="100" fill="white"/>
</clipPath>
</defs>
</svg>
