<svg xmlns="http://www.w3.org/2000/svg" viewBox="0 0 100 127" version="1.1" width="100" height="127"><defs><style>.cls-2{opacity:0.2;}.cls-3{font-size:12px;font-family:OpenSans-Bold, Open Sans;font-weight:700;}.cls-3,.cls-4{fill:#fff;}</style></defs><symbol id="svg-format-csv"><path fill="#646464" d="M95,23v96a3,3,0,0,1-3,3H8a3,3,0,0,1-3-3V8A3,3,0,0,1,8,5H77Z"/><path class="cls-2" d="M95,23H80a3,3,0,0,1-3-3V5Z"/><text class="cls-3" transform="translate(38.97 113)">CSV</text><rect class="cls-4" x="21" y="90" width="17" height="2"/><rect class="cls-4" x="21" y="83" width="17" height="2"/><rect class="cls-4" x="21" y="76" width="17" height="2"/><rect class="cls-4" x="21" y="69" width="17" height="2"/><rect class="cls-4" x="21" y="62" width="17" height="2"/><rect class="cls-4" x="21" y="55" width="17" height="2"/><rect class="cls-4" x="21" y="48" width="17" height="2"/><rect class="cls-4" x="21" y="41" width="17" height="2"/><rect class="cls-4" x="21" y="34" width="17" height="2"/><rect class="cls-4" x="42" y="90" width="17" height="2"/><rect class="cls-4" x="42" y="83" width="17" height="2"/><rect class="cls-4" x="42" y="76" width="17" height="2"/><rect class="cls-4" x="42" y="69" width="17" height="2"/><rect class="cls-4" x="42" y="62" width="17" height="2"/><rect class="cls-4" x="42" y="55" width="17" height="2"/><rect class="cls-4" x="42" y="48" width="17" height="2"/><rect class="cls-4" x="42" y="41" width="17" height="2"/><rect class="cls-4" x="42" y="34" width="17" height="2"/><rect class="cls-4" x="63" y="90" width="17" height="2"/><rect class="cls-4" x="63" y="83" width="17" height="2"/><rect class="cls-4" x="63" y="76" width="17" height="2"/><rect class="cls-4" x="63" y="69" width="17" height="2"/><rect class="cls-4" x="63" y="62" width="17" height="2"/><rect class="cls-4" x="63" y="55" width="17" height="2"/><rect class="cls-4" x="63" y="48" width="17" height="2"/><rect class="cls-4" x="63" y="41" width="17" height="2"/><rect class="cls-4" x="63" y="34" width="17" height="2"/></symbol></svg>