<svg id="Layer_1" data-name="Layer 1" xmlns="http://www.w3.org/2000/svg" width="100" height="127" viewBox="0 0 100 127">
  <defs>
    <style>
      .cls-1 {
        fill: #646464;
      }

      .cls-2 {
        opacity: 0.2;
      }

      .cls-2, .cls-3 {
        isolation: isolate;
      }

      .cls-4 {
        fill: #fff;
      }
    </style>
  </defs>
  <title>csv</title>
  <g id="csv">
    <path class="cls-1" d="M95,23v96a2.9,2.9,0,0,1-3,3H8a2.9,2.9,0,0,1-3-3V8A2.9,2.9,0,0,1,8,5H77Z"/>
    <path class="cls-2" d="M95,23H80a2.9,2.9,0,0,1-3-3V5Z"/>
    <g class="cls-3">
      <path class="cls-4" d="M43.7,105.8a1.9,1.9,0,0,0-1.6.8,3.3,3.3,0,0,0-.6,2.1c0,2,.8,2.9,2.2,2.9a6.9,6.9,0,0,0,2.2-.4v1.5a6.1,6.1,0,0,1-2.4.4,3.6,3.6,0,0,1-2.8-1.1,4.8,4.8,0,0,1-1-3.3,4.3,4.3,0,0,1,.5-2.3,3.1,3.1,0,0,1,1.4-1.6,4.6,4.6,0,0,1,2.1-.5,5.7,5.7,0,0,1,2.5.6l-.6,1.5-1-.4Z"/>
      <path class="cls-4" d="M52.8,110.6a2,2,0,0,1-.9,1.8,3.2,3.2,0,0,1-2.3.7,6,6,0,0,1-2.4-.5v-1.7l1.4.6h1.1l1-.2a.9.9,0,0,0,.3-.7.5.5,0,0,0-.2-.4.8.8,0,0,0-.4-.4l-1.1-.6-1.2-.7-.6-.8a1.8,1.8,0,0,1-.2-1.1A2.1,2.1,0,0,1,48,105a3.2,3.2,0,0,1,2.2-.7l1.2.2,1.3.4-.6,1.4-1.1-.4h-.9a1.1,1.1,0,0,0-.8.3.6.6,0,0,0-.3.6l.2.4c0,.1.1.2.3.4l1.2.6a3.4,3.4,0,0,1,1.6,1.1A2.4,2.4,0,0,1,52.8,110.6Z"/>
      <path class="cls-4" d="M59.2,104.4H61L58.1,113h-2l-2.9-8.6h1.9l1.6,5.1a3.6,3.6,0,0,1,.2,1.1c.1.4.2.7.2.8s.2-1,.5-1.9Z"/>
    </g>
    <rect class="cls-4" x="21" y="90" width="17" height="2"/>
    <rect class="cls-4" x="21" y="83" width="17" height="2"/>
    <rect class="cls-4" x="21" y="76" width="17" height="2"/>
    <rect class="cls-4" x="21" y="69" width="17" height="2"/>
    <rect class="cls-4" x="21" y="62" width="17" height="2"/>
    <rect class="cls-4" x="21" y="55" width="17" height="2"/>
    <rect class="cls-4" x="21" y="48" width="17" height="2"/>
    <rect class="cls-4" x="21" y="41" width="17" height="2"/>
    <rect class="cls-4" x="21" y="34" width="17" height="2"/>
    <rect class="cls-4" x="42" y="90" width="17" height="2"/>
    <rect class="cls-4" x="42" y="83" width="17" height="2"/>
    <rect class="cls-4" x="42" y="76" width="17" height="2"/>
    <rect class="cls-4" x="42" y="69" width="17" height="2"/>
    <rect class="cls-4" x="42" y="62" width="17" height="2"/>
    <rect class="cls-4" x="42" y="55" width="17" height="2"/>
    <rect class="cls-4" x="42" y="48" width="17" height="2"/>
    <rect class="cls-4" x="42" y="41" width="17" height="2"/>
    <rect class="cls-4" x="42" y="34" width="17" height="2"/>
    <rect class="cls-4" x="63" y="90" width="17" height="2"/>
    <rect class="cls-4" x="63" y="83" width="17" height="2"/>
    <rect class="cls-4" x="63" y="76" width="17" height="2"/>
    <rect class="cls-4" x="63" y="69" width="17" height="2"/>
    <rect class="cls-4" x="63" y="62" width="17" height="2"/>
    <rect class="cls-4" x="63" y="55" width="17" height="2"/>
    <rect class="cls-4" x="63" y="48" width="17" height="2"/>
    <rect class="cls-4" x="63" y="41" width="17" height="2"/>
    <rect class="cls-4" x="63" y="34" width="17" height="2"/>
  </g>
</svg>
