<svg width="80" height="100" viewBox="0 0 80 100" fill="none" xmlns="http://www.w3.org/2000/svg">
<g clip-path="url(#clip0_2966_22077)">
<path d="M75 19V92.6667C75 93.2855 74.7542 93.879 74.3166 94.3166C73.879 94.7542 73.2855 95 72.6667 95H7.33333C6.71449 95 6.121 94.7542 5.68342 94.3166C5.24583 93.879 5 93.2855 5 92.6667V7.33333C5 6.71449 5.24583 6.121 5.68342 5.68342C6.121 5.24583 6.71449 5 7.33333 5H61L75 19Z" fill="#BC8C18"/>
<path opacity="0.2" d="M75 19H63.3333C62.7145 19 62.121 18.7542 61.6834 18.3166C61.2458 17.879 61 17.2855 61 16.6667V5L75 19Z" fill="black"/>
<path d="M33.3203 82.6348C33.3203 83.5996 33.1348 84.4062 32.7637 85.0547C32.3965 85.6992 31.8633 86.1855 31.1641 86.5137C30.4648 86.8379 29.623 87 28.6387 87H26.2129V78.4336H28.9023C29.8008 78.4336 30.5801 78.5938 31.2402 78.9141C31.9004 79.2305 32.4121 79.7012 32.7754 80.3262C33.1387 80.9473 33.3203 81.7168 33.3203 82.6348ZM31.4336 82.6816C31.4336 82.0488 31.3398 81.5293 31.1523 81.123C30.9688 80.7129 30.6953 80.4102 30.332 80.2148C29.9727 80.0195 29.5273 79.9219 28.9961 79.9219H28.0293V85.5H28.8086C29.6953 85.5 30.3535 85.2637 30.7832 84.791C31.2168 84.3184 31.4336 83.6152 31.4336 82.6816ZM34.1992 89.5195C33.9648 89.5195 33.7598 89.5059 33.584 89.4785C33.4043 89.4551 33.252 89.4258 33.127 89.3906V87.8789C33.252 87.9062 33.3867 87.9316 33.5312 87.9551C33.6719 87.9824 33.8223 87.9961 33.9824 87.9961C34.1934 87.9961 34.3828 87.9551 34.5508 87.873C34.7188 87.7949 34.8516 87.6445 34.9492 87.4219C35.0469 87.1992 35.0957 86.8789 35.0957 86.4609V78.4336H36.9121V86.4492C36.9121 87.1836 36.7969 87.7754 36.5664 88.2246C36.3398 88.6777 36.0215 89.0059 35.6113 89.209C35.2051 89.416 34.7344 89.5195 34.1992 89.5195ZM45.7891 78.4336L42.877 87H40.8965L37.9902 78.4336H39.8242L41.4355 83.5312C41.4629 83.6172 41.5078 83.7793 41.5703 84.0176C41.6328 84.252 41.6953 84.502 41.7578 84.7676C41.8242 85.0293 41.8691 85.2461 41.8926 85.418C41.916 85.2461 41.957 85.0293 42.0156 84.7676C42.0781 84.5059 42.1387 84.2578 42.1973 84.0234C42.2598 83.7852 42.3047 83.6211 42.332 83.5312L43.9551 78.4336H45.7891ZM53.8457 78.4336V83.9766C53.8457 84.5664 53.7148 85.0996 53.4531 85.5762C53.1953 86.0488 52.8027 86.4238 52.2754 86.7012C51.752 86.9785 51.0918 87.1172 50.2949 87.1172C49.1621 87.1172 48.2988 86.8281 47.7051 86.25C47.1113 85.6719 46.8145 84.9062 46.8145 83.9531V78.4336H48.625V83.6777C48.625 84.3848 48.7695 84.8809 49.0586 85.166C49.3477 85.4512 49.7754 85.5938 50.3418 85.5938C50.7402 85.5938 51.0625 85.5254 51.3086 85.3887C51.5586 85.252 51.7422 85.041 51.8594 84.7559C51.9766 84.4707 52.0352 84.1074 52.0352 83.666V78.4336H53.8457Z" fill="white"/>
<path fill-rule="evenodd" clip-rule="evenodd" d="M39 60V37.5C39 37.5 33.375 33.6429 24 33V54.2143C24 54.2143 34.625 54.8571 39 60ZM56 54.2143V33C46.625 33.6429 41 37.5 41 37.5V60C45.375 54.8571 56 54.2143 56 54.2143ZM57.1 57.2927V37H59V59.1951C59 59.1951 50.7667 57.9268 40 63C29.2333 57.9268 21 59.1951 21 59.1951V37H22.9V57.2927C22.9 57.2927 32.4 57.2927 40 62.5561C47.6 57.2927 57.1 57.2927 57.1 57.2927Z" fill="white"/>
</g>
<defs>
<clipPath id="clip0_2966_22077">
<rect width="80" height="100" fill="white"/>
</clipPath>
</defs>
</svg>
