<svg style="position: absolute; width: 0; height: 0; overflow: hidden;" xmlns="http://www.w3.org/2000/svg" viewBox="0 0 100 127" version="1.1" width="100" height="127">
<symbol id="svg-format-djvu">
  <path d="M95 23V119C95 119.796 94.6839 120.559 94.1213 121.121C93.5587 121.684 92.7956 122 92 122H8C7.20435 122 6.44129 121.684 5.87868 121.121C5.31607 120.559 5 119.796 5 119V8C5 7.20435 5.31607 6.44129 5.87868 5.87868C6.44129 5.31607 7.20435 5 8 5H77L95 23Z" fill="#BC8C18"/>
  <path opacity="0.2" d="M95 23H80C79.2044 23 78.4413 22.6839 77.8787 22.1213C77.3161 21.5587 77 20.7956 77 20V5L95 23Z" fill="black"/>
  <path d="M44.5845 109.635C44.5845 111.045 44.1821 112.125 43.3774 112.875C42.5767 113.625 41.4185 114 39.9028 114H37.4771V105.434H40.1665C41.5649 105.434 42.6509 105.803 43.4243 106.541C44.1978 107.279 44.5845 108.311 44.5845 109.635ZM42.6978 109.682C42.6978 107.842 41.8853 106.922 40.2603 106.922H39.2935V112.5H40.0728C41.8228 112.5 42.6978 111.561 42.6978 109.682ZM45.6919 116.883C45.2349 116.883 44.8423 116.834 44.5142 116.736V115.33C44.7876 115.404 45.0669 115.441 45.3521 115.441C45.6528 115.441 45.8716 115.357 46.0083 115.189C46.1489 115.021 46.2192 114.773 46.2192 114.445V107.449H48.0063V114.709C48.0063 115.404 47.8052 115.939 47.4028 116.314C47.0005 116.693 46.4302 116.883 45.6919 116.883ZM46.1431 105.756C46.1431 105.174 46.4673 104.883 47.1157 104.883C47.7642 104.883 48.0884 105.174 48.0884 105.756C48.0884 106.033 48.0063 106.25 47.8423 106.406C47.6821 106.559 47.4399 106.635 47.1157 106.635C46.4673 106.635 46.1431 106.342 46.1431 105.756ZM54.9146 105.434H56.7485L53.8364 114H51.856L48.9497 105.434H50.7837L52.395 110.531C52.4849 110.832 52.5767 111.184 52.6704 111.586C52.7681 111.984 52.8286 112.262 52.8521 112.418C52.895 112.059 53.0415 111.43 53.2915 110.531L54.9146 105.434ZM62.3325 114L62.0923 113.162H61.9985C61.8071 113.467 61.5356 113.703 61.1841 113.871C60.8325 114.035 60.4321 114.117 59.9829 114.117C59.2134 114.117 58.6333 113.912 58.2427 113.502C57.8521 113.088 57.6567 112.494 57.6567 111.721V107.449H59.4438V111.275C59.4438 111.748 59.5278 112.104 59.6958 112.342C59.8638 112.576 60.1313 112.693 60.4985 112.693C60.9985 112.693 61.3599 112.527 61.5825 112.195C61.8052 111.859 61.9165 111.305 61.9165 110.531V107.449H63.7036V114H62.3325Z" fill="white"/>
  <path fill-rule="evenodd" clip-rule="evenodd" d="M27 58V52V50H29H35H44H50H52V52V58H50V52H44V74H49V76H44H35H30V74H35V52H29V58H27Z" fill="white"/>
  <path fill-rule="evenodd" clip-rule="evenodd" d="M27 58V52V50H29H35H44H50H52V52V58H50V52H44V74H49V76H44H35H30V74H35V52H29V58H27Z" fill="white"/>
  <rect x="55" y="50" width="19" height="2" fill="white"/>
  <rect x="55" y="50" width="19" height="2" fill="white"/>
  <rect x="55" y="58" width="19" height="2" fill="white"/>
  <rect x="55" y="58" width="19" height="2" fill="white"/>
  <rect x="55" y="66" width="19" height="2" fill="white"/>
  <rect x="55" y="66" width="19" height="2" fill="white"/>
  <rect x="55" y="74" width="19" height="2" fill="white"/>
  <rect x="55" y="74" width="19" height="2" fill="white"/>
  <path fill-rule="evenodd" clip-rule="evenodd" d="M80 43.4348H21V82.5653H80V43.4348ZM19 41.4348V84.5653H82V41.4348H19Z" fill="white"/>
  </symbol>
</svg>
