<svg width="24" height="30" fill="none" xmlns="http://www.w3.org/2000/svg"><g clip-path="url(#a)"><path d="M1 1h14.3L23 8.703V29H1V1z" fill="#fff"/><path d="M1 29V1h14.3L23 8.7V29H1zM15.3 0H0v30h24V8.7L15.3 0z" fill="#BFBFBF"/><path d="M3 18a1 1 0 0 0-1 1v7a1 1 0 0 0 1 1h18a1 1 0 0 0 1-1v-7a1 1 0 0 0-1-1H3zm1 7v-5h3v1H5v3h2v1H4zm3-1v-3h1v3H7zm12-4v1h1v1h-1v-1h-2v3h2v-1h1v1h-1v1h-2v-1h-1v-3h1v-1h2zm-8 1v-1h2v1h-2zm0 3h-1v-3h1v3zm2 0v1h-2v-1h2zm0 0v-3h1v3h-1z" fill="#1E7AAA"/><path d="M15 5H3v2h12V5zM15 8H3v2h12V8zM21 11H3v2h18v-2zM3 14h13v2H3v-2z" fill="#C4C4C4"/><path opacity=".3" d="M14 10V1h1v8h8v1h-9z" fill="#000"/></g><defs><clipPath id="a"><path fill="#fff" d="M0 0h24v30H0z"/></clipPath></defs></svg>