<svg width="90" height="117" viewBox="0 0 90 117" fill="none" xmlns="http://www.w3.org/2000/svg">
<symbol id="svg-format-docm">
<path d="M90 18V114C90 114.796 89.6839 115.559 89.1213 116.121C88.5587 116.684 87.7956 117 87 117H3C2.20435 117 1.44129 116.684 0.87868 116.121C0.316071 115.559 0 114.796 0 114V3C0 2.20435 0.316071 1.44129 0.87868 0.87868C1.44129 0.316071 2.20435 0 3 0H72L90 18Z" fill="#214479"/>
<path opacity="0.2" d="M90 18H75C74.2044 18 73.4413 17.6839 72.8787 17.1213C72.3161 16.5587 72 15.7956 72 15V0L90 18Z" fill="black"/>
<path d="M34.4824 104.635C34.4824 106.045 34.0801 107.125 33.2754 107.875C32.4746 108.625 31.3164 109 29.8008 109H27.375V100.434H30.0645C31.4629 100.434 32.5488 100.803 33.3223 101.541C34.0957 102.279 34.4824 103.311 34.4824 104.635ZM32.5957 104.682C32.5957 102.842 31.7832 101.922 30.1582 101.922H29.1914V107.5H29.9707C31.7207 107.5 32.5957 106.561 32.5957 104.682ZM44.0332 104.705C44.0332 106.123 43.6816 107.213 42.9785 107.975C42.2754 108.736 41.2676 109.117 39.9551 109.117C38.6426 109.117 37.6348 108.736 36.9316 107.975C36.2285 107.213 35.877 106.119 35.877 104.693C35.877 103.268 36.2285 102.18 36.9316 101.43C37.6387 100.676 38.6504 100.299 39.9668 100.299C41.2832 100.299 42.2891 100.678 42.9844 101.436C43.6836 102.193 44.0332 103.283 44.0332 104.705ZM37.7812 104.705C37.7812 105.662 37.9629 106.383 38.3262 106.867C38.6895 107.352 39.2324 107.594 39.9551 107.594C41.4043 107.594 42.1289 106.631 42.1289 104.705C42.1289 102.775 41.4082 101.811 39.9668 101.811C39.2441 101.811 38.6992 102.055 38.332 102.543C37.9648 103.027 37.7812 103.748 37.7812 104.705ZM49.4473 101.822C48.7637 101.822 48.2344 102.08 47.8594 102.596C47.4844 103.107 47.2969 103.822 47.2969 104.74C47.2969 106.65 48.0137 107.605 49.4473 107.605C50.0488 107.605 50.7773 107.455 51.6328 107.154V108.678C50.9297 108.971 50.1445 109.117 49.2773 109.117C48.0312 109.117 47.0781 108.74 46.418 107.986C45.7578 107.229 45.4277 106.143 45.4277 104.729C45.4277 103.838 45.5898 103.059 45.9141 102.391C46.2383 101.719 46.7031 101.205 47.3086 100.85C47.918 100.49 48.6309 100.311 49.4473 100.311C50.2793 100.311 51.1152 100.512 51.9551 100.914L51.3691 102.391C51.0488 102.238 50.7266 102.105 50.4023 101.992C50.0781 101.879 49.7598 101.822 49.4473 101.822ZM57.0879 109L55.0254 102.279H54.9727C55.0469 103.646 55.084 104.559 55.084 105.016V109H53.4609V100.434H55.9336L57.9609 106.984H57.9961L60.1465 100.434H62.6191V109H60.9258V104.945C60.9258 104.754 60.9277 104.533 60.9316 104.283C60.9395 104.033 60.9668 103.369 61.0137 102.291H60.9609L58.752 109H57.0879Z" fill="white"/>
<path d="M62.8 43L56.5 70L49.5 43H46.5H43.5L36.5 70L30.2 43H24.4L32.9 77H39.3L46.5 49.1L53.7 77H60.1L68.6 43H62.8Z" fill="white"/>
<path d="M10 12C10 10.8954 10.8954 10 12 10H24C25.1046 10 26 10.8954 26 12V21C26 22.1046 25.1046 23 24 23H12C10.8954 23 10 22.1046 10 21V12Z" fill="white"/>
<path d="M17.2969 21L14.8125 13.8457H14.7656C14.832 14.9082 14.8652 15.9043 14.8652 16.834V21H13.5938V12.4336H15.5684L17.9473 19.248H17.9824L20.4316 12.4336H22.4121V21H21.0645V16.7637C21.0645 16.3379 21.0742 15.7832 21.0938 15.0996C21.1172 14.416 21.1367 14.002 21.1523 13.8574H21.1055L18.5332 21H17.2969Z" fill="#214479"/>
</symbol>
</svg>
