<svg style="position: absolute; width: 0; height: 0; overflow: hidden;" width="100" height="127" viewBox="0 0 100 127" fill="none" xmlns="http://www.w3.org/2000/svg">
<symbol id="svg-format-docm">
<path d="M95 23V119C95 119.796 94.6839 120.559 94.1213 121.121C93.5587 121.684 92.7956 122 92 122H8C7.20435 122 6.44129 121.684 5.87868 121.121C5.31607 120.559 5 119.796 5 119V8C5 7.20435 5.31607 6.44129 5.87868 5.87868C6.44129 5.31607 7.20435 5 8 5H77L95 23Z" fill="#214479"/>
<path opacity="0.2" d="M95 23H80C79.2044 23 78.4413 22.6839 77.8787 22.1213C77.3161 21.5587 77 20.7956 77 20V5L95 23Z" fill="black"/>
<path d="M39.4824 109.635C39.4824 111.045 39.0801 112.125 38.2754 112.875C37.4746 113.625 36.3164 114 34.8008 114H32.375V105.434H35.0645C36.4629 105.434 37.5488 105.803 38.3223 106.541C39.0957 107.279 39.4824 108.311 39.4824 109.635ZM37.5957 109.682C37.5957 107.842 36.7832 106.922 35.1582 106.922H34.1914V112.5H34.9707C36.7207 112.5 37.5957 111.561 37.5957 109.682ZM49.0332 109.705C49.0332 111.123 48.6816 112.213 47.9785 112.975C47.2754 113.736 46.2676 114.117 44.9551 114.117C43.6426 114.117 42.6348 113.736 41.9316 112.975C41.2285 112.213 40.877 111.119 40.877 109.693C40.877 108.268 41.2285 107.18 41.9316 106.43C42.6387 105.676 43.6504 105.299 44.9668 105.299C46.2832 105.299 47.2891 105.678 47.9844 106.436C48.6836 107.193 49.0332 108.283 49.0332 109.705ZM42.7812 109.705C42.7812 110.662 42.9629 111.383 43.3262 111.867C43.6895 112.352 44.2324 112.594 44.9551 112.594C46.4043 112.594 47.1289 111.631 47.1289 109.705C47.1289 107.775 46.4082 106.811 44.9668 106.811C44.2441 106.811 43.6992 107.055 43.332 107.543C42.9648 108.027 42.7812 108.748 42.7812 109.705ZM54.4473 106.822C53.7637 106.822 53.2344 107.08 52.8594 107.596C52.4844 108.107 52.2969 108.822 52.2969 109.74C52.2969 111.65 53.0137 112.605 54.4473 112.605C55.0488 112.605 55.7773 112.455 56.6328 112.154V113.678C55.9297 113.971 55.1445 114.117 54.2773 114.117C53.0312 114.117 52.0781 113.74 51.418 112.986C50.7578 112.229 50.4277 111.143 50.4277 109.729C50.4277 108.838 50.5898 108.059 50.9141 107.391C51.2383 106.719 51.7031 106.205 52.3086 105.85C52.918 105.49 53.6309 105.311 54.4473 105.311C55.2793 105.311 56.1152 105.512 56.9551 105.914L56.3691 107.391C56.0488 107.238 55.7266 107.105 55.4023 106.992C55.0781 106.879 54.7598 106.822 54.4473 106.822ZM62.0879 114L60.0254 107.279H59.9727C60.0469 108.646 60.084 109.559 60.084 110.016V114H58.4609V105.434H60.9336L62.9609 111.984H62.9961L65.1465 105.434H67.6191V114H65.9258V109.945C65.9258 109.754 65.9277 109.533 65.9316 109.283C65.9395 109.033 65.9668 108.369 66.0137 107.291H65.9609L63.752 114H62.0879Z" fill="white"/>
<path d="M67.8 48L61.5 75L54.5 48H51.5H48.5L41.5 75L35.2 48H29.4L37.9 82H44.3L51.5 54.1L58.7 82H65.1L73.6 48H67.8Z" fill="white"/>
<path d="M15 17C15 15.8954 15.8954 15 17 15H29C30.1046 15 31 15.8954 31 17V26C31 27.1046 30.1046 28 29 28H17C15.8954 28 15 27.1046 15 26V17Z" fill="white"/>
<path d="M22.2969 26L19.8125 18.8457H19.7656C19.832 19.9082 19.8652 20.9043 19.8652 21.834V26H18.5938V17.4336H20.5684L22.9473 24.248H22.9824L25.4316 17.4336H27.4121V26H26.0645V21.7637C26.0645 21.3379 26.0742 20.7832 26.0938 20.0996C26.1172 19.416 26.1367 19.002 26.1523 18.8574H26.1055L23.5332 26H22.2969Z" fill="#214479"/>
</symbol>
</svg>
