<svg width="80" height="100" viewBox="0 0 80 100" fill="none" xmlns="http://www.w3.org/2000/svg">
<g clip-path="url(#clip0_2964_22032)">
<path d="M75 19V92.6667C75 93.2855 74.7542 93.879 74.3166 94.3166C73.879 94.7542 73.2855 95 72.6667 95H7.33333C6.71449 95 6.121 94.7542 5.68342 94.3166C5.24583 93.879 5 93.2855 5 92.6667V7.33333C5 6.71449 5.24583 6.121 5.68342 5.68342C6.121 5.24583 6.71449 5 7.33333 5H61L75 19Z" fill="#214479"/>
<path opacity="0.2" d="M75 19H63.3333C62.7145 19 62.121 18.7542 61.6834 18.3166C61.2458 17.879 61 17.2855 61 16.6667V5L75 19Z" fill="black"/>
<path d="M29.4824 82.6348C29.4824 83.5996 29.2969 84.4062 28.9258 85.0547C28.5586 85.6992 28.0254 86.1855 27.3262 86.5137C26.627 86.8379 25.7852 87 24.8008 87H22.375V78.4336H25.0645C25.9629 78.4336 26.7422 78.5938 27.4023 78.9141C28.0625 79.2305 28.5742 79.7012 28.9375 80.3262C29.3008 80.9473 29.4824 81.7168 29.4824 82.6348ZM27.5957 82.6816C27.5957 82.0488 27.502 81.5293 27.3145 81.123C27.1309 80.7129 26.8574 80.4102 26.4941 80.2148C26.1348 80.0195 25.6895 79.9219 25.1582 79.9219H24.1914V85.5H24.9707C25.8574 85.5 26.5156 85.2637 26.9453 84.791C27.3789 84.3184 27.5957 83.6152 27.5957 82.6816ZM39.0332 82.7051C39.0332 83.3652 38.9512 83.9668 38.7871 84.5098C38.623 85.0488 38.373 85.5137 38.0371 85.9043C37.7051 86.2949 37.2832 86.5957 36.7715 86.8066C36.2598 87.0137 35.6543 87.1172 34.9551 87.1172C34.2559 87.1172 33.6504 87.0137 33.1387 86.8066C32.627 86.5957 32.2031 86.2949 31.8672 85.9043C31.5352 85.5137 31.2871 85.0469 31.123 84.5039C30.959 83.9609 30.877 83.3574 30.877 82.6934C30.877 81.8066 31.0215 81.0352 31.3105 80.3789C31.6035 79.7188 32.0527 79.207 32.6582 78.8438C33.2637 78.4805 34.0332 78.2988 34.9668 78.2988C35.8965 78.2988 36.6602 78.4805 37.2578 78.8438C37.8594 79.207 38.3047 79.7188 38.5938 80.3789C38.8867 81.0391 39.0332 81.8145 39.0332 82.7051ZM32.7812 82.7051C32.7812 83.3027 32.8555 83.8184 33.0039 84.252C33.1562 84.6816 33.3926 85.0137 33.7129 85.248C34.0332 85.4785 34.4473 85.5938 34.9551 85.5938C35.4707 85.5938 35.8887 85.4785 36.209 85.248C36.5293 85.0137 36.7617 84.6816 36.9062 84.252C37.0547 83.8184 37.1289 83.3027 37.1289 82.7051C37.1289 81.8066 36.9609 81.0996 36.625 80.584C36.2891 80.0684 35.7363 79.8105 34.9668 79.8105C34.4551 79.8105 34.0371 79.9277 33.7129 80.1621C33.3926 80.3926 33.1562 80.7246 33.0039 81.1582C32.8555 81.5879 32.7812 82.1035 32.7812 82.7051ZM44.4473 79.8223C44.0996 79.8223 43.791 79.8906 43.5215 80.0273C43.2559 80.1602 43.0312 80.3535 42.8477 80.6074C42.668 80.8613 42.5312 81.168 42.4375 81.5273C42.3438 81.8867 42.2969 82.291 42.2969 82.7402C42.2969 83.3457 42.3711 83.8633 42.5195 84.293C42.6719 84.7188 42.9062 85.0449 43.2227 85.2715C43.5391 85.4941 43.9473 85.6055 44.4473 85.6055C44.7949 85.6055 45.1426 85.5664 45.4902 85.4883C45.8418 85.4102 46.2227 85.2988 46.6328 85.1543V86.6777C46.2539 86.834 45.8809 86.9453 45.5137 87.0117C45.1465 87.082 44.7344 87.1172 44.2773 87.1172C43.3945 87.1172 42.668 86.9355 42.0977 86.5723C41.5312 86.2051 41.1113 85.6934 40.8379 85.0371C40.5645 84.377 40.4277 83.6074 40.4277 82.7285C40.4277 82.0801 40.5156 81.4863 40.6914 80.9473C40.8672 80.4082 41.125 79.9414 41.4648 79.5469C41.8047 79.1523 42.2246 78.8477 42.7246 78.6328C43.2246 78.418 43.7988 78.3105 44.4473 78.3105C44.873 78.3105 45.2988 78.3652 45.7246 78.4746C46.1543 78.5801 46.5645 78.7266 46.9551 78.9141L46.3691 80.3906C46.0488 80.2383 45.7266 80.1055 45.4023 79.9922C45.0781 79.8789 44.7598 79.8223 44.4473 79.8223ZM52.0879 87L50.0254 80.2793H49.9727C49.9805 80.4395 49.9922 80.6816 50.0078 81.0059C50.0273 81.3262 50.0449 81.668 50.0605 82.0312C50.0762 82.3945 50.084 82.7227 50.084 83.0156V87H48.4609V78.4336H50.9336L52.9609 84.9844H52.9961L55.1465 78.4336H57.6191V87H55.9258V82.9453C55.9258 82.6758 55.9297 82.3652 55.9375 82.0137C55.9492 81.6621 55.9629 81.3281 55.9785 81.0117C55.9941 80.6914 56.0059 80.4512 56.0137 80.291H55.9609L53.752 87H52.0879Z" fill="white"/>
<path d="M51.8009 36L47.2398 56.6471L42.1719 36H40H37.8281L32.7602 56.6471L28.1991 36H24L30.1538 62H34.7873L40 40.6647L45.2127 62H49.8462L56 36H51.8009Z" fill="white"/>
<path fill-rule="evenodd" clip-rule="evenodd" d="M12 10C10.8954 10 10 10.8954 10 12V21C10 22.1046 10.8954 23 12 23H21C22.1046 23 23 22.1046 23 21V12C23 10.8954 22.1046 10 21 10H12ZM14.6641 12.8906H13.9902H13.4238H12.7549V20H14.2148V17.9785L14.0691 14.6767L15.9922 20H16.9883L18.9114 14.6767L18.7656 17.9785V20H20.2305V12.8906H19.5566H18.9902H18.3164L16.4902 18.1104L14.6641 12.8906Z" fill="white"/>
</g>
<defs>
<clipPath id="clip0_2964_22032">
<rect width="80" height="100" fill="white"/>
</clipPath>
</defs>
</svg>
