<svg xmlns="http://www.w3.org/2000/svg" viewBox="0 0 100 127" version="1.1" width="100" height="127">
  <symbol id="svg-format-docx">
    <path d="M95,23v96a2.9,2.9,0,0,1-2.8,3H8a2.9,2.9,0,0,1-3-2.8V8A2.9,2.9,0,0,1,7.8,5H77Z" style="fill: #214479"/>
    <path d="M95,23H80a2.9,2.9,0,0,1-3-2.8V5Z" style="opacity: 0.20000000298023224;isolation: isolate"/>
    <g>
      <path d="M41.1,108.6a4.5,4.5,0,0,1-1.2,3.3,4.8,4.8,0,0,1-3.4,1.1H34v-8.6h2.7a4.9,4.9,0,0,1,3.3,1.1A4,4,0,0,1,41.1,108.6Zm-1.8.1c0-1.9-.9-2.8-2.5-2.8h-.9v5.6h.7C38.4,111.5,39.3,110.6,39.3,108.7Z" style="fill: #fff"/>
      <path d="M50.7,108.7a4.9,4.9,0,0,1-1.1,3.3,4.6,4.6,0,0,1-6,0,5.4,5.4,0,0,1,0-6.6,3.8,3.8,0,0,1,3-1.1,4,4,0,0,1,3.1,1.1A5.6,5.6,0,0,1,50.7,108.7Zm-6.3,0a3.3,3.3,0,0,0,.6,2.2,2,2,0,0,0,1.6.7c1.5,0,2.2-1,2.2-2.9s-.7-2.9-2.2-2.9a2.4,2.4,0,0,0-1.6.7A3.3,3.3,0,0,0,44.4,108.7Z" style="fill: #fff"/>
      <path d="M56.1,105.8a2.1,2.1,0,0,0-1.6.8,3.1,3.1,0,0,0-.5,2.1c0,2,.7,2.9,2.1,2.9a5.4,5.4,0,0,0,2.2-.4v1.5a6.7,6.7,0,0,1-2.4.4,3.4,3.4,0,0,1-2.8-1.1,4.8,4.8,0,0,1-1-3.3,5.9,5.9,0,0,1,.5-2.3,3.6,3.6,0,0,1,1.4-1.6,5.1,5.1,0,0,1,4.6.1l-.6,1.5-.9-.4Z" style="fill: #fff"/>
      <path d="M67,113H65l-2-3.2L61,113H59l2.9-4.4-2.7-4.2h2l1.9,3.1,1.8-3.1h1.9l-2.7,4.3Z" style="fill: #fff"/>
    </g>
    <polygon points="67.8 48 61.5 75 54.5 48 51.5 48 48.5 48 41.5 75 35.2 48 29.4 48 37.9 82 44.3 82 51.5 54.1 58.7 82 65.1 82 73.6 48 67.8 48" style="fill: #fff"/>
  </symbol>
</svg>
