<svg width="24" height="30" viewBox="0 0 24 30" fill="none" xmlns="http://www.w3.org/2000/svg">
    <path d="M1.5 2.5a2 2 0 0 1 2-2h13.283a1 1 0 0 1 .71.296l4.665 4.71a1 1 0 0 1 .29.701l.048 21.289a2 2 0 0 1-2 2.004H3.5a2 2 0 0 1-2-2z" fill="#fff" stroke="#BBB"/>
    <path d="M16.5.5V5A1.5 1.5 0 0 0 18 6.5h4.5" stroke="#BBB"/>
    <rect x="5" y="19" width="5" height="2" rx="1" fill="#A9CBDD"/>
    <rect x="5" y="15" width="5" height="2" rx="1" fill="#A9CBDD"/>
    <rect x="5" y="11" width="14" height="2" rx="1" fill="#A9CBDD"/>
    <rect x="12" y="15" width="12" height="12" rx="2" fill="#287CA9"/>
    <path d="m22.93 17.43-1.79 7.14h-1.98l-.83-3.45a5 5 0 0 1-.07-.32q-.04-.219-.1-.48-.05-.27-.09-.51-.039-.25-.06-.4-.02.15-.07.4-.039.24-.09.51-.05.261-.1.48-.04.21-.07.32l-.84 3.45h-1.97l-1.8-7.14h1.66l.85 3.75q.04.15.09.4.05.24.1.52.051.27.09.53.05.25.07.43.03-.24.08-.55l.12-.63q.06-.32.12-.6t.11-.45l.85-3.4h1.59l.85 3.4q.03.171.09.45.07.28.13.61.07.32.12.63t.08.54q.03-.249.09-.6l.14-.71q.07-.36.12-.56l.85-3.76z" fill="#fff"/>
</svg>
