<svg width="80" height="100" viewBox="0 0 80 100" fill="none" xmlns="http://www.w3.org/2000/svg">
<g clip-path="url(#clip0_2964_22056)">
<path d="M75 19V92.6667C75 93.2855 74.7542 93.879 74.3166 94.3166C73.879 94.7542 73.2855 95 72.6667 95H7.33333C6.71449 95 6.121 94.7542 5.68342 94.3166C5.24583 93.879 5 93.2855 5 92.6667V7.33333C5 6.71449 5.24583 6.121 5.68342 5.68342C6.121 5.24583 6.71449 5 7.33333 5H61L75 19Z" fill="#214479"/>
<path opacity="0.2" d="M75 19H63.3333C62.7145 19 62.121 18.7542 61.6834 18.3166C61.2458 17.879 61 17.2855 61 16.6667V5L75 19Z" fill="black"/>
<path d="M31.1406 82.6348C31.1406 83.5996 30.9551 84.4062 30.584 85.0547C30.2168 85.6992 29.6836 86.1855 28.9844 86.5137C28.2852 86.8379 27.4434 87 26.459 87H24.0332V78.4336H26.7227C27.6211 78.4336 28.4004 78.5938 29.0605 78.9141C29.7207 79.2305 30.2324 79.7012 30.5957 80.3262C30.959 80.9473 31.1406 81.7168 31.1406 82.6348ZM29.2539 82.6816C29.2539 82.0488 29.1602 81.5293 28.9727 81.123C28.7891 80.7129 28.5156 80.4102 28.1523 80.2148C27.793 80.0195 27.3477 79.9219 26.8164 79.9219H25.8496V85.5H26.6289C27.5156 85.5 28.1738 85.2637 28.6035 84.791C29.0371 84.3184 29.2539 83.6152 29.2539 82.6816ZM40.6914 82.7051C40.6914 83.3652 40.6094 83.9668 40.4453 84.5098C40.2812 85.0488 40.0312 85.5137 39.6953 85.9043C39.3633 86.2949 38.9414 86.5957 38.4297 86.8066C37.918 87.0137 37.3125 87.1172 36.6133 87.1172C35.9141 87.1172 35.3086 87.0137 34.7969 86.8066C34.2852 86.5957 33.8613 86.2949 33.5254 85.9043C33.1934 85.5137 32.9453 85.0469 32.7812 84.5039C32.6172 83.9609 32.5352 83.3574 32.5352 82.6934C32.5352 81.8066 32.6797 81.0352 32.9688 80.3789C33.2617 79.7188 33.7109 79.207 34.3164 78.8438C34.9219 78.4805 35.6914 78.2988 36.625 78.2988C37.5547 78.2988 38.3184 78.4805 38.916 78.8438C39.5176 79.207 39.9629 79.7188 40.252 80.3789C40.5449 81.0391 40.6914 81.8145 40.6914 82.7051ZM34.4395 82.7051C34.4395 83.3027 34.5137 83.8184 34.6621 84.252C34.8145 84.6816 35.0508 85.0137 35.3711 85.248C35.6914 85.4785 36.1055 85.5938 36.6133 85.5938C37.1289 85.5938 37.5469 85.4785 37.8672 85.248C38.1875 85.0137 38.4199 84.6816 38.5645 84.252C38.7129 83.8184 38.7871 83.3027 38.7871 82.7051C38.7871 81.8066 38.6191 81.0996 38.2832 80.584C37.9473 80.0684 37.3945 79.8105 36.625 79.8105C36.1133 79.8105 35.6953 79.9277 35.3711 80.1621C35.0508 80.3926 34.8145 80.7246 34.6621 81.1582C34.5137 81.5879 34.4395 82.1035 34.4395 82.7051ZM46.1055 79.8223C45.7578 79.8223 45.4492 79.8906 45.1797 80.0273C44.9141 80.1602 44.6895 80.3535 44.5059 80.6074C44.3262 80.8613 44.1895 81.168 44.0957 81.5273C44.002 81.8867 43.9551 82.291 43.9551 82.7402C43.9551 83.3457 44.0293 83.8633 44.1777 84.293C44.3301 84.7188 44.5645 85.0449 44.8809 85.2715C45.1973 85.4941 45.6055 85.6055 46.1055 85.6055C46.4531 85.6055 46.8008 85.5664 47.1484 85.4883C47.5 85.4102 47.8809 85.2988 48.291 85.1543V86.6777C47.9121 86.834 47.5391 86.9453 47.1719 87.0117C46.8047 87.082 46.3926 87.1172 45.9355 87.1172C45.0527 87.1172 44.3262 86.9355 43.7559 86.5723C43.1895 86.2051 42.7695 85.6934 42.4961 85.0371C42.2227 84.377 42.0859 83.6074 42.0859 82.7285C42.0859 82.0801 42.1738 81.4863 42.3496 80.9473C42.5254 80.4082 42.7832 79.9414 43.123 79.5469C43.4629 79.1523 43.8828 78.8477 44.3828 78.6328C44.8828 78.418 45.457 78.3105 46.1055 78.3105C46.5312 78.3105 46.957 78.3652 47.3828 78.4746C47.8125 78.5801 48.2227 78.7266 48.6133 78.9141L48.0273 80.3906C47.707 80.2383 47.3848 80.1055 47.0605 79.9922C46.7363 79.8789 46.418 79.8223 46.1055 79.8223ZM57.0449 87H54.9707L52.9785 83.7598L50.9863 87H49.041L51.8828 82.582L49.2227 78.4336H51.2266L53.0723 81.5156L54.8828 78.4336H56.8398L54.1504 82.6816L57.0449 87Z" fill="white"/>
<path d="M51.8009 36L47.2398 56.6471L42.1719 36H40H37.8281L32.7602 56.6471L28.1991 36H24L30.1538 62H34.7873L40 40.6647L45.2127 62H49.8462L56 36H51.8009Z" fill="white"/>
</g>
<defs>
<clipPath id="clip0_2964_22056">
<rect width="80" height="100" fill="white"/>
</clipPath>
</defs>
</svg>
