<svg xmlns="http://www.w3.org/2000/svg" viewBox="0 0 100 127" version="1.1" width="100" height="127"><defs><style>.cls-2{opacity:0.2;}.cls-3{font-size:12px;font-family:OpenSans-Bold, Open Sans;font-weight:700;}.cls-3,.cls-4{fill:#fff;}</style></defs><symbol id="svg-format-docx"><path fill="#214479" d="M95,23v96a3,3,0,0,1-3,3H8a3,3,0,0,1-3-3V8A3,3,0,0,1,8,5H77Z"/><path class="cls-2" d="M95,23H80a3,3,0,0,1-3-3V5Z"/><text class="cls-3" transform="translate(32.96 113)">DOCX</text><polygon class="cls-4" points="67.8 48 61.5 75 54.5 48 51.5 48 48.5 48 41.5 75 35.2 48 29.4 48 37.9 82 44.3 82 51.5 54.1 58.7 82 65.1 82 73.6 48 67.8 48"/></symbol></svg>