<svg width="80" height="100" viewBox="0 0 80 100" fill="none" xmlns="http://www.w3.org/2000/svg">
<g clip-path="url(#clip0_2964_22050)">
<path d="M75 19V92.6667C75 93.2855 74.7542 93.879 74.3166 94.3166C73.879 94.7542 73.2855 95 72.6667 95H7.33333C6.71449 95 6.121 94.7542 5.68342 94.3166C5.24583 93.879 5 93.2855 5 92.6667V7.33333C5 6.71449 5.24583 6.121 5.68342 5.68342C6.121 5.24583 6.71449 5 7.33333 5H61L75 19Z" fill="#27ABA3"/>
<path d="M18 34H54.1761H62V35.625V46H18V34Z" stroke="white" stroke-width="2"/>
<path d="M18 52H54.1761H62V53.625V64H18V52Z" stroke="white" stroke-width="2"/>
<path opacity="0.2" d="M75 19H63.3333C62.7145 19 62.121 18.7542 61.6834 18.3166C61.2458 17.879 61 17.2855 61 16.6667V5L75 19Z" fill="black"/>
<path d="M27.8477 82.6348C27.8477 83.5996 27.6621 84.4062 27.291 85.0547C26.9238 85.6992 26.3906 86.1855 25.6914 86.5137C24.9922 86.8379 24.1504 87 23.166 87H20.7402V78.4336H23.4297C24.3281 78.4336 25.1074 78.5938 25.7676 78.9141C26.4277 79.2305 26.9395 79.7012 27.3027 80.3262C27.666 80.9473 27.8477 81.7168 27.8477 82.6348ZM25.9609 82.6816C25.9609 82.0488 25.8672 81.5293 25.6797 81.123C25.4961 80.7129 25.2227 80.4102 24.8594 80.2148C24.5 80.0195 24.0547 79.9219 23.5234 79.9219H22.5566V85.5H23.3359C24.2227 85.5 24.8809 85.2637 25.3105 84.791C25.7441 84.3184 25.9609 83.6152 25.9609 82.6816ZM37.3984 82.7051C37.3984 83.3652 37.3164 83.9668 37.1523 84.5098C36.9883 85.0488 36.7383 85.5137 36.4023 85.9043C36.0703 86.2949 35.6484 86.5957 35.1367 86.8066C34.625 87.0137 34.0195 87.1172 33.3203 87.1172C32.6211 87.1172 32.0156 87.0137 31.5039 86.8066C30.9922 86.5957 30.5684 86.2949 30.2324 85.9043C29.9004 85.5137 29.6523 85.0469 29.4883 84.5039C29.3242 83.9609 29.2422 83.3574 29.2422 82.6934C29.2422 81.8066 29.3867 81.0352 29.6758 80.3789C29.9688 79.7188 30.418 79.207 31.0234 78.8438C31.6289 78.4805 32.3984 78.2988 33.332 78.2988C34.2617 78.2988 35.0254 78.4805 35.623 78.8438C36.2246 79.207 36.6699 79.7188 36.959 80.3789C37.252 81.0391 37.3984 81.8145 37.3984 82.7051ZM31.1465 82.7051C31.1465 83.3027 31.2207 83.8184 31.3691 84.252C31.5215 84.6816 31.7578 85.0137 32.0781 85.248C32.3984 85.4785 32.8125 85.5938 33.3203 85.5938C33.8359 85.5938 34.2539 85.4785 34.5742 85.248C34.8945 85.0137 35.127 84.6816 35.2715 84.252C35.4199 83.8184 35.4941 83.3027 35.4941 82.7051C35.4941 81.8066 35.3262 81.0996 34.9902 80.584C34.6543 80.0684 34.1016 79.8105 33.332 79.8105C32.8203 79.8105 32.4023 79.9277 32.0781 80.1621C31.7578 80.3926 31.5215 80.7246 31.3691 81.1582C31.2207 81.5879 31.1465 82.1035 31.1465 82.7051ZM42.8125 79.8223C42.4648 79.8223 42.1562 79.8906 41.8867 80.0273C41.6211 80.1602 41.3965 80.3535 41.2129 80.6074C41.0332 80.8613 40.8965 81.168 40.8027 81.5273C40.709 81.8867 40.6621 82.291 40.6621 82.7402C40.6621 83.3457 40.7363 83.8633 40.8848 84.293C41.0371 84.7188 41.2715 85.0449 41.5879 85.2715C41.9043 85.4941 42.3125 85.6055 42.8125 85.6055C43.1602 85.6055 43.5078 85.5664 43.8555 85.4883C44.207 85.4102 44.5879 85.2988 44.998 85.1543V86.6777C44.6191 86.834 44.2461 86.9453 43.8789 87.0117C43.5117 87.082 43.0996 87.1172 42.6426 87.1172C41.7598 87.1172 41.0332 86.9355 40.4629 86.5723C39.8965 86.2051 39.4766 85.6934 39.2031 85.0371C38.9297 84.377 38.793 83.6074 38.793 82.7285C38.793 82.0801 38.8809 81.4863 39.0566 80.9473C39.2324 80.4082 39.4902 79.9414 39.8301 79.5469C40.1699 79.1523 40.5898 78.8477 41.0898 78.6328C41.5898 78.418 42.1641 78.3105 42.8125 78.3105C43.2383 78.3105 43.6641 78.3652 44.0898 78.4746C44.5195 78.5801 44.9297 78.7266 45.3203 78.9141L44.7344 80.3906C44.4141 80.2383 44.0918 80.1055 43.7676 79.9922C43.4434 79.8789 43.125 79.8223 42.8125 79.8223ZM53.752 87H51.6777L49.6855 83.7598L47.6934 87H45.748L48.5898 82.582L45.9297 78.4336H47.9336L49.7793 81.5156L51.5898 78.4336H53.5469L50.8574 82.6816L53.752 87ZM56.6172 87H54.8301V78.4336H59.7402V79.9219H56.6172V82.1309H59.5234V83.6133H56.6172V87Z" fill="white"/>
</g>
<defs>
<clipPath id="clip0_2964_22050">
<rect width="80" height="100" fill="white"/>
</clipPath>
</defs>
</svg>
