<svg style="position: absolute; width: 0; height: 0; overflow: hidden;" width="100" height="127" viewBox="0 0 100 127" fill="none" xmlns="http://www.w3.org/2000/svg">
<symbol id="svg-format-docxf">
<g>
    <path id="Vector" d="M95 23V119C95 119.796 94.6839 120.559 94.1213 121.121C93.5587 121.684 92.7956 122 92 122H8C7.20435 122 6.44129 121.684 5.87868 121.121C5.31607 120.559 5 119.796 5 119V8C5 7.20435 5.31607 6.44129 5.87868 5.87868C6.44129 5.31607 7.20435 5 8 5H77L95 23Z" fill="#27ABA3"/>
    <path id="Vector_2" opacity="0.2" d="M95 23H80C79.2044 23 78.4413 22.6839 77.8787 22.1213C77.3161 21.5587 77 20.7956 77 20V5L95 23Z" fill="black"/>
    <g id="DOCXF">
        <path d="M38.3176 109.635C38.3176 111.045 37.9153 112.125 37.1106 112.875C36.3098 113.625 35.1516 114 33.636 114H31.2102V105.434H33.8997C35.2981 105.434 36.384 105.803 37.1575 106.541C37.9309 107.279 38.3176 108.311 38.3176 109.635ZM36.4309 109.682C36.4309 107.842 35.6184 106.922 33.9934 106.922H33.0266V112.5H33.8059C35.5559 112.5 36.4309 111.561 36.4309 109.682Z" fill="white"/>
        <path d="M47.8684 109.705C47.8684 111.123 47.5168 112.213 46.8137 112.975C46.1106 113.736 45.1028 114.117 43.7903 114.117C42.4778 114.117 41.47 113.736 40.7668 112.975C40.0637 112.213 39.7122 111.119 39.7122 109.693C39.7122 108.268 40.0637 107.18 40.7668 106.43C41.4739 105.676 42.4856 105.299 43.802 105.299C45.1184 105.299 46.1243 105.678 46.8196 106.436C47.5188 107.193 47.8684 108.283 47.8684 109.705ZM41.6165 109.705C41.6165 110.662 41.7981 111.383 42.1614 111.867C42.5247 112.352 43.0676 112.594 43.7903 112.594C45.2395 112.594 45.9641 111.631 45.9641 109.705C45.9641 107.775 45.2434 106.811 43.802 106.811C43.0793 106.811 42.5344 107.055 42.1672 107.543C41.8 108.027 41.6165 108.748 41.6165 109.705Z" fill="white"/>
        <path d="M53.2825 106.822C52.5989 106.822 52.0696 107.08 51.6946 107.596C51.3196 108.107 51.1321 108.822 51.1321 109.74C51.1321 111.65 51.8489 112.605 53.2825 112.605C53.884 112.605 54.6125 112.455 55.468 112.154V113.678C54.7649 113.971 53.9797 114.117 53.1125 114.117C51.8665 114.117 50.9133 113.74 50.2532 112.986C49.593 112.229 49.2629 111.143 49.2629 109.729C49.2629 108.838 49.425 108.059 49.7493 107.391C50.0735 106.719 50.5383 106.205 51.1438 105.85C51.7532 105.49 52.4661 105.311 53.2825 105.311C54.1145 105.311 54.9504 105.512 55.7903 105.914L55.2043 107.391C54.884 107.238 54.5618 107.105 54.2375 106.992C53.9133 106.879 53.595 106.822 53.2825 106.822Z" fill="white"/>
        <path d="M64.2219 114H62.1477L60.1555 110.76L58.1633 114H56.218L59.0598 109.582L56.3997 105.434H58.4036L60.2493 108.516L62.0598 105.434H64.0168L61.3274 109.682L64.2219 114Z" fill="white"/>
        <path d="M67.0872 114H65.3V105.434H70.2102V106.922H67.0872V109.131H69.9934V110.613H67.0872V114Z" fill="white"/>
    </g>
    <path id="Rectangle 381 (Stroke)" fill-rule="evenodd" clip-rule="evenodd" d="M22 58H78V44H22V58ZM20 42V60H80V42H20Z" fill="white"/>
    <path id="Rectangle 387 (Stroke)" fill-rule="evenodd" clip-rule="evenodd" d="M22 82H78V68H22V82ZM20 66V84H80V66H20Z" fill="white"/>
</g>
</symbol>
</svg>
