<svg width="100" height="127" viewBox="0 0 100 127" fill="none" xmlns="http://www.w3.org/2000/svg">
<symbol id="svg-format-docxf">
<g>
<path id="Vector" d="M95 23V119C95 119.796 94.6839 120.559 94.1213 121.121C93.5587 121.684 92.7956 122 92 122H8C7.20435 122 6.44129 121.684 5.87868 121.121C5.31607 120.559 5 119.796 5 119V8C5 7.20435 5.31607 6.44129 5.87868 5.87868C6.44129 5.31607 7.20435 5 8 5H77L95 23Z" fill="#5D86C4"/>
<path id="Vector_2" opacity="0.2" d="M95 23H80C79.2044 23 78.4413 22.6839 77.8787 22.1213C77.3161 21.5587 77 20.7956 77 20V5L95 23Z" fill="black"/>
<g>
<path d="M38.3477 109.635C38.3477 111.045 37.9453 112.125 37.1406 112.875C36.3398 113.625 35.1816 114 33.666 114H31.2402V105.434H33.9297C35.3281 105.434 36.4141 105.803 37.1875 106.541C37.9609 107.279 38.3477 108.311 38.3477 109.635ZM36.4609 109.682C36.4609 107.842 35.6484 106.922 34.0234 106.922H33.0566V112.5H33.8359C35.5859 112.5 36.4609 111.561 36.4609 109.682Z" fill="white"/>
<path d="M47.8984 109.705C47.8984 111.123 47.5469 112.213 46.8438 112.975C46.1406 113.736 45.1328 114.117 43.8203 114.117C42.5078 114.117 41.5 113.736 40.7969 112.975C40.0938 112.213 39.7422 111.119 39.7422 109.693C39.7422 108.268 40.0938 107.18 40.7969 106.43C41.5039 105.676 42.5156 105.299 43.832 105.299C45.1484 105.299 46.1543 105.678 46.8496 106.436C47.5488 107.193 47.8984 108.283 47.8984 109.705ZM41.6465 109.705C41.6465 110.662 41.8281 111.383 42.1914 111.867C42.5547 112.352 43.0977 112.594 43.8203 112.594C45.2695 112.594 45.9941 111.631 45.9941 109.705C45.9941 107.775 45.2734 106.811 43.832 106.811C43.1094 106.811 42.5645 107.055 42.1973 107.543C41.8301 108.027 41.6465 108.748 41.6465 109.705Z" fill="white"/>
<path d="M53.3125 106.822C52.6289 106.822 52.0996 107.08 51.7246 107.596C51.3496 108.107 51.1621 108.822 51.1621 109.74C51.1621 111.65 51.8789 112.605 53.3125 112.605C53.9141 112.605 54.6426 112.455 55.498 112.154V113.678C54.7949 113.971 54.0098 114.117 53.1426 114.117C51.8965 114.117 50.9434 113.74 50.2832 112.986C49.623 112.229 49.293 111.143 49.293 109.729C49.293 108.838 49.4551 108.059 49.7793 107.391C50.1035 106.719 50.5684 106.205 51.1738 105.85C51.7832 105.49 52.4961 105.311 53.3125 105.311C54.1445 105.311 54.9805 105.512 55.8203 105.914L55.2344 107.391C54.9141 107.238 54.5918 107.105 54.2676 106.992C53.9434 106.879 53.625 106.822 53.3125 106.822Z" fill="white"/>
<path d="M64.252 114H62.1777L60.1855 110.76L58.1934 114H56.248L59.0898 109.582L56.4297 105.434H58.4336L60.2793 108.516L62.0898 105.434H64.0469L61.3574 109.682L64.252 114Z" fill="white"/>
<path d="M67.1172 114H65.3301V105.434H70.2402V106.922H67.1172V109.131H70.0234V110.613H67.1172V114Z" fill="white"/>
</g>
<path id="Vector_3" d="M67.8 48L61.5 75L54.5 48H51.5H48.5L41.5 75L35.2 48H29.4L37.9 82H44.3L51.5 54.1L58.7 82H65.1L73.6 48H67.8Z" fill="white"/>
</g>
</symbol>
</svg>
