<svg width="24" height="30" viewBox="0 0 24 30" fill="none" xmlns="http://www.w3.org/2000/svg">
    <path d="M1 2a2 2 0 0 1 2-2h13.586a1 1 0 0 1 .707.293l5.414 5.414a1 1 0 0 1 .293.707V28a2 2 0 0 1-2 2H3a2 2 0 0 1-2-2z" fill="#fff"/>
    <path d="M1 2a2 2 0 0 1 2-2h13.586a1 1 0 0 1 .707.293l5.414 5.414a1 1 0 0 1 .293.707V28a2 2 0 0 1-2 2H3a2 2 0 0 1-2-2zm21 5h-3.12c-.403 0-.735 0-1.006-.022-.281-.023-.54-.072-.782-.196a2 2 0 0 1-.874-.874c-.124-.243-.173-.501-.196-.782C16 4.856 16 4.523 16 4.12V1H3a1 1 0 0 0-1 1v26a1 1 0 0 0 1 1h18a1 1 0 0 0 1-1zm-.414-1L17 1.414V4.1c0 .428 0 .72.019.944.018.22.05.332.09.41a1 1 0 0 0 .437.437c.078.04.19.072.41.09.225.019.516.019.944.019z" fill="#BBB"/>
    <path d="M6 11a1 1 0 1 0 0 2h12a1 1 0 1 0 0-2zm-1 5a1 1 0 0 1 1-1h3a1 1 0 1 1 0 2H6a1 1 0 0 1-1-1m0 4a1 1 0 0 1 1-1h3a1 1 0 1 1 0 2H6a1 1 0 0 1-1-1" fill="#A9CBDD"/>
    <path d="M12 18.2c0-1.12 0-1.68.218-2.108a2 2 0 0 1 .874-.874C13.52 15 14.08 15 15.2 15h5.6c1.12 0 1.68 0 2.108.218a2 2 0 0 1 .874.874C24 16.52 24 17.08 24 18.2v5.6c0 1.12 0 1.68-.218 2.108a2 2 0 0 1-.874.874C22.48 27 21.92 27 20.8 27h-5.6c-1.12 0-1.68 0-2.108-.218a2 2 0 0 1-.874-.874C12 25.48 12 24.92 12 23.8z" fill="#287CA9"/>
    <path d="M22.437 18.074 20.826 24.5h-1.782l-.747-3.105a4 4 0 0 1-.063-.288 10 10 0 0 0-.09-.432 15 15 0 0 1-.135-.819 6 6 0 0 1-.063.36 13 13 0 0 1-.171.891 4 4 0 0 1-.063.288l-.756 3.105h-1.773l-1.62-6.426h1.494l.765 3.375q.036.135.081.36.045.216.09.468.045.243.081.477.045.225.063.387.027-.216.072-.495l.108-.567q.054-.288.108-.54t.099-.405l.765-3.06h1.431l.765 3.06q.027.153.081.405.063.252.117.549.063.288.108.567t.072.486q.027-.225.081-.54l.126-.639q.063-.324.108-.504l.765-3.384z" fill="#fff"/>
</svg>
