<svg width="80" height="100" viewBox="0 0 80 100" fill="none" xmlns="http://www.w3.org/2000/svg">
<g clip-path="url(#clip0_2964_22051)">
<path d="M75 19V92.6667C75 93.2855 74.7542 93.879 74.3166 94.3166C73.879 94.7542 73.2855 95 72.6667 95H7.33333C6.71449 95 6.121 94.7542 5.68342 94.3166C5.24583 93.879 5 93.2855 5 92.6667V7.33333C5 6.71449 5.24583 6.121 5.68342 5.68342C6.121 5.24583 6.71449 5 7.33333 5H61L75 19Z" fill="#5892B6"/>
<path opacity="0.2" d="M75 19H63.3333C62.7145 19 62.121 18.7542 61.6834 18.3166C61.2458 17.879 61 17.2855 61 16.6667V5L75 19Z" fill="black"/>
<path d="M30.3145 87H25.3809V78.4336H30.3145V79.9219H27.1973V81.8027H30.0977V83.291H27.1973V85.5H30.3145V87ZM34.8438 78.4336C35.9492 78.4336 36.7559 78.6719 37.2637 79.1484C37.7715 79.6211 38.0254 80.2734 38.0254 81.1055C38.0254 81.4805 37.9688 81.8398 37.8555 82.1836C37.7422 82.5234 37.5566 82.8262 37.2988 83.0918C37.0449 83.3574 36.7051 83.5684 36.2793 83.7246C35.8535 83.877 35.3281 83.9531 34.7031 83.9531H33.9238V87H32.1074V78.4336H34.8438ZM34.75 79.9219H33.9238V82.4648H34.5215C34.8613 82.4648 35.1562 82.4199 35.4062 82.3301C35.6562 82.2402 35.8496 82.0996 35.9863 81.9082C36.123 81.7168 36.1914 81.4707 36.1914 81.1699C36.1914 80.748 36.0742 80.4355 35.8398 80.2324C35.6055 80.0254 35.2422 79.9219 34.75 79.9219ZM46.6152 78.4336V83.9766C46.6152 84.5664 46.4844 85.0996 46.2227 85.5762C45.9648 86.0488 45.5723 86.4238 45.0449 86.7012C44.5215 86.9785 43.8613 87.1172 43.0645 87.1172C41.9316 87.1172 41.0684 86.8281 40.4746 86.25C39.8809 85.6719 39.584 84.9062 39.584 83.9531V78.4336H41.3945V83.6777C41.3945 84.3848 41.5391 84.8809 41.8281 85.166C42.1172 85.4512 42.5449 85.5938 43.1113 85.5938C43.5098 85.5938 43.832 85.5254 44.0781 85.3887C44.3281 85.252 44.5117 85.041 44.6289 84.7559C44.7461 84.4707 44.8047 84.1074 44.8047 83.666V78.4336H46.6152ZM48.7129 78.4336H51.3789C52.5195 78.4336 53.3828 78.5938 53.9688 78.9141C54.5547 79.2344 54.8477 79.7969 54.8477 80.6016C54.8477 80.9258 54.7949 81.2188 54.6895 81.4805C54.5879 81.7422 54.4395 81.957 54.2441 82.125C54.0488 82.293 53.8105 82.4023 53.5293 82.4531V82.5117C53.8145 82.5703 54.0723 82.6719 54.3027 82.8164C54.5332 82.957 54.7168 83.1641 54.8535 83.4375C54.9941 83.707 55.0645 84.0664 55.0645 84.5156C55.0645 85.0352 54.9375 85.4805 54.6836 85.8516C54.4297 86.2227 54.0664 86.5078 53.5938 86.707C53.125 86.9023 52.5664 87 51.918 87H48.7129V78.4336ZM50.5293 81.8262H51.584C52.1113 81.8262 52.4766 81.7441 52.6797 81.5801C52.8828 81.4121 52.9844 81.166 52.9844 80.8418C52.9844 80.5137 52.8633 80.2793 52.6211 80.1387C52.3828 79.9941 52.0039 79.9219 51.4844 79.9219H50.5293V81.8262ZM50.5293 83.2676V85.5H51.7129C52.2598 85.5 52.6406 85.3945 52.8555 85.1836C53.0703 84.9727 53.1777 84.6895 53.1777 84.334C53.1777 84.123 53.1309 83.9375 53.0371 83.7773C52.9434 83.6172 52.7852 83.4922 52.5625 83.4023C52.3438 83.3125 52.041 83.2676 51.6543 83.2676H50.5293Z" fill="white"/>
<path fill-rule="evenodd" clip-rule="evenodd" d="M39 60V37.5C39 37.5 33.375 33.6429 24 33V54.2143C24 54.2143 34.625 54.8571 39 60ZM56 54.2143V33C46.625 33.6429 41 37.5 41 37.5V60C45.375 54.8571 56 54.2143 56 54.2143ZM57.1 57.2927V37H59V59.1951C59 59.1951 50.7667 57.9268 40 63C29.2333 57.9268 21 59.1951 21 59.1951V37H22.9V57.2927C22.9 57.2927 32.4 57.2927 40 62.5561C47.6 57.2927 57.1 57.2927 57.1 57.2927Z" fill="white"/>
</g>
<defs>
<clipPath id="clip0_2964_22051">
<rect width="80" height="100" fill="white"/>
</clipPath>
</defs>
</svg>
