<svg xmlns="http://www.w3.org/2000/svg" viewBox="0 0 100 127" version="1.1" width="100" height="127">
  <symbol id="svg-format-epub">
    <path d="M95,23v96a2.9,2.9,0,0,1-2.8,3H8a2.9,2.9,0,0,1-3-2.8V8A2.9,2.9,0,0,1,7.8,5H77Z" style="fill: #5892b6"/>
    <path d="M95,23H80a2.9,2.9,0,0,1-3-2.8V5Z" style="opacity: 0.20000000298023224;isolation: isolate"/>
    <g>
      <path d="M40.3,113H35.4v-8.6h4.9v1.5H37.2v1.9h2.9v1.5H37.2v2.2h3.1Z" style="fill: #fff"/>
      <path d="M48,107.1a3.2,3.2,0,0,1-.8,2.1,3.8,3.8,0,0,1-2.5.8h-.8v3H42.1v-8.6h2.7a4,4,0,0,1,2.4.7A2.2,2.2,0,0,1,48,107.1Zm-4.1,1.4h.6a1.6,1.6,0,0,0,1.3-.4,1.1,1.1,0,0,0,.4-.9,1,1,0,0,0-.4-1,1.7,1.7,0,0,0-1-.3h-.9Z" style="fill: #fff"/>
      <path d="M56.6,104.4V110a2.9,2.9,0,0,1-.4,1.6,2.5,2.5,0,0,1-1.2,1.1,4.8,4.8,0,0,1-4.5-.4,3.2,3.2,0,0,1-.9-2.3v-5.6h1.8v5.3a2.3,2.3,0,0,0,.4,1.4,1.9,1.9,0,0,0,2.6,0,2.3,2.3,0,0,0,.4-1.4v-5.3Z" style="fill: #fff"/>
      <path d="M58.7,104.4h2.7a4,4,0,0,1,2.6.6,1.5,1.5,0,0,1,.8,1.6,2.8,2.8,0,0,1-.3,1.3,2.1,2.1,0,0,1-1,.6h0a1.9,1.9,0,0,1,1.2.7,2,2,0,0,1,.4,1.3,2.1,2.1,0,0,1-.9,1.8,3.2,3.2,0,0,1-2.3.7H58.7Zm1.8,3.4h1.1a1.4,1.4,0,0,0,1.1-.2,1.1,1.1,0,0,0,.3-.8.8.8,0,0,0-.4-.7l-1.1-.2h-1Zm0,1.5v2.2h1.2a2,2,0,0,0,1.1-.3,1.1,1.1,0,0,0,.4-.9c0-.7-.5-1-1.5-1Z" style="fill: #fff"/>
    </g>
    <path d="M49,84V49s-9-6-24-7V75S42,76,49,84Z" style="fill: #fff"/>
    <path d="M75,75V42c-15,1-24,7-24,7V84C58,76,75,75,75,75Z" style="fill: #fff"/>
    <path d="M77,47V79s-15,0-27,8.3C38,79,23,79,23,79V47H20V82s13-2,30,6c17-8,30-6,30-6V47Z" style="fill: #fff"/>
  </symbol>
</svg>
