<svg xmlns="http://www.w3.org/2000/svg" viewBox="0 0 100 127" version="1.1" width="100" height="127"><defs><style>.cls-2{opacity:0.2;}.cls-3{font-size:12px;font-family:OpenSans-Bold, Open Sans;font-weight:700;}.cls-3,.cls-4{fill:#fff;}</style></defs><symbol id="svg-format-epub"><path fill="#5892b6" d="M95,23v96a3,3,0,0,1-3,3H8a3,3,0,0,1-3-3V8A3,3,0,0,1,8,5H77Z"/><path class="cls-2" d="M95,23H80a3,3,0,0,1-3-3V5Z"/><text class="cls-3" transform="translate(34.31 113)">EPUB</text><path class="cls-4" d="M49,84V49s-9-6-24-7V75S42,76,49,84Z"/><path class="cls-4" d="M75,75V42c-15,1-24,7-24,7V84C58,76,75,75,75,75Z"/><path class="cls-4" d="M77,47V79s-15,0-27,8.3C38,79,23,79,23,79V47H20V82s13-2,30,6c17-8,30-6,30-6V47Z"/></symbol></svg>