<svg width="100" height="127" viewBox="0 0 100 127" fill="none" xmlns="http://www.w3.org/2000/svg">
<symbol id="svg-format-fb2">
<path d="M95 23V119C95 119.796 94.6839 120.559 94.1213 121.121C93.5587 121.684 92.7956 122 92 122H8C7.20435 122 6.44129 121.684 5.87868 121.121C5.31607 120.559 5 119.796 5 119V8C5 7.20435 5.31607 6.44129 5.87868 5.87868C6.44129 5.31607 7.20435 5 8 5H77L95 23Z" fill="#B07408"/>
<path opacity="0.2" d="M95 23H80C79.2044 23 78.4413 22.6839 77.8787 22.1213C77.3161 21.5587 77 20.7956 77 20V5L95 23Z" fill="black"/>
<path d="M41.8652 114H40.0781V105.434H44.9883V106.922H41.8652V109.131H44.7715V110.613H41.8652V114ZM46.6641 105.434H49.3301C50.5449 105.434 51.4258 105.607 51.9727 105.955C52.5234 106.299 52.7988 106.848 52.7988 107.602C52.7988 108.113 52.6777 108.533 52.4355 108.861C52.1973 109.189 51.8789 109.387 51.4805 109.453V109.512C52.0234 109.633 52.4141 109.859 52.6523 110.191C52.8945 110.523 53.0156 110.965 53.0156 111.516C53.0156 112.297 52.7324 112.906 52.166 113.344C51.6035 113.781 50.8379 114 49.8691 114H46.6641V105.434ZM48.4805 108.826H49.5352C50.0273 108.826 50.3828 108.75 50.6016 108.598C50.8242 108.445 50.9355 108.193 50.9355 107.842C50.9355 107.514 50.8145 107.279 50.5723 107.139C50.334 106.994 49.9551 106.922 49.4355 106.922H48.4805V108.826ZM48.4805 110.268V112.5H49.6641C50.1641 112.5 50.5332 112.404 50.7715 112.213C51.0098 112.021 51.1289 111.729 51.1289 111.334C51.1289 110.623 50.6211 110.268 49.6055 110.268H48.4805ZM60.1172 114H54.1289V112.74L56.2793 110.566C56.916 109.914 57.332 109.463 57.5273 109.213C57.7227 108.959 57.8633 108.725 57.9492 108.51C58.0352 108.295 58.0781 108.072 58.0781 107.842C58.0781 107.498 57.9824 107.242 57.791 107.074C57.6035 106.906 57.3516 106.822 57.0352 106.822C56.7031 106.822 56.3809 106.898 56.0684 107.051C55.7559 107.203 55.4297 107.42 55.0898 107.701L54.1055 106.535C54.5273 106.176 54.877 105.922 55.1543 105.773C55.4316 105.625 55.7344 105.512 56.0625 105.434C56.3906 105.352 56.7578 105.311 57.1641 105.311C57.6992 105.311 58.1719 105.408 58.582 105.604C58.9922 105.799 59.3105 106.072 59.5371 106.424C59.7637 106.775 59.877 107.178 59.877 107.631C59.877 108.025 59.8066 108.396 59.666 108.744C59.5293 109.088 59.3145 109.441 59.0215 109.805C58.7324 110.168 58.2207 110.686 57.4863 111.357L56.3848 112.395V112.477H60.1172V114Z" fill="white"/>
<path d="M49 84V49C49 49 40 43 25 42V75C25 75 42 76 49 84Z" fill="white"/>
<path d="M75 75V42C60 43 51 49 51 49V84C58 76 75 75 75 75Z" fill="white"/>
<path d="M77 47V79C77 79 62 79 50 87.3C38 79 23 79 23 79V47H20V82C20 82 33 80 50 88C67 80 80 82 80 82V47H77Z" fill="white"/>
</symbol>
</svg>
