<svg width="80" height="100" viewBox="0 0 80 100" fill="none" xmlns="http://www.w3.org/2000/svg">
<g clip-path="url(#clip0_2964_22049)">
<path d="M75 19V92.6667C75 93.2855 74.7542 93.879 74.3166 94.3166C73.879 94.7542 73.2855 95 72.6667 95H7.33333C6.71449 95 6.121 94.7542 5.68342 94.3166C5.24583 93.879 5 93.2855 5 92.6667V7.33333C5 6.71449 5.24583 6.121 5.68342 5.68342C6.121 5.24583 6.71449 5 7.33333 5H61L75 19Z" fill="#B07408"/>
<path opacity="0.2" d="M75 19H63.3333C62.7145 19 62.121 18.7542 61.6834 18.3166C61.2458 17.879 61 17.2855 61 16.6667V5L75 19Z" fill="black"/>
<path d="M32.1074 87H30.3203V78.4336H35.2305V79.9219H32.1074V82.1309H35.0137V83.6133H32.1074V87ZM36.9062 78.4336H39.5723C40.7129 78.4336 41.5762 78.5938 42.1621 78.9141C42.748 79.2344 43.041 79.7969 43.041 80.6016C43.041 80.9258 42.9883 81.2188 42.8828 81.4805C42.7812 81.7422 42.6328 81.957 42.4375 82.125C42.2422 82.293 42.0039 82.4023 41.7227 82.4531V82.5117C42.0078 82.5703 42.2656 82.6719 42.4961 82.8164C42.7266 82.957 42.9102 83.1641 43.0469 83.4375C43.1875 83.707 43.2578 84.0664 43.2578 84.5156C43.2578 85.0352 43.1309 85.4805 42.877 85.8516C42.623 86.2227 42.2598 86.5078 41.7871 86.707C41.3184 86.9023 40.7598 87 40.1113 87H36.9062V78.4336ZM38.7227 81.8262H39.7773C40.3047 81.8262 40.6699 81.7441 40.873 81.5801C41.0762 81.4121 41.1777 81.166 41.1777 80.8418C41.1777 80.5137 41.0566 80.2793 40.8145 80.1387C40.5762 79.9941 40.1973 79.9219 39.6777 79.9219H38.7227V81.8262ZM38.7227 83.2676V85.5H39.9062C40.4531 85.5 40.834 85.3945 41.0488 85.1836C41.2637 84.9727 41.3711 84.6895 41.3711 84.334C41.3711 84.123 41.3242 83.9375 41.2305 83.7773C41.1367 83.6172 40.9785 83.4922 40.7559 83.4023C40.5371 83.3125 40.2344 83.2676 39.8477 83.2676H38.7227ZM50.3594 87H44.3711V85.7402L46.5215 83.5664C46.9551 83.1211 47.3027 82.75 47.5645 82.4531C47.8301 82.1523 48.0215 81.8789 48.1387 81.6328C48.2598 81.3867 48.3203 81.123 48.3203 80.8418C48.3203 80.502 48.2246 80.248 48.0332 80.0801C47.8457 79.9082 47.5938 79.8223 47.2773 79.8223C46.9453 79.8223 46.623 79.8984 46.3105 80.0508C45.998 80.2031 45.6719 80.4199 45.332 80.7012L44.3477 79.5352C44.5938 79.3242 44.8535 79.125 45.127 78.9375C45.4043 78.75 45.7246 78.5996 46.0879 78.4863C46.4551 78.3691 46.8945 78.3105 47.4062 78.3105C47.9688 78.3105 48.4512 78.4121 48.8535 78.6152C49.2598 78.8184 49.5723 79.0957 49.791 79.4473C50.0098 79.7949 50.1191 80.1895 50.1191 80.6309C50.1191 81.1035 50.0254 81.5352 49.8379 81.9258C49.6504 82.3164 49.377 82.7031 49.0176 83.0859C48.6621 83.4688 48.2324 83.8926 47.7285 84.3574L46.627 85.3945V85.4766H50.3594V87Z" fill="white"/>
<path fill-rule="evenodd" clip-rule="evenodd" d="M39 60V37.5C39 37.5 33.375 33.6429 24 33V54.2143C24 54.2143 34.625 54.8571 39 60ZM56 54.2143V33C46.625 33.6429 41 37.5 41 37.5V60C45.375 54.8571 56 54.2143 56 54.2143ZM57.1 57.2927V37H59V59.1951C59 59.1951 50.7667 57.9268 40 63C29.2333 57.9268 21 59.1951 21 59.1951V37H22.9V57.2927C22.9 57.2927 32.4 57.2927 40 62.5561C47.6 57.2927 57.1 57.2927 57.1 57.2927Z" fill="white"/>
</g>
<defs>
<clipPath id="clip0_2964_22049">
<rect width="80" height="100" fill="white"/>
</clipPath>
</defs>
</svg>
