<svg width="24" height="30" viewBox="0 0 24 30" fill="none" xmlns="http://www.w3.org/2000/svg">
    <g clip-path="url(#a)">
        <path d="M1 1h14.3L23 8.703V29H1V1Z" fill="#fff"/>
        <path d="M15 3H3v13h18V9h-1v2H10V4h5V3ZM4 11V4h2v7H4Zm3 0V4h2v7H7Zm3 1h10v3H10v-3Zm-1 0v3H7v-3h2Zm-3 0v3H4v-3h2Z" fill="#BFBFBF"/>
        <path d="M1 29V1h14.3L23 8.7V29H1ZM15.3 0H0v30h24V8.7L15.3 0Z" fill="#BFBFBF"/>
        <path d="M3 18a1 1 0 0 0-1 1v7a1 1 0 0 0 1 1h18a1 1 0 0 0 1-1v-7a1 1 0 0 0-1-1H3Z" fill="#679F24"/>
        <path d="M12 20h3v1h-2v3h2v1h-3v-5Zm3 4h1v-3h-1v3Zm3-4h2v1h-2v-1Zm0 2h-1v-1h1v1Zm2 1h-2v-1h2v1Zm0 1v-1h1v1h-1Zm0 0v1h-3v-1h3ZM7 21h1v3H7v-3Zm3 3v1H8v-1h2Zm0-3h1v3h-1v-3Zm0 0H8v-1h2v1Zm-7-1v5h1v-2h2v-1H4v-1h2v-1H3Z" fill="#fff"/>
        <path opacity=".3" d="M14 10V1h1v8h8v1h-9Z" fill="#000"/>
    </g>
    <defs>
        <clipPath id="a">
            <path fill="#fff" d="M0 0h24v30H0z"/>
        </clipPath>
    </defs>
</svg>
