<svg width="24" height="30" viewBox="0 0 24 30" fill="none" xmlns="http://www.w3.org/2000/svg">
    <g clip-path="url(#a)">
        <path d="M1 1h14.3L23 8.703V29H1V1Z" fill="#fff"/>
        <path d="M1 29V1h14.3L23 8.7V29H1ZM15.3 0H0v30h24V8.7L15.3 0Z" fill="#BFBFBF"/>
        <path d="M3 18a1 1 0 0 0-1 1v7a1 1 0 0 0 1 1h18a1 1 0 0 0 1-1v-7a1 1 0 0 0-1-1H3Z" fill="#3683AB"/>
        <path d="M9 20h2v1H9v-1Zm0 4H8v-3h1v3Zm2 0v1H9v-1h2Zm0 0h1v-3h-1v3Zm2-4h2v1h-1v3h1v1h-2v-5Zm2 4h1v-3h-1v3Zm2-4h3v1h-1v4h-1v-4h-1v-1ZM4 20v5h1v-2h2v-1H5v-1h2v-1H4Z" fill="#fff"/>
        <path d="M15 5H3v2h12V5Zm0 3H3v2h12V8Zm6 3H3v2h18v-2ZM3 14h13v2H3v-2Z" fill="#C4C4C4"/>
        <path opacity=".3" d="M14 10V1h1v8h8v1h-9Z" fill="#000"/>
    </g>
    <defs>
        <clipPath id="a">
            <path fill="#fff" d="M0 0h24v30H0z"/>
        </clipPath>
    </defs>
</svg>
