<svg width="80" height="100" viewBox="0 0 80 100" fill="none" xmlns="http://www.w3.org/2000/svg">
<g clip-path="url(#clip0_2964_22059)">
<path d="M75 19V92.6667C75 93.2855 74.7542 93.879 74.3166 94.3166C73.879 94.7542 73.2855 95 72.6667 95H7.33333C6.71449 95 6.121 94.7542 5.68342 94.3166C5.24583 93.879 5 93.2855 5 92.6667V7.33333C5 6.71449 5.24583 6.121 5.68342 5.68342C6.121 5.24583 6.71449 5 7.33333 5H61L75 19Z" fill="#7C9A34"/>
<path opacity="0.2" d="M75 19H63.3333C62.7145 19 62.121 18.7542 61.6834 18.3166C61.2458 17.879 61 17.2855 61 16.6667V5L75 19Z" fill="black"/>
<path d="M30.9766 87H29.166V83.3027H25.7734V87H23.957V78.4336H25.7734V81.791H29.166V78.4336H30.9766V87ZM36.4492 87H34.6328V79.9453H32.3066V78.4336H38.7754V79.9453H36.4492V87ZM43.7207 87L41.6582 80.2793H41.6055C41.6133 80.4395 41.625 80.6816 41.6406 81.0059C41.6602 81.3262 41.6777 81.668 41.6934 82.0312C41.709 82.3945 41.7168 82.7227 41.7168 83.0156V87H40.0938V78.4336H42.5664L44.5938 84.9844H44.6289L46.7793 78.4336H49.252V87H47.5586V82.9453C47.5586 82.6758 47.5625 82.3652 47.5703 82.0137C47.582 81.6621 47.5957 81.3281 47.6113 81.0117C47.627 80.6914 47.6387 80.4512 47.6465 80.291H47.5938L45.3848 87H43.7207ZM51.4141 87V78.4336H53.2305V85.5H56.7051V87H51.4141Z" fill="white"/>
<path d="M30 42V45.7895L19.5 49.5L30 53.2105V57L16 50.8421V48.1579L30 42Z" fill="white"/>
<path d="M50 42V45.7895L60.5 49.5L50 53.2105V57L64 50.8421V48.1579L50 42Z" fill="white"/>
<path d="M32 59H36.2308L47 40H42.7692L32 59Z" fill="white"/>
</g>
<defs>
<clipPath id="clip0_2964_22059">
<rect width="80" height="100" fill="white"/>
</clipPath>
</defs>
</svg>
