<svg xmlns="http://www.w3.org/2000/svg" viewBox="0 0 100 127" version="1.1" width="100" height="127">
<symbol id="svg-format-html">
    <path d="M95,23v96a2.9,2.9,0,0,1-2.8,3H8a2.9,2.9,0,0,1-3-2.8V8A2.9,2.9,0,0,1,7.8,5H77Z" style="fill: #7c9a34"/>
    <path d="M95,23H80a2.9,2.9,0,0,1-3-2.8V5Z" style="opacity: 0.20000000298023224;isolation: isolate"/>
    <g>
      <path d="M41,113H39.2v-3.7H35.8V113H34v-8.6h1.8v3.4h3.4v-3.4H41Z" style="fill: #fff"/>
      <path d="M46.5,113H44.6v-7.1H42.3v-1.5h6.5v1.5H46.5Z" style="fill: #fff"/>
      <path d="M53.7,113l-2-6.7h-.1c.1,1.3.1,2.3.1,2.7v4H50.1v-8.6h2.5l2,6.6h0l2.2-6.6h2.5V113H57.6v-4.7c0-.3,0-.9.1-2h-.1L55.4,113Z" style="fill: #fff"/>
      <path d="M61.4,113v-8.6h1.8v7.1h3.5V113Z" style="fill: #fff"/>
    </g>
    <polygon points="62 53 62 57.8 75.5 62.5 62 67.2 62 72 80 64.2 80 60.8 62 53" style="fill: #fff"/>
    <polygon points="40 75 45.5 75 59.5 50 54 50 40 75" style="fill: #fff"/>
    <polygon points="19 64.2 37 72 37 67.2 23.5 62.5 37 57.8 37 53 19 60.8 19 64.2" style="fill: #fff"/>
  </symbol>
</svg>
