<svg xmlns="http://www.w3.org/2000/svg" viewBox="0 0 100 127" version="1.1" width="100" height="127"><defs><style>.cls-2{opacity:0.2;}.cls-3{font-size:12px;font-family:OpenSans-Bold, Open Sans;font-weight:700;}.cls-3,.cls-4{fill:#fff;}</style></defs><symbol id="svg-format-html"><path fill="#7c9a34" d="M95,23v96a3,3,0,0,1-3,3H8a3,3,0,0,1-3-3V8A3,3,0,0,1,8,5H77Z"/><path class="cls-2" d="M95,23H80a3,3,0,0,1-3-3V5Z"/><text class="cls-3" transform="translate(32.89 113)">HTML</text><polygon class="cls-4" points="62 53 62 57.8 75.5 62.5 62 67.2 62 72 80 64.2 80 60.8 62 53"/><polygon class="cls-4" points="40 75 45.5 75 59.5 50 54 50 40 75"/><polygon class="cls-4" points="19 64.2 37 72 37 67.2 23.5 62.5 37 57.8 37 53 19 60.8 19 64.2"/></symbol></svg>