<svg id="Layer_1" data-name="Layer 1" xmlns="http://www.w3.org/2000/svg" width="100" height="127" viewBox="0 0 100 127">
  <defs>
    <style>
      .cls-1 {
        fill: #7c9a34;
      }

      .cls-2 {
        opacity: 0.2;
      }

      .cls-2, .cls-3 {
        isolation: isolate;
      }

      .cls-4 {
        fill: #fff;
      }
    </style>
  </defs>
  <title>html</title>
  <g id="html">
    <path class="cls-1" d="M95,23v96a2.9,2.9,0,0,1-3,3H8a2.9,2.9,0,0,1-3-3V8A2.9,2.9,0,0,1,8,5H77Z"/>
    <path class="cls-2" d="M95,23H80a2.9,2.9,0,0,1-3-3V5Z"/>
    <g class="cls-3">
      <path class="cls-4" d="M41,113H39.2v-3.7H35.8V113H34v-8.6h1.8v3.4h3.4v-3.4H41Z"/>
      <path class="cls-4" d="M46.5,113H44.6v-7.1H42.3v-1.5h6.5v1.5H46.5Z"/>
      <path class="cls-4" d="M53.7,113l-2-6.7h-.1c.1,1.3.1,2.3.1,2.7v4H50.1v-8.6h2.5l2,6.6h0l2.2-6.6h2.5V113H57.6v-4.7c0-.3,0-.9.1-2h-.1L55.4,113Z"/>
      <path class="cls-4" d="M61.4,113v-8.6h1.8v7.1h3.5V113Z"/>
    </g>
    <polygon class="cls-4" points="62 53 62 57.8 75.5 62.5 62 67.2 62 72 80 64.2 80 60.8 62 53"/>
    <polygon class="cls-4" points="40 75 45.5 75 59.5 50 54 50 40 75"/>
    <polygon class="cls-4" points="19 64.2 37 72 37 67.2 23.5 62.5 37 57.8 37 53 19 60.8 19 64.2"/>
  </g>
</svg>
