<svg width="100" height="127" viewBox="0 0 100 127" fill="none" xmlns="http://www.w3.org/2000/svg">
<symbol id="svg-format-jpg">
<g>
<path d="M95 22V118C95 118.796 94.6839 119.559 94.1213 120.121C93.5587 120.684 92.7956 121 92 121H8C7.20435 121 6.44129 120.684 5.87868 120.121C5.31607 119.559 5 118.796 5 118V7C5 6.20435 5.31607 5.44129 5.87868 4.87868C6.44129 4.31607 7.20435 4 8 4H77L95 22Z" fill="#7371D8"/>
<g>
<path d="M39.5801 115.52C39.1699 115.52 38.8125 115.477 38.5078 115.391V113.879C38.8203 113.957 39.1055 113.996 39.3633 113.996C39.7617 113.996 40.0469 113.871 40.2188 113.621C40.3906 113.375 40.4766 112.988 40.4766 112.461V104.434H42.293V112.449C42.293 113.449 42.0645 114.211 41.6074 114.734C41.1504 115.258 40.4746 115.52 39.5801 115.52Z" fill="white"/>
<path d="M46.2656 108.465H46.8633C47.4219 108.465 47.8398 108.355 48.1172 108.137C48.3945 107.914 48.5332 107.592 48.5332 107.17C48.5332 106.744 48.416 106.43 48.1816 106.227C47.9512 106.023 47.5879 105.922 47.0918 105.922H46.2656V108.465ZM50.3672 107.105C50.3672 108.027 50.0781 108.732 49.5 109.221C48.9258 109.709 48.1074 109.953 47.0449 109.953H46.2656V113H44.4492V104.434H47.1855C48.2246 104.434 49.0137 104.658 49.5527 105.107C50.0957 105.553 50.3672 106.219 50.3672 107.105Z" fill="white"/>
<path d="M55.2363 108.189H58.6348V112.631C58.084 112.811 57.5645 112.936 57.0762 113.006C56.5918 113.08 56.0957 113.117 55.5879 113.117C54.2949 113.117 53.3066 112.738 52.623 111.98C51.9434 111.219 51.6035 110.127 51.6035 108.705C51.6035 107.322 51.998 106.244 52.7871 105.471C53.5801 104.697 54.6777 104.311 56.0801 104.311C56.959 104.311 57.8066 104.486 58.623 104.838L58.0195 106.291C57.3945 105.979 56.7441 105.822 56.0684 105.822C55.2832 105.822 54.6543 106.086 54.1816 106.613C53.709 107.141 53.4727 107.85 53.4727 108.74C53.4727 109.67 53.6621 110.381 54.041 110.873C54.4238 111.361 54.9785 111.605 55.7051 111.605C56.084 111.605 56.4688 111.566 56.8594 111.488V109.701H55.2363V108.189Z" fill="white"/>
</g>
<path d="M56 51.869L73.183 79H27.7869L39.5 59.912L44.274 67.6919L45.113 69.059L45.9712 67.7039L56 51.869ZM36 51.5C36 53.9853 33.9853 56 31.5 56C29.0147 56 27 53.9853 27 51.5C27 49.0147 29.0147 47 31.5 47C33.9853 47 36 49.0147 36 51.5Z" fill="white" stroke="white" stroke-width="2"/>
<path opacity="0.2" d="M95 22H80C79.2044 22 78.4413 21.6839 77.8787 21.1213C77.3161 20.5587 77 19.7956 77 19V4L95 22Z" fill="black"/>
</g>
</symbol>
</svg>
