<svg width="24" height="30" viewBox="0 0 24 30" fill="none" xmlns="http://www.w3.org/2000/svg">
    <g clip-path="url(#a)">
        <path d="M1 1h14.3L23 8.703V29H1V1Z" fill="#fff"/>
        <path d="M7 6h4v2H9v2H7v2h2v2h2v2H7v-2H5v-2H3v-2h2V8h2V6Zm12 3h-4v1h2v2h-2v2h-2v2h4v-2h2v-2h2v-2h-2V9Z" fill="#BFBFBF"/>
        <path d="M1 29V1h14.3L23 8.7V29H1ZM15.3 0H0v30h24V8.7L15.3 0Z" fill="#BFBFBF"/>
        <path d="M3 18a1 1 0 0 0-1 1v7a1 1 0 0 0 1 1h18a1 1 0 0 0 1-1v-7a1 1 0 0 0-1-1H3Z" fill="#848F92"/>
        <path d="M8 20H7v5h1v-2h1v2h1v-2h1v2h1v-5h-1v1h-1v2H9v-2H8v-1Zm5 0v5h3v-1h1v-3h-1v-1h-3Zm3 1v3h-2v-3h2Z" fill="#fff"/>
        <path opacity=".3" d="M14 10V1h1v8h8v1h-9Z" fill="#000"/>
    </g>
    <defs>
        <clipPath id="a">
            <path fill="#fff" d="M0 0h24v30H0z"/>
        </clipPath>
    </defs>
</svg>
