<svg width="24" height="30" viewBox="0 0 24 30" fill="none" xmlns="http://www.w3.org/2000/svg">
    <path d="M1.5 2.5a2 2 0 0 1 2-2h13.283a1 1 0 0 1 .71.296l4.665 4.71a1 1 0 0 1 .29.701l.048 21.289a2 2 0 0 1-2 2.004H3.5a2 2 0 0 1-2-2z" fill="#fff" stroke="#bbb"/>
    <path d="M10.231 12.36A1.001 1.001 0 0 1 12 13v6a1 1 0 1 1-2 0v-3.237l-.731.878a1 1 0 0 1-1.538 0L7 15.763V19a1 1 0 1 1-2 0v-6a1 1 0 0 1 1.769-.64L8.5 14.437zM16 12a1 1 0 0 1 1 1v3.586l.293-.293a1 1 0 0 1 1.414 1.414l-2 2a1 1 0 0 1-1.414 0l-2-2a1 1 0 0 1 1.414-1.414l.293.293V13a1 1 0 0 1 1-1" fill="#287ca9"/>
    <path d="M16.5.5V5A1.5 1.5 0 0 0 18 6.5h4.5" stroke="#bbb"/>
</svg>
