<svg width="24" height="30" fill="none" xmlns="http://www.w3.org/2000/svg"><g clip-path="url(#a)"><path d="M1 1h14.3L23 8.703V29H1V1z" fill="#fff"/><path d="M7 6h4v2H9v2H7v2h2v2h2v2H7v-2H5v-2H3v-2h2V8h2V6zM19 9h-4v1h2v2h-2v2h-2v2h4v-2h2v-2h2v-2h-2V9z" fill="#BFBFBF"/><path d="M1 29V1h14.3L23 8.7V29H1zM15.3 0H0v30h24V8.7L15.3 0z" fill="#BFBFBF"/><path d="M3 18a1 1 0 0 0-1 1v7a1 1 0 0 0 1 1h18a1 1 0 0 0 1-1v-7a1 1 0 0 0-1-1H3zm14 2h3v1h-1v4h-1v-4h-1v-1zm-6 0h1v2h2v-2h1v5h-1v-2h-2v2h-1v-5zm-7 0h1v1h1v2H5v2H4v-5zm3 3v2H6v-2h1zm0 0v-2h1v-1h1v5H8v-2H7z" fill="#4C8190"/><path opacity=".3" d="M14 10V1h1v8h8v1h-9z" fill="#000"/></g><defs><clipPath id="a"><path fill="#fff" d="M0 0h24v30H0z"/></clipPath></defs></svg>