<svg id="Layer_1" data-name="Layer 1" xmlns="http://www.w3.org/2000/svg" width="100" height="127" viewBox="0 0 100 127">
  <defs>
    <style>
      .cls-1 {
        fill: #237453;
      }

      .cls-2 {
        opacity: 0.2;
      }

      .cls-2, .cls-3 {
        isolation: isolate;
      }

      .cls-4 {
        fill: #fff;
      }
    </style>
  </defs>
  <title>ods</title>
  <g id="ods">
    <path class="cls-1" d="M95,23v96a2.9,2.9,0,0,1-3,3H8a2.9,2.9,0,0,1-3-3V8A2.9,2.9,0,0,1,8,5H77Z"/>
    <path class="cls-2" d="M95,23H80a2.9,2.9,0,0,1-3-3V5Z"/>
    <g class="cls-3">
      <path class="cls-4" d="M46.3,108.7a4.8,4.8,0,0,1-1,3.3,4.1,4.1,0,0,1-3,1.1,4.2,4.2,0,0,1-3.1-1.1,5.9,5.9,0,0,1,0-6.6,4.3,4.3,0,0,1,3.1-1.1,4.1,4.1,0,0,1,3,1.1A4.8,4.8,0,0,1,46.3,108.7Zm-6.2,0a4.2,4.2,0,0,0,.5,2.2,1.9,1.9,0,0,0,1.7.7c1.4,0,2.1-1,2.1-2.9s-.7-2.9-2.1-2.9a2.2,2.2,0,0,0-1.7.7A4.2,4.2,0,0,0,40.1,108.7Z"/>
      <path class="cls-4" d="M55.2,108.6a4.5,4.5,0,0,1-1.2,3.3,5.1,5.1,0,0,1-3.5,1.1H48.1v-8.6h2.7a4.9,4.9,0,0,1,3.3,1.1A4.5,4.5,0,0,1,55.2,108.6Zm-1.9.1c0-1.9-.8-2.8-2.4-2.8h-1v5.6h.8C52.5,111.5,53.3,110.6,53.3,108.7Z"/>
      <path class="cls-4" d="M62,110.6a1.9,1.9,0,0,1-.8,1.8,3.2,3.2,0,0,1-2.3.7,6,6,0,0,1-2.4-.5v-1.7l1.4.6H59l.9-.2a.8.8,0,0,0,.4-.7.5.5,0,0,0-.2-.4.8.8,0,0,0-.4-.4l-1.1-.6-1.2-.7-.6-.8a1.8,1.8,0,0,1-.2-1.1,2.1,2.1,0,0,1,.7-1.7,3.1,3.1,0,0,1,2.2-.7l1.2.2,1.3.4-.6,1.4-1.1-.4h-.9a1.1,1.1,0,0,0-.8.3.6.6,0,0,0-.3.6l.2.4c0,.1.1.2.3.4l1.2.6a3.4,3.4,0,0,1,1.6,1.1A2.3,2.3,0,0,1,62,110.6Z"/>
    </g>
    <path class="cls-4" d="M78,52.7h-.3a14.8,14.8,0,0,0-14,.5,14.8,14.8,0,0,0-14.3-.2h-.1a.3.3,0,0,0-.1.2c0,.1.1.2.3.2h0a14.8,14.8,0,0,1,4.2-.1c4,.3,7.4,1.6,9.8,4.3.2.1.3.1.4,0,3.1-3.5,7.8-4.9,12.8-4.4h1.2a.2.2,0,0,0,.2-.2h0C78.1,52.8,78.1,52.8,78,52.7Z"/>
    <path class="cls-4" d="M72.2,65.2h0a26,26,0,0,0-25,2.8,26.1,26.1,0,0,0-25.1,2.2h0l-.2.3a.4.4,0,0,0,.4.4h.1a26.7,26.7,0,0,1,7.5-1.1c6.9,0,13.1,1.6,17.7,6h.2c.2,0,.3-.1.3-.2l.3-.3c4.7-6.4,12.5-9.6,21.1-9.6h2.4c.2-.1.4-.2.4-.4Z"/>
  </g>
</svg>
