<svg xmlns="http://www.w3.org/2000/svg" viewBox="0 0 100 127" version="1.1" width="100" height="127">

<symbol id="svg-format-ods">
    <path d="M95,23v96a2.9,2.9,0,0,1-2.8,3H8a2.9,2.9,0,0,1-3-2.8V8A2.9,2.9,0,0,1,7.8,5H77Z" style="fill: #237453"/>
    <path d="M95,23H80a2.9,2.9,0,0,1-3-2.8V5Z" style="opacity: 0.20000000298023224;isolation: isolate"/>
    <g>
      <path d="M46.3,108.7a4.8,4.8,0,0,1-1,3.3,3.8,3.8,0,0,1-3,1.1,4,4,0,0,1-3.1-1.1,6.1,6.1,0,0,1,0-6.6,4,4,0,0,1,3.1-1.1,3.8,3.8,0,0,1,3,1.1A4.8,4.8,0,0,1,46.3,108.7Zm-6.2,0a4.2,4.2,0,0,0,.5,2.2,1.9,1.9,0,0,0,1.7.7c1.4,0,2.1-1,2.1-2.9s-.7-2.9-2.1-2.9a2.2,2.2,0,0,0-1.7.7A4.2,4.2,0,0,0,40.1,108.7Z" style="fill: #fff"/>
      <path d="M55.2,108.6a4.5,4.5,0,0,1-1.2,3.3,4.9,4.9,0,0,1-3.5,1.1H48.1v-8.6h2.7a4.9,4.9,0,0,1,3.3,1.1A5.1,5.1,0,0,1,55.2,108.6Zm-1.9.1c0-1.9-.8-2.8-2.4-2.8h-1v5.6h.8C52.5,111.5,53.3,110.6,53.3,108.7Z" style="fill: #fff"/>
      <path d="M62,110.6a1.8,1.8,0,0,1-.8,1.8,3.2,3.2,0,0,1-2.3.7,6.9,6.9,0,0,1-2.4-.5v-1.7l1.4.6H59l.9-.2a.8.8,0,0,0,.4-.7.5.5,0,0,0-.2-.4l-.4-.4-1.1-.6-1.2-.7-.6-.8a1.4,1.4,0,0,1-.2-1.1,2.2,2.2,0,0,1,.7-1.7,2.9,2.9,0,0,1,2.2-.7l1.2.2,1.3.4-.6,1.4-1.1-.4h-.9a1.1,1.1,0,0,0-.8.3.7.7,0,0,0-.3.6l.2.4c0,.1.1.2.3.4l1.2.6a3.6,3.6,0,0,1,1.6,1.1A2.3,2.3,0,0,1,62,110.6Z" style="fill: #fff"/>
    </g>
    <path d="M78,52.7h-.3a14.8,14.8,0,0,0-14,.5A14.8,14.8,0,0,0,49.4,53h-.1c-.1.1-.1.1-.1.2s.1.2.3.2h0a14.8,14.8,0,0,1,4.2-.1c4,.3,7.4,1.6,9.8,4.3.2.1.3.1.4,0,3.1-3.5,7.8-4.9,12.8-4.4h1.2a.2.2,0,0,0,.2-.2h0C78.1,52.8,78.1,52.8,78,52.7Z" style="fill: #fff"/>
    <path d="M72.2,65.2h0a26,26,0,0,0-25,2.8,26.1,26.1,0,0,0-25.1,2.2h0l-.2.3a.4.4,0,0,0,.4.4h.1a27.2,27.2,0,0,1,7.5-1.1c6.9,0,13.1,1.6,17.7,6h.2c.2,0,.3-.1.3-.2l.3-.3c4.7-6.4,12.5-9.6,21.1-9.6h2.4c.2-.1.4-.2.4-.4Z" style="fill: #fff"/>
  </symbol>
</svg>
