<svg width="24" height="30" viewBox="0 0 24 30" fill="none" xmlns="http://www.w3.org/2000/svg">
    <path d="M1.5 2.5a2 2 0 0 1 2-2h13.283a1 1 0 0 1 .71.296l4.665 4.71a1 1 0 0 1 .29.701l.048 21.289a2 2 0 0 1-2 2.004H3.5a2 2 0 0 1-2-2z" fill="#fff" stroke="#BBB"/>
    <path d="M16.5.5V5A1.5 1.5 0 0 0 18 6.5h4.5" stroke="#BBB"/>
    <rect x="5" y="19" width="6" height="2" rx="1" fill="#B0D9AD"/>
    <rect x="5" y="15" width="6" height="2" rx="1" fill="#B0D9AD"/>
    <rect x="13" y="15" width="6" height="2" rx="1" fill="#B0D9AD"/>
    <rect x="13" y="19" width="6" height="2" rx="1" fill="#B0D9AD"/>
    <rect x="13" y="11" width="6" height="2" rx="1" fill="#3AA133"/>
    <rect x="5" y="11" width="6" height="2" rx="1" fill="#3AA133"/>
</svg>
