<svg xmlns="http://www.w3.org/2000/svg" viewBox="0 0 100 127" version="1.1" width="100" height="127"><defs><style>.cls-2{opacity:0.2;}.cls-3{font-size:12px;font-family:OpenSans-Bold, Open Sans;font-weight:700;}.cls-3,.cls-4{fill:#fff;}</style></defs><symbol id="svg-format-ods"><path fill="#237453" d="M95,23v96a3,3,0,0,1-3,3H8a3,3,0,0,1-3-3V8A3,3,0,0,1,8,5H77Z"/><path class="cls-2" d="M95,23H80a3,3,0,0,1-3-3V5Z"/><text class="cls-3" transform="translate(37.48 113)">ODS</text><path class="cls-4" d="M78,52.74h0l-.29-.15a15,15,0,0,0-14,.53,14.93,14.93,0,0,0-14.3-.24l-.08,0a.25.25,0,0,0-.1.2.26.26,0,0,0,.26.26h.06a14.62,14.62,0,0,1,4.14-.18c4,.37,7.43,1.6,9.86,4.36.13.13.24.12.37,0C67,54,71.68,52.6,76.72,53.07c.28,0,.56.06.83.11l.33,0a.23.23,0,0,0,.26-.25A.25.25,0,0,0,78,52.74Z"/><path class="cls-4" d="M72.16,65.21l0,0A26,26,0,0,0,47.19,68,26,26,0,0,0,22.1,70.19l-.05,0a.41.41,0,0,0-.14.3.39.39,0,0,0,.38.39h.08l0,0a26.09,26.09,0,0,1,7.49-1.1c6.93,0,13.1,1.64,17.74,6l0,0a.38.38,0,0,0,.25.09.37.37,0,0,0,.3-.14l.22-.31c4.72-6.45,12.5-9.63,21.16-9.63.62,0,1.23,0,1.84.06l.55,0a.4.4,0,0,0,.39-.39A.38.38,0,0,0,72.16,65.21Z"/></symbol></svg>