<svg xmlns="http://www.w3.org/2000/svg" viewBox="0 0 100 127" version="1.1" width="100" height="127">

  <symbol id="svg-format-odt">
    <path d="M95,23v96a2.9,2.9,0,0,1-3,3H8a2.9,2.9,0,0,1-3-3V8A2.9,2.9,0,0,1,8,5H77Z" style="fill: #3c6d88"/>
    <path d="M95,23H80a2.9,2.9,0,0,1-3-3V5Z" style="opacity: 0.20000000298023224;isolation: isolate"/>
    <g style="isolation: isolate">
      <path d="M46.2,108.7a4.9,4.9,0,0,1-1.1,3.3,4.6,4.6,0,0,1-6,0,5.5,5.5,0,0,1,0-6.6,4.6,4.6,0,0,1,6,0A4.9,4.9,0,0,1,46.2,108.7Zm-6.3,0a3.4,3.4,0,0,0,.6,2.2,1.8,1.8,0,0,0,1.6.7c1.4,0,2.2-1,2.2-2.9s-.8-2.9-2.2-2.9a2,2,0,0,0-1.6.7A3.4,3.4,0,0,0,39.9,108.7Z" style="fill: #fff"/>
      <path d="M55,108.6a4.5,4.5,0,0,1-1.2,3.3,5,5,0,0,1-3.4,1.1H47.9v-8.6h2.7a4.9,4.9,0,0,1,3.3,1.1A4.1,4.1,0,0,1,55,108.6Zm-1.8.1c0-1.9-.9-2.8-2.5-2.8h-.9v5.6h.7C52.3,111.5,53.2,110.6,53.2,108.7Z" style="fill: #fff"/>
      <path d="M60.1,113H58.3v-7.1H56v-1.5h6.5v1.5H60.1Z" style="fill: #fff"/>
    </g>
    <path d="M78,52.7h-.3a14.8,14.8,0,0,0-14,.5,14.8,14.8,0,0,0-14.3-.2h-.1a.3.3,0,0,0-.1.2c0,.1.1.2.3.2h0a14.8,14.8,0,0,1,4.2-.1c4,.3,7.4,1.6,9.8,4.3.2.1.3.1.4,0,3.1-3.5,7.8-4.9,12.8-4.4h1.2a.2.2,0,0,0,.2-.2h0C78.1,52.8,78.1,52.8,78,52.7Z" style="fill: #fff"/>
    <path d="M72.2,65.2h0a26,26,0,0,0-25,2.8,26.1,26.1,0,0,0-25.1,2.2h0l-.2.3a.4.4,0,0,0,.4.4h.1a26.7,26.7,0,0,1,7.5-1.1c6.9,0,13.1,1.6,17.7,6h.2c.2,0,.3-.1.3-.2l.3-.3c4.7-6.4,12.5-9.6,21.1-9.6h2.4c.2-.1.4-.2.4-.4Z" style="fill: #fff"/>
  </symbol>
</svg>
