<svg width="80" height="100" viewBox="0 0 80 100" fill="none" xmlns="http://www.w3.org/2000/svg">
<g clip-path="url(#clip0_2964_22044)">
<path d="M75 19V92.6667C75 93.2855 74.7542 93.879 74.3166 94.3166C73.879 94.7542 73.2855 95 72.6667 95H7.33333C6.71449 95 6.121 94.7542 5.68342 94.3166C5.24583 93.879 5 93.2855 5 92.6667V7.33333C5 6.71449 5.24583 6.121 5.68342 5.68342C6.121 5.24583 6.71449 5 7.33333 5H61L75 19Z" fill="#188079"/>
<path d="M18 39H54.1761H62V42.7143V59H18V39Z" stroke="white" stroke-width="2"/>
<rect x="21" y="42" width="3" height="2" fill="white"/>
<rect x="26" y="42" width="3" height="2" fill="white"/>
<rect x="21" y="54" width="3" height="2" fill="white"/>
<rect x="26" y="54" width="3" height="2" fill="white"/>
<rect width="10" height="2" transform="matrix(-7.10309e-08 1 1 2.68993e-08 24 44)" fill="white"/>
<path opacity="0.2" d="M75 19H63.3333C62.7145 19 62.121 18.7542 61.6834 18.3166C61.2458 17.879 61 17.2855 61 16.6667V5L75 19Z" fill="black"/>
<path d="M26.3887 82.7051C26.3887 83.3652 26.3066 83.9668 26.1426 84.5098C25.9785 85.0488 25.7285 85.5137 25.3926 85.9043C25.0605 86.2949 24.6387 86.5957 24.127 86.8066C23.6152 87.0137 23.0098 87.1172 22.3105 87.1172C21.6113 87.1172 21.0059 87.0137 20.4941 86.8066C19.9824 86.5957 19.5586 86.2949 19.2227 85.9043C18.8906 85.5137 18.6426 85.0469 18.4785 84.5039C18.3145 83.9609 18.2324 83.3574 18.2324 82.6934C18.2324 81.8066 18.377 81.0352 18.666 80.3789C18.959 79.7188 19.4082 79.207 20.0137 78.8438C20.6191 78.4805 21.3887 78.2988 22.3223 78.2988C23.252 78.2988 24.0156 78.4805 24.6133 78.8438C25.2148 79.207 25.6602 79.7188 25.9492 80.3789C26.2422 81.0391 26.3887 81.8145 26.3887 82.7051ZM20.1367 82.7051C20.1367 83.3027 20.2109 83.8184 20.3594 84.252C20.5117 84.6816 20.748 85.0137 21.0684 85.248C21.3887 85.4785 21.8027 85.5938 22.3105 85.5938C22.8262 85.5938 23.2441 85.4785 23.5645 85.248C23.8848 85.0137 24.1172 84.6816 24.2617 84.252C24.4102 83.8184 24.4844 83.3027 24.4844 82.7051C24.4844 81.8066 24.3164 81.0996 23.9805 80.584C23.6445 80.0684 23.0918 79.8105 22.3223 79.8105C21.8105 79.8105 21.3926 79.9277 21.0684 80.1621C20.748 80.3926 20.5117 80.7246 20.3594 81.1582C20.2109 81.5879 20.1367 82.1035 20.1367 82.7051ZM29.9512 87H28.1641V78.4336H33.0742V79.9219H29.9512V82.1309H32.8574V83.6133H29.9512V87ZM42.5254 82.7051C42.5254 83.3652 42.4434 83.9668 42.2793 84.5098C42.1152 85.0488 41.8652 85.5137 41.5293 85.9043C41.1973 86.2949 40.7754 86.5957 40.2637 86.8066C39.752 87.0137 39.1465 87.1172 38.4473 87.1172C37.748 87.1172 37.1426 87.0137 36.6309 86.8066C36.1191 86.5957 35.6953 86.2949 35.3594 85.9043C35.0273 85.5137 34.7793 85.0469 34.6152 84.5039C34.4512 83.9609 34.3691 83.3574 34.3691 82.6934C34.3691 81.8066 34.5137 81.0352 34.8027 80.3789C35.0957 79.7188 35.5449 79.207 36.1504 78.8438C36.7559 78.4805 37.5254 78.2988 38.459 78.2988C39.3887 78.2988 40.1523 78.4805 40.75 78.8438C41.3516 79.207 41.7969 79.7188 42.0859 80.3789C42.3789 81.0391 42.5254 81.8145 42.5254 82.7051ZM36.2734 82.7051C36.2734 83.3027 36.3477 83.8184 36.4961 84.252C36.6484 84.6816 36.8848 85.0137 37.2051 85.248C37.5254 85.4785 37.9395 85.5938 38.4473 85.5938C38.9629 85.5938 39.3809 85.4785 39.7012 85.248C40.0215 85.0137 40.2539 84.6816 40.3984 84.252C40.5469 83.8184 40.6211 83.3027 40.6211 82.7051C40.6211 81.8066 40.4531 81.0996 40.1172 80.584C39.7812 80.0684 39.2285 79.8105 38.459 79.8105C37.9473 79.8105 37.5293 79.9277 37.2051 80.1621C36.8848 80.3926 36.6484 80.7246 36.4961 81.1582C36.3477 81.5879 36.2734 82.1035 36.2734 82.7051ZM46.7969 78.4336C47.5742 78.4336 48.2148 78.5273 48.7188 78.7148C49.2266 78.9023 49.6035 79.1855 49.8496 79.5645C50.0957 79.9434 50.2188 80.4219 50.2188 81C50.2188 81.3906 50.1445 81.7324 49.9961 82.0254C49.8477 82.3184 49.6523 82.5664 49.4102 82.7695C49.168 82.9727 48.9062 83.1387 48.625 83.2676L51.1445 87H49.1289L47.084 83.7129H46.1172V87H44.3008V78.4336H46.7969ZM46.668 79.9219H46.1172V82.2363H46.7031C47.3047 82.2363 47.7344 82.1367 47.9922 81.9375C48.2539 81.7344 48.3848 81.4375 48.3848 81.0469C48.3848 80.6406 48.2441 80.3516 47.9629 80.1797C47.6855 80.0078 47.2539 79.9219 46.668 79.9219ZM55.8496 87L53.7871 80.2793H53.7344C53.7422 80.4395 53.7539 80.6816 53.7695 81.0059C53.7891 81.3262 53.8066 81.668 53.8223 82.0312C53.8379 82.3945 53.8457 82.7227 53.8457 83.0156V87H52.2227V78.4336H54.6953L56.7227 84.9844H56.7578L58.9082 78.4336H61.3809V87H59.6875V82.9453C59.6875 82.6758 59.6914 82.3652 59.6992 82.0137C59.7109 81.6621 59.7246 81.3281 59.7402 81.0117C59.7559 80.6914 59.7676 80.4512 59.7754 80.291H59.7227L57.5137 87H55.8496Z" fill="white"/>
</g>
<defs>
<clipPath id="clip0_2964_22044">
<rect width="80" height="100" fill="white"/>
</clipPath>
</defs>
</svg>
