<svg style="position: absolute; width: 0; height: 0; overflow: hidden;" width="100" height="127" viewBox="0 0 100 127" fill="none" xmlns="http://www.w3.org/2000/svg">
<symbol id="svg-format-oform">
<path d="M95 23V119C95 119.796 94.6839 120.559 94.1213 121.121C93.5587 121.684 92.7956 122 92 122H8C7.20435 122 6.44129 121.684 5.87868 121.121C5.31607 120.559 5 119.796 5 119V8C5 7.20435 5.31607 6.44129 5.87868 5.87868C6.44129 5.31607 7.20435 5 8 5H77L95 23Z" fill="#2CA498"/>
<path opacity="0.2" d="M95 23H80C79.2044 23 78.4413 22.6839 77.8787 22.1213C77.3161 21.5587 77 20.7956 77 20V5L95 23Z" fill="black"/>
<path d="M36.8535 109.705C36.8535 111.123 36.502 112.213 35.7988 112.975C35.0957 113.736 34.0879 114.117 32.7754 114.117C31.4629 114.117 30.4551 113.736 29.752 112.975C29.0488 112.213 28.6973 111.119 28.6973 109.693C28.6973 108.268 29.0488 107.18 29.752 106.43C30.459 105.676 31.4707 105.299 32.7871 105.299C34.1035 105.299 35.1094 105.678 35.8047 106.436C36.5039 107.193 36.8535 108.283 36.8535 109.705ZM30.6016 109.705C30.6016 110.662 30.7832 111.383 31.1465 111.867C31.5098 112.352 32.0527 112.594 32.7754 112.594C34.2246 112.594 34.9492 111.631 34.9492 109.705C34.9492 107.775 34.2285 106.811 32.7871 106.811C32.0645 106.811 31.5195 107.055 31.1523 107.543C30.7852 108.027 30.6016 108.748 30.6016 109.705Z" fill="white"/>
<path d="M40.416 114H38.6289V105.434H43.5391V106.922H40.416V109.131H43.3223V110.613H40.416V114Z" fill="white"/>
<path d="M52.9902 109.705C52.9902 111.123 52.6387 112.213 51.9355 112.975C51.2324 113.736 50.2246 114.117 48.9121 114.117C47.5996 114.117 46.5918 113.736 45.8887 112.975C45.1855 112.213 44.834 111.119 44.834 109.693C44.834 108.268 45.1855 107.18 45.8887 106.43C46.5957 105.676 47.6074 105.299 48.9238 105.299C50.2402 105.299 51.2461 105.678 51.9414 106.436C52.6406 107.193 52.9902 108.283 52.9902 109.705ZM46.7383 109.705C46.7383 110.662 46.9199 111.383 47.2832 111.867C47.6465 112.352 48.1895 112.594 48.9121 112.594C50.3613 112.594 51.0859 111.631 51.0859 109.705C51.0859 107.775 50.3652 106.811 48.9238 106.811C48.2012 106.811 47.6562 107.055 47.2891 107.543C46.9219 108.027 46.7383 108.748 46.7383 109.705Z" fill="white"/>
<path d="M56.582 109.236H57.168C57.7422 109.236 58.166 109.141 58.4395 108.949C58.7129 108.758 58.8496 108.457 58.8496 108.047C58.8496 107.641 58.709 107.352 58.4277 107.18C58.1504 107.008 57.7188 106.922 57.1328 106.922H56.582V109.236ZM56.582 110.713V114H54.7656V105.434H57.2617C58.4258 105.434 59.2871 105.646 59.8457 106.072C60.4043 106.494 60.6836 107.137 60.6836 108C60.6836 108.504 60.5449 108.953 60.2676 109.348C59.9902 109.738 59.5977 110.045 59.0898 110.268C60.3789 112.193 61.2188 113.438 61.6094 114H59.5938L57.5488 110.713H56.582Z" fill="white"/>
<path d="M66.3145 114L64.252 107.279H64.1992C64.2734 108.646 64.3105 109.559 64.3105 110.016V114H62.6875V105.434H65.1602L67.1875 111.984H67.2227L69.373 105.434H71.8457V114H70.1523V109.945C70.1523 109.754 70.1543 109.533 70.1582 109.283C70.166 109.033 70.1934 108.369 70.2402 107.291H70.1875L67.9785 114H66.3145Z" fill="white"/>
<path fill-rule="evenodd" clip-rule="evenodd" d="M19 85H81V41H19V85ZM17 39V87H83V39H17Z" fill="white"/>
<rect x="19" y="41" width="62" height="44" fill="#41ADA2"/>
<rect x="29" y="50" width="5" height="2" fill="white"/>
<rect x="36" y="50" width="5" height="2" fill="white"/>
<rect x="29" y="74" width="5" height="2" fill="white"/>
<rect x="36" y="74" width="5" height="2" fill="white"/>
<rect width="22" height="2" transform="matrix(-4.37114e-08 1 1 4.37114e-08 34 52)" fill="white"/>
</symbol>
</svg>
