<svg width="80" height="100" viewBox="0 0 80 100" fill="none" xmlns="http://www.w3.org/2000/svg">
<g clip-path="url(#clip0_2964_22053)">
<path d="M75 19V92.6667C75 93.2855 74.7542 93.879 74.3166 94.3166C73.879 94.7542 73.2855 95 72.6667 95H7.33333C6.71449 95 6.121 94.7542 5.68342 94.3166C5.24583 93.879 5 93.2855 5 92.6667V7.33333C5 6.71449 5.24583 6.121 5.68342 5.68342C6.121 5.24583 6.71449 5 7.33333 5H61L75 19Z" fill="#DD9426"/>
<path fill-rule="evenodd" clip-rule="evenodd" d="M64.6167 37.8763L64.8745 38.0096C64.9076 38.0254 64.9362 38.049 64.958 38.0785C64.9797 38.108 64.9938 38.1424 64.999 38.1786C65.002 38.2093 64.998 38.2403 64.9873 38.2692C64.9766 38.2982 64.9594 38.3243 64.9372 38.3457C64.915 38.3671 64.8882 38.3831 64.8588 38.3927C64.8295 38.4023 64.7984 38.4051 64.7678 38.4009H64.4744C64.4458 38.3956 64.4171 38.3902 64.3882 38.3847C64.175 38.3445 63.9557 38.3031 63.7364 38.3031C59.2548 37.8852 55.0934 39.13 52.3547 42.26C52.2391 42.3667 52.1413 42.3756 52.0257 42.26C49.865 39.8058 46.8151 38.7121 43.2583 38.3831C42.0298 38.2614 40.7903 38.3153 39.577 38.5432H39.5237C39.4624 38.5432 39.4036 38.5188 39.3602 38.4754C39.3169 38.4321 39.2925 38.3733 39.2925 38.312C39.2925 38.2775 39.3005 38.2434 39.316 38.2126C39.3314 38.1817 39.3538 38.1548 39.3814 38.1341H39.4526C41.4206 37.1028 43.6159 36.5819 45.8375 36.6192C48.059 36.6565 50.2357 37.2508 52.168 38.3475C54.0479 37.2618 56.1645 36.6514 58.3339 36.5692C60.5033 36.4871 62.66 36.9358 64.6167 37.8763ZM48.2607 47.4782C52.1435 47.0444 56.0728 47.6016 59.6819 49.0979C59.7176 49.1243 59.7478 49.1576 59.7707 49.1957C59.7936 49.2339 59.8087 49.2761 59.8152 49.3202C59.813 49.4114 59.7757 49.4983 59.7112 49.5629C59.6466 49.6274 59.5597 49.6647 59.4684 49.6669H58.9794C58.437 49.6136 57.8946 49.6136 57.3433 49.6136H57.3433C49.6429 49.6136 42.725 52.4412 38.528 58.1765L38.3324 58.4521C38.3006 58.4922 38.26 58.5243 38.2137 58.5459C38.1674 58.5675 38.1167 58.578 38.0656 58.5766C37.9843 58.5776 37.9054 58.5492 37.8433 58.4966C33.7175 54.6197 28.2312 53.1615 22.0691 53.1615C19.8133 53.162 17.5697 53.4915 15.409 54.1396H15.3379C15.2475 54.1372 15.1615 54.0997 15.0984 54.0349C15.0353 53.9701 15 53.8832 15 53.7928C15.0011 53.7421 15.0127 53.6922 15.0341 53.6463C15.0556 53.6004 15.0863 53.5594 15.1245 53.526H15.1689C18.4181 51.338 22.1699 50.0114 26.0723 49.6707C29.9747 49.3301 33.8996 49.9866 37.4787 51.5787C40.6685 49.3228 44.378 47.9121 48.2607 47.4782Z" fill="white"/>
<path opacity="0.2" d="M75 19H63.3333C62.7145 19 62.121 18.7542 61.6834 18.3166C61.2458 17.879 61 17.2855 61 16.6667V5L75 19Z" fill="black"/>
<path d="M36.8359 82.7051C36.8359 83.3652 36.7539 83.9668 36.5898 84.5098C36.4258 85.0488 36.1758 85.5137 35.8398 85.9043C35.5078 86.2949 35.0859 86.5957 34.5742 86.8066C34.0625 87.0137 33.457 87.1172 32.7578 87.1172C32.0586 87.1172 31.4531 87.0137 30.9414 86.8066C30.4297 86.5957 30.0059 86.2949 29.6699 85.9043C29.3379 85.5137 29.0898 85.0469 28.9258 84.5039C28.7617 83.9609 28.6797 83.3574 28.6797 82.6934C28.6797 81.8066 28.8242 81.0352 29.1133 80.3789C29.4062 79.7188 29.8555 79.207 30.4609 78.8438C31.0664 78.4805 31.8359 78.2988 32.7695 78.2988C33.6992 78.2988 34.4629 78.4805 35.0605 78.8438C35.6621 79.207 36.1074 79.7188 36.3965 80.3789C36.6895 81.0391 36.8359 81.8145 36.8359 82.7051ZM30.584 82.7051C30.584 83.3027 30.6582 83.8184 30.8066 84.252C30.959 84.6816 31.1953 85.0137 31.5156 85.248C31.8359 85.4785 32.25 85.5938 32.7578 85.5938C33.2734 85.5938 33.6914 85.4785 34.0117 85.248C34.332 85.0137 34.5645 84.6816 34.709 84.252C34.8574 83.8184 34.9316 83.3027 34.9316 82.7051C34.9316 81.8066 34.7637 81.0996 34.4277 80.584C34.0918 80.0684 33.5391 79.8105 32.7695 79.8105C32.2578 79.8105 31.8398 79.9277 31.5156 80.1621C31.1953 80.3926 30.959 80.7246 30.8066 81.1582C30.6582 81.5879 30.584 82.1035 30.584 82.7051ZM41.916 87H40.0996V79.9453H37.7734V78.4336H44.2422V79.9453H41.916V87ZM48.2969 78.4336C49.4023 78.4336 50.209 78.6719 50.7168 79.1484C51.2246 79.6211 51.4785 80.2734 51.4785 81.1055C51.4785 81.4805 51.4219 81.8398 51.3086 82.1836C51.1953 82.5234 51.0098 82.8262 50.752 83.0918C50.498 83.3574 50.1582 83.5684 49.7324 83.7246C49.3066 83.877 48.7812 83.9531 48.1562 83.9531H47.377V87H45.5605V78.4336H48.2969ZM48.2031 79.9219H47.377V82.4648H47.9746C48.3145 82.4648 48.6094 82.4199 48.8594 82.3301C49.1094 82.2402 49.3027 82.0996 49.4395 81.9082C49.5762 81.7168 49.6445 81.4707 49.6445 81.1699C49.6445 80.748 49.5273 80.4355 49.293 80.2324C49.0586 80.0254 48.6953 79.9219 48.2031 79.9219Z" fill="white"/>
<path fill-rule="evenodd" clip-rule="evenodd" d="M12 10C10.8954 10 10 10.8954 10 12V21C10 22.1046 10.8954 23 12 23H21C22.1046 23 23 22.1046 23 21V12C23 10.8954 22.1046 10 21 10H12ZM17.2129 20V14.0381H19.4004V12.8906H17.2129H15.7529H13.5996V14.0381H15.7529V20H17.2129Z" fill="white"/>
</g>
<defs>
<clipPath id="clip0_2964_22053">
<rect width="80" height="100" fill="white"/>
</clipPath>
</defs>
</svg>
