<svg width="80" height="100" viewBox="0 0 80 100" fill="none" xmlns="http://www.w3.org/2000/svg">
<g clip-path="url(#clip0_2964_22029)">
<path d="M75 19V92.6667C75 93.2855 74.7542 93.879 74.3166 94.3166C73.879 94.7542 73.2855 95 72.6667 95H7.33333C6.71449 95 6.121 94.7542 5.68342 94.3166C5.24583 93.879 5 93.2855 5 92.6667V7.33333C5 6.71449 5.24583 6.121 5.68342 5.68342C6.121 5.24583 6.71449 5 7.33333 5H61L75 19Z" fill="#3C6D88"/>
<path fill-rule="evenodd" clip-rule="evenodd" d="M64.6167 37.8762L64.8745 38.0096C64.9076 38.0253 64.9362 38.049 64.958 38.0785C64.9797 38.1079 64.9938 38.1423 64.999 38.1786C65.002 38.2093 64.998 38.2403 64.9873 38.2692C64.9766 38.2981 64.9594 38.3243 64.9372 38.3456C64.915 38.367 64.8882 38.3831 64.8588 38.3927C64.8295 38.4022 64.7984 38.405 64.7678 38.4009H64.4744C64.4458 38.3956 64.4171 38.3901 64.3882 38.3847C64.175 38.3444 63.9557 38.303 63.7364 38.303C59.2548 37.8851 55.0934 39.13 52.3547 42.2599C52.2391 42.3667 52.1413 42.3755 52.0257 42.2599C49.865 39.8058 46.8151 38.7121 43.2583 38.3831C42.0298 38.2614 40.7903 38.3153 39.577 38.5431H39.5237C39.4624 38.5431 39.4036 38.5188 39.3602 38.4754C39.3169 38.4321 39.2925 38.3733 39.2925 38.3119C39.2925 38.2774 39.3005 38.2434 39.316 38.2125C39.3314 38.1817 39.3538 38.1548 39.3814 38.1341H39.4526C41.4206 37.1028 43.6159 36.5819 45.8375 36.6192C48.059 36.6565 50.2357 37.2507 52.168 38.3475C54.0479 37.2618 56.1645 36.6513 58.3339 36.5692C60.5033 36.4871 62.66 36.9357 64.6167 37.8762ZM48.2607 47.4782C52.1435 47.0444 56.0728 47.6016 59.6819 49.0978C59.7176 49.1243 59.7478 49.1575 59.7707 49.1957C59.7936 49.2338 59.8087 49.2761 59.8152 49.3201C59.813 49.4114 59.7757 49.4983 59.7112 49.5628C59.6466 49.6274 59.5597 49.6647 59.4684 49.6669H58.9794C58.437 49.6136 57.8946 49.6136 57.3433 49.6136H57.3433C49.6429 49.6136 42.725 52.4412 38.528 58.1765L38.3324 58.4521C38.3006 58.4922 38.26 58.5243 38.2137 58.5459C38.1674 58.5675 38.1167 58.578 38.0656 58.5766C37.9843 58.5775 37.9054 58.5491 37.8433 58.4966C33.7175 54.6197 28.2312 53.1614 22.0691 53.1614C19.8133 53.1619 17.5697 53.4914 15.409 54.1395H15.3379C15.2475 54.1372 15.1615 54.0997 15.0984 54.0349C15.0353 53.9701 15 53.8832 15 53.7928C15.0011 53.7421 15.0127 53.6922 15.0341 53.6463C15.0556 53.6003 15.0863 53.5594 15.1245 53.526H15.1689C18.4181 51.3379 22.1699 50.0113 26.0723 49.6707C29.9747 49.3301 33.8996 49.9866 37.4787 51.5787C40.6685 49.3228 44.378 47.912 48.2607 47.4782Z" fill="white"/>
<path opacity="0.2" d="M75 19H63.3333C62.7145 19 62.121 18.7542 61.6834 18.3166C61.2458 17.879 61 17.2855 61 16.6667V5L75 19Z" fill="black"/>
<path d="M37.1289 82.7051C37.1289 83.3652 37.0469 83.9668 36.8828 84.5098C36.7188 85.0488 36.4688 85.5137 36.1328 85.9043C35.8008 86.2949 35.3789 86.5957 34.8672 86.8066C34.3555 87.0137 33.75 87.1172 33.0508 87.1172C32.3516 87.1172 31.7461 87.0137 31.2344 86.8066C30.7227 86.5957 30.2988 86.2949 29.9629 85.9043C29.6309 85.5137 29.3828 85.0469 29.2188 84.5039C29.0547 83.9609 28.9727 83.3574 28.9727 82.6934C28.9727 81.8066 29.1172 81.0352 29.4062 80.3789C29.6992 79.7188 30.1484 79.207 30.7539 78.8438C31.3594 78.4805 32.1289 78.2988 33.0625 78.2988C33.9922 78.2988 34.7559 78.4805 35.3535 78.8438C35.9551 79.207 36.4004 79.7188 36.6895 80.3789C36.9824 81.0391 37.1289 81.8145 37.1289 82.7051ZM30.877 82.7051C30.877 83.3027 30.9512 83.8184 31.0996 84.252C31.252 84.6816 31.4883 85.0137 31.8086 85.248C32.1289 85.4785 32.543 85.5938 33.0508 85.5938C33.5664 85.5938 33.9844 85.4785 34.3047 85.248C34.625 85.0137 34.8574 84.6816 35.002 84.252C35.1504 83.8184 35.2246 83.3027 35.2246 82.7051C35.2246 81.8066 35.0566 81.0996 34.7207 80.584C34.3848 80.0684 33.832 79.8105 33.0625 79.8105C32.5508 79.8105 32.1328 79.9277 31.8086 80.1621C31.4883 80.3926 31.252 80.7246 31.0996 81.1582C30.9512 81.5879 30.877 82.1035 30.877 82.7051ZM42.209 87H40.3926V79.9453H38.0664V78.4336H44.5352V79.9453H42.209V87ZM49.1582 87H47.3418V79.9453H45.0156V78.4336H51.4844V79.9453H49.1582V87Z" fill="white"/>
<path fill-rule="evenodd" clip-rule="evenodd" d="M12 10C10.8954 10 10 10.8954 10 12V21C10 22.1046 10.8954 23 12 23H21C22.1046 23 23 22.1046 23 21V12C23 10.8954 22.1046 10 21 10H12ZM17.2129 20V14.0381H19.4004V12.8906H17.2129H15.7529H13.5996V14.0381H15.7529V20H17.2129Z" fill="white"/>
</g>
<defs>
<clipPath id="clip0_2964_22029">
<rect width="80" height="100" fill="white"/>
</clipPath>
</defs>
</svg>
