<svg style="position: absolute; width: 0; height: 0; overflow: hidden;" xmlns="http://www.w3.org/2000/svg" viewBox="0 0 100 127" version="1.1" width="100" height="127">
<path d="M95 23V119C95 119.796 94.6839 120.559 94.1213 121.121C93.5587 121.684 92.7956 122 92 122H8C7.20435 122 6.44129 121.684 5.87868 121.121C5.31607 120.559 5 119.796 5 119V8C5 7.20435 5.31607 6.44129 5.87868 5.87868C6.44129 5.31607 7.20435 5 8 5H77L95 23Z" fill="#51968F"/>
<circle cx="44.5" cy="62.5" r="2.5" fill="white"/>
<circle cx="54.5" cy="62.5" r="2.5" fill="white"/>
<path opacity="0.2" d="M95 23H80C79.2044 23 78.4413 22.6839 77.8787 22.1213C77.3161 21.5587 77 20.7956 77 20V5L95 23Z" fill="black"/>
<path d="M42.894 109.705C42.894 111.123 42.5425 112.213 41.8394 112.975C41.1362 113.736 40.1284 114.117 38.8159 114.117C37.5034 114.117 36.4956 113.736 35.7925 112.975C35.0894 112.213 34.7378 111.119 34.7378 109.693C34.7378 108.268 35.0894 107.18 35.7925 106.43C36.4995 105.676 37.5112 105.299 38.8276 105.299C40.144 105.299 41.1499 105.678 41.8452 106.436C42.5444 107.193 42.894 108.283 42.894 109.705ZM36.6421 109.705C36.6421 110.662 36.8237 111.383 37.187 111.867C37.5503 112.352 38.0933 112.594 38.8159 112.594C40.2651 112.594 40.9897 111.631 40.9897 109.705C40.9897 107.775 40.269 106.811 38.8276 106.811C38.105 106.811 37.5601 107.055 37.1929 107.543C36.8257 108.027 36.6421 108.748 36.6421 109.705ZM51.5952 114H49.521L47.5288 110.76L45.5366 114H43.5913L46.4331 109.582L43.7729 105.434H45.7769L47.6226 108.516L49.4331 105.434H51.3901L48.7007 109.682L51.5952 114ZM54.4897 109.465H55.0874C55.646 109.465 56.064 109.355 56.3413 109.137C56.6187 108.914 56.7573 108.592 56.7573 108.17C56.7573 107.744 56.6401 107.43 56.4058 107.227C56.1753 107.023 55.812 106.922 55.3159 106.922H54.4897V109.465ZM58.5913 108.105C58.5913 109.027 58.3022 109.732 57.7241 110.221C57.1499 110.709 56.3315 110.953 55.269 110.953H54.4897V114H52.6733V105.434H55.4097C56.4487 105.434 57.2378 105.658 57.7769 106.107C58.3198 106.553 58.5913 107.219 58.5913 108.105ZM65.2651 111.621C65.2651 112.395 64.9858 113.004 64.4272 113.449C63.8726 113.895 63.0991 114.117 62.1069 114.117C61.1929 114.117 60.3843 113.945 59.6812 113.602V111.914C60.2593 112.172 60.7476 112.354 61.146 112.459C61.5483 112.564 61.9155 112.617 62.2476 112.617C62.646 112.617 62.9507 112.541 63.1616 112.389C63.3765 112.236 63.4839 112.01 63.4839 111.709C63.4839 111.541 63.437 111.393 63.3433 111.264C63.2495 111.131 63.1108 111.004 62.9272 110.883C62.7476 110.762 62.3784 110.568 61.8198 110.303C61.2964 110.057 60.9038 109.82 60.6421 109.594C60.3804 109.367 60.1714 109.104 60.0151 108.803C59.8589 108.502 59.7808 108.15 59.7808 107.748C59.7808 106.99 60.0366 106.395 60.5483 105.961C61.064 105.527 61.7749 105.311 62.6812 105.311C63.1265 105.311 63.5503 105.363 63.9526 105.469C64.3589 105.574 64.7827 105.723 65.2241 105.914L64.6382 107.326C64.1812 107.139 63.8022 107.008 63.5015 106.934C63.2046 106.859 62.9116 106.822 62.6226 106.822C62.2788 106.822 62.0151 106.902 61.8315 107.062C61.6479 107.223 61.5562 107.432 61.5562 107.689C61.5562 107.85 61.5933 107.99 61.6675 108.111C61.7417 108.229 61.8589 108.344 62.019 108.457C62.1831 108.566 62.5679 108.766 63.1733 109.055C63.9741 109.438 64.5229 109.822 64.8198 110.209C65.1167 110.592 65.2651 111.062 65.2651 111.621Z" fill="white"/>
<path d="M62 53V57.8L75.5 62.5L62 67.2V72L80 64.2V60.8L62 53Z" fill="white"/>
<path d="M19 64.2L37 72V67.2L23.5 62.5L37 57.8V53L19 60.8V64.2Z" fill="white"/>
</svg>
