<svg width="80" height="100" viewBox="0 0 80 100" fill="none" xmlns="http://www.w3.org/2000/svg">
<g clip-path="url(#clip0_2964_22048)">
<path d="M75 19V92.6667C75 93.2855 74.7542 93.879 74.3166 94.3166C73.879 94.7542 73.2855 95 72.6667 95H7.33333C6.71449 95 6.121 94.7542 5.68342 94.3166C5.24583 93.879 5 93.2855 5 92.6667V7.33333C5 6.71449 5.24583 6.121 5.68342 5.68342C6.121 5.24583 6.71449 5 7.33333 5H61L75 19Z" fill="#51968F"/>
<path opacity="0.2" d="M75 19H63.3333C62.7145 19 62.121 18.7542 61.6834 18.3166C61.2458 17.879 61 17.2855 61 16.6667V5L75 19Z" fill="black"/>
<path d="M33.0039 82.7051C33.0039 83.3652 32.9219 83.9668 32.7578 84.5098C32.5938 85.0488 32.3438 85.5137 32.0078 85.9043C31.6758 86.2949 31.2539 86.5957 30.7422 86.8066C30.2305 87.0137 29.625 87.1172 28.9258 87.1172C28.2266 87.1172 27.6211 87.0137 27.1094 86.8066C26.5977 86.5957 26.1738 86.2949 25.8379 85.9043C25.5059 85.5137 25.2578 85.0469 25.0938 84.5039C24.9297 83.9609 24.8477 83.3574 24.8477 82.6934C24.8477 81.8066 24.9922 81.0352 25.2812 80.3789C25.5742 79.7188 26.0234 79.207 26.6289 78.8438C27.2344 78.4805 28.0039 78.2988 28.9375 78.2988C29.8672 78.2988 30.6309 78.4805 31.2285 78.8438C31.8301 79.207 32.2754 79.7188 32.5645 80.3789C32.8574 81.0391 33.0039 81.8145 33.0039 82.7051ZM26.752 82.7051C26.752 83.3027 26.8262 83.8184 26.9746 84.252C27.127 84.6816 27.3633 85.0137 27.6836 85.248C28.0039 85.4785 28.418 85.5938 28.9258 85.5938C29.4414 85.5938 29.8594 85.4785 30.1797 85.248C30.5 85.0137 30.7324 84.6816 30.877 84.252C31.0254 83.8184 31.0996 83.3027 31.0996 82.7051C31.0996 81.8066 30.9316 81.0996 30.5957 80.584C30.2598 80.0684 29.707 79.8105 28.9375 79.8105C28.4258 79.8105 28.0078 79.9277 27.6836 80.1621C27.3633 80.3926 27.127 80.7246 26.9746 81.1582C26.8262 81.5879 26.752 82.1035 26.752 82.7051ZM41.7051 87H39.6309L37.6387 83.7598L35.6465 87H33.7012L36.543 82.582L33.8828 78.4336H35.8867L37.7324 81.5156L39.543 78.4336H41.5L38.8105 82.6816L41.7051 87ZM45.5195 78.4336C46.625 78.4336 47.4316 78.6719 47.9395 79.1484C48.4473 79.6211 48.7012 80.2734 48.7012 81.1055C48.7012 81.4805 48.6445 81.8398 48.5312 82.1836C48.418 82.5234 48.2324 82.8262 47.9746 83.0918C47.7207 83.3574 47.3809 83.5684 46.9551 83.7246C46.5293 83.877 46.0039 83.9531 45.3789 83.9531H44.5996V87H42.7832V78.4336H45.5195ZM45.4258 79.9219H44.5996V82.4648H45.1973C45.5371 82.4648 45.832 82.4199 46.082 82.3301C46.332 82.2402 46.5254 82.0996 46.6621 81.9082C46.7988 81.7168 46.8672 81.4707 46.8672 81.1699C46.8672 80.748 46.75 80.4355 46.5156 80.2324C46.2812 80.0254 45.918 79.9219 45.4258 79.9219ZM55.375 84.6211C55.375 85.1289 55.252 85.5703 55.0059 85.9453C54.7598 86.3203 54.4004 86.6094 53.9277 86.8125C53.459 87.0156 52.8887 87.1172 52.2168 87.1172C51.9199 87.1172 51.6289 87.0977 51.3438 87.0586C51.0625 87.0195 50.791 86.9629 50.5293 86.8887C50.2715 86.8105 50.0254 86.7148 49.791 86.6016V84.9141C50.1973 85.0938 50.6191 85.2559 51.0566 85.4004C51.4941 85.5449 51.9277 85.6172 52.3574 85.6172C52.6543 85.6172 52.8926 85.5781 53.0723 85.5C53.2559 85.4219 53.3887 85.3145 53.4707 85.1777C53.5527 85.041 53.5938 84.8848 53.5938 84.709C53.5938 84.4941 53.5215 84.3105 53.377 84.1582C53.2324 84.0059 53.0332 83.8633 52.7793 83.7305C52.5293 83.5977 52.2461 83.4551 51.9297 83.3027C51.7305 83.209 51.5137 83.0957 51.2793 82.9629C51.0449 82.8262 50.8223 82.6602 50.6113 82.4648C50.4004 82.2695 50.2266 82.0332 50.0898 81.7559C49.957 81.4746 49.8906 81.1387 49.8906 80.748C49.8906 80.2363 50.0078 79.7988 50.2422 79.4355C50.4766 79.0723 50.8105 78.7949 51.2441 78.6035C51.6816 78.4082 52.1973 78.3105 52.791 78.3105C53.2363 78.3105 53.6602 78.3633 54.0625 78.4688C54.4688 78.5703 54.8926 78.7188 55.334 78.9141L54.748 80.3262C54.3535 80.166 54 80.043 53.6875 79.957C53.375 79.8672 53.0566 79.8223 52.7324 79.8223C52.5059 79.8223 52.3125 79.8594 52.1523 79.9336C51.9922 80.0039 51.8711 80.1055 51.7891 80.2383C51.707 80.3672 51.666 80.5176 51.666 80.6895C51.666 80.8926 51.7246 81.0645 51.8418 81.2051C51.9629 81.3418 52.1426 81.4746 52.3809 81.6035C52.623 81.7324 52.9238 81.8828 53.2832 82.0547C53.7207 82.2617 54.0938 82.4785 54.4023 82.7051C54.7148 82.9277 54.9551 83.1914 55.123 83.4961C55.291 83.7969 55.375 84.1719 55.375 84.6211Z" fill="white"/>
<path fill-rule="evenodd" clip-rule="evenodd" d="M30 45.7895V42L16 48.1579V50.8421L30 57V53.2105L19.5 49.5L30 45.7895ZM36 51.5C37.1046 51.5 38 50.6046 38 49.5C38 48.3954 37.1046 47.5 36 47.5C34.8954 47.5 34 48.3954 34 49.5C34 50.6046 34.8954 51.5 36 51.5ZM46 49.5C46 50.6046 45.1046 51.5 44 51.5C42.8954 51.5 42 50.6046 42 49.5C42 48.3954 42.8954 47.5 44 47.5C45.1046 47.5 46 48.3954 46 49.5ZM50 45.7895V42L64 48.1579V50.8421L50 57V53.2105L60.5 49.5L50 45.7895Z" fill="white"/>
</g>
<defs>
<clipPath id="clip0_2964_22048">
<rect width="80" height="100" fill="white"/>
</clipPath>
</defs>
</svg>
