<svg id="Layer_1" data-name="Layer 1" xmlns="http://www.w3.org/2000/svg" width="100" height="127" viewBox="0 0 100 127">
  <defs>
    <style>
      .cls-1 {
        fill: #ba4c3f;
      }

      .cls-2 {
        opacity: 0.2;
      }

      .cls-2, .cls-3 {
        isolation: isolate;
      }

      .cls-4 {
        fill: #fff;
      }
    </style>
  </defs>
  <title>pdf</title>
  <g id="pdf">
    <path class="cls-1" d="M95,23v96a2.9,2.9,0,0,1-3,3H8a2.9,2.9,0,0,1-3-3V8A2.9,2.9,0,0,1,8,5H77Z"/>
    <path class="cls-2" d="M95,23H80a2.9,2.9,0,0,1-3-3V5Z"/>
    <g class="cls-3">
      <path class="cls-4" d="M45.5,107.1a2.6,2.6,0,0,1-.9,2.1,3.5,3.5,0,0,1-2.4.8h-.8v3H39.6v-8.6h2.7a4,4,0,0,1,2.4.7A2.6,2.6,0,0,1,45.5,107.1Zm-4.1,1.4H42c.6,0,1-.1,1.2-.4a1.1,1.1,0,0,0,.5-.9,1.3,1.3,0,0,0-.4-1,1.6,1.6,0,0,0-1.1-.3h-.8Z"/>
      <path class="cls-4" d="M54.2,108.6a4.5,4.5,0,0,1-1.2,3.3,5.1,5.1,0,0,1-3.5,1.1H47.1v-8.6h2.7a4.9,4.9,0,0,1,3.3,1.1A4.5,4.5,0,0,1,54.2,108.6Zm-1.9.1c0-1.9-.8-2.8-2.4-2.8h-1v5.6h.8C51.5,111.5,52.3,110.6,52.3,108.7Z"/>
      <path class="cls-4" d="M57.8,113H56v-8.6h4.9v1.5H57.8v2.2h2.9v1.5H57.8Z"/>
    </g>
    <path id="path4463" class="cls-4" d="M40.4,66.7c1.6-3.2,3.4-6.7,4.9-10.2h0l.6-1.4c-1.9-7.3-3.1-13.1-2-16.9h0a2.5,2.5,0,0,1,2.6-1.5h.9c1.6,0,2.4,2,2.5,2.9h0a10.8,10.8,0,0,1-.5,3.6h0a9.5,9.5,0,0,0-.5-3.7h0c-.7-1.5-1.4-2.4-2-2.5h0a1.9,1.9,0,0,0-.7,1.4h0c-.1,1.1-.2,2.1-.2,3.2h0A37.6,37.6,0,0,0,47.5,51h0c.1-.5.3-1,.4-1.5h0l1.5-5.9h0a79.7,79.7,0,0,1-.8,8.8h0l-.3,1.3h0a29.2,29.2,0,0,0,7.4,11.5h0A24.9,24.9,0,0,0,60,68.1h0a63.6,63.6,0,0,1,8.7-.6h0c3.2,0,5.6.5,6.6,1.5h0a2.4,2.4,0,0,1,.7,1.6h0c0,.4-.1.7-.1,1h0c0-.2,0-1-2.6-1.9h0c-2.1-.6-6-.6-10.6-.1h0c5.3,2.6,10.6,4,12.3,3.2h0l.9-.9h0a10.4,10.4,0,0,1-.6,1.6h0a1.8,1.8,0,0,1-1.2.9h0c-2.7.7-9.5-.9-15.5-4.3h0a123.9,123.9,0,0,0-19.8,4.7h0C33,84.9,28.7,89.5,25.2,87.8h0l-1.3-.7a1.4,1.4,0,0,1-.5-1.6h0c.4-2,2.9-5,8-8.1h0l3-1.6h0l-2.2,2.1h0c-4,3.3-7,7.5-6.9,9.1h0c3.4-.5,8.5-7.5,15.1-20.4m2.1,1.1-3.2,5.8h0a81.1,81.1,0,0,1,17.1-4.9h0L54.3,67h0A29.8,29.8,0,0,1,47,57.7h0a100.4,100.4,0,0,1-4.5,10.1"/>
  </g>
</svg>
