<svg xmlns="http://www.w3.org/2000/svg" viewBox="0 0 100 127" version="1.1" width="100" height="127"><defs><style>.cls-2{opacity:0.2;}.cls-3{font-size:12px;font-family:OpenSans-Bold, Open Sans;font-weight:700;}.cls-3,.cls-4{fill:#fff;}</style></defs><symbol id="svg-format-pdf"><path fill="#ba4c3f" d="M95,23v96a3,3,0,0,1-3,3H8a3,3,0,0,1-3-3V8A3,3,0,0,1,8,5H77Z"/><path class="cls-2" d="M95,23H80a3,3,0,0,1-3-3V5Z"/><text class="cls-3" transform="translate(38.5 113)">PDF</text><path id="path4463" class="cls-4" d="M40.42,66.69C42,63.55,43.84,60,45.3,56.46h0l.58-1.4c-1.9-7.25-3.05-13.07-2-16.83h0a2.59,2.59,0,0,1,2.62-1.57h.88c1.66,0,2.44,2.09,2.53,2.91h0a13.12,13.12,0,0,1-.48,3.68h0a9.11,9.11,0,0,0-.56-3.75h0C48.16,38,47.5,37.1,46.91,37h0a1.82,1.82,0,0,0-.68,1.4h0A19.67,19.67,0,0,0,46,41.59h0A36,36,0,0,0,47.45,51h0c.18-.54.34-1,.48-1.54h0c.2-.76,1.49-5.81,1.49-5.81h0s-.33,6.72-.78,8.76h0c-.1.43-.21.86-.32,1.29h0a29.59,29.59,0,0,0,7.37,11.52h0A23.75,23.75,0,0,0,60,68.12h0a57.72,57.72,0,0,1,8.65-.65h0c3.28,0,5.69.53,6.66,1.49h0A2.55,2.55,0,0,1,76,70.62h0a5.92,5.92,0,0,1-.14,1h0c0-.18,0-1-2.6-1.88h0c-2.07-.66-6-.64-10.61-.15h0c5.39,2.64,10.64,4,12.3,3.16h0a3.48,3.48,0,0,0,.9-.87h0a9.45,9.45,0,0,1-.51,1.66h0a2.54,2.54,0,0,1-1.29.88h0c-2.63.71-9.46-.92-15.42-4.32h0A125,125,0,0,0,38.8,74.79h0C33,84.88,28.71,89.51,25.19,87.75h0L23.9,87.1a1.5,1.5,0,0,1-.49-1.63h0c.41-2,2.93-5,8-8.06h0c.55-.33,3-1.61,3-1.61h0s-1.79,1.74-2.21,2.08h0c-4,3.31-7,7.47-6.95,9.09h0l0,.14c3.43-.49,8.57-7.48,15.19-20.42m2.1,1.07c-1.11,2.08-2.19,4-3.19,5.79h0a84.6,84.6,0,0,1,17.1-4.84h0c-.76-.53-1.49-1.08-2.19-1.67h0A29.28,29.28,0,0,1,47,57.66h0a81,81,0,0,1-4.52,10.1"/></symbol></svg>