<svg width="80" height="100" viewBox="0 0 80 100" fill="none" xmlns="http://www.w3.org/2000/svg">
<g clip-path="url(#clip0_2964_22047)">
<path d="M75 19V92.6667C75 93.2855 74.7542 93.879 74.3166 94.3166C73.879 94.7542 73.2855 95 72.6667 95H7.33333C6.71449 95 6.121 94.7542 5.68342 94.3166C5.24583 93.879 5 93.2855 5 92.6667V7.33333C5 6.71449 5.24583 6.121 5.68342 5.68342C6.121 5.24583 6.71449 5 7.33333 5H61L75 19Z" fill="#BA4C3F"/>
<path opacity="0.2" d="M75 19H63.3333C62.7145 19 62.121 18.7542 61.6834 18.3166C61.2458 17.879 61 17.2855 61 16.6667V5L75 19Z" fill="black"/>
<path d="M32.3125 78.4336C33.418 78.4336 34.2246 78.6719 34.7324 79.1484C35.2402 79.6211 35.4941 80.2734 35.4941 81.1055C35.4941 81.4805 35.4375 81.8398 35.3242 82.1836C35.2109 82.5234 35.0254 82.8262 34.7676 83.0918C34.5137 83.3574 34.1738 83.5684 33.748 83.7246C33.3223 83.877 32.7969 83.9531 32.1719 83.9531H31.3926V87H29.5762V78.4336H32.3125ZM32.2188 79.9219H31.3926V82.4648H31.9902C32.3301 82.4648 32.625 82.4199 32.875 82.3301C33.125 82.2402 33.3184 82.0996 33.4551 81.9082C33.5918 81.7168 33.6602 81.4707 33.6602 81.1699C33.6602 80.748 33.543 80.4355 33.3086 80.2324C33.0742 80.0254 32.7109 79.9219 32.2188 79.9219ZM44.2188 82.6348C44.2188 83.5996 44.0332 84.4062 43.6621 85.0547C43.2949 85.6992 42.7617 86.1855 42.0625 86.5137C41.3633 86.8379 40.5215 87 39.5371 87H37.1113V78.4336H39.8008C40.6992 78.4336 41.4785 78.5938 42.1387 78.9141C42.7988 79.2305 43.3105 79.7012 43.6738 80.3262C44.0371 80.9473 44.2188 81.7168 44.2188 82.6348ZM42.332 82.6816C42.332 82.0488 42.2383 81.5293 42.0508 81.123C41.8672 80.7129 41.5938 80.4102 41.2305 80.2148C40.8711 80.0195 40.4258 79.9219 39.8945 79.9219H38.9277V85.5H39.707C40.5938 85.5 41.252 85.2637 41.6816 84.791C42.1152 84.3184 42.332 83.6152 42.332 82.6816ZM47.7812 87H45.9941V78.4336H50.9043V79.9219H47.7812V82.1309H50.6875V83.6133H47.7812V87Z" fill="white"/>
<path d="M34.0286 52.2618C35.0487 50.2485 36.2367 47.9722 37.1793 45.7024L37.5538 44.8048C36.3271 40.1561 35.5846 36.4244 36.2625 34.0135C36.4006 33.6893 36.6389 33.4171 36.9429 33.2362C37.247 33.0552 37.6011 32.9749 37.954 33.0068H38.5222C39.5939 33.0068 40.0975 34.3469 40.1556 34.8727C40.1654 35.6698 40.0611 36.4643 39.8457 37.2323C39.8963 36.4145 39.7732 35.5953 39.4842 34.8278C39.0258 33.866 38.5997 33.289 38.2187 33.2248C38.0833 33.3329 37.9737 33.4695 37.8977 33.6247C37.8218 33.7799 37.7815 33.95 37.7797 34.1225C37.6744 34.7992 37.6247 35.4832 37.6312 36.1679C37.6729 38.2114 37.9877 40.2403 38.5674 42.2015C38.6836 41.8553 38.7869 41.5603 38.8773 41.2141C39.0064 40.7268 39.8393 37.4888 39.8393 37.4888C39.8393 37.4888 39.6262 41.7976 39.3357 43.1056C39.2711 43.3813 39.2001 43.657 39.1291 43.9327C40.1126 46.7301 41.7422 49.2599 43.8873 51.3193C44.7436 52.0383 45.6768 52.6618 46.67 53.1787C48.5184 52.9009 50.3852 52.7616 52.2547 52.7619C54.3723 52.7619 55.9283 53.1018 56.5545 53.7173C56.8282 54.0066 56.9865 54.385 57 54.7817C56.9883 54.9976 56.9581 55.2121 56.9096 55.4229C56.9096 55.3075 56.9096 54.7817 55.231 54.2174C53.8945 53.7943 51.3572 53.8071 48.3809 54.1213C51.8608 55.814 55.2504 56.686 56.3221 56.1474C56.5481 55.9979 56.745 55.8089 56.9032 55.5896C56.8265 55.9537 56.7163 56.31 56.5739 56.654C56.3628 56.9242 56.0714 57.1217 55.741 57.2182C54.043 57.6735 49.6334 56.6283 45.7855 54.4483C41.4426 55.103 37.1608 56.1087 32.9827 57.4555C29.2381 63.9251 26.4684 66.8938 24.1958 65.7653L23.3629 65.3485C23.2097 65.2267 23.0975 65.0615 23.041 64.8748C22.9845 64.6882 22.9864 64.4889 23.0465 64.3034C23.3112 63.021 24.9382 61.0974 28.2115 59.1354C28.5666 58.9238 30.1484 58.1031 30.1484 58.1031C30.1484 58.1031 28.9928 59.2187 28.7216 59.4367C26.1391 61.5591 24.2022 64.2264 24.2345 65.2652V65.3549C26.449 65.0408 29.7675 60.5588 34.0415 52.2618H34.0286ZM35.3974 52.9479C34.6807 54.2816 33.9834 55.5127 33.3378 56.6604C36.898 55.2439 40.5984 54.2037 44.378 53.557C43.8873 53.2172 43.416 52.8645 42.9641 52.4862C41.0049 50.82 39.4097 48.7732 38.2769 46.4719C37.4539 48.6941 36.4789 50.8578 35.3586 52.9479" fill="white"/>
</g>
<defs>
<clipPath id="clip0_2964_22047">
<rect width="80" height="100" fill="white"/>
</clipPath>
</defs>
</svg>
