<svg width="80" height="100" viewBox="0 0 80 100" fill="none" xmlns="http://www.w3.org/2000/svg">
<g clip-path="url(#clip0_2964_22042)">
<path d="M75 19V92.6667C75 93.2855 74.7542 93.879 74.3166 94.3166C73.879 94.7542 73.2855 95 72.6667 95H7.33333C6.71449 95 6.121 94.7542 5.68342 94.3166C5.24583 93.879 5 93.2855 5 92.6667V7.33333C5 6.71449 5.24583 6.121 5.68342 5.68342C6.121 5.24583 6.71449 5 7.33333 5H61L75 19Z" fill="#BA4C3F"/>
<path fill-rule="evenodd" clip-rule="evenodd" d="M12 10C10.8954 10 10 10.8954 10 12V21C10 22.1046 10.8954 23 12 23H21C22.1046 23 23 22.1046 23 21V12C23 10.8954 22.1046 10 21 10H12ZM16.8076 12.8906H17.1787L19.835 20H18.2725L17.7794 18.501H15.2242L14.7324 20H13.1748L15.8164 12.8906H16.1777H16.8076ZM15.6007 17.3535H17.402L16.5002 14.6118L15.6007 17.3535Z" fill="white"/>
<path opacity="0.2" d="M75 19H63.3333C62.7145 19 62.121 18.7542 61.6834 18.3166C61.2458 17.879 61 17.2855 61 16.6667V5L75 19Z" fill="black"/>
<path d="M25.6914 78.4336C26.7969 78.4336 27.6035 78.6719 28.1113 79.1484C28.6191 79.6211 28.873 80.2734 28.873 81.1055C28.873 81.4805 28.8164 81.8398 28.7031 82.1836C28.5898 82.5234 28.4043 82.8262 28.1465 83.0918C27.8926 83.3574 27.5527 83.5684 27.127 83.7246C26.7012 83.877 26.1758 83.9531 25.5508 83.9531H24.7715V87H22.9551V78.4336H25.6914ZM25.5977 79.9219H24.7715V82.4648H25.3691C25.709 82.4648 26.0039 82.4199 26.2539 82.3301C26.5039 82.2402 26.6973 82.0996 26.834 81.9082C26.9707 81.7168 27.0391 81.4707 27.0391 81.1699C27.0391 80.748 26.9219 80.4355 26.6875 80.2324C26.4531 80.0254 26.0898 79.9219 25.5977 79.9219ZM37.5977 82.6348C37.5977 83.5996 37.4121 84.4062 37.041 85.0547C36.6738 85.6992 36.1406 86.1855 35.4414 86.5137C34.7422 86.8379 33.9004 87 32.916 87H30.4902V78.4336H33.1797C34.0781 78.4336 34.8574 78.5938 35.5176 78.9141C36.1777 79.2305 36.6895 79.7012 37.0527 80.3262C37.416 80.9473 37.5977 81.7168 37.5977 82.6348ZM35.7109 82.6816C35.7109 82.0488 35.6172 81.5293 35.4297 81.123C35.2461 80.7129 34.9727 80.4102 34.6094 80.2148C34.25 80.0195 33.8047 79.9219 33.2734 79.9219H32.3066V85.5H33.0859C33.9727 85.5 34.6309 85.2637 35.0605 84.791C35.4941 84.3184 35.7109 83.6152 35.7109 82.6816ZM41.1602 87H39.373V78.4336H44.2832V79.9219H41.1602V82.1309H44.0664V83.6133H41.1602V87ZM49.7793 78.4336L46.5859 87H44.9629L48.1562 78.4336H49.7793ZM56.1602 87L55.5391 84.9609H52.416L51.7949 87H49.8379L52.8613 78.3984H55.082L58.1172 87H56.1602ZM55.1055 83.4375L54.4844 81.4453C54.4453 81.3125 54.3926 81.1426 54.3262 80.9355C54.2637 80.7246 54.1992 80.5117 54.1328 80.2969C54.0703 80.0781 54.0195 79.8887 53.9805 79.7285C53.9414 79.8887 53.8867 80.0879 53.8164 80.3262C53.75 80.5605 53.6855 80.7832 53.623 80.9941C53.5605 81.2051 53.5156 81.3555 53.4883 81.4453L52.873 83.4375H55.1055Z" fill="white"/>
<path d="M34.0286 52.2618C35.0487 50.2485 36.2367 47.9722 37.1793 45.7024L37.5538 44.8048C36.3271 40.1561 35.5846 36.4244 36.2625 34.0135C36.4006 33.6893 36.6389 33.4171 36.9429 33.2362C37.247 33.0552 37.6011 32.9749 37.954 33.0068H38.5222C39.5939 33.0068 40.0975 34.3469 40.1556 34.8727C40.1654 35.6698 40.0611 36.4643 39.8457 37.2323C39.8963 36.4145 39.7732 35.5953 39.4842 34.8278C39.0258 33.866 38.5997 33.289 38.2187 33.2248C38.0833 33.3329 37.9737 33.4695 37.8977 33.6247C37.8218 33.7799 37.7815 33.95 37.7797 34.1225C37.6744 34.7992 37.6247 35.4832 37.6312 36.1679C37.6729 38.2114 37.9877 40.2403 38.5674 42.2015C38.6836 41.8553 38.7869 41.5603 38.8773 41.2141C39.0064 40.7268 39.8393 37.4888 39.8393 37.4888C39.8393 37.4888 39.6262 41.7976 39.3357 43.1056C39.2711 43.3813 39.2001 43.657 39.1291 43.9327C40.1126 46.7301 41.7422 49.2599 43.8873 51.3193C44.7436 52.0383 45.6768 52.6618 46.67 53.1787C48.5184 52.9009 50.3852 52.7616 52.2547 52.7619C54.3723 52.7619 55.9283 53.1018 56.5545 53.7173C56.8282 54.0066 56.9865 54.385 57 54.7817C56.9883 54.9976 56.9581 55.2121 56.9096 55.4229C56.9096 55.3075 56.9096 54.7817 55.231 54.2174C53.8945 53.7943 51.3572 53.8071 48.3809 54.1213C51.8608 55.814 55.2504 56.686 56.3221 56.1474C56.5481 55.9979 56.745 55.8089 56.9032 55.5896C56.8265 55.9537 56.7163 56.31 56.5739 56.654C56.3628 56.9242 56.0714 57.1217 55.741 57.2182C54.043 57.6735 49.6334 56.6283 45.7855 54.4483C41.4426 55.103 37.1608 56.1087 32.9827 57.4555C29.2381 63.9251 26.4684 66.8938 24.1958 65.7653L23.3629 65.3485C23.2097 65.2267 23.0975 65.0615 23.041 64.8748C22.9845 64.6882 22.9864 64.4889 23.0465 64.3034C23.3112 63.021 24.9382 61.0974 28.2115 59.1354C28.5666 58.9238 30.1484 58.1031 30.1484 58.1031C30.1484 58.1031 28.9928 59.2187 28.7216 59.4367C26.1391 61.5591 24.2022 64.2264 24.2345 65.2652V65.3549C26.449 65.0408 29.7675 60.5588 34.0415 52.2618H34.0286ZM35.3974 52.9479C34.6807 54.2816 33.9834 55.5127 33.3378 56.6604C36.898 55.2439 40.5984 54.2037 44.378 53.557C43.8873 53.2172 43.416 52.8645 42.9641 52.4862C41.0049 50.82 39.4097 48.7732 38.2769 46.4719C37.4539 48.6941 36.4789 50.8578 35.3586 52.9479" fill="white"/>
</g>
<defs>
<clipPath id="clip0_2964_22042">
<rect width="80" height="100" fill="white"/>
</clipPath>
</defs>
</svg>
