<svg width="100" height="127" viewBox="0 0 100 127" fill="none" xmlns="http://www.w3.org/2000/svg">
<symbol id="svg-format-png">
<g>
<path d="M95 23V119C95 119.796 94.6839 120.559 94.1213 121.121C93.5587 121.684 92.7956 122 92 122H8C7.20435 122 6.44129 121.684 5.87868 121.121C5.31607 120.559 5 119.796 5 119V8C5 7.20435 5.31607 6.44129 5.87868 5.87868C6.44129 5.31607 7.20435 5 8 5H77L95 23Z" fill="#D871D6"/>
<g>
<path d="M39.8984 109.465H40.4961C41.0547 109.465 41.4727 109.355 41.75 109.137C42.0273 108.914 42.166 108.592 42.166 108.17C42.166 107.744 42.0488 107.43 41.8145 107.227C41.584 107.023 41.2207 106.922 40.7246 106.922H39.8984V109.465ZM44 108.105C44 109.027 43.7109 109.732 43.1328 110.221C42.5586 110.709 41.7402 110.953 40.6777 110.953H39.8984V114H38.082V105.434H40.8184C41.8574 105.434 42.6465 105.658 43.1855 106.107C43.7285 106.553 44 107.219 44 108.105Z" fill="white"/>
<path d="M53.2168 114H50.9082L47.1816 107.52H47.1289C47.2031 108.664 47.2402 109.48 47.2402 109.969V114H45.6172V105.434H47.9082L51.6289 111.85H51.6699C51.6113 110.736 51.582 109.949 51.582 109.488V105.434H53.2168V114Z" fill="white"/>
<path d="M58.6309 109.189H62.0293V113.631C61.4785 113.811 60.959 113.936 60.4707 114.006C59.9863 114.08 59.4902 114.117 58.9824 114.117C57.6895 114.117 56.7012 113.738 56.0176 112.98C55.3379 112.219 54.998 111.127 54.998 109.705C54.998 108.322 55.3926 107.244 56.1816 106.471C56.9746 105.697 58.0723 105.311 59.4746 105.311C60.3535 105.311 61.2012 105.486 62.0176 105.838L61.4141 107.291C60.7891 106.979 60.1387 106.822 59.4629 106.822C58.6777 106.822 58.0488 107.086 57.5762 107.613C57.1035 108.141 56.8672 108.85 56.8672 109.74C56.8672 110.67 57.0566 111.381 57.4355 111.873C57.8184 112.361 58.373 112.605 59.0996 112.605C59.4785 112.605 59.8633 112.566 60.2539 112.488V110.701H58.6309V109.189Z" fill="white"/>
</g>
<path d="M56 51.869L73.183 79H27.7869L39.5 59.912L44.274 67.6919L45.113 69.059L45.9712 67.7039L56 51.869ZM36 51.5C36 53.9853 33.9853 56 31.5 56C29.0147 56 27 53.9853 27 51.5C27 49.0147 29.0147 47 31.5 47C33.9853 47 36 49.0147 36 51.5Z" fill="white" stroke="white" stroke-width="2"/>
<path opacity="0.2" d="M95 23H80C79.2044 23 78.4413 22.6839 77.8787 22.1213C77.3161 21.5587 77 20.7956 77 20V5L95 23Z" fill="black"/>
</g>
</symbol>
</svg>
