<svg width="24" height="30" viewBox="0 0 24 30" fill="none" xmlns="http://www.w3.org/2000/svg">
    <path d="M1.5 2.5a2 2 0 0 1 2-2h13.283a1 1 0 0 1 .71.296l4.665 4.71a1 1 0 0 1 .29.701l.048 21.289a2 2 0 0 1-2 2.004H3.5a2 2 0 0 1-2-2z" fill="#fff" stroke="#BBB"/>
    <path d="M16.5.5V5A1.5 1.5 0 0 0 18 6.5h4.5" stroke="#BBB"/>
    <path d="M6.5 15h5a.5.5 0 0 0 .5-.5v-5a.47.47 0 0 1 .5-.48 6 6 0 1 1-6.48 6.48.47.47 0 0 1 .48-.5" fill="#FAC299"/>
    <path d="M5.5 13c-.276 0-.503-.225-.475-.5a5 5 0 0 1 4.476-4.475c.275-.028.499.199.499.475v4a.5.5 0 0 1-.5.5z" fill="#F36700"/>
</svg>
