<svg width="24" height="30" fill="none" xmlns="http://www.w3.org/2000/svg"><g clip-path="url(#a)"><path d="M1 1h14.3L23 8.703V29H1V1z" fill="#fff"/><path d="M3 4v12h18V9h-1v6H4V5h11V4H3z" fill="#BFBFBF"/><path d="M15 7h-3V6H8v2h7V7zM7 6H5v2h2V6zM17 9v1h-6v1H8V9h9zM7 12H5v2h2v-2zM8 12h3v1h7v1H8v-2zM7 9H5v2h2V9z" fill="#BFBFBF"/><path d="M1 29V1h14.3L23 8.7V29H1zM15.3 0H0v30h24V8.7L15.3 0z" fill="#BFBFBF"/><path d="M5 21h2v1H5v-1zM13 21h-2v1h2v-1z" fill="#F38400"/><path d="M3 18a1 1 0 0 0-1 1v7a1 1 0 0 0 1 1h18a1 1 0 0 0 1-1v-7a1 1 0 0 0-1-1H3zm1 7v-5h4v3H5v2H4zm6-5h4v3h-3v2h-1v-5zm7 0h2v1h-2v-1zm0 2h-1v-1h1v1zm2 1h-2v-1h2v1zm0 1v-1h1v1h-1zm0 0v1h-3v-1h3z" fill="#F38400"/><path opacity=".3" d="M14 10V1h1v8h8v1h-9z" fill="#000"/></g><defs><clipPath id="a"><path fill="#fff" d="M0 0h24v30H0z"/></clipPath></defs></svg>