<svg width="24" height="30" viewBox="0 0 24 30" fill="none" xmlns="http://www.w3.org/2000/svg">
    <g clip-path="url(#a)">
        <path d="M1 1h14.3L23 8.703V29H1V1Z" fill="#fff"/>
        <path d="M3 4v12h18V9h-1v6H4V5h11V4H3Z" fill="#BFBFBF"/>
        <path d="M15 7h-3V6H8v2h7V7ZM7 6H5v2h2V6Zm10 3v1h-6v1H8V9h9ZM7 12H5v2h2v-2Zm1 0h3v1h7v1H8v-2ZM7 9H5v2h2V9Z" fill="#BFBFBF"/>
        <path d="M1 29V1h14.3L23 8.7V29H1ZM15.3 0H0v30h24V8.7L15.3 0Z" fill="#BFBFBF"/>
        <path d="M2 19a1 1 0 0 1 1-1h18a1 1 0 0 1 1 1v7a1 1 0 0 1-1 1H3a1 1 0 0 1-1-1v-7Z" fill="#F36700"/>
        <path d="M3 20h3v3H4v2H3v-5Zm1 1v1h1v-1H4Zm3-1v5h1v-2h2v-3H7Zm2 1v1H8v-1h1Zm7-1h1v1h1v2h1v-2h1v-1h1v5h-1v-2h-1v2h-1v-2h-1v2h-1v-5Zm-2 2h-2v-1h2v-1h-2v1h-1v1h1v1h2v1h-3v1h3v-1h1v-1h-1v-1Z" fill="#fff"/>
        <path opacity=".3" d="M14 10V1h1v8h8v1h-9Z" fill="#000"/>
    </g>
    <defs>
        <clipPath id="a">
            <path fill="#fff" d="M0 0h24v30H0z"/>
        </clipPath>
    </defs>
</svg>
