<svg width="24" height="30" viewBox="0 0 24 30" fill="none" xmlns="http://www.w3.org/2000/svg">
    <path d="M1 2a2 2 0 0 1 2-2h13.586a1 1 0 0 1 .707.293l5.414 5.414a1 1 0 0 1 .293.707V28a2 2 0 0 1-2 2H3a2 2 0 0 1-2-2z" fill="#fff"/>
    <path d="M1 2a2 2 0 0 1 2-2h13.586a1 1 0 0 1 .707.293l5.414 5.414a1 1 0 0 1 .293.707V28a2 2 0 0 1-2 2H3a2 2 0 0 1-2-2zm21 5h-3.12c-.403 0-.735 0-1.006-.022-.281-.023-.54-.072-.782-.196a2 2 0 0 1-.874-.874c-.124-.243-.173-.501-.196-.782C16 4.856 16 4.523 16 4.12V1H3a1 1 0 0 0-1 1v26a1 1 0 0 0 1 1h18a1 1 0 0 0 1-1zm-.414-1L17 1.414V4.1c0 .428 0 .72.019.944.018.22.05.332.09.41a1 1 0 0 0 .437.437c.078.04.19.072.41.09.225.019.516.019.944.019z" fill="#BBB"/>
    <path d="M5.025 12.5c-.028.276.199.5.475.5h4a.5.5 0 0 0 .5-.5v-4c0-.276-.224-.503-.5-.475a5 5 0 0 0-4.475 4.476" fill="#F8C9A4"/>
    <path d="M6.02 15.5a.47.47 0 0 1 .48-.5h5a.5.5 0 0 0 .5-.5v-5a.47.47 0 0 1 .5-.48 6 6 0 1 1-6.48 6.48" fill="#F8C9A4"/>
    <path d="M12 18.2c0-1.12 0-1.68.218-2.108a2 2 0 0 1 .874-.874C13.52 15 14.08 15 15.2 15h5.6c1.12 0 1.68 0 2.108.218a2 2 0 0 1 .874.874C24 16.52 24 17.08 24 18.2v5.6c0 1.12 0 1.68-.218 2.108a2 2 0 0 1-.874.874C22.48 27 21.92 27 20.8 27h-5.6c-1.12 0-1.68 0-2.108-.218a2 2 0 0 1-.874-.874C12 25.48 12 24.92 12 23.8z" fill="#ED771C"/>
    <path d="M18.055 18.074q1.233 0 1.818.54.594.531.594 1.485 0 .432-.126.828a1.8 1.8 0 0 1-.423.693 2 2 0 0 1-.765.486q-.469.18-1.161.18h-.54V24.5h-1.53v-6.426zM18 19.325h-.55v1.71h.406q.315 0 .549-.09a.77.77 0 0 0 .378-.288.9.9 0 0 0 .135-.513q0-.396-.225-.603-.225-.216-.693-.216" fill="#fff"/>
</svg>
