<svg width="100" height="127" viewBox="0 0 100 127" fill="none" xmlns="http://www.w3.org/2000/svg">
<g>
<path id="Vector" d="M95 23V119C95 119.796 94.6839 120.559 94.1213 121.121C93.5587 121.684 92.7956 122 92 122H8C7.20435 122 6.44129 121.684 5.87868 121.121C5.31607 120.559 5 119.796 5 119V8C5 7.20435 5.31607 6.44129 5.87868 5.87868C6.44129 5.31607 7.20435 5 8 5H77L95 23Z" fill="#E87616"/>
<path id="Vector_2" opacity="0.2" d="M95 23H80C79.2044 23 78.4413 22.6839 77.8787 22.1213C77.3161 21.5587 77 20.7956 77 20V5L95 23Z" fill="black"/>
<g>
<path d="M38.0527 109.465H38.6504C39.209 109.465 39.627 109.355 39.9043 109.137C40.1816 108.914 40.3203 108.592 40.3203 108.17C40.3203 107.744 40.2031 107.43 39.9688 107.227C39.7383 107.023 39.375 106.922 38.8789 106.922H38.0527V109.465ZM42.1543 108.105C42.1543 109.027 41.8652 109.732 41.2871 110.221C40.7129 110.709 39.8945 110.953 38.832 110.953H38.0527V114H36.2363V105.434H38.9727C40.0117 105.434 40.8008 105.658 41.3398 106.107C41.8828 106.553 42.1543 107.219 42.1543 108.105Z" fill="white"/>
<path d="M45.5879 109.465H46.1855C46.7441 109.465 47.1621 109.355 47.4395 109.137C47.7168 108.914 47.8555 108.592 47.8555 108.17C47.8555 107.744 47.7383 107.43 47.5039 107.227C47.2734 107.023 46.9102 106.922 46.4141 106.922H45.5879V109.465ZM49.6895 108.105C49.6895 109.027 49.4004 109.732 48.8223 110.221C48.248 110.709 47.4297 110.953 46.3672 110.953H45.5879V114H43.7715V105.434H46.5078C47.5469 105.434 48.3359 105.658 48.875 106.107C49.418 106.553 49.6895 107.219 49.6895 108.105Z" fill="white"/>
<path d="M56.3633 111.621C56.3633 112.395 56.084 113.004 55.5254 113.449C54.9707 113.895 54.1973 114.117 53.2051 114.117C52.291 114.117 51.4824 113.945 50.7793 113.602V111.914C51.3574 112.172 51.8457 112.354 52.2441 112.459C52.6465 112.564 53.0137 112.617 53.3457 112.617C53.7441 112.617 54.0488 112.541 54.2598 112.389C54.4746 112.236 54.582 112.01 54.582 111.709C54.582 111.541 54.5352 111.393 54.4414 111.264C54.3477 111.131 54.209 111.004 54.0254 110.883C53.8457 110.762 53.4766 110.568 52.918 110.303C52.3945 110.057 52.002 109.82 51.7402 109.594C51.4785 109.367 51.2695 109.104 51.1133 108.803C50.957 108.502 50.8789 108.15 50.8789 107.748C50.8789 106.99 51.1348 106.395 51.6465 105.961C52.1621 105.527 52.873 105.311 53.7793 105.311C54.2246 105.311 54.6484 105.363 55.0508 105.469C55.457 105.574 55.8809 105.723 56.3223 105.914L55.7363 107.326C55.2793 107.139 54.9004 107.008 54.5996 106.934C54.3027 106.859 54.0098 106.822 53.7207 106.822C53.377 106.822 53.1133 106.902 52.9297 107.062C52.7461 107.223 52.6543 107.432 52.6543 107.689C52.6543 107.85 52.6914 107.99 52.7656 108.111C52.8398 108.229 52.957 108.344 53.1172 108.457C53.2812 108.566 53.666 108.766 54.2715 109.055C55.0723 109.438 55.6211 109.822 55.918 110.209C56.2148 110.592 56.3633 111.062 56.3633 111.621Z" fill="white"/>
<path d="M64.8418 114H62.7676L60.7754 110.76L58.7832 114H56.8379L59.6797 109.582L57.0195 105.434H59.0234L60.8691 108.516L62.6797 105.434H64.6367L61.9473 109.682L64.8418 114Z" fill="white"/>
</g>
<path id="Vector_3" d="M50 69C54.2435 69 58.3131 67.3143 61.3137 64.3137C64.3143 61.3131 66 57.2435 66 53H50V37C45.7565 37 41.6869 38.6857 38.6863 41.6863C35.6857 44.6869 34 48.7565 34 53C34 57.2435 35.6857 61.3131 38.6863 64.3137C41.6869 67.3143 45.7565 69 50 69Z" fill="white"/>
<path id="Vector_4" d="M53 34V50H69C69 45.7565 67.3143 41.6869 64.3137 38.6863C61.3131 35.6857 57.2435 34 53 34Z" fill="white"/>
<path id="Vector_5" d="M75 89H25V91H75V89Z" fill="white"/>
<path id="Vector_6" d="M75 83H25V85H75V83Z" fill="white"/>
<path id="Vector_7" d="M75 77H25V79H75V77Z" fill="white"/>
</g>
</svg>
