<svg width="80" height="100" viewBox="0 0 80 100" fill="none" xmlns="http://www.w3.org/2000/svg">
<g clip-path="url(#clip0_2964_22052)">
<path d="M75 19V92.6667C75 93.2855 74.7542 93.879 74.3166 94.3166C73.879 94.7542 73.2855 95 72.6667 95H7.33333C6.71449 95 6.121 94.7542 5.68342 94.3166C5.24583 93.879 5 93.2855 5 92.6667V7.33333C5 6.71449 5.24583 6.121 5.68342 5.68342C6.121 5.24583 6.71449 5 7.33333 5H61L75 19Z" fill="#DD682B"/>
<path fill-rule="evenodd" clip-rule="evenodd" d="M41 46V34C44.1826 34 47.2348 35.2643 49.4853 37.5147C51.7357 39.7652 53 42.8174 53 46H41ZM47.4853 56.4853C45.2348 58.7357 42.1826 60 39 60C35.8174 60 32.7652 58.7357 30.5147 56.4853C28.2643 54.2348 27 51.1826 27 48C27 44.8174 28.2643 41.7652 30.5147 39.5147C32.7652 37.2643 35.8174 36 39 36V48H51C51 51.1826 49.7357 54.2348 47.4853 56.4853Z" fill="white"/>
<path opacity="0.2" d="M75 19H63.3333C62.7145 19 62.121 18.7542 61.6834 18.3166C61.2458 17.879 61 17.2855 61 16.6667V5L75 19Z" fill="black"/>
<path d="M28.9727 78.4336C30.0781 78.4336 30.8848 78.6719 31.3926 79.1484C31.9004 79.6211 32.1543 80.2734 32.1543 81.1055C32.1543 81.4805 32.0977 81.8398 31.9844 82.1836C31.8711 82.5234 31.6855 82.8262 31.4277 83.0918C31.1738 83.3574 30.834 83.5684 30.4082 83.7246C29.9824 83.877 29.457 83.9531 28.832 83.9531H28.0527V87H26.2363V78.4336H28.9727ZM28.8789 79.9219H28.0527V82.4648H28.6504C28.9902 82.4648 29.2852 82.4199 29.5352 82.3301C29.7852 82.2402 29.9785 82.0996 30.1152 81.9082C30.252 81.7168 30.3203 81.4707 30.3203 81.1699C30.3203 80.748 30.2031 80.4355 29.9688 80.2324C29.7344 80.0254 29.3711 79.9219 28.8789 79.9219ZM36.5078 78.4336C37.6133 78.4336 38.4199 78.6719 38.9277 79.1484C39.4355 79.6211 39.6895 80.2734 39.6895 81.1055C39.6895 81.4805 39.6328 81.8398 39.5195 82.1836C39.4062 82.5234 39.2207 82.8262 38.9629 83.0918C38.709 83.3574 38.3691 83.5684 37.9434 83.7246C37.5176 83.877 36.9922 83.9531 36.3672 83.9531H35.5879V87H33.7715V78.4336H36.5078ZM36.4141 79.9219H35.5879V82.4648H36.1855C36.5254 82.4648 36.8203 82.4199 37.0703 82.3301C37.3203 82.2402 37.5137 82.0996 37.6504 81.9082C37.7871 81.7168 37.8555 81.4707 37.8555 81.1699C37.8555 80.748 37.7383 80.4355 37.5039 80.2324C37.2695 80.0254 36.9062 79.9219 36.4141 79.9219ZM46.3633 84.6211C46.3633 85.1289 46.2402 85.5703 45.9941 85.9453C45.748 86.3203 45.3887 86.6094 44.916 86.8125C44.4473 87.0156 43.877 87.1172 43.2051 87.1172C42.9082 87.1172 42.6172 87.0977 42.332 87.0586C42.0508 87.0195 41.7793 86.9629 41.5176 86.8887C41.2598 86.8105 41.0137 86.7148 40.7793 86.6016V84.9141C41.1855 85.0938 41.6074 85.2559 42.0449 85.4004C42.4824 85.5449 42.916 85.6172 43.3457 85.6172C43.6426 85.6172 43.8809 85.5781 44.0605 85.5C44.2441 85.4219 44.377 85.3145 44.459 85.1777C44.541 85.041 44.582 84.8848 44.582 84.709C44.582 84.4941 44.5098 84.3105 44.3652 84.1582C44.2207 84.0059 44.0215 83.8633 43.7676 83.7305C43.5176 83.5977 43.2344 83.4551 42.918 83.3027C42.7188 83.209 42.502 83.0957 42.2676 82.9629C42.0332 82.8262 41.8105 82.6602 41.5996 82.4648C41.3887 82.2695 41.2148 82.0332 41.0781 81.7559C40.9453 81.4746 40.8789 81.1387 40.8789 80.748C40.8789 80.2363 40.9961 79.7988 41.2305 79.4355C41.4648 79.0723 41.7988 78.7949 42.2324 78.6035C42.6699 78.4082 43.1855 78.3105 43.7793 78.3105C44.2246 78.3105 44.6484 78.3633 45.0508 78.4688C45.457 78.5703 45.8809 78.7188 46.3223 78.9141L45.7363 80.3262C45.3418 80.166 44.9883 80.043 44.6758 79.957C44.3633 79.8672 44.0449 79.8223 43.7207 79.8223C43.4941 79.8223 43.3008 79.8594 43.1406 79.9336C42.9805 80.0039 42.8594 80.1055 42.7773 80.2383C42.6953 80.3672 42.6543 80.5176 42.6543 80.6895C42.6543 80.8926 42.7129 81.0645 42.8301 81.2051C42.9512 81.3418 43.1309 81.4746 43.3691 81.6035C43.6113 81.7324 43.9121 81.8828 44.2715 82.0547C44.709 82.2617 45.082 82.4785 45.3906 82.7051C45.7031 82.9277 45.9434 83.1914 46.1113 83.4961C46.2793 83.7969 46.3633 84.1719 46.3633 84.6211ZM54.8418 87H52.7676L50.7754 83.7598L48.7832 87H46.8379L49.6797 82.582L47.0195 78.4336H49.0234L50.8691 81.5156L52.6797 78.4336H54.6367L51.9473 82.6816L54.8418 87Z" fill="white"/>
</g>
<defs>
<clipPath id="clip0_2964_22052">
<rect width="80" height="100" fill="white"/>
</clipPath>
</defs>
</svg>
