<svg width="90" height="117" viewBox="0 0 90 117" fill="none" xmlns="http://www.w3.org/2000/svg">
    <symbol id="svg-format-pptm">
<path d="M90 18V114C90 114.796 89.6839 115.559 89.1213 116.121C88.5587 116.684 87.7956 117 87 117H3C2.20435 117 1.44129 116.684 0.87868 116.121C0.316071 115.559 0 114.796 0 114V3C0 2.20435 0.316071 1.44129 0.87868 0.87868C1.44129 0.316071 2.20435 0 3 0H72L90 18Z" fill="#DD682B"/>
<path opacity="0.2" d="M90 18H75C74.2044 18 73.4413 17.6839 72.8787 17.1213C72.3161 16.5587 72 15.7956 72 15V0L90 18Z" fill="black"/>
<path d="M32.2146 104.465H32.8123C33.3708 104.465 33.7888 104.355 34.0662 104.137C34.3435 103.914 34.4822 103.592 34.4822 103.17C34.4822 102.744 34.365 102.43 34.1306 102.227C33.9001 102.023 33.5369 101.922 33.0408 101.922H32.2146V104.465ZM36.3162 103.105C36.3162 104.027 36.0271 104.732 35.449 105.221C34.8748 105.709 34.0564 105.953 32.9939 105.953H32.2146V109H30.3982V100.434H33.1345C34.1736 100.434 34.9626 100.658 35.5017 101.107C36.0447 101.553 36.3162 102.219 36.3162 103.105ZM39.7498 104.465H40.3474C40.906 104.465 41.324 104.355 41.6013 104.137C41.8787 103.914 42.0173 103.592 42.0173 103.17C42.0173 102.744 41.9001 102.43 41.6658 102.227C41.4353 102.023 41.072 101.922 40.5759 101.922H39.7498V104.465ZM43.8513 103.105C43.8513 104.027 43.5623 104.732 42.9841 105.221C42.4099 105.709 41.5916 105.953 40.5291 105.953H39.7498V109H37.9333V100.434H40.6697C41.7087 100.434 42.4978 100.658 43.0369 101.107C43.5798 101.553 43.8513 102.219 43.8513 103.105ZM48.7732 109H46.9568V101.945H44.6306V100.434H51.0994V101.945H48.7732V109ZM56.0447 109L53.9822 102.279H53.9294C54.0037 103.646 54.0408 104.559 54.0408 105.016V109H52.4177V100.434H54.8904L56.9177 106.984H56.9529L59.1033 100.434H61.5759V109H59.8826V104.945C59.8826 104.754 59.8845 104.533 59.8884 104.283C59.8962 104.033 59.9236 103.369 59.9705 102.291H59.9177L57.7087 109H56.0447Z" fill="white"/>
<path d="M45 64C49.2435 64 53.3131 62.3143 56.3137 59.3137C59.3143 56.3131 61 52.2435 61 48H45V32C40.7565 32 36.6869 33.6857 33.6863 36.6863C30.6857 39.6869 29 43.7565 29 48C29 52.2435 30.6857 56.3131 33.6863 59.3137C36.6869 62.3143 40.7565 64 45 64Z" fill="white"/>
<path d="M48 29V45H64C64 40.7565 62.3143 36.6869 59.3137 33.6863C56.3131 30.6857 52.2435 29 48 29Z" fill="white"/>
<path d="M70 84H20V86H70V84Z" fill="white"/>
<path d="M70 78H20V80H70V78Z" fill="white"/>
<path d="M70 72H20V74H70V72Z" fill="white"/>
<path d="M10 12C10 10.8954 10.8954 10 12 10H24C25.1046 10 26 10.8954 26 12V21C26 22.1046 25.1046 23 24 23H12C10.8954 23 10 22.1046 10 21V12Z" fill="white"/>
<path d="M17.2969 21L14.8125 13.8457H14.7656C14.832 14.9082 14.8652 15.9043 14.8652 16.834V21H13.5938V12.4336H15.5684L17.9473 19.248H17.9824L20.4316 12.4336H22.4121V21H21.0645V16.7637C21.0645 16.3379 21.0742 15.7832 21.0938 15.0996C21.1172 14.416 21.1367 14.002 21.1523 13.8574H21.1055L18.5332 21H17.2969Z" fill="#DD682B"/>
    </symbol>
</svg>
