<svg width="24" height="30" viewBox="0 0 24 30" fill="none" xmlns="http://www.w3.org/2000/svg">
    <path d="M1.5 2.5a2 2 0 0 1 2-2h13.283a1 1 0 0 1 .71.296l4.665 4.71a1 1 0 0 1 .29.701l.048 21.289a2 2 0 0 1-2 2.004H3.5a2 2 0 0 1-2-2z" fill="#fff" stroke="#BBB"/>
    <path d="M16.5.5V5A1.5 1.5 0 0 0 18 6.5h4.5" stroke="#BBB"/>
    <path d="M6.5 15h5a.5.5 0 0 0 .5-.5v-5a.47.47 0 0 1 .5-.48 6 6 0 1 1-6.48 6.48.47.47 0 0 1 .48-.5" fill="#FAC299"/>
    <path d="M5.5 13c-.276 0-.503-.225-.475-.5a5 5 0 0 1 4.476-4.475c.275-.028.499.199.499.475v4a.5.5 0 0 1-.5.5z" fill="#FAC299"/>
    <rect x="12" y="15" width="12" height="12" rx="2" fill="#F36700"/>
    <path d="M17.845 17.43q1.37 0 2.02.6.66.59.66 1.65 0 .48-.14.92-.14.43-.47.77a2.2 2.2 0 0 1-.85.54q-.52.2-1.29.2h-.6v2.46h-1.7v-7.14zm-.06 1.39h-.61v1.9h.45q.35 0 .61-.1a.85.85 0 0 0 .42-.32q.15-.22.15-.57 0-.44-.25-.67-.25-.24-.77-.24" fill="#fff"/>
</svg>
