<svg style="position: absolute; width: 0; height: 0; overflow: hidden;" width="100" height="127" viewBox="0 0 100 127" fill="none" xmlns="http://www.w3.org/2000/svg">
<symbol id="svg-format-pptm">
<path d="M95 23V119C95 119.796 94.6839 120.559 94.1213 121.121C93.5587 121.684 92.7956 122 92 122H8C7.20435 122 6.44129 121.684 5.87868 121.121C5.31607 120.559 5 119.796 5 119V8C5 7.20435 5.31607 6.44129 5.87868 5.87868C6.44129 5.31607 7.20435 5 8 5H77L95 23Z" fill="#DD682B"/>
<path opacity="0.2" d="M95 23H80C79.2044 23 78.4413 22.6839 77.8787 22.1213C77.3161 21.5587 77 20.7956 77 20V5L95 23Z" fill="black"/>
<path d="M37.2146 109.465H37.8123C38.3708 109.465 38.7888 109.355 39.0662 109.137C39.3435 108.914 39.4822 108.592 39.4822 108.17C39.4822 107.744 39.365 107.43 39.1306 107.227C38.9001 107.023 38.5369 106.922 38.0408 106.922H37.2146V109.465ZM41.3162 108.105C41.3162 109.027 41.0271 109.732 40.449 110.221C39.8748 110.709 39.0564 110.953 37.9939 110.953H37.2146V114H35.3982V105.434H38.1345C39.1736 105.434 39.9626 105.658 40.5017 106.107C41.0447 106.553 41.3162 107.219 41.3162 108.105ZM44.7498 109.465H45.3474C45.906 109.465 46.324 109.355 46.6013 109.137C46.8787 108.914 47.0173 108.592 47.0173 108.17C47.0173 107.744 46.9001 107.43 46.6658 107.227C46.4353 107.023 46.072 106.922 45.5759 106.922H44.7498V109.465ZM48.8513 108.105C48.8513 109.027 48.5623 109.732 47.9841 110.221C47.4099 110.709 46.5916 110.953 45.5291 110.953H44.7498V114H42.9333V105.434H45.6697C46.7087 105.434 47.4978 105.658 48.0369 106.107C48.5798 106.553 48.8513 107.219 48.8513 108.105ZM53.7732 114H51.9568V106.945H49.6306V105.434H56.0994V106.945H53.7732V114ZM61.0447 114L58.9822 107.279H58.9294C59.0037 108.646 59.0408 109.559 59.0408 110.016V114H57.4177V105.434H59.8904L61.9177 111.984H61.9529L64.1033 105.434H66.5759V114H64.8826V109.945C64.8826 109.754 64.8845 109.533 64.8884 109.283C64.8962 109.033 64.9236 108.369 64.9705 107.291H64.9177L62.7087 114H61.0447Z" fill="white"/>
<path d="M50 69C54.2435 69 58.3131 67.3143 61.3137 64.3137C64.3143 61.3131 66 57.2435 66 53H50V37C45.7565 37 41.6869 38.6857 38.6863 41.6863C35.6857 44.6869 34 48.7565 34 53C34 57.2435 35.6857 61.3131 38.6863 64.3137C41.6869 67.3143 45.7565 69 50 69Z" fill="white"/>
<path d="M53 34V50H69C69 45.7565 67.3143 41.6869 64.3137 38.6863C61.3131 35.6857 57.2435 34 53 34Z" fill="white"/>
<path d="M75 89H25V91H75V89Z" fill="white"/>
<path d="M75 83H25V85H75V83Z" fill="white"/>
<path d="M75 77H25V79H75V77Z" fill="white"/>
<path d="M15 17C15 15.8954 15.8954 15 17 15H29C30.1046 15 31 15.8954 31 17V26C31 27.1046 30.1046 28 29 28H17C15.8954 28 15 27.1046 15 26V17Z" fill="white"/>
<path d="M22.2969 26L19.8125 18.8457H19.7656C19.832 19.9082 19.8652 20.9043 19.8652 21.834V26H18.5938V17.4336H20.5684L22.9473 24.248H22.9824L25.4316 17.4336H27.4121V26H26.0645V21.7637C26.0645 21.3379 26.0742 20.7832 26.0938 20.0996C26.1172 19.416 26.1367 19.002 26.1523 18.8574H26.1055L23.5332 26H22.2969Z" fill="#DD682B"/>
</symbol>
</svg>
