<svg xmlns="http://www.w3.org/2000/svg" viewBox="0 0 100 127" version="1.1" width="100" height="127">

  <symbol id="svg-format-pptx">
    <path d="M95,23v96a2.9,2.9,0,0,1-2.8,3H8a2.9,2.9,0,0,1-3-2.8V8A2.9,2.9,0,0,1,7.8,5H77Z" style="fill: #dd682b"/>
    <path d="M95,23H80a2.9,2.9,0,0,1-3-2.8V5Z" style="opacity: 0.20000000298023224;isolation: isolate"/>
    <g>
      <path d="M42,107.1a2.7,2.7,0,0,1-.9,2.1,4.1,4.1,0,0,1-2.4.8h-.8v3H36.1v-8.6h2.7a4,4,0,0,1,2.4.7A2.8,2.8,0,0,1,42,107.1Zm-4.1,1.4h.6a1.4,1.4,0,0,0,1.2-.4,1.1,1.1,0,0,0,.5-.9,1.3,1.3,0,0,0-.4-1,2,2,0,0,0-1.1-.3h-.8Z" style="fill: #fff"/>
      <path d="M49.5,107.1a3.2,3.2,0,0,1-.8,2.1,3.8,3.8,0,0,1-2.5.8h-.8v3H43.6v-8.6h2.7a4,4,0,0,1,2.4.7A2.2,2.2,0,0,1,49.5,107.1Zm-4.1,1.4H46a1.6,1.6,0,0,0,1.3-.4,1.5,1.5,0,0,0,.4-.9,1,1,0,0,0-.4-1,2,2,0,0,0-1.1-.3h-.8Z" style="fill: #fff"/>
      <path d="M54.4,113H52.6v-7.1H50.3v-1.5h6.5v1.5H54.4Z" style="fill: #fff"/>
      <path d="M65,113H62.9l-2-3.2L59,113H57l2.9-4.4-2.7-4.2h2l1.8,3.1,1.9-3.1h1.9l-2.7,4.3Z" style="fill: #fff"/>
    </g>
    <path d="M50,69A16,16,0,0,0,66,53H50V37a16,16,0,0,0,0,32Z" style="fill: #fff"/>
    <path d="M53,34V50H69A16,16,0,0,0,53,34Z" style="fill: #fff"/>
    <rect x="25" y="89" width="50" height="2" style="fill: #fff"/>
    <rect x="25" y="83" width="50" height="2" style="fill: #fff"/>
    <rect x="25" y="77" width="50" height="2" style="fill: #fff"/>
  </symbol>
</svg>
