<svg xmlns="http://www.w3.org/2000/svg" viewBox="0 0 100 127" version="1.1" width="100" height="127"><defs><style>.cls-2{opacity:0.2;}.cls-3{font-size:12px;font-family:OpenSans-Bold, Open Sans;font-weight:700;}.cls-3,.cls-4{fill:#fff;}</style></defs><symbol id="svg-format-pptx"><path fill="#dd682b" d="M95,23v96a3,3,0,0,1-3,3H8a3,3,0,0,1-3-3V8A3,3,0,0,1,8,5H77Z"/><path class="cls-2" d="M95,23H80a3,3,0,0,1-3-3V5Z"/><text class="cls-3" transform="translate(34.99 113)">PPTX</text><path class="cls-4" d="M50,69A16,16,0,0,0,66,53H50V37a16,16,0,0,0,0,32Z"/><path class="cls-4" d="M53,34V50H69A16,16,0,0,0,53,34Z"/><rect class="cls-4" x="25" y="89" width="50" height="2"/><rect class="cls-4" x="25" y="83" width="50" height="2"/><rect class="cls-4" x="25" y="77" width="50" height="2"/></symbol></svg>