<svg width="80" height="100" viewBox="0 0 80 100" fill="none" xmlns="http://www.w3.org/2000/svg">
<g clip-path="url(#clip0_2964_22038)">
<path d="M75 19V92.6667C75 93.2855 74.7542 93.879 74.3166 94.3166C73.879 94.7542 73.2855 95 72.6667 95H7.33333C6.71449 95 6.121 94.7542 5.68342 94.3166C5.24583 93.879 5 93.2855 5 92.6667V7.33333C5 6.71449 5.24583 6.121 5.68342 5.68342C6.121 5.24583 6.71449 5 7.33333 5H61L75 19Z" fill="#DD682B"/>
<path fill-rule="evenodd" clip-rule="evenodd" d="M41 46V34C44.1826 34 47.2348 35.2643 49.4853 37.5147C51.7357 39.7652 53 42.8174 53 46H41ZM47.4853 56.4853C45.2348 58.7357 42.1826 60 39 60C35.8174 60 32.7652 58.7357 30.5147 56.4853C28.2643 54.2348 27 51.1826 27 48C27 44.8174 28.2643 41.7652 30.5147 39.5147C32.7652 37.2643 35.8174 36 39 36V48H51C51 51.1826 49.7357 54.2348 47.4853 56.4853Z" fill="white"/>
<path opacity="0.2" d="M75 19H63.3333C62.7145 19 62.121 18.7542 61.6834 18.3166C61.2458 17.879 61 17.2855 61 16.6667V5L75 19Z" fill="black"/>
<path d="M28.8027 78.4336C29.9082 78.4336 30.7148 78.6719 31.2227 79.1484C31.7305 79.6211 31.9844 80.2734 31.9844 81.1055C31.9844 81.4805 31.9277 81.8398 31.8145 82.1836C31.7012 82.5234 31.5156 82.8262 31.2578 83.0918C31.0039 83.3574 30.6641 83.5684 30.2383 83.7246C29.8125 83.877 29.2871 83.9531 28.6621 83.9531H27.8828V87H26.0664V78.4336H28.8027ZM28.709 79.9219H27.8828V82.4648H28.4805C28.8203 82.4648 29.1152 82.4199 29.3652 82.3301C29.6152 82.2402 29.8086 82.0996 29.9453 81.9082C30.082 81.7168 30.1504 81.4707 30.1504 81.1699C30.1504 80.748 30.0332 80.4355 29.7988 80.2324C29.5645 80.0254 29.2012 79.9219 28.709 79.9219ZM36.3379 78.4336C37.4434 78.4336 38.25 78.6719 38.7578 79.1484C39.2656 79.6211 39.5195 80.2734 39.5195 81.1055C39.5195 81.4805 39.4629 81.8398 39.3496 82.1836C39.2363 82.5234 39.0508 82.8262 38.793 83.0918C38.5391 83.3574 38.1992 83.5684 37.7734 83.7246C37.3477 83.877 36.8223 83.9531 36.1973 83.9531H35.418V87H33.6016V78.4336H36.3379ZM36.2441 79.9219H35.418V82.4648H36.0156C36.3555 82.4648 36.6504 82.4199 36.9004 82.3301C37.1504 82.2402 37.3438 82.0996 37.4805 81.9082C37.6172 81.7168 37.6855 81.4707 37.6855 81.1699C37.6855 80.748 37.5684 80.4355 37.334 80.2324C37.0996 80.0254 36.7363 79.9219 36.2441 79.9219ZM44.4414 87H42.625V79.9453H40.2988V78.4336H46.7676V79.9453H44.4414V87ZM55.0117 87H52.9375L50.9453 83.7598L48.9531 87H47.0078L49.8496 82.582L47.1895 78.4336H49.1934L51.0391 81.5156L52.8496 78.4336H54.8066L52.1172 82.6816L55.0117 87Z" fill="white"/>
</g>
<defs>
<clipPath id="clip0_2964_22038">
<rect width="80" height="100" fill="white"/>
</clipPath>
</defs>
</svg>
