<svg id="Layer_1" data-name="Layer 1" xmlns="http://www.w3.org/2000/svg" width="100" height="127" viewBox="0 0 100 127">
  <defs>
    <style>
      .cls-1 {
        fill: #635e9b;
      }

      .cls-2 {
        opacity: 0.2;
      }

      .cls-2, .cls-3 {
        isolation: isolate;
      }

      .cls-4 {
        fill: #fff;
      }
    </style>
  </defs>
  <title>rtf</title>
  <g id="rtf">
    <path class="cls-1" d="M95,23v96a2.9,2.9,0,0,1-3,3H8a2.9,2.9,0,0,1-3-3V8A2.9,2.9,0,0,1,8,5H77Z"/>
    <path class="cls-2" d="M95,23H80a2.9,2.9,0,0,1-3-3V5Z"/>
    <g class="cls-3">
      <path class="cls-4" d="M42.2,109.7V113H40.3v-8.6h2.5a3.7,3.7,0,0,1,2.6.7,2.1,2.1,0,0,1,.9,1.9,2.5,2.5,0,0,1-.4,1.3,4,4,0,0,1-1.2,1l2.5,3.7h-2l-2.1-3.3Zm0-1.5h.6a2.1,2.1,0,0,0,1.2-.3c.3-.1.4-.4.4-.9a.8.8,0,0,0-.4-.8,2.3,2.3,0,0,0-1.3-.3h-.5Z"/>
      <path class="cls-4" d="M51.6,113H49.8v-7.1H47.4v-1.5h6.5v1.5H51.6Z"/>
      <path class="cls-4" d="M57,113H55.2v-8.6h4.9v1.5H57v2.2h2.9v1.5H57Z"/>
    </g>
    <rect class="cls-4" x="49" y="38" width="25" height="2"/>
    <rect class="cls-4" x="49" y="44" width="25" height="2"/>
    <rect class="cls-4" x="49" y="50" width="25" height="2"/>
    <rect class="cls-4" x="49" y="56" width="25" height="2"/>
    <rect class="cls-4" x="25" y="62" width="49" height="2"/>
    <rect class="cls-4" x="25" y="68" width="49" height="2"/>
    <rect class="cls-4" x="25" y="74" width="49" height="2"/>
    <rect class="cls-4" x="25" y="80" width="49" height="2"/>
    <rect class="cls-4" x="25" y="86" width="49" height="2"/>
    <rect class="cls-4" x="25" y="38" width="20" height="20"/>
  </g>
</svg>
