<svg width="100" height="127" viewBox="0 0 100 127" fill="none" xmlns="http://www.w3.org/2000/svg">
<symbol id="svg-format-svg">
<g>
<path d="M95 23V119C95 119.796 94.6839 120.559 94.1213 121.121C93.5587 121.684 92.7956 122 92 122H8C7.20435 122 6.44129 121.684 5.87868 121.121C5.31607 120.559 5 119.796 5 119V8C5 7.20435 5.31607 6.44129 5.87868 5.87868C6.44129 5.31607 7.20435 5 8 5H77L95 23Z" fill="#507C8B"/>
<g>
<path d="M44.5801 111.621C44.5801 112.395 44.3008 113.004 43.7422 113.449C43.1875 113.895 42.4141 114.117 41.4219 114.117C40.5078 114.117 39.6992 113.945 38.9961 113.602V111.914C39.5742 112.172 40.0625 112.354 40.4609 112.459C40.8633 112.564 41.2305 112.617 41.5625 112.617C41.9609 112.617 42.2656 112.541 42.4766 112.389C42.6914 112.236 42.7988 112.01 42.7988 111.709C42.7988 111.541 42.752 111.393 42.6582 111.264C42.5645 111.131 42.4258 111.004 42.2422 110.883C42.0625 110.762 41.6934 110.568 41.1348 110.303C40.6113 110.057 40.2188 109.82 39.957 109.594C39.6953 109.367 39.4863 109.104 39.3301 108.803C39.1738 108.502 39.0957 108.15 39.0957 107.748C39.0957 106.99 39.3516 106.395 39.8633 105.961C40.3789 105.527 41.0898 105.311 41.9961 105.311C42.4414 105.311 42.8652 105.363 43.2676 105.469C43.6738 105.574 44.0977 105.723 44.5391 105.914L43.9531 107.326C43.4961 107.139 43.1172 107.008 42.8164 106.934C42.5195 106.859 42.2266 106.822 41.9375 106.822C41.5938 106.822 41.3301 106.902 41.1465 107.062C40.9629 107.223 40.8711 107.432 40.8711 107.689C40.8711 107.85 40.9082 107.99 40.9824 108.111C41.0566 108.229 41.1738 108.344 41.334 108.457C41.498 108.566 41.8828 108.766 42.4883 109.055C43.2891 109.438 43.8379 109.822 44.1348 110.209C44.4316 110.592 44.5801 111.062 44.5801 111.621Z" fill="white"/>
<path d="M51.0195 105.434H52.8535L49.9414 114H47.9609L45.0547 105.434H46.8887L48.5 110.531C48.5898 110.832 48.6816 111.184 48.7754 111.586C48.873 111.984 48.9336 112.262 48.957 112.418C49 112.059 49.1465 111.43 49.3965 110.531L51.0195 105.434Z" fill="white"/>
<path d="M57.1895 109.189H60.5879V113.631C60.0371 113.811 59.5176 113.936 59.0293 114.006C58.5449 114.08 58.0488 114.117 57.541 114.117C56.248 114.117 55.2598 113.738 54.5762 112.98C53.8965 112.219 53.5566 111.127 53.5566 109.705C53.5566 108.322 53.9512 107.244 54.7402 106.471C55.5332 105.697 56.6309 105.311 58.0332 105.311C58.9121 105.311 59.7598 105.486 60.5762 105.838L59.9727 107.291C59.3477 106.979 58.6973 106.822 58.0215 106.822C57.2363 106.822 56.6074 107.086 56.1348 107.613C55.6621 108.141 55.4258 108.85 55.4258 109.74C55.4258 110.67 55.6152 111.381 55.9941 111.873C56.377 112.361 56.9316 112.605 57.6582 112.605C58.0371 112.605 58.4219 112.566 58.8125 112.488V110.701H57.1895V109.189Z" fill="white"/>
</g>
<path d="M51 58.917C53.8377 58.441 56 55.973 56 53C56 49.6863 53.3137 47 50 47C46.6863 47 44 49.6863 44 53C44 55.973 46.1623 58.441 49 58.917V71.5858L39.8908 62.4765C40.5892 61.4957 41 60.2958 41 59C41 55.6863 38.3137 53 35 53C31.6863 53 29 55.6863 29 59C29 62.3137 31.6863 65 35 65C36.2958 65 37.4957 64.5892 38.4766 63.8907L48.5858 74H36.917C36.441 71.1623 33.973 69 31 69C27.6863 69 25 71.6863 25 75C25 75.3407 25.0284 75.6748 25.083 76H74.917C74.9716 75.6748 75 75.3407 75 75C75 71.6863 72.3137 69 69 69C66.027 69 63.559 71.1623 63.083 74H51.5563L61.6071 63.9492C62.5721 64.6121 63.7408 65 65 65C68.3137 65 71 62.3137 71 59C71 55.6863 68.3137 53 65 53C61.6863 53 59 55.6863 59 59C59 60.3323 59.4343 61.5633 60.169 62.5589L51 71.7279V58.917Z" fill="white"/>
<path opacity="0.2" d="M95 23H80C79.2044 23 78.4413 22.6839 77.8787 22.1213C77.3161 21.5587 77 20.7956 77 20V5L95 23Z" fill="black"/>
</g>
</symbol>
</svg>
