<svg width="80" height="100" viewBox="0 0 80 100" fill="none" xmlns="http://www.w3.org/2000/svg">
<g clip-path="url(#clip0_2964_22054)">
<path d="M75 19V92.6667C75 93.2855 74.7542 93.879 74.3166 94.3166C73.879 94.7542 73.2855 95 72.6667 95H7.33333C6.71449 95 6.121 94.7542 5.68342 94.3166C5.24583 93.879 5 93.2855 5 92.6667V7.33333C5 6.71449 5.24583 6.121 5.68342 5.68342C6.121 5.24583 6.71449 5 7.33333 5H61L75 19Z" fill="#507C8B"/>
<path opacity="0.2" d="M75 19H63.3333C62.7145 19 62.121 18.7542 61.6834 18.3166C61.2458 17.879 61 17.2855 61 16.6667V5L75 19Z" fill="black"/>
<path d="M34.5801 84.6211C34.5801 85.1289 34.457 85.5703 34.2109 85.9453C33.9648 86.3203 33.6055 86.6094 33.1328 86.8125C32.6641 87.0156 32.0938 87.1172 31.4219 87.1172C31.125 87.1172 30.834 87.0977 30.5488 87.0586C30.2676 87.0195 29.9961 86.9629 29.7344 86.8887C29.4766 86.8105 29.2305 86.7148 28.9961 86.6016V84.9141C29.4023 85.0938 29.8242 85.2559 30.2617 85.4004C30.6992 85.5449 31.1328 85.6172 31.5625 85.6172C31.8594 85.6172 32.0977 85.5781 32.2773 85.5C32.4609 85.4219 32.5938 85.3145 32.6758 85.1777C32.7578 85.041 32.7988 84.8848 32.7988 84.709C32.7988 84.4941 32.7266 84.3105 32.582 84.1582C32.4375 84.0059 32.2383 83.8633 31.9844 83.7305C31.7344 83.5977 31.4512 83.4551 31.1348 83.3027C30.9355 83.209 30.7188 83.0957 30.4844 82.9629C30.25 82.8262 30.0273 82.6602 29.8164 82.4648C29.6055 82.2695 29.4316 82.0332 29.2949 81.7559C29.1621 81.4746 29.0957 81.1387 29.0957 80.748C29.0957 80.2363 29.2129 79.7988 29.4473 79.4355C29.6816 79.0723 30.0156 78.7949 30.4492 78.6035C30.8867 78.4082 31.4023 78.3105 31.9961 78.3105C32.4414 78.3105 32.8652 78.3633 33.2676 78.4688C33.6738 78.5703 34.0977 78.7188 34.5391 78.9141L33.9531 80.3262C33.5586 80.166 33.2051 80.043 32.8926 79.957C32.5801 79.8672 32.2617 79.8223 31.9375 79.8223C31.7109 79.8223 31.5176 79.8594 31.3574 79.9336C31.1973 80.0039 31.0762 80.1055 30.9941 80.2383C30.9121 80.3672 30.8711 80.5176 30.8711 80.6895C30.8711 80.8926 30.9297 81.0645 31.0469 81.2051C31.168 81.3418 31.3477 81.4746 31.5859 81.6035C31.8281 81.7324 32.1289 81.8828 32.4883 82.0547C32.9258 82.2617 33.2988 82.4785 33.6074 82.7051C33.9199 82.9277 34.1602 83.1914 34.3281 83.4961C34.4961 83.7969 34.5801 84.1719 34.5801 84.6211ZM42.8535 78.4336L39.9414 87H37.9609L35.0547 78.4336H36.8887L38.5 83.5312C38.5273 83.6172 38.5723 83.7793 38.6348 84.0176C38.6973 84.252 38.7598 84.502 38.8223 84.7676C38.8887 85.0293 38.9336 85.2461 38.957 85.418C38.9805 85.2461 39.0215 85.0293 39.0801 84.7676C39.1426 84.5059 39.2031 84.2578 39.2617 84.0234C39.3242 83.7852 39.3691 83.6211 39.3965 83.5312L41.0195 78.4336H42.8535ZM47.1895 82.1895H50.5879V86.6309C50.1387 86.7793 49.6719 86.8984 49.1875 86.9883C48.7031 87.0742 48.1543 87.1172 47.541 87.1172C46.6895 87.1172 45.9668 86.9492 45.373 86.6133C44.7793 86.2773 44.3281 85.7812 44.0195 85.125C43.7109 84.4688 43.5566 83.6621 43.5566 82.7051C43.5566 81.8066 43.7285 81.0293 44.0723 80.373C44.4199 79.7168 44.9258 79.209 45.5898 78.8496C46.2578 78.4902 47.0723 78.3105 48.0332 78.3105C48.4863 78.3105 48.9336 78.3594 49.375 78.457C49.8164 78.5547 50.2168 78.6816 50.5762 78.8379L49.9727 80.291C49.7109 80.1582 49.4121 80.0469 49.0762 79.957C48.7402 79.8672 48.3887 79.8223 48.0215 79.8223C47.4941 79.8223 47.0352 79.9434 46.6445 80.1855C46.2578 80.4277 45.957 80.7676 45.7422 81.2051C45.5312 81.6387 45.4258 82.1504 45.4258 82.7402C45.4258 83.2988 45.502 83.7949 45.6543 84.2285C45.8066 84.6582 46.0469 84.9961 46.375 85.2422C46.7031 85.4844 47.1309 85.6055 47.6582 85.6055C47.916 85.6055 48.1328 85.5938 48.3086 85.5703C48.4883 85.543 48.6562 85.5156 48.8125 85.4883V83.7012H47.1895V82.1895Z" fill="white"/>
<path d="M40.92 46.0952C43.5307 45.6519 45.52 43.3542 45.52 40.5862C45.52 37.501 43.0486 35 40 35C36.9514 35 34.48 37.501 34.48 40.5862C34.48 43.3542 36.4693 45.6519 39.08 46.0952V57.8902L30.6995 49.4092C31.3421 48.496 31.72 47.3789 31.72 46.1724C31.72 43.0872 29.2486 40.5862 26.2 40.5862C23.1514 40.5862 20.68 43.0872 20.68 46.1724C20.68 49.2576 23.1514 51.7586 26.2 51.7586C27.3922 51.7586 28.4961 51.3762 29.3984 50.7259L38.6989 60.1379H27.9637C27.5257 57.4959 25.2552 55.4828 22.52 55.4828C19.4714 55.4828 17 57.9838 17 61.069C17 61.3862 17.0261 61.6972 17.0763 62H62.9237C62.9739 61.6972 63 61.3862 63 61.069C63 57.9838 60.5286 55.4828 57.48 55.4828C54.7448 55.4828 52.4743 57.4959 52.0363 60.1379H41.4318L50.6785 50.7803C51.5664 51.3975 52.6415 51.7586 53.8 51.7586C56.8486 51.7586 59.32 49.2576 59.32 46.1724C59.32 43.0872 56.8486 40.5862 53.8 40.5862C50.7514 40.5862 48.28 43.0872 48.28 46.1724C48.28 47.4129 48.6795 48.5589 49.3555 49.4859L40.92 58.0225V46.0952Z" fill="white"/>
</g>
<defs>
<clipPath id="clip0_2964_22054">
<rect width="80" height="100" fill="white"/>
</clipPath>
</defs>
</svg>
