<svg id="Layer_1" data-name="Layer 1" xmlns="http://www.w3.org/2000/svg" width="100" height="127" viewBox="0 0 100 127">
  <defs>
    <style>
      .cls-1 {
        fill: #7c7c7d;
      }

      .cls-2 {
        opacity: 0.2;
      }

      .cls-2, .cls-3 {
        isolation: isolate;
      }

      .cls-4 {
        fill: #fff;
      }
    </style>
  </defs>
  <title>txt</title>
  <g id="txt">
    <path class="cls-1" d="M95,23v96a2.9,2.9,0,0,1-3,3H8a2.9,2.9,0,0,1-3-3V8A2.9,2.9,0,0,1,8,5H77Z"/>
    <path class="cls-2" d="M95,23H80a2.9,2.9,0,0,1-3-3V5Z"/>
    <g class="cls-3">
      <path class="cls-4" d="M43.4,113H41.6v-7.1H39.3v-1.5h6.5v1.5H43.4Z"/>
      <path class="cls-4" d="M54,113H51.9l-2-3.2-2,3.2H46l2.8-4.4-2.6-4.2h2l1.8,3.1,1.8-3.1h2l-2.7,4.3Z"/>
      <path class="cls-4" d="M58.4,113H56.6v-7.1H54.2v-1.5h6.5v1.5H58.4Z"/>
    </g>
    <rect class="cls-4" x="25" y="38" width="49" height="2"/>
    <rect class="cls-4" x="25" y="44" width="49" height="2"/>
    <rect class="cls-4" x="25" y="50" width="49" height="2"/>
    <rect class="cls-4" x="25" y="56" width="49" height="2"/>
    <rect class="cls-4" x="25" y="62" width="49" height="2"/>
    <rect class="cls-4" x="25" y="68" width="49" height="2"/>
    <rect class="cls-4" x="25" y="74" width="49" height="2"/>
    <rect class="cls-4" x="25" y="80" width="49" height="2"/>
    <rect class="cls-4" x="25" y="86" width="49" height="2"/>
  </g>
</svg>
