<svg xmlns="http://www.w3.org/2000/svg" viewBox="0 0 100 127" version="1.1" width="100" height="127">
<symbol id="svg-format-txt">
    <path d="M95,23v96a2.9,2.9,0,0,1-2.8,3H8a2.9,2.9,0,0,1-3-2.8V8A2.9,2.9,0,0,1,7.8,5H77Z" style="fill: #7c7c7d"/>
    <path d="M95,23H80a2.9,2.9,0,0,1-3-2.8V5Z" style="opacity: 0.20000000298023224;isolation: isolate"/>
    <g>
      <path d="M43.4,113H41.6v-7.1H39.3v-1.5h6.5v1.5H43.4Z" style="fill: #fff"/>
      <path d="M54,113H51.9l-2-3.2-2,3.2H46l2.8-4.4-2.6-4.2h2l1.8,3.1,1.8-3.1h2l-2.7,4.3Z" style="fill: #fff"/>
      <path d="M58.4,113H56.6v-7.1H54.2v-1.5h6.5v1.5H58.4Z" style="fill: #fff"/>
    </g>
    <rect x="25" y="38" width="49" height="2" style="fill: #fff"/>
    <rect x="25" y="44" width="49" height="2" style="fill: #fff"/>
    <rect x="25" y="50" width="49" height="2" style="fill: #fff"/>
    <rect x="25" y="56" width="49" height="2" style="fill: #fff"/>
    <rect x="25" y="62" width="49" height="2" style="fill: #fff"/>
    <rect x="25" y="68" width="49" height="2" style="fill: #fff"/>
    <rect x="25" y="74" width="49" height="2" style="fill: #fff"/>
    <rect x="25" y="80" width="49" height="2" style="fill: #fff"/>
    <rect x="25" y="86" width="49" height="2" style="fill: #fff"/>
  </symbol>
</svg>
