<svg xmlns="http://www.w3.org/2000/svg" viewBox="0 0 100 127" version="1.1" width="100" height="127"><defs><style>.cls-2{opacity:0.2;}.cls-3{font-size:12px;font-family:OpenSans-Bold, Open Sans;font-weight:700;}.cls-3,.cls-4{fill:#fff;}</style></defs><symbol id="svg-format-txt"><path fill="#7c7c7d" d="M95,23v96a3,3,0,0,1-3,3H8a3,3,0,0,1-3-3V8A3,3,0,0,1,8,5H77Z"/><path class="cls-2" d="M95,23H80a3,3,0,0,1-3-3V5Z"/><text class="cls-3" transform="translate(39.05 113)">TXT</text><rect class="cls-4" x="25" y="38" width="49" height="2"/><rect class="cls-4" x="25" y="44" width="49" height="2"/><rect class="cls-4" x="25" y="50" width="49" height="2"/><rect class="cls-4" x="25" y="56" width="49" height="2"/><rect class="cls-4" x="25" y="62" width="49" height="2"/><rect class="cls-4" x="25" y="68" width="49" height="2"/><rect class="cls-4" x="25" y="74" width="49" height="2"/><rect class="cls-4" x="25" y="80" width="49" height="2"/><rect class="cls-4" x="25" y="86" width="49" height="2"/></symbol></svg>