<svg width="80" height="100" viewBox="0 0 80 100" fill="none" xmlns="http://www.w3.org/2000/svg">
<g clip-path="url(#clip0_2964_22055)">
<path d="M75 19V92.6667C75 93.2855 74.7542 93.879 74.3166 94.3166C73.879 94.7542 73.2855 95 72.6667 95H7.33333C6.71449 95 6.121 94.7542 5.68342 94.3166C5.24583 93.879 5 93.2855 5 92.6667V7.33333C5 6.71449 5.24583 6.121 5.68342 5.68342C6.121 5.24583 6.71449 5 7.33333 5H61L75 19Z" fill="#7C7C7D"/>
<path opacity="0.2" d="M75 19H63.3333C62.7145 19 62.121 18.7542 61.6834 18.3166C61.2458 17.879 61 17.2855 61 16.6667V5L75 19Z" fill="black"/>
<path d="M33.4316 87H31.6152V79.9453H29.2891V78.4336H35.7578V79.9453H33.4316V87ZM44.002 87H41.9277L39.9355 83.7598L37.9434 87H35.998L38.8398 82.582L36.1797 78.4336H38.1836L40.0293 81.5156L41.8398 78.4336H43.7969L41.1074 82.6816L44.002 87ZM48.3848 87H46.5684V79.9453H44.2422V78.4336H50.7109V79.9453H48.3848V87Z" fill="white"/>
<path fill-rule="evenodd" clip-rule="evenodd" d="M59 33H21V35H59V33ZM59 38H21V40H59V38ZM21 43H59V45H21V43ZM59 48H21V50H59V48ZM21 53H59V55H21V53ZM59 58H21V60H59V58ZM21 63H59V65H21V63Z" fill="white"/>
</g>
<defs>
<clipPath id="clip0_2964_22055">
<rect width="80" height="100" fill="white"/>
</clipPath>
</defs>
</svg>
