<svg width="24" height="30" viewBox="0 0 24 30" fill="none" xmlns="http://www.w3.org/2000/svg">
    <path d="M1.5 2.5a2 2 0 0 1 2-2h13.283a1 1 0 0 1 .71.296l4.665 4.71a1 1 0 0 1 .29.701l.048 21.289a2 2 0 0 1-2 2.004H3.5a2 2 0 0 1-2-2z" fill="#fff" stroke="#BBB"/>
    <path d="M4.46 11.291a1 1 0 0 0 0 1.415l2.536 2.535v1.757h-1a1 1 0 0 0-1 1v4a1 1 0 0 0 1 1h4a1 1 0 0 0 1-1v-4a1 1 0 0 0-1-1h-1v-1.757l2.243-2.243h6.757a1 1 0 1 0 0-2H11.24L8.703 8.463a1 1 0 0 0-1.414 0zm2.536 9.707v-2h2v2zm-.414-9 1.414-1.414 1.415 1.414-1.415 1.415z" fill="#BDB9E4"/>
    <path d="M16.5.5V5A1.5 1.5 0 0 0 18 6.5h4.5" stroke="#BBB"/>
    <rect x="12" y="15" width="12" height="12" rx="2" fill="#5951BB"/>
    <path d="m21.35 17.43-2.39 7.14h-1.93l-2.38-7.14h1.83l1.16 3.96q.051.15.12.46.07.3.14.63.08.32.1.53.03-.21.09-.53.07-.32.14-.62.07-.31.12-.46l1.18-3.97z" fill="#fff"/>
</svg>
