<svg width="24" height="30" fill="none" xmlns="http://www.w3.org/2000/svg"><g clip-path="url(#a)"><path d="M1 1h14.3L23 8.703V29H1V1z" fill="#fff"/><path d="M15 3H3v13h18V9H10V7h5V6h-5V4h5V3zM9 4v2H4V4h5zm0 3v2H4V7h5zm0 3v2H4v-2h5zm1 0h5v2h-5v-2zm6 0h4v2h-4v-2zM4 13h5v2H4v-2zm11 0v2h-5v-2h5zm5 0v2h-4v-2h4z" fill="#BFBFBF"/><path d="M1 29V1h14.3L23 8.7V29H1zM15.3 0H0v30h24V8.7L15.3 0z" fill="#BFBFBF"/><path d="M3 18a1 1 0 0 0-1 1v7a1 1 0 0 0 1 1h18a1 1 0 0 0 1-1v-7a1 1 0 0 0-1-1H3zm8 2h1v4h2v1h-3v-5zm8 0v1h-2v1h2v1h1v1h-1v1h-3v-1h3v-1h-2v-1h-1v-1h1v-1h2zM6 21h1v-1h2v1H8v1H7v1h1v1h1v1H7v-1H6v1H4v-1h1v-1h1v-1H5v-1H4v-1h2v1z" fill="#6AAA1E"/><path opacity=".3" d="M14 10V1h1v8h8v1h-9z" fill="#000"/></g><defs><clipPath id="a"><path fill="#fff" d="M0 0h24v30H0z"/></clipPath></defs></svg>