<svg width="100" height="127" viewBox="0 0 100 127" fill="none" xmlns="http://www.w3.org/2000/svg">
<symbol id="svg-format-xlsm">
<path d="M95 23V119C95 119.796 94.6839 120.559 94.1213 121.121C93.5587 121.684 92.7956 122 92 122H8C7.20435 122 6.44129 121.684 5.87868 121.121C5.31607 120.559 5 119.796 5 119V8C5 7.20435 5.31607 6.44129 5.87868 5.87868C6.44129 5.31607 7.20435 5 8 5H77L95 23Z" fill="#1F7244"/>
<path opacity="0.2" d="M95 23H80C79.2044 23 78.4413 22.6839 77.8787 22.1213C77.3161 21.5587 77 20.7956 77 20V5L95 23Z" fill="black"/>
<path d="M42.4446 114H40.3704L38.3782 110.76L36.386 114H34.4407L37.2825 109.582L34.6223 105.434H36.6262L38.4719 108.516L40.2825 105.434H42.2395L39.55 109.682L42.4446 114ZM43.5227 114V105.434H45.3391V112.5H48.8137V114H43.5227ZM55.3645 111.621C55.3645 112.395 55.0852 113.004 54.5266 113.449C53.9719 113.895 53.1985 114.117 52.2063 114.117C51.2922 114.117 50.4836 113.945 49.7805 113.602V111.914C50.3586 112.172 50.8469 112.354 51.2454 112.459C51.6477 112.564 52.0149 112.617 52.3469 112.617C52.7454 112.617 53.05 112.541 53.261 112.389C53.4758 112.236 53.5833 112.01 53.5833 111.709C53.5833 111.541 53.5364 111.393 53.4426 111.264C53.3489 111.131 53.2102 111.004 53.0266 110.883C52.8469 110.762 52.4778 110.568 51.9192 110.303C51.3958 110.057 51.0032 109.82 50.7415 109.594C50.4797 109.367 50.2708 109.104 50.1145 108.803C49.9583 108.502 49.8801 108.15 49.8801 107.748C49.8801 106.99 50.136 106.395 50.6477 105.961C51.1633 105.527 51.8743 105.311 52.7805 105.311C53.2258 105.311 53.6497 105.363 54.052 105.469C54.4583 105.574 54.8821 105.723 55.3235 105.914L54.7375 107.326C54.2805 107.139 53.9016 107.008 53.6008 106.934C53.304 106.859 53.011 106.822 52.7219 106.822C52.3782 106.822 52.1145 106.902 51.9309 107.062C51.7473 107.223 51.6555 107.432 51.6555 107.689C51.6555 107.85 51.6926 107.99 51.7668 108.111C51.8411 108.229 51.9583 108.344 52.1184 108.457C52.2825 108.566 52.6672 108.766 53.2727 109.055C54.0735 109.438 54.6223 109.822 54.9192 110.209C55.2161 110.592 55.3645 111.062 55.3645 111.621ZM60.5442 114L58.4817 107.279H58.429C58.5032 108.646 58.5403 109.559 58.5403 110.016V114H56.9172V105.434H59.3899L61.4172 111.984H61.4524L63.6028 105.434H66.0754V114H64.3821V109.945C64.3821 109.754 64.384 109.533 64.3879 109.283C64.3958 109.033 64.4231 108.369 64.47 107.291H64.4172L62.2083 114H60.5442Z" fill="white"/>
<path d="M52.75 61.63L64 45H58.5L50 57.56L41.5 45H36L47.25 61.63L35.5 79H41L50 65.7L59 79H64.5L52.75 61.63Z" fill="white"/>
<path d="M15 15C15 13.8954 15.8954 13 17 13H29C30.1046 13 31 13.8954 31 15V24C31 25.1046 30.1046 26 29 26H17C15.8954 26 15 25.1046 15 24V15Z" fill="white"/>
<path d="M22.2969 24L19.8125 16.8457H19.7656C19.832 17.9082 19.8652 18.9043 19.8652 19.834V24H18.5938V15.4336H20.5684L22.9473 22.248H22.9824L25.4316 15.4336H27.4121V24H26.0645V19.7637C26.0645 19.3379 26.0742 18.7832 26.0938 18.0996C26.1172 17.416 26.1367 17.002 26.1523 16.8574H26.1055L23.5332 24H22.2969Z" fill="#1F7244"/>
</symbol>
</svg>
