<svg width="90" height="117" viewBox="0 0 90 117" fill="none" xmlns="http://www.w3.org/2000/svg">
    <symbol id="svg-format-xlsm">
<path d="M90 18V114C90 114.796 89.6839 115.559 89.1213 116.121C88.5587 116.684 87.7956 117 87 117H3C2.20435 117 1.44129 116.684 0.87868 116.121C0.316071 115.559 0 114.796 0 114V3C0 2.20435 0.316071 1.44129 0.87868 0.87868C1.44129 0.316071 2.20435 0 3 0H72L90 18Z" fill="#1F7244"/>
<path opacity="0.2" d="M90 18H75C74.2044 18 73.4413 17.6839 72.8787 17.1213C72.3161 16.5587 72 15.7956 72 15V0L90 18Z" fill="black"/>
<path d="M37.4446 109H35.3704L33.3782 105.76L31.386 109H29.4407L32.2825 104.582L29.6223 100.434H31.6262L33.4719 103.516L35.2825 100.434H37.2395L34.55 104.682L37.4446 109ZM38.5227 109V100.434H40.3391V107.5H43.8137V109H38.5227ZM50.3645 106.621C50.3645 107.395 50.0852 108.004 49.5266 108.449C48.9719 108.895 48.1985 109.117 47.2063 109.117C46.2922 109.117 45.4836 108.945 44.7805 108.602V106.914C45.3586 107.172 45.8469 107.354 46.2454 107.459C46.6477 107.564 47.0149 107.617 47.3469 107.617C47.7454 107.617 48.05 107.541 48.261 107.389C48.4758 107.236 48.5833 107.01 48.5833 106.709C48.5833 106.541 48.5364 106.393 48.4426 106.264C48.3489 106.131 48.2102 106.004 48.0266 105.883C47.8469 105.762 47.4778 105.568 46.9192 105.303C46.3958 105.057 46.0032 104.82 45.7415 104.594C45.4797 104.367 45.2708 104.104 45.1145 103.803C44.9583 103.502 44.8801 103.15 44.8801 102.748C44.8801 101.99 45.136 101.395 45.6477 100.961C46.1633 100.527 46.8743 100.311 47.7805 100.311C48.2258 100.311 48.6497 100.363 49.052 100.469C49.4583 100.574 49.8821 100.723 50.3235 100.914L49.7375 102.326C49.2805 102.139 48.9016 102.008 48.6008 101.934C48.304 101.859 48.011 101.822 47.7219 101.822C47.3782 101.822 47.1145 101.902 46.9309 102.062C46.7473 102.223 46.6555 102.432 46.6555 102.689C46.6555 102.85 46.6926 102.99 46.7668 103.111C46.8411 103.229 46.9583 103.344 47.1184 103.457C47.2825 103.566 47.6672 103.766 48.2727 104.055C49.0735 104.438 49.6223 104.822 49.9192 105.209C50.2161 105.592 50.3645 106.062 50.3645 106.621ZM55.5442 109L53.4817 102.279H53.429C53.5032 103.646 53.5403 104.559 53.5403 105.016V109H51.9172V100.434H54.3899L56.4172 106.984H56.4524L58.6028 100.434H61.0754V109H59.3821V104.945C59.3821 104.754 59.384 104.533 59.3879 104.283C59.3958 104.033 59.4231 103.369 59.47 102.291H59.4172L57.2083 109H55.5442Z" fill="white"/>
<path d="M47.75 56.63L59 40H53.5L45 52.56L36.5 40H31L42.25 56.63L30.5 74H36L45 60.7L54 74H59.5L47.75 56.63Z" fill="white"/>
<path d="M10 10C10 8.89543 10.8954 8 12 8H24C25.1046 8 26 8.89543 26 10V19C26 20.1046 25.1046 21 24 21H12C10.8954 21 10 20.1046 10 19V10Z" fill="white"/>
<path d="M17.2969 19L14.8125 11.8457H14.7656C14.832 12.9082 14.8652 13.9043 14.8652 14.834V19H13.5938V10.4336H15.5684L17.9473 17.248H17.9824L20.4316 10.4336H22.4121V19H21.0645V14.7637C21.0645 14.3379 21.0742 13.7832 21.0938 13.0996C21.1172 12.416 21.1367 12.002 21.1523 11.8574H21.1055L18.5332 19H17.2969Z" fill="#1F7244"/>
    </symbol>
</svg>
