<svg width="80" height="100" viewBox="0 0 80 100" fill="none" xmlns="http://www.w3.org/2000/svg">
<g clip-path="url(#clip0_2964_22036)">
<path d="M75 19V92.6667C75 93.2855 74.7542 93.879 74.3166 94.3166C73.879 94.7542 73.2855 95 72.6667 95H7.33333C6.71449 95 6.121 94.7542 5.68342 94.3166C5.24583 93.879 5 93.2855 5 92.6667V7.33333C5 6.71449 5.24583 6.121 5.68342 5.68342C6.121 5.24583 6.71449 5 7.33333 5H61L75 19Z" fill="#1F7244"/>
<path opacity="0.2" d="M75 19H63.3333C62.7145 19 62.121 18.7542 61.6834 18.3166C61.2458 17.879 61 17.2855 61 16.6667V5L75 19Z" fill="black"/>
<path d="M31.6445 87H29.5703L27.5781 83.7598L25.5859 87H23.6406L26.4824 82.582L23.8223 78.4336H25.8262L27.6719 81.5156L29.4824 78.4336H31.4395L28.75 82.6816L31.6445 87ZM32.7227 87V78.4336H34.5391V85.5H38.0137V87H32.7227ZM44.5645 84.6211C44.5645 85.1289 44.4414 85.5703 44.1953 85.9453C43.9492 86.3203 43.5898 86.6094 43.1172 86.8125C42.6484 87.0156 42.0781 87.1172 41.4062 87.1172C41.1094 87.1172 40.8184 87.0977 40.5332 87.0586C40.252 87.0195 39.9805 86.9629 39.7188 86.8887C39.4609 86.8105 39.2148 86.7148 38.9805 86.6016V84.9141C39.3867 85.0938 39.8086 85.2559 40.2461 85.4004C40.6836 85.5449 41.1172 85.6172 41.5469 85.6172C41.8438 85.6172 42.082 85.5781 42.2617 85.5C42.4453 85.4219 42.5781 85.3145 42.6602 85.1777C42.7422 85.041 42.7832 84.8848 42.7832 84.709C42.7832 84.4941 42.7109 84.3105 42.5664 84.1582C42.4219 84.0059 42.2227 83.8633 41.9688 83.7305C41.7188 83.5977 41.4355 83.4551 41.1191 83.3027C40.9199 83.209 40.7031 83.0957 40.4688 82.9629C40.2344 82.8262 40.0117 82.6602 39.8008 82.4648C39.5898 82.2695 39.416 82.0332 39.2793 81.7559C39.1465 81.4746 39.0801 81.1387 39.0801 80.748C39.0801 80.2363 39.1973 79.7988 39.4316 79.4355C39.666 79.0723 40 78.7949 40.4336 78.6035C40.8711 78.4082 41.3867 78.3105 41.9805 78.3105C42.4258 78.3105 42.8496 78.3633 43.252 78.4688C43.6582 78.5703 44.082 78.7188 44.5234 78.9141L43.9375 80.3262C43.543 80.166 43.1895 80.043 42.877 79.957C42.5645 79.8672 42.2461 79.8223 41.9219 79.8223C41.6953 79.8223 41.502 79.8594 41.3418 79.9336C41.1816 80.0039 41.0605 80.1055 40.9785 80.2383C40.8965 80.3672 40.8555 80.5176 40.8555 80.6895C40.8555 80.8926 40.9141 81.0645 41.0312 81.2051C41.1523 81.3418 41.332 81.4746 41.5703 81.6035C41.8125 81.7324 42.1133 81.8828 42.4727 82.0547C42.9102 82.2617 43.2832 82.4785 43.5918 82.7051C43.9043 82.9277 44.1445 83.1914 44.3125 83.4961C44.4805 83.7969 44.5645 84.1719 44.5645 84.6211ZM49.7441 87L47.6816 80.2793H47.6289C47.6367 80.4395 47.6484 80.6816 47.6641 81.0059C47.6836 81.3262 47.7012 81.668 47.7168 82.0312C47.7324 82.3945 47.7402 82.7227 47.7402 83.0156V87H46.1172V78.4336H48.5898L50.6172 84.9844H50.6523L52.8027 78.4336H55.2754V87H53.582V82.9453C53.582 82.6758 53.5859 82.3652 53.5938 82.0137C53.6055 81.6621 53.6191 81.3281 53.6348 81.0117C53.6504 80.6914 53.6621 80.4512 53.6699 80.291H53.6172L51.4082 87H49.7441Z" fill="white"/>
<path d="M41.4914 48.7171L49.6379 36H45.6552L39.5 45.6047L33.3448 36H29.3621L37.5086 48.7171L29 62H32.9828L39.5 51.8294L46.0172 62H50L41.4914 48.7171Z" fill="white"/>
<path fill-rule="evenodd" clip-rule="evenodd" d="M12 10C10.8954 10 10 10.8954 10 12V21C10 22.1046 10.8954 23 12 23H21C22.1046 23 23 22.1046 23 21V12C23 10.8954 22.1046 10 21 10H12ZM14.6641 12.8906H13.9902H13.4238H12.7549V20H14.2148V17.9785L14.0691 14.6767L15.9922 20H16.9883L18.9114 14.6767L18.7656 17.9785V20H20.2305V12.8906H19.5566H18.9902H18.3164L16.4902 18.1104L14.6641 12.8906Z" fill="white"/>
</g>
<defs>
<clipPath id="clip0_2964_22036">
<rect width="80" height="100" fill="white"/>
</clipPath>
</defs>
</svg>
