<svg xmlns="http://www.w3.org/2000/svg" viewBox="0 0 100 127" version="1.1" width="100" height="127"><defs><style>.cls-2{opacity:0.2;}.cls-3{font-size:12px;font-family:OpenSans-Bold, Open Sans;font-weight:700;}.cls-3,.cls-4{fill:#fff;}</style></defs><symbol id="svg-format-xlsx"><path fill="#1f7244" d="M95,23v96a3,3,0,0,1-3,3H8a3,3,0,0,1-3-3V8A3,3,0,0,1,8,5H77Z"/><path class="cls-2" d="M95,23H80a3,3,0,0,1-3-3V5Z"/><text class="cls-3" transform="translate(35.3 113)">XLSX</text><polygon class="cls-4" points="52.75 61.63 64 45 58.5 45 50 57.56 41.5 45 36 45 47.25 61.63 35.5 79 41 79 50 65.7 59 79 64.5 79 52.75 61.63"/></symbol></svg>