<svg xmlns="http://www.w3.org/2000/svg" viewBox="0 0 100 127" version="1.1" width="100" height="127">

  <symbol id="svg-format-xlsx">
    <path d="M95,23v96a2.9,2.9,0,0,1-2.8,3H8a2.9,2.9,0,0,1-3-2.8V8A2.9,2.9,0,0,1,7.8,5H77Z" style="fill: #1f7244"/>
    <path d="M95,23H80a2.9,2.9,0,0,1-3-2.8V5Z" style="opacity: 0.20000000298023224;isolation: isolate"/>
    <g>
      <path d="M43.3,113H41.2l-2-3.2-2,3.2H35.3l2.8-4.4-2.6-4.2h2l1.8,3.1,1.8-3.1h2l-2.7,4.3Z" style="fill: #fff"/>
      <path d="M44.4,113v-8.6h1.8v7.1h3.5V113Z" style="fill: #fff"/>
      <path d="M56.2,110.6a2.3,2.3,0,0,1-.8,1.8,3.3,3.3,0,0,1-2.3.7,7,7,0,0,1-2.5-.5v-1.7l1.5.6h1.1l.9-.2a.9.9,0,0,0,.3-.7c0-.2,0-.3-.1-.4a.8.8,0,0,0-.4-.4l-1.1-.6-1.2-.7a1.6,1.6,0,0,1-.6-.8,2,2,0,0,1-.3-1.1,2.1,2.1,0,0,1,.8-1.7,2.7,2.7,0,0,1,2.1-.7l1.3.2,1.3.4-.6,1.4-1.1-.4h-.9a1.1,1.1,0,0,0-.8.3.8.8,0,0,0-.2,1l.4.4,1.1.6a3.9,3.9,0,0,1,1.7,1.1A2.3,2.3,0,0,1,56.2,110.6Z" style="fill: #fff"/>
      <path d="M64.7,113H62.6l-2-3.2-2,3.2H56.7l2.8-4.4-2.6-4.2h2l1.8,3.1,1.8-3.1h2l-2.7,4.3Z" style="fill: #fff"/>
    </g>
    <polygon points="52.8 61.6 64 45 58.5 45 50 57.6 41.5 45 36 45 47.3 61.6 35.5 79 41 79 50 65.7 59 79 64.5 79 52.8 61.6" style="fill: #fff"/>
  </symbol>
</svg>
