<svg id="Layer_1" data-name="Layer 1" xmlns="http://www.w3.org/2000/svg" width="100" height="127" viewBox="0 0 100 127">
  <defs>
    <style>
      .cls-1 {
        fill: #1f7244;
      }

      .cls-2 {
        opacity: 0.2;
      }

      .cls-2, .cls-3 {
        isolation: isolate;
      }

      .cls-4 {
        fill: #fff;
      }
    </style>
  </defs>
  <title>xlsx</title>
  <g id="xlsx">
    <path class="cls-1" d="M95,23v96a2.9,2.9,0,0,1-3,3H8a2.9,2.9,0,0,1-3-3V8A2.9,2.9,0,0,1,8,5H77Z"/>
    <path class="cls-2" d="M95,23H80a2.9,2.9,0,0,1-3-3V5Z"/>
    <g class="cls-3">
      <path class="cls-4" d="M43.3,113H41.2l-2-3.2-2,3.2H35.3l2.8-4.4-2.6-4.2h2l1.8,3.1,1.8-3.1h2l-2.7,4.3Z"/>
      <path class="cls-4" d="M44.4,113v-8.6h1.8v7.1h3.5V113Z"/>
      <path class="cls-4" d="M56.2,110.6a2.2,2.2,0,0,1-.8,1.8,3.3,3.3,0,0,1-2.3.7,6.2,6.2,0,0,1-2.5-.5v-1.7l1.5.6h1.1l.9-.2a.9.9,0,0,0,.3-.7c0-.2,0-.3-.1-.4a.8.8,0,0,0-.4-.4l-1.1-.6a4.2,4.2,0,0,1-1.2-.7,1.6,1.6,0,0,1-.6-.8,1.8,1.8,0,0,1-.3-1.1,2.1,2.1,0,0,1,.8-1.7,2.8,2.8,0,0,1,2.1-.7l1.3.2,1.3.4-.6,1.4-1.1-.4h-.9a1,1,0,0,0-.8.3.8.8,0,0,0-.2,1l.4.4,1.1.6a3.8,3.8,0,0,1,1.7,1.1A2.3,2.3,0,0,1,56.2,110.6Z"/>
      <path class="cls-4" d="M64.7,113H62.6l-2-3.2-2,3.2H56.7l2.8-4.4-2.6-4.2h2l1.8,3.1,1.8-3.1h2l-2.7,4.3Z"/>
    </g>
    <polygon class="cls-4" points="52.8 61.6 64 45 58.5 45 50 57.6 41.5 45 36 45 47.3 61.6 35.5 79 41 79 50 65.7 59 79 64.5 79 52.8 61.6"/>
  </g>
</svg>
