<svg width="80" height="100" viewBox="0 0 80 100" fill="none" xmlns="http://www.w3.org/2000/svg">
<g clip-path="url(#clip0_2964_22045)">
<path d="M75 19V92.6667C75 93.2855 74.7542 93.879 74.3166 94.3166C73.879 94.7542 73.2855 95 72.6667 95H7.33333C6.71449 95 6.121 94.7542 5.68342 94.3166C5.24583 93.879 5 93.2855 5 92.6667V7.33333C5 6.71449 5.24583 6.121 5.68342 5.68342C6.121 5.24583 6.71449 5 7.33333 5H61L75 19Z" fill="#1F7244"/>
<path opacity="0.2" d="M75 19H63.3333C62.7145 19 62.121 18.7542 61.6834 18.3166C61.2458 17.879 61 17.2855 61 16.6667V5L75 19Z" fill="black"/>
<path d="M33.3027 87H31.2285L29.2363 83.7598L27.2441 87H25.2988L28.1406 82.582L25.4805 78.4336H27.4844L29.3301 81.5156L31.1406 78.4336H33.0977L30.4082 82.6816L33.3027 87ZM34.3809 87V78.4336H36.1973V85.5H39.6719V87H34.3809ZM46.2227 84.6211C46.2227 85.1289 46.0996 85.5703 45.8535 85.9453C45.6074 86.3203 45.248 86.6094 44.7754 86.8125C44.3066 87.0156 43.7363 87.1172 43.0645 87.1172C42.7676 87.1172 42.4766 87.0977 42.1914 87.0586C41.9102 87.0195 41.6387 86.9629 41.377 86.8887C41.1191 86.8105 40.873 86.7148 40.6387 86.6016V84.9141C41.0449 85.0938 41.4668 85.2559 41.9043 85.4004C42.3418 85.5449 42.7754 85.6172 43.2051 85.6172C43.502 85.6172 43.7402 85.5781 43.9199 85.5C44.1035 85.4219 44.2363 85.3145 44.3184 85.1777C44.4004 85.041 44.4414 84.8848 44.4414 84.709C44.4414 84.4941 44.3691 84.3105 44.2246 84.1582C44.0801 84.0059 43.8809 83.8633 43.627 83.7305C43.377 83.5977 43.0938 83.4551 42.7773 83.3027C42.5781 83.209 42.3613 83.0957 42.127 82.9629C41.8926 82.8262 41.6699 82.6602 41.459 82.4648C41.248 82.2695 41.0742 82.0332 40.9375 81.7559C40.8047 81.4746 40.7383 81.1387 40.7383 80.748C40.7383 80.2363 40.8555 79.7988 41.0898 79.4355C41.3242 79.0723 41.6582 78.7949 42.0918 78.6035C42.5293 78.4082 43.0449 78.3105 43.6387 78.3105C44.084 78.3105 44.5078 78.3633 44.9102 78.4688C45.3164 78.5703 45.7402 78.7188 46.1816 78.9141L45.5957 80.3262C45.2012 80.166 44.8477 80.043 44.5352 79.957C44.2227 79.8672 43.9043 79.8223 43.5801 79.8223C43.3535 79.8223 43.1602 79.8594 43 79.9336C42.8398 80.0039 42.7188 80.1055 42.6367 80.2383C42.5547 80.3672 42.5137 80.5176 42.5137 80.6895C42.5137 80.8926 42.5723 81.0645 42.6895 81.2051C42.8105 81.3418 42.9902 81.4746 43.2285 81.6035C43.4707 81.7324 43.7715 81.8828 44.1309 82.0547C44.5684 82.2617 44.9414 82.4785 45.25 82.7051C45.5625 82.9277 45.8027 83.1914 45.9707 83.4961C46.1387 83.7969 46.2227 84.1719 46.2227 84.6211ZM54.7012 87H52.627L50.6348 83.7598L48.6426 87H46.6973L49.5391 82.582L46.8789 78.4336H48.8828L50.7285 81.5156L52.5391 78.4336H54.4961L51.8066 82.6816L54.7012 87Z" fill="white"/>
<path d="M41.4914 48.7171L49.6379 36H45.6552L39.5 45.6047L33.3448 36H29.3621L37.5086 48.7171L29 62H32.9828L39.5 51.8294L46.0172 62H50L41.4914 48.7171Z" fill="white"/>
</g>
<defs>
<clipPath id="clip0_2964_22045">
<rect width="80" height="100" fill="white"/>
</clipPath>
</defs>
</svg>
