<svg width="24" height="30" fill="none" xmlns="http://www.w3.org/2000/svg"><g clip-path="url(#a)"><path d="M1 1h14.3L23 8.703V29H1V1z" fill="#fff"/><path d="M15 3H3v13h18V9h-1v2H10V4h5V3zM4 11V4h2v7H4zm3 0V4h2v7H7zm3 1h10v3H10v-3zm-1 0v3H7v-3h2zm-3 0v3H4v-3h2z" fill="#BFBFBF"/><path d="M1 29V1h14.3L23 8.7V29H1zM15.3 0H0v30h24V8.7L15.3 0z" fill="#BFBFBF"/><path d="M3 18a1 1 0 0 0-1 1v7a1 1 0 0 0 1 1h18a1 1 0 0 0 1-1v-7a1 1 0 0 0-1-1H3zm5 2h1v4h2v1H8v-5zm3 0h3v1h-1v4h-1v-4h-1v-1zm-5 0h1v2H6v-2zm0 3H5v2H4v-2h1v-1H4v-2h1v2h1v1zm0 0h1v2H6v-2zm10-3v1h1v2h1v-2h1v-1h1v5h-1v-2h-1v2h-1v-2h-1v2h-1v-5h1z" fill="#6AAA1E"/><path opacity=".3" d="M14 10V1h1v8h8v1h-9z" fill="#000"/></g><defs><clipPath id="a"><path fill="#fff" d="M0 0h24v30H0z"/></clipPath></defs></svg>