<svg width="24" height="30" viewBox="0 0 24 30" fill="none" xmlns="http://www.w3.org/2000/svg">
    <path d="M1 2a2 2 0 0 1 2-2h13.586a1 1 0 0 1 .707.293l5.414 5.414a1 1 0 0 1 .293.707V28a2 2 0 0 1-2 2H3a2 2 0 0 1-2-2z" fill="#fff"/>
    <path d="M1 2a2 2 0 0 1 2-2h13.586a1 1 0 0 1 .707.293l5.414 5.414a1 1 0 0 1 .293.707V28a2 2 0 0 1-2 2H3a2 2 0 0 1-2-2zm21 5h-3.12c-.403 0-.735 0-1.006-.022-.281-.023-.54-.072-.782-.196a2 2 0 0 1-.874-.874c-.124-.243-.173-.501-.196-.782C16 4.856 16 4.523 16 4.12V1H3a1 1 0 0 0-1 1v26a1 1 0 0 0 1 1h18a1 1 0 0 0 1-1zm-.414-1L17 1.414V4.1c0 .428 0 .72.019.944.018.22.05.332.09.41a1 1 0 0 0 .437.437c.078.04.19.072.41.09.225.019.516.019.944.019z" fill="#BBB"/>
    <path d="M6 11a1 1 0 1 0 0 2h4a1 1 0 1 0 0-2zm0 4a1 1 0 1 0 0 2h4a1 1 0 1 0 0-2zm-1 5a1 1 0 0 1 1-1h4a1 1 0 1 1 0 2H6a1 1 0 0 1-1-1m9-9a1 1 0 1 0 0 2h4a1 1 0 1 0 0-2z" fill="#B0D9AD"/>
    <path d="M12 18.2c0-1.12 0-1.68.218-2.108a2 2 0 0 1 .874-.874C13.52 15 14.08 15 15.2 15h5.6c1.12 0 1.68 0 2.108.218a2 2 0 0 1 .874.874C24 16.52 24 17.08 24 18.2v5.6c0 1.12 0 1.68-.218 2.108a2 2 0 0 1-.874.874C22.48 27 21.92 27 20.8 27h-5.6c-1.12 0-1.68 0-2.108-.218a2 2 0 0 1-.874-.874C12 25.48 12 24.92 12 23.8z" fill="#3AA133"/>
    <path d="M21.099 24.5h-1.764l-1.377-2.232L16.58 24.5h-1.692l2.133-3.303-2.007-3.123h1.7l1.288 2.16 1.242-2.16h1.7l-2.015 3.231z" fill="#fff"/>
</svg>
