<svg width="80" height="100" viewBox="0 0 80 100" fill="none" xmlns="http://www.w3.org/2000/svg">
<g clip-path="url(#clip0_2964_22046)">
<path d="M75 19V92.6667C75 93.2855 74.7542 93.879 74.3166 94.3166C73.879 94.7542 73.2855 95 72.6667 95H7.33333C6.71449 95 6.121 94.7542 5.68342 94.3166C5.24583 93.879 5 93.2855 5 92.6667V7.33333C5 6.71449 5.24583 6.121 5.68342 5.68342C6.121 5.24583 6.71449 5 7.33333 5H61L75 19Z" fill="#51968F"/>
<path opacity="0.2" d="M75 19H63.3333C62.7145 19 62.121 18.7542 61.6834 18.3166C61.2458 17.879 61 17.2855 61 16.6667V5L75 19Z" fill="black"/>
<path d="M36.9297 87H34.8555L32.8633 83.7598L30.8711 87H28.9258L31.7676 82.582L29.1074 78.4336H31.1113L32.957 81.5156L34.7676 78.4336H36.7246L34.0352 82.6816L36.9297 87ZM40.7441 78.4336C41.8496 78.4336 42.6562 78.6719 43.1641 79.1484C43.6719 79.6211 43.9258 80.2734 43.9258 81.1055C43.9258 81.4805 43.8691 81.8398 43.7559 82.1836C43.6426 82.5234 43.457 82.8262 43.1992 83.0918C42.9453 83.3574 42.6055 83.5684 42.1797 83.7246C41.7539 83.877 41.2285 83.9531 40.6035 83.9531H39.8242V87H38.0078V78.4336H40.7441ZM40.6504 79.9219H39.8242V82.4648H40.4219C40.7617 82.4648 41.0566 82.4199 41.3066 82.3301C41.5566 82.2402 41.75 82.0996 41.8867 81.9082C42.0234 81.7168 42.0918 81.4707 42.0918 81.1699C42.0918 80.748 41.9746 80.4355 41.7402 80.2324C41.5059 80.0254 41.1426 79.9219 40.6504 79.9219ZM50.5996 84.6211C50.5996 85.1289 50.4766 85.5703 50.2305 85.9453C49.9844 86.3203 49.625 86.6094 49.1523 86.8125C48.6836 87.0156 48.1133 87.1172 47.4414 87.1172C47.1445 87.1172 46.8535 87.0977 46.5684 87.0586C46.2871 87.0195 46.0156 86.9629 45.7539 86.8887C45.4961 86.8105 45.25 86.7148 45.0156 86.6016V84.9141C45.4219 85.0938 45.8438 85.2559 46.2812 85.4004C46.7188 85.5449 47.1523 85.6172 47.582 85.6172C47.8789 85.6172 48.1172 85.5781 48.2969 85.5C48.4805 85.4219 48.6133 85.3145 48.6953 85.1777C48.7773 85.041 48.8184 84.8848 48.8184 84.709C48.8184 84.4941 48.7461 84.3105 48.6016 84.1582C48.457 84.0059 48.2578 83.8633 48.0039 83.7305C47.7539 83.5977 47.4707 83.4551 47.1543 83.3027C46.9551 83.209 46.7383 83.0957 46.5039 82.9629C46.2695 82.8262 46.0469 82.6602 45.8359 82.4648C45.625 82.2695 45.4512 82.0332 45.3145 81.7559C45.1816 81.4746 45.1152 81.1387 45.1152 80.748C45.1152 80.2363 45.2324 79.7988 45.4668 79.4355C45.7012 79.0723 46.0352 78.7949 46.4688 78.6035C46.9062 78.4082 47.4219 78.3105 48.0156 78.3105C48.4609 78.3105 48.8848 78.3633 49.2871 78.4688C49.6934 78.5703 50.1172 78.7188 50.5586 78.9141L49.9727 80.3262C49.5781 80.166 49.2246 80.043 48.9121 79.957C48.5996 79.8672 48.2812 79.8223 47.957 79.8223C47.7305 79.8223 47.5371 79.8594 47.377 79.9336C47.2168 80.0039 47.0957 80.1055 47.0137 80.2383C46.9316 80.3672 46.8906 80.5176 46.8906 80.6895C46.8906 80.8926 46.9492 81.0645 47.0664 81.2051C47.1875 81.3418 47.3672 81.4746 47.6055 81.6035C47.8477 81.7324 48.1484 81.8828 48.5078 82.0547C48.9453 82.2617 49.3184 82.4785 49.627 82.7051C49.9395 82.9277 50.1797 83.1914 50.3477 83.4961C50.5156 83.7969 50.5996 84.1719 50.5996 84.6211Z" fill="white"/>
<path fill-rule="evenodd" clip-rule="evenodd" d="M30 45.7895V42L16 48.1579V50.8421L30 57V53.2105L19.5 49.5L30 45.7895ZM36 51.5C37.1046 51.5 38 50.6046 38 49.5C38 48.3954 37.1046 47.5 36 47.5C34.8954 47.5 34 48.3954 34 49.5C34 50.6046 34.8954 51.5 36 51.5ZM46 49.5C46 50.6046 45.1046 51.5 44 51.5C42.8954 51.5 42 50.6046 42 49.5C42 48.3954 42.8954 47.5 44 47.5C45.1046 47.5 46 48.3954 46 49.5ZM50 45.7895V42L64 48.1579V50.8421L50 57V53.2105L60.5 49.5L50 45.7895Z" fill="white"/>
</g>
<defs>
<clipPath id="clip0_2964_22046">
<rect width="80" height="100" fill="white"/>
</clipPath>
</defs>
</svg>
