<svg style="position: absolute; width: 0; height: 0; overflow: hidden;" xmlns="http://www.w3.org/2000/svg" viewBox="0 0 100 127" version="1.1" width="100" height="127">
<path d="M95 23V119C95 119.796 94.6839 120.559 94.1213 121.121C93.5587 121.684 92.7956 122 92 122H8C7.20435 122 6.44129 121.684 5.87868 121.121C5.31607 120.559 5 119.796 5 119V8C5 7.20435 5.31607 6.44129 5.87868 5.87868C6.44129 5.31607 7.20435 5 8 5H77L95 23Z" fill="#51968F"/>
<circle cx="44.5" cy="62.5" r="2.5" fill="white"/>
<circle cx="54.5" cy="62.5" r="2.5" fill="white"/>
<path opacity="0.2" d="M95 23H80C79.2044 23 78.4413 22.6839 77.8787 22.1213C77.3161 21.5587 77 20.7956 77 20V5L95 23Z" fill="black"/>
<path d="M47.3198 114H45.2456L43.2534 110.76L41.2612 114H39.3159L42.1577 109.582L39.4976 105.434H41.5015L43.3472 108.516L45.1577 105.434H47.1147L44.4253 109.682L47.3198 114ZM50.2144 109.465H50.812C51.3706 109.465 51.7886 109.355 52.0659 109.137C52.3433 108.914 52.4819 108.592 52.4819 108.17C52.4819 107.744 52.3647 107.43 52.1304 107.227C51.8999 107.023 51.5366 106.922 51.0405 106.922H50.2144V109.465ZM54.3159 108.105C54.3159 109.027 54.0269 109.732 53.4487 110.221C52.8745 110.709 52.0562 110.953 50.9937 110.953H50.2144V114H48.3979V105.434H51.1343C52.1733 105.434 52.9624 105.658 53.5015 106.107C54.0444 106.553 54.3159 107.219 54.3159 108.105ZM60.9897 111.621C60.9897 112.395 60.7104 113.004 60.1519 113.449C59.5972 113.895 58.8237 114.117 57.8315 114.117C56.9175 114.117 56.1089 113.945 55.4058 113.602V111.914C55.9839 112.172 56.4722 112.354 56.8706 112.459C57.2729 112.564 57.6401 112.617 57.9722 112.617C58.3706 112.617 58.6753 112.541 58.8862 112.389C59.1011 112.236 59.2085 112.01 59.2085 111.709C59.2085 111.541 59.1616 111.393 59.0679 111.264C58.9741 111.131 58.8354 111.004 58.6519 110.883C58.4722 110.762 58.103 110.568 57.5444 110.303C57.021 110.057 56.6284 109.82 56.3667 109.594C56.105 109.367 55.896 109.104 55.7397 108.803C55.5835 108.502 55.5054 108.15 55.5054 107.748C55.5054 106.99 55.7612 106.395 56.2729 105.961C56.7886 105.527 57.4995 105.311 58.4058 105.311C58.8511 105.311 59.2749 105.363 59.6772 105.469C60.0835 105.574 60.5073 105.723 60.9487 105.914L60.3628 107.326C59.9058 107.139 59.5269 107.008 59.2261 106.934C58.9292 106.859 58.6362 106.822 58.3472 106.822C58.0034 106.822 57.7397 106.902 57.5562 107.062C57.3726 107.223 57.2808 107.432 57.2808 107.689C57.2808 107.85 57.3179 107.99 57.3921 108.111C57.4663 108.229 57.5835 108.344 57.7437 108.457C57.9077 108.566 58.2925 108.766 58.8979 109.055C59.6987 109.438 60.2476 109.822 60.5444 110.209C60.8413 110.592 60.9897 111.062 60.9897 111.621Z" fill="white"/>
<path d="M62 53V57.8L75.5 62.5L62 67.2V72L80 64.2V60.8L62 53Z" fill="white"/>
<path d="M19 64.2L37 72V67.2L23.5 62.5L37 57.8V53L19 60.8V64.2Z" fill="white"/>
</svg>
