<svg width="24" height="24" viewBox="0 0 24 24" xmlns="http://www.w3.org/2000/svg">
<path d="M18 12C21.3137 12 24 14.6863 24 18C24 21.3137 21.3137 24 18 24C14.6863 24 12 21.3137 12 18C12 14.6863 14.6863 12 18 12ZM14.748 15.4961V16.7305H17.2266V22H18.7461V16.7305H21.252V15.4961H14.748Z" fill-opacity="0.4"/>
<path d="M20 1C21.6569 1 23 2.34315 23 4V13.1016C22.1803 12.265 21.1523 11.634 20 11.291V6H4V18H11C11 19.9591 11.8055 21.7294 13.1025 23H4C2.34315 23 1 21.6569 1 20V4C1 2.34315 2.34315 1 4 1H20ZM11.5 15.4014C11.2973 15.9079 11.1519 16.4432 11.0723 17H5V12H11.5V15.4014ZM14.3936 12C13.6651 12.4388 13.024 13.0069 12.5 13.6719V12H14.3936ZM11.5 11H5V7H11.5V11ZM19 11H12.5V7H19V11Z" fill="#40865C"/>
</svg>
