<svg width="20" height="20" viewBox="0 0 20 20" fill="none" xmlns="http://www.w3.org/2000/svg">
<path fill-rule="evenodd" clip-rule="evenodd" d="M4 5H17V16H4V5ZM3 17V4H18V17H3ZM10.1464 5.64646L8.64642 7.14646L9.35353 7.85357L9.99998 7.20712V9.00002H11V7.20712L11.6464 7.85357L12.3535 7.14646L10.8535 5.64646L10.5 5.29291L10.1464 5.64646ZM11 13.7929V12H9.99998V13.7929L9.35353 13.1464L8.64642 13.8536L10.1464 15.3536L10.5 15.7071L10.8535 15.3536L12.3535 13.8536L11.6464 13.1464L11 13.7929ZM6.14646 12.3535L4.64646 10.8535L4.29291 10.5L4.64646 10.1464L6.14646 8.64642L6.85357 9.35353L6.20712 9.99998H9.00002V11H6.20712L6.85357 11.6464L6.14646 12.3535ZM16.3536 10.1464L14.8536 8.64642L14.1464 9.35353L14.7929 9.99998H12V11H14.7929L14.1464 11.6464L14.8536 12.3535L16.3536 10.8535L16.7071 10.5L16.3536 10.1464Z" fill="black"/>
</svg>
