<svg width="24" height="24" viewBox="0 0 24 24" xmlns="http://www.w3.org/2000/svg">
<path d="M20 1C21.6569 1 23 2.34315 23 4V20C23 21.6569 21.6569 23 20 23H4C2.34315 23 1 21.6569 1 20V4C1 2.34315 2.34315 1 4 1H20ZM5 9V15H6V13H8C8.5 13 9 12.3284 9 11.5V10.5C9 9.50006 8.50006 9.00006 7.67871 9H5ZM10.5 9V15H13C13.9643 15 14.5 14.5 14.5 13.5V10.5C14.5 9.5 14 9 13 9H10.5ZM16 9V15H17V12.5H19.5V11.5H17V10H20V9H16ZM13 10C13.5 10 13.5 10.5 13.5 10.5V13.5C13.5 13.5 13.5 14 13 14H11.5V10H13ZM7.5 10C7.79588 10 8 10.2239 8 10.5V11.5C8 11.7761 7.97446 11.9999 7.67871 12H6V10H7.5Z" fill="#DB4437"/>
</svg>
