<svg width="24" height="24" viewBox="0 0 24 24" xmlns="http://www.w3.org/2000/svg">
<path d="M18 12C21.3137 12 24 14.6863 24 18C24 21.3137 21.3137 24 18 24C14.6863 24 12 21.3137 12 18C12 14.6863 14.6863 12 18 12ZM17.3848 14.8145L14.7812 21.1855H16.1738L16.6953 19.7676H19.2979L19.8213 21.1855H21.2188L18.6006 14.8145H17.3848ZM18.9473 18.8184H17.0439L17.9922 16.2354L18.9473 18.8184Z" fill-opacity="0.4"/>
<path d="M20 1C21.6569 1 23 2.34315 23 4V13.1025C21.8385 11.9169 20.2593 11.1437 18.5 11.0195V10.5H16V9H19V8H15V11.6738C14.4558 11.9323 13.951 12.2598 13.4951 12.6436C13.4977 12.5969 13.5 12.5491 13.5 12.5V9.5C13.5 8.5 13 8 12 8H9.5V14H12C12.0929 14 12.1817 13.9937 12.2666 13.9844C11.4689 15.1212 11 16.5057 11 18C11 19.9591 11.8056 21.7294 13.1025 23H4C2.34315 23 1 21.6569 1 20V4C1 2.34315 2.34315 1 4 1H20ZM4 8V14H5V12H7C7.5 12 8 11.3284 8 10.5V9.5C8 8.50006 7.50006 8.00006 6.67871 8H4ZM12 9C12.5 9 12.5 9.5 12.5 9.5V12.5C12.5 12.5 12.5 13 12 13H10.5V9H12ZM6.5 9C6.79588 9 7 9.22388 7 9.5V10.5C7 10.7761 6.97446 10.9999 6.67871 11H5V9H6.5Z" fill="#DB4437"/>
</svg>
