<svg xmlns="http://www.w3.org/2000/svg" width="24" height="24" viewBox="0 0 24 24" fill="none"><path fill-rule="evenodd" clip-rule="evenodd" d="M18 12C14.6863 12 12 14.6863 12 18C12 21.3137 14.6863 24 18 24C21.3137 24 24 21.3137 24 18C24 14.6863 21.3137 12 18 12ZM18.2752 14.8145H18.6006L21.2186 21.1855H19.8211L19.2975 19.7677H16.6952L16.1741 21.1855H14.7814L17.385 14.8145H17.7057H18.2752ZM17.0442 18.8182H18.9468L17.9932 16.2361L17.0442 18.8182Z" fill="#A8A8A8"/><path fill-rule="evenodd" clip-rule="evenodd" d="M1 4C1 2.34315 2.34315 1 4 1H20C21.6569 1 23 2.34315 23 4V13.101C21.9417 12.021 20.5363 11.2825 18.9643 11.0659V11H16.2857V9H19.5V8H15.2143V11.5763C14.8389 11.7393 14.4806 11.9343 14.1429 12.1577V9.5C14.1429 8.67163 13.4233 8 12.5357 8H9.85714V14H12.2548C11.4639 15.1338 11.0001 16.5128 11.0001 18.0001C11.0001 19.9587 11.8045 21.7295 13.101 23H4C2.34315 23 1 21.6569 1 20V4ZM4.5 8V14H5.57143V12H7.17857C8.06617 12 8.78571 11.3284 8.78571 10.5V9.5C8.78571 8.67163 8.06617 8 7.17857 8H4.5ZM5.57143 9H7.17857C7.47445 9 7.71429 9.22388 7.71429 9.5V10.5C7.71429 10.7761 7.47445 11 7.17857 11H5.57143V9ZM12.5357 9H10.9286V13H12.5357C12.8316 13 13.0714 12.7761 13.0714 12.5V9.5C13.0714 9.22388 12.8316 9 12.5357 9Z" fill="#DB4437"/></svg>