<svg xmlns="http://www.w3.org/2000/svg" width="24" height="24" viewBox="0 0 24 24" stroke="currentColor" stroke-linecap="round" stroke-linejoin="round" fill="none">
    <path d="M12.5 7v10.5M7.5 7v10" class="icon-stroke-gray-secondary"/>
    <path d="M17.5 9.5v-2a1 1 0 0 0-1-1h-11a1 1 0 0 0-1 1v9a1 1 0 0 0 1 1h4" class="icon-stroke-gray-primary"/>
    <path d="M15.498 11a4.498 4.498 0 1 1 0 8.996 4.498 4.498 0 0 1 0-8.996Zm-1.115 2.24a.25.25 0 0 0-.383.211v4.098a.25.25 0 0 0 .383.212l3.278-2.05a.25.25 0 0 0 0-.423l-3.278-2.049Z" fill="currentColor" stroke="none" class="icon-fill-blue-primary"/>
</svg>
