<svg xmlns="http://www.w3.org/2000/svg" width="24" height="24" viewBox="0 0 24 24" stroke="currentColor" stroke-linecap="round" stroke-linejoin="round" fill="none">
    <path d="M8.5 6.5h-3a1 1 0 0 0-1 1v9a1 1 0 0 0 1 1h3m0-11h10a1 1 0 0 1 1 1v7m-11-8v8m0 3h10a1 1 0 0 0 1-1v-2m-11 3v-3m0 0h11" class="icon-stroke-gray-primary"/>
    <path d="M12.264 8.06a.5.5 0 0 1 .513.024l3 2a.5.5 0 0 1 0 .832l-3 2A.501.501 0 0 1 12 12.5v-4l.005-.068a.5.5 0 0 1 .259-.372Z" fill="currentColor" stroke="none" class="icon-fill-blue-primary" />
</svg>
