<svg width="24" height="24" viewBox="0 0 24 24" xmlns="http://www.w3.org/2000/svg">
<path d="M5.5 17.75C4.53381 17.7504 3.75 18.5337 3.75 19.5L3.75098 21.5V22.25H5.25098V21.5L5.25 19.5C5.25 19.3622 5.36224 19.2504 5.5 19.25H18.5283C18.6664 19.25 18.7783 19.3619 18.7783 19.5V22.25H20.2783V19.5C20.2783 18.5335 19.4948 17.75 18.5283 17.75H5.5ZM18.75 2.99707L18.7256 10.5C18.7251 10.6377 18.6133 10.749 18.4756 10.749H5.50098C5.36291 10.749 5.25098 10.6371 5.25098 10.499L5.25 2.99902V2.24902H3.75V2.99902L3.75098 10.499C3.75103 11.4655 4.53451 12.249 5.50098 12.249H18.4756C19.4398 12.249 20.2224 11.4691 20.2256 10.5049L20.25 3.00098L20.252 2.25098L18.752 2.24707L18.75 2.99707Z" fill="#444444"/>
<path d="M19.5 14.25C19.0858 14.25 18.75 14.5858 18.75 15C18.75 15.4142 19.0858 15.75 19.5 15.75H20.5C20.9142 15.75 21.25 15.4142 21.25 15C21.25 14.5858 20.9142 14.25 20.5 14.25H19.5ZM15.5 14.25C15.0858 14.25 14.75 14.5858 14.75 15C14.75 15.4142 15.0858 15.75 15.5 15.75H16.5C16.9142 15.75 17.25 15.4142 17.25 15C17.25 14.5858 16.9142 14.25 16.5 14.25H15.5ZM11.5 14.25C11.0858 14.25 10.75 14.5858 10.75 15C10.75 15.4142 11.0858 15.75 11.5 15.75H12.5C12.9142 15.75 13.25 15.4142 13.25 15C13.25 14.5858 12.9142 14.25 12.5 14.25H11.5ZM7.5 14.25C7.08579 14.25 6.75 14.5858 6.75 15C6.75 15.4142 7.08579 15.75 7.5 15.75H8.5C8.91421 15.75 9.25 15.4142 9.25 15C9.25 14.5858 8.91421 14.25 8.5 14.25H7.5ZM3.5 14.25C3.08579 14.25 2.75 14.5858 2.75 15C2.75 15.4142 3.08579 15.75 3.5 15.75H4.5C4.91421 15.75 5.25 15.4142 5.25 15C5.25 14.5858 4.91421 14.25 4.5 14.25H3.5Z" fill="#446ECA"/>
</svg>
