<svg width="24" height="24" viewBox="0 0 24 24" xmlns="http://www.w3.org/2000/svg">
<path d="M15 13.583C17.0711 13.583 18.75 15.2619 18.75 17.333V18.333C18.75 19.2995 17.9665 20.083 17 20.083H7C6.0335 20.083 5.25 19.2995 5.25 18.333V17.333C5.25 15.2619 6.92893 13.583 9 13.583H15ZM9 15.083C7.75736 15.083 6.75 16.0904 6.75 17.333V18.333C6.75 18.4711 6.86193 18.583 7 18.583H17C17.1381 18.583 17.25 18.4711 17.25 18.333V17.333C17.25 16.0904 16.2426 15.083 15 15.083H9ZM12.0225 3.91504C14.3697 3.91504 16.2725 5.81881 16.2725 8.16602C16.2722 10.513 14.3695 12.416 12.0225 12.416C9.67541 12.416 7.77272 10.513 7.77246 8.16602C7.77246 5.81881 9.67525 3.91504 12.0225 3.91504ZM12.0225 5.41602C10.5037 5.41602 9.27246 6.64723 9.27246 8.16602C9.27272 9.68457 10.5038 10.916 12.0225 10.916C13.5411 10.916 14.7722 9.68457 14.7725 8.16602C14.7725 6.64723 13.5412 5.41602 12.0225 5.41602Z" fill="#444444"/>
</svg>
