<svg width="24" height="24" viewBox="0 0 24 24" xmlns="http://www.w3.org/2000/svg">
<path fill-rule="evenodd" clip-rule="evenodd" d="M5.96978 5.76562C6.26266 5.47274 6.73743 5.47276 7.03033 5.76562L18.0303 16.7656C18.3232 17.0585 18.3232 17.5333 18.0303 17.8262C17.7374 18.119 17.2627 18.1191 16.9698 17.8262L16.0987 16.9551C14.9893 17.6021 13.6302 18.0459 12.0001 18.0459C8.96748 18.0459 6.90155 16.5198 5.62017 15.0361C4.98112 14.2962 4.52913 13.5588 4.23638 13.0068C4.0896 12.73 3.98144 12.497 3.90923 12.3311C3.87328 12.2484 3.846 12.1821 3.8272 12.1348C3.81783 12.1111 3.80998 12.0919 3.80474 12.0781C3.80222 12.0715 3.80046 12.0658 3.79888 12.0615C3.79811 12.0595 3.79746 12.0571 3.79693 12.0557L3.79595 12.0537C3.79588 12.0533 3.80211 12.0497 4.50005 11.7959L3.79498 11.5391H3.79595V11.5371C3.79622 11.5364 3.79659 11.5351 3.79693 11.5342C3.79771 11.5321 3.79871 11.5294 3.79986 11.5264C3.80238 11.5196 3.80631 11.5102 3.8106 11.499C3.81917 11.4768 3.83098 11.4458 3.84673 11.4072C3.87841 11.3297 3.9252 11.2206 3.98736 11.0859C4.11175 10.8166 4.29952 10.4428 4.55865 10.0166C5.014 9.26773 5.6999 8.33673 6.66119 7.51758L5.96978 6.82617C5.67693 6.53329 5.67693 6.05851 5.96978 5.76562ZM7.72759 8.58398C6.8754 9.28715 6.25581 10.1135 5.84088 10.7959C5.61576 11.1661 5.45413 11.4886 5.34966 11.7148C5.3363 11.7438 5.32402 11.7712 5.31255 11.7969C5.37078 11.927 5.45278 12.1004 5.5606 12.3037C5.81471 12.7829 6.20671 13.4208 6.75494 14.0557C7.84855 15.322 9.53278 16.5459 12.0001 16.5459C13.1724 16.5459 14.159 16.2663 14.9903 15.8467L13.3389 14.1953C12.9422 14.4168 12.4861 14.5459 12.0001 14.5459C10.4813 14.5459 9.25005 13.3147 9.25005 11.7959C9.25011 11.3098 9.37897 10.8536 9.60064 10.457L7.72759 8.58398ZM12.0001 5.5459C15.0326 5.5459 17.0985 7.07201 18.3799 8.55566C19.019 9.29562 19.471 10.033 19.7637 10.585C19.9105 10.8618 20.0187 11.0948 20.0909 11.2607C20.1268 11.3434 20.1541 11.4097 20.1729 11.457C20.1823 11.4807 20.1901 11.4999 20.1954 11.5137C20.1979 11.5203 20.1997 11.526 20.2012 11.5303C20.202 11.5323 20.2026 11.5347 20.2032 11.5361L20.2042 11.5381C20.2043 11.5384 20.2049 11.5396 19.5001 11.7959L20.2051 12.0527L20.2042 12.0547C20.2037 12.0559 20.2028 12.0579 20.2022 12.0596C20.201 12.0628 20.1992 12.0672 20.1973 12.0723C20.1934 12.0826 20.1885 12.0968 20.1817 12.1143C20.1678 12.1496 20.1474 12.1997 20.1211 12.2617C20.0687 12.3856 19.9908 12.5599 19.8858 12.7705C19.676 13.1914 19.3543 13.7637 18.9053 14.376C18.6603 14.7095 18.1913 14.7818 17.8575 14.5371C17.5235 14.2922 17.4514 13.8223 17.6963 13.4883C18.0849 12.9583 18.3628 12.4621 18.543 12.1006C18.6022 11.9819 18.6476 11.877 18.6856 11.792C18.6275 11.6622 18.5465 11.4898 18.4395 11.2881C18.1854 10.8089 17.7934 10.171 17.2452 9.53613C16.1515 8.26984 14.4673 7.0459 12.0001 7.0459C11.5166 7.0459 11.066 7.09239 10.6465 7.17578C10.2404 7.2565 9.84557 6.99304 9.7647 6.58691C9.68396 6.18076 9.94749 5.78599 10.3536 5.70508C10.8702 5.60236 11.419 5.5459 12.0001 5.5459ZM10.7628 11.6191C10.7546 11.6769 10.7501 11.7358 10.7501 11.7959C10.7501 12.4862 11.3097 13.0459 12.0001 13.0459C12.0598 13.0459 12.1184 13.0403 12.1758 13.0322L10.7628 11.6191ZM4.50005 11.7959L3.79498 12.0518C3.73501 11.8865 3.73501 11.7053 3.79498 11.54L4.50005 11.7959ZM20.2051 11.54C20.2651 11.7053 20.2651 11.8865 20.2051 12.0518L19.5001 11.7959L20.2051 11.54Z" fill="#444444"/>
</svg>
