<svg width="24" height="24" viewBox="0 0 24 24" xmlns="http://www.w3.org/2000/svg">
<path fill-rule="evenodd" clip-rule="evenodd" d="M8.96967 4.46967C9.26256 4.17678 9.73732 4.17678 10.0302 4.46967C10.3231 4.76257 10.3231 5.23734 10.0302 5.53022L7.31049 8.24994H13.4999C16.6756 8.24997 19.2499 10.8243 19.2499 13.9999C19.2499 17.1755 16.6755 19.7499 13.4999 19.7499H12.4999C12.0857 19.7499 11.75 19.4141 11.7499 18.9999C11.7499 18.5857 12.0857 18.2499 12.4999 18.2499H13.4999C15.8471 18.2499 17.7499 16.3471 17.7499 13.9999C17.7499 11.6528 15.8471 9.74997 13.4999 9.74994H7.31049L10.0302 12.4697C10.3231 12.7626 10.3231 13.2373 10.0302 13.5302C9.73734 13.8231 9.26257 13.8231 8.96967 13.5302L4.96967 9.53022C4.67678 9.23732 4.67678 8.76256 4.96967 8.46967L8.96967 4.46967Z" fill="#444444"/>
</svg>
