<svg width="24" height="24" viewBox="0 0 24 24" xmlns="http://www.w3.org/2000/svg">
<path d="M9.15576 2.08594C12.8065 2.08612 15.8096 4.85368 16.1841 8.40527H20.0308C20.7208 8.40566 21.2808 8.96516 21.2808 9.65527V20.0303C21.2803 20.72 20.7205 21.2799 20.0308 21.2803H9.65576C8.96567 21.2803 8.40619 20.7203 8.40576 20.0303V16.1836C4.85418 15.8091 2.08661 12.806 2.08643 9.15527C2.08643 5.25104 5.25153 2.08594 9.15576 2.08594ZM9.90576 19.7803H19.7808V9.90527H9.90576V19.7803ZM9.15576 3.58594C6.07996 3.58594 3.58643 6.07947 3.58643 9.15527C3.58661 11.9765 5.68477 14.3056 8.40576 14.6719V9.65527C8.40576 8.96492 8.96541 8.40527 9.65576 8.40527H14.6733C14.3071 5.68421 11.9771 3.58611 9.15576 3.58594Z" fill="#444444"/>
</svg>
