<svg width="24" height="24" viewBox="0 0 24 24" xmlns="http://www.w3.org/2000/svg">
<path fill-rule="evenodd" clip-rule="evenodd" d="M16.5127 3.51249C17.1961 2.82917 18.3039 2.82917 18.9873 3.51249L20.5732 5.09842C21.2564 5.78183 21.2565 6.88968 20.5732 7.57303L7.28027 20.866C7.13963 21.0066 6.94885 21.0857 6.75 21.0857H3.75C3.33587 21.0857 3.00014 20.7498 3 20.3357V17.3357C3 17.1369 3.07915 16.9461 3.21973 16.8055L16.5127 3.51249ZM4.5 17.6463V19.5857H6.43945L16.6895 9.33573L14.75 7.39628L4.5 17.6463ZM17.9268 4.57303C17.8291 4.4755 17.6709 4.4755 17.5732 4.57303L15.8105 6.33573L17.75 8.27518L19.5127 6.51249C19.6102 6.41492 19.6101 6.25659 19.5127 6.15897L17.9268 4.57303Z" fill="#444444"/>
<path d="M20.5 19.75C20.9142 19.75 21.25 20.0858 21.25 20.5C21.2498 20.914 20.9141 21.25 20.5 21.25H10.5C10.0859 21.25 9.75019 20.914 9.75 20.5C9.75 20.0858 10.0858 19.75 10.5 19.75H20.5Z" fill="#444444"/>
</svg>
