<svg width="24" height="24" viewBox="0 0 24 24" xmlns="http://www.w3.org/2000/svg">
<path fill-rule="evenodd" clip-rule="evenodd" d="M17.345 8.97852C18.126 8.19782 19.3922 8.19767 20.1731 8.97852L21.4056 10.2109C22.1862 10.9919 22.1862 12.2581 21.4056 13.0391L19.7845 14.6602L12.7845 21.5352C12.652 21.6651 12.4757 21.7412 12.2903 21.749L9.29032 21.874C9.08626 21.8825 8.88698 21.8073 8.73954 21.666C8.59227 21.5246 8.50907 21.3292 8.50907 21.125V18C8.50909 17.7988 8.59014 17.6058 8.73368 17.4648L15.7337 10.5898L17.345 8.97852ZM10.0091 18.3145V20.3428L11.9388 20.2627L18.1936 14.1201L16.2542 12.1807L10.0091 18.3145ZM7.762 2.12501C8.05724 2.12625 8.3247 2.30053 8.44462 2.57032L12.4446 11.5703C12.6128 11.9488 12.4423 12.3923 12.0638 12.5606C11.6853 12.7288 11.2417 12.5582 11.0735 12.1797L10.3821 10.625H5.05985L3.44169 14.1856C3.27021 14.5625 2.82553 14.729 2.44852 14.5576C2.07163 14.3861 1.9051 13.9415 2.07645 13.5645L7.07645 2.56446L7.12919 2.46876C7.26642 2.25587 7.50378 2.12401 7.762 2.12501ZM19.1126 10.0391C18.9174 9.84401 18.6008 9.84415 18.4056 10.0391L17.3196 11.125L19.2591 13.0645L20.345 11.9785C20.5398 11.7833 20.5399 11.4667 20.345 11.2715L19.1126 10.0391ZM5.74149 9.12501H9.71512L7.75028 4.70411L5.74149 9.12501Z" fill="#444444"/>
</svg>
