<svg width="24" height="24" viewBox="0 0 24 24" xmlns="http://www.w3.org/2000/svg">
<path d="M3.75 2.93066C4.16415 2.93066 4.4999 3.26654 4.5 3.68066L4.50098 20.6807C4.50081 21.0946 4.16486 21.4304 3.75098 21.4307C3.33686 21.4307 3.00114 21.0947 3.00098 20.6807L3 3.68066C3.0001 3.2667 3.33607 2.93093 3.75 2.93066ZM20.75 2.79688C21.1641 2.79687 21.4997 3.13191 21.5 3.5459L21.501 20.5459C21.501 20.9599 21.165 21.2966 20.751 21.2969C20.3369 21.2969 20.0012 20.9609 20.001 20.5469L20 3.54688C20 3.13282 20.336 2.79714 20.75 2.79688ZM13.25 6.7959C14.2163 6.7959 14.9997 7.57962 15 8.5459V15.5459C15 16.5122 14.2173 17.2956 13.251 17.2959H11.251C10.2846 17.2959 9.50026 16.5131 9.5 15.5469V8.54688C9.5 7.58054 10.2837 6.79616 11.25 6.7959H13.25ZM11.25 8.2959C11.1123 8.29616 11.0003 8.40821 11 8.5459V15.5459C11 15.6838 11.1122 15.7956 11.25 15.7959H13.25C13.3881 15.7959 13.5 15.684 13.5 15.5459V8.5459C13.4997 8.40805 13.3879 8.2959 13.25 8.2959H11.25Z" fill="#444444"/>
</svg>
