<svg width="24" height="24" viewBox="0 0 24 24" xmlns="http://www.w3.org/2000/svg">
<path d="M4 15.0459C4 14.0794 4.7835 13.2959 5.75 13.2959L11 13.2959L11 11.7959L8.75 11.7959C7.7835 11.7959 7 11.0124 7 10.0459L7 8.0459C7 7.0794 7.7835 6.2959 8.75 6.2959L11 6.2959L11 4.0459C11 3.63175 11.3359 3.296 11.75 3.2959C12.1642 3.2959 12.5 3.63168 12.5 4.0459L12.5 6.2959L14.75 6.2959C15.7165 6.2959 16.5 7.0794 16.5 8.0459L16.5 10.0459C16.5 11.0124 15.7165 11.7959 14.75 11.7959L12.5 11.7959L12.5 13.2959L17.75 13.2959C18.7165 13.2959 19.5 14.0794 19.5 15.0459L19.5 17.0459C19.5 18.0124 18.7165 18.7959 17.75 18.7959L12.5 18.7959L12.5 21.0459C12.5 21.4601 12.1642 21.7959 11.75 21.7959C11.3359 21.7958 11 21.46 11 21.0459L11 18.7959L5.75 18.7959C4.7835 18.7959 4 18.0124 4 17.0459L4 15.0459ZM5.5 17.0459C5.5 17.184 5.61193 17.2959 5.75 17.2959L17.75 17.2959C17.8881 17.2959 18 17.184 18 17.0459L18 15.0459C18 14.9078 17.8881 14.7959 17.75 14.7959L5.75 14.7959C5.61193 14.7959 5.5 14.9078 5.5 15.0459L5.5 17.0459ZM8.5 10.0459C8.5 10.184 8.61193 10.2959 8.75 10.2959L14.75 10.2959C14.8881 10.2959 15 10.184 15 10.0459L15 8.0459C15 7.90783 14.8881 7.7959 14.75 7.7959L8.75 7.7959C8.61193 7.7959 8.5 7.90783 8.5 8.0459L8.5 10.0459Z" fill="#444444"/>
</svg>
