<svg width="24" height="24" viewBox="0 0 24 24" xmlns="http://www.w3.org/2000/svg">
<path d="M22.5 3.49902C23.0523 3.49902 23.5 3.94674 23.5 4.49902C23.5 4.76745 23.3928 5.00983 23.2207 5.18945C23.2387 5.29004 23.25 5.39326 23.25 5.49902V18.499C23.25 18.6045 23.2386 18.7073 23.2207 18.8076C23.3931 18.9873 23.5 19.2303 23.5 19.499C23.5 20.0513 23.0523 20.499 22.5 20.499H1.5C0.947715 20.499 0.5 20.0513 0.5 19.499C0.5 19.2306 0.606182 18.9872 0.77832 18.8076C0.760474 18.7074 0.75 18.6044 0.75 18.499V5.49902C0.75 5.39332 0.760364 5.28999 0.77832 5.18945C0.60647 5.00987 0.5 4.76721 0.5 4.49902C0.5 3.94674 0.947715 3.49902 1.5 3.49902H22.5ZM2.25 18.499H21.75V5.49902H2.25V18.499ZM16.3291 8.17578C17.0125 7.49239 18.1213 7.49239 18.8047 8.17578L19.3604 8.73145C20.0436 9.41474 20.0433 10.5226 19.3604 11.2061L13.5 17.0664C13.3594 17.2069 13.1685 17.2861 12.9697 17.2861H11C10.5859 17.2861 10.2502 16.9502 10.25 16.5361V14.5654C10.2501 14.3667 10.3292 14.1757 10.4697 14.0352L16.3291 8.17578ZM8.5 15.749C8.91421 15.749 9.25 16.0848 9.25 16.499C9.25 16.9132 8.91421 17.249 8.5 17.249H4.5C4.08579 17.249 3.75 16.9132 3.75 16.499C3.75 16.0848 4.08579 15.749 4.5 15.749H8.5ZM11.75 14.876V15.7861H12.6592L16.5059 11.9385L15.5957 11.0293L11.75 14.876ZM17.7432 9.23633C17.6455 9.13899 17.4872 9.13882 17.3896 9.23633L16.6562 9.96875L17.5664 10.8779L18.2998 10.1455C18.397 10.0479 18.3972 9.8895 18.2998 9.79199L17.7432 9.23633Z" fill="#444444"/>
</svg>
