<svg width="24" height="24" viewBox="0 0 24 24" xmlns="http://www.w3.org/2000/svg">
<path d="M9.75 3.7959C10.7165 3.7959 11.5 4.5794 11.5 5.5459V10.7959H13V8.5459C13 7.5794 13.7835 6.7959 14.75 6.7959H16.75C17.7165 6.7959 18.5 7.5794 18.5 8.5459V10.7959H20.75C21.1642 10.7959 21.5 11.1317 21.5 11.5459C21.5 11.9601 21.1642 12.2959 20.75 12.2959H18.5V14.5459C18.5 15.5124 17.7165 16.2959 16.75 16.2959H14.75C13.7835 16.2959 13 15.5124 13 14.5459V12.2959H11.5V17.5459C11.5 18.5124 10.7165 19.2959 9.75 19.2959H7.75C6.7835 19.2959 6 18.5124 6 17.5459V12.2959H3.75C3.33579 12.2959 3 11.9601 3 11.5459C3 11.1317 3.33579 10.7959 3.75 10.7959H6V5.5459C6 4.5794 6.7835 3.7959 7.75 3.7959H9.75ZM7.75 5.2959C7.61193 5.2959 7.5 5.40783 7.5 5.5459V17.5459C7.5 17.684 7.61193 17.7959 7.75 17.7959H9.75C9.88807 17.7959 10 17.684 10 17.5459V5.5459C10 5.40783 9.88807 5.2959 9.75 5.2959H7.75ZM14.75 8.2959C14.6119 8.2959 14.5 8.40783 14.5 8.5459V14.5459C14.5 14.684 14.6119 14.7959 14.75 14.7959H16.75C16.8881 14.7959 17 14.684 17 14.5459V8.5459C17 8.40783 16.8881 8.2959 16.75 8.2959H14.75Z" fill="#444444"/>
</svg>
