<svg width="24" height="24" viewBox="0 0 24 24" xmlns="http://www.w3.org/2000/svg">
<path d="M6.75 14.2959C6.75 13.3294 7.5335 12.5459 8.5 12.5459L18.5 12.5459C19.4665 12.5459 20.25 13.3294 20.25 14.2959L20.25 16.2959C20.25 17.2624 19.4665 18.0459 18.5 18.0459L8.5 18.0459C7.5335 18.0459 6.75 17.2624 6.75 16.2959L6.75 14.2959ZM8.25 16.2959C8.25 16.434 8.36193 16.5459 8.5 16.5459L18.5 16.5459C18.6381 16.5459 18.75 16.434 18.75 16.2959L18.75 14.2959C18.75 14.1578 18.6381 14.0459 18.5 14.0459L8.5 14.0459C8.36193 14.0459 8.25 14.1578 8.25 14.2959L8.25 16.2959ZM6.75 7.2959C6.75 6.3294 7.5335 5.5459 8.5 5.5459L13.5 5.5459C14.4665 5.5459 15.25 6.3294 15.25 7.2959L15.25 9.2959C15.25 10.2624 14.4665 11.0459 13.5 11.0459L8.5 11.0459C7.5335 11.0459 6.75 10.2624 6.75 9.2959L6.75 7.2959ZM8.25 9.2959C8.25 9.43397 8.36193 9.5459 8.5 9.5459L13.5 9.5459C13.6381 9.5459 13.75 9.43397 13.75 9.2959L13.75 7.2959C13.75 7.15783 13.6381 7.0459 13.5 7.0459L8.5 7.0459C8.36193 7.0459 8.25 7.15783 8.25 7.2959L8.25 9.2959ZM2.75 2.92969C2.7501 2.51556 3.08585 2.17969 3.5 2.17969C3.91415 2.17969 4.2499 2.51556 4.25 2.92969L4.25 19.9297C4.25 20.3439 3.91421 20.6797 3.5 20.6797C3.08579 20.6797 2.75 20.3439 2.75 19.9297L2.75 2.92969Z" fill="#444444"/>
</svg>
