<svg width="24" height="24" viewBox="0 0 24 24" xmlns="http://www.w3.org/2000/svg">
<path d="M20.75 19.5459C21.1642 19.5459 21.5 19.8817 21.5 20.2959C21.5 20.7101 21.1642 21.0459 20.75 21.0459H3.75C3.33579 21.0459 3 20.7101 3 20.2959C3 19.8817 3.33579 19.5459 3.75 19.5459H20.75ZM9.75 4.5459C10.7165 4.5459 11.5 5.3294 11.5 6.2959V16.2959C11.5 17.2624 10.7165 18.0459 9.75 18.0459H7.75C6.7835 18.0459 6 17.2624 6 16.2959V6.2959C6 5.3294 6.7835 4.5459 7.75 4.5459H9.75ZM16.75 9.5459C17.7165 9.5459 18.5 10.3294 18.5 11.2959V16.2959C18.5 17.2624 17.7165 18.0459 16.75 18.0459H14.75C13.7835 18.0459 13 17.2624 13 16.2959V11.2959C13 10.3294 13.7835 9.5459 14.75 9.5459H16.75ZM7.75 6.0459C7.61193 6.0459 7.5 6.15783 7.5 6.2959V16.2959C7.5 16.434 7.61193 16.5459 7.75 16.5459H9.75C9.88807 16.5459 10 16.434 10 16.2959V6.2959C10 6.15783 9.88807 6.0459 9.75 6.0459H7.75ZM14.75 11.0459C14.6119 11.0459 14.5 11.1578 14.5 11.2959V16.2959C14.5 16.434 14.6119 16.5459 14.75 16.5459H16.75C16.8881 16.5459 17 16.434 17 16.2959V11.2959C17 11.1578 16.8881 11.0459 16.75 11.0459H14.75Z" fill="#444444"/>
</svg>
