<svg width="24" height="24" viewBox="0 0 24 24" xmlns="http://www.w3.org/2000/svg">
<path d="M4 17.25C3.58579 17.25 3.25 17.5858 3.25 18C3.25 18.4142 3.58579 18.75 4 18.75H14C14.4142 18.75 14.75 18.4142 14.75 18C14.75 17.5858 14.4142 17.25 14 17.25H4ZM4 11.25C3.58579 11.25 3.25 11.5858 3.25 12C3.25 12.4142 3.58579 12.75 4 12.75H14C14.4142 12.75 14.75 12.4142 14.75 12C14.75 11.5858 14.4142 11.25 14 11.25H4ZM4 5.25C3.58579 5.25 3.25 5.58579 3.25 6C3.25 6.41421 3.58579 6.75 4 6.75H14C14.4142 6.75 14.75 6.41421 14.75 6C14.75 5.58579 14.4142 5.25 14 5.25H4Z" fill="#444444"/>
<path d="M18.8281 12.9097C19.9907 12.9097 21.0264 13.8002 21.0264 15.0084V15.1236C21.0263 15.6979 20.7806 16.2378 20.3633 16.6265L18.5625 18.3033H20.2764C20.6904 18.3035 21.0264 18.6392 21.0264 19.0533C21.0261 19.4672 20.6903 19.8031 20.2764 19.8033H17.8926C17.2873 19.803 16.7076 19.3633 16.6377 18.7095L16.6309 18.5767L16.6377 18.4488C16.6691 18.1552 16.8081 17.887 17.0195 17.69L19.3408 15.5289C19.4664 15.4119 19.5263 15.2643 19.5264 15.1236V15.0084C19.5264 14.7273 19.2645 14.4097 18.8281 14.4097C18.3922 14.4101 18.1309 14.7274 18.1309 15.0084C18.1307 15.4225 17.795 15.7584 17.3809 15.7584C16.9669 15.7581 16.631 15.4223 16.6309 15.0084C16.6309 13.8005 17.6658 12.9101 18.8281 12.9097ZM19.041 3.95074C19.2594 3.74737 19.5779 3.69313 19.8516 3.81207C20.1252 3.93121 20.3018 4.20111 20.3018 4.49957V9.89215C20.3017 10.3063 19.9659 10.6422 19.5518 10.6422C19.138 10.6417 18.8018 10.306 18.8018 9.89215V6.22321L17.8916 7.07086C17.5885 7.35263 17.1142 7.3357 16.832 7.03278C16.5501 6.72975 16.5674 6.25545 16.8701 5.97321L19.041 3.95074Z" fill="#446ECA"/>
</svg>
