<svg width="28" height="28" viewBox="0 0 28 28" fill="none" xmlns="http://www.w3.org/2000/svg">
<path d="M8.68534 3.97262L11.8673 7.1546C12.0626 7.34986 12.0626 7.66644 11.8673 7.8617L8.68534 11.0437C8.49008 11.2389 8.1735 11.2389 7.97824 11.0437C7.78297 10.8484 7.78297 10.5318 7.97824 10.3366L10.3067 8.00815V8H7C5.34315 8 4 9.34315 4 11V15H3V11C3 8.79086 4.79086 7 7 7H10.2985L7.97823 4.67973C7.78297 4.48446 7.78297 4.16788 7.97823 3.97262C8.1735 3.77736 8.49008 3.77736 8.68534 3.97262Z" fill="#0E8A26"/>
<path fill-rule="evenodd" clip-rule="evenodd" d="M7.52427 13.3455C7.5991 13.1152 7.79954 13 7.99988 13C8.20023 13 8.4009 13.1152 8.47573 13.3455C8.8472 14.5671 9.22299 15.7849 9.60369 17.0003L13.499 17C13.9834 17 14.1848 17.6198 13.7929 17.9044C12.3391 18.9607 11.3644 19.6526 10.6112 20.1754C11.058 21.5655 11.512 22.9541 11.974 24.3433C12.1236 24.8039 11.5964 25.1869 11.2045 24.9022C9.74595 23.8578 8.75659 23.149 8 22.6057C7.24341 23.149 6.25405 23.8578 4.79547 24.9022C4.40361 25.1869 3.87637 24.8039 4.02605 24.3433C4.48802 22.9541 4.94199 21.5655 5.38884 20.1754C4.63556 19.6526 3.66088 18.9607 2.20707 17.9044C1.81521 17.6198 2.0166 17 2.50096 17L6.39631 17.0003C6.77701 15.7849 7.1528 14.5671 7.52427 13.3455ZM7.13104 18.0004L4.04663 18.0001C4.84155 18.5712 5.45188 19.0019 5.95904 19.3538L6.56762 19.7762L6.34093 20.4814C6.04973 21.3873 5.75551 22.2926 5.45803 23.1978C6.27118 22.6153 6.89869 22.1654 7.41682 21.7934L8.00007 21.3746L8.58332 21.7934C9.10145 22.1654 9.72895 22.6153 10.5421 23.1978C10.2446 22.2926 9.95041 21.3873 9.65921 20.4814L9.43252 19.7762L10.0411 19.3538C10.5483 19.0019 11.1586 18.5712 11.9535 18.0001L8.86909 18.0004L8.64947 17.2992C8.43143 16.6031 8.215 15.9062 8.00007 15.2083C7.78514 15.9062 7.56871 16.6031 7.35066 17.2992L7.13104 18.0004Z" fill="#0E8A26"/>
<path opacity="0.5" d="M4.04688 18.0004L7.13129 18.0006L7.35091 17.2995C7.56895 16.6033 7.78538 15.9064 8.00031 15.2085C8.21524 15.9064 8.43167 16.6033 8.64972 17.2995L8.86934 18.0006L11.9537 18.0004C11.1588 18.5714 10.5485 19.0021 10.0413 19.354L9.43276 19.7764L9.65945 20.4816C9.95065 21.3875 10.2449 22.2928 10.5424 23.198C9.7292 22.6155 9.10169 22.1657 8.58356 21.7936L8.00031 21.3748L7.41706 21.7936C6.89893 22.1657 6.27143 22.6155 5.45827 23.198C5.75575 22.2928 6.04997 21.3875 6.34117 20.4816L6.56786 19.7764L5.95929 19.354C5.45212 19.0021 4.84179 18.5714 4.04688 18.0004Z" fill="#0E8A26"/>
<path opacity="0.5" d="M11.8008 12.7C13.1008 11.8 14.2008 11 15.1008 10.3L15.7008 9.9L14.3008 5.5L18.0008 8.2L18.5008 7.7C19.2278 7.23736 19.9548 6.68736 20.7973 6.05C21.2295 5.72299 21.6922 5.37299 22.2008 5C22.0978 5.29165 21.9979 5.57447 21.9008 5.84896C21.4322 7.17448 21.0322 8.30587 20.7008 9.3L20.5008 10L24.2008 12.7H19.6008L19.4008 13.4C19.1406 14.1154 18.8805 14.9154 18.5928 15.8C18.4382 16.2755 18.2756 16.7755 18.1008 17.3C17.9595 16.9233 17.7961 16.4136 17.6001 15.8022C17.3798 15.1151 17.1183 14.2995 16.8008 13.4L16.6008 12.7H11.8008Z" fill="#0E8A26"/>
<path fill-rule="evenodd" clip-rule="evenodd" d="M22.5928 3.55353C22.8506 3.36655 23.1527 3.39914 23.3657 3.55416C23.5787 3.70918 23.7026 3.98666 23.604 4.28946L23.584 4.34714C22.8065 6.58809 22.2419 8.22426 21.7448 9.69189L25.7313 12.5925C26.2463 12.9673 25.9808 13.7821 25.3439 13.7816C23.5877 13.7802 21.9247 13.7769 20.3932 13.7727C19.9546 15.1256 19.4622 16.667 18.8173 18.6933C18.62 19.2989 17.7631 19.2982 17.5667 18.6923C17.5667 18.6923 16.9441 16.8147 15.9407 13.7567C12.7223 13.7423 10.7442 13.7271 10.7442 13.7271C10.1072 13.7266 9.84306 12.9114 10.3586 12.5374C12.0885 11.3007 13.4038 10.3582 14.5563 9.52482C14.0813 8.06883 13.5669 6.48734 13.0255 4.81672C12.8292 4.21081 13.5229 3.70765 14.0379 4.08243L18.0238 6.98384C19.2674 6.05957 20.6507 5.01915 22.544 3.59031L22.5928 3.55353ZM15.0991 10.3C14.1991 11 13.0991 11.8 11.7991 12.7H16.5991L16.7991 13.4C17.1166 14.2995 17.3781 15.115 17.5984 15.8021C17.7944 16.4136 17.9579 16.9233 18.0991 17.3C18.2739 16.7757 18.4365 16.2757 18.5911 15.8002C18.8787 14.9157 19.139 14.1154 19.3991 13.4L19.5991 12.7H24.1991L20.4991 10L20.6991 9.30002C21.0305 8.30589 21.4305 7.17449 21.8991 5.84898C21.9962 5.57448 22.0962 5.29167 22.1991 5.00002C21.6905 5.37301 21.2278 5.72301 20.7956 6.05001C19.9531 6.68738 19.2261 7.23738 18.4991 7.70002L17.9991 8.20002L14.2991 5.50002L15.6991 9.90002L15.0991 10.3Z" fill="#0E8A26"/>
</svg>
