<svg width="28" height="28" viewBox="0 0 28 28" fill="none" xmlns="http://www.w3.org/2000/svg">
<path d="M13.0489 2.69098C13.1986 2.23032 13.5993 2 14 2C14.4007 2 14.8014 2.23032 14.9511 2.69098L14.9781 2.77983C16.0276 6.23139 16.7976 8.74883 17.4998 10.9985L24.9981 10.9977C25.9668 10.9977 26.3696 12.2373 25.5859 12.8067C23.425 14.3767 21.377 15.8611 19.4899 17.2266C20.1612 19.2828 20.9352 21.6191 21.9557 24.688C22.2551 25.6093 21.2006 26.3755 20.4169 25.8061C20.4169 25.8061 17.9707 24.0543 14 21.1917C10.0293 24.0543 7.58312 25.8061 7.58312 25.8061C6.79941 26.3755 5.74493 25.6093 6.04428 24.688C7.06479 21.6191 7.83875 19.2828 8.51013 17.2266C6.62303 15.8611 4.575 14.3767 2.41413 12.8067C1.63042 12.2373 2.03319 10.9977 3.00192 10.9977L10 10.9984V11H11.5473C11.5163 11.0994 11.4855 11.1982 11.4548 11.2965L11.2357 11.9986L3.00195 11.9977C5.16225 13.5673 7.20974 15.0513 9.09637 16.4164L9.68709 16.8438L9.46078 17.537C8.78897 19.5945 8.01489 21.9311 6.9954 24.997L7.00091 24.993L7.44463 24.675C7.73581 24.4662 8.16546 24.1579 8.71919 23.7602C9.82665 22.9647 11.4304 21.8114 13.4152 20.3805L14 19.9589L14.5848 20.3805C16.5697 21.8114 18.1734 22.9647 19.2809 23.7602C19.8346 24.1579 20.2643 24.4662 20.5554 24.675L21.0047 24.997C19.9852 21.9311 19.2111 19.5945 18.5393 17.537L18.313 16.8438L18.9037 16.4164C20.7903 15.0513 22.8378 13.5673 24.9981 11.9977L16.7644 11.9986L16.5453 11.2965C15.8418 9.04303 15.071 6.52257 14.0214 3.07075L14 3.00052L13.9787 3.07074C13.5349 4.53026 13.1409 5.82328 12.7808 7H11.735C12.1188 5.74665 12.541 4.36129 13.0219 2.77983L13.0489 2.69098Z" fill="black" fill-opacity="0.8"/>
<path d="M17 5.5C17 7.433 15.433 9 13.5 9C11.567 9 10 7.433 10 5.5C10 3.567 11.567 2 13.5 2C15.433 2 17 3.567 17 5.5Z" fill="#0E8A26"/>
<path d="M12 10.5C12 12.433 10.433 14 8.5 14C6.567 14 5 12.433 5 10.5C5 8.567 6.567 7 8.5 7C10.433 7 12 8.567 12 10.5Z" fill="#F23D3D"/>
</svg>
