<svg width="28" height="28" viewBox="0 0 28 28" fill="none" xmlns="http://www.w3.org/2000/svg">
<path fill-rule="evenodd" clip-rule="evenodd" d="M15.9387 2.2483C16.2275 1.96029 16.6162 1.94118 16.9166 2.09475C17.217 2.24832 17.4292 2.57459 17.3648 2.97734L17.3511 3.05431C16.8151 6.04439 16.4275 8.22694 16.0918 10.1828L21.714 13.056C22.4403 13.4273 22.2671 14.5111 21.4613 14.6376C19.2395 14.9865 17.135 15.3145 15.1968 15.615C14.9121 17.414 14.597 19.4623 14.1859 22.1544C14.0572 22.9599 12.973 23.1301 12.6036 22.4028C12.6036 22.4028 11.441 20.1519 9.56109 16.4838C5.48687 17.1082 2.98146 17.4841 2.98146 17.4841C2.17563 17.6107 1.67866 16.6321 2.25621 16.0561C4.19756 14.1462 5.67326 12.6912 6.96472 11.4069C6.07318 9.65986 5.10659 7.76198 4.08817 5.7567C3.71881 5.02941 4.4959 4.25438 5.2222 4.62566L10.8438 7.50008C12.2325 6.08252 13.7746 4.49014 15.8844 2.30456L15.9387 2.2483ZM10.1001 15.3999L10.4001 15.9999C11.8001 18.6999 12.8001 20.6999 13.2001 21.4999C13.6001 18.9999 13.9001 17.0999 14.1001 15.3999L14.2001 14.6999L14.9001 14.5999C16.7001 14.2999 18.6001 13.9999 20.7001 13.6999L14.9001 10.6999L15.0001 9.99992C15.1891 8.80345 15.4176 7.56733 15.6859 6.11675C15.8435 5.26394 16.015 4.33651 16.2001 3.29992C14.2001 5.29992 12.8001 6.79992 11.5001 8.19992L11.0001 8.69992L5.20014 5.69992C6.10014 7.59992 7.00014 9.29992 7.90014 10.9999L8.20014 11.5999L7.70012 12.0999C6.50013 13.2999 5.10013 14.6999 3.30014 16.3999C3.68929 16.3567 4.32149 16.2574 5.15632 16.1262C6.25222 15.954 7.69734 15.727 9.40014 15.4999L10.1001 15.3999Z" fill="#F23D3D"/>
<path d="M18.1523 18.3586C19.2638 19.4377 20.0023 20.3448 20.5137 21.4682C21.0242 22.5894 21.3254 23.9635 21.4989 25.9999H22.5071C22.8316 24.003 23.1738 22.6391 23.6648 21.6353C24.1499 20.6434 24.7876 19.9887 25.7506 19.4329L25.2507 18.5668C24.1281 19.2147 23.3452 20.0125 22.7665 21.1959C22.5011 21.7385 22.2806 22.3585 22.0871 23.0756C21.917 22.3227 21.7005 21.6616 21.4238 21.0539C20.8391 19.7694 20.0025 18.7612 18.849 17.6411L18.1523 18.3586Z" fill="#F23D3D"/>
<path opacity="0.5" d="M10.4008 15.9998L10.1008 15.3998L9.40078 15.4998C7.69797 15.7268 6.2529 15.9539 5.157 16.1261C4.32215 16.2572 3.68994 16.3566 3.30078 16.3998C5.10077 14.6998 6.50077 13.2998 7.70076 12.0998L8.20078 11.5998L7.90078 10.9998C7.00078 9.2998 6.10078 7.5998 5.20078 5.6998L11.0008 8.6998L11.5008 8.1998C12.8008 6.7998 14.2008 5.2998 16.2008 3.2998C16.0156 4.33659 15.8442 5.26369 15.6865 6.11664C15.4183 7.56722 15.1897 8.80334 15.0008 9.9998L14.9008 10.6998L20.7008 13.6998C18.6008 13.9998 16.7008 14.2998 14.9008 14.5998L14.2008 14.6998L14.1008 15.3998C13.9008 17.0998 13.6008 18.9998 13.2008 21.4998C12.8008 20.6998 11.8008 18.6998 10.4008 15.9998Z" fill="#F23D3D"/>
</svg>
