<svg width="28" height="28" viewBox="0 0 28 28" fill="none" xmlns="http://www.w3.org/2000/svg">
<path d="M11.6932 1.96774L14.8751 5.14972C15.0704 5.34498 15.0704 5.66156 14.8751 5.85682L11.6932 9.0388C11.4979 9.23407 11.1813 9.23407 10.986 9.0388C10.7908 8.84354 10.7908 8.52696 10.986 8.3317L13.3145 6.00327V5.99512H10.0078C8.35096 5.99512 7.00781 7.33826 7.00781 8.99512V12.9951H6.00781V8.99512C6.00781 6.78598 7.79867 4.99512 10.0078 4.99512H13.3063L10.986 2.67484C10.7908 2.47958 10.7908 2.163 10.986 1.96774C11.1813 1.77247 11.4979 1.77247 11.6932 1.96774Z" fill="#F23D3D"/>
<path fill-rule="evenodd" clip-rule="evenodd" d="M10 9C10.1346 9 10.2692 9.03899 10.3824 9.11696C10.4939 9.19373 10.5847 9.30828 10.6342 9.46062L10.6522 9.51985C11.2345 11.4348 11.8812 13.2304 12.5529 14.9986L17.3321 14.9981C17.9779 14.9981 18.2464 15.8244 17.7239 16.204C16.431 17.1433 15.1988 18.0366 14.0502 18.8679C14.7035 20.5579 15.3532 22.2837 15.9653 24.1244C16.1648 24.7385 15.4619 25.2492 14.9394 24.8697C12.565 23.1694 11.0212 22.0649 10 21.3344C8.97876 22.0649 7.43499 23.1694 5.06062 24.8697C4.53815 25.2492 3.83516 24.7385 4.03473 24.1244C4.64685 22.2837 5.29652 20.5579 5.94977 18.8679C4.80125 18.0366 3.56897 17.1433 2.27609 16.204C1.75361 15.8244 2.02213 14.9981 2.66794 14.9981L7.44714 14.9986C8.11877 13.2304 8.7655 11.4348 9.34783 9.51985L9.36584 9.46062C9.46563 9.15354 9.73287 9 10 9ZM3.69995 16L7.19995 18.5C6.79339 19.4486 6.43217 20.4159 6.07095 21.383C5.81907 22.0575 5.56719 22.7319 5.29995 23.4L9.99995 20L14.7 23.4C14.1474 21.7422 13.4884 20.1064 12.8 18.5L16.3 16H11.9C11.6458 15.2375 11.3449 14.5253 11.0454 13.8166C10.6603 12.9051 10.2776 11.9995 10 11C9.43742 12.6878 8.09995 16 8.09995 16H3.69995Z" fill="#F23D3D"/>
<path opacity="0.5" d="M7.19922 18.5L3.69922 16H8.09922C8.09922 16 9.43668 12.6878 9.99927 11C10.4928 12.7766 11.3182 14.2568 11.8992 16H16.2992L12.7992 18.5C13.4877 20.1064 14.1466 21.7422 14.6992 23.4L9.99922 20L5.29922 23.4C5.9497 21.7738 6.50915 20.1102 7.19922 18.5Z" fill="#F23D3D"/>
<path fill-rule="evenodd" clip-rule="evenodd" d="M23.2641 4.21573C23.4633 4.07801 23.6925 4.10802 23.8517 4.22954C24.011 4.35106 24.1007 4.56433 24.0205 4.79283C23.5749 5.98938 23.135 7.18554 22.7005 8.38279L25.7977 10.7452C26.1828 11.039 25.967 11.6539 25.4828 11.6426C23.6863 11.6005 22.4917 11.5594 21.5757 11.5182C21.0878 12.8944 20.6065 14.2738 20.1312 15.6585C19.9708 16.1155 19.3193 16.1002 19.1804 15.6362C18.6543 13.9211 18.2976 12.7575 18.0256 11.8666C17.0945 11.8397 15.878 11.8031 14.0849 11.7488C13.6006 11.7375 13.4138 11.1132 13.8122 10.8377C15.0221 10.0135 16.2252 9.18481 17.4237 8.35062C17.1419 7.4781 16.7866 6.3368 16.2714 4.61525C16.1325 4.15124 16.6686 3.78064 17.0536 4.07443L20.1504 6.43738C21.1903 5.70195 22.2278 4.96165 23.2641 4.21573ZM15.5996 10.7999L18.6996 10.8999L19.5996 13.8999L20.4996 11.1999L20.6996 10.4999H21.3996C21.6693 10.4999 21.9794 10.5201 22.3208 10.5424C22.739 10.5696 23.2041 10.5999 23.6996 10.5999L21.1996 8.69991L22.4996 5.99991C21.8996 6.39991 21.2996 6.79992 20.6996 7.29992L20.0996 7.69991L17.5996 5.79991C17.8516 6.36699 18.0243 6.89436 18.1675 7.332C18.2516 7.58894 18.3256 7.81495 18.3996 7.99992L18.5996 8.69991L17.9996 9.19991C17.5996 9.44991 17.1996 9.72491 16.7996 9.99991C16.3996 10.2749 15.9996 10.5499 15.5996 10.7999Z" fill="#F23D3D"/>
<path opacity="0.5" d="M18.6996 10.8998L15.5996 10.7998C15.9996 10.5498 16.3996 10.2748 16.7996 9.9998C17.1996 9.7248 17.5996 9.4498 17.9996 9.1998L18.5996 8.6998L18.3996 7.9998C18.3256 7.81484 18.2516 7.58883 18.1675 7.33189C18.0243 6.89425 17.8516 6.36688 17.5996 5.7998L20.0996 7.6998L20.6996 7.29981C21.2996 6.79981 21.8996 6.3998 22.4996 5.9998L21.1996 8.6998L23.6996 10.5998C23.2042 10.5998 22.739 10.5695 22.3208 10.5423C21.9794 10.52 21.6693 10.4998 21.3996 10.4998H20.6996L20.4996 11.1998L19.5996 13.8998L18.6996 10.8998Z" fill="#F23D3D"/>
</svg>
