<svg width="28" height="28" viewBox="0 0 28 28" fill="none" xmlns="http://www.w3.org/2000/svg">
<g opacity="0.5">
<path d="M11.222 8.67013C10.3939 8.0724 9.48419 7.41567 8.48452 6.69381C7.69915 6.1267 6.64691 6.8959 6.94895 7.81634L7.99346 10.9983L10.5002 10.9986C10.731 10.2592 10.9691 9.49096 11.222 8.67013Z" fill="#FF8E00"/>
<path d="M6.73284 15.9399C5.97231 16.4863 5.14498 17.0806 4.24468 17.7273C3.45787 18.2924 3.85385 19.5342 4.82256 19.5395L7.74576 19.5552C8.01797 18.7296 8.27058 17.9603 8.51013 17.2266C7.93233 16.8085 7.33944 16.3793 6.73284 15.9399Z" fill="#FF8E00"/>
<path d="M12.193 22.4936C12.4496 23.3385 12.7253 24.2457 13.0216 25.2202L13.0486 25.3091C13.1983 25.7697 13.599 26.0001 13.9997 26.0001C14.4004 26.0001 14.8017 25.7697 14.9514 25.3091L14.9784 25.2202C15.2747 24.2457 15.5504 23.3385 15.807 22.4936C15.2473 22.0907 14.6437 21.6558 14 21.1917C13.3563 21.6558 12.7527 22.0907 12.193 22.4936Z" fill="#FF8E00"/>
<path d="M20.2542 19.5552L23.1774 19.5395C24.1461 19.5342 24.5421 18.2924 23.7553 17.7273C22.855 17.0806 22.0277 16.4863 21.2672 15.9399C20.6606 16.3793 20.0677 16.8085 19.4899 17.2266C19.7294 17.9603 19.982 18.7296 20.2542 19.5552Z" fill="#FF8E00"/>
<path d="M20.0065 10.9983L17.4998 10.9986C17.269 10.2592 17.0309 9.49096 16.778 8.67013C17.6061 8.0724 18.5158 7.41567 19.5155 6.69381C20.3008 6.1267 21.3531 6.8959 21.051 7.81634L20.0065 10.9983Z" fill="#FF8E00"/>
</g>
<path fill-rule="evenodd" clip-rule="evenodd" d="M13.0489 2.69098C13.1986 2.23032 13.5993 2 14 2C14.4007 2 14.8014 2.23032 14.9511 2.69098L14.9781 2.77983C16.0276 6.23139 16.7976 8.74883 17.4998 10.9985L24.9981 10.9977C25.9668 10.9977 26.3696 12.2373 25.5859 12.8067C23.425 14.3767 21.377 15.8611 19.4899 17.2266C20.1612 19.2828 20.9352 21.6191 21.9557 24.688C22.2551 25.6093 21.2006 26.3755 20.4169 25.8061C20.4169 25.8061 17.9707 24.0543 14 21.1917C10.0293 24.0543 7.58312 25.8061 7.58312 25.8061C6.79941 26.3755 5.74493 25.6093 6.04428 24.688C7.06479 21.6191 7.83875 19.2828 8.51013 17.2266C6.62303 15.8611 4.575 14.3767 2.41413 12.8067C1.63042 12.2373 2.03319 10.9977 3.00192 10.9977L10.5002 10.9985C11.2024 8.74883 11.9724 6.23139 13.0219 2.77983L13.0489 2.69098ZM14 3.00052L13.9787 3.07074C12.9291 6.52256 12.1582 9.04303 11.4548 11.2965L11.2357 11.9986L3.00195 11.9977C5.16225 13.5673 7.20974 15.0513 9.09637 16.4164L9.68709 16.8438L9.46078 17.537C8.78897 19.5945 8.01489 21.9311 6.9954 24.997L7.00091 24.993L7.44463 24.675C7.73581 24.4662 8.16546 24.1579 8.71919 23.7602C9.82665 22.9647 11.4304 21.8114 13.4152 20.3805L14 19.9589L14.5848 20.3805C16.5697 21.8114 18.1734 22.9647 19.2809 23.7602C19.8346 24.1579 20.2643 24.4662 20.5554 24.675L21.0047 24.997C19.9852 21.9311 19.2111 19.5945 18.5393 17.537L18.313 16.8438L18.9037 16.4164C20.7903 15.0513 22.8378 13.5673 24.9981 11.9977L16.7644 11.9986L16.5453 11.2965C15.8418 9.04303 15.071 6.52257 14.0214 3.07075L14 3.00052Z" fill="#FF8E00"/>
<path d="M13.9787 3.07052L14 3.0003L14.0214 3.07053C15.071 6.52235 15.8418 9.0428 16.5453 11.2962L16.7644 11.9983L24.9981 11.9975C22.8378 13.567 20.7903 15.0511 18.9037 16.4162L18.313 16.8436L18.5393 17.5367C19.2111 19.5943 19.9852 21.9309 21.0047 24.9968L20.9987 24.9925L20.5554 24.6748C20.2643 24.4659 19.8346 24.1577 19.2809 23.7599C18.1734 22.9645 16.5697 21.8112 14.5848 20.3803L14 19.9587L13.4152 20.3803C11.4304 21.8112 9.82665 22.9645 8.71919 23.7599C8.16546 24.1577 7.73581 24.4659 7.44463 24.6748L7.00091 24.9928L6.9954 24.9968C8.01489 21.9309 8.78897 19.5943 9.46078 17.5367L9.68709 16.8436L9.09637 16.4162C7.20974 15.0511 5.16225 13.567 3.00195 11.9975L11.2357 11.9983L11.4548 11.2962C12.1582 9.0428 12.9291 6.52233 13.9787 3.07052Z" fill="url(#paint0_radial_6428_64139)"/>
<defs>
<radialGradient id="paint0_radial_6428_64139" cx="0" cy="0" r="1" gradientUnits="userSpaceOnUse" gradientTransform="translate(14 15.9998) rotate(-90) scale(6 9.0035)">
<stop stop-color="#FF8E00" stop-opacity="0.03"/>
<stop offset="0.336803" stop-color="#FF8E00" stop-opacity="0.17"/>
<stop offset="0.665098" stop-color="#FF8E00" stop-opacity="0.33"/>
<stop offset="1" stop-color="#FF8E00" stop-opacity="0.5"/>
</radialGradient>
</defs>
</svg>
