<svg width="28" height="28" viewBox="0 0 28 28" fill="none" xmlns="http://www.w3.org/2000/svg">
<path opacity="0.5" fill-rule="evenodd" clip-rule="evenodd" d="M16.7644 11.9985C15.8295 9.00335 14.9128 6.00248 14 3.00049C13.0872 6.00249 12.1706 9.00335 11.2357 11.9985L3.00195 11.9977C5.2286 13.6154 7.45729 15.2304 9.68709 16.8438C8.79876 19.5645 7.89848 22.2812 6.9954 24.997L7.00091 24.993C9.33674 23.3188 11.6689 21.6395 14 19.9589C16.3311 21.6394 18.6631 23.3185 20.9987 24.9927L21.0047 24.9969C20.1016 22.2812 19.2013 19.5645 18.313 16.8438C20.5428 15.2304 22.7715 13.6154 24.9981 11.9977L16.7644 11.9985ZM13.995 8.16003L13.9835 8.19783C13.4959 9.80112 13.0063 11.4037 12.507 13.0034L8.07495 13.0029C9.2735 13.8737 10.4731 14.743 11.6734 15.6114C11.1952 17.0759 10.7106 18.5382 10.2245 20L10.2275 19.9979C11.4848 19.0967 12.7401 18.1928 13.995 17.2882C15.2497 18.1927 16.505 19.0966 17.7622 19.9977L17.7654 20C17.2793 18.5382 16.7947 17.0759 16.3165 15.6114C17.5168 14.743 18.7164 13.8737 19.915 13.0029L15.4829 13.0034C14.9836 11.4037 14.494 9.80112 14.0064 8.19784L13.995 8.16003Z" fill="#F23D3D"/>
<path fill-rule="evenodd" clip-rule="evenodd" d="M14 2C13.5993 2 13.1986 2.23032 13.0489 2.69098L13.0219 2.77983C11.9724 6.23139 11.2024 8.74883 10.5002 10.9985L3.00192 10.9977C2.03319 10.9977 1.63042 12.2373 2.41413 12.8067C4.575 14.3767 6.62303 15.8611 8.51013 17.2266C7.83875 19.2828 7.06479 21.6191 6.04428 24.688C5.74493 25.6093 6.79941 26.3755 7.58312 25.8061C7.58312 25.8061 10.0293 24.0543 14 21.1917C17.9707 24.0543 20.4169 25.8061 20.4169 25.8061C21.2006 26.3755 22.2551 25.6093 21.9557 24.688C20.9352 21.6191 20.1612 19.2828 19.4899 17.2266C21.377 15.8611 23.425 14.3767 25.5859 12.8067C26.3696 12.2373 25.9668 10.9977 24.9981 10.9977L17.4998 10.9985C16.7976 8.74883 16.0276 6.23139 14.9781 2.77983L14.9511 2.69098C14.8014 2.23032 14.4007 2 14 2ZM16.7644 11.9985C15.8295 9.00335 14.9128 6.00248 14 3.00049C13.0872 6.00249 12.1706 9.00335 11.2357 11.9985L3.00195 11.9977C5.2286 13.6154 7.45729 15.2304 9.68709 16.8438C8.79876 19.5645 7.89848 22.2812 6.9954 24.997L7.00091 24.993C9.33674 23.3188 11.6689 21.6395 14 19.9589C16.3311 21.6394 18.6631 23.3185 20.9987 24.9927L21.0047 24.9969C20.1016 22.2812 19.2013 19.5645 18.313 16.8438C20.5428 15.2304 22.7715 13.6154 24.9981 11.9977L16.7644 11.9985Z" fill="#F23D3D"/>
<path opacity="0.25" d="M13.9827 8.19795L13.9942 8.16016L14.0057 8.19796C14.4932 9.80124 14.9829 11.4039 15.4822 13.0035L19.9142 13.0031C18.7157 13.8738 17.516 14.7431 16.3158 15.6116C16.7939 17.076 17.2785 18.5383 17.7646 20.0001L17.7614 19.9978C16.5042 19.0967 15.249 18.1929 13.9942 17.2883C12.7394 18.1929 11.4841 19.0969 10.2268 19.998L10.2238 20.0002C10.7099 18.5383 11.1945 17.076 11.6727 15.6116C10.4724 14.7431 9.27277 13.8738 8.07422 13.0031L12.5062 13.0035C13.0056 11.4039 13.4952 9.80124 13.9827 8.19795Z" fill="#F23D3D"/>
<path fill-rule="evenodd" clip-rule="evenodd" d="M21.9557 24.688C22.2551 25.6093 21.2006 26.3755 20.4169 25.8061C20.4169 25.8061 17.9707 24.0543 14 21.1917C10.0293 24.0543 7.58312 25.8061 7.58312 25.8061C6.79941 26.3755 5.74493 25.6093 6.04428 24.688C7.06479 21.6191 7.83875 19.2828 8.51013 17.2266C6.62303 15.8611 4.575 14.3767 2.41413 12.8067C1.63042 12.2373 2.03319 10.9977 3.00192 10.9977L10.5002 10.9985C11.2024 8.74883 11.9724 6.23139 13.0219 2.77983L13.0489 2.69098C13.1986 2.23032 13.5993 2 14 2C14.4007 2 14.8014 2.23032 14.9511 2.69098L14.9781 2.77983C16.0276 6.23139 16.7976 8.74883 17.4998 10.9985L24.9981 10.9977C25.9668 10.9977 26.3696 12.2373 25.5859 12.8067C23.425 14.3767 21.377 15.8611 19.4899 17.2266C20.1612 19.2828 20.9352 21.6191 21.9557 24.688ZM14 3.00052C14.9128 6.00252 15.8294 9.00338 16.7644 11.9986L24.9981 11.9977C22.7714 13.6155 20.5427 15.2304 18.3129 16.8438C19.2013 19.5645 20.1015 22.2812 21.0046 24.997C20.4298 24.585 19.8552 24.1727 19.2808 23.7602C17.5193 22.4949 15.7594 21.2273 14 19.9589C11.6688 21.6395 9.3367 23.3188 7.00088 24.993L6.99537 24.997C7.89844 22.2812 8.79873 19.5645 9.68706 16.8438C7.45725 15.2304 5.22857 13.6155 3.00192 11.9977L11.2356 11.9986C12.1706 9.00338 13.0872 6.00252 14 3.00052Z" fill="#F23D3D"/>
<path d="M4.99925 18.7079L5.00521 18.7139L5 20.5157C5.00829 20.7846 5.22887 21 5.49976 21C5.77065 21 5.99122 20.7846 5.99952 20.5157L6 17.502C6 17.2247 5.77731 17 5.5026 17L2.4843 17.0057C2.21542 17.014 2 17.2346 2 17.5055C2 17.7764 2.21542 17.997 2.4843 18.0053L4.28893 18.004L2.01025 20.2826L2.71736 20.9897L4.99925 18.7079Z" fill="#F23D3D"/>
<path d="M19.0008 7.29214L18.9948 7.28613L19 5.4843C18.9917 5.21542 18.7711 5 18.5002 5C18.2294 5 18.0088 5.21542 18.0005 5.4843L18 8.49802C18 8.77526 18.2227 9 18.4974 9L21.5157 8.99426C21.7846 8.98597 22 8.76539 22 8.4945C22 8.22362 21.7846 8.00304 21.5157 7.99475L19.7111 7.99604L21.9897 5.71736L21.2826 5.01025L19.0008 7.29214Z" fill="#F23D3D"/>
</svg>
