<svg width="28" height="28" viewBox="0 0 28 28" fill="none" xmlns="http://www.w3.org/2000/svg">
<path d="M14 2C13.5993 2 13.1986 2.23032 13.0489 2.69098L13.0219 2.77983C12.7772 3.5846 12.5477 4.33858 12.3307 5.05023L12.346 5H13.3913C13.5874 4.35701 13.7831 3.71391 13.9787 3.07076L14 3.00054L14.0214 3.07077C14.217 3.71392 14.4127 4.35701 14.6088 5H15.654C15.4415 4.30312 15.2171 3.56569 14.9781 2.77983L14.9511 2.69098C14.8014 2.23032 14.4007 2 14 2Z" fill="#F23D3D"/>
<path d="M10.5002 10.9985C10.6515 10.5137 10.806 10.0164 10.9658 9.5C11.2993 8.42206 11.6557 7.26084 12.0544 5.9557L12.0408 6H13.086C12.7804 7.00035 12.4737 8.00041 12.1656 9H11.1203C11.0682 9.16875 11.0167 9.33535 10.9658 9.5C10.9136 9.66863 10.862 9.83522 10.8109 10H11.8567C11.6505 10.6664 11.4435 11.3327 11.2357 11.9986L3.00195 11.9977C3.46194 12.3319 3.92202 12.666 4.38218 13H2.68018C3.14479 13.3375 3.60405 13.6709 4.05747 14H5.76066C7.06896 14.9487 8.37783 15.8965 9.68709 16.8438L9.63609 17H8.19705L8.51013 17.2266C6.62303 15.8611 4.575 14.3767 2.41413 12.8067C1.63042 12.2373 2.03319 10.9977 3.00192 10.9977L10.5002 10.9985Z" fill="#F23D3D"/>
<path d="M9.30883 18H8.25711C8.34319 17.7374 8.42743 17.4798 8.51013 17.2266C7.83875 19.2828 7.06479 21.6191 6.04428 24.688C5.74493 25.6093 6.79941 26.3755 7.58312 25.8061C7.58312 25.8061 10.0293 24.0543 14 21.1917C17.9707 24.0543 20.4169 25.8061 20.4169 25.8061C21.2006 26.3755 22.2551 25.6093 21.9557 24.688C21.3639 22.9084 20.8551 21.3751 20.4011 20H19.3489C19.8983 21.6665 20.451 23.3319 21.0047 24.997L20.9987 24.9927C18.6821 23.3322 16.3691 21.6668 14.057 20H13.943C11.6308 21.6669 9.3177 23.3325 7.00091 24.993L6.9954 24.997C7.5491 23.3319 8.10174 21.6665 8.65121 20H7.59897C7.71212 19.6573 7.82187 19.3244 7.92864 19H8.9805C9.09009 18.6667 9.19954 18.3334 9.30883 18Z" fill="#F23D3D"/>
<path d="M18.6912 18C18.8005 18.3334 18.91 18.6667 19.0196 19H20.0714C19.9588 18.6578 19.8494 18.325 19.7429 18H18.6912Z" fill="#F23D3D"/>
<path d="M18.364 17H19.803C21.1132 16.0518 22.4982 15.0482 23.9426 14H22.2394C20.9311 14.9487 19.6222 15.8965 18.313 16.8438L18.364 17Z" fill="#F23D3D"/>
<path d="M23.6179 13H25.3199L25.5859 12.8067C26.3696 12.2373 25.9668 10.9977 24.9981 10.9977L17.4998 10.9985C17.3979 10.672 17.2945 10.3398 17.1891 10H16.1434C16.3496 10.6664 16.5565 11.3327 16.7644 11.9986L24.9981 11.9977C24.5381 12.3319 24.078 12.666 23.6179 13Z" fill="#F23D3D"/>
<path d="M15.8345 9H16.8797C16.5947 8.07647 16.2916 7.08829 15.9592 6H14.914C15.2197 7.00035 15.5264 8.00041 15.8345 9Z" fill="#F23D3D"/>
<g opacity="0.5">
<path d="M14 3.00049L13.9787 3.07071C13.7831 3.71386 13.5874 4.35695 13.3913 4.99994H14.6088C14.4127 4.35696 14.217 3.71387 14.0214 3.07072L14 3.00049Z" fill="#F23D3D"/>
<path d="M14.914 5.99994H13.086C12.7804 7.0003 12.4737 8.00035 12.1656 8.99994H15.8345C15.5264 8.00035 15.2197 7.0003 14.914 5.99994Z" fill="#F23D3D"/>
<path d="M16.1434 9.99994H11.8567C11.6505 10.6664 11.4435 11.3326 11.2357 11.9985L3.00195 11.9977C3.46194 12.3319 3.92202 12.666 4.38218 12.9999H23.6179C24.078 12.666 24.5381 12.3319 24.9981 11.9977L16.7644 11.9985C16.5565 11.3326 16.3496 10.6664 16.1434 9.99994Z" fill="#F23D3D"/>
<path d="M22.2394 13.9999H5.76066C7.06896 14.9486 8.37783 15.8965 9.68709 16.8438C9.6701 16.8958 9.6531 16.9479 9.63609 16.9999H18.364C18.347 16.9479 18.33 16.8958 18.313 16.8438C19.6222 15.8965 20.9311 14.9486 22.2394 13.9999Z" fill="#F23D3D"/>
<path d="M18.6912 17.9999H9.30883C9.19954 18.3333 9.09009 18.6667 8.9805 18.9999H19.0196C18.91 18.6667 18.8005 18.3333 18.6912 17.9999Z" fill="#F23D3D"/>
<path d="M19.3489 19.9999H14.057C16.3691 21.6667 18.6821 23.3322 20.9987 24.9927L21.0047 24.9969C20.451 23.3319 19.8983 21.6664 19.3489 19.9999Z" fill="#F23D3D"/>
<path d="M13.943 19.9999H8.65121C8.10174 21.6664 7.5491 23.3319 6.9954 24.997L7.00091 24.993C9.3177 23.3325 11.6308 21.6669 13.943 19.9999Z" fill="#F23D3D"/>
</g>
<g opacity="0.03">
<path d="M12.0403 6C12.1394 5.67586 12.241 5.34284 12.3455 5H15.6535C15.7581 5.34284 15.8597 5.67586 15.9587 6H12.0403Z" fill="#F23D3D"/>
<path d="M10.8104 10C10.9114 9.67432 11.0144 9.34158 11.1198 9H16.8793C16.9847 9.34158 17.0876 9.67432 17.1886 10H10.8104Z" fill="#F23D3D"/>
<path d="M4.05698 14C3.60356 13.6709 3.1443 13.3375 2.67969 13H25.3194C24.8547 13.3375 24.3955 13.6709 23.9421 14H4.05698Z" fill="#F23D3D"/>
<path d="M8.25662 18C8.3427 17.7374 8.42696 17.4798 8.50966 17.2266C8.40578 17.1514 8.30141 17.0759 8.19656 17H19.8025C19.6976 17.0759 19.5933 17.1514 19.4894 17.2266C19.5721 17.4798 19.6563 17.7374 19.7424 18H8.25662Z" fill="#F23D3D"/>
<path d="M7.59848 20C7.71163 19.6573 7.82138 19.3244 7.92815 19H20.0709C20.1777 19.3244 20.2874 19.6573 20.4006 20H7.59848Z" fill="#F23D3D"/>
</g>
</svg>
