<svg width="28" height="28" viewBox="0 0 28 28" fill="none" xmlns="http://www.w3.org/2000/svg">
<path fill-rule="evenodd" clip-rule="evenodd" d="M17.3659 3.46065C17.4657 3.15355 17.7329 3 18 3C18.2671 3 18.5343 3.15355 18.6341 3.46065C19.1958 5.30817 19.7578 7.15567 20.3332 8.999L25.3321 8.99848C25.9779 8.99848 26.2464 9.82489 25.7239 10.2045C24.2833 11.2511 22.918 12.2407 21.6599 13.151C22.1075 14.5219 22.6235 16.0794 23.3038 18.1253C23.5034 18.7396 22.8004 19.2503 22.2779 18.8707C22.2779 18.8707 20.6471 17.7029 18 15.7944C15.3529 17.7029 13.7221 18.8707 13.7221 18.8707C13.1996 19.2503 12.4966 18.7396 12.6962 18.1253C13.3765 16.0794 13.8925 14.5219 14.3401 13.151C13.082 12.2407 11.7167 11.2511 10.2761 10.2045C9.75361 9.82489 10.0221 8.99848 10.6679 8.99848L15.6668 8.999C16.2422 7.15567 16.8042 5.30817 17.3659 3.46065ZM16.4 10H11.7C12.7999 10.8 13.9 11.6 14.9 12.3L15.5 12.7L15.3 13.4C14.9369 14.3983 14.5739 15.5613 14.1362 16.9638L14 17.4C14.4068 17.1094 14.9824 16.6838 15.6877 16.1623C16.196 15.7864 16.7718 15.3606 17.4 14.9L18 14.5L18.6 14.9C19.228 15.3606 19.8035 15.7861 20.3117 16.1619C21.017 16.6834 21.5931 17.1094 22 17.4L21.8637 16.9638C21.426 15.5613 21.063 14.3983 20.7 13.4L20.5 12.7L21.1 12.3C22.1 11.6 23.2 10.8 24.3 10H19.6L19.4 9.3C19.15 8.55006 18.925 7.80012 18.7 7.05017C18.475 6.30023 18.2499 5.54995 18 4.8C17.75 5.55 17.525 6.3 17.3 7.05C17.075 7.8 16.85 8.55 16.6 9.3L16.4 10Z" fill="#FF8E00"/>
<path opacity="0.5" d="M6.5 18.8002L4 17.0002H7.1L8 14.2002L8.88055 17.0002H10.8789L10.6 17.9002L9.4 18.8002L10.5 22.2002L8 20.4002L5.4 22.2002L6.5 18.8002Z" fill="#FF8E00"/>
<path fill-rule="evenodd" clip-rule="evenodd" d="M9.59473 16H12.3445L11.4736 18.5899L10.6121 19.216L11.974 23.3433C12.1236 23.8039 11.5964 24.1869 11.2045 23.9022L8 21.598L4.79547 23.9022C4.40361 24.1869 3.87637 23.8039 4.02605 23.3433L5.38793 19.216L2.20707 16.9044C1.81521 16.6198 2.0166 16 2.50096 16H6.40527L7.52437 12.3455C7.5992 12.1152 7.79956 12 7.99991 12C8.20025 12 8.4008 12.1152 8.47563 12.3455L9.59473 16ZM4 17L6.5 18.8L5.4 22.2L8 20.4L10.5 22.2L9.4 18.8L10.6 17.9L10.8789 17H8.88055L8 14.2L7.1 17H4Z" fill="#FF8E00"/>
<path opacity="0.5" d="M11.6992 9.9998H16.3992L16.5992 9.2998C16.8492 8.5498 17.0742 7.7998 17.2992 7.0498C17.5242 6.2998 17.7492 5.5498 17.9992 4.7998C18.2492 5.5498 18.4742 6.2998 18.6992 7.0498C18.9242 7.7998 19.1492 8.5498 19.3992 9.2998L19.5992 9.9998H24.2992C23.1992 10.7998 22.0992 11.5998 21.0992 12.2998L20.4992 12.6998L20.6992 13.3998C21.0622 14.3981 21.4252 15.5611 21.863 16.9636C21.9076 17.1065 21.953 17.2519 21.9992 17.3998C21.5924 17.1092 21.0167 16.6836 20.3114 16.162C19.8031 15.7862 19.2275 15.3605 18.5992 14.8998L17.9992 14.4998L17.3992 14.8998C16.7709 15.3605 16.1953 15.7862 15.687 16.1621C14.9817 16.6836 14.406 17.1092 13.9992 17.3998C14.0454 17.2519 14.0908 17.1065 14.1354 16.9636C14.5732 15.5611 14.9362 14.3981 15.2992 13.3998L15.4992 12.6998L14.8992 12.2998C13.8992 11.5998 12.7992 10.7998 11.6992 9.9998Z" fill="#FF8E00"/>
</svg>
