<svg width="28" height="28" viewBox="0 0 28 28" fill="none" xmlns="http://www.w3.org/2000/svg">
<path fill-rule="evenodd" clip-rule="evenodd" d="M15.5 10.2454C14.6304 7.14957 12.7186 5 10.5 5C7.46243 5 5 9.02944 5 14C5 18.9706 7.46243 23 10.5 23C12.7186 23 14.6304 20.8504 15.5 17.7546C16.3696 20.8504 18.2814 23 20.5 23C23.5376 23 26 18.9706 26 14C26 9.02944 23.5376 5 20.5 5C18.2814 5 16.3696 7.14957 15.5 10.2454ZM15 14C15 16.3319 14.4203 18.3951 13.5358 19.8425C12.6408 21.3071 11.5386 22 10.5 22C9.46141 22 8.35921 21.3071 7.46419 19.8425C6.57966 18.3951 6 16.3319 6 14C6 11.6681 6.57966 9.60491 7.46419 8.15749C8.35921 6.69291 9.46141 6 10.5 6C11.5386 6 12.6408 6.69291 13.5358 8.15749C14.4203 9.60491 15 11.6681 15 14ZM16 14C16 16.3319 16.5797 18.3951 17.4642 19.8425C18.3592 21.3071 19.4614 22 20.5 22C21.5386 22 22.6408 21.3071 23.5358 19.8425C24.4203 18.3951 25 16.3319 25 14C25 11.6681 24.4203 9.60491 23.5358 8.15749C22.6408 6.69291 21.5386 6 20.5 6C19.4614 6 18.3592 6.69291 17.4642 8.15749C16.5797 9.60491 16 11.6681 16 14Z" fill="black" fill-opacity="0.8"/>
<circle cx="5.5" cy="14.5" r="3.5" fill="#0E8A26"/>
</svg>
