<svg width="28" height="28" viewBox="0 0 28 28" fill="none" xmlns="http://www.w3.org/2000/svg">
    <path d="M12 17h10v4H12zm1 1v2h8v-2zm-1-3v1h7v-1zm0-1h10v-1H12z" fill="#000"/>
    <path d="M9 11a1 1 0 0 1 1-1h14a1 1 0 0 1 1 1v12a1 1 0 0 1-1 1H10a1 1 0 0 1-1-1zm1 0v12h14V11z" fill="#000"/>
    <path d="M21 4v1h1v1h1V4zM4 7V5h1V4H3v3zm18 0h1v2h-1zM3 8h1v2H3zm0 3h1v2H3zm1 3H3v2h1zm-1 3h1v2H3zm1 3H3v2h2v-1H4zm7-16H9v1h2zm1 0h2v1h-2zm5 0h-2v1h2zm1 0h2v1h-2zM8 4H6v1h2zM6 21h2v1H6z" opacity=".4" fill="#000"/>
</svg>
