<svg width="28" height="28" viewBox="0 0 28 28" fill="none" xmlns="http://www.w3.org/2000/svg">
    <path d="M25 13a1 1 0 0 0-1-1H10a1 1 0 0 0-1 1v10a1 1 0 0 0 1 1h14a1 1 0 0 0 1-1zm-5 10v-2h4v2zm0-3v-2h4v2zm-1 0h-4v-2h4zm-4 1h4v2h-4zm-1-1h-4v-2h4zm-4 1h4v2h-4zm10-4v-2h4v2zm-1-2v2h-4v-2zm-5 0v2h-4v-2z" fill="#000"/>
    <path d="M21 4v1h1v2h1V4zM4 7V5h1V4H3v3zM3 8h1v2H3zm19 0h1v3h-1zM3 11h1v2H3zm1 3H3v2h1zm-1 3h1v2H3zm1 3H3v2h2v-1H4zm7-16H9v1h2zm1 0h2v1h-2zm5 0h-2v1h2zm1 0h2v1h-2zM8 4H6v1h2zM6 21h2v1H6z" opacity=".4" fill="#000"/>
</svg>
