<svg width="28" height="28" viewBox="0 0 28 28" fill="none" xmlns="http://www.w3.org/2000/svg">
<mask id="mask0_6428_65583" style="mask-type:alpha" maskUnits="userSpaceOnUse" x="15" y="6" width="10" height="17">
<path fill-rule="evenodd" clip-rule="evenodd" d="M25 6H15V13L18.636 13L17.3431 11.7071L19.4645 9.58578L24.4142 14.5355L19.4645 19.4853L17.3431 17.364L18.7071 16H15V23H25V6ZM15 15H21.1213L18.7574 17.364L19.4645 18.0711L23 14.5355L19.4645 11L18.7574 11.7071L21.0503 14L15 14V15Z" fill="url(#paint0_linear_6428_65583)"/>
</mask>
<g mask="url(#mask0_6428_65583)">
<rect x="14" y="6" width="11" height="17" fill="black"/>
</g>
<mask id="mask1_6428_65583" style="mask-type:alpha" maskUnits="userSpaceOnUse" x="4" y="6" width="11" height="17">
<path fill-rule="evenodd" clip-rule="evenodd" d="M15 6H4V23H15V6ZM10.364 13L11.6569 11.7071L9.53553 9.58578L4.58578 14.5355L9.53553 19.4853L11.6569 17.364L10.2929 16H15V13L10.364 13ZM14 15H7.87868L10.2426 17.364L9.53553 18.0711L6 14.5355L9.53553 11L10.2426 11.7071L7.94975 14L14 14V15Z" fill="url(#paint1_linear_6428_65583)"/>
</mask>
<g mask="url(#mask1_6428_65583)">
<rect x="4" y="6" width="11" height="17" fill="black"/>
</g>
<path fill-rule="evenodd" clip-rule="evenodd" d="M25 6H4L4 23H25V6ZM4 5C3.44772 5 3 5.44771 3 6V23C3 23.5523 3.44772 24 4 24H25C25.5523 24 26 23.5523 26 23V6C26 5.44772 25.5523 5 25 5H4Z" fill="black"/>
<path fill-rule="evenodd" clip-rule="evenodd" d="M9.53553 11L10.2426 11.7071L7.94975 14L14 14V15L7.87868 15L10.2426 17.364L9.53553 18.0711L6.70711 15.2426L6 14.5355L6.70711 13.8284L9.53553 11Z" fill="black"/>
<path fill-rule="evenodd" clip-rule="evenodd" d="M19.4645 11L18.7574 11.7071L21.0503 14L15 14V15L21.1213 15L18.7574 17.364L19.4645 18.0711L22.2929 15.2426L23 14.5355L22.2929 13.8284L19.4645 11Z" fill="black"/>
<defs>
<linearGradient id="paint0_linear_6428_65583" x1="15" y1="14.5" x2="24" y2="14.5" gradientUnits="userSpaceOnUse">
<stop stop-opacity="0.4"/>
<stop offset="1" stop-color="#B4B4B4" stop-opacity="0"/>
<stop offset="1" stop-color="#CBCBCB" stop-opacity="0"/>
</linearGradient>
<linearGradient id="paint1_linear_6428_65583" x1="15" y1="14.5" x2="5" y2="14.5" gradientUnits="userSpaceOnUse">
<stop stop-opacity="0.4"/>
<stop offset="1" stop-color="#CBCBCB" stop-opacity="0"/>
</linearGradient>
</defs>
</svg>
