<svg width="28" height="28" viewBox="0 0 28 28" fill="none" xmlns="http://www.w3.org/2000/svg">
  <path fill-rule="evenodd" clip-rule="evenodd" d="M25 5H4v17h21V5ZM4 4a1 1 0 0 0-1 1v17a1 1 0 0 0 1 1h21a1 1 0 0 0 1-1V5a1 1 0 0 0-1-1H4Z" fill="var(--icon-normal)"/>
  <path fill-rule="evenodd" clip-rule="evenodd" d="M25 5H4v17h21V5Zm-13.343 5.707L10.364 12h8.272l-1.293-1.293 2.121-2.121 4.95 4.95-4.95 4.95-2.12-2.122L18.706 15h-8.414l1.364 1.364-2.121 2.121-4.95-4.95 4.95-4.95 2.12 2.122Z" fill="url(#a)"/>
  <path d="M10.243 10.707 9.536 10 6 13.536l3.536 3.535.707-.707L7.879 14H14v-1H7.95l2.293-2.293Zm8.514 0 .707-.707L23 13.536l-3.535 3.535-.708-.707L21.121 14H15v-1h6.05l-2.293-2.293Z" fill="var(--icon-normal)"/>
  <defs>
    <linearGradient id="a">
      <stop offset="0%" stop-color="var(--icon-normal)" stop-opacity="0"/>
      <stop offset="50%" stop-color="var(--icon-normal)" stop-opacity="40"/>
      <stop offset="100%" stop-color="var(--icon-normal)" stop-opacity="0"/>
    </linearGradient>
  </defs>
</svg>