<svg width="28" height="28" viewBox="0 0 28 28" fill="none" xmlns="http://www.w3.org/2000/svg">
    <path d="M18 18h-1v1h1zm-1 2h1v1h-1zm1 2h-1v1h1zm1-4h4v1h-4zm4 2h-4v1h4zm-4 2h4v1h-4z" fill="#000"/>
    <path d="M13.286 15 9 21h6v3a1 1 0 0 0 1 1h8a1 1 0 0 0 1-1v-7a1 1 0 0 0-1-1h-.714L24 15l-4.286-6H9zm8.77 1H16a1 1 0 0 0-1 1v3h-4.057l3.572-5-3.572-5H19.2l3.571 5zM16 17h8v7h-8z" fill="#000"/>
    <path d="M21 3v1h1v2h1V3zM4 6V4h1V3H3v3zM3 7h1v2H3zm19 0h1v2h-1zM3 10h1v2H3zm1 3H3v2h1zm-1 3h1v2H3zm1 3H3v2h2v-1H4zm7-16H9v1h2zm1 0h2v1h-2zm5 0h-2v1h2zm1 0h2v1h-2zM8 3H6v1h2zM6 20h2v1H6z" opacity=".4" fill="#000"/>
</svg>
