<svg width="28" height="28" viewBox="0 0 28 28" fill="none" xmlns="http://www.w3.org/2000/svg">
    <path d="M17 10a1 1 0 0 0-1 1v12a1 1 0 0 0 1 1h2a1 1 0 0 0 1-1V11a1 1 0 0 0-1-1zm2 1v12h-2V11zm-7 6a1 1 0 0 0-1 1v5a1 1 0 0 0 1 1h2a1 1 0 0 0 1-1v-5a1 1 0 0 0-1-1zm2 1v5h-2v-5zm7-4a1 1 0 0 1 1-1h2a1 1 0 0 1 1 1v9a1 1 0 0 1-1 1h-2a1 1 0 0 1-1-1zm1 0v9h2v-9z" fill="#000"/>
    <path d="M21 4v1h1v1h1V4zM4 7V5h1V4H3v3zm19 0h-1v2h1zM4 8H3v2h1zm18 2h1v2h-1zM3 11h1v2H3zm1 3H3v2h1zm-1 3h1v2H3zm1 3H3v2h3v-1H4zm7-16H9v1h2zm1 0h2v1h-2zm5 0h-2v1h2zm1 0h2v1h-2zM8 4H6v1h2zM7 21h3v1H7z" opacity=".4" fill="#000"/>
</svg>
