<svg width="28" height="28" fill="none" xmlns="http://www.w3.org/2000/svg"><path fill-rule="evenodd" clip-rule="evenodd" d="M25 6H4v17h21V6zM4 5a1 1 0 0 0-1 1v17a1 1 0 0 0 1 1h21a1 1 0 0 0 1-1V6a1 1 0 0 0-1-1H4z" fill="#000"/><path fill-rule="evenodd" clip-rule="evenodd" d="M25 6H4v17h21V6zm-13.343 5.707L10.364 13h8.272l-1.293-1.293 2.121-2.121 4.95 4.95-4.95 4.95-2.12-2.122L18.706 16h-8.414l1.364 1.364-2.121 2.121-4.95-4.95 4.95-4.95 2.12 2.122z" fill="url(#a)"/><path d="M10.243 11.707 9.536 11 6 14.536l3.536 3.535.707-.707L7.879 15H14v-1H7.95l2.293-2.293zM18.757 11.707l.707-.707L23 14.536l-3.535 3.535-.708-.707L21.121 15H15v-1h6.05l-2.293-2.293z" fill="#000"/><defs><linearGradient id="a" x1="23" y1="15" x2="6" y2="15" gradientUnits="userSpaceOnUse"><stop stop-opacity="0"/><stop offset=".5" stop-opacity=".4"/><stop offset="1" stop-opacity="0"/></linearGradient></defs></svg>