<svg width="28" height="28" viewBox="0 0 28 28" fill="none" xmlns="http://www.w3.org/2000/svg">
<path fill-rule="evenodd" clip-rule="evenodd" d="M24 5H4V22H24V5ZM14.2782 11.9142L15.5711 10.6213L13.4497 8.5L8.5 13.4497L13.4497 18.3995L15.5711 16.2782L14.2071 14.9142H18.9142V11.9142L14.2782 11.9142Z" fill="url(#paint0_linear_8305_61996)"/>
<path fill-rule="evenodd" clip-rule="evenodd" d="M4 4C3.44772 4 3 4.44771 3 5V22C3 22.5523 3.44772 23 4 23H24C24.5523 23 25 22.5523 25 22V5C25 4.44772 24.5523 4 24 4H4ZM24 5H4V22H24V5Z" fill="#4E80F5"/>
<path fill-rule="evenodd" clip-rule="evenodd" d="M13.5355 10L14.2426 10.7071L11.9497 13L18 13V14L11.8787 14L14.2426 16.364L13.5355 17.0711L10.7071 14.2426L10 13.5355L10.7071 12.8284L13.5355 10Z" fill="#4E80F5"/>
<defs>
<linearGradient id="paint0_linear_8305_61996" x1="23" y1="14" x2="10" y2="14" gradientUnits="userSpaceOnUse">
<stop stop-color="#4E80F5" stop-opacity="0.4"/>
<stop offset="1" stop-color="#4E80F5" stop-opacity="0"/>
</linearGradient>
</defs>
</svg>
