<svg width="28" height="28" viewBox="0 0 28 28" fill="none" xmlns="http://www.w3.org/2000/svg">
<path fill-rule="evenodd" clip-rule="evenodd" d="M6 20H24V6H6V20ZM4 12C3.44772 12 3 12.4477 3 13V22C3 22.5523 3.44772 23 4 23H16C16.5523 23 17 22.5523 17 22V21H24C24.5523 21 25 20.5523 25 20V6C25 5.44772 24.5523 5 24 5H6C5.44772 5 5 5.44772 5 6V12H4ZM5 13H4V22H16V21H6C5.44772 21 5 20.5523 5 20V13Z" fill="black"/>
<rect opacity="0.4" x="24" y="20" width="18" height="14" transform="rotate(180 24 20)" fill="black"/>
</svg>
