<svg width="28" height="28" viewBox="0 0 28 28" fill="none" xmlns="http://www.w3.org/2000/svg">
  <path fill-rule="evenodd" clip-rule="evenodd" d="M24 5H4v17h20V5ZM4 4a1 1 0 0 0-1 1v17a1 1 0 0 0 1 1h20a1 1 0 0 0 1-1V5a1 1 0 0 0-1-1H4Z" fill="var(--icon-normal)"/>
  <path opacity=".4" d="M24 22H4V5h10v8h10v9Z" fill="var(--icon-normal)"/>
  <path d="m24 7-10 6h10V7Z" fill="url(#a)"/>
  <defs>
    <linearGradient id="a" x1="1" x2="1" y1="1" y2="0">
      <stop offset="0%" stop-color="var(--icon-normal)" stop-opacity=".4"/>
      <stop offset="100%" stop-color="var(--icon-normal)" stop-opacity="0"/>
    </linearGradient>
  </defs>
</svg>