<svg width="28" height="28" viewBox="0 0 28 28" fill="none" xmlns="http://www.w3.org/2000/svg">
<path fill-rule="evenodd" clip-rule="evenodd" d="M14 2C13.5993 2 13.1986 2.23032 13.0489 2.69098L13.0219 2.77983C11.9724 6.23139 11.2024 8.74883 10.5002 10.9985L3.00192 10.9977C2.03319 10.9977 1.63042 12.2373 2.41413 12.8067C4.575 14.3767 6.62303 15.8611 8.51013 17.2266C7.83875 19.2828 7.06479 21.6191 6.04428 24.688C5.74493 25.6093 6.79941 26.3755 7.58312 25.8061C7.58312 25.8061 10.0293 24.0543 14 21.1917C14.7184 21.7096 15.3869 22.1911 16 22.6325V21.4002C15.5533 21.0785 15.081 20.7382 14.5848 20.3805L14 19.9589L13.4152 20.3805C11.4304 21.8114 9.82665 22.9647 8.71919 23.7601C8.16546 24.1579 7.73581 24.4662 7.44463 24.675L7.00091 24.993L6.9954 24.997C8.01489 21.9311 8.78897 19.5945 9.46078 17.5369L9.68709 16.8438L9.09637 16.4164C7.20974 15.0513 5.16225 13.5673 3.00195 11.9977L11.2357 11.9986L11.4548 11.2965C12.1582 9.04302 12.9291 6.52255 13.9787 3.07073L14 3.00051L14.0214 3.07074C15.071 6.52256 15.8418 9.04302 16.5453 11.2965L16.7644 11.9986L24.9981 11.9977C23.0556 13.409 21.2042 14.7512 19.4791 16H21.1841C22.5835 14.9863 24.0564 13.918 25.5859 12.8067C26.3696 12.2373 25.9668 10.9977 24.9981 10.9977L17.4998 10.9985C16.7976 8.74883 16.0276 6.23139 14.9781 2.77983L14.9511 2.69098C14.8014 2.23032 14.4007 2 14 2Z" fill="black"/>
<rect x="18" y="18" width="7" height="7" fill="black"/>
</svg>
