<svg width="28" height="28" viewBox="0 0 28 28" fill="none" xmlns="http://www.w3.org/2000/svg">
    <path d="M21 4v1h1v2h1V4zM4 7V5h1V4H3v3zm0 1H3v2h1zm-1 3h1v2H3zm1 3H3v2h1zm-1 3h1v2H3zm1 3H3v2h2v-1H4zm7-16H9v1h2zm1 0h2v1h-2zm5 0h-2v1h2zm1 0h2v1h-2zM8 4H6v1h2zM6 21h2v1H6z" opacity=".4" fill="#000"/>
    <path d="M14 11.5a1.5 1.5 0 1 1-3 0 1.5 1.5 0 0 1 3 0m-1 0a.5.5 0 1 0-1 0 .5.5 0 0 0 1 0" fill="#000"/>
    <path d="M10 8a1 1 0 0 0-1 1v14a1 1 0 0 0 1 1h14a1 1 0 0 0 1-1V9a1 1 0 0 0-1-1zm14 1v10.293l-4.5-3.707-5 4.207-2-2-2.5 2.5V9zM10 23v-1.293l2.5-2.5 2 2 5-4.207 4.5 3.707V23z" fill="#000"/>
</svg>
