<svg width="28" height="28" viewBox="0 0 28 28" fill="none" xmlns="http://www.w3.org/2000/svg">
<path fill-rule="evenodd" clip-rule="evenodd" d="M20.6517 14.8412L20.5663 15.4251L21.0362 15.7821L22.8234 17.1401L21.1984 19.8721L19.0226 19.0299L18.526 18.8377L18.0893 19.1424C17.4481 19.5898 16.9445 19.8696 16.5676 20.0169L16.0261 20.2285L15.942 20.8037L15.6209 23H12.3791L12.058 20.8037L11.9756 20.2402L11.4489 20.0235C10.9203 19.8061 10.4165 19.5196 9.93689 19.1613L9.49353 18.8301L8.97743 19.0299L6.80164 19.8721L5.17664 17.1401L6.96383 15.7821L7.43369 15.4251L7.34831 14.8412C7.32714 14.6965 7.31077 14.427 7.31077 14C7.31077 13.573 7.32714 13.3035 7.34831 13.1588L7.43369 12.5749L6.96383 12.2179L5.17664 10.8599L6.80164 8.12793L8.97743 8.97013L9.47399 9.16234L9.91066 8.85764C10.5519 8.41018 11.0555 8.13037 11.4324 7.98306L11.9739 7.77149L12.058 7.19634L12.3791 5H15.6209L15.942 7.19634L16.0244 7.75983L16.5511 7.97646C17.0797 8.1939 17.5835 8.48036 18.0631 8.83869L18.5065 9.16991L19.0226 8.97013L21.1984 8.12793L22.8234 10.8599L21.0362 12.2179L20.5663 12.5749L20.6517 13.1588C20.6729 13.3035 20.6892 13.573 20.6892 14C20.6892 14.427 20.6729 14.6965 20.6517 14.8412ZM21.8334 20.7606L23.8999 17.2864C24.0601 17.0047 24.028 16.7856 23.8038 16.6291L21.6412 14.9859C21.6732 14.7668 21.6892 14.4382 21.6892 14C21.6892 13.5618 21.6732 13.2332 21.6412 13.0141L23.8038 11.3709C24.028 11.2144 24.0601 10.9953 23.8999 10.7136L21.8334 7.23944C21.7052 7.02034 21.497 6.95775 21.2087 7.05164L18.6616 8.03756C18.1169 7.63067 17.5402 7.30203 16.9315 7.05164L16.5471 4.42254C16.483 4.14085 16.3228 4 16.0665 4H11.9335C11.6772 4 11.517 4.14085 11.4529 4.42254L11.0685 7.05164C10.5879 7.23944 10.0112 7.56807 9.33841 8.03756L6.79135 7.05164C6.503 6.95775 6.29475 7.02034 6.1666 7.23944L4.10012 10.7136C3.93993 10.9953 3.97197 11.2144 4.19624 11.3709L6.35883 13.0141C6.32679 13.2332 6.31077 13.5618 6.31077 14C6.31077 14.4382 6.32679 14.7668 6.35883 14.9859L4.19624 16.6291C3.97197 16.7856 3.93993 17.0047 4.10012 17.2864L6.1666 20.7606C6.29475 20.9797 6.503 21.0423 6.79135 20.9484L9.33841 19.9624C9.88306 20.3693 10.4598 20.698 11.0685 20.9484L11.4529 23.5775C11.517 23.8592 11.6772 24 11.9335 24H16.0665C16.3228 24 16.483 23.8592 16.5471 23.5775L16.9315 20.9484C17.4121 20.7606 17.9888 20.4319 18.6616 19.9624L21.2087 20.9484C21.497 21.0423 21.7052 20.9797 21.8334 20.7606ZM23.0332 11.2126L23.0327 11.2118L23.0339 11.2142C23.034 11.2142 23.0337 11.2137 23.0332 11.2126ZM4.96607 11.2142C4.96604 11.2142 4.96627 11.2137 4.96682 11.2126L4.96732 11.2118L4.96607 11.2142ZM4.96682 16.7873L4.96732 16.7882L4.96607 16.7858C4.96604 16.7858 4.96627 16.7863 4.96682 16.7873ZM23.0327 16.7882L23.0332 16.7874C23.0335 16.7867 23.0337 16.7863 23.0338 16.786C23.0339 16.7859 23.0339 16.7858 23.0339 16.7858L23.0327 16.7882ZM14 17C15.6569 17 17 15.6569 17 14C17 12.3431 15.6569 11 14 11C12.3431 11 11 12.3431 11 14C11 15.6569 12.3431 17 14 17ZM16 14C16 15.1046 15.1046 16 14 16C12.8954 16 12 15.1046 12 14C12 12.8954 12.8954 12 14 12C15.1046 12 16 12.8954 16 14Z" fill="black"/>
</svg>
