<svg width="28" height="28" viewBox="0 0 28 28" fill="none" xmlns="http://www.w3.org/2000/svg">
<path fill-rule="evenodd" clip-rule="evenodd" d="M25 6H4L4 23H25V6ZM4 5C3.44772 5 3 5.44771 3 6V23C3 23.5523 3.44772 24 4 24H25C25.5523 24 26 23.5523 26 23V6C26 5.44772 25.5523 5 25 5H4Z" fill="#4E80F5"/>
<path fill-rule="evenodd" clip-rule="evenodd" d="M25 6H4V23H25V6ZM11.6569 11.7071L10.364 13H18.636L17.3431 11.7071L19.4644 9.58578L24.4142 14.5355L19.4644 19.4853L17.3431 17.364L18.7071 16H10.2929L11.6569 17.364L9.53556 19.4853L4.58582 14.5355L9.53556 9.58578L11.6569 11.7071Z" fill="url(#paint0_linear_8305_62032)"/>
<path d="M10.2426 11.7071L9.53553 11L6 14.5355L9.53553 18.0711L10.2426 17.364L7.87868 15L14 15V14L7.94975 14L10.2426 11.7071Z" fill="#4E80F5"/>
<path d="M18.7574 11.7071L19.4645 11L23 14.5355L19.4645 18.0711L18.7574 17.364L21.1213 15L15 15V14L21.0503 14L18.7574 11.7071Z" fill="#4E80F5"/>
<defs>
<linearGradient id="paint0_linear_8305_62032" x1="23" y1="15" x2="6" y2="15" gradientUnits="userSpaceOnUse">
<stop stop-color="#4E80F5" stop-opacity="0"/>
<stop offset="0.5" stop-color="#4E80F5" stop-opacity="0.4"/>
<stop offset="1" stop-color="#4E80F5" stop-opacity="0"/>
</linearGradient>
</defs>
</svg>
