<svg width="28" height="28" viewBox="0 0 28 28" fill="none" xmlns="http://www.w3.org/2000/svg">
<rect x="3.5" y="4.5" width="21" height="18" rx="0.5" stroke="black"/>
<path opacity="0.4" fill-rule="evenodd" clip-rule="evenodd" d="M14.9854 17.9999C14.9903 18 14.9951 18 15 18H22C22.5523 18 23 17.5523 23 17V10C23 9.44772 22.5523 9 22 9H15C14.9722 9 14.9447 9.00113 14.9175 9.00335L19.4498 13.5356L14.9854 17.9999ZM14 10.9142V10.5L14.5 10L18.0355 13.5356L14.5 17.0711L14 16.5711V16.1569L16.1213 14.0356L14 14.0356V13.5V13.0356L16.1213 13.0356L14 10.9142ZM13.9763 13.0356C13.992 13.1882 14 13.3432 14 13.5C14 13.6812 13.9893 13.8599 13.9685 14.0356L9 14.0356V13.0356L13.9763 13.0356ZM13 10.6713C12.175 9.65183 10.9136 9 9.5 9C7.01472 9 5 11.0147 5 13.5C5 15.9853 7.01472 18 9.5 18C10.9136 18 12.175 17.3482 13 16.3287V15L8 15.0356L8 12.0356L13 12V10.6713Z" fill="black"/>
<path fill-rule="evenodd" clip-rule="evenodd" d="M14.9854 17.9999C14.9903 18 14.9951 18 15 18H22C22.5523 18 23 17.5523 23 17V10C23 9.44772 22.5523 9 22 9H15C14.9722 9 14.9447 9.00113 14.9175 9.00335L15.9142 10H22V17H15.9853L14.9854 17.9999ZM15 10.5L14.5 10L14 10.5V10.9142L15 11.9142V10.5ZM15 13.0356L14 13.0356V13.5C14 13.3432 13.992 13.1882 13.9763 13.0356H12.9695C12.9896 13.1875 13 13.3425 13 13.5C13 13.6821 12.9861 13.861 12.9593 14.0356H13.9685C13.9893 13.8599 14 13.6812 14 13.5V14.0356L15 14.0356V13.0356ZM15 15.1569V16.5711L14.5 17.0711L14 16.5711V16.1569L15 15.1569ZM13.7435 15.0013C13.5714 15.4876 13.3182 15.9355 13 16.3287C12.175 17.3482 10.9136 18 9.5 18C7.01472 18 5 15.9853 5 13.5C5 11.0147 7.01472 9 9.5 9C10.9136 9 12.175 9.65183 13 10.6713C13.3187 11.0652 13.5723 11.514 13.7444 12.0013L12.6664 12.0068C12.1061 10.8207 10.8989 10 9.5 10C7.567 10 6 11.567 6 13.5C6 15.433 7.567 17 9.5 17C10.8935 17 12.0968 16.1856 12.6599 15.0068L13.7435 15.0013Z" fill="black"/>
<path fill-rule="evenodd" clip-rule="evenodd" d="M14.5 17.071L13.7929 16.3639L16.1213 14.0355L8.99998 14.0355L8.99998 13.0355L16.1213 13.0355L13.7929 10.7071L14.5 9.99998L17.3284 12.8284L18.0355 13.5355L17.3284 14.2426L14.5 17.071Z" fill="black"/>
</svg>
