<svg width="28" height="28" viewBox="0 0 28 28" fill="none" xmlns="http://www.w3.org/2000/svg">
    <path d="M24 5v17H4V5zM4 4a1 1 0 0 0-1 1v17a1 1 0 0 0 1 1h20a1 1 0 0 0 1-1V5a1 1 0 0 0-1-1z" fill="#000"/>
    <path d="M24 5H4v17h20zm-11 7v1h-3v-1c0-1.045.338-2.233 1.037-3.195C11.762 7.808 12.93 7 14.5 7c1.407 0 2.573.543 3.371 1.441.774.87 1.129 1.99 1.129 3.059 0 1.876-1.154 2.917-1.849 3.544l-.137.124C16.327 15.798 16 16.167 16 17v3h-3v-3c0-2.167 1.173-3.298 1.986-4.043C15.82 12.193 16 11.994 16 11.5c0-.43-.145-.812-.371-1.066-.201-.227-.536-.434-1.129-.434-.431 0-.762.192-1.037.57-.3.413-.463.975-.463 1.43" fill="#000" opacity=".2"/>
    <path d="M12 12c0-.652.22-1.422.654-2.018C13.08 9.397 13.69 9 14.5 9c.864 0 1.476.32 1.876.77.409.46.624 1.087.624 1.73 0 .97-.528 1.452-1.27 2.132l-.068.062C14.892 14.4 14 15.278 14 17h1c0-1.278.609-1.9 1.338-2.569l.121-.11C17.161 13.682 18 12.919 18 11.5c0-.857-.285-1.73-.876-2.395C16.524 8.431 15.636 8 14.5 8c-1.19 0-2.08.603-2.654 1.393A4.57 4.57 0 0 0 11 12zm3 7v-1h-1v1z" fill="#000"/>
</svg>
