<svg width="28" height="28" fill="none" xmlns="http://www.w3.org/2000/svg"><path fill-rule="evenodd" clip-rule="evenodd" d="M24 5H4v17h20V5zm-9.722 6.914 1.293-1.293L13.45 8.5 8.5 13.45l4.95 4.95 2.121-2.122-1.364-1.364h4.707v-3h-4.636z" fill="url(#a)"/><path fill-rule="evenodd" clip-rule="evenodd" d="M4 4a1 1 0 0 0-1 1v17a1 1 0 0 0 1 1h20a1 1 0 0 0 1-1V5a1 1 0 0 0-1-1H4zm20 1H4v17h20V5z" fill="#000"/><path fill-rule="evenodd" clip-rule="evenodd" d="m13.536 10 .707.707L11.95 13H18v1h-6.121l2.364 2.364-.707.707-2.829-2.828-.707-.707.707-.708L13.536 10z" fill="#000"/><defs><linearGradient id="a" x1="23" y1="14" x2="10" y2="14" gradientUnits="userSpaceOnUse"><stop stop-opacity=".4"/><stop offset="1" stop-opacity="0"/></linearGradient></defs></svg>