<svg width="28" height="28" viewBox="0 0 28 28" fill="none" xmlns="http://www.w3.org/2000/svg">
<rect opacity="0.4" x="24" y="22" width="6" height="17" transform="rotate(180 24 22)" fill="black"/>
<path fill-rule="evenodd" clip-rule="evenodd" d="M24 5H18V22H24V5ZM4 5H17V22H4V5ZM4 4C3.44772 4 3 4.44771 3 5V22C3 22.5523 3.44772 23 4 23H24C24.5523 23 25 22.5523 25 22V5C25 4.44772 24.5523 4 24 4H4ZM10.2426 10.7071L9.53553 10L6.70711 12.8284L6 13.5355L6.70711 14.2426L9.53553 17.0711L10.2426 16.364L7.87868 14H14V13H7.94975L10.2426 10.7071Z" fill="black"/>
</svg>
