<svg width="28" height="28" viewBox="0 0 28 28" fill="none" xmlns="http://www.w3.org/2000/svg">
<path opacity="0.4" fill-rule="evenodd" clip-rule="evenodd" d="M13.0711 15H4V23L25 23V15H16.0711V18H13.0711L13.0711 15ZM14.0711 15V17H15.0711V15H14.0711Z" fill="black"/>
<path fill-rule="evenodd" clip-rule="evenodd" d="M25 6H4V14H13V15H4L4 23H25V15H16V14H25V6ZM4 5C3.44772 5 3 5.44771 3 6V23C3 23.5523 3.44772 24 4 24H25C25.5523 24 26 23.5523 26 23V6C26 5.44772 25.5523 5 25 5H4Z" fill="black"/>
<path fill-rule="evenodd" clip-rule="evenodd" d="M18.0703 12.5355L17.3632 13.2426L15.0703 10.9497L15.0703 17L14.0703 17L14.0703 10.8787L11.7064 13.2426L10.9992 12.5355L13.8277 9.70711L14.5348 9L15.2419 9.70711L18.0703 12.5355Z" fill="black"/>
</svg>
