<svg width="28" height="28" viewBox="0 0 28 28" fill="none" xmlns="http://www.w3.org/2000/svg">
<rect x="3.5" y="6.5" width="21" height="15" rx="0.5" stroke="black"/>
<g opacity="0.4">
<rect x="13" y="9" width="1" height="2" fill="black"/>
<rect x="13" y="6" width="1" height="2" fill="black"/>
<rect x="8" y="13" width="1" height="2" transform="rotate(90 8 13)" fill="black"/>
<rect x="5" y="13" width="1" height="1" transform="rotate(90 5 13)" fill="black"/>
<rect x="11" y="13" width="1" height="2" transform="rotate(90 11 13)" fill="black"/>
<rect x="15" y="13" width="1" height="3" transform="rotate(90 15 13)" fill="black"/>
<rect x="18" y="13" width="1" height="2" transform="rotate(90 18 13)" fill="black"/>
<rect x="21" y="13" width="1" height="2" transform="rotate(90 21 13)" fill="black"/>
<rect x="24" y="13" width="1" height="2" transform="rotate(90 24 13)" fill="black"/>
<rect x="13" y="12" width="1" height="3" fill="black"/>
<rect x="13" y="16" width="1" height="2" fill="black"/>
<rect x="13" y="19" width="1" height="2" fill="black"/>
</g>
</svg>
