<svg width="28" height="28" viewBox="0 0 28 28" fill="none" xmlns="http://www.w3.org/2000/svg">
<path opacity="0.4" fill-rule="evenodd" clip-rule="evenodd" d="M7 22L24 22L24 5L7 5L7 22ZM16.364 12L17.6569 10.7071L15.5355 8.58579L10.5858 13.5355L15.5355 18.4853L17.6569 16.364L16.2929 15L21 15V12L16.364 12ZM20 14L13.8787 14L16.2426 16.364L15.5355 17.0711L12 13.5355L15.5355 10L16.2426 10.7071L13.9497 13H20V14Z" fill="black"/>
<path fill-rule="evenodd" clip-rule="evenodd" d="M24 5H7V22H24V5ZM4 5H6V22H4V5ZM4 4C3.44772 4 3 4.44771 3 5V22C3 22.5523 3.44772 23 4 23H24C24.5523 23 25 22.5523 25 22V5C25 4.44772 24.5523 4 24 4H4ZM16.2426 10.7071L15.5355 10L12.7071 12.8284L12 13.5355L12.7071 14.2426L15.5355 17.0711L16.2426 16.364L13.8787 14H20V13H13.9497L16.2426 10.7071Z" fill="black"/>
</svg>
