<svg width="28" height="28" viewBox="0 0 28 28" fill="none" xmlns="http://www.w3.org/2000/svg">
<mask id="mask0_7995_65334" style="mask-type:alpha" maskUnits="userSpaceOnUse" x="4" y="5" width="20" height="17">
<path fill-rule="evenodd" clip-rule="evenodd" d="M4 22L24 22L24 5H4L4 22ZM14.364 12L15.6569 10.7071L13.5356 8.58578L8.58582 13.5355L13.5356 18.4853L15.6569 16.364L14.2929 15H19V12L14.364 12ZM18 14H11.8787L14.2427 16.364L13.5356 17.0711L10 13.5355L13.5356 10L14.2427 10.7071L11.9498 13L18 13V14Z" fill="url(#paint0_linear_7995_65334)"/>
</mask>
<g mask="url(#mask0_7995_65334)">
<rect x="4" y="5" width="20" height="17" fill="black"/>
</g>
<path fill-rule="evenodd" clip-rule="evenodd" d="M13.5355 10L14.2426 10.7071L11.9497 13L18 13V14L11.8787 14L14.2426 16.364L13.5355 17.0711L10.7071 14.2426L10 13.5355L10.7071 12.8284L13.5355 10Z" fill="black"/>
<path fill-rule="evenodd" clip-rule="evenodd" d="M24 5H4V22H24V5ZM4 4C3.44772 4 3 4.44771 3 5V22C3 22.5523 3.44772 23 4 23H24C24.5523 23 25 22.5523 25 22V5C25 4.44772 24.5523 4 24 4H4Z" fill="black"/>
<defs>
<linearGradient id="paint0_linear_7995_65334" x1="23" y1="13.5" x2="10" y2="13.5" gradientUnits="userSpaceOnUse">
<stop stop-opacity="0.4"/>
<stop offset="1" stop-color="#CBCBCB" stop-opacity="0"/>
</linearGradient>
</defs>
</svg>
