<svg width="28" height="28" viewBox="0 0 28 28" fill="none" xmlns="http://www.w3.org/2000/svg">
<mask id="mask0_6428_65620" style="mask-type:alpha" maskUnits="userSpaceOnUse" x="4" y="5" width="20" height="17">
<path d="M24 22L4 22L4 5L24 5L24 22Z" fill="url(#paint0_linear_6428_65620)"/>
</mask>
<g mask="url(#mask0_6428_65620)">
<rect x="4" y="5" width="20" height="17" fill="black"/>
</g>
<path fill-rule="evenodd" clip-rule="evenodd" d="M24 5H4V22H24V5ZM4 4C3.44772 4 3 4.44771 3 5V22C3 22.5523 3.44772 23 4 23H24C24.5523 23 25 22.5523 25 22V5C25 4.44772 24.5523 4 24 4H4Z" fill="black"/>
<g opacity="0.33">
<mask id="path-4-outside-1_6428_65620" maskUnits="userSpaceOnUse" x="8" y="8.36401" width="12" height="10" fill="black">
<rect fill="white" x="8" y="8.36401" width="12" height="10"/>
<path d="M9.14645 14.0356L12.3284 17.2176C12.5237 17.4128 12.8403 17.4128 13.0355 17.2176C13.2308 17.0223 13.2308 16.7057 13.0355 16.5105L10.7071 14.182L19 14.1822L19 13.1822L10.7071 13.182L13.0355 10.8536C13.2308 10.6583 13.2308 10.3418 13.0355 10.1465C12.8403 9.95124 12.5237 9.95124 12.3284 10.1465L9.14645 13.3285C8.95118 13.5237 8.95118 13.8403 9.14645 14.0356Z"/>
</mask>
<path d="M12.3284 17.2176L11.6213 17.9247L11.6213 17.9247L12.3284 17.2176ZM9.14645 14.0356L8.43934 14.7427L8.43934 14.7427L9.14645 14.0356ZM13.0355 16.5105L12.3284 17.2176L12.3284 17.2176L13.0355 16.5105ZM10.7071 14.182L10.7071 13.182L8.29285 13.182L10 14.8891L10.7071 14.182ZM19 14.1822L19 15.1822L20 15.1822L20 14.1822L19 14.1822ZM19 13.1822L20 13.1822L20 12.1822L19 12.1822L19 13.1822ZM10.7071 13.182L10 12.4749L8.29293 14.182L10.7071 14.182L10.7071 13.182ZM13.0355 10.8536L13.7426 11.5607L13.7426 11.5607L13.0355 10.8536ZM9.14645 13.3285L8.43934 12.6214L8.43934 12.6214L9.14645 13.3285ZM13.0355 16.5105L9.85355 13.3285L8.43934 14.7427L11.6213 17.9247L13.0355 16.5105ZM12.3284 16.5105C12.5237 16.3152 12.8403 16.3152 13.0355 16.5105L11.6213 17.9247C12.2071 18.5105 13.1569 18.5105 13.7426 17.9247L12.3284 16.5105ZM12.3284 17.2176C12.1332 17.0223 12.1332 16.7057 12.3284 16.5105L13.7426 17.9247C14.3284 17.3389 14.3284 16.3891 13.7426 15.8034L12.3284 17.2176ZM10 14.8891L12.3284 17.2176L13.7426 15.8034L11.4142 13.4749L10 14.8891ZM18 13.1822L18 14.1822L20 14.1822L20 13.1822L18 13.1822ZM12.3284 10.1465L10 12.4749L11.4142 13.8891L13.7426 11.5607L12.3284 10.1465ZM12.3284 10.8536C12.1332 10.6583 12.1332 10.3418 12.3284 10.1465L13.7426 11.5607C14.3284 10.9749 14.3284 10.0252 13.7426 9.43939L12.3284 10.8536ZM13.0355 10.8536C12.8403 11.0489 12.5237 11.0489 12.3284 10.8536L13.7426 9.43939C13.1569 8.85361 12.2071 8.85361 11.6213 9.43939L13.0355 10.8536ZM9.85355 14.0356L13.0355 10.8536L11.6213 9.43939L8.43934 12.6214L9.85355 14.0356ZM9.85355 13.3285C10.0488 13.5237 10.0488 13.8403 9.85355 14.0356L8.43934 12.6214C7.85355 13.2072 7.85355 14.1569 8.43934 14.7427L9.85355 13.3285ZM19 13.1822L10.7071 13.182L10.7071 15.182L19 15.1822L19 13.1822ZM10.7071 14.182L19 14.1822L19 12.1822L10.7071 12.182L10.7071 14.182Z" fill="black" mask="url(#path-4-outside-1_6428_65620)"/>
</g>
<defs>
<linearGradient id="paint0_linear_6428_65620" x1="23" y1="13.5" x2="10" y2="13.5" gradientUnits="userSpaceOnUse">
<stop stop-opacity="0.4"/>
<stop offset="1" stop-color="#CBCBCB" stop-opacity="0"/>
</linearGradient>
</defs>
</svg>
