<svg width="24" height="24" viewBox="0 0 24 24" xmlns="http://www.w3.org/2000/svg">
<path fill-rule="evenodd" clip-rule="evenodd" d="M9.2725 5.81839C9.37295 5.41666 9.77994 5.17222 10.1817 5.27249C10.5834 5.37293 10.8279 5.77991 10.7276 6.18167L9.6436 10.5157L15.5088 5.43362C15.8218 5.16241 16.2951 5.19602 16.5664 5.50882C16.8377 5.82177 16.8041 6.29513 16.4913 6.56644L10.8516 11.4532L14.6387 17.6065C14.8557 17.9591 14.7461 18.4215 14.3936 18.6387C14.041 18.8557 13.5786 18.746 13.3614 18.3936L9.70317 12.4492L9.00981 13.0489L7.72758 18.1817C7.62714 18.5834 7.22017 18.8279 6.8184 18.7276C6.41666 18.6271 6.17219 18.2201 6.2725 17.8184L9.2725 5.81839Z" fill="#444444"/>
</svg>
