<svg width="24" height="24" viewBox="0 0 24 24" xmlns="http://www.w3.org/2000/svg">
<path d="M13.3337 5.55664C13.5787 5.18929 14.0756 5.0895 14.4431 5.33398C14.8106 5.57895 14.9104 6.07579 14.6658 6.44336L10.9304 12.0449L14.6238 17.584C14.8535 17.9286 14.7604 18.3943 14.4158 18.624C14.0711 18.8537 13.6055 18.7606 13.3757 18.416L10.0291 13.3965L6.66577 18.4434C6.42079 18.8108 5.92397 18.9107 5.5564 18.666C5.18912 18.421 5.08909 17.9241 5.33374 17.5566L9.06812 11.9541L5.37573 6.41602C5.14618 6.07141 5.23921 5.6057 5.58374 5.37598C5.92831 5.14627 6.39396 5.23954 6.62378 5.58398L9.96948 10.6025L13.3337 5.55664Z" fill="#444444"/>
<path d="M18.1377 5C19.1661 5 20 5.83392 20 6.8623C19.9999 7.41483 19.7545 7.93925 19.3301 8.29297L17.2812 10H19.5C19.7761 10 20 10.2239 20 10.5C20 10.7761 19.7761 11 19.5 11H16.8408C16.3766 11 16 10.6234 16 10.1592C16.0001 9.90985 16.1112 9.6733 16.3027 9.51367L18.6895 7.52441C18.8859 7.36068 18.9999 7.11805 19 6.8623C19 6.38621 18.6138 6 18.1377 6H18C17.4477 6 17 6.44772 17 7C17 7.27614 16.7761 7.5 16.5 7.5C16.2239 7.5 16 7.27614 16 7C16 5.89543 16.8954 5 18 5H18.1377Z" fill="#446ECA"/>
</svg>
