<svg width="24" height="24" viewBox="0 0 24 24" xmlns="http://www.w3.org/2000/svg">
<path d="M3.75 6.2959C3.75 5.88168 4.08579 5.5459 4.5 5.5459L4.75 5.5459L4.75 4.2959C4.75 3.88168 5.08579 3.5459 5.5 3.5459C5.91421 3.5459 6.25 3.88168 6.25 4.2959L6.25 5.5459L11.75 5.5459L11.75 4.2959C11.75 3.88168 12.0858 3.5459 12.5 3.5459C12.9142 3.5459 13.25 3.88168 13.25 4.2959L13.25 5.5459L18.75 5.5459L18.75 4.2959C18.75 3.88168 19.0858 3.5459 19.5 3.5459C19.9142 3.5459 20.25 3.88168 20.25 4.2959L20.25 5.5459L20.5 5.5459C20.9142 5.5459 21.25 5.88168 21.25 6.2959C21.25 6.71011 20.9142 7.0459 20.5 7.0459L20.25 7.0459L20.25 8.2959C20.25 8.71011 19.9142 9.0459 19.5 9.0459C19.0858 9.0459 18.75 8.71011 18.75 8.2959L18.75 7.0459L13.25 7.0459L13.25 8.2959C13.25 8.71011 12.9142 9.0459 12.5 9.0459C12.0858 9.0459 11.75 8.71011 11.75 8.2959L11.75 7.0459L6.25 7.0459L6.25 8.2959C6.25 8.71011 5.91421 9.0459 5.5 9.0459C5.08579 9.0459 4.75 8.71011 4.75 8.2959L4.75 7.0459L4.5 7.0459C4.08579 7.0459 3.75 6.71011 3.75 6.2959Z" fill="#446ECA"/>
<path d="M2.75049 12.2959C2.75049 11.3294 3.53399 10.5459 4.50049 10.5459L20.5005 10.5459C21.4668 10.5462 22.2505 11.3296 22.2505 12.2959L22.2505 18.2959C22.2504 19.2622 21.4667 20.0456 20.5005 20.0459L4.50049 20.0459C3.53402 20.0459 2.75053 19.2624 2.75049 18.2959L2.75049 12.2959ZM20.5005 18.5459C20.6383 18.5456 20.7504 18.4338 20.7505 18.2959L20.7505 12.2959C20.7505 12.158 20.6383 12.0462 20.5005 12.0459L13.2505 12.0459L13.2505 18.5459L20.5005 18.5459ZM4.25049 18.2959C4.25053 18.4339 4.36244 18.5459 4.50049 18.5459L11.7505 18.5459L11.7505 12.0459L4.50049 12.0459C4.36242 12.0459 4.25049 12.1578 4.25049 12.2959L4.25049 18.2959Z" fill="#444444"/>
</svg>
