<svg width="24" height="24" viewBox="0 0 24 24" xmlns="http://www.w3.org/2000/svg">
<path d="M11 6.25C11.4142 6.25 11.75 6.58579 11.75 7C11.75 7.41421 11.4142 7.75 11 7.75H7.75V18C7.75 18.4142 7.41421 18.75 7 18.75C6.58579 18.75 6.25 18.4142 6.25 18V7.75H3C2.58579 7.75 2.25 7.41421 2.25 7C2.25 6.58579 2.58579 6.25 3 6.25H11ZM21 6.25C21.4142 6.25 21.75 6.58579 21.75 7C21.75 7.41421 21.4142 7.75 21 7.75H17.75V18C17.75 18.4142 17.4142 18.75 17 18.75C16.5858 18.75 16.25 18.4142 16.25 18V7.75H13C12.5858 7.75 12.25 7.41421 12.25 7C12.25 6.58579 12.5858 6.25 13 6.25H21Z" fill="#444444"/>
</svg>
