<svg width="24" height="24" viewBox="0 0 24 24" xmlns="http://www.w3.org/2000/svg">
<path d="M7.5 6.29297C6.94771 6.29297 6.5 6.74068 6.5 7.29297V13.293H9.5C10.0523 13.293 10.5 13.7407 10.5 14.293V17.293H16.5C17.0523 17.293 17.5 16.8453 17.5 16.293V10.293H14.5C13.9477 10.293 13.5 9.84525 13.5 9.29297V6.29297H7.5Z" fill="#DCE7FA"/>
<path d="M7.5 5.54297C6.5335 5.54297 5.75 6.32647 5.75 7.29297V13.293C5.75 13.7072 6.08579 14.043 6.5 14.043H9.5C9.63807 14.043 9.75 14.1549 9.75 14.293V17.293C9.75 17.4919 9.82907 17.6826 9.96973 17.8232C10.1104 17.9639 10.3011 18.043 10.5 18.043H16.5C17.4665 18.043 18.25 17.2595 18.25 16.293V10.293C18.25 10.0941 18.1709 9.90335 18.0303 9.7627C17.8896 9.62204 17.6989 9.54297 17.5 9.54297H14.5C14.3619 9.54297 14.25 9.43104 14.25 9.29297V6.29297C14.25 5.87876 13.9142 5.54297 13.5 5.54297H7.5ZM12.75 9.29297C12.75 10.2595 13.5335 11.043 14.5 11.043H16.75V16.293C16.75 16.431 16.6381 16.543 16.5 16.543H11.25V14.293C11.25 13.3265 10.4665 12.543 9.5 12.543H7.25V7.29297C7.25 7.1549 7.36193 7.04297 7.5 7.04297H12.75V9.29297Z" fill="#446ECA"/>
<path d="M4.5 12.5435C3.5335 12.5435 2.75 13.327 2.75 14.2935V19.2935C2.75026 20.2597 3.53366 21.0435 4.5 21.0435H9.5C10.4663 21.0435 11.2497 20.2597 11.25 19.2935V14.2935C11.25 13.327 10.4665 12.5435 9.5 12.5435H4.5ZM9.5 14.0435C9.63807 14.0435 9.75 14.1554 9.75 14.2935V19.2935C9.74974 19.4313 9.63791 19.5435 9.5 19.5435H4.5C4.36209 19.5435 4.25026 19.4313 4.25 19.2935V14.2935C4.25 14.1554 4.36193 14.0435 4.5 14.0435H9.5ZM14.5 2.54346C13.5335 2.54346 12.75 3.32696 12.75 4.29346V9.29346C12.7503 10.2597 13.5337 11.0435 14.5 11.0435H19.5C20.4663 11.0435 21.2497 10.2597 21.25 9.29346V4.29346C21.25 3.32696 20.4665 2.54346 19.5 2.54346H14.5ZM19.5 4.04346C19.6381 4.04346 19.75 4.15539 19.75 4.29346V9.29346C19.7497 9.4313 19.6379 9.54346 19.5 9.54346H14.5C14.3621 9.54346 14.2503 9.4313 14.25 9.29346V4.29346C14.25 4.15539 14.3619 4.04346 14.5 4.04346H19.5Z" fill="#444444"/>
</svg>
