<svg width="24" height="24" viewBox="0 0 24 24" xmlns="http://www.w3.org/2000/svg">
<path d="M3.97021 8.46973C4.26309 8.17691 4.73788 8.17691 5.03076 8.46973L8.03076 11.4697C8.32346 11.7626 8.32353 12.2374 8.03076 12.5303L5.03076 15.5303C4.73792 15.823 4.2631 15.823 3.97021 15.5303C3.6774 15.2374 3.6774 14.7626 3.97021 14.4697L6.43994 12L3.97021 9.53027C3.6774 9.2374 3.6774 8.7626 3.97021 8.46973Z" fill="#446ECA"/>
<path d="M20 19.25C20.4142 19.25 20.75 19.5858 20.75 20C20.75 20.4142 20.4142 20.75 20 20.75H4C3.58579 20.75 3.25 20.4142 3.25 20C3.25 19.5858 3.58579 19.25 4 19.25H20ZM20 15.25C20.4142 15.25 20.75 15.5858 20.75 16C20.75 16.4142 20.4142 16.75 20 16.75H12C11.5858 16.75 11.25 16.4142 11.25 16C11.25 15.5858 11.5858 15.25 12 15.25H20ZM20 11.25C20.4142 11.25 20.75 11.5858 20.75 12C20.75 12.4142 20.4142 12.75 20 12.75H12C11.5858 12.75 11.25 12.4142 11.25 12C11.25 11.5858 11.5858 11.25 12 11.25H20ZM20 7.25C20.4142 7.25 20.75 7.58579 20.75 8C20.75 8.41421 20.4142 8.75 20 8.75H12C11.5858 8.75 11.25 8.41421 11.25 8C11.25 7.58579 11.5858 7.25 12 7.25H20ZM20 3.25C20.4142 3.25 20.75 3.58579 20.75 4C20.75 4.41421 20.4142 4.75 20 4.75H4C3.58579 4.75 3.25 4.41421 3.25 4C3.25 3.58579 3.58579 3.25 4 3.25H20Z" fill="#444444"/>
</svg>
