<svg width="24" height="24" viewBox="0 0 24 24" xmlns="http://www.w3.org/2000/svg">
<path d="M18.25 2.75C19.3546 2.75 20.25 3.64543 20.25 4.75V13.5C20.25 13.9142 19.9142 14.25 19.5 14.25C19.0858 14.25 18.75 13.9142 18.75 13.5V4.75C18.75 4.47386 18.5261 4.25 18.25 4.25H4.75C4.47386 4.25 4.25 4.47386 4.25 4.75V18.25C4.25 18.5261 4.47386 18.75 4.75 18.75H8.5C8.91421 18.75 9.25 19.0858 9.25 19.5C9.25 19.9142 8.91421 20.25 8.5 20.25H4.75C3.64543 20.25 2.75 19.3546 2.75 18.25V4.75C2.75 3.64543 3.64543 2.75 4.75 2.75H18.25ZM11.5 6.75C11.8125 6.75 12.0923 6.94378 12.2021 7.23633L15.2021 15.2363C15.3475 15.6241 15.1513 16.0566 14.7637 16.2021C14.3759 16.3475 13.9434 16.1513 13.7979 15.7637L13.2305 14.25H9.76953L9.20215 15.7637C9.05659 16.1513 8.62406 16.3475 8.23633 16.2021C7.8487 16.0566 7.65245 15.6241 7.79785 15.2363L10.7979 7.23633L10.8467 7.13184C10.978 6.89857 11.2264 6.75 11.5 6.75ZM10.332 12.75H12.668L11.5 9.63574L10.332 12.75Z" fill="#444444"/>
<path d="M20.9238 14.8154C21.189 14.4974 21.6623 14.4546 21.9805 14.7197C22.2985 14.9849 22.3413 15.4582 22.0762 15.7764L17.0762 21.7764C16.9413 21.9381 16.7445 22.0353 16.5342 22.0449C16.3237 22.0545 16.1187 21.9752 15.9697 21.8262L12.9697 18.8262C12.6768 18.5333 12.6768 18.0585 12.9697 17.7656C13.2626 17.4727 13.7374 17.4727 14.0303 17.7656L16.4492 20.1846L20.9238 14.8154Z" fill="#446ECA"/>
</svg>
