<svg width="24" height="24" viewBox="0 0 24 24" xmlns="http://www.w3.org/2000/svg">
<path d="M6.75 2.75C5.64543 2.75 4.75 3.64543 4.75 4.75V13.5C4.75 13.9142 5.08579 14.25 5.5 14.25C5.91421 14.25 6.25 13.9142 6.25 13.5V4.75C6.25 4.47386 6.47386 4.25 6.75 4.25H20.25C20.5261 4.25 20.75 4.47386 20.75 4.75V18.25C20.75 18.5261 20.5261 18.75 20.25 18.75H10.5C10.0858 18.75 9.75 19.0858 9.75 19.5C9.75 19.9142 10.0858 20.25 10.5 20.25H20.25C21.3546 20.25 22.25 19.3546 22.25 18.25V4.75C22.25 3.64543 21.3546 2.75 20.25 2.75H6.75ZM13.5 6.75C13.1875 6.75 12.9077 6.94378 12.7979 7.23633L9.79785 15.2363C9.65245 15.6241 9.8487 16.0566 10.2363 16.2021C10.6241 16.3475 11.0566 16.1513 11.2021 15.7637L11.7695 14.25H15.2305L15.7979 15.7637C15.9434 16.1513 16.3759 16.3475 16.7637 16.2021C17.1513 16.0566 17.3475 15.6241 17.2021 15.2363L14.2021 7.23633L14.1533 7.13184C14.022 6.89857 13.7736 6.75 13.5 6.75ZM14.668 12.75H12.332L13.5 9.63574L14.668 12.75Z" fill="#444444"/>
<path d="M7.36694 14.5977C7.58926 14.2483 8.05268 14.1451 8.4021 14.3672C8.75147 14.5895 8.85474 15.0529 8.63257 15.4023L5.13257 20.9023C5.01046 21.0941 4.80775 21.2202 4.58179 21.2451C4.35572 21.2699 4.13029 21.1911 3.96948 21.0303L1.46948 18.5303C1.17667 18.2374 1.17676 17.7626 1.46948 17.4697C1.76237 17.1768 2.23713 17.1769 2.53003 17.4697L4.3689 19.3086L7.36694 14.5977Z" fill="#446ECA"/>
</svg>
