<svg width="24" height="24" viewBox="0 0 24 24" xmlns="http://www.w3.org/2000/svg">
<g clip-path="url(#clip0_0_3064)">
<path fill-rule="evenodd" clip-rule="evenodd" d="M14.4998 15.7991C14.9137 15.7993 15.2494 16.1352 15.2497 16.5491L15.2504 20.2952C15.2504 20.4938 15.1711 20.6849 15.0308 20.8255C14.8903 20.966 14.6991 21.0449 14.5005 21.0451L10.7536 21.0451C10.3396 21.045 10.0037 20.7093 10.0037 20.2952C10.004 19.8813 10.3397 19.5455 10.7536 19.5453L12.6899 19.5453L2.96995 9.82533C2.67717 9.53243 2.67709 9.05753 2.96995 8.76467C3.26286 8.47247 3.73792 8.47211 4.03061 8.76467L13.7506 18.4846L13.7499 16.5491C13.7502 16.1352 14.0859 15.7992 14.4998 15.7991ZM20.4943 9.79495C20.9085 9.79498 21.2449 10.1314 21.2449 10.5456L21.2449 14.291C21.2449 14.7052 20.9085 15.0416 20.4943 15.0416L16.7489 15.0416C16.3347 15.0416 15.9991 14.7058 15.9989 14.2917C15.9989 13.8775 16.3346 13.5418 16.7489 13.5418L18.6844 13.5411L14.97 9.82671C14.6772 9.53382 14.6772 9.05894 14.97 8.76605C15.263 8.47348 15.7379 8.47327 16.0307 8.76605L19.7444 12.4797L19.7444 10.5449C19.7445 10.1309 20.0804 9.79521 20.4943 9.79495Z" fill="#446ECA"/>
<path fill-rule="evenodd" clip-rule="evenodd" d="M15.0898 2.59272C15.3128 2.81572 15.3723 3.1549 15.2389 3.4407L12.3498 9.63202L11.2732 11.9391C11.098 12.314 10.6519 12.4765 10.2768 12.3016C9.90166 12.1265 9.73869 11.6797 9.91355 11.3045L10.7664 9.47803L8.17202 6.93065L6.37801 7.76896C6.00287 7.94378 5.5568 7.78139 5.38157 7.40643C5.20647 7.03121 5.36834 6.58459 5.74341 6.4093L8.00975 5.3514L14.2418 2.44357C14.5276 2.3102 14.8668 2.36975 15.0898 2.59272ZM9.62352 6.25393L11.4389 8.0362L13.0078 4.67468L9.62352 6.25393Z" fill="#444444"/>
</g>
<defs>
<clipPath id="clip0_0_3064">
<rect width="24" height="24" fill="white"/>
</clipPath>
</defs>
</svg>
