<svg width="24" height="24" viewBox="0 0 24 24" xmlns="http://www.w3.org/2000/svg">
<path fill-rule="evenodd" clip-rule="evenodd" d="M3.53779 8.93267C3.76079 8.70966 4.09997 8.65015 4.38576 8.78351L10.5771 11.6727L12.8842 12.7493C13.2591 12.9245 13.4215 13.3706 13.2467 13.7457C13.0715 14.1208 12.6248 14.2838 12.2496 14.1089L10.4231 13.2561L7.87572 15.8504L8.71403 17.6444C8.88884 18.0196 8.72646 18.4657 8.3515 18.6409C7.97628 18.816 7.52966 18.6541 7.35437 18.279L6.29647 16.0127L3.38863 9.78065C3.25527 9.49487 3.31481 9.15568 3.53779 8.93267ZM7.199 14.3989L8.98127 12.5835L5.61975 11.0146L7.199 14.3989Z" fill="#444444"/>
<path fill-rule="evenodd" clip-rule="evenodd" d="M16.3512 10.2955C16.3515 9.88153 16.6871 9.54555 17.1011 9.54555H20.4999C20.6987 9.54563 20.8903 9.62526 21.0309 9.76583C21.1713 9.90637 21.2504 10.0975 21.2505 10.2962V13.695C21.2505 14.109 20.9146 14.4446 20.5006 14.4449C20.0864 14.4449 19.7507 14.1092 19.7507 13.695V12.1067L11.0313 20.8261C10.7384 21.119 10.2635 21.119 9.97064 20.8261C9.67788 20.5332 9.67781 20.0583 9.97064 19.7655L18.6907 11.0454H17.1011C16.6869 11.0454 16.3512 10.7097 16.3512 10.2955ZM10.2496 3.29622C10.2496 2.88212 10.5862 2.5458 11.0002 2.54561L14.4999 2.54561C14.9138 2.54578 15.2496 2.88157 15.2498 3.29553L15.2505 6.79584C15.2504 7.20999 14.914 7.54641 14.4999 7.54645C14.0861 7.54625 13.7503 7.21028 13.7499 6.79653V5.10611L10.03 8.82601C9.73713 9.11867 9.26219 9.11881 8.96937 8.82601C8.67687 8.53318 8.67682 8.05816 8.96937 7.76535L12.6886 4.04614H10.9995C10.5858 4.04576 10.2499 3.70999 10.2496 3.29622Z" fill="#446ECA"/>
</svg>
