<svg width="24" height="24" viewBox="0 0 24 24" xmlns="http://www.w3.org/2000/svg">
<path d="M16.5 2.74902C17.4663 2.74916 18.2499 3.5327 18.25 4.49902V6.74902H19.6436C20.6096 6.74938 21.3933 7.53294 21.3936 8.49902V16.502C21.3935 17.4682 20.6097 18.2516 19.6436 18.252H18.25V20.499C18.25 21.4654 17.4664 22.2489 16.5 22.249H7.5C6.53361 22.2489 5.75 21.4654 5.75 20.499V18.252H4.35742C3.39098 18.252 2.60751 17.4684 2.60742 16.502V8.49902C2.60765 7.53272 3.39106 6.74902 4.35742 6.74902H5.75V4.49902C5.75011 3.5327 6.53368 2.74916 7.5 2.74902H16.5ZM7.25 20.499C7.25 20.637 7.36204 20.7489 7.5 20.749H16.5C16.638 20.7489 16.75 20.637 16.75 20.499V13.249H7.25V20.499ZM4.35742 8.24902C4.21949 8.24902 4.10765 8.36115 4.10742 8.49902V16.502C4.10751 16.64 4.2194 16.752 4.35742 16.752H5.75V12.6494C5.75011 12.1525 6.15341 11.749 6.65039 11.749H17.3506C17.8473 11.7493 18.2499 12.1527 18.25 12.6494V16.752H19.6436C19.7813 16.7516 19.8935 16.6397 19.8936 16.502V8.49902C19.8933 8.36136 19.7812 8.24938 19.6436 8.24902H4.35742ZM7.5 4.24902C7.36211 4.24916 7.25011 4.36113 7.25 4.49902V6.74902H16.75V4.49902C16.7499 4.36113 16.6379 4.24916 16.5 4.24902H7.5Z" fill="#444444"/>
</svg>
