<svg width="24" height="24" viewBox="0 0 24 24" xmlns="http://www.w3.org/2000/svg">
<path d="M8 12.999C5.37665 12.999 3.25 15.1257 3.25 17.749C3.25 20.3724 5.37665 22.499 8 22.499H16C18.6234 22.499 20.75 20.3724 20.75 17.749C20.75 15.1257 18.6234 12.999 16 12.999H8ZM16 14.499C17.7949 14.499 19.25 15.9541 19.25 17.749C19.25 19.5439 17.7949 20.999 16 20.999H8C6.20507 20.999 4.75 19.5439 4.75 17.749C4.75 15.9541 6.20507 14.499 8 14.499H16ZM16 15.749C14.8954 15.749 14 16.6445 14 17.749C14 18.8536 14.8954 19.749 16 19.749C17.1046 19.749 18 18.8536 18 17.749C18 16.6445 17.1046 15.749 16 15.749ZM8 1.99902C5.37665 1.99902 3.25 4.12567 3.25 6.74902C3.25 9.37238 5.37665 11.499 8 11.499H16C18.6234 11.499 20.75 9.37238 20.75 6.74902C20.75 4.12567 18.6234 1.99902 16 1.99902H8ZM16 3.49902C17.7949 3.49902 19.25 4.9541 19.25 6.74902C19.25 8.54395 17.7949 9.99902 16 9.99902H8C6.20507 9.99902 4.75 8.54395 4.75 6.74902C4.75 4.9541 6.20507 3.49902 8 3.49902H16ZM8 4.74902C6.89543 4.74902 6 5.64445 6 6.74902C6 7.85359 6.89543 8.74902 8 8.74902C9.10457 8.74902 10 7.85359 10 6.74902C10 5.64445 9.10457 4.74902 8 4.74902Z" fill="#444444"/>
</svg>
