<svg width="24" height="24" viewBox="0 0 24 24" xmlns="http://www.w3.org/2000/svg">
<path d="M19.5 12.5464C20.4665 12.5464 21.25 13.3299 21.25 14.2964V19.2964C21.2497 20.2627 20.4663 21.0464 19.5 21.0464H14.5C13.5337 21.0464 12.7503 20.2627 12.75 19.2964V17.2964C12.75 16.8822 13.0858 16.5464 13.5 16.5464H16.5C16.6379 16.5464 16.7497 16.4342 16.75 16.2964V13.2964C16.75 12.8822 17.0858 12.5464 17.5 12.5464H19.5ZM18.25 16.2964C18.2497 17.2627 17.4663 18.0464 16.5 18.0464H14.25V19.2964C14.2503 19.4342 14.3621 19.5464 14.5 19.5464H19.5C19.6379 19.5464 19.7497 19.4342 19.75 19.2964V14.2964C19.75 14.1583 19.6381 14.0464 19.5 14.0464H18.25V16.2964ZM9.5 2.54639C10.4665 2.54639 11.25 3.32989 11.25 4.29639V6.29639C11.2497 6.71038 10.9141 7.04639 10.5 7.04639H7.5C7.36193 7.04639 7.25 7.15832 7.25 7.29639V10.2964C7.24974 10.7104 6.91405 11.0464 6.5 11.0464H4.5C3.53366 11.0464 2.75026 10.2627 2.75 9.29639V4.29639C2.75 3.32989 3.5335 2.54639 4.5 2.54639H9.5ZM4.5 4.04639C4.36193 4.04639 4.25 4.15832 4.25 4.29639V9.29639C4.25026 9.43423 4.36209 9.54639 4.5 9.54639H5.75V7.29639C5.75 6.32989 6.5335 5.54639 7.5 5.54639H9.75V4.29639C9.75 4.15832 9.63807 4.04639 9.5 4.04639H4.5Z" fill="#444444"/>
<path d="M16.5 6.2959C17.0523 6.2959 17.5 6.74361 17.5 7.2959V16.2959C17.5 16.8482 17.0523 17.2959 16.5 17.2959H7.5C6.94772 17.2959 6.5 16.8482 6.5 16.2959V7.2959C6.5 6.74361 6.94771 6.2959 7.5 6.2959H16.5Z" fill="#DCE7FA"/>
<path d="M16.5 5.5459C17.4665 5.5459 18.25 6.3294 18.25 7.2959V16.2959C18.25 17.2624 17.4665 18.0459 16.5 18.0459H7.5C6.5335 18.0459 5.75 17.2624 5.75 16.2959V7.2959C5.75 6.3294 6.5335 5.5459 7.5 5.5459H16.5ZM7.5 7.0459C7.36193 7.0459 7.25 7.15783 7.25 7.2959V16.2959C7.25 16.434 7.36193 16.5459 7.5 16.5459H16.5C16.6381 16.5459 16.75 16.434 16.75 16.2959V7.2959C16.75 7.15783 16.6381 7.0459 16.5 7.0459H7.5Z" fill="#446ECA"/>
</svg>
