<svg width="24" height="24" viewBox="0 0 24 24" xmlns="http://www.w3.org/2000/svg">
<path d="M15.2061 1.74951C15.4056 1.74951 15.5975 1.82874 15.7383 1.97021L20.71 6.97021L20.8018 7.0835C20.8825 7.20461 20.9269 7.34797 20.9277 7.49561L21 20.4897C21.0052 21.4597 20.221 22.2493 19.251 22.2495H14.7559C14.3419 22.2493 14.006 21.9135 14.0059 21.4995C14.0059 21.0854 14.3418 20.7497 14.7559 20.7495H19.251C19.3891 20.7493 19.5013 20.6367 19.501 20.4985L19.4316 8.24951H15.3066C14.8375 8.24945 14.4564 7.86898 14.4561 7.3999V3.24951H7.25586C7.11784 3.24957 7.00586 3.36148 7.00586 3.49951V10.9995C7.00569 11.4136 6.66997 11.7495 6.25586 11.7495C5.8418 11.7495 5.50603 11.4135 5.50586 10.9995V3.49951C5.50586 2.53305 6.28941 1.74957 7.25586 1.74951H15.2061ZM15.9561 6.74951H18.374L15.9561 4.31689V6.74951Z" fill="#444444"/>
<path d="M8.7561 12.999C5.99468 12.999 3.7561 15.2376 3.7561 17.999C3.7561 20.7604 5.99468 22.999 8.7561 22.999C11.5175 22.999 13.7561 20.7604 13.7561 17.999C13.7561 15.2376 11.5175 12.999 8.7561 12.999ZM8.7561 14.499C10.6891 14.499 12.2561 16.066 12.2561 17.999C12.2561 19.932 10.6891 21.499 8.7561 21.499C6.82311 21.499 5.2561 19.932 5.2561 17.999C5.2561 16.066 6.82311 14.499 8.7561 14.499ZM8.7561 17.249C8.34189 17.249 8.0061 17.5848 8.0061 17.999V19.999C8.0061 20.4132 8.34189 20.749 8.7561 20.749C9.17032 20.749 9.5061 20.4132 9.5061 19.999V17.999C9.5061 17.5848 9.17032 17.249 8.7561 17.249ZM8.75317 15.249C8.33896 15.249 8.00317 15.5848 8.00317 15.999C8.00317 16.4132 8.33896 16.749 8.75317 16.749H8.7561C9.17032 16.749 9.5061 16.4132 9.5061 15.999C9.5061 15.5848 9.17032 15.249 8.7561 15.249H8.75317Z" fill="#446ECA"/>
</svg>
