<svg width="24" height="24" viewBox="0 0 24 24" xmlns="http://www.w3.org/2000/svg">
<path d="M10.6152 2.25C15.2353 2.25 18.9804 5.99523 18.9805 10.6152C18.9805 12.6549 18.2491 14.5229 17.0361 15.9746L21.5303 20.4697C21.8232 20.7626 21.8232 21.2374 21.5303 21.5303C21.2374 21.8232 20.7626 21.8232 20.4697 21.5303L15.9746 17.0361C14.5229 18.2491 12.6549 18.9805 10.6152 18.9805C5.99523 18.9804 2.25 15.2353 2.25 10.6152C2.25009 5.99528 5.99528 2.25008 10.6152 2.25ZM10.6152 3.75C6.82371 3.75008 3.75009 6.8237 3.75 10.6152C3.75 14.4068 6.82366 17.4804 10.6152 17.4805C14.4069 17.4805 17.4805 14.4069 17.4805 10.6152C17.4804 6.82365 14.4068 3.75 10.6152 3.75Z" fill="#444444"/>
</svg>
