<svg width="24" height="24" viewBox="0 0 24 24" xmlns="http://www.w3.org/2000/svg">
<path d="M12 6.25C12.4142 6.25 12.75 6.58579 12.75 7C12.75 7.41421 12.4142 7.75 12 7.75H8.75V18C8.75 18.4142 8.41421 18.75 8 18.75C7.58579 18.75 7.25 18.4142 7.25 18V7.75H4C3.58579 7.75 3.25 7.41421 3.25 7C3.25 6.58579 3.58579 6.25 4 6.25H12ZM20 10.25C20.4142 10.25 20.75 10.5858 20.75 11C20.75 11.4142 20.4142 11.75 20 11.75H17.75V18C17.75 18.4142 17.4142 18.75 17 18.75C16.5858 18.75 16.25 18.4142 16.25 18V11.75H14C13.5858 11.75 13.25 11.4142 13.25 11C13.25 10.5858 13.5858 10.25 14 10.25H20Z" fill="#444444"/>
</svg>
