<svg width="24" height="24" viewBox="0 0 24 24" xmlns="http://www.w3.org/2000/svg">
<path d="M19.5 7.5459C20.4665 7.5459 21.25 8.3294 21.25 9.2959V19.2959C21.25 20.2624 20.4665 21.0459 19.5 21.0459H9.5C8.5335 21.0459 7.75 20.2624 7.75 19.2959V15.2959C7.75 14.8817 8.08579 14.5459 8.5 14.5459H14.5C14.6381 14.5459 14.75 14.434 14.75 14.2959V8.2959C14.75 7.88169 15.0858 7.5459 15.5 7.5459H19.5Z" fill="#DCE7FA"/>
<path d="M19.5 7.5459C20.4665 7.5459 21.25 8.3294 21.25 9.2959V19.2959C21.25 20.2624 20.4665 21.0459 19.5 21.0459H9.5C8.5335 21.0459 7.75 20.2624 7.75 19.2959V15.2959C7.75 14.8817 8.08579 14.5459 8.5 14.5459H14.5C14.6381 14.5459 14.75 14.434 14.75 14.2959V8.2959C14.75 7.88169 15.0858 7.5459 15.5 7.5459H19.5ZM16.25 14.2959C16.25 15.2624 15.4665 16.0459 14.5 16.0459H9.25V19.2959C9.25 19.434 9.36193 19.5459 9.5 19.5459H19.5C19.6381 19.5459 19.75 19.434 19.75 19.2959V9.2959C19.75 9.15783 19.6381 9.0459 19.5 9.0459H16.25V14.2959Z" fill="#446ECA"/>
<path d="M14.5005 2.5459C15.4667 2.54616 16.2504 3.32962 16.2505 4.2959V14.2959C16.2505 15.2624 15.466 16.0459 14.4995 16.0459H4.49951C3.53324 16.0456 2.75049 15.2622 2.75049 14.2959V4.2959C2.75055 3.32946 3.53403 2.5459 4.50049 2.5459H14.5005ZM4.50049 4.0459C4.36246 4.0459 4.25055 4.15788 4.25049 4.2959V14.2959C4.25049 14.434 4.36242 14.5459 4.50049 14.5459H14.5005C14.6383 14.5456 14.7505 14.4338 14.7505 14.2959V4.2959C14.7504 4.15805 14.6383 4.04616 14.5005 4.0459H4.50049Z" fill="#444444"/>
</svg>
