<svg width="24" height="24" viewBox="0 0 24 24" xmlns="http://www.w3.org/2000/svg">
<path d="M4.5 7.54297C3.53373 7.54323 2.75 8.32663 2.75 9.29297V19.293C2.75 20.2595 3.53448 21.043 4.50098 21.043H14.501C15.4673 21.0427 16.25 20.2593 16.25 19.293V15.293C16.25 14.8788 15.9142 14.543 15.5 14.543C15.086 14.5432 14.75 14.8789 14.75 15.293V19.293C14.75 19.431 14.6381 19.543 14.5 19.543H4.5C4.36215 19.5427 4.25 19.4309 4.25 19.293V9.29297C4.25 9.15506 4.36215 9.04323 4.5 9.04297H8.5C8.91421 9.04297 9.25 8.70718 9.25 8.29297C9.25 7.87876 8.91421 7.54297 8.5 7.54297H4.5Z" fill="#444444"/>
<path d="M9.50049 2.54297C8.53399 2.54297 7.75049 3.32647 7.75049 4.29297V14.293C7.75049 15.2595 8.53399 16.043 9.50049 16.043H19.5005C20.467 16.043 21.2505 15.2595 21.2505 14.293V4.29297L21.2417 4.11426C21.1582 3.29045 20.503 2.63531 19.6792 2.55176L19.5005 2.54297H9.50049Z" fill="#DCE7FA"/>
<path d="M9.50049 2.54297C8.53399 2.54297 7.75049 3.32647 7.75049 4.29297V14.293C7.75049 15.2595 8.53399 16.043 9.50049 16.043H19.5005C20.467 16.043 21.2505 15.2595 21.2505 14.293V4.29297C21.2505 3.32647 20.467 2.54297 19.5005 2.54297H9.50049ZM19.5005 4.04297C19.6386 4.04297 19.7505 4.1549 19.7505 4.29297V14.293C19.7505 14.431 19.6386 14.543 19.5005 14.543H9.50049C9.36242 14.543 9.25049 14.431 9.25049 14.293V4.29297C9.25049 4.1549 9.36242 4.04297 9.50049 4.04297H19.5005Z" fill="#446ECA"/>
</svg>
