<svg width="24" height="24" viewBox="0 0 24 24" xmlns="http://www.w3.org/2000/svg">
<path d="M12 1.87402C17.5918 1.87419 22.1258 6.40721 22.126 11.999C22.1258 17.5908 17.5918 22.1248 12 22.125C6.40819 22.1248 1.87516 17.5908 1.875 11.999C1.87517 6.40721 6.40819 1.87419 12 1.87402ZM12 3.37402C7.23662 3.37419 3.37517 7.23564 3.375 11.999C3.37516 16.7624 7.23662 20.6248 12 20.625C16.7634 20.6248 20.6258 16.7624 20.626 11.999C20.6258 7.23564 16.7634 3.37419 12 3.37402ZM12.002 16.4551C12.4157 16.4555 12.7519 16.7912 12.752 17.2051C12.752 17.619 12.4158 17.9546 12.002 17.9551H11.9922C11.578 17.9551 11.2422 17.6193 11.2422 17.2051C11.2423 16.7909 11.578 16.4551 11.9922 16.4551H12.002ZM12.0283 6.04297C13.5904 6.04315 14.8389 7.36141 14.8389 8.88574C14.8387 9.46033 14.628 9.96566 14.4121 10.3428C14.1943 10.7232 13.9372 11.0306 13.7949 11.2021C13.4796 11.5824 13.2036 11.9433 13.0088 12.2656C12.8007 12.6101 12.749 12.8099 12.749 12.8896V13.5557C12.7488 13.9696 12.413 14.3055 11.999 14.3057C11.585 14.3056 11.2492 13.9697 11.249 13.5557V12.8896C11.249 12.3827 11.4846 11.8875 11.7246 11.4902C11.9781 11.0707 12.3119 10.6415 12.6406 10.2451C12.7844 10.0717 12.9631 9.8531 13.1094 9.59766C13.2575 9.33898 13.3387 9.09747 13.3389 8.88574C13.3389 8.15731 12.7298 7.54316 12.0283 7.54297C11.2644 7.54297 10.666 8.05862 10.666 8.88574C10.6657 9.29962 10.3299 9.63558 9.91602 9.63574C9.50213 9.63556 9.16629 9.29961 9.16602 8.88574C9.16602 7.14082 10.5283 6.04297 12.0283 6.04297Z" fill="#444444"/>
</svg>
