<svg width="24" height="24" viewBox="0 0 24 24" xmlns="http://www.w3.org/2000/svg">
<path d="M15 1.7959C15.9665 1.7959 16.75 2.5794 16.75 3.5459V5.7959H20C20.4142 5.7959 20.75 6.13168 20.75 6.5459C20.75 6.96011 20.4142 7.2959 20 7.2959H18.75V19.5459C18.75 20.5124 17.9665 21.2959 17 21.2959H7C6.0335 21.2959 5.25 20.5124 5.25 19.5459V7.2959H4C3.58579 7.2959 3.25 6.96011 3.25 6.5459C3.25 6.13168 3.58579 5.7959 4 5.7959H7.25V3.5459C7.25 2.5794 8.0335 1.7959 9 1.7959H15ZM6.75 19.5459C6.75 19.684 6.86193 19.7959 7 19.7959H17C17.1381 19.7959 17.25 19.684 17.25 19.5459V7.2959H6.75V19.5459ZM10 9.7959C10.4142 9.7959 10.75 10.1317 10.75 10.5459V16.5459C10.75 16.9601 10.4142 17.2959 10 17.2959C9.58579 17.2959 9.25 16.9601 9.25 16.5459V10.5459C9.25 10.1317 9.58579 9.7959 10 9.7959ZM14 9.7959C14.4142 9.7959 14.75 10.1317 14.75 10.5459V16.5459C14.75 16.9601 14.4142 17.2959 14 17.2959C13.5858 17.2959 13.25 16.9601 13.25 16.5459V10.5459C13.25 10.1317 13.5858 9.7959 14 9.7959ZM9 3.2959C8.86193 3.2959 8.75 3.40783 8.75 3.5459V5.7959H15.25V3.5459C15.25 3.40783 15.1381 3.2959 15 3.2959H9Z" fill="#444444"/>
</svg>
