<svg width="24" height="24" viewBox="0 0 24 24" xmlns="http://www.w3.org/2000/svg">
<path opacity="0.4" d="M1.5 18.0459C1.91421 18.0459 2.25 18.3817 2.25 18.7959V20.2959C2.25013 20.4338 2.36212 20.5458 2.5 20.5459H4C4.41421 20.5459 4.75 20.8817 4.75 21.2959C4.74987 21.71 4.41412 22.0459 4 22.0459H2.5C1.5337 22.0458 0.750132 21.2622 0.75 20.2959V18.7959C0.75 18.3818 1.0859 18.046 1.5 18.0459ZM10 20.5459C10.4142 20.546 10.75 20.8817 10.75 21.2959C10.7499 21.71 10.4141 22.0458 10 22.0459H7C6.58598 22.0458 6.25013 21.7099 6.25 21.2959C6.25 20.8818 6.5859 20.546 7 20.5459H10ZM16 20.5459C16.4141 20.546 16.75 20.8817 16.75 21.2959C16.7499 21.7099 16.414 22.0458 16 22.0459H13C12.586 22.0458 12.2501 21.7099 12.25 21.2959C12.25 20.8818 12.5859 20.546 13 20.5459H16ZM21.5 18.0459C21.9141 18.046 22.25 18.3818 22.25 18.7959V20.2959C22.2499 21.2622 21.4663 22.0458 20.5 22.0459H19C18.586 22.0458 18.2501 21.7099 18.25 21.2959C18.25 20.8818 18.5859 20.546 19 20.5459H20.5C20.6379 20.5458 20.7499 20.4338 20.75 20.2959V18.7959C20.75 18.3818 21.0859 18.046 21.5 18.0459ZM1.5 12.0459C1.91421 12.0459 2.25 12.3817 2.25 12.7959V15.7959C2.2499 16.21 1.91415 16.5459 1.5 16.5459C1.08596 16.5458 0.750099 16.2099 0.75 15.7959V12.7959C0.75 12.3818 1.0859 12.046 1.5 12.0459ZM21.5 12.0459C21.9141 12.046 22.25 12.3818 22.25 12.7959V15.7959C22.2499 16.2099 21.914 16.5458 21.5 16.5459C21.086 16.5458 20.7501 16.2099 20.75 15.7959V12.7959C20.75 12.3818 21.0859 12.046 21.5 12.0459ZM1.5 6.0459C1.91421 6.0459 2.25 6.38168 2.25 6.7959V9.7959L2.24609 9.87207C2.20786 10.2504 1.88845 10.5459 1.5 10.5459C1.11165 10.5458 0.79212 10.2504 0.753906 9.87207L0.75 9.7959V6.7959C0.75 6.38177 1.0859 6.04603 1.5 6.0459ZM21.5 6.0459C21.9141 6.04603 22.25 6.38177 22.25 6.7959V9.7959C22.2499 10.21 21.9141 10.5458 21.5 10.5459C21.0859 10.5458 20.7501 10.21 20.75 9.7959V6.7959C20.75 6.38177 21.0859 6.04603 21.5 6.0459ZM4 0.545898C4.4142 0.54591 4.75 0.881692 4.75 1.2959C4.75 1.71011 4.4142 2.04589 4 2.0459H2.5C2.36204 2.04603 2.25 2.15791 2.25 2.2959V3.7959C2.24999 4.2101 1.91421 4.5459 1.5 4.5459C1.0859 4.54577 0.75001 4.21002 0.75 3.7959V2.2959C0.75 1.32948 1.53361 0.54603 2.5 0.545898H4ZM20.5 0.545898C21.4664 0.54603 22.25 1.32948 22.25 2.2959V3.7959C22.25 4.21002 21.9141 4.54577 21.5 4.5459C21.0859 4.54577 20.75 4.21002 20.75 3.7959V2.2959C20.75 2.15791 20.638 2.04603 20.5 2.0459H19C18.5859 2.04577 18.25 1.71003 18.25 1.2959C18.25 0.881766 18.5859 0.54603 19 0.545898H20.5ZM10 0.545898C10.4142 0.545954 10.75 0.881719 10.75 1.2959C10.75 1.71008 10.4142 2.04584 10 2.0459H7C6.5859 2.04577 6.25 1.71003 6.25 1.2959C6.25 0.881766 6.5859 0.54603 7 0.545898H10ZM16 0.545898C16.4141 0.545998 16.75 0.881746 16.75 1.2959C16.75 1.71005 16.4141 2.0458 16 2.0459H13C12.5859 2.04577 12.25 1.71003 12.25 1.2959C12.25 0.881766 12.5859 0.54603 13 0.545898H16Z" fill="#444444"/>
<path d="M3.25 11.2959C3.25 11.71 3.58596 12.0457 4 12.0459L18.999 12.0459C19.4132 12.0459 19.749 11.7101 19.749 11.2959C19.749 10.8817 19.4132 10.5459 18.999 10.5459L4 10.5459C3.58596 10.5461 3.25 10.8818 3.25 11.2959Z" fill="#446ECA"/>
<path d="M11.5 3.0459C11.0858 3.0459 10.75 3.38168 10.75 3.7959V18.7959C10.7501 19.21 11.0859 19.5459 11.5 19.5459C11.9141 19.5459 12.2499 19.21 12.25 18.7959V3.7959C12.25 3.38168 11.9142 3.0459 11.5 3.0459Z" fill="#446ECA"/>
</svg>
