<svg width="24" height="24" viewBox="0 0 24 24" xmlns="http://www.w3.org/2000/svg">
<path d="M2.75 16.7959C2.33604 16.7956 2 16.4599 2 16.0459C2 15.6319 2.33604 15.2962 2.75 15.2959H21.2715C21.6857 15.2959 22.0225 15.6317 22.0225 16.0459C22.0225 16.4601 21.6857 16.7959 21.2715 16.7959H2.75ZM2.75 19.7959C2.33604 19.7956 2 19.4599 2 19.0459C2 18.6319 2.33604 18.2962 2.75 18.2959H21.2715C21.6857 18.2959 22.0225 18.6317 22.0225 19.0459C22.0225 19.4601 21.6857 19.7959 21.2715 19.7959H2.75Z" fill="#444444"/>
<path d="M12.7036 13.9341C12.3435 14.2702 11.797 14.2915 11.4136 13.9976L11.3384 13.9341L9.00928 11.7603C8.70675 11.4776 8.69061 11.0034 8.97314 10.7007C9.25567 10.3981 9.72994 10.3813 10.0327 10.6636L11.271 11.8198V3.54541C11.2712 3.1314 11.607 2.79548 12.021 2.79541C12.4351 2.79541 12.7708 3.13136 12.771 3.54541V11.8198L14.0093 10.6636C14.312 10.3812 14.7863 10.3982 15.0688 10.7007C15.3514 11.0034 15.3354 11.4776 15.0327 11.7603L12.7036 13.9341Z" fill="#446ECA"/>
</svg>
