<svg width="24" height="24" viewBox="0 0 24 24" xmlns="http://www.w3.org/2000/svg">
<path d="M13.376 5.58398C13.6057 5.23938 14.0714 5.14628 14.416 5.37598C14.7607 5.60574 14.8538 6.07137 14.624 6.41602L10.9014 12L14.624 17.584C14.8538 17.9286 14.7607 18.3943 14.416 18.624C14.0714 18.8538 13.6057 18.7607 13.376 18.416L10 13.3516L6.62402 18.416C6.39426 18.7607 5.92863 18.8538 5.58398 18.624C5.2394 18.3942 5.14623 17.9286 5.37598 17.584L9.09863 12L5.37598 6.41602C5.14628 6.07138 5.23938 5.60573 5.58398 5.37598C5.92861 5.14623 6.39424 5.2394 6.62402 5.58398L10 10.6475L13.376 5.58398Z" fill="#444444"/>
<path d="M18.1377 13C19.1661 13 20 13.8339 20 14.8623C19.9999 15.4148 19.7545 15.9392 19.3301 16.293L17.2812 18H19.5C19.7761 18 20 18.2239 20 18.5C20 18.7761 19.7761 19 19.5 19H16.8408C16.3766 19 16 18.6234 16 18.1592C16.0001 17.9098 16.1112 17.6733 16.3027 17.5137L18.6895 15.5244C18.8859 15.3607 18.9999 15.1181 19 14.8623C19 14.3862 18.6138 14 18.1377 14H18C17.4477 14 17 14.4477 17 15C17 15.2761 16.7761 15.5 16.5 15.5C16.2239 15.5 16 15.2761 16 15C16 13.8954 16.8954 13 18 13H18.1377Z" fill="#446ECA"/>
</svg>
