<svg width="24" height="24" viewBox="0 0 24 24" xmlns="http://www.w3.org/2000/svg">
<path d="M20 17.25C20.4142 17.25 20.75 17.5858 20.75 18C20.75 18.4142 20.4142 18.75 20 18.75H10C9.58579 18.75 9.25 18.4142 9.25 18C9.25 17.5858 9.58579 17.25 10 17.25H20ZM20 11.25C20.4142 11.25 20.75 11.5858 20.75 12C20.75 12.4142 20.4142 12.75 20 12.75H10C9.58579 12.75 9.25 12.4142 9.25 12C9.25 11.5858 9.58579 11.25 10 11.25H20ZM20 5.25C20.4142 5.25 20.75 5.58579 20.75 6C20.75 6.41421 20.4142 6.75 20 6.75H10C9.58579 6.75 9.25 6.41421 9.25 6C9.25 5.58579 9.58579 5.25 10 5.25H20Z" fill="#444444"/>
<path d="M5 16.25C5.9665 16.25 6.75 17.0335 6.75 18C6.75 18.9665 5.9665 19.75 5 19.75C4.0335 19.75 3.25 18.9665 3.25 18C3.25 17.0335 4.0335 16.25 5 16.25ZM5 10.25C5.9665 10.25 6.75 11.0335 6.75 12C6.75 12.9665 5.9665 13.75 5 13.75C4.0335 13.75 3.25 12.9665 3.25 12C3.25 11.0335 4.0335 10.25 5 10.25ZM5 4.25C5.9665 4.25 6.75 5.0335 6.75 6C6.75 6.9665 5.9665 7.75 5 7.75C4.0335 7.75 3.25 6.9665 3.25 6C3.25 5.0335 4.0335 4.25 5 4.25Z" fill="#446ECA"/>
</svg>
