<svg width="24" height="24" viewBox="0 0 24 24" xmlns="http://www.w3.org/2000/svg">
<path d="M6.96997 8.46973C7.26287 8.17689 7.73764 8.17685 8.03052 8.46973C8.32314 8.76262 8.32327 9.23746 8.03052 9.53027L5.56079 12L8.03052 14.4697C8.32314 14.7626 8.32327 15.2375 8.03052 15.5303C7.7377 15.8231 7.26288 15.8229 6.96997 15.5303L3.96997 12.5303C3.67708 12.2374 3.6771 11.7626 3.96997 11.4697L6.96997 8.46973Z" fill="#446ECA"/>
<path d="M20 19.25C20.4142 19.25 20.75 19.5858 20.75 20C20.75 20.4142 20.4142 20.75 20 20.75H4C3.58579 20.75 3.25 20.4142 3.25 20C3.25 19.5858 3.58579 19.25 4 19.25H20ZM20 15.25C20.4142 15.25 20.75 15.5858 20.75 16C20.75 16.4142 20.4142 16.75 20 16.75H12C11.5858 16.75 11.25 16.4142 11.25 16C11.25 15.5858 11.5858 15.25 12 15.25H20ZM20 11.25C20.4142 11.25 20.75 11.5858 20.75 12C20.75 12.4142 20.4142 12.75 20 12.75H12C11.5858 12.75 11.25 12.4142 11.25 12C11.25 11.5858 11.5858 11.25 12 11.25H20ZM20 7.25C20.4142 7.25 20.75 7.58579 20.75 8C20.75 8.41421 20.4142 8.75 20 8.75H12C11.5858 8.75 11.25 8.41421 11.25 8C11.25 7.58579 11.5858 7.25 12 7.25H20ZM20 3.25C20.4142 3.25 20.75 3.58579 20.75 4C20.75 4.41421 20.4142 4.75 20 4.75H4C3.58579 4.75 3.25 4.41421 3.25 4C3.25 3.58579 3.58579 3.25 4 3.25H20Z" fill="#444444"/>
</svg>
