<svg width="24" height="24" viewBox="0 0 24 24" xmlns="http://www.w3.org/2000/svg">
<path d="M17.5 3.5459C17.9142 3.5459 18.25 3.88168 18.25 4.2959V4.5459H19.5C19.9142 4.5459 20.25 4.88168 20.25 5.2959C20.25 5.71011 19.9142 6.0459 19.5 6.0459H18.25V11.5459H19.5C19.9142 11.5459 20.25 11.8817 20.25 12.2959C20.25 12.7101 19.9142 13.0459 19.5 13.0459H18.25V18.5459H19.5C19.9142 18.5459 20.25 18.8817 20.25 19.2959C20.25 19.7101 19.9142 20.0459 19.5 20.0459H18.25V20.2959C18.25 20.7101 17.9142 21.0459 17.5 21.0459C17.0858 21.0459 16.75 20.7101 16.75 20.2959V20.0459H15.5C15.0858 20.0459 14.75 19.7101 14.75 19.2959C14.75 18.8817 15.0858 18.5459 15.5 18.5459H16.75V13.0459H15.5C15.0858 13.0459 14.75 12.7101 14.75 12.2959C14.75 11.8817 15.0858 11.5459 15.5 11.5459H16.75V6.0459H15.5C15.0858 6.0459 14.75 5.71011 14.75 5.2959C14.75 4.88168 15.0858 4.5459 15.5 4.5459H16.75V4.2959C16.75 3.88168 17.0858 3.5459 17.5 3.5459Z" fill="#446ECA"/>
<path d="M11.5 2.5459C12.4665 2.5459 13.25 3.3294 13.25 4.2959V20.2959C13.2497 21.2622 12.4663 22.0459 11.5 22.0459H5.5C4.5337 22.0459 3.75026 21.2621 3.75 20.2959V4.2959C3.75 3.32943 4.53354 2.54594 5.5 2.5459H11.5ZM5.25 20.2959C5.25026 20.4337 5.36213 20.5459 5.5 20.5459H11.5C11.6379 20.5459 11.7497 20.4337 11.75 20.2959V13.0459H5.25V20.2959ZM5.5 4.0459C5.36196 4.04594 5.25 4.15785 5.25 4.2959V11.5459H11.75V4.2959C11.75 4.15783 11.6381 4.0459 11.5 4.0459H5.5Z" fill="#444444"/>
</svg>
