<svg width="24" height="24" viewBox="0 0 24 24" xmlns="http://www.w3.org/2000/svg">
<path d="M16.5 6.2959C17.0523 6.2959 17.5 6.74361 17.5 7.2959V13.2959H14.5C13.9477 13.2959 13.5 13.7436 13.5 14.2959V17.2959H7.5C6.94771 17.2959 6.5 16.8482 6.5 16.2959V10.2959H9.5C10.0523 10.2959 10.5 9.84818 10.5 9.2959V6.2959H16.5Z" fill="#DCE7FA"/>
<path d="M16.5 5.5459C17.4665 5.5459 18.25 6.3294 18.25 7.2959V13.2959C18.25 13.7101 17.9142 14.0459 17.5 14.0459H14.5C14.3619 14.0459 14.25 14.1578 14.25 14.2959V17.2959C14.25 17.4948 14.1709 17.6855 14.0303 17.8262C13.8896 17.9668 13.6989 18.0459 13.5 18.0459H7.5C6.5335 18.0459 5.75 17.2624 5.75 16.2959V10.2959C5.75 10.097 5.82908 9.90628 5.96973 9.76562C6.11038 9.62497 6.30109 9.5459 6.5 9.5459H9.5C9.63807 9.5459 9.75 9.43397 9.75 9.2959V6.2959C9.75 5.88169 10.0858 5.5459 10.5 5.5459H16.5ZM11.25 9.2959C11.25 10.2624 10.4665 11.0459 9.5 11.0459H7.25V16.2959C7.25 16.434 7.36193 16.5459 7.5 16.5459H12.75V14.2959C12.75 13.3294 13.5335 12.5459 14.5 12.5459H16.75V7.2959C16.75 7.15783 16.6381 7.0459 16.5 7.0459H11.25V9.2959Z" fill="#446ECA"/>
<path d="M19.5 12.5464C20.4665 12.5464 21.25 13.3299 21.25 14.2964V19.2964C21.2497 20.2627 20.4663 21.0464 19.5 21.0464H14.5C13.5337 21.0464 12.7503 20.2627 12.75 19.2964V14.2964C12.75 13.3299 13.5335 12.5464 14.5 12.5464H19.5ZM14.5 14.0464C14.3619 14.0464 14.25 14.1583 14.25 14.2964V19.2964C14.2503 19.4342 14.3621 19.5464 14.5 19.5464H19.5C19.6379 19.5464 19.7497 19.4342 19.75 19.2964V14.2964C19.75 14.1583 19.6381 14.0464 19.5 14.0464H14.5ZM9.5 2.54541C10.4665 2.54541 11.25 3.32989 11.25 4.29639V9.29639C11.2497 10.2627 10.4663 11.0464 9.5 11.0464H4.5C3.53366 11.0464 2.75026 10.2627 2.75 9.29639V4.29639C2.75 3.32989 3.5335 2.54541 4.5 2.54541H9.5ZM4.5 4.04639C4.36193 4.04639 4.25 4.15832 4.25 4.29639V9.29639C4.25026 9.43423 4.36209 9.54639 4.5 9.54639H9.5C9.63791 9.54639 9.74974 9.43423 9.75 9.29639V4.29639C9.75 4.15832 9.63807 4.04639 9.5 4.04639H4.5Z" fill="#444444"/>
</svg>
