<svg width="24" height="24" viewBox="0 0 24 24" xmlns="http://www.w3.org/2000/svg">
<path d="M12.75 18C12.75 18.4142 12.4142 18.75 12 18.75C11.5858 18.75 11.25 18.4142 11.25 18V15H12.75V18ZM17 5.25C17.4142 5.25 17.75 5.58579 17.75 6C17.75 6.41421 17.4142 6.75 17 6.75H12.75V11.5H11.25V6.75H7C6.58579 6.75 6.25 6.41421 6.25 6C6.25 5.58579 6.58579 5.25 7 5.25H17Z" fill="#444444"/>
<path d="M18 13C18.2761 13 18.5 13.2239 18.5 13.5C18.5 13.7761 18.2761 14 18 14H6C5.72386 14 5.5 13.7761 5.5 13.5C5.5 13.2239 5.72386 13 6 13H18ZM18 11C18.2761 11 18.5 11.2239 18.5 11.5C18.5 11.7761 18.2761 12 18 12H6C5.72386 12 5.5 11.7761 5.5 11.5C5.5 11.2239 5.72386 11 6 11H18Z" fill="#446ECA"/>
</svg>
