<svg width="24" height="24" viewBox="0 0 24 24" xmlns="http://www.w3.org/2000/svg">
<path fill-rule="evenodd" clip-rule="evenodd" d="M18.6494 3.25961C18.9456 2.97018 19.4204 2.97536 19.71 3.27132C19.9994 3.56749 19.9943 4.04234 19.6982 4.33187L12.041 11.8153L9.55566 14.5516C11.1225 14.8012 12.3203 16.1596 12.3203 17.7967C12.3198 19.6107 10.8483 21.0819 9.03418 21.0819C7.22051 21.0814 5.7495 19.6104 5.74902 17.7967C5.74902 17.0204 6.01944 16.3062 6.46973 15.744C6.49588 15.6988 6.52798 15.6553 6.56445 15.6151L9.80469 12.0467H6C4.18596 12.0465 2.71506 10.5746 2.71484 8.76058C2.71509 6.94657 4.18598 5.47566 6 5.47543C7.81421 5.47543 9.28491 6.94642 9.28516 8.76058C9.28508 9.41908 9.0905 10.0326 8.75684 10.5467H11.1934L18.6494 3.25961ZM9.03418 16.0106C8.04865 16.0111 7.24902 16.8111 7.24902 17.7967C7.2495 18.782 8.04894 19.5814 9.03418 19.5819C10.0198 19.5819 10.8198 18.7822 10.8203 17.7967C10.8203 16.8108 10.0201 16.0106 9.03418 16.0106ZM21.5 10.5467C21.9141 10.5469 22.25 10.8826 22.25 11.2967C22.2495 11.7104 21.9138 12.0466 21.5 12.0467H15.5C15.0863 12.0465 14.7505 11.7104 14.75 11.2967C14.75 10.8826 15.086 10.5469 15.5 10.5467H21.5ZM6 6.97543C5.01441 6.97566 4.21509 7.77499 4.21484 8.76058C4.21506 9.7462 5.01439 10.5465 6 10.5467C6.98581 10.5467 7.78494 9.74634 7.78516 8.76058C7.78491 7.77485 6.98579 6.97543 6 6.97543Z" fill="#444444"/>
</svg>
