<svg width="24" height="24" viewBox="0 0 24 24" xmlns="http://www.w3.org/2000/svg">
<path d="M12 17.75C12.4142 17.75 12.75 18.0858 12.75 18.5C12.75 18.9142 12.4142 19.25 12 19.25H4C3.58579 19.25 3.25 18.9142 3.25 18.5C3.25 18.0858 3.58579 17.75 4 17.75H12ZM20 13.75C20.4142 13.75 20.75 14.0858 20.75 14.5C20.75 14.9142 20.4142 15.25 20 15.25H4C3.58579 15.25 3.25 14.9142 3.25 14.5C3.25 14.0858 3.58579 13.75 4 13.75H20ZM12 9.75C12.4142 9.75 12.75 10.0858 12.75 10.5C12.75 10.9142 12.4142 11.25 12 11.25H4C3.58579 11.25 3.25 10.9142 3.25 10.5C3.25 10.0858 3.58579 9.75 4 9.75H12ZM20 5.75C20.4142 5.75 20.75 6.08579 20.75 6.5C20.75 6.91421 20.4142 7.25 20 7.25H4C3.58579 7.25 3.25 6.91421 3.25 6.5C3.25 6.08579 3.58579 5.75 4 5.75H20Z" fill="#444444"/>
</svg>
