<svg width="24" height="24" viewBox="0 0 24 24" xmlns="http://www.w3.org/2000/svg">
<path d="M21.2715 6.5459C21.6854 6.5462 22.0215 6.88187 22.0215 7.2959C22.0215 7.70993 21.6854 8.0456 21.2715 8.0459H2.75C2.33579 8.0459 2 7.71011 2 7.2959C2 6.88168 2.33579 6.5459 2.75 6.5459H21.2715ZM21.2715 3.5459C21.6854 3.5462 22.0215 3.88187 22.0215 4.2959C22.0215 4.70993 21.6854 5.0456 21.2715 5.0459H2.75C2.33579 5.0459 2 4.71011 2 4.2959C2 3.88168 2.33579 3.5459 2.75 3.5459H21.2715Z" fill="#444444"/>
<path d="M11.3179 9.40771C11.678 9.07175 12.2245 9.05037 12.6079 9.34424L12.6831 9.40771L15.0122 11.5815C15.3146 11.8642 15.3307 12.3384 15.0483 12.6411C14.7659 12.9437 14.2916 12.9604 13.9888 12.6782L12.7505 11.522V19.7964C12.7504 20.2104 12.4144 20.5461 12.0005 20.5464C11.5863 20.5464 11.2506 20.2105 11.2505 19.7964V11.522L10.0122 12.6782C9.70951 12.9606 9.23527 12.9435 8.95264 12.6411C8.67003 12.3383 8.686 11.8642 8.98877 11.5815L11.3179 9.40771Z" fill="#446ECA"/>
</svg>
