<svg width="24" height="24" viewBox="0 0 24 24" xmlns="http://www.w3.org/2000/svg">
<path d="M9.55005 1.74951C9.35047 1.74951 9.15858 1.82874 9.01782 1.97021L4.04614 6.97021L3.95435 7.0835C3.87364 7.20461 3.8292 7.34797 3.82837 7.49561L3.7561 20.4897C3.75086 21.4597 4.53514 22.2493 5.50513 22.2495H10.0002C10.4142 22.2493 10.7501 21.9135 10.7502 21.4995C10.7502 21.0854 10.4143 20.7497 10.0002 20.7495H5.50513C5.36698 20.7493 5.25475 20.6367 5.25513 20.4985L5.32446 8.24951H9.44946C9.91862 8.24945 10.2997 7.86898 10.3 7.3999V3.24951H17.5002C17.6383 3.24957 17.7502 3.36148 17.7502 3.49951V10.9995C17.7504 11.4136 18.0861 11.7495 18.5002 11.7495C18.9143 11.7495 19.2501 11.4135 19.2502 10.9995V3.49951C19.2502 2.53305 18.4667 1.74957 17.5002 1.74951H9.55005ZM8.80005 6.74951H6.38208L8.80005 4.31689V6.74951Z" fill="#444444"/>
<path d="M16 12.999C18.7614 12.999 21 15.2376 21 17.999C21 20.7604 18.7614 22.999 16 22.999C13.2386 22.999 11 20.7604 11 17.999C11 15.2376 13.2386 12.999 16 12.999ZM16 14.499C14.067 14.499 12.5 16.066 12.5 17.999C12.5 19.932 14.067 21.499 16 21.499C17.933 21.499 19.5 19.932 19.5 17.999C19.5 16.066 17.933 14.499 16 14.499ZM16 17.249C16.4142 17.249 16.75 17.5848 16.75 17.999V19.999C16.75 20.4132 16.4142 20.749 16 20.749C15.5858 20.749 15.25 20.4132 15.25 19.999V17.999C15.25 17.5848 15.5858 17.249 16 17.249ZM16.0029 15.249C16.4171 15.249 16.7529 15.5848 16.7529 15.999C16.7529 16.4132 16.4171 16.749 16.0029 16.749H16C15.5858 16.749 15.25 16.4132 15.25 15.999C15.25 15.5848 15.5858 15.249 16 15.249H16.0029Z" fill="#446ECA"/>
</svg>
