<svg width="24" height="24" viewBox="0 0 24 24" xmlns="http://www.w3.org/2000/svg">
<path d="M16 12.999C18.6234 12.999 20.75 15.1257 20.75 17.749C20.75 20.3724 18.6234 22.499 16 22.499H8C5.37665 22.499 3.25 20.3724 3.25 17.749C3.25 15.1257 5.37665 12.999 8 12.999H16ZM8 14.499C6.20507 14.499 4.75 15.9541 4.75 17.749C4.75 19.5439 6.20507 20.999 8 20.999H16C17.7949 20.999 19.25 19.5439 19.25 17.749C19.25 15.9541 17.7949 14.499 16 14.499H8ZM8 15.749C9.10457 15.749 10 16.6445 10 17.749C10 18.8536 9.10457 19.749 8 19.749C6.89543 19.749 6 18.8536 6 17.749C6 16.6445 6.89543 15.749 8 15.749ZM16 1.99902C18.6234 1.99902 20.75 4.12567 20.75 6.74902C20.75 9.37238 18.6234 11.499 16 11.499H8C5.37665 11.499 3.25 9.37238 3.25 6.74902C3.25 4.12567 5.37665 1.99902 8 1.99902H16ZM8 3.49902C6.20507 3.49902 4.75 4.9541 4.75 6.74902C4.75 8.54395 6.20507 9.99902 8 9.99902H16C17.7949 9.99902 19.25 8.54395 19.25 6.74902C19.25 4.9541 17.7949 3.49902 16 3.49902H8ZM16 4.74902C17.1046 4.74902 18 5.64445 18 6.74902C18 7.85359 17.1046 8.74902 16 8.74902C14.8954 8.74902 14 7.85359 14 6.74902C14 5.64445 14.8954 4.74902 16 4.74902Z" fill="#444444"/>
</svg>
