<svg width="24" height="24" viewBox="0 0 24 24" xmlns="http://www.w3.org/2000/svg">
<path d="M15 5.25C15.4142 5.25 15.75 5.58579 15.75 6V16C15.75 16.4142 15.4142 16.75 15 16.75C14.5858 16.75 14.25 16.4142 14.25 16V12.4463C13.8746 12.6385 13.4507 12.75 13 12.75H11C8.92893 12.75 7.25 11.0711 7.25 9V6C7.25 5.58579 7.58579 5.25 8 5.25C8.41421 5.25 8.75 5.58579 8.75 6V9C8.75 10.2426 9.75736 11.25 11 11.25H13C13.6904 11.25 14.25 10.6904 14.25 10V6C14.25 5.58579 14.5858 5.25 15 5.25Z" fill="#444444"/>
<path d="M18 18.25C18.4142 18.25 18.75 18.5858 18.75 19C18.75 19.4142 18.4142 19.75 18 19.75H6C5.58579 19.75 5.25 19.4142 5.25 19C5.25 18.5858 5.58579 18.25 6 18.25H18Z" fill="#446ECA"/>
</svg>
