<svg width="24" height="24" viewBox="0 0 24 24" xmlns="http://www.w3.org/2000/svg">
<path fill-rule="evenodd" clip-rule="evenodd" d="M17.2197 15.9697C17.5126 15.6768 17.9874 15.6768 18.2803 15.9697L20.2803 17.9697C20.5731 18.2626 20.5732 18.7373 20.2803 19.0302L18.2803 21.0302C17.9874 21.3231 17.5126 21.3231 17.2197 21.0302C16.9268 20.7373 16.9269 20.2626 17.2197 19.9697L17.9395 19.2499H6.75C6.33581 19.2499 6.00003 18.9141 6 18.4999C6 18.0857 6.33579 17.7499 6.75 17.7499H17.9395L17.2197 17.0302C16.9268 16.7373 16.9269 16.2626 17.2197 15.9697Z" fill="#446ECA"/>
<path d="M17.5 4.75C17.9142 4.75 18.25 5.08579 18.25 5.5C18.25 5.91421 17.9142 6.25 17.5 6.25H15.25V14.5C15.25 14.9142 14.9142 15.25 14.5 15.25C14.0858 15.25 13.75 14.9142 13.75 14.5V6.25H12.25V14.5C12.25 14.9142 11.9142 15.25 11.5 15.25C11.0858 15.25 10.75 14.9142 10.75 14.5V11.25H9C7.20507 11.25 5.75 9.79493 5.75 8C5.75 6.20507 7.20507 4.75 9 4.75H17.5ZM9 6.25C8.0335 6.25 7.25 7.0335 7.25 8C7.25 8.9665 8.0335 9.75 9 9.75H10.75V6.25H9Z" fill="#444444"/>
</svg>
