<svg width="24" height="24" viewBox="0 0 24 24" xmlns="http://www.w3.org/2000/svg"><path fill-rule="evenodd" clip-rule="evenodd" d="M5.9142 2.48263L2 5.89535L3.1071 6.86061L5.68491 4.61307L5.68491 22L7.25059 22L7.25059 4.61307L9.82839 6.86061L10.9355 5.89535L7.0213 2.48263L6.46775 2L5.9142 2.48263Z" /><path d="M21.9277 12.5942L21.8993 14.2496L19.9679 14.9391L19.9162 17.9517L21.8256 18.5424L21.7979 20.1567L13.3952 17.3594L13.4228 15.7502L21.9277 12.5942ZM18.5353 15.4508L15.3807 16.5406L18.5 17.5072L18.5353 15.4508Z" /><path d="M13.4994 11.0787L13.5511 8.06604C13.5614 7.46968 13.5978 7.02537 13.6605 6.7331C13.7194 6.43747 13.8392 6.1734 14.0199 5.94087C14.2008 5.70492 14.4405 5.50741 14.7391 5.34834C15.0339 5.18933 15.3639 5.10684 15.7291 5.10087C16.1251 5.0944 16.4867 5.18442 16.814 5.37095C17.1413 5.55405 17.3849 5.80704 17.5446 6.12994C17.7024 5.66822 17.9641 5.31103 18.3296 5.05835C18.6952 4.80567 19.1221 4.67534 19.6103 4.66736C19.9947 4.66107 20.3681 4.73549 20.7306 4.8906C21.0892 5.04235 21.3757 5.25524 21.59 5.52927C21.8006 5.79994 21.9274 6.13708 21.9704 6.54069C21.9968 6.79381 22.0056 7.40527 21.9966 8.37509V11.0787H13.4994ZM14.9325 9.53393L16.8872 9.50197L16.9043 8.50461C16.9145 7.91168 16.9112 7.5434 16.8945 7.39976C16.8643 7.13985 16.7679 6.93756 16.6051 6.79289C16.4386 6.64485 16.2188 6.57306 15.9459 6.57752C15.6845 6.5818 15.472 6.65037 15.3083 6.78325C15.1408 6.91277 15.0376 7.10462 14.9986 7.35881C14.9768 7.50993 14.9598 7.94364 14.9475 8.65996L14.9325 9.53393ZM18.2941 9.47896L20.5545 9.442L20.5786 8.03336C20.588 7.48499 20.5767 7.1374 20.5446 6.99059C20.5024 6.76514 20.3941 6.58359 20.2196 6.44597C20.0414 6.30497 19.8024 6.23693 19.5026 6.24183C19.2489 6.24598 19.0327 6.30434 18.854 6.4169C18.6753 6.52947 18.5437 6.69095 18.4594 6.90133C18.3752 7.10829 18.3271 7.55794 18.3152 8.25026L18.2941 9.47896Z" /></svg>