<svg width="24" height="24" viewBox="0 0 24 24" xmlns="http://www.w3.org/2000/svg">
<path d="M20.5 0.545898C21.4665 0.545898 22.25 1.3294 22.25 2.2959V20.2959C22.25 21.2624 21.4665 22.0459 20.5 22.0459H2.5C1.53369 22.0457 0.75 21.2623 0.75 20.2959V2.2959C0.75 1.32954 1.5337 0.546126 2.5 0.545898H20.5ZM2.25 20.2959C2.25 20.4338 2.36212 20.5457 2.5 20.5459H10.75V12.0469H2.25V20.2959ZM12.25 20.5459H20.5C20.6381 20.5459 20.75 20.434 20.75 20.2959V12.0469H12.25V20.5459ZM12.25 10.5469H20.75V2.2959C20.75 2.15783 20.6381 2.0459 20.5 2.0459H12.25V10.5469ZM2.5 2.0459C2.36212 2.04613 2.25 2.15797 2.25 2.2959V10.5469H10.75V2.0459H2.5Z" fill="#446ECA"/>
</svg>
