<svg width="64" height="65" viewBox="0 0 64 65" fill="none" xmlns="http://www.w3.org/2000/svg"><rect opacity="0.3" x="21" y="13.998" width="35" height="1" fill="#444444"/><rect opacity="0.3" x="21" y="31.998" width="35" height="1" fill="#444444"/><rect opacity="0.3" x="21" y="49.998" width="35" height="1" fill="#444444"/><path d="M8.52441 18.2407C8.99707 18.2407 9.38737 18.1047 9.69531 17.8325C10.0068 17.5568 10.1626 17.2113 10.1626 16.7959V16.3286L8.64795 16.4253C7.76709 16.479 7.32666 16.7887 7.32666 17.3545C7.32666 17.623 7.43408 17.8379 7.64893 17.999C7.86735 18.1602 8.15918 18.2407 8.52441 18.2407ZM8.32568 19.0518C7.73844 19.0518 7.26579 18.896 6.90771 18.5845C6.54964 18.2729 6.37061 17.8612 6.37061 17.3491C6.37061 16.8514 6.5568 16.4611 6.9292 16.1782C7.3016 15.8918 7.8387 15.7271 8.54053 15.6841L10.1626 15.5874V15.104C10.1626 14.7459 10.048 14.4702 9.81885 14.2769C9.58968 14.0835 9.26204 13.9868 8.83594 13.9868C8.49935 13.9868 8.21468 14.0674 7.98193 14.2285C7.75277 14.3896 7.60954 14.6063 7.55225 14.8784H6.65527C6.6696 14.3914 6.88623 13.9832 7.30518 13.6538C7.72412 13.3208 8.23796 13.1543 8.84668 13.1543C9.5306 13.1543 10.0767 13.3244 10.4849 13.6646C10.8931 14.0011 11.0972 14.4541 11.0972 15.0234V18.998H10.2109V17.9937H10.1895C10.0247 18.3159 9.77409 18.5737 9.4375 18.7671C9.10091 18.9569 8.73031 19.0518 8.32568 19.0518ZM11.9028 20.4858C12.0246 20.2782 12.1159 20.1152 12.1768 19.9971C12.2412 19.8825 12.3343 19.6981 12.4561 19.4438C12.5814 19.1896 12.6799 18.9479 12.7515 18.7188C12.8267 18.4896 12.9036 18.2192 12.9824 17.9077C13.0648 17.5962 13.1257 17.2614 13.165 16.9033C13.2044 16.5417 13.2241 16.1639 13.2241 15.77C13.2241 15.1935 13.1776 14.6421 13.0845 14.1157C12.9914 13.5894 12.8714 13.1418 12.7246 12.7729C12.5778 12.4041 12.4364 12.098 12.3003 11.8545C12.1642 11.6074 12.0282 11.4069 11.8921 11.2529H12.6763C12.8446 11.4678 12.986 11.6593 13.1006 11.8276C13.2152 11.9924 13.3459 12.2179 13.4927 12.5044C13.6431 12.7909 13.763 13.0791 13.8525 13.3691C13.9421 13.6592 14.019 14.0155 14.0835 14.438C14.1479 14.8569 14.1802 15.3045 14.1802 15.7808C14.1802 17.7036 13.695 19.272 12.7246 20.4858H11.9028Z" fill="#444444"/><path d="M9.48047 37.0518C9.05794 37.0518 8.68555 36.964 8.36328 36.7886C8.04102 36.6095 7.78499 36.3535 7.59521 36.0205H7.57373V36.998H6.6875V28.9092H7.62207V32.1479H7.64355C7.82617 31.8293 8.07861 31.584 8.40088 31.4121C8.72314 31.2402 9.09017 31.1543 9.50195 31.1543C10.2324 31.1543 10.8232 31.4264 11.2744 31.9707C11.7256 32.5114 11.9512 33.2222 11.9512 34.103C11.9512 34.9875 11.7238 35.7 11.269 36.2407C10.8179 36.7814 10.2217 37.0518 9.48047 37.0518ZM9.31396 31.9868C8.80908 31.9868 8.39909 32.1838 8.08398 32.5776C7.77246 32.9679 7.6167 33.4764 7.6167 34.103C7.6167 34.7332 7.77246 35.2435 8.08398 35.6338C8.39909 36.0241 8.80908 36.2192 9.31396 36.2192C9.82243 36.2192 10.2288 36.0277 10.5332 35.6445C10.8411 35.2614 10.9951 34.7476 10.9951 34.103C10.9951 33.4621 10.8411 32.95 10.5332 32.5669C10.2288 32.1802 9.82243 31.9868 9.31396 31.9868ZM12.5044 38.4858C12.6261 38.2782 12.7174 38.1152 12.7783 37.9971C12.8428 37.8825 12.9359 37.6981 13.0576 37.4438C13.1829 37.1896 13.2814 36.9479 13.353 36.7188C13.4282 36.4896 13.5052 36.2192 13.584 35.9077C13.6663 35.5962 13.7272 35.2614 13.7666 34.9033C13.806 34.5417 13.8257 34.1639 13.8257 33.77C13.8257 33.1935 13.7791 32.6421 13.686 32.1157C13.5929 31.5894 13.473 31.1418 13.3262 30.7729C13.1794 30.4041 13.0379 30.098 12.9019 29.8545C12.7658 29.6074 12.6297 29.4069 12.4937 29.2529H13.2778C13.4461 29.4678 13.5876 29.6593 13.7021 29.8276C13.8167 29.9924 13.9474 30.2179 14.0942 30.5044C14.2446 30.7909 14.3646 31.0791 14.4541 31.3691C14.5436 31.6592 14.6206 32.0155 14.6851 32.438C14.7495 32.8569 14.7817 33.3045 14.7817 33.7808C14.7817 35.7036 14.2965 37.272 13.3262 38.4858H12.5044Z" fill="#444444"/><path d="M11.4194 50.0933H10.501C10.4401 49.7674 10.279 49.5024 10.0176 49.2983C9.75618 49.0907 9.41602 48.9868 8.99707 48.9868C8.48861 48.9868 8.07861 49.1802 7.76709 49.5669C7.45557 49.9536 7.2998 50.4657 7.2998 51.103C7.2998 51.7547 7.45557 52.2703 7.76709 52.6499C8.08219 53.0295 8.49577 53.2192 9.00781 53.2192C9.41243 53.2192 9.74365 53.1279 10.0015 52.9453C10.2629 52.7591 10.4329 52.4924 10.5117 52.145H11.4302C11.3514 52.7144 11.09 53.1745 10.646 53.5254C10.2056 53.8763 9.65771 54.0518 9.00244 54.0518C8.20036 54.0518 7.55762 53.7868 7.07422 53.2568C6.59082 52.7233 6.34912 52.0054 6.34912 51.103C6.34912 50.215 6.59082 49.5024 7.07422 48.9653C7.55762 48.4246 8.19678 48.1543 8.9917 48.1543C9.67562 48.1543 10.236 48.3441 10.6729 48.7236C11.1097 49.0996 11.3586 49.5562 11.4194 50.0933ZM11.8921 55.4858C12.0138 55.2782 12.1051 55.1152 12.166 54.9971C12.2305 54.8825 12.3236 54.6981 12.4453 54.4438C12.5706 54.1896 12.6691 53.9479 12.7407 53.7188C12.8159 53.4896 12.8929 53.2192 12.9717 52.9077C13.054 52.5962 13.1149 52.2614 13.1543 51.9033C13.1937 51.5417 13.2134 51.1639 13.2134 50.77C13.2134 50.1935 13.1668 49.6421 13.0737 49.1157C12.9806 48.5894 12.8607 48.1418 12.7139 47.7729C12.5671 47.4041 12.4256 47.098 12.2896 46.8545C12.1535 46.6074 12.0174 46.4069 11.8813 46.2529H12.6655C12.8338 46.4678 12.9753 46.6593 13.0898 46.8276C13.2044 46.9924 13.3351 47.2179 13.4819 47.5044C13.6323 47.7909 13.7523 48.0791 13.8418 48.3691C13.9313 48.6592 14.0083 49.0155 14.0728 49.438C14.1372 49.8569 14.1694 50.3045 14.1694 50.7808C14.1694 52.7036 13.6842 54.272 12.7139 55.4858H11.8921Z" fill="#444444"/></svg>