<svg version="1.1" xmlns="http://www.w3.org/2000/svg" xmlns:xlink="http://www.w3.org/1999/xlink" x="0px" y="0px" viewBox="0 0 22 22"><g><path d="M17,21H1V9h6V2l0,0h10v5h1V1H6.2L0,7.6V22h18v-3h-1V21z M6,2.8V8H1.1L6,2.8z M13,8c-5.1,0-9,5-9,5s4.1,5,9,5c5,0,9-5,9-5S18,8,13,8z M8.7,15.5C6.8,14.4,6.4,13,6.4,13s0.4-1.5,2.4-2.6C8.3,11.2,8,12,8,13C8,13.9,8.3,14.8,8.7,15.5z M13,16.7c-2.1,0-3.7-1.7-3.7-3.7c0-2.1,1.7-3.7,3.7-3.7c2.1,0,3.7,1.7,3.7,3.7C16.7,15.1,15.1,16.7,13,16.7z M17.3,15.5c0.4-0.7,0.7-1.6,0.7-2.5c0-1-0.3-1.8-0.7-2.6c2,1.1,3.4,2.6,3.4,2.6S19.2,14.4,17.3,15.5z M13,11.7c-0.7,0-1.3,0.6-1.3,1.3s0.6,1.3,1.3,1.3s1.3-0.6,1.3-1.3S13.7,11.7,13,11.7z"/></g></svg>