<svg width="24" height="24" viewBox="0 0 24 24" xmlns="http://www.w3.org/2000/svg">
<path d="M7.75 5.74902C8.16421 5.74902 8.5 6.08481 8.5 6.49902C8.5 6.91324 8.16421 7.24902 7.75 7.24902H5.75C5.61193 7.24902 5.5 7.36095 5.5 7.49902V19.499C5.5 19.6371 5.61193 19.749 5.75 19.749H17.75C17.8881 19.749 18 19.6371 18 19.499V7.49902C18 7.36095 17.8881 7.24902 17.75 7.24902H15.75C15.3358 7.24902 15 6.91324 15 6.49902C15 6.08481 15.3358 5.74902 15.75 5.74902H17.75C18.7165 5.74902 19.5 6.53253 19.5 7.49902V19.499C19.5 20.4655 18.7165 21.249 17.75 21.249H5.75C4.7835 21.249 4 20.4655 4 19.499V7.49902C4 6.53253 4.7835 5.74902 5.75 5.74902H7.75ZM11.75 1.74902C12.164 1.74917 12.4999 2.085 12.5 2.49902V12.6885L14.2197 10.9688C14.5126 10.6761 14.9875 10.6761 15.2803 10.9688C15.5731 11.2616 15.5729 11.7364 15.2803 12.0293L12.2803 15.0293C11.9874 15.3221 11.5126 15.3221 11.2197 15.0293L8.21973 12.0293C7.927 11.7364 7.927 11.2616 8.21973 10.9688C8.5126 10.6761 8.98745 10.6761 9.28027 10.9688L11 12.6885V2.49902C11.0001 2.08499 11.336 1.74916 11.75 1.74902Z" fill="#444444"/>
</svg>
