<svg width="24" height="24" viewBox="0 0 24 24" xmlns="http://www.w3.org/2000/svg">
<path d="M11.9999 6H13.9999V12.8453L18.196 15.2679L17.196 17L11.9999 14V6Z"/>
<path d="M21.9994 12C21.9994 16.9706 17.97 21 12.9994 21C10.5141 21 8.26411 19.9926 6.63543 18.364L5.92832 19.0711C7.73797 20.8807 10.238 22 12.9994 22C18.5222 22 22.9994 17.5228 22.9994 12C22.9994 6.47715 18.5222 2 12.9994 2C7.70525 2 3.02218 6.15695 3.02218 11.3195L1.49604 9.80303L0.807617 10.4983L3.50458 13.2023L6.20445 10.4983L5.48883 9.80303L4.02786 11.2789C4.02786 6.52953 8.27155 3 12.9994 3C17.97 3 21.9994 7.02944 21.9994 12Z"/>
</svg>
