<svg width="64" height="64" viewBox="0 0 64 64" xmlns="http://www.w3.org/2000/svg">
<rect opacity="0.3" x="21" y="13" width="35" height="1" fill="#444444"/>
<rect opacity="0.3" x="21" y="31" width="35" height="1" fill="#444444"/>
<rect opacity="0.3" x="21" y="49" width="35" height="1" fill="#444444"/>
<path d="M8.44922 17.3018C9.33008 17.3018 10.0068 16.6841 10.0068 15.8784V15.4219L8.51367 15.5132C7.76172 15.5615 7.33203 15.8945 7.33203 16.4209C7.33203 16.9526 7.77783 17.3018 8.44922 17.3018ZM8.23975 18.0967C7.12793 18.0967 6.38135 17.4253 6.38135 16.4209C6.38135 15.4648 7.11719 14.8633 8.40625 14.7881L10.0068 14.6968V14.2295C10.0068 13.5474 9.55566 13.1392 8.78223 13.1392C8.0625 13.1392 7.61133 13.4775 7.49316 14.0254H6.59082C6.65527 13.0586 7.48242 12.3174 8.80371 12.3174C10.1143 12.3174 10.9414 13.0264 10.9414 14.1382V18H10.0552V17.0386H10.0337C9.70068 17.6777 8.9917 18.0967 8.23975 18.0967ZM14.0459 14.9492C14.0459 17.4038 13.2295 18.7466 12.5205 19.6489H11.7363C12.209 19.1011 13.0952 17.3823 13.0952 14.9492C13.0952 12.5161 12.2036 10.792 11.7363 10.2495H12.5205C13.2295 11.1519 14.0459 12.4946 14.0459 14.9492Z" fill="#444444"/>
<path d="M9.38379 36.0967C8.56738 36.0967 7.92822 35.6992 7.56836 35.0547H7.54688V36H6.65527V28.2495H7.58984V31.3486H7.61133C7.96045 30.7095 8.61035 30.3174 9.3999 30.3174C10.8071 30.3174 11.7578 31.4561 11.7578 33.207C11.7578 34.9634 10.8125 36.0967 9.38379 36.0967ZM9.20117 31.1392C8.25586 31.1392 7.58447 31.9663 7.58447 33.207C7.58447 34.4531 8.25586 35.2749 9.20117 35.2749C10.1895 35.2749 10.8018 34.4854 10.8018 33.207C10.8018 31.9395 10.1895 31.1392 9.20117 31.1392ZM14.626 32.9492C14.626 35.4038 13.8096 36.7466 13.1006 37.6489H12.3164C12.7891 37.1011 13.6753 35.3823 13.6753 32.9492C13.6753 30.5161 12.7837 28.792 12.3164 28.2495H13.1006C13.8096 29.1519 14.626 30.4946 14.626 32.9492Z" fill="#444444"/>
<path d="M11.2476 49.2456H10.3345C10.2002 48.6387 9.72754 48.1392 8.90576 48.1392C7.93896 48.1392 7.28369 48.9395 7.28369 50.207C7.28369 51.5068 7.94971 52.2749 8.9165 52.2749C9.6792 52.2749 10.1787 51.8721 10.3398 51.2007H11.2583C11.1133 52.3125 10.1787 53.0967 8.91113 53.0967C7.36426 53.0967 6.33301 52.0063 6.33301 50.207C6.33301 48.4453 7.35889 47.3174 8.90039 47.3174C10.2969 47.3174 11.1294 48.2412 11.2476 49.2456ZM14.0352 49.9492C14.0352 52.4038 13.2188 53.7466 12.5098 54.6489H11.7256C12.1982 54.1011 13.0845 52.3823 13.0845 49.9492C13.0845 47.5161 12.1929 45.792 11.7256 45.2495H12.5098C13.2188 46.1519 14.0352 47.4946 14.0352 49.9492Z" fill="#444444"/>
</svg>
