<svg width="64" height="64" viewBox="0 0 64 64" xmlns="http://www.w3.org/2000/svg">
<rect opacity="0.3" width="35" height="1" transform="matrix(-1 0 0 1 43 13)" fill="#444444"/>
<rect opacity="0.3" width="35" height="1" transform="matrix(-1 0 0 1 43 31)" fill="#444444"/>
<rect opacity="0.3" width="35" height="1" transform="matrix(-1 0 0 1 43 49)" fill="#444444"/>
<path d="M55.79 18L55.0112 15.7817H51.9282L51.1494 18H50.1343L52.9917 10.2495H53.9478L56.8052 18H55.79ZM53.4536 11.4258L52.2129 14.96H54.7266L53.4858 11.4258H53.4536Z" fill="#444444"/>
<path d="M53.6792 36H50.752V28.2495H53.6899C55.0166 28.2495 55.9136 29.0229 55.9136 30.1831C55.9136 30.9888 55.3228 31.7407 54.5762 31.875V31.918C55.6289 32.0522 56.3057 32.7935 56.3057 33.8247C56.3057 35.189 55.3281 36 53.6792 36ZM51.7188 29.1035V31.5903H53.1689C54.313 31.5903 54.936 31.1338 54.936 30.2959C54.936 29.5278 54.4097 29.1035 53.4697 29.1035H51.7188ZM51.7188 35.146H53.5342C54.6997 35.146 55.312 34.6733 55.312 33.7764C55.312 32.8794 54.6782 32.4229 53.4429 32.4229H51.7188V35.146Z" fill="#444444"/>
<path d="M52.9424 53.1289C50.8047 53.1289 49.4512 51.5767 49.4512 49.1221C49.4512 46.689 50.8208 45.1206 52.9424 45.1206C54.6289 45.1206 55.9126 46.1465 56.1597 47.6934H55.1821C54.9351 46.6782 54.0488 46.0122 52.9424 46.0122C51.4277 46.0122 50.4448 47.2368 50.4448 49.1221C50.4448 51.0234 51.417 52.2373 52.9478 52.2373C54.0864 52.2373 54.9028 51.6895 55.1821 50.7441H56.1597C55.8052 52.2749 54.6558 53.1289 52.9424 53.1289Z" fill="#444444"/>
<rect width="1" height="1" transform="matrix(-1 0 0 1 48 17)" fill="#444444"/>
<rect width="1" height="1" transform="matrix(-1 0 0 1 48 35)" fill="#444444"/>
<rect width="1" height="1" transform="matrix(-1 0 0 1 48 52)" fill="#444444"/>
</svg>
