<svg width="24" height="24" viewBox="0 0 24 24" xmlns="http://www.w3.org/2000/svg">
<path d="M18 18.9971V17.9971L16.5 16.4971L18 14.9971V13.9971H17L15.5 15.4971L14 13.9971H13V14.9971L14.5 16.4971L13 17.9971V18.9971H14L15.5 17.4971L17 18.9971H18Z"/>
<path fill-rule="evenodd" clip-rule="evenodd" d="M1 1.99707H23V18.9971H20.4003C19.4899 20.7779 17.6373 21.9971 15.5 21.9971C13.3627 21.9971 11.5101 20.7779 10.5997 18.9971H1V1.99707ZM21 16.4971C21 17.0171 20.9279 17.5202 20.793 17.9971H22V14.9971H20.793C20.9279 15.4739 21 15.9771 21 16.4971ZM10 16.4971C10 15.9771 10.0721 15.4739 10.207 14.9971H9V17.9971H10.207C10.0721 17.5202 10 17.0171 10 16.4971ZM15 2.99707H9V5.99707H15V2.99707ZM2 2.99707H8V5.99707H2V2.99707ZM15 6.99707H9V9.99707H15V6.99707ZM2 6.99707H8V9.99707H2V6.99707ZM16 2.99707H22V5.99707H16V2.99707ZM22 6.99707H16V9.99707H22V6.99707ZM8 14.9971H2V17.9971H8V14.9971ZM15.5 20.9971C13.0148 20.9971 11 18.9824 11 16.4971C11 14.0118 13.0148 11.9971 15.5 11.9971C17.9852 11.9971 20 14.0118 20 16.4971C20 18.9824 17.9852 20.9971 15.5 20.9971Z"/>
</svg>
