<svg width="24" height="24" viewBox="0 0 24 24" xmlns="http://www.w3.org/2000/svg"><g clip-path="url(#cut)"><path fill-rule="evenodd" clip-rule="evenodd" d="M3.22427 22.2702C4.51527 23.1269 6.52738 22.7183 7.6592 21.0127C8.79101 19.3071 8.38572 17.2943 7.09472 16.4376C5.80372 15.5809 3.79161 15.9896 2.65979 17.6952C1.52798 19.4008 1.93328 21.4136 3.22427 22.2702ZM2.67135 23.1035C4.51208 24.325 7.11827 23.6364 8.49243 21.5656C9.8666 19.4948 9.48837 16.8259 7.64764 15.6044C5.80691 14.3829 3.20072 15.0714 1.82656 17.1422C0.452398 19.2131 0.830625 21.882 2.67135 23.1035Z"/><path fill-rule="evenodd" clip-rule="evenodd" d="M20.9158 22.2702C19.6248 23.1269 17.6127 22.7183 16.4809 21.0127C15.349 19.3071 15.7543 17.2943 17.0453 16.4376C18.3363 15.5809 20.3484 15.9896 21.4803 17.6952C22.6121 19.4008 22.2068 21.4136 20.9158 22.2702ZM21.4687 23.1035C19.628 24.325 17.0218 23.6364 15.6476 21.5656C14.2735 19.4948 14.6517 16.8259 16.4924 15.6044C18.3331 14.3829 20.9393 15.0714 22.3135 17.1422C23.6877 19.2131 23.3094 21.882 21.4687 23.1035Z"/><path d="M16.4924 15.6044L13.9037 12.4737L19.9552 0.675715C20.0693 0.446914 19.9552 0.172352 19.727 0.0808313C19.4416 -0.0106892 19.0993 0.0808312 18.9851 0.263872L12.0233 11.4212L5.17562 0.263872C5.06149 0.035071 4.71911 -0.0564496 4.43379 0.035071C4.14847 0.126592 4.03434 0.401153 4.14847 0.629955L10.2001 12.4279L7.64761 15.6044L9.2292 18L12.0233 13.4804L14.9108 18L16.4924 15.6044Z"/></g><defs><clipPath id="cut"><rect width="24" height="24"/></clipPath></defs></svg>