<svg width="24" height="24" viewBox="0 0 24 24" xmlns="http://www.w3.org/2000/svg">
<g clip-path="url(#clip0_0_1056)">
<path fill-rule="evenodd" clip-rule="evenodd" d="M7.49998 14C4.67676 14 2.51135 15.4069 1.40111 17.2572C0.840099 18.1923 1.00117 18.562 1.10242 18.6903C1.25552 18.8844 1.60968 19 1.97237 19H7.49998V20H1.97237C1.50172 20 0.755875 19.8656 0.317314 19.3097C-0.173108 18.688 -0.0953655 17.8077 0.54362 16.7428C1.83339 14.5931 4.32319 13 7.49998 13V14ZM7.49998 13C10.6768 13 13.139 14.5931 14.4287 16.7428C15.0677 17.8077 15.1455 18.688 14.655 19.3097C14.2165 19.8656 13.4706 20 13 20H7.49998V19H13C13.3627 19 13.7168 18.8844 13.8699 18.6903C13.9712 18.562 14.1322 18.1923 13.5712 17.2572C12.461 15.4069 10.3232 14 7.49998 14V13Z"/>
<path fill-rule="evenodd" clip-rule="evenodd" d="M15 20H22.0007C22.4714 20 23.2172 19.8656 23.6558 19.3097C24.1462 18.688 24.0684 17.8077 23.4295 16.7428C22.1397 14.5931 19.6775 13 16.5007 13C15.2069 13 14.1778 13.164 13.1465 13.6225C13.5096 13.9033 13.7856 14.1169 14.1434 14.3553C14.8625 14.1272 15.6519 14 16.5007 14C19.3239 14 21.4617 15.4069 22.572 17.2572C23.133 18.1923 22.9719 18.562 22.8707 18.6903C22.7176 18.8844 22.3634 19 22.0007 19H16.5C16.4511 19.1093 16.3884 19.2127 16.3119 19.3097C16.2636 19.3708 16.2117 19.4268 16.1568 19.4782C15.7126 19.8935 15.4189 20 15 20Z"/>
<path fill-rule="evenodd" clip-rule="evenodd" d="M7.49999 11C8.75945 11 9.99999 9.78646 9.99999 8C9.99999 6.21354 8.75945 5 7.49999 5C6.24053 5 4.99999 6.21354 4.99999 8C4.99999 9.78646 6.24053 11 7.49999 11ZM7.49999 12C9.43299 12 11 10.2091 11 8C11 5.79086 9.43299 4 7.49999 4C5.567 4 3.99999 5.79086 3.99999 8C3.99999 10.2091 5.567 12 7.49999 12Z"/>
<path fill-rule="evenodd" clip-rule="evenodd" d="M17 11C17.9655 11 19 10.0309 19 8.5C19 6.96911 17.9655 6 17 6C16.0345 6 15 6.96911 15 8.5C15 10.0309 16.0345 11 17 11ZM17 12C18.6568 12 20 10.433 20 8.5C20 6.567 18.6568 5 17 5C15.3431 5 14 6.567 14 8.5C14 10.433 15.3431 12 17 12Z"/>
</g>
<defs>
<clipPath id="clip0_0_1056">
<rect width="24" height="24" fill="white"/>
</clipPath>
</defs>
</svg>
