<svg width="24" height="24" viewBox="0 0 24 24" xmlns="http://www.w3.org/2000/svg">
<path d="M18.8115 13.584C20.8826 13.584 22.5615 15.2629 22.5615 17.334V18.334C22.5613 19.3003 21.7779 20.084 20.8115 20.084H16.9541C16.5402 20.0838 16.2044 19.7479 16.2041 19.334C16.2041 18.9199 16.54 18.5841 16.9541 18.584H20.8115C20.9494 18.584 21.0613 18.4718 21.0615 18.334V17.334C21.0615 16.0913 20.0542 15.084 18.8115 15.084H16.8115C16.3975 15.084 16.0618 14.748 16.0615 14.334C16.0615 13.9198 16.3973 13.584 16.8115 13.584H18.8115ZM11.1885 13.583C13.2595 13.583 14.9385 15.2619 14.9385 17.333V18.333C14.9385 19.2995 14.155 20.083 13.1885 20.083H3.18848C2.22198 20.083 1.43848 19.2995 1.43848 18.333V17.333C1.43848 15.2619 3.11741 13.583 5.18848 13.583H11.1885ZM5.18848 15.083C3.94584 15.083 2.93848 16.0904 2.93848 17.333V18.333C2.93848 18.4711 3.05041 18.583 3.18848 18.583H13.1885C13.3265 18.583 13.4385 18.4711 13.4385 18.333V17.333C13.4385 16.0904 12.4311 15.083 11.1885 15.083H5.18848ZM14 4.25C16.3538 4.25 18.75 5.94089 18.75 8.44336C18.75 10.8601 16.6923 12.7498 14.2422 12.75C13.828 12.75 13.4922 12.4142 13.4922 12C13.4922 11.5858 13.828 11.25 14.2422 11.25C15.9429 11.2498 17.25 9.95482 17.25 8.44336C17.2499 7.01743 15.7974 5.75 14 5.75C13.5858 5.75 13.25 5.41421 13.25 5C13.25 4.58579 13.5858 4.25 14 4.25ZM8.21094 3.91504C10.5581 3.91504 12.4609 5.81881 12.4609 8.16602C12.4607 10.513 10.558 12.416 8.21094 12.416C5.86389 12.416 3.9612 10.513 3.96094 8.16602C3.96094 5.81881 5.86373 3.91504 8.21094 3.91504ZM8.21094 5.41602C6.69215 5.41602 5.46094 6.64723 5.46094 8.16602C5.4612 9.68457 6.69232 10.916 8.21094 10.916C9.72956 10.916 10.9607 9.68457 10.9609 8.16602C10.9609 6.64723 9.72972 5.41602 8.21094 5.41602Z" fill="#444444"/>
</svg>
