<svg width="64" height="64" viewBox="0 0 64 64" xmlns="http://www.w3.org/2000/svg">
<rect opacity="0.3" x="8" y="13" width="35" height="1" fill="#444444"/>
<rect opacity="0.3" x="8" y="31" width="35" height="1" fill="#444444"/>
<rect opacity="0.3" x="8" y="49" width="35" height="1" fill="#444444"/>
<path d="M54.4492 17.3018C55.3301 17.3018 56.0068 16.6841 56.0068 15.8784V15.4219L54.5137 15.5132C53.7617 15.5615 53.332 15.8945 53.332 16.4209C53.332 16.9526 53.7778 17.3018 54.4492 17.3018ZM54.2397 18.0967C53.1279 18.0967 52.3813 17.4253 52.3813 16.4209C52.3813 15.4648 53.1172 14.8633 54.4062 14.7881L56.0068 14.6968V14.2295C56.0068 13.5474 55.5557 13.1392 54.7822 13.1392C54.0625 13.1392 53.6113 13.4775 53.4932 14.0254H52.5908C52.6553 13.0586 53.4824 12.3174 54.8037 12.3174C56.1143 12.3174 56.9414 13.0264 56.9414 14.1382V18H56.0552V17.0386H56.0337C55.7007 17.6777 54.9917 18.0967 54.2397 18.0967Z" fill="#444444"/>
<path d="M55.3838 36.0967C54.5674 36.0967 53.9282 35.6992 53.5684 35.0547H53.5469V36H52.6553V28.2495H53.5898V31.3486H53.6113C53.9604 30.7095 54.6104 30.3174 55.3999 30.3174C56.8071 30.3174 57.7578 31.4561 57.7578 33.207C57.7578 34.9634 56.8125 36.0967 55.3838 36.0967ZM55.2012 31.1392C54.2559 31.1392 53.5845 31.9663 53.5845 33.207C53.5845 34.4531 54.2559 35.2749 55.2012 35.2749C56.1895 35.2749 56.8018 34.4854 56.8018 33.207C56.8018 31.9395 56.1895 31.1392 55.2012 31.1392Z" fill="#444444"/>
<path d="M57.2476 49.2456H56.3345C56.2002 48.6387 55.7275 48.1392 54.9058 48.1392C53.939 48.1392 53.2837 48.9395 53.2837 50.207C53.2837 51.5068 53.9497 52.2749 54.9165 52.2749C55.6792 52.2749 56.1787 51.8721 56.3398 51.2007H57.2583C57.1133 52.3125 56.1787 53.0967 54.9111 53.0967C53.3643 53.0967 52.333 52.0063 52.333 50.207C52.333 48.4453 53.3589 47.3174 54.9004 47.3174C56.2969 47.3174 57.1294 48.2412 57.2476 49.2456Z" fill="#444444"/>
<rect x="50" y="17" width="1" height="1" fill="#444444"/>
<rect x="50" y="35" width="1" height="1" fill="#444444"/>
<rect x="50" y="52" width="1" height="1" fill="#444444"/>
</svg>
