<svg width="24" height="24" viewBox="0 0 24 24" xmlns="http://www.w3.org/2000/svg">
<path d="M6 19V18L7.5 16.5L6 15V14H7L8.5 15.5L10 14H11V15L9.5 16.5L11 18V19H10L8.5 17.5L7 19H6Z"/>
<path fill-rule="evenodd" clip-rule="evenodd" d="M23 2H1V19H3.59973C4.51013 20.7808 6.36267 22 8.5 22C10.6373 22 12.4899 20.7808 13.4003 19H23V2ZM3 16.5C3 17.02 3.07214 17.5232 3.20703 18H2V15H3.20703C3.07214 15.4768 3 15.98 3 16.5ZM14 16.5C14 15.98 13.9279 15.4768 13.793 15H15V18H13.793C13.9279 17.5232 14 17.02 14 16.5ZM9 3H15V6H9V3ZM22 3H16V6H22V3ZM9 7H15V10H9V7ZM22 7H16V10H22V7ZM8 3H2V6H8V3ZM2 7H8V10H2V7ZM16 15H22V18H16V15ZM8.5 21C10.9852 21 13 18.9853 13 16.5C13 14.0147 10.9852 12 8.5 12C6.01477 12 4 14.0147 4 16.5C4 18.9853 6.01477 21 8.5 21Z"/>
</svg>
