<svg width="24" height="24" viewBox="0 0 24 24" xmlns="http://www.w3.org/2000/svg">
<path d="M15.6104 20H13.5801L12.0225 15.5635H5.85645L4.29883 20H2.26855L7.9834 4.49902H9.89551L15.6104 20ZM20 16C21.1046 16 22 16.8954 22 18C22 19.1046 21.1046 20 20 20C18.8954 20 18 19.1046 18 18C18 16.8954 18.8954 16 20 16ZM20 17C19.4477 17 19 17.4477 19 18C19 18.5523 19.4477 19 20 19C20.5523 19 21 18.5523 21 18C21 17.4477 20.5523 17 20 17ZM20 10C21.1046 10 22 10.8954 22 12C22 13.1046 21.1046 14 20 14C18.8954 14 18 13.1046 18 12C18 10.8954 18.8954 10 20 10ZM6.42578 13.9199H11.4531L8.97168 6.85156H8.90723L6.42578 13.9199ZM20 11C19.4477 11 19 11.4477 19 12C19 12.5523 19.4477 13 20 13C20.5523 13 21 12.5523 21 12C21 11.4477 20.5523 11 20 11ZM20 4C21.1046 4 22 4.89543 22 6C22 7.10457 21.1046 8 20 8C18.8954 8 18 7.10457 18 6C18 4.89543 18.8954 4 20 4ZM20 5C19.4477 5 19 5.44772 19 6C19 6.55228 19.4477 7 20 7C20.5523 7 21 6.55228 21 6C21 5.44772 20.5523 5 20 5Z"/>
</svg>
