<svg width="24" height="24" viewBox="0 0 24 24" xmlns="http://www.w3.org/2000/svg">
<path d="M13.5608 4.5L11.4446 6.61621C10.9566 7.10433 10.9566 7.89567 11.4446 8.38379L16.6165 13.5557C17.1046 14.0433 17.896 14.0435 18.384 13.5557L20.5002 11.4395L21.5608 12.5L19.4446 14.6162C18.5237 15.537 17.1136 15.6652 16.053 15.0068L14.2375 16.8232C13.6353 17.4254 12.7033 17.4963 12.0227 17.0371L10.72 18.3408C10.4246 18.6362 10.0007 18.7643 9.59106 18.6826L5.7688 17.9189C4.79012 17.7229 4.42427 16.5145 5.13013 15.8086L7.96216 12.9766C7.5035 12.2961 7.57503 11.3647 8.177 10.7627L9.99243 8.94629C9.33459 7.8857 9.4635 6.47634 10.384 5.55566L12.5002 3.43945L13.5608 4.5ZM6.52173 16.5391L9.75317 17.1855L10.9397 16L9.00024 14.0605L6.52173 16.5391ZM9.23755 11.8232C9.14002 11.9209 9.14002 12.0791 9.23755 12.1768L12.8235 15.7627C12.9211 15.8599 13.0795 15.8601 13.177 15.7627L14.9397 14L11.0002 10.0605L9.23755 11.8232Z" fill="#444444"/>
</svg>
