<svg version="1.1" xmlns="http://www.w3.org/2000/svg" xmlns:xlink="http://www.w3.org/1999/xlink" viewBox="0 0 22 22"><g><path fill-rule="evenodd" clip-rule="evenodd" d="M8 1L3 15H4.2L5.97686 10H11.0231L11.6768 11.8394C11.955 11.5504 12.262 11.2892 12.593 11.0605L9 1H8ZM8.5 2.9L10.6678 9H6.33223L8.5 2.9Z"/><path fill-rule="evenodd" clip-rule="evenodd" d="M16 21C18.7614 21 21 18.7614 21 16C21 13.2386 18.7614 11 16 11C13.2386 11 11 13.2386 11 16C11 18.7614 13.2386 21 16 21ZM15.3536 18.3536L19.3536 14.3536L18.6464 13.6464L15 17.2929L13.3536 15.6464L12.6464 16.3536L14.6464 18.3536L15 18.7071L15.3536 18.3536Z"/></g></svg>