<svg width="24" height="24" viewBox="0 0 24 24" xmlns="http://www.w3.org/2000/svg">
<path d="M19.499 16C20.3015 16.0001 20.8503 16.4087 20.8506 17.0215C20.8506 17.4912 20.5263 17.831 20.0527 17.916V17.9326C20.628 17.9804 21 18.3256 21 18.8564C20.9997 19.5437 20.3705 20 19.4795 20C18.6073 19.9998 18.0375 19.5243 18 18.8184H18.7734C18.7975 19.1421 19.065 19.3553 19.4902 19.3555C19.8943 19.3555 20.1787 19.1294 20.1787 18.8057C20.1787 18.4554 19.9136 18.2433 19.4775 18.2432H19.001V17.6641H19.4688C19.838 17.6641 20.0878 17.4466 20.0879 17.1309C20.0879 16.8203 19.8653 16.6162 19.4639 16.6162C19.0892 16.6162 18.8407 16.8365 18.8193 17.1709H18.0752C18.1046 16.4622 18.6614 16 19.499 16ZM16 19H3V18H16V19ZM19.5 10C20.3555 10 20.9434 10.4773 20.9434 11.1309C20.9434 11.619 20.6056 11.9846 20.1582 12.4131L19.168 13.333V13.3496H21V14H18.0479V13.4492L19.5791 12.0283C19.9898 11.6325 20.1162 11.4342 20.1162 11.1631C20.116 10.8703 19.8487 10.6377 19.4717 10.6377C19.0778 10.6378 18.7881 10.9031 18.7881 11.2637V11.2773H18V11.2637C18 10.5234 18.6135 10 19.5 10ZM16 13H3V12H16V13ZM20 4V8H19.1113V4.76758H19.0938L18 5.47168V4.71777L19.1084 4H20ZM16 7H3V6H16V7Z"/>
</svg>
