<svg width="64" height="64" viewBox="0 0 64 64" xmlns="http://www.w3.org/2000/svg">
<rect opacity="0.3" x="21" y="13" width="35" height="1" fill="#444444"/>
<rect opacity="0.3" x="21" y="31" width="35" height="1" fill="#444444"/>
<rect opacity="0.3" x="21" y="49" width="35" height="1" fill="#444444"/>
<path d="M11.79 18L11.0112 15.7817H7.92822L7.14941 18H6.13428L8.9917 10.2495H9.94775L12.8052 18H11.79ZM9.45361 11.4258L8.21289 14.96H10.7266L9.48584 11.4258H9.45361Z" fill="#444444"/>
<path d="M9.6792 36H6.75195V28.2495H9.68994C11.0166 28.2495 11.9136 29.0229 11.9136 30.1831C11.9136 30.9888 11.3228 31.7407 10.5762 31.875V31.918C11.6289 32.0522 12.3057 32.7935 12.3057 33.8247C12.3057 35.189 11.3281 36 9.6792 36ZM7.71875 29.1035V31.5903H9.16895C10.313 31.5903 10.936 31.1338 10.936 30.2959C10.936 29.5278 10.4097 29.1035 9.46973 29.1035H7.71875ZM7.71875 35.146H9.53418C10.6997 35.146 11.312 34.6733 11.312 33.7764C11.312 32.8794 10.6782 32.4229 9.44287 32.4229H7.71875V35.146Z" fill="#444444"/>
<path d="M9.94238 53.1289C7.80469 53.1289 6.45117 51.5767 6.45117 49.1221C6.45117 46.689 7.8208 45.1206 9.94238 45.1206C11.6289 45.1206 12.9126 46.1465 13.1597 47.6934H12.1821C11.9351 46.6782 11.0488 46.0122 9.94238 46.0122C8.42773 46.0122 7.44482 47.2368 7.44482 49.1221C7.44482 51.0234 8.41699 52.2373 9.94775 52.2373C11.0864 52.2373 11.9028 51.6895 12.1821 50.7441H13.1597C12.8052 52.2749 11.6558 53.1289 9.94238 53.1289Z" fill="#444444"/>
<rect x="15" y="17" width="1" height="1" fill="#444444"/>
<rect x="15" y="35" width="1" height="1" fill="#444444"/>
<rect x="15" y="52" width="1" height="1" fill="#444444"/>
</svg>
