<svg version="1.1" xmlns="http://www.w3.org/2000/svg" xmlns:xlink="http://www.w3.org/1999/xlink" viewBox="0 0 22 22"><g><path d="M7,3.8v1h15v-1H7z M7,11.8h15v-1H7V11.8z M7,18.8h15v-1H7V18.8z M3.1,6.9h0.7V2H3.3C3.2,2.4,3.1,2.6,2.9,2.7C2.7,2.8,2.4,2.9,2,2.9v0.5h1.2V6.9z M3.3,9C2.6,9,2.1,9.2,1.9,9.7c-0.2,0.3-0.2,0.6-0.2,1h0.6c0-0.3,0.1-0.5,0.1-0.7c0.2-0.3,0.5-0.5,0.9-0.5c0.3,0,0.5,0.1,0.7,0.3s0.3,0.4,0.3,0.7c0,0.2-0.1,0.5-0.3,0.7c-0.1,0.1-0.3,0.3-0.6,0.4l-0.7,0.4c-0.4,0.3-0.7,0.5-0.9,0.9c-0.2,0.3-0.2,0.7-0.3,1.1h3.4v-0.6H2.2c0.1-0.2,0.2-0.5,0.4-0.7c0.1-0.1,0.3-0.2,0.5-0.4L3.6,12c0.4-0.2,0.7-0.4,0.9-0.6c0.3-0.3,0.4-0.6,0.4-1c0-0.4-0.1-0.7-0.4-1C4.3,9.1,3.9,9,3.3,9z M4.1,18.3c0.2-0.1,0.3-0.2,0.4-0.3c0.2-0.2,0.2-0.4,0.2-0.7c0-0.4-0.1-0.7-0.4-1C4,16.1,3.6,16,3.1,16c-0.6,0-1.1,0.2-1.3,0.7c-0.1,0.3-0.2,0.6-0.2,0.9h0.6c0-0.3,0.1-0.5,0.1-0.6c0.2-0.3,0.4-0.4,0.9-0.4c0.2,0,0.4,0.1,0.6,0.2C4,16.9,4.1,17,4.1,17.3c0,0.3-0.1,0.6-0.4,0.7c-0.1,0.1-0.3,0.1-0.6,0.1c-0.1,0-0.1,0-0.1,0c0,0-0.1,0-0.2,0v0.5c0,0,0.1,0,0.1,0c0,0,0.1,0,0.1,0c0.4,0,0.7,0.1,0.9,0.2c0.2,0.1,0.3,0.4,0.3,0.7c0,0.3-0.1,0.5-0.3,0.7c-0.2,0.2-0.5,0.3-0.8,0.3c-0.4,0-0.7-0.1-0.9-0.4c-0.1-0.1-0.2-0.4-0.2-0.7H1.5c0,0.5,0.1,0.8,0.4,1.2C2.1,20.8,2.5,21,3.1,21c0.6,0,1-0.1,1.3-0.4c0.3-0.3,0.5-0.7,0.5-1.1c0-0.3-0.1-0.5-0.2-0.7C4.5,18.5,4.3,18.3,4.1,18.3z"/></g></svg>