<svg width="64" height="64" viewBox="0 0 64 64" xmlns="http://www.w3.org/2000/svg">
<rect opacity="0.3" x="21" y="13" width="35" height="1" fill="#444444"/>
<rect opacity="0.3" x="21" y="31" width="35" height="1" fill="#444444"/>
<rect opacity="0.3" x="21" y="49" width="35" height="1" fill="#444444"/>
<path d="M8.60498 18V11.2754H8.5835L6.53174 12.7524V11.7319L8.59424 10.2495H9.53955V18H8.60498Z" fill="#444444"/>
<path d="M6.58008 30.4839C6.58008 29.1304 7.67578 28.1206 9.13672 28.1206C10.5225 28.1206 11.6128 29.0605 11.6128 30.2476C11.6128 31.1123 11.2207 31.7568 9.92627 33.0942L7.96582 35.1191V35.1406H11.7417V36H6.62842V35.334L9.35693 32.4604C10.3989 31.3647 10.646 30.9512 10.646 30.3066C10.646 29.5601 9.96387 28.9639 9.10986 28.9639C8.20215 28.9639 7.51465 29.6191 7.51465 30.4839V30.4893H6.58008V30.4839Z" fill="#444444"/>
<path d="M8.20752 49.4229V48.6064H9.13672C10.0283 48.6064 10.6514 48.0317 10.6514 47.2476C10.6514 46.4795 10.1304 45.9585 9.14746 45.9585C8.25586 45.9585 7.66504 46.4688 7.5791 47.2798H6.6499C6.75732 45.9639 7.73486 45.1206 9.19043 45.1206C10.5762 45.1206 11.6235 45.9531 11.6235 47.1187C11.6235 48.0908 11.0005 48.7891 10.0337 48.9609V48.9824C11.2046 49.0522 11.9565 49.7773 11.9565 50.8677C11.9565 52.1997 10.7427 53.1289 9.22266 53.1289C7.60059 53.1289 6.56396 52.2319 6.49414 50.9482H7.42334C7.50928 51.7432 8.16992 52.291 9.21191 52.291C10.2378 52.291 10.9736 51.7109 10.9736 50.8999C10.9736 49.9868 10.2861 49.4229 9.17969 49.4229H8.20752Z" fill="#444444"/>
<rect x="13" y="17" width="1" height="1" fill="#444444"/>
<rect x="13" y="35" width="1" height="1" fill="#444444"/>
<rect x="13" y="52" width="1" height="1" fill="#444444"/>
</svg>
