<svg width="24" height="24" viewBox="0 0 24 24" xmlns="http://www.w3.org/2000/svg">
<path d="M19.5005 7.5459C20.4668 7.54616 21.2505 8.32956 21.2505 9.2959V19.2959C21.2505 20.2624 20.466 21.0459 19.4995 21.0459H9.49951C8.53324 21.0456 7.75049 20.2622 7.75049 19.2959V15.2959C7.75049 14.8817 8.08628 14.5459 8.50049 14.5459C8.91448 14.5462 9.25049 14.8818 9.25049 15.2959V19.2959C9.25049 19.434 9.36242 19.5459 9.50049 19.5459H19.5005C19.6383 19.5456 19.7505 19.4338 19.7505 19.2959V9.2959C19.7505 9.15799 19.6383 9.04616 19.5005 9.0459H15.5005C15.0863 9.0459 14.7505 8.71011 14.7505 8.2959C14.7505 7.88168 15.0863 7.5459 15.5005 7.5459H19.5005Z" fill="#444444"/>
<path d="M14.5 2.5459C15.4665 2.5459 16.25 3.3294 16.25 4.2959V14.2959C16.25 15.2624 15.4665 16.0459 14.5 16.0459H4.5C3.5335 16.0459 2.75 15.2624 2.75 14.2959V4.2959L2.75879 4.11719C2.84234 3.29338 3.49748 2.63824 4.32129 2.55469L4.5 2.5459H14.5Z" fill="#DCE7FA"/>
<path d="M14.5 2.5459C15.4665 2.5459 16.25 3.3294 16.25 4.2959V14.2959C16.25 15.2624 15.4665 16.0459 14.5 16.0459H4.5C3.5335 16.0459 2.75 15.2624 2.75 14.2959V4.2959C2.75 3.3294 3.5335 2.5459 4.5 2.5459H14.5ZM4.5 4.0459C4.36193 4.0459 4.25 4.15783 4.25 4.2959V14.2959C4.25 14.434 4.36193 14.5459 4.5 14.5459H14.5C14.6381 14.5459 14.75 14.434 14.75 14.2959V4.2959C14.75 4.15783 14.6381 4.0459 14.5 4.0459H4.5Z" fill="#446ECA"/>
</svg>
