<svg width="24" height="24" viewBox="0 0 24 24" xmlns="http://www.w3.org/2000/svg">
<path fill-rule="evenodd" clip-rule="evenodd" d="M17.0519 5.68359C17.2266 5.15986 17.7927 4.87715 18.3165 5.05176C18.8402 5.22656 19.1229 5.79261 18.9484 6.31641C18.8386 6.64576 18.735 6.98537 18.6271 7.33887C18.5204 7.68826 18.4099 8.05242 18.2911 8.41113C18.0549 9.12469 17.771 9.86868 17.3751 10.5391C17.0565 11.0785 16.6534 11.5853 16.129 12C16.6534 12.4147 17.0565 12.9215 17.3751 13.4609C17.771 14.1313 18.0549 14.8753 18.2911 15.5889C18.4099 15.9476 18.5204 16.3117 18.6271 16.6611C18.735 17.0146 18.8386 17.3542 18.9484 17.6836C19.1229 18.2074 18.8402 18.7734 18.3165 18.9482C17.7927 19.1229 17.2266 18.8401 17.0519 18.3164C16.9327 17.959 16.8209 17.5953 16.714 17.2451C16.6059 16.8909 16.5018 16.5502 16.3917 16.2178C16.1703 15.549 15.9404 14.9645 15.6534 14.4785C15.3707 13.9998 15.0486 13.644 14.6564 13.4033C14.2693 13.1659 13.7483 13 13.0001 13V18C13.0001 18.5522 12.5523 18.9999 12.0001 19C11.4478 19 11.0001 18.5523 11.0001 18V13C10.2519 13 9.73097 13.1659 9.34386 13.4033C8.95162 13.644 8.62954 13.9998 8.34679 14.4785C8.05982 14.9645 7.82993 15.549 7.60851 16.2178C7.49845 16.5502 7.39437 16.8909 7.28624 17.2451C7.17935 17.5953 7.0675 17.959 6.94835 18.3164C6.7736 18.8401 6.20751 19.1228 5.6837 18.9482C5.15995 18.7735 4.87725 18.2074 5.05187 17.6836C5.16165 17.3542 5.26525 17.0146 5.37316 16.6611C5.47981 16.3117 5.59033 15.9476 5.70909 15.5889C5.94535 14.8753 6.22919 14.1313 6.62511 13.4609C6.94361 12.9217 7.34609 12.4146 7.87023 12C7.34609 11.5854 6.94361 11.0783 6.62511 10.5391C6.22919 9.86867 5.94535 9.12469 5.70909 8.41113C5.59033 8.05241 5.47981 7.68826 5.37316 7.33887C5.26525 6.98537 5.16165 6.64576 5.05187 6.31641C4.87725 5.79256 5.15995 5.22652 5.6837 5.05176C6.20751 4.87723 6.7736 5.15988 6.94835 5.68359C7.0675 6.04104 7.17935 6.40473 7.28624 6.75488C7.39437 7.10909 7.49845 7.44983 7.60851 7.78223C7.82993 8.451 8.05982 9.03546 8.34679 9.52148C8.62954 10.0002 8.95162 10.356 9.34386 10.5967C9.68251 10.8044 10.1236 10.9572 10.7296 10.9922L11.0001 11V6C11.0001 5.44772 11.4478 5 12.0001 5C12.5523 5.00007 13.0001 5.44776 13.0001 6V11C13.7483 11 14.2693 10.8341 14.6564 10.5967C15.0486 10.356 15.3707 10.0002 15.6534 9.52148C15.9404 9.03546 16.1703 8.45099 16.3917 7.78223C16.5018 7.44983 16.6059 7.10909 16.714 6.75488C16.8209 6.40473 16.9327 6.04104 17.0519 5.68359Z" fill="#444444"/>
</svg>
