<svg width="24" height="24" viewBox="0 0 24 24" xmlns="http://www.w3.org/2000/svg">
<path d="M16 13C18.7614 13 21 15.2386 21 18C21 20.7614 18.7614 23 16 23H7C4.23858 23 2 20.7614 2 18C2 15.2386 4.23858 13 7 13H16ZM7 14C4.79086 14 3 15.7909 3 18C3 20.2091 4.79086 22 7 22H16C18.2091 22 20 20.2091 20 18C20 15.7909 18.2091 14 16 14H7ZM7 15C8.65685 15 10 16.3431 10 18C10 19.6569 8.65685 21 7 21C5.34315 21 4 19.6569 4 18C4 16.3431 5.34315 15 7 15ZM7 16C5.89543 16 5 16.8954 5 18C5 19.1046 5.89543 20 7 20C8.10457 20 9 19.1046 9 18C9 16.8954 8.10457 16 7 16ZM16 2C18.7614 2 21 4.23858 21 7C21 9.76142 18.7614 12 16 12H7C4.23858 12 2 9.76142 2 7C2 4.23858 4.23858 2 7 2H16ZM7 3C4.79086 3 3 4.79086 3 7C3 9.20914 4.79086 11 7 11H16C18.2091 11 20 9.20914 20 7C20 4.79086 18.2091 3 16 3H7ZM16 4C17.6569 4 19 5.34315 19 7C19 8.65685 17.6569 10 16 10C14.3431 10 13 8.65685 13 7C13 5.34315 14.3431 4 16 4ZM16 5C14.8954 5 14 5.89543 14 7C14 8.10457 14.8954 9 16 9C17.1046 9 18 8.10457 18 7C18 5.89543 17.1046 5 16 5Z"/>
</svg>
