<svg width="24" height="24" viewBox="0 0 24 24" xmlns="http://www.w3.org/2000/svg">
<path fill-rule="evenodd" clip-rule="evenodd" d="M15.3982 10.4703L12.5464 11.6459L12.1653 10.6883L14.6974 9.64385L14.6607 5.0525L12.6358 4.21798L12.1643 4.02424L12.5464 3.06661L15.3565 4.22505L21.994 6.87491V7.83657L15.3982 10.4703ZM15.6811 5.4632L15.7109 9.23517L20.4188 7.35524L15.6811 5.4632Z"/>
<path fill-rule="evenodd" clip-rule="evenodd" d="M21.9107 17.0738L21.8134 17.3119C20.9432 19.2264 18.5803 19.4608 17.301 18.1212C17.0148 18.8269 16.5425 19.3569 15.9451 19.6439C14.9995 20.0982 13.8814 19.8774 12.9991 19.0193C12.332 18.37 12.1782 17.4345 12.1782 16.6621V13.1202L22 13.1202V16.8296L21.9107 17.0738ZM13.1946 14.1535V16.6621C13.1946 17.3407 13.338 17.9183 13.7018 18.2726C14.3281 18.8816 15.0024 18.9534 15.5104 18.7095C16.0277 18.4609 16.5103 17.8173 16.5814 16.7155V14.1535H13.1946ZM17.5978 14.1535V16.654C18.1225 18.2721 20.2136 18.3718 20.8952 16.8679L20.9578 16.7145L20.9836 16.6439V14.1535H17.5978Z"/>
<path d="M5.96314 21.8447C5.86629 21.9435 5.7324 22 5.5922 22C5.45203 22 5.31807 21.9434 5.22125 21.8447L2 18.56L2.7429 17.8695L5.07888 20.2527L5.07889 2L6.10551 2L6.10551 20.2527L8.44149 17.8695L9.18439 18.56L5.96314 21.8447Z"/>
</svg>
