<svg width="24" height="24" viewBox="0 0 24 24" xmlns="http://www.w3.org/2000/svg">
<path d="M6 19V18L7.5 16.5L6 15V14H7L8.5 15.5L10 14H11V15L9.5 16.5L11 18V19H10L8.5 17.5L7 19H6Z"/>
<path fill-rule="evenodd" clip-rule="evenodd" d="M1 2H23V19H13.4003C12.4899 20.7808 10.6373 22 8.5 22C6.36267 22 4.51013 20.7808 3.59973 19H1V2ZM15 18H13.793C13.9279 17.5232 14 17.02 14 16.5C14 15.98 13.9279 15.4768 13.793 15H15V18ZM15 14H13.4003C12.5616 12.3596 10.9237 11.1958 9 11.0224V11H15V14ZM15 3H9V6H15V3ZM16 3H22V6H16V3ZM15 7H9V10H15V7ZM16 7H22V10H16V7ZM16 11H22V14H16V11ZM16 15H22V18H16V15ZM8.5 21C10.9852 21 13 18.9853 13 16.5C13 14.0147 10.9852 12 8.5 12C6.01477 12 4 14.0147 4 16.5C4 18.9853 6.01477 21 8.5 21Z"/>
</svg>
