<svg width="24" height="24" viewBox="0 0 24 24" xmlns="http://www.w3.org/2000/svg">
<path fill-rule="evenodd" clip-rule="evenodd" d="M16.5007 14C19.3234 14 21.4884 15.4069 22.5984 17.2572C23.1593 18.1923 22.9983 18.562 22.8971 18.6903C22.744 18.8844 22.3899 19 22.0273 19H16.5007V20H22.0273C22.4978 20 23.2435 19.8656 23.682 19.3097C24.1723 18.688 24.0946 17.8077 23.4558 16.7428C22.1662 14.5931 19.6769 13 16.5007 13V14ZM16.5007 13C13.3245 13 10.8628 14.5931 9.57328 16.7428C8.93441 17.8077 8.85668 18.688 9.34701 19.3097C9.78549 19.8656 10.5312 20 11.0018 20H16.5007V19H11.0018C10.6391 19 10.285 18.8844 10.132 18.6903C10.0307 18.562 9.8697 18.1923 10.4306 17.2572C11.5406 15.4069 13.678 14 16.5007 14V13Z"/>
<path fill-rule="evenodd" clip-rule="evenodd" d="M9.00212 20H2.00273C1.53217 20 0.786465 19.8656 0.347986 19.3097C-0.142342 18.688 -0.0646133 17.8077 0.574251 16.7428C1.86377 14.5931 4.3255 13 7.50168 13C8.79528 13 9.82418 13.164 10.8553 13.6225C10.4922 13.9033 10.2162 14.1169 9.8585 14.3553C9.13954 14.1272 8.35034 14 7.50168 14C4.679 14 2.5416 15.4069 1.43158 17.2572C0.870672 18.1923 1.03172 18.562 1.13294 18.6903C1.28602 18.8844 1.64011 19 2.00273 19H7.5024C7.55128 19.1093 7.61397 19.2127 7.69049 19.3097C7.73871 19.3708 7.79064 19.4268 7.84551 19.4782C8.28964 19.8935 8.5833 20 9.00212 20Z"/>
<path fill-rule="evenodd" clip-rule="evenodd" d="M16.5007 11C15.2415 11 14.0012 9.78646 14.0012 8C14.0012 6.21354 15.2415 5 16.5007 5C17.7599 5 19.0002 6.21354 19.0002 8C19.0002 9.78646 17.7599 11 16.5007 11ZM16.5007 12C14.5681 12 13.0014 10.2091 13.0014 8C13.0014 5.79086 14.5681 4 16.5007 4C18.4333 4 20 5.79086 20 8C20 10.2091 18.4333 12 16.5007 12Z"/>
<path fill-rule="evenodd" clip-rule="evenodd" d="M7.00249 11C6.03718 11 5.00287 10.0309 5.00287 8.5C5.00287 6.96911 6.03718 6 7.00249 6C7.96782 6 9.00212 6.96911 9.00212 8.5C9.00212 10.0309 7.96782 11 7.00249 11ZM7.00249 12C5.34595 12 4.00306 10.433 4.00306 8.5C4.00306 6.567 5.34595 5 7.00249 5C8.65904 5 10.0019 6.567 10.0019 8.5C10.0019 10.433 8.65904 12 7.00249 12Z"/>
</svg>
