<svg width="24" height="24" viewBox="0 0 24 24" xmlns="http://www.w3.org/2000/svg">
<path opacity="0.4" d="M1.5 18.0459C1.91421 18.0459 2.25 18.3817 2.25 18.7959V20.2959C2.25013 20.4338 2.36212 20.5458 2.5 20.5459H4C4.41421 20.5459 4.75 20.8817 4.75 21.2959C4.74987 21.71 4.41412 22.0459 4 22.0459H2.5C1.5337 22.0458 0.750132 21.2622 0.75 20.2959V18.7959C0.75 18.3818 1.0859 18.046 1.5 18.0459ZM10 20.5459C10.4142 20.546 10.75 20.8817 10.75 21.2959C10.7499 21.71 10.4141 22.0458 10 22.0459H7C6.58598 22.0458 6.25013 21.7099 6.25 21.2959C6.25 20.8818 6.5859 20.546 7 20.5459H10ZM16 20.5459C16.4141 20.546 16.75 20.8817 16.75 21.2959C16.7499 21.7099 16.414 22.0458 16 22.0459H13C12.586 22.0458 12.2501 21.7099 12.25 21.2959C12.25 20.8818 12.5859 20.546 13 20.5459H16ZM21.5 18.0459C21.9141 18.046 22.25 18.3818 22.25 18.7959V20.2959C22.2499 21.2622 21.4663 22.0458 20.5 22.0459H19C18.586 22.0458 18.2501 21.7099 18.25 21.2959C18.25 20.8818 18.5859 20.546 19 20.5459H20.5C20.6379 20.5458 20.7499 20.4338 20.75 20.2959V18.7959C20.75 18.3818 21.0859 18.046 21.5 18.0459ZM11.5 15.5459C11.9142 15.5459 12.25 15.8817 12.25 16.2959V18.2959C12.25 18.7101 11.9142 19.0459 11.5 19.0459C11.0858 19.0459 10.75 18.7101 10.75 18.2959V16.2959C10.75 15.8817 11.0858 15.5459 11.5 15.5459ZM1.5 12.0459C1.91421 12.0459 2.25 12.3817 2.25 12.7959V15.7959C2.2499 16.21 1.91415 16.5459 1.5 16.5459C1.08596 16.5458 0.750099 16.2099 0.75 15.7959V12.7959C0.75 12.3818 1.0859 12.046 1.5 12.0459ZM21.5 12.0459C21.9141 12.046 22.25 12.3818 22.25 12.7959V15.7959C22.2499 16.2099 21.914 16.5458 21.5 16.5459C21.086 16.5458 20.7501 16.2099 20.75 15.7959V12.7959C20.75 12.3818 21.0859 12.046 21.5 12.0459ZM11.5 8.5459C11.9142 8.5459 12.25 8.88169 12.25 9.2959V10.5459H13.5C13.9142 10.5459 14.25 10.8817 14.25 11.2959C14.25 11.7101 13.9142 12.0459 13.5 12.0459H12.25V13.2959C12.25 13.7101 11.9142 14.0459 11.5 14.0459C11.0858 14.0459 10.75 13.7101 10.75 13.2959V12.0459H9.5C9.08579 12.0459 8.75 11.7101 8.75 11.2959C8.75 10.8817 9.08579 10.5459 9.5 10.5459H10.75V9.2959C10.75 8.88169 11.0858 8.5459 11.5 8.5459ZM6.5 10.5459C6.91421 10.5459 7.25 10.8817 7.25 11.2959C7.25 11.7101 6.91421 12.0459 6.5 12.0459H4.5C4.08579 12.0459 3.75 11.7101 3.75 11.2959C3.75 10.8817 4.08579 10.5459 4.5 10.5459H6.5ZM18.5 10.5459C18.9142 10.5459 19.25 10.8817 19.25 11.2959C19.25 11.7101 18.9142 12.0459 18.5 12.0459H16.5C16.0858 12.0459 15.75 11.7101 15.75 11.2959C15.75 10.8817 16.0858 10.5459 16.5 10.5459H18.5ZM1.5 6.0459C1.91421 6.0459 2.25 6.38168 2.25 6.7959V9.7959L2.24609 9.87207C2.20786 10.2504 1.88845 10.5459 1.5 10.5459C1.11165 10.5458 0.79212 10.2504 0.753906 9.87207L0.75 9.7959V6.7959C0.75 6.38177 1.0859 6.04603 1.5 6.0459ZM21.5 6.0459C21.9141 6.04603 22.25 6.38177 22.25 6.7959V9.7959C22.2499 10.21 21.9141 10.5458 21.5 10.5459C21.0859 10.5458 20.7501 10.21 20.75 9.7959V6.7959C20.75 6.38177 21.0859 6.04603 21.5 6.0459ZM11.5 3.5459C11.9142 3.5459 12.25 3.88168 12.25 4.2959V6.2959C12.25 6.71011 11.9142 7.0459 11.5 7.0459C11.0858 7.0459 10.75 6.71011 10.75 6.2959V4.2959C10.75 3.88168 11.0858 3.5459 11.5 3.5459ZM4 0.545898C4.4142 0.54591 4.75 0.881692 4.75 1.2959C4.75 1.71011 4.4142 2.04589 4 2.0459H2.5C2.36204 2.04603 2.25 2.15791 2.25 2.2959V3.7959C2.24999 4.2101 1.91421 4.5459 1.5 4.5459C1.0859 4.54577 0.75001 4.21002 0.75 3.7959V2.2959C0.75 1.32948 1.53361 0.54603 2.5 0.545898H4ZM20.5 0.545898C21.4664 0.54603 22.25 1.32948 22.25 2.2959V3.7959C22.25 4.21002 21.9141 4.54577 21.5 4.5459C21.0859 4.54577 20.75 4.21002 20.75 3.7959V2.2959C20.75 2.15791 20.638 2.04603 20.5 2.0459H19C18.5859 2.04577 18.25 1.71003 18.25 1.2959C18.25 0.881766 18.5859 0.54603 19 0.545898H20.5ZM10 0.545898C10.4142 0.545954 10.75 0.881719 10.75 1.2959C10.75 1.71008 10.4142 2.04584 10 2.0459H7C6.5859 2.04577 6.25 1.71003 6.25 1.2959C6.25 0.881766 6.5859 0.54603 7 0.545898H10ZM16 0.545898C16.4141 0.545998 16.75 0.881746 16.75 1.2959C16.75 1.71005 16.4141 2.0458 16 2.0459H13C12.5859 2.04577 12.25 1.71003 12.25 1.2959C12.25 0.881766 12.5859 0.54603 13 0.545898H16Z" fill="#444444"/>
<path d="M20.5002 0.545898C21.4666 0.546017 22.2502 1.32947 22.2502 2.2959V3.7959C22.2501 4.20994 21.9143 4.54578 21.5002 4.5459C21.0861 4.5459 20.7504 4.21001 20.7502 3.7959V2.2959C20.7502 2.1579 20.6382 2.04602 20.5002 2.0459H2.50024C2.36217 2.0459 2.25024 2.15783 2.25024 2.2959V3.7959C2.25012 4.20994 1.91428 4.54578 1.50024 4.5459C1.0861 4.5459 0.750364 4.21001 0.750244 3.7959V2.2959C0.750244 1.3294 1.53375 0.545898 2.50024 0.545898H20.5002Z" fill="#446ECA"/>
</svg>
