<svg width="24" height="24" viewBox="0 0 24 24" xmlns="http://www.w3.org/2000/svg">
<path fill-rule="evenodd" clip-rule="evenodd" d="M4 8V21H10V22H3V7L9 1H20V10H19V2H10V8H4ZM4.41422 7L9 2.41422V7H4.41422Z"/>
<path fill-rule="evenodd" clip-rule="evenodd" d="M17 12C13.6863 12 11 14.6863 11 18C11 21.3137 13.6863 24 17 24C20.3137 24 23 21.3137 23 18C23 14.6863 20.3137 12 17 12ZM12 18C12 15.2386 14.2386 13 17 13C19.7614 13 22 15.2386 22 18C22 20.7614 19.7614 23 17 23C14.2386 23 12 20.7614 12 18Z"/>
<path d="M16.2518 14.9911H17.736V16.4874H16.2518V14.9911Z"/>
<path d="M16.2518 17.5087V21.4899H17.736V17.5087H16.2518Z"/>
</svg>
