<svg xmlns="http://www.w3.org/2000/svg" width="24" height="24" viewBox="0 0 24 24"><path fill-rule="evenodd" clip-rule="evenodd" d="M9 9.00002C9 10.1046 8.10457 11 7 11C5.89543 11 5 10.1046 5 9.00002C5 7.89545 5.89543 7.00002 7 7.00002C8.10457 7.00002 9 7.89545 9 9.00002ZM8 9.00002C8 9.5523 7.55229 10 7 10C6.44772 10 6 9.5523 6 9.00002C6 8.44773 6.44772 8.00002 7 8.00002C7.55229 8.00002 8 8.44773 8 9.00002Z"/><path fill-rule="evenodd" clip-rule="evenodd" d="M2 3.99997C2 9.99996 2.00005 13.9999 2 19.9999C12.4199 20.0008 22 19.9999 22 19.9999C22 19.9999 22 12.6325 22 3.99994C15.3333 4.00047 8.66667 4.00028 2 3.99997ZM21 5H3V16.2929L6.50001 12.7929L8.50001 14.7929L14.5 8.79286L21 15.2929V5ZM3.00001 19L3 17.7071L6.50001 14.2071L8.50001 16.2071L14.5 10.2071L21 16.7071L21 19H3.00001Z"/></svg>