<svg width="24" height="24" viewBox="0 0 24 24" xmlns="http://www.w3.org/2000/svg">
<path d="M12 1.80762C12.6541 1.80768 13.2816 2.06776 13.7441 2.53027C14.2066 2.99286 14.4668 3.6203 14.4668 4.27441V4.34863C14.4674 4.4785 14.5064 4.60558 14.5781 4.71387C14.632 4.79508 14.7027 4.86354 14.7852 4.91406L14.8711 4.95898L14.8779 4.96191C14.9997 5.01557 15.1357 5.03155 15.2666 5.00781C15.3974 4.98397 15.5183 4.92107 15.6133 4.82812L15.6582 4.7832L15.8379 4.62012C16.0251 4.46638 16.2344 4.34116 16.459 4.24805C16.7583 4.124 17.0794 4.05963 17.4033 4.05957C17.7274 4.0596 18.0492 4.12394 18.3486 4.24805C18.6475 4.37205 18.9196 4.55338 19.1484 4.78223C19.3776 5.01122 19.5595 5.28373 19.6836 5.58301C19.8076 5.88226 19.872 6.20342 19.8721 6.52734C19.872 6.85144 19.8077 7.17326 19.6836 7.47266C19.5595 7.77194 19.3777 8.04445 19.1484 8.27344L19.1475 8.27246L19.1025 8.31738L19.1035 8.31836C19.0105 8.41344 18.9476 8.53418 18.9238 8.66504C18.9001 8.79599 18.916 8.93196 18.9697 9.05371C18.993 9.10657 19.009 9.16227 19.0195 9.21875C19.0699 9.29967 19.1377 9.36979 19.2178 9.42285C19.326 9.49437 19.4533 9.53269 19.583 9.5332H19.7256C20.3797 9.53327 21.0072 9.79341 21.4697 10.2559C21.9322 10.7184 22.1924 11.3459 22.1924 12C22.1923 12.6542 21.9323 13.2816 21.4697 13.7441C21.0072 14.2067 20.3797 14.4667 19.7256 14.4668H19.6514C19.5215 14.4673 19.3944 14.5064 19.2861 14.5781C19.1779 14.6499 19.0931 14.7517 19.042 14.8711L19.0381 14.8779C18.9844 14.9997 18.9684 15.1356 18.9922 15.2666C19.016 15.3973 19.0789 15.5183 19.1719 15.6133L19.2168 15.6582C19.446 15.8872 19.6288 16.1596 19.7529 16.459C19.8769 16.7582 19.9404 17.0794 19.9404 17.4033C19.9404 17.7274 19.877 18.0492 19.7529 18.3486C19.6289 18.6478 19.4468 18.9195 19.2178 19.1484C18.9887 19.3778 18.7164 19.5595 18.417 19.6836C18.1177 19.8077 17.7967 19.872 17.4727 19.8721C17.1487 19.8721 16.8276 19.8076 16.5283 19.6836C16.229 19.5595 15.9566 19.3776 15.7275 19.1484L15.6816 19.1035L15.6055 19.0391C15.5254 18.9813 15.4329 18.9417 15.335 18.9238C15.2041 18.9001 15.0689 18.9161 14.9473 18.9697L14.9395 18.9727C14.82 19.0238 14.7182 19.1094 14.6465 19.2178C14.5748 19.3261 14.5357 19.4531 14.5352 19.583V19.7256C14.5351 20.3796 14.2758 21.0072 13.8135 21.4697C13.3509 21.9323 12.7225 22.1923 12.0684 22.1924C11.4144 22.1923 10.7867 21.9321 10.3242 21.4697C9.86186 21.0072 9.60163 20.3796 9.60156 19.7256V19.6553C9.59642 19.5255 9.5531 19.3997 9.47754 19.2939C9.39985 19.1854 9.29123 19.1028 9.16602 19.0566C9.15129 19.0512 9.13643 19.0444 9.12207 19.0381C9.00045 18.9844 8.86518 18.9686 8.73438 18.9922C8.60336 19.0159 8.4819 19.0788 8.38672 19.1719L8.3418 19.2178L8.34082 19.2168C8.1118 19.446 7.84032 19.6288 7.54102 19.7529C7.24175 19.877 6.92063 19.9404 6.59668 19.9404C6.27261 19.9404 5.95075 19.877 5.65137 19.7529C5.35211 19.6288 5.08055 19.446 4.85156 19.2168C4.62255 18.9879 4.44044 18.7161 4.31641 18.417C4.19234 18.1177 4.12799 17.7967 4.12793 17.4727C4.12793 17.1487 4.1924 16.8276 4.31641 16.5283C4.4405 16.229 4.62233 15.9566 4.85156 15.7275L4.89746 15.6816C4.99032 15.5866 5.05238 15.4657 5.07617 15.335C5.09989 15.2042 5.08382 15.0689 5.03027 14.9473L5.02734 14.9395C4.97619 14.8201 4.89044 14.7182 4.78223 14.6465C4.674 14.5749 4.54676 14.5357 4.41699 14.5352H4.27441C3.62042 14.5352 2.99284 14.2758 2.53027 13.8135C2.06771 13.3509 1.80768 12.7225 1.80762 12.0684C1.80773 11.4143 2.06776 10.7867 2.53027 10.3242C2.99287 9.86174 3.62028 9.60157 4.27441 9.60156H4.34375C4.47394 9.59659 4.59997 9.55342 4.70605 9.47754C4.8147 9.39979 4.89819 9.2914 4.94434 9.16602L4.96191 9.12207C5.01558 9.00044 5.03142 8.8652 5.00781 8.73438C4.98408 8.60348 4.9211 8.48186 4.82812 8.38672L4.7832 8.3418C4.55395 8.1128 4.37218 7.84033 4.24805 7.54102C4.12397 7.2417 4.05964 6.92069 4.05957 6.59668C4.05957 6.27255 4.12394 5.9508 4.24805 5.65137C4.37207 5.35237 4.5533 5.0804 4.78223 4.85156C5.01129 4.62224 5.28359 4.44055 5.58301 4.31641C5.88231 4.19235 6.20335 4.12798 6.52734 4.12793C6.85144 4.12796 7.17326 4.1923 7.47266 4.31641C7.77191 4.44054 8.04448 4.62235 8.27344 4.85156H8.27246L8.31836 4.89746L8.39453 4.96094C8.47463 5.01868 8.56708 5.05834 8.66504 5.07617C8.79596 5.09985 8.93199 5.084 9.05371 5.03027L9.12598 5.00293C9.15665 4.99304 9.18808 4.98535 9.21973 4.97949C9.30019 4.92922 9.37002 4.86198 9.42285 4.78223C9.4939 4.67475 9.53215 4.54873 9.5332 4.41992V4.27441C9.53321 3.6202 9.79328 2.99288 10.2559 2.53027C10.7184 2.06768 11.3458 1.80765 12 1.80762ZM12 3.30762C11.7436 3.30765 11.4977 3.40953 11.3164 3.59082C11.1351 3.77212 11.0332 4.01803 11.0332 4.27441V4.42383C11.0314 4.84607 10.906 5.25928 10.6729 5.61133C10.4397 5.96325 10.1087 6.23988 9.7207 6.40625C9.65479 6.4345 9.58457 6.45148 9.51367 6.45996C9.15708 6.5875 8.7719 6.62057 8.39746 6.55273C7.97186 6.4755 7.57883 6.27211 7.26953 5.96973L7.21191 5.91211C7.12231 5.82241 7.01551 5.7508 6.89844 5.70215C6.78114 5.65353 6.65432 5.62796 6.52734 5.62793C6.40048 5.62798 6.27443 5.65358 6.15723 5.70215C6.03998 5.7508 5.93346 5.8223 5.84375 5.91211H5.84277C5.7529 6.00189 5.68146 6.10921 5.63281 6.22656C5.58432 6.34376 5.55957 6.46984 5.55957 6.59668C5.55963 6.72355 5.58424 6.8496 5.63281 6.9668C5.68141 7.08393 5.75309 7.19062 5.84277 7.28027H5.84375L5.89453 7.33203L5.90039 7.33789C6.20294 7.64729 6.40619 8.041 6.4834 8.4668C6.56004 8.89007 6.50918 9.32666 6.33691 9.7207C6.18443 10.1128 5.92178 10.4531 5.5791 10.6982C5.2256 10.9511 4.80364 11.0914 4.36914 11.1016H4.27441C4.0181 11.1016 3.77211 11.2036 3.59082 11.3848C3.40961 11.566 3.30773 11.8121 3.30762 12.0684C3.30768 12.3246 3.40971 12.5707 3.59082 12.752C3.7721 12.9331 4.01812 13.0352 4.27441 13.0352H4.42383C4.84607 13.037 5.25927 13.1624 5.61133 13.3955C5.96335 13.6288 6.23989 13.9605 6.40625 14.3486H6.40527C6.57742 14.7427 6.62948 15.1793 6.55273 15.6025C6.4755 16.0282 6.27219 16.4211 5.96973 16.7305L5.91211 16.7881C5.82222 16.8779 5.7508 16.9852 5.70215 17.1025C5.65358 17.2198 5.62793 17.3457 5.62793 17.4727C5.62799 17.5996 5.65355 17.7255 5.70215 17.8428C5.73858 17.9305 5.78758 18.0127 5.84766 18.0859L5.91211 18.1562V18.1572C6.00185 18.247 6.1093 18.3186 6.22656 18.3672C6.34374 18.4157 6.46988 18.4404 6.59668 18.4404C6.72356 18.4404 6.84958 18.4158 6.9668 18.3672C7.08404 18.3186 7.19055 18.247 7.28027 18.1572L7.33789 18.0996C7.64733 17.7969 8.04088 17.5938 8.4668 17.5166C8.89249 17.4395 9.33173 17.4914 9.72754 17.666H9.72656C10.1161 17.8188 10.4544 18.0801 10.6982 18.4209C10.951 18.7744 11.0914 19.1964 11.1016 19.6309V19.7256C11.1016 19.9818 11.2037 20.228 11.3848 20.4092C11.566 20.5902 11.8122 20.6923 12.0684 20.6924C12.3246 20.6923 12.5707 20.5904 12.752 20.4092C12.9332 20.2279 13.0351 19.9819 13.0352 19.7256V19.5771C13.0368 19.1548 13.1624 18.7418 13.3955 18.3896C13.6272 18.0397 13.9558 17.7644 14.3408 17.5977L14.4912 17.5381C14.8465 17.412 15.2298 17.3806 15.6025 17.4482C15.9751 17.5159 16.3231 17.6792 16.6113 17.9219L16.7305 18.0312L16.7363 18.0361V18.0371L16.7881 18.0879V18.0889C16.8778 18.1786 16.9853 18.2492 17.1025 18.2979C17.2198 18.3464 17.3457 18.3721 17.4727 18.3721C17.5996 18.372 17.7255 18.3465 17.8428 18.2979C17.9599 18.2493 18.0666 18.1785 18.1562 18.0889L18.1572 18.0879C18.247 17.9982 18.3185 17.8916 18.3672 17.7744C18.4158 17.6571 18.4404 17.5303 18.4404 17.4033C18.4404 17.2765 18.4157 17.1503 18.3672 17.0332C18.3307 16.9453 18.2809 16.8633 18.2207 16.79L18.1572 16.7197L18.0996 16.6621C17.7971 16.3528 17.5939 15.9598 17.5166 15.5342C17.4394 15.1083 17.4913 14.6684 17.666 14.2725C17.8328 13.8873 18.108 13.5589 18.458 13.3271C18.8102 13.0939 19.2231 12.9685 19.6455 12.9668H19.7256C19.9819 12.9667 20.2279 12.8648 20.4092 12.6836C20.5904 12.5023 20.6923 12.2563 20.6924 12C20.6924 11.7437 20.5903 11.4977 20.4092 11.3164C20.2279 11.1353 19.9818 11.0333 19.7256 11.0332H19.5771C19.1548 11.0315 18.7418 10.906 18.3896 10.6729C18.0376 10.4397 17.7612 10.1087 17.5947 9.7207C17.5658 9.65323 17.5463 9.58143 17.5381 9.50879C17.412 9.15358 17.3807 8.77016 17.4482 8.39746C17.5255 7.97171 17.7287 7.57886 18.0312 7.26953L18.0361 7.26367H18.0371L18.0879 7.21191H18.0889C18.1785 7.12232 18.2492 7.01548 18.2979 6.89844C18.3465 6.78115 18.372 6.65432 18.3721 6.52734C18.372 6.40054 18.3464 6.27438 18.2979 6.15723C18.2493 6.04022 18.1784 5.93334 18.0889 5.84375L18.0879 5.84277C17.9982 5.75307 17.8915 5.68143 17.7744 5.63281C17.6571 5.58419 17.5303 5.5596 17.4033 5.55957C17.2765 5.55963 17.1504 5.58425 17.0332 5.63281C16.916 5.68144 16.8094 5.753 16.7197 5.84277V5.84375L16.668 5.89453L16.6621 5.90039C16.3528 6.20291 15.9598 6.40608 15.5342 6.4834C15.1084 6.56061 14.6684 6.50865 14.2725 6.33398V6.33301C13.8876 6.16627 13.5589 5.89174 13.3271 5.54199C13.094 5.18984 12.9685 4.77685 12.9668 4.35449V4.27441C12.9668 4.01812 12.8647 3.77211 12.6836 3.59082C12.5023 3.40961 12.2563 3.30768 12 3.30762ZM12 7.90625C14.2608 7.9065 16.0945 9.7392 16.0947 12C16.0945 14.2608 14.2608 16.0945 12 16.0947C9.7392 16.0945 7.9065 14.2608 7.90625 12C7.9065 9.7392 9.7392 7.9065 12 7.90625ZM12 9.40625C10.5676 9.4065 9.4065 10.5676 9.40625 12C9.4065 13.4324 10.5676 14.5945 12 14.5947C13.4324 14.5945 14.5945 13.4324 14.5947 12C14.5945 10.5676 13.4324 9.4065 12 9.40625Z" fill="#444444"/>
</svg>
