<svg width="24" height="24" viewBox="0 0 24 24" xmlns="http://www.w3.org/2000/svg">
<path d="M20 19.75C20.4142 19.75 20.75 20.0858 20.75 20.5C20.75 20.9142 20.4142 21.25 20 21.25H4C3.58579 21.25 3.25 20.9142 3.25 20.5C3.25 20.0858 3.58579 19.75 4 19.75H20ZM20 2.25C20.4142 2.25 20.75 2.58579 20.75 3C20.75 3.41421 20.4142 3.75 20 3.75H4C3.58579 3.75 3.25 3.41421 3.25 3C3.25 2.58579 3.58579 2.25 4 2.25H20Z" fill="#444444"/>
<path fill-rule="evenodd" clip-rule="evenodd" d="M8.46967 8.78027C8.17678 8.48738 8.17678 8.01262 8.46967 7.71973L11.4697 4.71973C11.6103 4.57909 11.801 4.5 11.9999 4.5C12.1988 4.50002 12.3896 4.57909 12.5302 4.71973L15.5302 7.71973C15.8231 8.01261 15.8231 8.48739 15.5302 8.78027C15.2373 9.07316 14.7626 9.07314 14.4697 8.78027L12.7499 7.06055V16.4395L14.4697 14.7197C14.7626 14.4269 15.2373 14.4268 15.5302 14.7197C15.8231 15.0126 15.8231 15.4874 15.5302 15.7803L12.5302 18.7803C12.3896 18.9209 12.1988 19 11.9999 19C11.801 19 11.6103 18.9209 11.4697 18.7803L8.46967 15.7803C8.17678 15.4874 8.17678 15.0126 8.46967 14.7197C8.76257 14.4269 9.23733 14.4268 9.53022 14.7197L11.2499 16.4395V7.06055L9.53022 8.78027C9.23733 9.07316 8.76257 9.07314 8.46967 8.78027Z" fill="#446ECA"/>
</svg>
