<svg width="24" height="24" viewBox="0 0 24 24" xmlns="http://www.w3.org/2000/svg">
<path d="M4.68848 13.584C2.61741 13.584 0.938477 15.2629 0.938477 17.334V18.334C0.93874 19.3003 1.72214 20.084 2.68848 20.084H6.5459C6.95982 20.0838 7.29563 19.7479 7.2959 19.334C7.2959 18.9199 6.95998 18.5841 6.5459 18.584H2.68848C2.55057 18.584 2.43874 18.4718 2.43848 18.334V17.334C2.43848 16.0913 3.44584 15.084 4.68848 15.084H6.68848C7.10253 15.084 7.43821 14.748 7.43848 14.334C7.43848 13.9198 7.10269 13.584 6.68848 13.584H4.68848ZM12.3115 13.583C10.2405 13.583 8.56152 15.2619 8.56152 17.333V18.333C8.56152 19.2995 9.34503 20.083 10.3115 20.083H20.3115C21.278 20.083 22.0615 19.2995 22.0615 18.333V17.333C22.0615 15.2619 20.3826 13.583 18.3115 13.583H12.3115ZM18.3115 15.083C19.5542 15.083 20.5615 16.0904 20.5615 17.333V18.333C20.5615 18.4711 20.4496 18.583 20.3115 18.583H10.3115C10.1735 18.583 10.0615 18.4711 10.0615 18.333V17.333C10.0615 16.0904 11.0689 15.083 12.3115 15.083H18.3115ZM9.5 4.25C7.14624 4.25 4.75005 5.94089 4.75 8.44336C4.75 10.8601 6.80768 12.7498 9.25781 12.75C9.67203 12.75 10.0078 12.4142 10.0078 12C10.0078 11.5858 9.67203 11.25 9.25781 11.25C7.55711 11.2498 6.25 9.95482 6.25 8.44336C6.25005 7.01743 7.70259 5.75 9.5 5.75C9.91421 5.75 10.25 5.41421 10.25 5C10.25 4.58579 9.91421 4.25 9.5 4.25ZM15.2891 3.91602C12.9419 3.91602 11.0391 5.81881 11.0391 8.16602C11.0393 10.513 12.942 12.416 15.2891 12.416C17.6361 12.416 19.5388 10.513 19.5391 8.16602C19.5391 5.81881 17.6363 3.91602 15.2891 3.91602ZM15.2891 5.41602C16.8078 5.41602 18.0391 6.64723 18.0391 8.16602C18.0388 9.68457 16.8077 10.916 15.2891 10.916C13.7704 10.916 12.5393 9.68457 12.5391 8.16602C12.5391 6.64723 13.7703 5.41602 15.2891 5.41602Z" fill="#444444"/>
</svg>
