<svg width="64" height="64" viewBox="0 0 64 64" xmlns="http://www.w3.org/2000/svg">
<rect opacity="0.3" x="21" y="13" width="35" height="1" fill="#444444"/>
<rect opacity="0.3" x="21" y="31" width="35" height="1" fill="#444444"/>
<rect opacity="0.3" x="21" y="49" width="35" height="1" fill="#444444"/>
<rect x="7" y="12" width="1" height="6" fill="#444444"/>
<rect x="7" y="10" width="1" height="1" fill="#444444"/>
<rect x="10" y="17" width="1" height="1" fill="#444444"/>
<rect x="7" y="30" width="1" height="6" fill="#444444"/>
<rect x="10" y="30" width="1" height="6" fill="#444444"/>
<rect x="10" y="28" width="1" height="1" fill="#444444"/>
<rect x="7" y="28" width="1" height="1" fill="#444444"/>
<rect x="13" y="35" width="1" height="1" fill="#444444"/>
<rect x="7" y="47" width="1" height="6" fill="#444444"/>
<rect x="10" y="47" width="1" height="6" fill="#444444"/>
<rect x="13" y="47" width="1" height="6" fill="#444444"/>
<rect x="7" y="45" width="1" height="1" fill="#444444"/>
<rect x="10" y="45" width="1" height="1" fill="#444444"/>
<rect x="13" y="45" width="1" height="1" fill="#444444"/>
<rect x="16" y="52" width="1" height="1" fill="#444444"/>
</svg>
