<svg width="24" height="24" viewBox="0 0 24 24" xmlns="http://www.w3.org/2000/svg">
<path d="M14.8578 21.5434C14.8606 21.6654 14.8147 21.7835 14.7299 21.8697C14.645 21.9559 14.5289 22.0027 14.409 21.9999L10.4207 21.9074L10.4413 21.0141L13.3343 21.082L2 9.55409L2.62106 8.92242L13.9554 20.4503L13.8886 17.5079L14.7669 17.4869L14.8578 21.5434Z"/>
<path fill-rule="evenodd" clip-rule="evenodd" d="M13.811 8.29692L12.7751 10.7878L11.9666 10.4393L12.8861 8.22722L10.1041 5.44332L8.36523 6.19157L7.9607 6.36615L7.61863 5.54325L10.0319 4.50507L15.6802 2L16.2582 2.58787L13.811 8.29692ZM10.9744 5.06025L13.2597 7.34757L15.0064 3.27259L10.9744 5.06025Z"/>
<path fill-rule="evenodd" clip-rule="evenodd" d="M21.7592 8.28643L21.8429 8.49247C22.4617 10.2034 21.1588 11.8151 19.5722 11.7914C19.8213 12.4006 19.8514 13.0183 19.6589 13.5649C19.3541 14.4302 18.5381 14.9901 17.4834 15.0139C16.6857 15.0316 16.0293 14.5552 15.565 14.0831L13.4362 11.9179L19.4375 5.81405L21.667 8.08164L21.7592 8.28643ZM14.6783 11.9179L16.1861 13.4514C16.5939 13.8662 17.0288 14.1303 17.464 14.1207C18.2125 14.1038 18.6678 13.7286 18.8316 13.2639C18.9983 12.7905 18.9062 12.097 18.2876 11.3794L16.7477 9.81317L14.6783 11.9179ZM17.3687 9.1815L18.8717 10.7101C20.1646 11.3728 21.5022 10.1344 21.015 8.79164L20.9611 8.65902L20.9344 8.5998L19.4375 7.07739L17.3687 9.1815Z"/>
</svg>
