<svg width="24" height="24" viewBox="0 0 24 24" xmlns="http://www.w3.org/2000/svg">
<path fill-rule="evenodd" clip-rule="evenodd" d="M9.33333 2C8.74423 2 8.26667 2.47128 8.26667 3.05263V4H4.53333C4.23878 4 4 4.23564 4 4.52632C4 4.81699 4.23878 5.05263 4.53333 5.05263H5.06667L6.06667 20.9474C6.06667 21.5287 6.54423 22 7.13333 22H16.8667C17.4558 22 17.9333 21.5287 17.9333 20.9474L19 5H19.4667C19.7612 5 20 4.79068 20 4.5C20 4.20932 19.7612 4 19.4667 4H15.7333V3.05263C15.7333 2.47128 15.2558 2 14.6667 2H9.33333ZM14.6667 4V3.05263H9.33333V4H14.6667ZM18 5H6L6.9414 20.0624C6.97434 20.5894 7.41139 21 7.93945 21H16.0605C16.5886 21 17.0257 20.5894 17.0586 20.0624L18 5Z"/>
<path d="M8 7.0023L9 7.00239L9.5 18.9999H8.5L8 7.0023Z"/>
<path d="M11.5 7H12.5V19H11.5V7Z"/>
<path d="M15 7.00232L16 6.99988L15.5 18.9999H14.5L15 7.00232Z"/>
</svg>
