<svg width="24" height="24" viewBox="0 0 24 24" xmlns="http://www.w3.org/2000/svg">
<path d="M4.5 17C5.32843 17 6 17.6716 6 18.5C6 19.3284 5.32843 20 4.5 20C3.67157 20 3 19.3284 3 18.5C3 17.6716 3.67157 17 4.5 17ZM21 19H8V18H21V19ZM4.5 11C5.32843 11 6 11.6716 6 12.5C6 13.3284 5.32843 14 4.5 14C3.67157 14 3 13.3284 3 12.5C3 11.6716 3.67157 11 4.5 11ZM21 13H8V12H21V13ZM4.5 5C5.32843 5 6 5.67157 6 6.5C6 7.32843 5.32843 8 4.5 8C3.67157 8 3 7.32843 3 6.5C3 5.67157 3.67157 5 4.5 5ZM21 7H8V6H21V7Z"/>
</svg>
