<svg width="24" height="24" viewBox="0 0 24 24" xmlns="http://www.w3.org/2000/svg">
<path d="M11.9045 6H9.92174V12.8453L5.76185 15.2679L6.75321 17L11.9045 14V6Z"/>
<path d="M1.99136 12C1.99136 16.9706 5.98598 21 10.9136 21C13.3774 21 15.6079 19.9926 17.2225 18.364L17.9235 19.0711C16.1295 20.8807 13.6511 22 10.9136 22C5.43846 22 1 17.5228 1 12C1 6.47715 5.43846 2 10.9136 2C16.162 2 20.8046 6.15695 20.8046 11.3195L22.3175 9.80303L23 10.4983L20.3263 13.2023L17.6498 10.4983L18.3592 9.80303L19.8076 11.2789C19.8076 6.52953 15.6006 3 10.9136 3C5.98598 3 1.99136 7.02944 1.99136 12Z"/>
</svg>
