<svg width="24" height="24" viewBox="0 0 24 24" xmlns="http://www.w3.org/2000/svg">
<path d="M7.50098 2.68945C7.81337 2.68962 8.09334 2.8833 8.20312 3.17578L11.0957 10.8906L12.0605 13.4619C12.2055 13.8496 12.0087 14.2824 11.6211 14.4277C11.2335 14.5729 10.8009 14.3757 10.6553 13.9883L9.87402 11.9033H5.12793L4.3457 13.9883C4.20015 14.3758 3.76753 14.5729 3.37988 14.4277C2.99231 14.2823 2.7963 13.8496 2.94141 13.4619L3.90527 10.8906L6.79883 3.17578L6.84766 3.07129C6.97904 2.83809 7.22744 2.68945 7.50098 2.68945ZM5.69043 10.4033H9.31152L7.50098 5.5752L5.69043 10.4033Z" fill="#444444"/>
<path fill-rule="evenodd" clip-rule="evenodd" d="M16.9692 13.7655C17.2621 13.4726 17.7369 13.4727 18.0298 13.7655L21.0298 16.7655C21.1704 16.9061 21.2495 17.0969 21.2495 17.2958C21.2495 17.4946 21.1704 17.6854 21.0298 17.826L18.0298 20.826C17.7369 21.1187 17.2621 21.1189 16.9692 20.826C16.6765 20.5332 16.6766 20.0584 16.9692 19.7655L18.689 18.0458H3.49951C3.08548 18.0456 2.74959 17.7098 2.74951 17.2958C2.74962 16.8817 3.0855 16.5459 3.49951 16.5458H18.689L16.9692 14.826C16.6765 14.5332 16.6766 14.0584 16.9692 13.7655ZM16.9692 4.76549C17.2621 4.47265 17.7369 4.47275 18.0298 4.76549L21.0298 7.76549C21.1704 7.90613 21.2495 8.0969 21.2495 8.29576C21.2495 8.49461 21.1704 8.68542 21.0298 8.82604L18.0298 11.826C17.7369 12.1188 17.2621 12.1189 16.9692 11.826C16.6765 11.5332 16.6765 11.0584 16.9692 10.7655L18.689 9.04576H12.4995C12.0855 9.04561 11.7496 8.70982 11.7495 8.29576C11.7495 7.88165 12.0854 7.54591 12.4995 7.54576H18.689L16.9692 5.82604C16.6765 5.53318 16.6765 5.05835 16.9692 4.76549Z" fill="#446ECA"/>
</svg>
