<svg width="64" height="65" viewBox="0 0 64 65" fill="none" xmlns="http://www.w3.org/2000/svg"><rect opacity="0.3" x="21" y="13.998" width="35" height="1" fill="#444444"/><rect opacity="0.3" x="21" y="31.998" width="35" height="1" fill="#444444"/><rect opacity="0.3" x="21" y="49.998" width="35" height="1" fill="#444444"/><path d="M8.60498 18.998V12.2734H8.5835L6.53174 13.7505V12.73L8.59424 11.2476H9.53955V18.998H8.60498ZM11.0757 20.4858C11.1974 20.2782 11.2887 20.1152 11.3496 19.9971C11.4141 19.8825 11.5072 19.6981 11.6289 19.4438C11.7542 19.1896 11.8527 18.9479 11.9243 18.7188C11.9995 18.4896 12.0765 18.2192 12.1553 17.9077C12.2376 17.5962 12.2985 17.2614 12.3379 16.9033C12.3773 16.5417 12.397 16.1639 12.397 15.77C12.397 15.1935 12.3504 14.6421 12.2573 14.1157C12.1642 13.5894 12.0443 13.1418 11.8975 12.7729C11.7507 12.4041 11.6092 12.098 11.4731 11.8545C11.3371 11.6074 11.201 11.4069 11.0649 11.2529H11.8491C12.0174 11.4678 12.1589 11.6593 12.2734 11.8276C12.388 11.9924 12.5187 12.2179 12.6655 12.5044C12.8159 12.7909 12.9359 13.0791 13.0254 13.3691C13.1149 13.6592 13.1919 14.0155 13.2563 14.438C13.3208 14.8569 13.353 15.3045 13.353 15.7808C13.353 17.7036 12.8678 19.272 11.8975 20.4858H11.0757Z" fill="#444444"/><path d="M6.58008 31.4819C6.58008 30.8052 6.82357 30.243 7.31055 29.7954C7.79753 29.3442 8.40625 29.1187 9.13672 29.1187C9.8278 29.1187 10.4132 29.3245 10.8931 29.7363C11.3729 30.1481 11.6128 30.6512 11.6128 31.2456C11.6128 31.6753 11.4946 32.0889 11.2583 32.4863C11.022 32.8838 10.578 33.4191 9.92627 34.0923L7.96582 36.1172V36.1387H11.7417V36.998H6.62842V36.332L9.35693 33.4585C9.87614 32.9106 10.2199 32.4953 10.3882 32.2124C10.5601 31.9295 10.646 31.627 10.646 31.3047C10.646 30.9323 10.4956 30.6154 10.1948 30.354C9.89762 30.0926 9.53597 29.9619 9.10986 29.9619C8.65511 29.9619 8.27555 30.1069 7.97119 30.397C7.66683 30.687 7.51465 31.0487 7.51465 31.4819V31.4873H6.58008V31.4819ZM12.4292 38.4858C12.5509 38.2782 12.6423 38.1152 12.7031 37.9971C12.7676 37.8825 12.8607 37.6981 12.9824 37.4438C13.1077 37.1896 13.2062 36.9479 13.2778 36.7188C13.353 36.4896 13.43 36.2192 13.5088 35.9077C13.5911 35.5962 13.652 35.2614 13.6914 34.9033C13.7308 34.5417 13.7505 34.1639 13.7505 33.77C13.7505 33.1935 13.7039 32.6421 13.6108 32.1157C13.5177 31.5894 13.3978 31.1418 13.251 30.7729C13.1042 30.4041 12.9627 30.098 12.8267 29.8545C12.6906 29.6074 12.5545 29.4069 12.4185 29.2529H13.2026C13.3709 29.4678 13.5124 29.6593 13.627 29.8276C13.7415 29.9924 13.8722 30.2179 14.019 30.5044C14.1694 30.7909 14.2894 31.0791 14.3789 31.3691C14.4684 31.6592 14.5454 32.0155 14.6099 32.438C14.6743 32.8569 14.7065 33.3045 14.7065 33.7808C14.7065 35.7036 14.2214 37.272 13.251 38.4858H12.4292Z" fill="#444444"/><path d="M8.20752 50.4209V49.6045H9.13672C9.58073 49.6045 9.94417 49.4774 10.2271 49.2231C10.5099 48.9653 10.6514 48.6395 10.6514 48.2456C10.6514 47.8517 10.5207 47.5384 10.2593 47.3057C9.99788 47.0729 9.62728 46.9565 9.14746 46.9565C8.70345 46.9565 8.3418 47.0747 8.0625 47.311C7.7832 47.5474 7.62207 47.8696 7.5791 48.2778H6.6499C6.70361 47.619 6.95785 47.0944 7.4126 46.7041C7.87093 46.3138 8.46354 46.1187 9.19043 46.1187C9.88867 46.1187 10.4688 46.3066 10.9307 46.6826C11.3926 47.0586 11.6235 47.5366 11.6235 48.1167C11.6235 48.6001 11.4803 49.0065 11.1938 49.3359C10.9074 49.6654 10.5207 49.873 10.0337 49.959V49.9805C10.6209 50.0163 11.0882 50.2043 11.4355 50.5444C11.7829 50.881 11.9565 51.3215 11.9565 51.8657C11.9565 52.299 11.8348 52.6893 11.5913 53.0366C11.3478 53.384 11.0184 53.6525 10.603 53.8423C10.1877 54.0321 9.72754 54.127 9.22266 54.127C8.42057 54.127 7.77425 53.9264 7.28369 53.5254C6.79313 53.1243 6.52995 52.598 6.49414 51.9463H7.42334C7.46631 52.3509 7.64714 52.6768 7.96582 52.9238C8.28451 53.1673 8.69987 53.2891 9.21191 53.2891C9.72396 53.2891 10.1447 53.1584 10.4741 52.897C10.8071 52.6356 10.9736 52.3026 10.9736 51.8979C10.9736 51.4432 10.8125 51.0833 10.4902 50.8184C10.1715 50.5534 9.7347 50.4209 9.17969 50.4209H8.20752ZM12.7085 55.4858C12.8302 55.2782 12.9215 55.1152 12.9824 54.9971C13.0469 54.8825 13.14 54.6981 13.2617 54.4438C13.387 54.1896 13.4855 53.9479 13.5571 53.7188C13.6323 53.4896 13.7093 53.2192 13.7881 52.9077C13.8704 52.5962 13.9313 52.2614 13.9707 51.9033C14.0101 51.5417 14.0298 51.1639 14.0298 50.77C14.0298 50.1935 13.9832 49.6421 13.8901 49.1157C13.797 48.5894 13.6771 48.1418 13.5303 47.7729C13.3835 47.4041 13.242 47.098 13.106 46.8545C12.9699 46.6074 12.8338 46.4069 12.6978 46.2529H13.4819C13.6502 46.4678 13.7917 46.6593 13.9062 46.8276C14.0208 46.9924 14.1515 47.2179 14.2983 47.5044C14.4487 47.7909 14.5687 48.0791 14.6582 48.3691C14.7477 48.6592 14.8247 49.0155 14.8892 49.438C14.9536 49.8569 14.9858 50.3045 14.9858 50.7808C14.9858 52.7036 14.5007 54.272 13.5303 55.4858H12.7085Z" fill="#444444"/></svg>