<svg width="24" height="24" viewBox="0 0 24 24" xmlns="http://www.w3.org/2000/svg">
<path d="M18.9219 15.3457L21.8438 18.1377C21.9425 18.232 21.999 18.3625 21.999 18.499C21.999 18.6356 21.9425 18.766 21.8438 18.8604L18.9219 21.6523L18.5596 21.998L17.8691 21.2744L18.2305 20.9297L20.252 18.999H2.00195V17.999H20.252L18.2305 16.0684L17.8691 15.7236L18.5596 15L18.9219 15.3457ZM10.5156 8.49512L11.4648 10.8369L11.6533 11.3008L10.7266 11.6758L10.5391 11.2129L9.71582 9.18457L5.27246 9.2207L4.46484 11.2129L4.27734 11.6768L3.35059 11.3008L3.53906 10.8369L4.47168 8.53613L7.03613 2.00586H7.9668L10.5156 8.49512ZM16.7539 2.03125L16.9062 2.08789C18.9686 2.85171 19.268 5.31399 17.9199 6.62305C18.6027 6.90466 19.1158 7.36946 19.3936 7.95703C19.8331 8.88732 19.6194 9.98745 18.7891 10.8555C18.1608 11.5118 17.2553 11.663 16.5078 11.6631H13.0801V2H16.6699L16.7539 2.03125ZM14.0801 10.6631H16.5078C17.1645 10.663 17.7236 10.5221 18.0664 10.1641C18.6557 9.54798 18.7252 8.88449 18.4893 8.38477C18.2487 7.87587 17.6255 7.40108 16.5596 7.33105H14.0801V10.6631ZM5.66992 8.2168L9.32031 8.1875L7.50098 3.55566L5.66992 8.2168ZM14.0801 6.33105H16.5C18.1168 5.79782 18.1664 3.6209 16.5586 3.02539L16.4902 3H14.0801V6.33105Z"/>
</svg>
