<svg width="24" height="24" viewBox="0 0 24 24" xmlns="http://www.w3.org/2000/svg">
<path fill-rule="evenodd" clip-rule="evenodd" d="M7 14H16C18.2091 14 20 15.7909 20 18C20 20.2091 18.2091 22 16 22H7C4.79086 22 3 20.2091 3 18C3 15.7909 4.79086 14 7 14ZM16 13C18.7614 13 21 15.2386 21 18C21 20.7614 18.7614 23 16 23H7C4.23858 23 2 20.7614 2 18C2 15.2386 4.23858 13 7 13H16Z"/>
<path fill-rule="evenodd" clip-rule="evenodd" d="M16 20C14.8954 20 14 19.1046 14 18C14 16.8954 14.8954 16 16 16C17.1046 16 18 16.8954 18 18C18 19.1046 17.1046 20 16 20ZM16 21C14.3431 21 13 19.6569 13 18C13 16.3431 14.3431 15 16 15C17.6569 15 19 16.3431 19 18C19 19.6569 17.6569 21 16 21Z"/>
<path fill-rule="evenodd" clip-rule="evenodd" d="M16 3H7C4.79086 3 3 4.79086 3 7C3 9.20914 4.79086 11 7 11H16C18.2091 11 20 9.20914 20 7C20 4.79086 18.2091 3 16 3ZM7 2C4.23858 2 2 4.23858 2 7C2 9.76142 4.23858 12 7 12H16C18.7614 12 21 9.76142 21 7C21 4.23858 18.7614 2 16 2H7Z"/>
<path fill-rule="evenodd" clip-rule="evenodd" d="M7 9C8.10457 9 9 8.10457 9 7C9 5.89543 8.10457 5 7 5C5.89543 5 5 5.89543 5 7C5 8.10457 5.89543 9 7 9ZM7 10C8.65685 10 10 8.65685 10 7C10 5.34315 8.65685 4 7 4C5.34315 4 4 5.34315 4 7C4 8.65685 5.34315 10 7 10Z"/>
</svg>
