<svg width="24" height="24" viewBox="0 0 24 24" xmlns="http://www.w3.org/2000/svg">
<path d="M4 17.25C3.58579 17.25 3.25 17.5858 3.25 18C3.25 18.4142 3.58579 18.75 4 18.75H14C14.4142 18.75 14.75 18.4142 14.75 18C14.75 17.5858 14.4142 17.25 14 17.25H4ZM4 11.25C3.58579 11.25 3.25 11.5858 3.25 12C3.25 12.4142 3.58579 12.75 4 12.75H14C14.4142 12.75 14.75 12.4142 14.75 12C14.75 11.5858 14.4142 11.25 14 11.25H4ZM4 5.25C3.58579 5.25 3.25 5.58579 3.25 6C3.25 6.41421 3.58579 6.75 4 6.75H14C14.4142 6.75 14.75 6.41421 14.75 6C14.75 5.58579 14.4142 5.25 14 5.25H4Z" fill="#444444"/>
<path d="M19 16.25C18.0335 16.25 17.25 17.0335 17.25 18C17.25 18.9665 18.0335 19.75 19 19.75C19.9665 19.75 20.75 18.9665 20.75 18C20.75 17.0335 19.9665 16.25 19 16.25ZM19 10.25C18.0335 10.25 17.25 11.0335 17.25 12C17.25 12.9665 18.0335 13.75 19 13.75C19.9665 13.75 20.75 12.9665 20.75 12C20.75 11.0335 19.9665 10.25 19 10.25ZM19 4.25C18.0335 4.25 17.25 5.0335 17.25 6C17.25 6.9665 18.0335 7.75 19 7.75C19.9665 7.75 20.75 6.9665 20.75 6C20.75 5.0335 19.9665 4.25 19 4.25Z" fill="#446ECA"/>
</svg>
