<svg width="24" height="24" viewBox="0 0 24 24" xmlns="http://www.w3.org/2000/svg">
<path d="M4.49902 16C5.3015 16.0001 5.85034 16.4087 5.85059 17.0215C5.85059 17.4912 5.52633 17.831 5.05273 17.916V17.9326C5.62804 17.9804 6 18.3256 6 18.8564C5.99973 19.5437 5.37047 20 4.47949 20C3.6073 19.9998 3.03746 19.5243 3 18.8184H3.77344C3.79752 19.1421 4.06495 19.3553 4.49023 19.3555C4.8943 19.3555 5.17866 19.1294 5.17871 18.8057C5.17871 18.4554 4.91359 18.2433 4.47754 18.2432H4.00098V17.6641H4.46875C4.83801 17.6641 5.08782 17.4466 5.08789 17.1309C5.08789 16.8203 4.86529 16.6162 4.46387 16.6162C4.0892 16.6162 3.84075 16.8365 3.81934 17.1709H3.0752C3.10463 16.4622 3.66138 16 4.49902 16ZM21 19H8V18H21V19ZM4.5 10C5.35553 10 5.94336 10.4773 5.94336 11.1309C5.94335 11.619 5.60564 11.9846 5.1582 12.4131L4.16797 13.333V13.3496H6V14H3.04785V13.4492L4.5791 12.0283C4.9898 11.6325 5.11621 11.4342 5.11621 11.1631C5.11603 10.8703 4.84866 10.6377 4.47168 10.6377C4.07779 10.6378 3.78812 10.9031 3.78809 11.2637V11.2773H3V11.2637C3.00003 10.5234 3.61353 10 4.5 10ZM21 13H8V12H21V13ZM5 4V8H4.11133V4.76758H4.09375L3 5.47168V4.71777L4.1084 4H5ZM21 7H8V6H21V7Z"/>
</svg>
