<svg width="24" height="24" viewBox="0 0 24 24" xmlns="http://www.w3.org/2000/svg">
<path fill-rule="evenodd" clip-rule="evenodd" d="M23 1.99707H1V14.9971H8V20.9971H23V1.99707ZM9 2.99707H15V5.99707H9V2.99707ZM15 6.99707H9V9.99707H15V6.99707ZM9 10.9971H15V13.9971H9V10.9971ZM8 2.99707H2V5.99707H8V2.99707ZM2 6.99707H8V9.99707H2V6.99707ZM8 10.9971H2V13.9971H8V10.9971ZM16 2.99707H22V5.99707H16V2.99707ZM22 6.99707H16V9.99707H22V6.99707ZM16 10.9971H22V13.9971H16V10.9971Z"/>
<path d="M4 15.9971H5V17.9971H7V18.9971H5V20.9971H4V18.9971H2V17.9971H4V15.9971Z"/>
</svg>
