<svg width="24" height="24" viewBox="0 0 24 24" xmlns="http://www.w3.org/2000/svg">
<path d="M11.3169 15.9072C11.6769 15.5712 12.2235 15.55 12.6069 15.8438L12.6821 15.9072L15.0112 18.0811C15.314 18.3637 15.33 18.8378 15.0474 19.1406C14.7647 19.4431 14.2905 19.4602 13.9878 19.1777L12.7495 18.0215V22.2959C12.7495 22.7101 12.4137 23.0459 11.9995 23.0459C11.5855 23.0457 11.2495 22.71 11.2495 22.2959V18.0215L10.0112 19.1777C9.70841 19.46 9.23418 19.4433 8.95166 19.1406C8.66931 18.8379 8.68532 18.3637 8.98779 18.0811L11.3169 15.9072ZM11.9995 1.0459C12.4137 1.0459 12.7495 1.3817 12.7495 1.7959V6.07031L13.9878 4.91406C14.2905 4.63162 14.7647 4.64862 15.0474 4.95117C15.33 5.25397 15.314 5.72811 15.0112 6.01074L12.6821 8.18457L12.6069 8.24805C12.2235 8.54178 11.6769 8.5206 11.3169 8.18457L8.98779 6.01074C8.68528 5.72814 8.66927 5.25391 8.95166 4.95117C9.23419 4.6485 9.70841 4.63177 10.0112 4.91406L11.2495 6.07031V1.7959C11.2495 1.38182 11.5855 1.04609 11.9995 1.0459Z" fill="#446ECA"/>
<path d="M21.2715 12.7959C21.6854 12.7962 22.0215 13.1319 22.0215 13.5459C22.0215 13.9599 21.6854 14.2956 21.2715 14.2959H2.75C2.33579 14.2959 2 13.9601 2 13.5459C2 13.1317 2.33579 12.7959 2.75 12.7959H21.2715ZM21.2715 9.7959C21.6854 9.7962 22.0215 10.1319 22.0215 10.5459C22.0215 10.9599 21.6854 11.2956 21.2715 11.2959H2.75C2.33579 11.2959 2 10.9601 2 10.5459C2 10.1317 2.33579 9.7959 2.75 9.7959H21.2715Z" fill="#444444"/>
</svg>
