<svg width="24" height="24" viewBox="0 0 24 24" xmlns="http://www.w3.org/2000/svg">
<path d="M11.0312 1.86914C5.41969 1.86938 0.870157 6.41866 0.870117 12.0303C0.870157 17.6419 5.41968 22.1912 11.0312 22.1914C15.3554 22.1912 19.0473 19.4897 20.5146 15.6855C20.6634 15.2992 20.4703 14.8648 20.084 14.7158C19.6977 14.5674 19.2632 14.7603 19.1143 15.1465C17.8625 18.3911 14.7146 20.6912 11.0312 20.6914C6.24811 20.6912 2.37016 16.8135 2.37012 12.0303C2.37016 7.24709 6.24811 3.36938 11.0312 3.36914C14.4155 3.36931 17.3467 5.31162 18.7715 8.14355H16.6777C16.2636 8.14368 15.9277 8.47942 15.9277 8.89355C15.9279 9.30756 16.2637 9.64343 16.6777 9.64355H20.4424C20.8565 9.64351 21.1922 9.30761 21.1924 8.89355V5.12891C21.1924 4.71472 20.8566 4.37895 20.4424 4.37891C20.0282 4.37891 19.6924 4.71469 19.6924 5.12891V6.71484C17.9049 3.80874 14.6949 1.8693 11.0312 1.86914ZM11.6582 5.88867C11.2442 5.88892 10.9082 6.22461 10.9082 6.63867V12.1631H7.89355C7.47965 12.1635 7.14355 12.4991 7.14355 12.9131C7.14388 13.3268 7.47985 13.6627 7.89355 13.6631H11.6582C12.0722 13.6631 12.4079 13.327 12.4082 12.9131V6.63867C12.4082 6.22446 12.0724 5.88867 11.6582 5.88867Z" fill="#444444"/>
</svg>
