<svg width="24" height="24" viewBox="0 0 24 24" xmlns="http://www.w3.org/2000/svg">
<path fill-rule="evenodd" clip-rule="evenodd" d="M14.6985 5.25C14.3941 5.25 14.1196 5.43406 14.0042 5.71582L9.00421 17.9385C8.84761 18.3217 9.03129 18.7591 9.41437 18.916C9.79769 19.0727 10.2361 18.8892 10.3929 18.5059L11.5657 15.6387H17.8314L19.0042 18.5059C19.1611 18.8892 19.5994 19.0728 19.9827 18.916C20.3656 18.759 20.5494 18.3216 20.3929 17.9385L15.3929 5.71582L15.3421 5.61523C15.2082 5.3912 14.9649 5.25009 14.6985 5.25ZM5.69855 15.5508C4.89816 15.5508 4.24933 16.1996 4.24933 17C4.24933 17.8004 4.89816 18.4492 5.69855 18.4492C6.49882 18.4491 7.14777 17.8003 7.14777 17C7.14776 16.1997 6.49882 15.5509 5.69855 15.5508ZM17.2181 14.1387H12.179L14.6985 7.98047L17.2181 14.1387ZM5.69855 10.5508C4.89816 10.5508 4.24933 11.1996 4.24933 12C4.24933 12.8004 4.89816 13.4492 5.69855 13.4492C6.49882 13.4491 7.14777 12.8003 7.14777 12C7.14776 11.1997 6.49882 10.5509 5.69855 10.5508ZM5.69855 5.55078C4.89816 5.55078 4.24933 6.19962 4.24933 7C4.24933 7.80039 4.89816 8.44922 5.69855 8.44922C6.49882 8.44908 7.14777 7.8003 7.14777 7C7.14776 6.1997 6.49882 5.55092 5.69855 5.55078Z" fill="#444444"/>
</svg>
