<svg width="24" height="24" viewBox="0 0 24 24" xmlns="http://www.w3.org/2000/svg">
<path d="M15.4795 2.7959C16.2388 2.79597 16.8545 3.41155 16.8545 4.1709V4.7959H17.9512C19.0556 4.79602 19.9512 5.6914 19.9512 6.7959V19.2959C19.9512 20.4004 19.0556 21.2958 17.9512 21.2959H6C4.89543 21.2959 4 20.4005 4 19.2959V6.7959C4 5.69133 4.89543 4.7959 6 4.7959H7.09668V4.1709C7.09668 3.41151 7.71229 2.7959 8.47168 2.7959H15.4795ZM6 6.2959C5.72386 6.2959 5.5 6.51976 5.5 6.7959V19.2959C5.5 19.572 5.72386 19.7959 6 19.7959H17.9512C18.2272 19.7958 18.4512 19.572 18.4512 19.2959V6.7959C18.4512 6.51983 18.2272 6.29602 17.9512 6.2959H16.8018C16.6385 6.87287 16.1087 7.29584 15.4795 7.2959H8.47168C7.8424 7.2959 7.31274 6.87288 7.14941 6.2959H6ZM13.0078 14.7959C13.422 14.7959 13.7578 15.1317 13.7578 15.5459C13.7578 15.9601 13.422 16.2958 13.0078 16.2959H8.87891C8.46469 16.2959 8.12891 15.9601 8.12891 15.5459C8.12891 15.1317 8.46469 14.7959 8.87891 14.7959H13.0078ZM15.0723 10.7959C15.4864 10.7959 15.8223 11.1317 15.8223 11.5459C15.8223 11.9601 15.4864 12.2958 15.0723 12.2959H8.87891C8.46469 12.2959 8.12891 11.9601 8.12891 11.5459C8.12891 11.1317 8.46469 10.7959 8.87891 10.7959H15.0723ZM8.59668 5.7959H15.3545V4.2959H8.59668V5.7959Z" fill="#444444"/>
</svg>
