<svg width="24" height="24" viewBox="0 0 24 24" xmlns="http://www.w3.org/2000/svg">
<path fill-rule="evenodd" clip-rule="evenodd" d="M6.50019 2.5459C6.91421 2.54611 7.25017 2.88184 7.25019 3.2959V18.4854L8.96991 16.7656C9.26282 16.4729 9.73764 16.4728 10.0305 16.7656C10.3231 17.0585 10.3231 17.5333 10.0305 17.8262L7.03046 20.8262C6.73763 21.119 6.26282 21.1189 5.96991 20.8262L2.96991 17.8262C2.67702 17.5333 2.67702 17.0585 2.96991 16.7656C3.26282 16.4729 3.73764 16.4728 4.03046 16.7656L5.75019 18.4854V3.2959C5.75021 2.8817 6.08599 2.5459 6.50019 2.5459ZM15.5002 13.5459C15.9143 13.546 16.2502 13.8818 16.2502 14.2959V18.4854L17.9699 16.7656C18.2628 16.4728 18.7376 16.4728 19.0305 16.7656C19.3231 17.0585 19.3232 17.5333 19.0305 17.8262L16.0305 20.8262C15.8899 20.9668 15.699 21.0458 15.5002 21.0459C15.3013 21.0459 15.1106 20.9667 14.9699 20.8262L11.9699 17.8262C11.6771 17.5333 11.6771 17.0585 11.9699 16.7656C12.2628 16.4728 12.7376 16.4727 13.0305 16.7656L14.7502 18.4854V14.2959C14.7502 13.8817 15.086 13.5459 15.5002 13.5459Z" fill="#446ECA"/>
<path d="M15.501 2.68945C15.8134 2.68962 16.0933 2.88429 16.2031 3.17676L19.0957 10.8916L20.0605 13.4629C20.2055 13.8506 20.0087 14.2834 19.6211 14.4287C19.2335 14.5739 18.8009 14.3767 18.6553 13.9893L17.874 11.9043H13.1279L12.3457 13.9893C12.2002 14.3768 11.7675 14.5739 11.3799 14.4287C10.9923 14.2833 10.7963 13.8506 10.9414 13.4629L11.9053 10.8916L14.7988 3.17676L14.8477 3.07227C14.979 2.83907 15.2274 2.68945 15.501 2.68945ZM13.6904 10.4043H17.3115L15.501 5.57617L13.6904 10.4043Z" fill="#444444"/>
</svg>
