<svg width="24" height="24" viewBox="0 0 24 24" xmlns="http://www.w3.org/2000/svg">
<path fill-rule="evenodd" clip-rule="evenodd" d="M9.99994 5.25C10.3044 5.25 10.5789 5.43406 10.6943 5.71582L15.6943 17.9385C15.8509 18.3217 15.6672 18.7591 15.2841 18.916C14.9008 19.0727 14.4624 18.8892 14.3056 18.5059L13.1328 15.6387H6.86713L5.69427 18.5059C5.53741 18.8892 5.0991 19.0728 4.71576 18.916C4.33285 18.759 4.14909 18.3216 4.3056 17.9385L9.3056 5.71582L9.35638 5.61523C9.49025 5.3912 9.73354 5.25009 9.99994 5.25ZM18.9999 15.5508C19.8003 15.5508 20.4492 16.1996 20.4492 17C20.4492 17.8004 19.8003 18.4492 18.9999 18.4492C18.1997 18.4491 17.5507 17.8003 17.5507 17C17.5507 16.1997 18.1997 15.5509 18.9999 15.5508ZM7.48041 14.1387H12.5195L9.99994 7.98047L7.48041 14.1387ZM18.9999 10.5508C19.8003 10.5508 20.4492 11.1996 20.4492 12C20.4492 12.8004 19.8003 13.4492 18.9999 13.4492C18.1997 13.4491 17.5507 12.8003 17.5507 12C17.5507 11.1997 18.1997 10.5509 18.9999 10.5508ZM18.9999 5.55078C19.8003 5.55078 20.4492 6.19962 20.4492 7C20.4492 7.80039 19.8003 8.44922 18.9999 8.44922C18.1997 8.44908 17.5507 7.8003 17.5507 7C17.5507 6.1997 18.1997 5.55092 18.9999 5.55078Z" fill="#444444"/>
</svg>
