<svg width="64" height="65" viewBox="0 0 64 65" fill="none" xmlns="http://www.w3.org/2000/svg"><rect opacity="0.3" x="21" y="13.998" width="35" height="1" fill="#444444"/><rect opacity="0.3" x="21" y="31.998" width="35" height="1" fill="#444444"/><rect opacity="0.3" x="21" y="49.998" width="35" height="1" fill="#444444"/><path d="M11.79 18.998L11.0112 16.7798H7.92822L7.14941 18.998H6.13428L8.9917 11.2476H9.94775L12.8052 18.998H11.79ZM9.45361 12.4238L8.21289 15.958H10.7266L9.48584 12.4238H9.45361Z" fill="#444444"/><path d="M9.77588 36.998H6.75195V29.2476H9.78662C10.4491 29.2476 10.9844 29.4248 11.3926 29.7793C11.8044 30.1338 12.0103 30.6011 12.0103 31.1812C12.0103 31.5858 11.8796 31.9528 11.6182 32.2822C11.3604 32.6081 11.0452 32.805 10.6729 32.873V32.916C11.1992 32.984 11.6182 33.1899 11.9297 33.5337C12.2448 33.8774 12.4023 34.3071 12.4023 34.8228C12.4023 35.5067 12.1696 36.0402 11.7041 36.4233C11.2422 36.8065 10.5994 36.998 9.77588 36.998ZM7.71875 30.1016V32.5884H9.26562C9.83854 32.5884 10.2754 32.4774 10.5762 32.2554C10.8805 32.0334 11.0327 31.7129 11.0327 31.2939C11.0327 30.9108 10.9056 30.6172 10.6514 30.4131C10.3971 30.2054 10.0355 30.1016 9.56641 30.1016H7.71875ZM7.71875 36.144H9.63086C10.2145 36.144 10.6567 36.0277 10.9575 35.7949C11.2583 35.5622 11.4087 35.222 11.4087 34.7744C11.4087 33.8721 10.7856 33.4209 9.53955 33.4209H7.71875V36.144Z" fill="#444444"/><path d="M9.94238 54.127C8.87174 54.127 8.02132 53.7671 7.39111 53.0474C6.76449 52.3241 6.45117 51.3483 6.45117 50.1201C6.45117 48.9027 6.76807 47.9323 7.40186 47.209C8.03564 46.4821 8.88249 46.1187 9.94238 46.1187C10.7874 46.1187 11.5036 46.355 12.0908 46.8276C12.6816 47.2967 13.0379 47.918 13.1597 48.6914H12.1821C12.0568 48.1829 11.79 47.7765 11.3818 47.4722C10.9736 47.1642 10.4938 47.0103 9.94238 47.0103C9.18685 47.0103 8.58171 47.2931 8.12695 47.8589C7.6722 48.4246 7.44482 49.1784 7.44482 50.1201C7.44482 51.0726 7.67041 51.8299 8.12158 52.3921C8.57275 52.9543 9.18148 53.2354 9.94775 53.2354C10.5171 53.2354 10.9969 53.1047 11.3872 52.8433C11.7775 52.5819 12.0425 52.2148 12.1821 51.7422H13.1597C12.9806 52.5085 12.6136 53.0975 12.0586 53.5093C11.5036 53.9211 10.7982 54.127 9.94238 54.127Z" fill="#444444"/><rect x="15" y="17.998" width="1" height="1" fill="#444444"/><rect x="15" y="35.998" width="1" height="1" fill="#444444"/><rect x="15" y="52.998" width="1" height="1" fill="#444444"/></svg>