<svg width="24" height="24" viewBox="0 0 24 24" xmlns="http://www.w3.org/2000/svg">
<path d="M11.9767 19C9.13025 19 7.15814 17.4413 7 15.0469H8.68372C8.84186 16.5117 10.2186 17.4789 12.1349 17.4789C13.9489 17.4789 15.2698 16.5117 15.2698 15.1784C15.2698 14.1421 14.6226 13.4669 13.1631 13H4V12H9.70758C8.10681 11.333 7.38141 10.3271 7.38141 8.83099C7.38141 6.57745 9.3349 5 12.1256 5C14.7953 5 16.7302 6.59625 16.8046 8.86853H15.1302C14.9814 7.41315 13.8186 6.52112 12.0698 6.52112C10.3303 6.52112 9.12091 7.43192 9.12091 8.75586C9.12091 9.77936 9.86511 10.3897 11.6884 10.8685L13.093 11.2441C13.9345 11.4572 14.6245 11.7047 15.1776 12H20V13H16.4087C16.8147 13.5368 17 14.1832 17 14.9718C17 17.4507 15.0651 19 11.9767 19Z"/>
</svg>
