<svg width="24" height="24" viewBox="0 0 24 24" xmlns="http://www.w3.org/2000/svg">
<path fill-rule="evenodd" clip-rule="evenodd" d="M18.0301 20.8252C17.7373 21.118 17.2625 21.118 16.9696 20.8252L13.9696 17.8262C13.6771 17.5333 13.6768 17.0574 13.9696 16.7646C14.2623 16.4723 14.7373 16.4725 15.0301 16.7646L16.7499 18.4844L16.7499 3.29395C16.7501 2.8801 17.086 2.54418 17.4999 2.54395C17.9139 2.54395 18.2496 2.87996 18.2499 3.29395L18.2499 18.4844L19.9696 16.7646C20.2623 16.4723 20.7373 16.4725 21.0301 16.7646C21.323 17.0575 21.3229 17.5333 21.0301 17.8262L18.0301 20.8252ZM8.50084 21.0459C8.30196 21.0459 8.1112 20.9668 7.97056 20.8262L4.97056 17.8262C4.67769 17.5333 4.67764 17.0575 4.97056 16.7646C5.26343 16.4724 5.73839 16.4722 6.03111 16.7646L7.75084 18.4854L7.75084 12.2949C7.75124 11.8811 8.08687 11.5449 8.50084 11.5449C8.91462 11.5451 9.25043 11.8812 9.25084 12.2949L9.25084 18.4854L10.9706 16.7656C11.2635 16.4731 11.7383 16.4728 12.0311 16.7656C12.3238 17.0584 12.3237 17.5333 12.0311 17.8262L9.03111 20.8262L8.91685 20.9199C8.79466 21.0014 8.64985 21.0458 8.50084 21.0459Z" fill="#446ECA"/>
<path d="M14.999 7.18848C14.9988 7.50086 14.8042 7.78084 14.5117 7.89063L6.79688 10.7832L4.22559 11.748C3.83793 11.893 3.40512 11.6962 3.25977 11.3086C3.11454 10.921 3.31177 10.4884 3.69922 10.3428L5.78418 9.56152L5.78418 4.81543L3.69922 4.0332C3.31173 3.88766 3.11458 3.45502 3.25977 3.06738C3.40522 2.67981 3.83792 2.48379 4.22559 2.62891L6.79688 3.59277L14.5117 6.48633L14.6162 6.53516C14.8494 6.66654 14.999 6.91494 14.999 7.18848ZM7.28418 5.37793L7.28418 8.99902L12.1123 7.18848L7.28418 5.37793Z" fill="#444444"/>
</svg>
