<svg width="24" height="24" viewBox="0 0 24 24" xmlns="http://www.w3.org/2000/svg">
<path opacity="0.4" d="M11.5 15.5459C11.9142 15.5459 12.25 15.8817 12.25 16.2959V18.2959C12.25 18.7101 11.9142 19.0459 11.5 19.0459C11.0858 19.0459 10.75 18.7101 10.75 18.2959V16.2959C10.75 15.8817 11.0858 15.5459 11.5 15.5459ZM11.5 8.5459C11.9142 8.5459 12.25 8.88168 12.25 9.2959V10.5459H13.5C13.9142 10.5459 14.25 10.8817 14.25 11.2959C14.25 11.7101 13.9142 12.0459 13.5 12.0459H12.25V13.2959C12.25 13.7101 11.9142 14.0459 11.5 14.0459C11.0858 14.0459 10.75 13.7101 10.75 13.2959V12.0459H9.5C9.08579 12.0459 8.75 11.7101 8.75 11.2959C8.75 10.8817 9.08579 10.5459 9.5 10.5459H10.75V9.2959C10.75 8.88168 11.0858 8.5459 11.5 8.5459ZM6.5 10.5459C6.91421 10.5459 7.25 10.8817 7.25 11.2959C7.25 11.7101 6.91421 12.0459 6.5 12.0459H4.5C4.08579 12.0459 3.75 11.7101 3.75 11.2959C3.75 10.8817 4.08579 10.5459 4.5 10.5459H6.5ZM18.5 10.5459C18.9142 10.5459 19.25 10.8817 19.25 11.2959C19.25 11.7101 18.9142 12.0459 18.5 12.0459H16.5C16.0858 12.0459 15.75 11.7101 15.75 11.2959C15.75 10.8817 16.0858 10.5459 16.5 10.5459H18.5ZM11.5 3.5459C11.9142 3.5459 12.25 3.88168 12.25 4.2959V6.2959C12.25 6.71011 11.9142 7.0459 11.5 7.0459C11.0858 7.0459 10.75 6.71011 10.75 6.2959V4.2959C10.75 3.88168 11.0858 3.5459 11.5 3.5459Z" fill="#444444"/>
<path d="M20.4995 0.545898C21.466 0.545898 22.2495 1.3294 22.2495 2.2959V20.2959C22.2495 21.2624 21.466 22.0459 20.4995 22.0459H2.49951C1.53321 22.0457 0.749512 21.2623 0.749512 20.2959V2.2959C0.749512 1.32954 1.53321 0.546126 2.49951 0.545898H20.4995ZM2.49951 2.0459C2.36163 2.04613 2.24951 2.15797 2.24951 2.2959V20.2959C2.24951 20.4338 2.36163 20.5457 2.49951 20.5459H20.4995C20.6376 20.5459 20.7495 20.434 20.7495 20.2959V2.2959C20.7495 2.15783 20.6376 2.0459 20.4995 2.0459H2.49951Z" fill="#446ECA"/>
</svg>
