<svg width="24" height="24" viewBox="0 0 24 24" xmlns="http://www.w3.org/2000/svg">
<path d="M11.999 1.92871C17.5597 1.92891 22.0672 6.43738 22.0674 11.998C22.0672 17.5587 17.5597 22.0662 11.999 22.0664C6.43835 22.0662 1.92989 17.5587 1.92969 11.998C1.92985 6.43735 6.43833 1.92888 11.999 1.92871ZM6.49512 18.5635C7.98413 19.8129 9.9032 20.5663 11.999 20.5664C16.7312 20.5662 20.5672 16.7303 20.5674 11.998C20.5673 9.90245 19.8146 7.98308 18.5654 6.49414L6.49512 18.5635ZM11.999 3.42871C7.26676 3.42888 3.42985 7.26578 3.42969 11.998C3.42978 14.0944 4.18444 16.0139 5.43457 17.5029L17.5039 5.43359C16.0149 4.18346 14.0953 3.4288 11.999 3.42871Z" fill="#444444"/>
</svg>
