<svg width="24" height="24" viewBox="0 0 24 24" xmlns="http://www.w3.org/2000/svg">
<path d="M3 3H14V8H15V2H2V16H9V15H3V3Z"/>
<path fill-rule="evenodd" clip-rule="evenodd" d="M21 9H10V21H21V9ZM9 8V22H22V8H9Z"/>
<path fill-rule="evenodd" clip-rule="evenodd" d="M12 6H5V5H12V6Z"/>
<path fill-rule="evenodd" clip-rule="evenodd" d="M9 9.5H5V8.5H9V9.5Z"/>
<path fill-rule="evenodd" clip-rule="evenodd" d="M9 13H5V12H9V13Z"/>
<path fill-rule="evenodd" clip-rule="evenodd" d="M19 12H12V11H19V12Z"/>
<path fill-rule="evenodd" clip-rule="evenodd" d="M19 15.5H12V14.5H19V15.5Z"/>
<path fill-rule="evenodd" clip-rule="evenodd" d="M19 19H12V18H19V19Z"/>
</svg>
