<svg width="64" height="64" viewBox="0 0 64 64" xmlns="http://www.w3.org/2000/svg">
<rect opacity="0.3" x="8" y="13" width="35" height="1" fill="#444444"/>
<rect opacity="0.3" x="8" y="31" width="35" height="1" fill="#444444"/>
<rect opacity="0.3" x="8" y="49" width="35" height="1" fill="#444444"/>
<path d="M54.605 18V11.2754H54.5835L52.5317 12.7524V11.7319L54.5942 10.2495H55.5396V18H54.605Z" fill="#444444"/>
<path d="M51.5801 30.4839C51.5801 29.1304 52.6758 28.1206 54.1367 28.1206C55.5225 28.1206 56.6128 29.0605 56.6128 30.2476C56.6128 31.1123 56.2207 31.7568 54.9263 33.0942L52.9658 35.1191V35.1406H56.7417V36H51.6284V35.334L54.3569 32.4604C55.3989 31.3647 55.646 30.9512 55.646 30.3066C55.646 29.5601 54.9639 28.9639 54.1099 28.9639C53.2021 28.9639 52.5146 29.6191 52.5146 30.4839V30.4893H51.5801V30.4839Z" fill="#444444"/>
<path d="M53.2075 49.4229V48.6064H54.1367C55.0283 48.6064 55.6514 48.0317 55.6514 47.2476C55.6514 46.4795 55.1304 45.9585 54.1475 45.9585C53.2559 45.9585 52.665 46.4688 52.5791 47.2798H51.6499C51.7573 45.9639 52.7349 45.1206 54.1904 45.1206C55.5762 45.1206 56.6235 45.9531 56.6235 47.1187C56.6235 48.0908 56.0005 48.7891 55.0337 48.9609V48.9824C56.2046 49.0522 56.9565 49.7773 56.9565 50.8677C56.9565 52.1997 55.7427 53.1289 54.2227 53.1289C52.6006 53.1289 51.564 52.2319 51.4941 50.9482H52.4233C52.5093 51.7432 53.1699 52.291 54.2119 52.291C55.2378 52.291 55.9736 51.7109 55.9736 50.8999C55.9736 49.9868 55.2861 49.4229 54.1797 49.4229H53.2075Z" fill="#444444"/>
<rect x="48" y="17" width="1" height="1" fill="#444444"/>
<rect x="48" y="35" width="1" height="1" fill="#444444"/>
<rect x="48" y="52" width="1" height="1" fill="#444444"/>
</svg>
