<svg width="24" height="24" viewBox="0 0 24 24" xmlns="http://www.w3.org/2000/svg">
<path d="M11.998 1.92969C6.43739 1.92989 1.92985 6.43835 1.92969 11.999C1.92989 17.5597 6.43741 22.0672 11.998 22.0674C17.5587 22.0672 22.0672 17.5597 22.0674 11.999C22.0672 6.43833 17.5587 1.92985 11.998 1.92969ZM17.502 18.5645C16.0129 19.8139 14.0939 20.5673 11.998 20.5674C7.26584 20.5672 3.42989 16.7312 3.42969 11.999C3.42976 9.90343 4.18243 7.98406 5.43164 6.49512L17.502 18.5645ZM11.998 3.42969C16.7303 3.42985 20.5672 7.26676 20.5674 11.999C20.5673 14.0953 19.8126 16.0149 18.5625 17.5039L6.49316 5.43457C7.98218 4.18444 9.90173 3.42978 11.998 3.42969Z" fill="#444444"/>
</svg>
