<svg version="1.1" xmlns="http://www.w3.org/2000/svg" xmlns:xlink="http://www.w3.org/1999/xlink" viewBox="0 0 22 22"><g><path d="M18.5,15.5c-1.1,0-2,0.9-2,2s0.9,2,2,2s2-0.9,2-2S19.6,15.5,18.5,15.5z M18.5,18.5c-0.6,0-1-0.4-1-1c0-0.6,0.4-1,1-1s1,0.4,1,1C19.5,18.1,19.1,18.5,18.5,18.5z M18.5,7.5c1.1,0,2-0.9,2-2c0-1.1-0.9-2-2-2s-2,0.9-2,2C16.5,6.6,17.4,7.5,18.5,7.5z M18.5,4.5c0.6,0,1,0.4,1,1s-0.4,1-1,1s-1-0.4-1-1S17.9,4.5,18.5,4.5z M18.5,9.5c-1.1,0-2,0.9-2,2s0.9,2,2,2s2-0.9,2-2S19.6,9.5,18.5,9.5z M18.5,12.5c-0.6,0-1-0.4-1-1c0-0.6,0.4-1,1-1s1,0.4,1,1C19.5,12.1,19.1,12.5,18.5,12.5z M6.9,3.8L1,18.9h1.5l1.8-4.7h6.9l1.7,4.7h1.5L8.6,3.8H6.9z M4.7,12.9l3-7.9l3,7.9H4.7z"/></g></svg>