<svg width="24" height="24" viewBox="0 0 24 24" xmlns="http://www.w3.org/2000/svg">
<path d="M5.5918 2C5.7319 2.00003 5.86608 2.05662 5.96289 2.15527L9.18457 5.44043L8.44141 6.13086L6.10547 3.74707V22H5.0791V3.74707L2.74316 6.13086L2 5.44043L5.22168 2.15527C5.31842 2.05675 5.45184 2.00011 5.5918 2ZM21.999 13.2529L19.4668 14.2979L19.5039 18.8887L21.5283 19.7236L22 19.917L21.6182 20.875L18.8076 19.7158L12.1699 17.0664V16.1045L18.7656 13.4707L21.6182 12.2949L21.999 13.2529ZM13.7451 16.5859L18.4834 18.4785L18.4531 14.7061L13.7451 16.5859ZM18.2188 4.29688C19.1643 3.84263 20.2827 4.06386 21.165 4.92188C21.8321 5.57112 21.9863 6.50688 21.9863 7.2793V10.8213H12.1641V7.11133L12.2539 6.86719L12.3506 6.62891C13.2208 4.71461 15.584 4.4808 16.8633 5.82031C17.1495 5.1147 17.6214 4.58393 18.2188 4.29688ZM16.5664 7.28711C16.0417 5.66927 13.9513 5.56962 13.2695 7.07324L13.2061 7.22656L13.1807 7.29688V9.78809H16.5664V7.28711ZM20.4629 5.66895C19.8368 5.06003 19.1622 4.98779 18.6543 5.23145C18.1369 5.47999 17.6541 6.12393 17.583 7.22559V9.78809H20.9697V7.2793C20.9697 6.60088 20.8265 6.02324 20.4629 5.66895Z"/>
</svg>
