<svg width="64" height="65" viewBox="0 0 64 65" fill="none" xmlns="http://www.w3.org/2000/svg"><rect opacity="0.3" x="21" y="13.998" width="35" height="1" fill="#444444"/><rect opacity="0.3" x="21" y="31.998" width="35" height="1" fill="#444444"/><rect opacity="0.3" x="21" y="49.998" width="35" height="1" fill="#444444"/><path d="M8.60498 18.998V12.2734H8.5835L6.53174 13.7505V12.73L8.59424 11.2476H9.53955V18.998H8.60498Z" fill="#444444"/><path d="M6.58008 31.4819C6.58008 30.8052 6.82357 30.243 7.31055 29.7954C7.79753 29.3442 8.40625 29.1187 9.13672 29.1187C9.8278 29.1187 10.4132 29.3245 10.8931 29.7363C11.3729 30.1481 11.6128 30.6512 11.6128 31.2456C11.6128 31.6753 11.4946 32.0889 11.2583 32.4863C11.022 32.8838 10.578 33.4191 9.92627 34.0923L7.96582 36.1172V36.1387H11.7417V36.998H6.62842V36.332L9.35693 33.4585C9.87614 32.9106 10.2199 32.4953 10.3882 32.2124C10.5601 31.9295 10.646 31.627 10.646 31.3047C10.646 30.9323 10.4956 30.6154 10.1948 30.354C9.89762 30.0926 9.53597 29.9619 9.10986 29.9619C8.65511 29.9619 8.27555 30.1069 7.97119 30.397C7.66683 30.687 7.51465 31.0487 7.51465 31.4819V31.4873H6.58008V31.4819Z" fill="#444444"/><path d="M8.20752 50.4209V49.6045H9.13672C9.58073 49.6045 9.94417 49.4774 10.2271 49.2231C10.5099 48.9653 10.6514 48.6395 10.6514 48.2456C10.6514 47.8517 10.5207 47.5384 10.2593 47.3057C9.99788 47.0729 9.62728 46.9565 9.14746 46.9565C8.70345 46.9565 8.3418 47.0747 8.0625 47.311C7.7832 47.5474 7.62207 47.8696 7.5791 48.2778H6.6499C6.70361 47.619 6.95785 47.0944 7.4126 46.7041C7.87093 46.3138 8.46354 46.1187 9.19043 46.1187C9.88867 46.1187 10.4688 46.3066 10.9307 46.6826C11.3926 47.0586 11.6235 47.5366 11.6235 48.1167C11.6235 48.6001 11.4803 49.0065 11.1938 49.3359C10.9074 49.6654 10.5207 49.873 10.0337 49.959V49.9805C10.6209 50.0163 11.0882 50.2043 11.4355 50.5444C11.7829 50.881 11.9565 51.3215 11.9565 51.8657C11.9565 52.299 11.8348 52.6893 11.5913 53.0366C11.3478 53.384 11.0184 53.6525 10.603 53.8423C10.1877 54.0321 9.72754 54.127 9.22266 54.127C8.42057 54.127 7.77425 53.9264 7.28369 53.5254C6.79313 53.1243 6.52995 52.598 6.49414 51.9463H7.42334C7.46631 52.3509 7.64714 52.6768 7.96582 52.9238C8.28451 53.1673 8.69987 53.2891 9.21191 53.2891C9.72396 53.2891 10.1447 53.1584 10.4741 52.897C10.8071 52.6356 10.9736 52.3026 10.9736 51.8979C10.9736 51.4432 10.8125 51.0833 10.4902 50.8184C10.1715 50.5534 9.7347 50.4209 9.17969 50.4209H8.20752Z" fill="#444444"/><rect x="13" y="17.998" width="1" height="1" fill="#444444"/><rect x="13" y="35.998" width="1" height="1" fill="#444444"/><rect x="13" y="52.998" width="1" height="1" fill="#444444"/></svg>