<svg width="24" height="24" viewBox="0 0 24 24" xmlns="http://www.w3.org/2000/svg">
<path d="M12.8889 3.11111L13.3333 5.33333C13.4444 6.11111 14 6.55556 14.7778 6.55556C15.1111 6.55556 15.3333 6.44444 15.5556 6.33333L17.6667 5L18.8889 6.22222L17.6667 8.22222C17.3333 8.66667 17.3333 9.22222 17.5556 9.66667C17.7778 10.1111 18.1111 10.4444 18.6667 10.5556L21 11.1111V12.8889L18.6667 13.3333C18.1111 13.4444 17.7778 13.7778 17.5556 14.2222C17.3333 14.6667 17.4444 15.2222 17.6667 15.5556L19 17.6667L17.7778 18.8889L15.7778 17.6667C15.5556 17.4444 15.2222 17.4444 14.8889 17.4444C14.2222 17.4444 13.5556 18 13.4444 18.6667L12.8889 21H11.1111L10.6667 18.7778C10.5556 18 10 17.5556 9.22222 17.5556C8.88889 17.5556 8.66667 17.6667 8.44445 17.7778L6.33333 19.1111L5.11111 17.8889L6.33333 15.8889C6.66667 15.4444 6.66667 14.8889 6.44444 14.4444C6.22222 14 5.88889 13.6667 5.33333 13.5556L3 13V11.2222L5.22222 10.7778C5.77778 10.6667 6.11111 10.3333 6.33333 9.88889C6.55556 9.44445 6.44444 8.88889 6.22222 8.55556L5.11111 6.33333L6.33333 5.11111L8.33333 6.33333C8.66667 6.55556 8.88889 6.66667 9.22222 6.66667C9.88889 6.66667 10.5556 6.11111 10.6667 5.44444L11.2222 3.11111H12.8889ZM12 17C14.7778 17 17 14.7778 17 12C17 9.22222 14.7778 7 12 7C9.22222 7 7 9.22222 7 12C7 14.7778 9.22222 17 12 17ZM13.2222 2H10.7778C10.4444 2 10.2222 2.22222 10.1111 2.55556L9.55556 5.22222C9.55556 5.44444 9.33333 5.55556 9.22222 5.55556C9.11111 5.55556 9.11111 5.55556 9 5.44444L6.66667 4C6.55556 3.88889 6.44444 3.88889 6.22222 3.88889C6.11111 3.88889 5.88889 3.88889 5.77778 4L4 5.77778C3.88889 6 3.77778 6.33333 4 6.66667L5.44444 9C5.55556 9.22222 5.55556 9.44445 5.22222 9.55556L2.55556 10.1111C2.22222 10.2222 2 10.4444 2 10.7778V13.2222C2 13.5556 2.22222 13.7778 2.55556 13.8889L5.22222 14.4444C5.55556 14.5556 5.66667 14.7778 5.44444 15L4 17.3333C3.77778 17.5556 3.88889 18 4.11111 18.2222L5.88889 20C6 20.1111 6.22222 20.2222 6.33333 20.2222C6.44444 20.2222 6.55556 20.2222 6.66667 20.1111L9 18.6667C9.11111 18.5556 9.11111 18.5556 9.22222 18.5556C9.33333 18.5556 9.55556 18.6667 9.55556 18.8889L10.1111 21.4444C10.2222 21.7778 10.4444 22 10.7778 22H13.2222C13.5556 22 13.7778 21.7778 13.8889 21.4444L14.4444 18.7778C14.4444 18.5556 14.5556 18.4444 14.7778 18.4444C14.8889 18.4444 14.8889 18.4444 15 18.5556L17.3333 20C17.4444 20.1111 17.5556 20.1111 17.6667 20.1111C17.8889 20.1111 18 20 18.1111 19.8889L19.8889 18.1111C20.1111 17.8889 20.1111 17.5556 20 17.2222L18.5556 14.8889C18.3333 14.6667 18.4444 14.3333 18.7778 14.3333L21.4444 13.7778C21.7778 13.6667 22 13.4444 22 13.1111V10.6667C22 10.3333 21.7778 10.1111 21.4444 10L18.7778 9.44444C18.4444 9.33333 18.3333 9.11111 18.5556 8.88889L20 6.55556C20.2222 6.33333 20.1111 5.88889 19.8889 5.66667L18.1111 3.88889C18 3.77778 17.7778 3.66667 17.6667 3.66667C17.5556 3.66667 17.4444 3.66667 17.3333 3.77778L15 5.22222C14.8889 5.33333 14.8889 5.33333 14.7778 5.33333C14.6667 5.33333 14.4444 5.22222 14.4444 5L13.8889 2.55556C13.7778 2.22222 13.5556 2 13.2222 2ZM12 15.8889C9.88889 15.8889 8.11111 14.1111 8.11111 12C8.11111 9.88889 9.88889 8.11111 12 8.11111C14.1111 8.11111 15.8889 9.88889 15.8889 12C15.8889 14.1111 14.1111 15.8889 12 15.8889Z"/>
</svg>
