<svg width="64" height="64" viewBox="0 0 64 64" xmlns="http://www.w3.org/2000/svg">
<path d="M55.0732 18H56.0078V10.2495H55.0625L53 11.7319V12.7524L55.0518 11.2754H55.0732V18Z" fill="#444444"/>
<path d="M52 30.4839V30.4893H52.9346V30.4839C52.9346 29.6191 53.6221 28.9639 54.5298 28.9639C55.3838 28.9639 56.0659 29.5601 56.0659 30.3066C56.0659 30.9512 55.8188 31.3647 54.7769 32.4604L52.0483 35.334V36H57.1616V35.1406H53.3857V35.1191L55.3462 33.0942C56.6406 31.7568 57.0327 31.1123 57.0327 30.2476C57.0327 29.0605 55.9424 28.1206 54.5566 28.1206C53.0957 28.1206 52 29.1304 52 30.4839Z" fill="#444444"/>
<path d="M53.7134 49.4229H54.6855C55.792 49.4229 56.4795 49.9868 56.4795 50.8999C56.4795 51.7109 55.7437 52.291 54.7178 52.291C53.6758 52.291 53.0151 51.7432 52.9292 50.9482H52C52.0698 52.2319 53.1064 53.1289 54.7285 53.1289C56.2485 53.1289 57.4624 52.1997 57.4624 50.8677C57.4624 49.7773 56.7104 49.0522 55.5396 48.9824V48.9609C56.5063 48.7891 57.1294 48.0908 57.1294 47.1187C57.1294 45.9531 56.082 45.1206 54.6963 45.1206C53.2407 45.1206 52.2632 45.9639 52.1558 47.2798H53.085C53.1709 46.4688 53.7617 45.9585 54.6533 45.9585C55.6362 45.9585 56.1572 46.4795 56.1572 47.2476C56.1572 48.0317 55.5342 48.6064 54.6426 48.6064H53.7134V49.4229Z" fill="#444444"/>
<rect opacity="0.3" width="35" height="1" transform="matrix(-1 0 0 1 43 13)" fill="#444444"/>
<rect opacity="0.3" width="35" height="1" transform="matrix(-1 0 0 1 43 31)" fill="#444444"/>
<rect opacity="0.3" width="35" height="1" transform="matrix(-1 0 0 1 43 49)" fill="#444444"/>
<path d="M48.6904 14.9492C48.6904 12.4946 49.5068 11.1519 50.2158 10.2495H51C50.5327 10.792 49.6411 12.5161 49.6411 14.9492C49.6411 17.3823 50.5273 19.1011 51 19.6489H50.2158C49.5068 18.7466 48.6904 17.4038 48.6904 14.9492Z" fill="#444444"/>
<path d="M48 32.9492C48 30.4946 48.8164 29.1519 49.5254 28.2495H50.3096C49.8423 28.792 48.9507 30.5161 48.9507 32.9492C48.9507 35.3823 49.8369 37.1011 50.3096 37.6489H49.5254C48.8164 36.7466 48 35.4038 48 32.9492Z" fill="#444444"/>
<path d="M48.6904 49.9492C48.6904 47.4946 49.5068 46.1519 50.2158 45.2495H51C50.5327 45.792 49.6411 47.5161 49.6411 49.9492C49.6411 52.3823 50.5273 54.1011 51 54.6489H50.2158C49.5068 53.7466 48.6904 52.4038 48.6904 49.9492Z" fill="#444444"/>
</svg>
