<svg width="24" height="24" viewBox="0 0 24 24" xmlns="http://www.w3.org/2000/svg">
<path d="M12.9688 1.86914C18.5803 1.86938 23.1298 6.41866 23.1299 12.0303C23.1298 17.6419 18.5803 22.1912 12.9688 22.1914C8.64461 22.1912 4.95272 19.4897 3.48535 15.6855C3.33657 15.2992 3.52968 14.8648 3.91602 14.7158C4.30226 14.5674 4.73679 14.7603 4.88574 15.1465C6.13753 18.3911 9.28538 20.6912 12.9688 20.6914C17.7519 20.6912 21.6298 16.8135 21.6299 12.0303C21.6298 7.24709 17.7519 3.36938 12.9688 3.36914C9.58451 3.36931 6.65334 5.31162 5.22852 8.14355H7.32227C7.73638 8.14368 8.07227 8.47942 8.07227 8.89355C8.0721 9.30756 7.73628 9.64343 7.32227 9.64355H3.55762C3.14354 9.64351 2.80778 9.30761 2.80762 8.89355V5.12891C2.80762 4.71472 3.14344 4.37895 3.55762 4.37891C3.97183 4.37891 4.30762 4.71469 4.30762 5.12891V6.71484C6.09513 3.80874 9.30509 1.8693 12.9688 1.86914ZM12.3418 5.88867C12.7558 5.88892 13.0918 6.22461 13.0918 6.63867V12.1631H16.1064C16.5203 12.1635 16.8564 12.4991 16.8564 12.9131C16.8561 13.3268 16.5201 13.6627 16.1064 13.6631H12.3418C11.9278 13.6631 11.5921 13.327 11.5918 12.9131V6.63867C11.5918 6.22446 11.9276 5.88867 12.3418 5.88867Z" fill="#444444"/>
</svg>
