<svg width="24" height="24" viewBox="0 0 24 24" xmlns="http://www.w3.org/2000/svg">
<path d="M12.5436 18C15.3109 18 17 16.5946 17 14.3063C17 12.5856 15.7601 11.3153 13.9991 11.1441V11.0721C15.3288 10.8559 16.3621 9.63964 16.3621 8.24324C16.3621 6.27027 14.8437 5 12.4897 5H7V18H12.5436ZM9.31806 6.81081H11.9146C13.2893 6.81081 14.071 7.45045 14.071 8.58559C14.071 9.79279 13.1635 10.4775 11.5463 10.4775H9.31806V6.81081ZM9.31806 16.1892V12.1261H11.9236C13.6936 12.1261 14.628 12.8198 14.628 14.1441C14.628 15.4775 13.7206 16.1892 12.0135 16.1892H9.31806Z"/>
</svg>
