<svg width="24" height="24" viewBox="0 0 24 24" xmlns="http://www.w3.org/2000/svg"><path fill-rule="evenodd" clip-rule="evenodd" d="M7.10359 22.0648L11.0819 18.5454L9.95669 17.55L7.33664 19.8678L7.33664 1.9375L5.7453 1.9375L5.7453 19.8678L3.12525 17.55L2 18.5454L5.97834 22.0648L6.54097 22.5625L7.10359 22.0648Z" /><path d="M14.513 13.1875L17.8287 13.1875C18.4851 13.1875 18.9736 13.2173 19.2942 13.277C19.6186 13.3327 19.9072 13.4521 20.1599 13.6351C20.4164 13.8182 20.6295 14.0629 20.7993 14.3693C20.969 14.6717 21.0539 15.0119 21.0539 15.3899C21.0539 15.7998 20.9483 16.1758 20.737 16.518C20.5296 16.8602 20.2467 17.1168 19.8883 17.2879C20.3938 17.4431 20.7823 17.7077 21.0539 18.0818C21.3255 18.4558 21.4613 18.8955 21.4613 19.4008C21.4613 19.7987 21.3726 20.1867 21.1954 20.5647C21.0218 20.9387 20.7823 21.2392 20.4768 21.466C20.175 21.6888 19.8015 21.8261 19.3564 21.8778C19.0773 21.9096 18.404 21.9295 17.3365 21.9375L14.513 21.9375L14.513 13.1875ZM16.1878 14.6438L16.1878 16.6672L17.2855 16.6672C17.9381 16.6672 18.3436 16.6573 18.502 16.6374C18.7887 16.6016 19.0132 16.4981 19.1754 16.327C19.3413 16.1519 19.4243 15.9231 19.4243 15.6406C19.4243 15.37 19.3527 15.1512 19.2093 14.9841C19.0697 14.813 18.8604 14.7095 18.5813 14.6737C18.4153 14.6538 17.9381 14.6438 17.1497 14.6438L16.1878 14.6438ZM16.1878 18.1235L16.1878 20.4632L17.7382 20.4632C18.3417 20.4632 18.7246 20.4453 18.8868 20.4095C19.1358 20.3618 19.3376 20.2464 19.4922 20.0634C19.6507 19.8763 19.7299 19.6276 19.7299 19.3173C19.7299 19.0547 19.6695 18.8318 19.5488 18.6488C19.4281 18.4658 19.2527 18.3325 19.0226 18.2489C18.7963 18.1653 18.3021 18.1235 17.5401 18.1235L16.1878 18.1235Z" /><path d="M22 10.6875L20.1781 10.6875L19.4538 8.69995L16.1381 8.69995L15.4534 10.6875L13.6768 10.6875L16.9076 1.9375L18.6786 1.9375L22 10.6875ZM18.9163 7.2257L17.7733 3.97877L16.653 7.2257L18.9163 7.2257Z" /></svg>