<svg width="24" height="24" viewBox="0 0 24 24" xmlns="http://www.w3.org/2000/svg">
<path d="M12 1.87402C17.5919 1.87402 22.125 6.40714 22.125 11.999C22.125 17.5909 17.5919 22.124 12 22.124C6.40812 22.124 1.875 17.5909 1.875 11.999C1.875 6.40714 6.40812 1.87402 12 1.87402ZM12 3.37402C7.23654 3.37402 3.375 7.23557 3.375 11.999C3.375 16.7625 7.23654 20.624 12 20.624C16.7635 20.624 20.625 16.7625 20.625 11.999C20.625 7.23557 16.7635 3.37402 12 3.37402ZM11.2109 10.207C11.4351 10.207 11.6786 10.2061 11.8818 10.2334C12.0785 10.2598 12.3207 10.3221 12.5381 10.4971L12.6299 10.5801L12.7119 10.6709C12.8873 10.8884 12.9501 11.1311 12.9766 11.3281C13.0039 11.5314 13.002 11.7749 13.002 11.999V17.207C13.002 17.6212 12.6662 17.957 12.252 17.957C11.8379 17.9568 11.502 17.6211 11.502 17.207V11.999C11.502 11.8813 11.5017 11.7886 11.5 11.709C11.4206 11.7073 11.3282 11.707 11.2109 11.707C10.7967 11.707 10.4609 11.3712 10.4609 10.957C10.4612 10.543 10.7969 10.207 11.2109 10.207ZM12.002 6.37402C12.6919 6.37446 13.252 6.93394 13.252 7.62402C13.252 8.31411 12.6919 8.87358 12.002 8.87402H11.9922C11.3018 8.87402 10.7422 8.31438 10.7422 7.62402C10.7422 6.93367 11.3018 6.37402 11.9922 6.37402H12.002Z" fill="#444444"/>
</svg>
