<svg width="24" height="24" viewBox="0 0 24 24" xmlns="http://www.w3.org/2000/svg"><path fill-rule="evenodd" clip-rule="evenodd" d="M7.0213 21.5174L10.9355 18.1047L9.82839 17.1394L7.25058 19.3869L7.25059 2L5.68491 2L5.68491 19.3869L3.1071 17.1394L2 18.1047L5.91419 21.5174L6.46774 22L7.0213 21.5174Z" /><path d="M13.4675 11.4058L13.4959 9.75035L15.4273 9.06091L15.479 6.04827L13.5695 5.45761L13.5972 3.84333L22 6.64062L21.9724 8.24976L13.4675 11.4058ZM16.8599 8.54922L20.0145 7.45944L16.8952 6.49282L16.8599 8.54922Z" /><path d="M21.8957 12.9213L21.844 15.934C21.8338 16.5303 21.7974 16.9746 21.7347 17.2669C21.6758 17.5625 21.556 17.8266 21.3752 18.0591C21.1944 18.2951 20.9547 18.4926 20.656 18.6517C20.3612 18.8107 20.0312 18.8932 19.6661 18.8991C19.2701 18.9056 18.9085 18.8156 18.5812 18.6291C18.2538 18.446 18.0103 18.193 17.8506 17.8701C17.6928 18.3318 17.4311 18.689 17.0655 18.9417C16.7 19.1943 16.2731 19.3247 15.7849 19.3326C15.4005 19.3389 15.0271 19.2645 14.6646 19.1094C14.306 18.9577 14.0195 18.7448 13.8051 18.4707C13.5946 18.2001 13.4678 17.8629 13.4248 17.4593C13.3984 17.2062 13.3896 16.5947 13.3986 15.6249L13.3986 12.9213L21.8957 12.9213ZM20.4627 14.4661L18.508 14.498L18.4909 15.4954C18.4807 16.0883 18.484 16.4566 18.5007 16.6002C18.5309 16.8601 18.6273 17.0624 18.7901 17.2071C18.9566 17.3552 19.1764 17.4269 19.4493 17.4225C19.7107 17.4182 19.9232 17.3496 20.0869 17.2167C20.2544 17.0872 20.3576 16.8954 20.3965 16.6412C20.4184 16.4901 20.4354 16.0564 20.4477 15.34L20.4627 14.4661ZM17.101 14.521L14.8407 14.558L14.8166 15.9666C14.8071 16.515 14.8185 16.8626 14.8505 17.0094C14.8928 17.2349 15.0011 17.4164 15.1755 17.554C15.3537 17.695 15.5928 17.7631 15.8926 17.7582C16.1463 17.754 16.3625 17.6957 16.5412 17.5831C16.7199 17.4705 16.8514 17.3091 16.9358 17.0987C17.02 16.8917 17.0681 16.4421 17.08 15.7497L17.101 14.521Z" /></svg>