<svg width="24" height="24" viewBox="0 0 24 24" xmlns="http://www.w3.org/2000/svg">
<path fill-rule="evenodd" clip-rule="evenodd" d="M23 20.9971H1V7.99707H8V1.99707H23V20.9971ZM9 19.9971H15V16.9971H9V19.9971ZM15 15.9971H9V12.9971H15V15.9971ZM9 11.9971H15V8.99707H9V11.9971ZM8 16.9971V19.9971H2V16.9971H8ZM2 12.9971V15.9971H8V12.9971H2ZM8 8.99707V11.9971H2V8.99707H8ZM16 19.9971H22V16.9971H16V19.9971ZM22 15.9971H16V12.9971H22V15.9971ZM16 11.9971H22V8.99707H16V11.9971Z"/>
<path d="M4 6.99707H5V4.99707H7V3.99707H5V1.99707H4V3.99707H2V4.99707H4V6.99707Z"/>
</svg>
