<svg width="24" height="24" viewBox="0 0 24 24" xmlns="http://www.w3.org/2000/svg">
<path fill-rule="evenodd" clip-rule="evenodd" d="M5.60742 20.911C6.54039 21.56 7.99448 21.2504 8.81242 19.9585C9.63035 18.6665 9.33745 17.1418 8.40448 16.4929C7.47152 15.844 6.01742 16.1535 5.19949 17.4455C4.38156 18.7374 4.67445 20.2621 5.60742 20.911ZM5.20784 21.5422C6.53808 22.4674 8.4215 21.9459 9.41457 20.3773C10.4076 18.8087 10.1343 16.787 8.80406 15.8617C7.47382 14.9365 5.5904 15.458 4.59733 17.0266C3.60426 18.5953 3.8776 20.6169 5.20784 21.5422Z"/>
<path fill-rule="evenodd" clip-rule="evenodd" d="M18.3926 20.911C17.4596 21.56 16.0055 21.2504 15.1876 19.9585C14.3697 18.6665 14.6625 17.1418 15.5955 16.4929C16.5285 15.844 17.9826 16.1535 18.8005 17.4455C19.6184 18.7374 19.3255 20.2621 18.3926 20.911ZM18.7922 21.5422C17.4619 22.4674 15.5785 21.9459 14.5854 20.3773C13.5924 18.8087 13.8657 16.787 15.1959 15.8617C16.5262 14.9365 18.4096 15.458 19.4027 17.0266C20.3957 18.5953 20.1224 20.6169 18.7922 21.5422Z"/>
<path d="M15.1959 15.8617L13.0112 12.0118L17.165 2.49696C17.2474 2.32365 17.1422 2.09296 16.9773 2.02363C16.7711 1.9543 16.5464 2.04634 16.4639 2.185L12.0112 10.5153L7.01763 2.24614C6.93515 2.07283 6.70619 1.97702 6.5 2.04634C6.29381 2.11567 6.19286 2.35013 6.27533 2.52345L11.0112 12.0118L8.80406 15.8617L9.94703 17.6764L12.0112 13.5083L14.053 17.6764L15.1959 15.8617Z"/>
</svg>
