<svg width="24" height="24" viewBox="0 0 24 24" xmlns="http://www.w3.org/2000/svg">
<path d="M4.5 12.5464C3.5335 12.5464 2.75 13.3299 2.75 14.2964V19.2964C2.75026 20.2627 3.53366 21.0464 4.5 21.0464H9.5C10.4663 21.0464 11.2497 20.2627 11.25 19.2964V17.2964C11.25 16.8822 10.9142 16.5464 10.5 16.5464H7.5C7.36209 16.5464 7.25026 16.4342 7.25 16.2964V13.2964C7.25 12.8822 6.91421 12.5464 6.5 12.5464H4.5ZM5.75 16.2964C5.75026 17.2627 6.53366 18.0464 7.5 18.0464H9.75V19.2964C9.74974 19.4342 9.63791 19.5464 9.5 19.5464H4.5C4.36209 19.5464 4.25026 19.4342 4.25 19.2964V14.2964C4.25 14.1583 4.36193 14.0464 4.5 14.0464H5.75V16.2964ZM14.5 2.54639C13.5335 2.54639 12.75 3.32989 12.75 4.29639V6.29639C12.7503 6.71038 13.0859 7.04639 13.5 7.04639H16.5C16.6381 7.04639 16.75 7.15832 16.75 7.29639V10.2964C16.7503 10.7104 17.0859 11.0464 17.5 11.0464H19.5C20.4663 11.0464 21.2497 10.2627 21.25 9.29639V4.29639C21.25 3.32989 20.4665 2.54639 19.5 2.54639H14.5ZM19.5 4.04639C19.6381 4.04639 19.75 4.15832 19.75 4.29639V9.29639C19.7497 9.43423 19.6379 9.54639 19.5 9.54639H18.25V7.29639C18.25 6.32989 17.4665 5.54639 16.5 5.54639H14.25V4.29639C14.25 4.15832 14.3619 4.04639 14.5 4.04639H19.5Z" fill="#444444"/>
<path d="M7.5 6.29297C6.94772 6.29297 6.5 6.74068 6.5 7.29297V16.293C6.5 16.8453 6.94772 17.293 7.5 17.293H16.5C17.0523 17.293 17.5 16.8453 17.5 16.293V7.29297C17.5 6.74068 17.0523 6.29297 16.5 6.29297H7.5Z" fill="#DCE7FA"/>
<path d="M7.5 5.54297C6.5335 5.54297 5.75 6.32647 5.75 7.29297V16.293C5.75 17.2595 6.5335 18.043 7.5 18.043H16.5C17.4665 18.043 18.25 17.2595 18.25 16.293V7.29297C18.25 6.32647 17.4665 5.54297 16.5 5.54297H7.5ZM16.5 7.04297C16.6381 7.04297 16.75 7.1549 16.75 7.29297V16.293C16.75 16.431 16.6381 16.543 16.5 16.543H7.5C7.36193 16.543 7.25 16.431 7.25 16.293V7.29297C7.25 7.1549 7.36193 7.04297 7.5 7.04297H16.5Z" fill="#446ECA"/>
</svg>
