<svg width="24" height="24" viewBox="0 0 24 24" xmlns="http://www.w3.org/2000/svg">
<path d="M21.5434 9.14217C21.6654 9.13943 21.7835 9.18532 21.8697 9.27014C21.9559 9.35495 22.0027 9.47109 21.9999 9.59098L21.9074 13.5793L21.0141 13.5587L21.082 10.6657L9.55409 22L8.92242 21.3789L20.4503 10.0446L17.5079 10.1114L17.4869 9.23314L21.5434 9.14217Z"/>
<path fill-rule="evenodd" clip-rule="evenodd" d="M8.29692 10.189L10.7878 11.2249L10.4393 12.0334L8.22722 11.1139L5.44332 13.8959L6.19157 15.6348L6.36615 16.0393L5.54325 16.3814L4.50507 13.9681L2 8.31975L2.58787 7.74176L8.29692 10.189ZM5.06025 13.0256L7.34757 10.7403L3.27259 8.99358L5.06025 13.0256Z"/>
<path fill-rule="evenodd" clip-rule="evenodd" d="M8.28643 2.24079L8.49247 2.15709C10.2034 1.53831 11.8151 2.84117 11.7914 4.42783C12.4006 4.17869 13.0183 4.14863 13.5649 4.3411C14.4302 4.64589 14.9901 5.46189 15.0139 6.51662C15.0316 7.31433 14.5552 7.97074 14.0831 8.43499L11.9179 10.5638L5.81405 4.56248L8.08164 2.33298L8.28643 2.24079ZM11.9179 9.32169L13.4514 7.81393C13.8662 7.4061 14.1303 6.97121 14.1207 6.53603C14.1038 5.78747 13.7286 5.33219 13.2639 5.16837C12.7905 5.00165 12.097 5.09384 11.3794 5.7124L9.81317 7.25231L11.9179 9.32169ZM9.1815 6.63125L10.7101 5.12834C11.3728 3.83539 10.1344 2.49783 8.79164 2.98497L8.65902 3.03894L8.5998 3.06563L7.07739 4.56248L9.1815 6.63125Z"/>
</svg>
