<svg width="24" height="24" viewBox="0 0 24 24" xmlns="http://www.w3.org/2000/svg">
<path d="M19.5 9.7959C20.6046 9.7959 21.5 10.6913 21.5 11.7959V19.2959C21.5 20.4005 20.6046 21.2959 19.5 21.2959H12C10.8954 21.2959 10 20.4005 10 19.2959V11.7959C10 10.6913 10.8954 9.7959 12 9.7959H19.5ZM12 11.2959C11.7239 11.2959 11.5 11.5198 11.5 11.7959V19.2959C11.5 19.572 11.7239 19.7959 12 19.7959H19.5C19.7761 19.7959 20 19.572 20 19.2959V11.7959C20 11.5198 19.7761 11.2959 19.5 11.2959H12ZM12.5 2.7959C13.6046 2.7959 14.5 3.69133 14.5 4.7959V8.0459C14.5 8.46011 14.1642 8.7959 13.75 8.7959C13.3358 8.7959 13 8.46011 13 8.0459V4.7959C13 4.51976 12.7761 4.2959 12.5 4.2959H5C4.72386 4.2959 4.5 4.51976 4.5 4.7959V12.2959C4.5 12.572 4.72386 12.7959 5 12.7959H8.25C8.66421 12.7959 9 13.1317 9 13.5459C9 13.9601 8.66421 14.2959 8.25 14.2959H5C3.89543 14.2959 3 13.4005 3 12.2959V4.7959C3 3.69133 3.89543 2.7959 5 2.7959H12.5Z" fill="#444444"/>
</svg>
