<svg xmlns="http://www.w3.org/2000/svg" width="24" height="24" viewBox="0 0 24 24"><path d="M12 6H14V12.8453L18.1962 15.2679L17.1962 17L12 14V6Z"/><path d="M21.9995 12C21.9995 16.9706 17.9701 21 12.9995 21C10.5142 21 8.26423 19.9926 6.63555 18.364L5.92844 19.0711C7.73809 20.8807 10.2381 22 12.9995 22C18.5224 22 22.9995 17.5228 22.9995 12C22.9995 6.47715 18.5224 2 12.9995 2C7.47666 2 2.99951 6.47715 2.99951 12H3.99951C3.99951 7.02944 8.02895 3 12.9995 3C17.9701 3 21.9995 7.02944 21.9995 12Z"/><path d="M1.5 10.5L3.5 12.5L5.5 10.5"/></svg>