<svg width="24" height="24" viewBox="0 0 24 24" xmlns="http://www.w3.org/2000/svg">
<path d="M18.3604 5.42676L11.3867 12.3135L12.6865 13.6133L19.6602 6.72656L20.1797 7.24707L12.8604 14.5664H11.4336L10.5 15.5L9 15L10.4336 13.5664V12.1396L17.7529 4.82031L18.3604 5.42676ZM9.40234 4.67383H9.43164C9.71973 4.03906 10.3008 3.6582 11.0479 3.6582C12.3613 3.6582 13.1768 4.67383 13.1768 6.37793V6.38281C13.1768 8.08203 12.3613 9.10742 11.043 9.10742C10.291 9.10742 9.71484 8.72656 9.43164 8.10645H9.40234V9H7.97656V1.9541H9.40234V4.67383ZM4.79297 3.6582C6.14551 3.6582 7.01953 4.35645 7.01953 5.41113V9H5.59375V8.21875H5.56445C5.2666 8.75586 4.70996 9.08301 4.02148 9.08301C2.97168 9.08301 2.26367 8.42383 2.26367 7.50098V7.49121C2.26367 6.53906 3.00098 5.98242 4.2998 5.89941L5.59375 5.82129V5.49902C5.59375 5.03516 5.29102 4.74707 4.73438 4.74707C4.20215 4.74707 3.87988 4.99609 3.81152 5.33301L3.80176 5.37695H2.49805L2.50293 5.31836C2.58105 4.35156 3.41113 3.6582 4.79297 3.6582ZM4.51465 6.77832C3.96289 6.8125 3.6748 7.04688 3.6748 7.41797V7.42773C3.6748 7.81348 3.99219 8.04297 4.48535 8.04297C5.125 8.04297 5.59375 7.63281 5.59375 7.08594V6.70996L4.51465 6.77832ZM10.5693 4.83984C9.88086 4.83984 9.40234 5.43555 9.40234 6.37793V6.38281C9.40234 7.33008 9.87598 7.92578 10.5693 7.92578C11.2773 7.92578 11.7266 7.33496 11.7266 6.38281V6.37793C11.7266 5.4209 11.2773 4.83984 10.5693 4.83984ZM19.5732 3C19.5732 3 20.6131 3.08694 21.2197 3.78027C21.8264 4.38694 22 5.42676 22 5.42676L20.7002 6.72656L18.2734 4.2998L19.5732 3Z"/>
</svg>
