<svg width="24" height="24" viewBox="0 0 24 24" xmlns="http://www.w3.org/2000/svg"><path fill-rule="evenodd" clip-rule="evenodd" d="M15.2807 22L15.2807 16.3964L13.9217 16.3964L13.9217 19.7586L3.08379 8.55143L2 9.67214L12.8561 20.597L9.56995 20.597L9.56994 22L15.2807 22Z"/><path d="M12.6141 10.6577L11.538 9.54484L12.3287 7.84242L10.3702 5.81718L8.74726 6.65905L7.69782 5.57385L14.9707 2L16.0168 3.08174L12.6141 10.6577ZM12.915 6.57946L14.2306 3.82288L11.5782 5.19705L12.915 6.57946Z"/><path d="M18.9207 6.08463L20.8792 8.10987C21.2669 8.51077 21.5372 8.82806 21.6899 9.06174C21.8474 9.2952 21.9447 9.54714 21.9817 9.81755C22.021 10.0903 21.9969 10.3756 21.9093 10.6735C21.8242 10.9689 21.6657 11.2364 21.434 11.4761C21.1827 11.7359 20.8898 11.9098 20.5552 11.9977C20.2229 12.0879 19.8984 12.0778 19.5819 11.9674C19.7853 12.3746 19.8525 12.7796 19.7837 13.1826C19.7148 13.5857 19.5254 13.9473 19.2156 14.2677C18.9716 14.52 18.6814 14.7118 18.345 14.8432C18.0132 14.9743 17.6875 15.0185 17.368 14.9756C17.0531 14.9326 16.7484 14.7915 16.4537 14.5524C16.2693 14.4021 15.8594 14.0034 15.224 13.3564L13.5562 11.6319L18.9207 6.08463ZM19.0171 8.03089L17.7766 9.31365L18.425 9.98412C18.8105 10.3827 19.0561 10.6241 19.1619 10.7083C19.3532 10.8607 19.5492 10.9322 19.7499 10.9228C19.9553 10.9131 20.1445 10.8188 20.3178 10.6397C20.4836 10.4681 20.5755 10.2856 20.5933 10.0921C20.6157 9.89838 20.5555 9.70492 20.4126 9.51172C20.3267 9.39773 20.051 9.09996 19.5853 8.61842L19.0171 8.03089ZM16.8838 10.2369L15.4494 11.7202L16.3651 12.6672C16.7216 13.0358 16.9587 13.2583 17.0765 13.3347C17.2528 13.4565 17.4428 13.5066 17.6463 13.485C17.8546 13.4632 18.0538 13.354 18.2441 13.1572C18.4051 12.9907 18.5061 12.8126 18.547 12.6228C18.5879 12.433 18.566 12.2414 18.4814 12.0479C18.3989 11.8567 18.1326 11.5283 17.6826 11.0629L16.8838 10.2369Z" /></svg>