<svg width="24" height="24" viewBox="0 0 24 24" xmlns="http://www.w3.org/2000/svg"><path fill-rule="evenodd" clip-rule="evenodd" d="M22 8.71927H16.3964V10.0783L19.7586 10.0783L8.55143 20.9162L9.67214 22L20.597 11.1439V14.4301L22 14.4301V8.71927Z"/><path d="M10.6577 11.3859L9.54484 12.462L7.84242 11.6713L5.81718 13.6298L6.65905 15.2527L5.57385 16.3022L2 9.02933L3.08174 7.98323L10.6577 11.3859ZM6.57946 11.085L3.82288 9.76944L5.19705 12.4218L6.57946 11.085Z"/><path d="M6.08463 5.07929L8.10987 3.12078C8.51077 2.73309 8.82806 2.46285 9.06174 2.31005C9.2952 2.15259 9.54714 2.05532 9.81755 2.01826C10.0903 1.97896 10.3756 2.0031 10.6735 2.09068C10.9689 2.17582 11.2364 2.33426 11.4761 2.56602C11.7359 2.81728 11.9098 3.1102 11.9977 3.44478C12.0879 3.77712 12.0778 4.10158 11.9674 4.41815C12.3746 4.21472 12.7796 4.14745 13.1826 4.21634C13.5857 4.28523 13.9473 4.47458 14.2677 4.7844C14.52 5.02835 14.7118 5.31856 14.8432 5.65504C14.9743 5.98684 15.0185 6.31251 14.9756 6.63204C14.9326 6.9469 14.7915 7.25165 14.5524 7.54628C14.4021 7.73067 14.0034 8.14059 13.3564 8.77602L11.6319 10.4438L6.08463 5.07929ZM8.03089 4.98287L9.31365 6.22336L9.98412 5.57498C10.3827 5.18952 10.6241 4.94389 10.7083 4.83812C10.8607 4.64682 10.9322 4.45082 10.9228 4.25012C10.9131 4.04474 10.8188 3.85545 10.6397 3.68225C10.4681 3.51636 10.2856 3.42452 10.0921 3.40673C9.89838 3.38427 9.70492 3.44451 9.51172 3.58743C9.39773 3.67327 9.09996 3.94903 8.61842 4.4147L8.03089 4.98287ZM10.2369 7.11622L11.7202 8.55065L12.6672 7.63489C13.0358 7.2784 13.2583 7.04126 13.3347 6.9235C13.4565 6.74717 13.5066 6.55722 13.485 6.35365C13.4632 6.14541 13.354 5.94616 13.1572 5.75587C12.9907 5.59487 12.8126 5.4939 12.6228 5.45299C12.433 5.41207 12.2414 5.43395 12.0479 5.51864C11.8567 5.60109 11.5283 5.86736 11.0629 6.31744L10.2369 7.11622Z"/></svg>