<svg width="24" height="24" viewBox="0 0 24 24" xmlns="http://www.w3.org/2000/svg">
<path d="M18 18.9971V17.9971L16.5 16.4971L18 14.9971V13.9971H17L15.5 15.4971L14 13.9971H13V14.9971L14.5 16.4971L13 17.9971V18.9971H14L15.5 17.4971L17 18.9971H18Z"/>
<path fill-rule="evenodd" clip-rule="evenodd" d="M23 1.99707H1V18.9971H10.5997C11.5101 20.7779 13.3627 21.9971 15.5 21.9971C17.6373 21.9971 19.4899 20.7779 20.4003 18.9971H23V1.99707ZM9 17.9971H10.207C10.0721 17.5202 10 17.0171 10 16.4971C10 15.9771 10.0721 15.4739 10.207 14.9971H9V17.9971ZM9 13.9971H10.5997C11.4384 12.3567 13.0763 11.1928 15 11.0195V10.9971H9V13.9971ZM9 2.99707H15V5.99707H9V2.99707ZM8 2.99707H2V5.99707H8V2.99707ZM9 6.99707H15V9.99707H9V6.99707ZM8 6.99707H2V9.99707H8V6.99707ZM8 10.9971H2V13.9971H8V10.9971ZM8 14.9971H2V17.9971H8V14.9971ZM15.5 20.9971C13.0148 20.9971 11 18.9824 11 16.4971C11 14.0118 13.0148 11.9971 15.5 11.9971C17.9852 11.9971 20 14.0118 20 16.4971C20 18.9824 17.9852 20.9971 15.5 20.9971Z"/>
</svg>
