<svg version="1.1" xmlns="http://www.w3.org/2000/svg" xmlns:xlink="http://www.w3.org/1999/xlink" viewBox="0 0 22 22"><g><path d="M21,19h-6h-1h-1.6c-0.9,1.8-2.7,3-4.9,3s-4-1.2-4.9-3H1H0v-1v-3v-1v-3v-1V7V6V3V2h7h1h6h1h6h1v1v3v1v3v1v3v1v3v1H21z M1,18h1.2C2.1,17.5,2,17,2,16.5c0-0.5,0.1-1,0.2-1.5H1V18z M7,3H1v3h6V3z M7,7H1v3h6V7z M7.5,12C5,12,3,14,3,16.5S5,21,7.5,21s4.5-2,4.5-4.5S10,12,7.5,12z M14,3H8v3h6V3z M14,7H8v3h6V7z M14,15h-1.2c0.1,0.5,0.2,1,0.2,1.5c0,0.5-0.1,1-0.2,1.5H14V15z M21,3h-6v3h6V3z M21,7h-6v3h6V7z M21,15h-6v3h6V15z M9.6,19.3l-2.1-2.1l-2.1,2.1l-0.7-0.7l2.1-2.1l-2.1-2.1l0.7-0.7l2.1,2.1l2.1-2.1l0.7,0.7l-2.1,2.1l2.1,2.1L9.6,19.3z"/></g></svg>