<svg width="24" height="24" viewBox="0 0 24 24" xmlns="http://www.w3.org/2000/svg">
<path fill-rule="evenodd" clip-rule="evenodd" d="M20.8509 8.28101L22 10.9966L21.0639 11.3596L20.0431 8.94834L15.5551 8.98332L14.7394 10.9116L14.55 11.3606L13.6139 10.9966L14.7463 8.32071L17.3365 2H18.2765L20.8509 8.28101ZM15.9566 8.01163L19.6436 7.98327L17.806 3.50007L15.9566 8.01163Z"/>
<path fill-rule="evenodd" clip-rule="evenodd" d="M18.4885 12.7321L18.7213 12.8247C20.5927 13.6533 20.8218 15.9034 19.5124 17.1217C20.2022 17.3943 20.7202 17.844 21.0008 18.4129C21.4448 19.3134 21.2291 20.3781 20.3903 21.2183C19.7556 21.8535 18.8411 22 18.0861 22H14.624V12.647H18.2498L18.4885 12.7321ZM15.634 21.0321H18.0861C18.7495 21.0321 19.3141 20.8956 19.6603 20.5491C20.2557 19.9527 20.3258 19.3106 20.0874 18.8269C19.8445 18.3342 19.2153 17.8747 18.1384 17.807H15.634V21.0321ZM15.634 16.8391H18.0782C19.6599 16.3395 19.7574 14.3481 18.2873 13.699L18.1374 13.6395L18.0684 13.6149H15.634V16.8391Z"/>
<path d="M5.89909 21.4026C5.80381 21.4982 5.67208 21.5529 5.53414 21.5529C5.39624 21.5529 5.26445 21.4982 5.16919 21.4026L2 18.2238L2.7309 17.5556L5.02912 19.8619L5.02912 2.19755L6.03916 2.19755L6.03916 19.8619L8.33739 17.5556L9.06828 18.2238L5.89909 21.4026Z"/>
</svg>
