<svg width="24" height="24" viewBox="0 0 24 24" xmlns="http://www.w3.org/2000/svg">
<path fill-rule="evenodd" clip-rule="evenodd" d="M5.97011 2.7666C6.26299 2.47375 6.73777 2.47376 7.03066 2.7666L10.0307 5.76562C10.3232 6.05852 10.3234 6.53436 10.0307 6.82715C9.73796 7.11949 9.26295 7.1193 8.97011 6.82715L7.25038 5.10742V20.2979C7.25012 20.7117 6.91424 21.0476 6.50038 21.0479C6.08633 21.0479 5.75065 20.7118 5.75038 20.2979V5.10742L4.03066 6.82715C3.73795 7.11949 3.26294 7.11929 2.97011 6.82715C2.67726 6.53427 2.6773 6.05851 2.97011 5.76562L5.97011 2.7666ZM15.4994 2.5459C15.6983 2.54591 15.889 2.62502 16.0297 2.76562L19.0297 5.76562C19.3225 6.05854 19.3226 6.53428 19.0297 6.82715C18.7368 7.1194 18.2619 7.1196 17.9691 6.82715L16.2494 5.10645V11.2969C16.249 11.7107 15.9134 12.0469 15.4994 12.0469C15.0856 12.0467 14.7498 11.7106 14.7494 11.2969V5.10645L13.0297 6.82617C12.7368 7.11874 12.2619 7.11896 11.9691 6.82617C11.6764 6.53338 11.6766 6.05853 11.9691 5.76562L14.9691 2.76562L15.0834 2.67188C15.2056 2.59041 15.3504 2.54597 15.4994 2.5459Z" fill="#446ECA"/>
<path d="M9 16.4033C9.00017 16.0909 9.19484 15.811 9.4873 15.7012L17.2021 12.8086L19.7734 11.8437C20.1611 11.6988 20.5939 11.8956 20.7393 12.2832C20.8845 12.6708 20.6873 13.1034 20.2998 13.249L18.2148 14.0303L18.2148 18.7764L20.2998 19.5586C20.6873 19.7041 20.8844 20.1368 20.7393 20.5244C20.5938 20.912 20.1611 21.108 19.7734 20.9629L17.2021 19.999L9.4873 17.1055L9.38281 17.0566C9.14961 16.9253 9 16.6769 9 16.4033ZM16.7148 18.2139L16.7148 14.5928L11.8867 16.4033L16.7148 18.2139Z" fill="#444444"/>
</svg>
