<svg width="24" height="24" viewBox="0 0 24 24" xmlns="http://www.w3.org/2000/svg"><path fill-rule="evenodd" clip-rule="evenodd" d="M9.51367 10.75H11.269L8.06905 2H6.36276L3.25 10.75H4.96174L5.62136 8.76245H8.81589L9.51367 10.75ZM7.19682 4.04127L8.29801 7.2882H6.11744L7.19682 4.04127ZM16.0002 2H12.8057V10.75H15.5259C16.5544 10.742 17.2031 10.7221 17.4721 10.6903C17.9009 10.6386 18.2607 10.5013 18.5515 10.2785C18.8458 10.0517 19.0766 9.75125 19.2438 9.37722C19.4146 8.9992 19.5 8.61124 19.5 8.21334C19.5 7.70799 19.3692 7.2683 19.1075 6.89427C18.8458 6.52024 18.4715 6.25563 17.9845 6.10044C18.3298 5.92934 18.6023 5.67269 18.8022 5.33049C19.0057 4.98829 19.1075 4.61227 19.1075 4.20242C19.1075 3.82441 19.0257 3.4842 18.8622 3.18179C18.6986 2.8754 18.4933 2.63068 18.2462 2.44765C18.0027 2.26461 17.7247 2.14524 17.4121 2.08953C17.1032 2.02984 16.6326 2 16.0002 2ZM14.4193 5.47971L14.4193 3.45634L15.346 3.45634C16.1056 3.45634 16.5653 3.46629 16.7252 3.48619C16.9942 3.522 17.1959 3.62545 17.3303 3.79656C17.4684 3.96368 17.5375 4.18253 17.5375 4.4531C17.5375 4.73562 17.4575 4.96442 17.2976 5.1395C17.1414 5.3106 16.9251 5.41405 16.6489 5.44986C16.4963 5.46976 16.1056 5.47971 15.4769 5.47971H14.4193ZM14.4193 9.27575V6.93605H15.7222C16.4563 6.93605 16.9324 6.97783 17.1504 7.06139C17.3721 7.14495 17.5411 7.27825 17.6574 7.46129C17.7737 7.64433 17.8319 7.86716 17.8319 8.12977C17.8319 8.44014 17.7555 8.68884 17.6029 8.87585C17.4539 9.05889 17.2595 9.17428 17.0196 9.22203C16.8633 9.25784 16.4945 9.27575 15.913 9.27575H14.4193ZM17.9829 13.25L21.5023 17.0829L22 17.625L21.5023 18.1671L17.9829 22L16.9875 20.9159L19.3053 18.3916H2V16.8584H19.3053L16.9875 14.3341L17.9829 13.25Z" /></svg>