<svg width="24" height="24" viewBox="0 0 24 24" xmlns="http://www.w3.org/2000/svg">
<path d="M4.50049 7.54297C3.53399 7.54297 2.75049 8.32647 2.75049 9.29297V19.293C2.75049 20.2595 3.53399 21.043 4.50049 21.043H14.5005C15.467 21.043 16.2505 20.2595 16.2505 19.293V15.293C16.2505 14.8788 15.9147 14.543 15.5005 14.543H9.50049C9.36242 14.543 9.25049 14.431 9.25049 14.293V8.29297C9.25049 7.87876 8.9147 7.54297 8.50049 7.54297H4.50049Z" fill="#DCE7FA"/>
<path d="M4.50049 7.54297C3.53399 7.54297 2.75049 8.32647 2.75049 9.29297V19.293C2.75049 20.2595 3.53399 21.043 4.50049 21.043H14.5005C15.467 21.043 16.2505 20.2595 16.2505 19.293V15.293C16.2505 14.8788 15.9147 14.543 15.5005 14.543H9.50049C9.36242 14.543 9.25049 14.431 9.25049 14.293V8.29297C9.25049 7.87876 8.9147 7.54297 8.50049 7.54297H4.50049ZM7.75049 14.293C7.75049 15.2595 8.53399 16.043 9.50049 16.043H14.7505V19.293C14.7505 19.431 14.6386 19.543 14.5005 19.543H4.50049C4.36242 19.543 4.25049 19.431 4.25049 19.293V9.29297C4.25049 9.1549 4.36242 9.04297 4.50049 9.04297H7.75049V14.293Z" fill="#446ECA"/>
<path d="M9.5 2.54297C8.53377 2.54323 7.75007 3.32669 7.75 4.29297V14.293C7.75 15.2595 8.53448 16.043 9.50098 16.043H19.501C20.4673 16.0427 21.25 15.2593 21.25 14.293V4.29297C21.2499 3.32653 20.4665 2.54297 19.5 2.54297H9.5ZM19.5 4.04297C19.638 4.04297 19.7499 4.15495 19.75 4.29297V14.293C19.75 14.431 19.6381 14.543 19.5 14.543H9.5C9.36215 14.5427 9.25 14.4309 9.25 14.293V4.29297C9.25006 4.15512 9.36219 4.04323 9.5 4.04297H19.5Z" fill="#444444"/>
</svg>
