<svg width="24" height="24" viewBox="0 0 24 24" xmlns="http://www.w3.org/2000/svg">
<path d="M19.5 17C20.3284 17 21 17.6716 21 18.5C21 19.3284 20.3284 20 19.5 20C18.6716 20 18 19.3284 18 18.5C18 17.6716 18.6716 17 19.5 17ZM16 19H3V18H16V19ZM19.5 11C20.3284 11 21 11.6716 21 12.5C21 13.3284 20.3284 14 19.5 14C18.6716 14 18 13.3284 18 12.5C18 11.6716 18.6716 11 19.5 11ZM16 13H3V12H16V13ZM19.5 5C20.3284 5 21 5.67157 21 6.5C21 7.32843 20.3284 8 19.5 8C18.6716 8 18 7.32843 18 6.5C18 5.67157 18.6716 5 19.5 5ZM16 7H3V6H16V7Z"/>
</svg>
