<svg width="24" height="24" viewBox="0 0 24 24" xmlns="http://www.w3.org/2000/svg"><path d="M1 1H15V7H16V0H0V17H8V16H1V1Z"/><path fill-rule="evenodd" clip-rule="evenodd" d="M23 8H9V23H23V8ZM8 7V24H24V7H8Z"/><path fill-rule="evenodd" clip-rule="evenodd" d="M13 5H3V4H13V5Z"/><path fill-rule="evenodd" clip-rule="evenodd" d="M8 9H3V8H8V9Z"/><path fill-rule="evenodd" clip-rule="evenodd" d="M8 13H3V12H8V13Z"/><path fill-rule="evenodd" clip-rule="evenodd" d="M21 12H11V11H21V12Z"/><path fill-rule="evenodd" clip-rule="evenodd" d="M21 16H11V15H21V16Z"/><path fill-rule="evenodd" clip-rule="evenodd" d="M21 20H11V19H21V20Z"/></svg>