<svg width="24" height="24" viewBox="0 0 24 24" xmlns="http://www.w3.org/2000/svg">
<path d="M18.9014 16.1201L21.8242 18.6211C21.9349 18.7159 21.9988 18.8552 21.999 19.001C21.999 19.1468 21.9348 19.2859 21.8242 19.3809L18.9014 21.8818L18.5215 22.207L17.8711 21.4473L18.251 21.1221L20.1455 19.501H3.85547L5.75 21.123L6.12988 21.4473L5.47949 22.207L5.09961 21.8828L2.17676 19.3809C2.06611 19.2859 2.00196 19.1468 2.00195 19.001C2.00214 18.8551 2.06596 18.716 2.17676 18.6211L5.09961 16.1201L5.47949 15.7949L6.12988 16.5547L5.75 16.8799L3.85547 18.501H20.1455L18.251 16.8799L17.8711 16.5547L18.5215 15.7949L18.9014 16.1201ZM18.9951 3H14.6328V15.9971H13.6328V3H10.2705V15.9971H9.27051V10.2207H6.11035C3.84032 10.2207 2.00013 8.38035 2 6.11035C2.00002 3.84026 3.84026 2 6.11035 2H18.9951V3ZM6.11035 3C4.39254 3 3.00002 4.39255 3 6.11035C3.00013 7.82806 4.39261 9.2207 6.11035 9.2207H9.27051V3H6.11035Z"/>
</svg>
