<svg width="24" height="24" viewBox="0 0 24 24" xmlns="http://www.w3.org/2000/svg">
<path fill-rule="evenodd" clip-rule="evenodd" d="M6 12C2.68629 12 0 14.6863 0 18C0 21.3137 2.68629 24 6 24C9.31371 24 12 21.3137 12 18C12 14.6863 9.31371 12 6 12ZM1 18C1 15.2386 3.23858 13 6 13C8.76142 13 11 15.2386 11 18C11 20.7614 8.76142 23 6 23C3.23858 23 1 20.7614 1 18Z"/>
<path d="M5.25185 14.9911H6.73596V16.4874H5.25185V14.9911Z"/>
<path d="M5.25185 17.5087V21.4899H6.73596V17.5087H5.25185Z"/>
<path fill-rule="evenodd" clip-rule="evenodd" d="M15 1L21 7V22H14V21H20V8H14V2H5V10H4V1H15ZM19.5858 7L15 2.41422V7H19.5858Z"/>
</svg>
