<svg width="24" height="24" viewBox="0 0 24 24" xmlns="http://www.w3.org/2000/svg">
<path fill-rule="evenodd" clip-rule="evenodd" d="M8.78027 15.9697C8.48738 15.6768 8.01262 15.6768 7.71973 15.9697L5.71973 17.9697C5.42686 18.2626 5.42684 18.7373 5.71973 19.0302L7.71973 21.0302C8.01261 21.3231 8.48739 21.3231 8.78027 21.0302C9.07316 20.7373 9.07314 20.2626 8.78027 19.9697L8.06055 19.2499H19.25C19.6642 19.2499 20 18.9141 20 18.4999C20 18.0857 19.6642 17.7499 19.25 17.7499H8.06055L8.78027 17.0302C9.07316 16.7373 9.07314 16.2626 8.78027 15.9697Z" fill="#446ECA"/>
<path d="M17.5 4.75C17.9142 4.75 18.25 5.08579 18.25 5.5C18.25 5.91421 17.9142 6.25 17.5 6.25H15.25V14.5C15.25 14.9142 14.9142 15.25 14.5 15.25C14.0858 15.25 13.75 14.9142 13.75 14.5V6.25H12.25V14.5C12.25 14.9142 11.9142 15.25 11.5 15.25C11.0858 15.25 10.75 14.9142 10.75 14.5V11.25H9C7.20507 11.25 5.75 9.79493 5.75 8C5.75 6.20507 7.20507 4.75 9 4.75H17.5ZM9 6.25C8.0335 6.25 7.25 7.0335 7.25 8C7.25 8.9665 8.0335 9.75 9 9.75H10.75V6.25H9Z" fill="#444444"/>
</svg>
