<svg width="24" height="24" viewBox="0 0 24 24" xmlns="http://www.w3.org/2000/svg">
<path d="M18.9014 16.1201L21.8242 18.6211C21.935 18.716 21.9989 18.8551 21.999 19.001C21.999 19.1469 21.9349 19.2859 21.8242 19.3809L18.9014 21.8818L18.5215 22.207L17.8711 21.4473L18.251 21.1221L20.1455 19.501H2.00195V18.501H20.1455L18.251 16.8799L17.8711 16.5547L18.5215 15.7949L18.9014 16.1201ZM18.9951 3H14.6328V15.9971H13.6328V3H10.2705V15.9971H9.27051V10.2207H6.11035C3.84032 10.2207 2.00013 8.38035 2 6.11035C2.00002 3.84026 3.84026 2 6.11035 2H18.9951V3ZM6.11035 3C4.39254 3 3.00002 4.39255 3 6.11035C3.00013 7.82806 4.39261 9.2207 6.11035 9.2207H9.27051V3H6.11035Z"/>
</svg>
