<svg width="24" height="24" viewBox="0 0 24 24" xmlns="http://www.w3.org/2000/svg">
<path d="M11.2609 17H12.7573V15.5H11.2609V17ZM12 2C6.48 2 2 6.48 2 12C2 17.52 6.48 22 12 22C17.52 22 22 17.52 22 12C22 6.48 17.52 2 12 2ZM12 21C7 21 3 17 3 12C3 7 7 3 12 3C17 3 21 7 21 12C21 17 17 21 12 21ZM12.3915 7C10.1815 7 9 8.29 9 10.5H10.5C10.5 9.4 11.0883 8.5 12.3915 8.5C13.6947 8.5 14.0044 9.11775 14 10C13.995 11 11.2609 11.5 11.2609 14.4419H12.7573C12.7573 12.1919 15.5475 12.5 15.5475 10C15.5475 7.79 14 7 12.3915 7Z"/>
</svg>
