<svg xmlns="http://www.w3.org/2000/svg" width="40" height="40" viewBox="0 0 40 40">
    <path d="M35.5 35a.5.5 0 0 1 0 1h-31a.5.5 0 0 1 0-1h31Zm-24.165-6c.178.375.42.713.714 1H4.5a.5.5 0 0 1 0-1h6.835ZM35.5 29a.5.5 0 0 1 0 1h-9.552c.293-.287.536-.625.714-1H35.5Zm-24.503-5H4.5a.5.5 0 0 1 0-1h6.497v1ZM35.5 23a.5.5 0 0 1 0 1H27v-1h8.5ZM9.258 17.472c.008.17.022.346.043.528H4.5a.5.5 0 0 1 0-1h4.748l.01.472ZM35.5 17a.5.5 0 0 1 0 1h-4.343c.101-.313.164-.648.185-1H35.5Zm-14.629-6a2.786 2.786 0 0 0-.73 1H4.5a.5.5 0 0 1 0-1h16.371ZM35.5 11a.5.5 0 0 1 0 1h-7.843a3.6 3.6 0 0 0-2.013-.617h-.745a2.8 2.8 0 0 0-.365-.383H35.5Zm0-6a.5.5 0 0 1 0 1h-31a.5.5 0 0 1 0-1h31Z" fill="currentColor" stroke="none" class="icon-fill-gray-primary"/>
    <path d="m21.92 12.976-.958 5.657h-6.166c-1.554 0-1.775-.734-1.8-1.758a.882.882 0 0 0-.873-.875.876.876 0 0 0-.877.875c.006 1.455.15 2.2 1.752 3.328V27.5a1.5 1.5 0 1 0 3 0v-4.367l6 1V27.5a1.501 1.501 0 1 0 3.002 0v-8.416c0-.24.193-.435.433-.437l1.244-.013c1.477 0 2.673-.418 2.673-1.895v-.803a.8.8 0 0 0-.802-.802h-1.17s-.3-.978-.601-1.279c-.3-.3-.709-.47-1.133-.47h-1.741l-.565-.753a.793.793 0 0 0-1.417.344Z" fill="currentColor" stroke="none" class="icon-fill-blue-primary"/>
</svg>
