<svg xmlns="http://www.w3.org/2000/svg" width="40" height="40" fill="none" viewBox="0 0 40 40">
  <path fill="#383838" d="M31.5 6A2.5 2.5 0 0 1 34 8.5v23a2.5 2.5 0 0 1-2.5 2.5h-23A2.5 2.5 0 0 1 6 31.5v-23A2.5 2.5 0 0 1 8.5 6h23Zm-23 1A1.5 1.5 0 0 0 7 8.5v23A1.5 1.5 0 0 0 8.5 33h23a1.5 1.5 0 0 0 1.5-1.5v-23A1.5 1.5 0 0 0 31.5 7h-23Zm18.725 5.082a.5.5 0 0 1 .693.693l-.064.079L20.706 20l7.146 7.146.065.079a.5.5 0 0 1-.693.693l-.079-.064L20 20.706l-7.146 7.146a.5.5 0 1 1-.707-.707L19.293 20l-7.146-7.146-.065-.079a.5.5 0 0 1 .693-.693l.079.064L20 19.294l7.146-7.146.079-.065Z"/>
</svg>
