<svg xmlns="http://www.w3.org/2000/svg" width="40" height="40" fill="none" viewBox="0 0 40 40">
  <path fill="#383838" d="M32.5 33a.5.5 0 0 1 0 1h-26a.5.5 0 0 1 0-1h26Zm0-3a.5.5 0 0 1 0 1h-26a.5.5 0 0 1 0-1h26Zm0-20a.5.5 0 0 1 0 1h-26a.5.5 0 0 1 0-1h26Zm0-3a.5.5 0 0 1 0 1h-26a.5.5 0 0 1 0-1h26Z"/>
  <path fill="#446ECA" d="M26.5 14a1.5 1.5 0 0 1 1.5 1.5v10a1.5 1.5 0 0 1-1.5 1.5h-14a1.5 1.5 0 0 1-1.5-1.5v-10a1.5 1.5 0 0 1 1.5-1.5h14ZM12 25.5a.5.5 0 0 0 .5.5H19v-5h-7v4.5Zm8 .5h6.5a.5.5 0 0 0 .5-.5V21h-7v5Zm-7.5-11a.5.5 0 0 0-.5.5V20h7v-5h-6.5Zm7.5 5h7v-4.5a.5.5 0 0 0-.5-.5H20v5Z"/>
</svg>
