<svg xmlns="http://www.w3.org/2000/svg" width="40" height="40" viewBox="0 0 40 40" stroke="currentColor" stroke-linecap="round" stroke-linejoin="round" fill="none">
    <path d="M4.5 35.5h31m-31-30h31" class="icon-stroke-gray-primary"/>
    <path d="m21.92 12.976-.958 5.657h-6.166c-1.554 0-1.775-.734-1.8-1.758a.882.882 0 0 0-.873-.875.876.876 0 0 0-.877.875c.006 1.455.15 2.2 1.752 3.328V27.5a1.5 1.5 0 1 0 3 0v-4.367l6 1V27.5a1.501 1.501 0 1 0 3.002 0v-8.416c0-.24.193-.435.433-.437l1.244-.013c1.477 0 2.673-.418 2.673-1.895v-.803a.8.8 0 0 0-.802-.802h-1.17s-.3-.978-.601-1.279c-.3-.3-.709-.47-1.133-.47h-1.741l-.565-.753a.793.793 0 0 0-1.417.344Z" fill="currentColor" stroke="none" class="icon-fill-blue-primary"/>
</svg>
