<svg xmlns="http://www.w3.org/2000/svg" width="40" height="40" fill="none" viewBox="0 0 40 40">
  <path fill="#383838" fill-rule="evenodd" d="M20 8.5a.5.5 0 0 1 .5-.5h13a.5.5 0 0 1 0 1h-13a.5.5 0 0 1-.5-.5Zm0 6a.5.5 0 0 1 .5-.5h13a.5.5 0 0 1 0 1h-13a.5.5 0 0 1-.5-.5Zm0 6a.5.5 0 0 1 .5-.5h13a.5.5 0 0 1 0 1h-13a.5.5 0 0 1-.5-.5Zm-14 6a.5.5 0 0 1 .5-.5h27a.5.5 0 0 1 0 1h-27a.5.5 0 0 1-.5-.5Zm0 6a.5.5 0 0 1 .5-.5h27a.5.5 0 0 1 0 1h-27a.5.5 0 0 1-.5-.5Z" clip-rule="evenodd"/>
  <path fill="#446ECA" fill-rule="evenodd" d="M11.5 8a.5.5 0 0 1 .461.308l3.334 8 1.667 4a.5.5 0 1 1-.924.384L14.5 17h-6l-1.538 3.692a.5.5 0 0 1-.924-.384l1.667-4 3.334-8A.5.5 0 0 1 11.5 8Zm-2.583 8h5.166L11.5 9.8 8.917 16Z" clip-rule="evenodd"/>
</svg>
