<svg xmlns="http://www.w3.org/2000/svg" width="40" height="40" fill="none" viewBox="0 0 40 40">
  <path fill="#383838" d="M29.5 4A2.5 2.5 0 0 1 32 6.5v27a2.5 2.5 0 0 1-2.5 2.5h-19a2.5 2.5 0 0 1-2.487-2.244L8 33.5v-27A2.5 2.5 0 0 1 10.5 4h19Zm-19 1A1.5 1.5 0 0 0 9 6.5v27l.008.153A1.5 1.5 0 0 0 10.5 35h19a1.5 1.5 0 0 0 1.5-1.5v-27A1.5 1.5 0 0 0 29.5 5h-19Z"/>
  <path fill="#446ECA" d="M27.5 7A1.5 1.5 0 0 1 29 8.5v2a1.5 1.5 0 0 1-1.5 1.5h-5a1.5 1.5 0 0 1-1.5-1.5v-2A1.5 1.5 0 0 1 22.5 7h5Zm-5 1a.5.5 0 0 0-.5.5v2a.5.5 0 0 0 .5.5h5a.5.5 0 0 0 .5-.5v-2a.5.5 0 0 0-.5-.5h-5Z"/>
</svg>
