<svg width="64" height="64" viewBox="0 0 64 64" xmlns="http://www.w3.org/2000/svg">
<g clip-path="url(#clip0_0_528)">
<path fill-rule="evenodd" clip-rule="evenodd" d="M64 32C64 49.6731 49.6731 64 32 64C14.3269 64 0 49.6731 0 32C0 14.3269 14.3269 0 32 0C49.6731 0 64 14.3269 64 32ZM32 51C42.4934 51 51 42.4934 51 32C51 21.5066 42.4934 13 32 13C21.5066 13 13 21.5066 13 32C13 42.4934 21.5066 51 32 51Z" fill="#555555"/>
<path d="M13 32H0C0 14.3269 14.3269 0 32 0V13C21.5066 13 13 21.5066 13 32Z" fill-opacity="0.35"/>
</g>
<defs>
<clipPath id="clip0_0_528">
<rect width="64" height="64" fill="white"/>
</clipPath>
</defs>
</svg>
