<svg width="64" height="64" viewBox="0 0 64 64" xmlns="http://www.w3.org/2000/svg">
<g clip-path="url(#clip0_0_196)">
<path d="M4 0H2V37.9259V45.037V49.7778V56.8889V64H66V62H4V0Z" fill="#555555"/>
<path d="M4.58581 51.9859H4H2H0V58H2H4H6V53.4034L20.4142 42.207H24.6972L37.6972 50.207V54.0141H43.6972V48.5766L60.0547 32.0141H64V26H58V31.4376L41.6426 48H38L25 40V36.1929H19V40.7895L4.58581 51.9859Z" fill="#555555"/>
<path opacity="0.6" d="M6 6H0V12H6V10H19V12H25V10H38V12H44V10H58V12H64V6H58V8H44V6H38V8H25V6H19V8H6V6Z" fill="#555555"/>
</g>
<defs>
<clipPath id="clip0_0_196">
<rect width="64" height="64" fill="white"/>
</clipPath>
</defs>
</svg>
