<svg width="64" height="64" viewBox="0 0 64 64" xmlns="http://www.w3.org/2000/svg">
<g clip-path="url(#clip0_0_417)">
<path d="M11.5875 0H9.89676V49.9353L0 62.4841L1.19552 64L11.0923 51.4511H64V49.3074H11.5875V0Z" fill="#555555"/>
<path opacity="0.6" d="M39.2308 6C32.1538 12.5276 18.7077 23.9042 18 24.6503L37.5106 15.3497L48.126 34H58.7414L64 26.5153L53.3846 24.6503L39.2308 6Z" fill="#555555"/>
<path d="M0 36.8421L9 31.9211L10.8 30.9368L18 27L34.9043 43.1053L36.7826 44.8947L39.6 47.5789L44.4 44.8947L47.6 43.1053L54 39.5263L50.85 43.1053L49.275 44.8947L35.1 61L21.7929 44.8947L20.3143 43.1053L14.4 35.9474L10.8 36.1711L9 36.2829L0 36.8421Z" fill="#555555"/>
</g>
<defs>
<clipPath id="clip0_0_417">
<rect width="64" height="64" fill="white"/>
</clipPath>
</defs>
</svg>
