<svg width="64" height="64" viewBox="0 0 64 64" xmlns="http://www.w3.org/2000/svg">
<path d="M50 63V53L58 51V61L50 63Z" fill="#555555"/>
<path d="M50 53L8 39V49L50 63V53Z" fill="#555555"/>
<path d="M16 37L8 39L50 53L58 51L16 37Z" fill="#555555"/>
<path d="M16 37L8 39L50 53L58 51L16 37Z" fill="white" fill-opacity="0.35"/>
<path d="M41 48V38L49 36V46L41 48Z" fill="#555555"/>
<path d="M41 38L8 27V37L41 48V38Z" fill="#555555"/>
<path d="M16 25L8 27L41 38L49 36L16 25Z" fill="#555555"/>
<path d="M16 25L8 27L41 38L49 36L16 25Z" fill="white" fill-opacity="0.35"/>
<path d="M35 34V24L43 22V32L35 34Z" fill="#555555"/>
<path d="M35 24L8 15V25L35 34V24Z" fill="#555555"/>
<path d="M16 13L8 15L35 24L43 22L16 13Z" fill="#555555"/>
<path d="M16 13L8 15L35 24L43 22L16 13Z" fill="white" fill-opacity="0.35"/>
<path d="M27.5 19.498V9.49805L35.5 7.49805V17.498L27.5 19.498Z" fill="#555555"/>
<path d="M27.5 9.49805L8 3V13L27.5 19.498V9.49805Z" fill="#555555"/>
<path d="M16 1L8 3L27.5 9.49805L35.5 7.49805L16 1Z" fill="#555555"/>
<path d="M16 1L8 3L27.5 9.49805L35.5 7.49805L16 1Z" fill="white" fill-opacity="0.35"/>
<path d="M50 62.998V52.998L58 50.998V60.998L50 62.998Z" fill="white" fill-opacity="0.65"/>
<path d="M41 47.998V37.998L49 35.998V45.998L41 47.998Z" fill="white" fill-opacity="0.65"/>
<path d="M35 33.998V23.998L43 21.998V31.998L35 33.998Z" fill="white" fill-opacity="0.65"/>
<path d="M27.5 19.498V9.49805L35.5 7.49805V17.498L27.5 19.498Z" fill="white" fill-opacity="0.65"/>
</svg>
