<svg width="64" height="64" viewBox="0 0 64 64" xmlns="http://www.w3.org/2000/svg">
<rect opacity="0.3" x="21" y="13" width="35" height="1" fill="#444444"/>
<path d="M8.60498 18V11.2754H8.5835L6.53174 12.7524V11.7319L8.59424 10.2495H9.53955V18H8.60498Z" fill="#444444"/>
<path d="M13.605 36V29.2754H13.5835L11.5317 30.7524V29.7319L13.5942 28.2495H14.5396V36H13.605Z" fill="#444444"/>
<path d="M23.605 36V29.2754H23.5835L21.5317 30.7524V29.7319L23.5942 28.2495H24.5396V36H23.605Z" fill="#444444"/>
<path d="M18.605 53V46.2754H18.5835L16.5317 47.7524V46.7319L18.5942 45.2495H19.5396V53H18.605Z" fill="#444444"/>
<rect x="13" y="17" width="1" height="1" fill="#444444"/>
<rect x="18" y="35" width="1" height="1" fill="#444444"/>
<rect x="23" y="52" width="1" height="1" fill="#444444"/>
<path d="M28.605 53V46.2754H28.5835L26.5317 47.7524V46.7319L28.5942 45.2495H29.5396V53H28.605Z" fill="#444444"/>
<path d="M38.605 53V46.2754H38.5835L36.5317 47.7524V46.7319L38.5942 45.2495H39.5396V53H38.605Z" fill="#444444"/>
<rect x="33" y="52" width="1" height="1" fill="#444444"/>
<path opacity="0.3" d="M32 31H56V32H32V31Z" fill="#444444"/>
<path opacity="0.3" d="M47 49H56V50H47V49Z" fill="#444444"/>
</svg>
