<svg width="64" height="64" viewBox="0 0 64 64" xmlns="http://www.w3.org/2000/svg">
<rect opacity="0.3" x="21" y="13" width="35" height="1" fill="#444444"/>
<path opacity="0.3" d="M31 31H56V32H31V31Z" fill="#444444"/>
<path opacity="0.3" d="M37 49H56V50H37V49Z" fill="#444444"/>
<path d="M8.60498 18V11.2754H8.5835L6.53174 12.7524V11.7319L8.59424 10.2495H9.53955V18H8.60498ZM13.4014 14.9492C13.4014 17.4038 12.585 18.7466 11.876 19.6489H11.0918C11.5645 19.1011 12.4507 17.3823 12.4507 14.9492C12.4507 12.5161 11.5591 10.792 11.0918 10.2495H11.876C12.585 11.1519 13.4014 12.4946 13.4014 14.9492Z" fill="#444444"/>
<path d="M17.4492 35.3018C18.3301 35.3018 19.0068 34.6841 19.0068 33.8784V33.4219L17.5137 33.5132C16.7617 33.5615 16.332 33.8945 16.332 34.4209C16.332 34.9526 16.7778 35.3018 17.4492 35.3018ZM17.2397 36.0967C16.1279 36.0967 15.3813 35.4253 15.3813 34.4209C15.3813 33.4648 16.1172 32.8633 17.4062 32.7881L19.0068 32.6968V32.2295C19.0068 31.5474 18.5557 31.1392 17.7822 31.1392C17.0625 31.1392 16.6113 31.4775 16.4932 32.0254H15.5908C15.6553 31.0586 16.4824 30.3174 17.8037 30.3174C19.1143 30.3174 19.9414 31.0264 19.9414 32.1382V36H19.0552V35.0386H19.0337C18.7007 35.6777 17.9917 36.0967 17.2397 36.0967ZM23.0459 32.9492C23.0459 35.4038 22.2295 36.7466 21.5205 37.6489H20.7363C21.209 37.1011 22.0952 35.3823 22.0952 32.9492C22.0952 30.5161 21.2036 28.792 20.7363 28.2495H21.5205C22.2295 29.1519 23.0459 30.4946 23.0459 32.9492Z" fill="#444444"/>
<path d="M25.6553 53V47.4141H26.5898V53H25.6553ZM26.1226 46.4741C25.8057 46.4741 25.5425 46.2109 25.5425 45.894C25.5425 45.5718 25.8057 45.314 26.1226 45.314C26.4448 45.314 26.708 45.5718 26.708 45.894C26.708 46.2109 26.4448 46.4741 26.1226 46.4741ZM29.7695 49.9492C29.7695 52.4038 28.9531 53.7466 28.2441 54.6489H27.46C27.9326 54.1011 28.8188 52.3823 28.8188 49.9492C28.8188 47.5161 27.9272 45.792 27.46 45.2495H28.2441C28.9531 46.1519 29.7695 47.4946 29.7695 49.9492Z" fill="#444444"/>
</svg>
