<svg width="56" height="56" viewBox="0 0 56 56" xmlns="http://www.w3.org/2000/svg">
<path fill-rule="evenodd" clip-rule="evenodd" d="M20.1402 38.3345C18.9198 39.4153 17.3083 40.0726 15.5415 40.0726C11.7321 40.0726 8.64399 37.0169 8.64399 33.2475C8.64399 30.899 9.84276 28.8276 11.6679 27.5996C8.22116 26.6671 5.6879 23.5463 5.6879 19.84C5.6879 15.3975 9.32749 11.7962 13.8172 11.7962C14.4108 11.7962 14.9896 11.8592 15.5471 11.9787C15.7092 7.54289 19.3946 3.99609 23.9171 3.99609C27.728 3.99609 30.9445 6.51448 31.9594 9.96107C33.9758 7.23149 37.236 5.45842 40.9147 5.45842C47.0369 5.45842 52 10.3693 52 16.4272C52 19.1517 50.9962 21.6441 49.3345 23.5622C50.9793 25.1551 52 27.3764 52 29.8337C52 34.68 48.0295 38.6087 43.1317 38.6087C41.9528 38.6087 40.8276 38.3811 39.7986 37.9678C37.5596 41.0153 33.9283 42.9965 29.8293 42.9965C25.8971 42.9965 22.3953 41.1732 20.1402 38.3345ZM16 44.4961C16 46.4291 14.433 47.9961 12.5 47.9961C10.567 47.9961 9 46.4291 9 44.4961C9 42.5631 10.567 40.9961 12.5 40.9961C14.433 40.9961 16 42.5631 16 44.4961ZM6 51.9961C7.10457 51.9961 8 51.1007 8 49.9961C8 48.8915 7.10457 47.9961 6 47.9961C4.89543 47.9961 4 48.8915 4 49.9961C4 51.1007 4.89543 51.9961 6 51.9961Z"/>
</svg>
