<svg width="56" height="56" viewBox="0 0 56 56" xmlns="http://www.w3.org/2000/svg">
<path d="M6 47.9961C7.10457 47.9961 8 48.8915 8 49.9961C8 51.1007 7.10457 51.9961 6 51.9961C4.89543 51.9961 4 51.1007 4 49.9961C4 48.8915 4.89543 47.9961 6 47.9961ZM12.5 40.9961C14.433 40.9961 16 42.5631 16 44.4961C16 46.4291 14.433 47.9961 12.5 47.9961C10.567 47.9961 9 46.4291 9 44.4961C9 42.5631 10.567 40.9961 12.5 40.9961ZM23.917 3.99609C27.7294 3.99609 30.9444 6.51717 31.958 9.96582C33.9742 7.23413 37.2347 5.45801 40.915 5.45801C47.037 5.45821 51.9997 10.3692 52 16.4268C52 19.1518 50.9934 21.6433 49.3311 23.5615C50.9771 25.1546 52 27.3757 52 29.834C51.9998 34.6801 48.0295 38.6083 43.1318 38.6084C41.9518 38.6084 40.8267 38.3778 39.7969 37.9639C37.558 41.0123 33.9289 42.9961 29.8291 42.9961C25.8963 42.996 22.3966 41.1706 20.1416 38.3311C18.9211 39.4131 17.3097 40.0722 15.542 40.0723C11.7326 40.0723 8.64355 37.0164 8.64355 33.2471C8.64371 30.8981 9.84303 28.8254 11.6689 27.5977C8.22199 26.6653 5.6875 23.5463 5.6875 19.8398C5.68757 15.3974 9.32777 11.7959 13.8174 11.7959C14.4117 11.7959 14.9907 11.8616 15.5488 11.9814C15.7096 7.54442 19.3936 3.99617 23.917 3.99609Z"/>
</svg>
