<svg width="16" height="16" viewBox="0 0 16 16" xmlns="http://www.w3.org/2000/svg">
<path d="M16 6L0 6L0 2.35555C0 2.17777 0.1 2 0.3 2L15.7 2C15.9 2 16 2.17777 16 2.35555V6Z" fill="#00B9E4"/>
<path d="M16 6L0 6L0 10L16 10V6Z" fill="#ED2939"/>
<path d="M15.7 14L0.3 14C0.1 14 0 13.8222 0 13.6444L0 10L16 10V13.6444C16 13.8222 15.9 14 15.7 14Z" fill="#3F9C35"/>
<path d="M8 6C8.65149 6 9.22859 6.31274 9.59375 6.79492C9.29467 6.50941 8.89044 6.33309 8.44434 6.33301C7.52386 6.33301 6.77734 7.07953 6.77734 8C6.77752 8.92032 7.52397 9.66602 8.44434 9.66602C8.89151 9.66593 9.29544 9.48789 9.59473 9.20117C9.22969 9.68504 8.65282 10 8 10C6.89543 10 6 9.10457 6 8C6 6.89543 6.89543 6 8 6ZM10.4336 7.48633L11.0068 7.21387L10.7344 7.78711L11.333 8L10.7344 8.21191L11.0068 8.78516L10.4336 8.5127L10.2217 9.11133L10.0088 8.5127L9.43555 8.78516L9.70801 8.21191L9.11035 8L9.70801 7.78711L9.43555 7.21387L10.0088 7.48633L10.2217 6.88867L10.4336 7.48633Z" fill="white"/>
</svg>
