<svg width="16" height="16" viewBox="0 0 16 16" xmlns="http://www.w3.org/2000/svg">
<path d="M0.0999999 13.8996L8 7.9996L0.0999999 2.09961C-9.68575e-08 2.09961 0 2.19959 0 2.29959L0 13.6996C0 13.7996 -9.68575e-08 13.8996 0.0999999 13.8996Z" fill="#41479B"/>
<path d="M0.0996094 13.9C0.0996094 13.9 0.19961 14 0.29961 14L15.6996 14C15.8996 14 15.9996 13.9 15.9996 13.7L15.9996 8L7.99961 8L0.0996094 13.9Z" fill="#FF4B55"/>
<path d="M0.0996094 2.10001C0.0996094 2.10001 0.19961 2 0.29961 2L15.6996 2C15.8996 2 15.9996 2.09999 15.9996 2.29999L15.9996 8L7.99961 8L0.0996094 2.10001Z" fill="#F5F5F5"/>
</svg>
