<svg width="16" height="16" viewBox="0 0 16 16" xmlns="http://www.w3.org/2000/svg">
<rect width="16" height="12" transform="translate(0 2)" fill="#0D5EAF"/>
<path fill-rule="evenodd" clip-rule="evenodd" d="M4 6L4 9H3L3 6L0 6L0 5H3L3 2H4L4 5L7 5V6H4Z" fill="#F5F5F5"/>
<path d="M16 11L0 11L0 10L16 10V11Z" fill="#F5F5F5"/>
<path d="M16 13L0 13L0 12L16 12V13Z" fill="#F5F5F5"/>
<path d="M16 3L7 3V2L16 2V3Z" fill="#F5F5F5"/>
<path d="M16 5L7 5L7 4L16 4V5Z" fill="#F5F5F5"/>
<path d="M16 7L7 7V6L16 6V7Z" fill="#F5F5F5"/>
<path d="M16 9L7 9V8L16 8V9Z" fill="#F5F5F5"/>
</svg>
