<svg width="16" height="16" viewBox="0 0 16 16" xmlns="http://www.w3.org/2000/svg">
<path d="M15.7 14L0.3 14C0.1 14 0 13.9 0 13.7L0 2.29999C0 2.09999 0.1 2 0.3 2L15.7 2C15.9 2 16 2.09999 16 2.29999L16 13.7C16 13.9 15.9 14 15.7 14Z" fill="#41479B"/>
<path d="M16 2.29999C16 2.09999 16 2 16 2L13 2L10 5V2L6 2L6 5L3 2L0.3 2C0.1 2 0 2.09999 0 2.29999L0 3L3 6H0L0 10H3L0 13L0 13.7C0 13.9 0.1 14 0.3 14H3L6 11V14H10V10L14 14H16V13.7L16 13L13 10L16 10V6L13 6L16 3V2.29999Z" fill="#F5F5F5"/>
<path d="M16 7L9 7V2L7 2L7 7L0 7L0 9H7L7 14H9V9L16 9V7Z" fill="#FF4B55"/>
<path d="M13 14L10 11V10H11L14 13L15 14H13Z" fill="#FF4B55"/>
<path d="M1 2L5 6L6 6V5L3 2L1 2Z" fill="#FF4B55"/>
<path d="M1 14L5 10H4H3L0 13L0 14H1Z" fill="#FF4B55"/>
<path d="M15 2L11 6H12H13L16 3V2L15 2Z" fill="#FF4B55"/>
</svg>
