<svg width="16" height="16" viewBox="0 0 16 16" xmlns="http://www.w3.org/2000/svg">
<path d="M16 4H1V5H16V4Z" fill="#F5F5F5"/>
<path d="M16 2H2V3H16V2Z" fill="#F5F5F5"/>
<path d="M16 6H2V7H16V6Z" fill="#F5F5F5"/>
<path d="M16 8H0V9H16V8Z" fill="#F5F5F5"/>
<path d="M16 10H0V11H16V10Z" fill="#F5F5F5"/>
<path d="M16 12H0V13H16V12Z" fill="#F5F5F5"/>
<path d="M16 5H0V6H16V5Z" fill="#FF4B55"/>
<path d="M16 3H0V4H16V3Z" fill="#FF4B55"/>
<path d="M0 7V8H5.2H7V7H0Z" fill="#FF4B55"/>
<path d="M16 9H0V10H16V9Z" fill="#FF4B55"/>
<path d="M16 11H0V12H16V11Z" fill="#FF4B55"/>
<path d="M16 13H0V14H16V13Z" fill="#FF4B55"/>
<path d="M16 7H0V8H16V7Z" fill="#FF4B55"/>
<path d="M9 8H8H0V2H9V7V8Z" fill="#41479B"/>
<path d="M2 2H1V3H2V2Z" fill="white"/>
<path d="M4 2H3V3H4V2Z" fill="white"/>
<path d="M6 2H5V3H6V2Z" fill="white"/>
<path d="M8 2H7V3H8V2Z" fill="white"/>
<path d="M8 4H7V5H8V4Z" fill="white"/>
<path d="M6 4H5V5H6V4Z" fill="white"/>
<path d="M4 4H3V5H4V4Z" fill="white"/>
<path d="M2 4H1V5H2V4Z" fill="white"/>
<path d="M2 6H1V7H2V6Z" fill="white"/>
<path d="M4 6H3V7H4V6Z" fill="white"/>
<path d="M6 6H5V7H6V6Z" fill="white"/>
<path d="M8 6H7V7H8V6Z" fill="white"/>
</svg>
