<svg width="16" height="16" viewBox="0 0 16 16" xmlns="http://www.w3.org/2000/svg">
<path d="M0.3 14H15.7C15.9 14 16 13.9 16 13.7V2.3C16 2.1 15.9 2 15.7 2H0.3C0.1 2 0 2.1 0 2.3V13.7C0 13.9 0.1 14 0.3 14Z" fill="#C8414B"/>
<path d="M16 4H0V12H16V4Z" fill="#FFD250"/>
<path d="M6.80039 7.99961L7.00039 6.79961C7.00039 6.69961 6.90039 6.59961 6.80039 6.59961H6.60039C6.50039 6.59961 6.40039 6.69961 6.40039 6.79961L6.80039 7.99961Z" fill="#C8414B"/>
<path d="M7.1 7.40039H6.5V10.1004H7.1V7.40039Z" fill="#F5F5F5"/>
<path d="M7.0998 7.09961H6.2998V7.39961H7.0998V7.09961Z" fill="#FAB446"/>
<path d="M7.1998 8H5.7998V8.3H7.1998V8Z" fill="#C8414B"/>
<path d="M7.20039 9.30019L6.40039 9.00019V8.7002L7.20039 9.00019V9.30019Z" fill="#C8414B"/>
<path d="M2.5998 7.99961L2.7998 6.79961C2.7998 6.69961 2.6998 6.59961 2.5998 6.59961H2.4998C2.3998 6.59961 2.2998 6.69961 2.2998 6.79961L2.5998 7.99961Z" fill="#C8414B"/>
<path d="M3.5998 7.09961C3.3998 7.09961 3.2998 7.19961 3.2998 7.39961V9.49961C3.2998 9.89961 3.5998 10.5996 4.6998 10.5996C5.7998 10.5996 6.0998 9.89961 6.0998 9.49961V7.39961C6.0998 7.19961 5.9998 7.09961 5.7998 7.09961H3.5998Z" fill="#F5F5F5"/>
<path d="M4.6998 8.6H3.2998V7.3C3.2998 7.1 3.3998 7 3.5998 7H4.6998V8.6Z" fill="#C8414B"/>
<path d="M4.7002 8.59961H6.1002V9.39961C6.1002 9.79961 5.8002 10.1996 5.4002 10.1996C5.0002 10.1996 4.7002 9.79961 4.7002 9.39961V8.59961Z" fill="#C8414B"/>
<path d="M3.2998 8.59961H4.6998V9.39961C4.6998 9.79961 4.3998 10.1996 3.9998 10.1996C3.5998 10.1996 3.2998 9.79961 3.2998 9.39961V8.59961Z" fill="#FAB446"/>
<path d="M4.39961 9.99961V8.59961H4.09961V10.1996C4.19961 10.1996 4.29961 10.0996 4.39961 9.99961Z" fill="#C8414B"/>
<path d="M3.89961 10.1996V8.59961H3.59961V9.99961C3.69961 10.0996 3.79961 10.1996 3.89961 10.1996Z" fill="#C8414B"/>
<path d="M4.39961 8H3.59961V8.3H4.39961V8Z" fill="#FFB441"/>
<path d="M4.39961 7.40039H3.59961V7.70039H4.39961V7.40039Z" fill="#FAB446"/>
<path d="M4.3002 7.59961H3.7002V8.19961H4.3002V7.59961Z" fill="#FAB446"/>
<path d="M2.8998 7.40039H2.2998V10.1004H2.8998V7.40039Z" fill="#F5F5F5"/>
<path d="M3.0002 9.90039H2.2002V10.2004H3.0002V9.90039Z" fill="#FAB446"/>
<path d="M3.0002 7.09961H2.2002V7.39961H3.0002V7.09961Z" fill="#FAB446"/>
<path d="M3.19961 10.2002H2.09961V10.5002H3.19961V10.2002Z" fill="#5064AA"/>
<path d="M7.3 9.90039H6.5V10.2004H7.3V9.90039Z" fill="#FAB446"/>
<path d="M7.3002 10.2002H6.2002V10.5002H7.3002V10.2002Z" fill="#5064AA"/>
<path d="M5.60039 6.7002H3.90039V7.00019H5.60039V6.7002Z" fill="#FAB446"/>
<path d="M4.89961 5.7998H4.59961V6.69981H4.89961V5.7998Z" fill="#FFB441"/>
<path d="M4.4 6.2998C4.2 6.2998 4 6.0998 4 5.7998C4 5.4998 4.2 5.2998 4.4 5.2998C4.6 5.2998 4.8 5.4998 4.8 5.7998C4.8 6.0998 4.6 6.2998 4.4 6.2998ZM4.4 5.5998C4.3 5.5998 4.3 5.6998 4.3 5.7998C4.3 5.8998 4.4 5.99981 4.4 5.99981C4.5 5.99981 4.5 5.8998 4.5 5.7998C4.5 5.6998 4.5 5.5998 4.4 5.5998Z" fill="#F5F5F5"/>
<path d="M4.99961 6.2998C4.79961 6.2998 4.59961 6.0998 4.59961 5.7998C4.59961 5.4998 4.79961 5.2998 4.99961 5.2998C5.19961 5.2998 5.39961 5.4998 5.39961 5.7998C5.39961 6.0998 5.19961 6.2998 4.99961 6.2998ZM4.99961 5.5998C4.89961 5.5998 4.89961 5.6998 4.89961 5.7998C4.89961 5.8998 4.99961 5.99981 4.99961 5.99981C5.09961 5.99981 5.09961 5.8998 5.09961 5.7998C5.09961 5.6998 4.99961 5.5998 4.99961 5.5998Z" fill="#F5F5F5"/>
<path d="M5.49961 6.59961C5.29961 6.59961 5.09961 6.39961 5.09961 6.09961C5.09961 5.79961 5.29961 5.59961 5.49961 5.59961C5.69961 5.59961 5.89961 5.79961 5.89961 6.09961C5.89961 6.39961 5.69961 6.59961 5.49961 6.59961ZM5.49961 5.89961C5.39961 5.89961 5.39961 5.99961 5.39961 6.09961C5.39961 6.19961 5.49961 6.29961 5.49961 6.29961C5.49961 6.29961 5.59961 6.19961 5.59961 6.09961C5.69961 5.99961 5.59961 5.89961 5.49961 5.89961Z" fill="#F5F5F5"/>
<path d="M3.9 6.59961C3.7 6.59961 3.5 6.39961 3.5 6.09961C3.5 5.79961 3.7 5.59961 3.9 5.59961C4.1 5.59961 4.3 5.79961 4.3 6.09961C4.3 6.39961 4.1 6.59961 3.9 6.59961ZM3.9 5.89961C3.8 5.89961 3.8 5.99961 3.8 6.09961C3.8 6.19961 3.9 6.29961 3.9 6.29961C4 6.29961 4 6.19961 4 6.09961C4 5.99961 3.9 5.89961 3.9 5.89961Z" fill="#F5F5F5"/>
<path d="M5.5 9.30039V9.50039C5.5 9.60039 5.4 9.70039 5.4 9.70039C5.3 9.70039 5.3 9.60039 5.3 9.50039V9.30039H5.5ZM5.8 8.90039H5V9.40039C5 9.70039 5.2 9.90039 5.4 9.90039C5.6 9.90039 5.8 9.70039 5.8 9.40039V8.90039Z" fill="#FAB446"/>
<path d="M5.39961 8.30039C5.19961 8.30039 5.09961 8.20039 5.09961 8.00039V7.70039C5.09961 7.50039 5.19961 7.40039 5.39961 7.40039C5.59961 7.40039 5.69961 7.50039 5.69961 7.70039V8.00039C5.69961 8.20039 5.49961 8.30039 5.39961 8.30039Z" fill="#FFA0D2"/>
<path d="M5.0998 8.59961C5.0998 8.89961 4.8998 9.09961 4.6998 9.09961C4.4998 9.09961 4.2998 8.89961 4.2998 8.59961C4.2998 8.29961 4.4998 8.09961 4.6998 8.09961C4.8998 8.19961 5.0998 8.39961 5.0998 8.59961Z" fill="#5064AA"/>
<path d="M4.89961 5.2002H4.59961V6.10019H4.89961V5.2002Z" fill="#FAB446"/>
<path d="M3.89961 6.69981L3.59961 6.39981L3.79961 6.19981C3.99961 5.99981 4.29961 5.7998 4.69961 5.7998C5.09961 5.7998 5.39961 5.99981 5.59961 6.19981L5.79961 6.39981L5.49961 6.69981H3.89961Z" fill="#C8414B"/>
<path d="M4.79961 6.4002C4.79961 6.5002 4.69961 6.60019 4.69961 6.60019C4.59961 6.60019 4.59961 6.5002 4.59961 6.4002C4.59961 6.3002 4.69961 6.2002 4.69961 6.2002C4.79961 6.3002 4.79961 6.3002 4.79961 6.4002Z" fill="#FFD250"/>
<path d="M4.29961 6.4002C4.29961 6.5002 4.19961 6.60019 4.19961 6.60019C4.09961 6.60019 4.09961 6.5002 4.09961 6.4002C4.09961 6.3002 4.19961 6.2002 4.19961 6.2002C4.19961 6.3002 4.29961 6.3002 4.29961 6.4002Z" fill="#FFD250"/>
<path d="M5.4002 6.4002C5.4002 6.5002 5.3002 6.60019 5.3002 6.60019C5.2002 6.60019 5.2002 6.5002 5.2002 6.4002C5.2002 6.3002 5.3002 6.2002 5.3002 6.2002C5.3002 6.3002 5.4002 6.3002 5.4002 6.4002Z" fill="#FFD250"/>
<path d="M3.6002 8H2.2002V8.3H3.6002V8Z" fill="#C8414B"/>
<path d="M2.2002 9.29961L3.0002 8.89961V8.59961L2.2002 8.89961V9.29961Z" fill="#C8414B"/>
</svg>
