<svg width="16" height="16" viewBox="0 0 16 16" xmlns="http://www.w3.org/2000/svg">
<path d="M15.7 14L0.3 14C0.1 14 0 13.9 0 13.7L0 2.3C0 2.1 0.1 2 0.3 2L15.7 2C15.9 2 16 2.1 16 2.3L16 13.7C16 13.9 15.9 14 15.7 14Z" fill="#73AF00"/>
<path d="M7.89961 4.2002L1.99961 7.8002C1.79961 7.9002 1.79961 8.2002 1.99961 8.3002L7.79961 11.8002C7.89961 11.9002 7.99961 11.9002 8.09961 11.8002L13.8996 8.3002C14.0996 8.2002 14.0996 7.9002 13.8996 7.8002L8.09961 4.3002C8.09961 4.2002 7.89961 4.2002 7.89961 4.2002Z" fill="#FFE15A"/>
<path d="M10.2 7.9998C10.2 9.1998 9.20005 10.1998 8.00005 10.1998C6.80005 10.1998 5.80005 9.1998 5.80005 7.9998C5.80005 6.7998 6.80005 5.7998 8.00005 5.7998C9.20005 5.7998 10.2 6.7998 10.2 7.9998Z" fill="#41479B"/>
<path d="M6.10039 6.89957C6.00039 7.09957 5.90039 7.29958 5.90039 7.49958C7.10039 7.39958 8.90039 7.79957 10.1004 8.89957C10.2004 8.69957 10.2004 8.49958 10.2004 8.29958C9.00039 7.19958 7.40039 6.79957 6.10039 6.89957Z" fill="#F5F5F5"/>
<path d="M8.1 8.79961L8.2 8.99961H8.4L8.3 9.09961L8.4 9.29961L8.2 9.1996L8 9.29961L8.1 9.09961L8 8.99961H8.2L8.1 8.79961C8.1 8.69961 8.1 8.69961 8.1 8.79961Z" fill="#F5F5F5"/>
<path d="M8.8 9.2002L8.9 9.3002H8.8V9.40019H8.7H8.6V9.3002H8.5L8.8 9.2002Z" fill="#F5F5F5"/>
<path d="M7.8 8.40039L7.9 8.5004H7.8V8.6004H7.7H7.6V8.5004H7.5L7.8 8.40039Z" fill="#F5F5F5"/>
<path d="M6.39961 8.2998L6.49961 8.3998H6.39961V8.4998H6.29961H6.19961V8.3998H6.09961L6.39961 8.2998Z" fill="#F5F5F5"/>
<path d="M7.60005 9.2002L7.70005 9.3002H7.60005V9.40019H7.50005H7.40005V9.3002H7.30005L7.60005 9.2002C7.50005 9.2002 7.50005 9.2002 7.60005 9.2002Z" fill="#F5F5F5"/>
<path d="M6.89961 8.2998C6.99961 8.2998 6.99961 8.2998 6.89961 8.2998V8.3998V8.4998H6.79961H6.69961V8.3998H6.59961L6.89961 8.2998Z" fill="#F5F5F5"/>
<path d="M8.89961 7L8.99961 7.10001H8.89961V7.2H8.79961H8.69961V7.10001H8.59961L8.89961 7Z" fill="#F5F5F5"/>
<path d="M6.5002 7.90039C6.6002 8.00039 6.6002 8.00039 6.5002 7.90039V8.0004V8.1004H6.4002H6.3002V8.0004H6.2002L6.5002 7.90039Z" fill="#F5F5F5"/>
<path d="M6.8 8.7998L6.9 8.8998L6.8 8.9998V9.09981L6.7 8.9998L6.6 9.09981V8.9998L6.5 8.8998L6.8 8.7998Z" fill="#F5F5F5"/>
<path d="M9.20039 9.2002C9.30039 9.3002 9.30039 9.3002 9.20039 9.2002V9.3002V9.40019H9.10039H9.00039V9.3002H8.90039C9.10039 9.3002 9.10039 9.3002 9.20039 9.2002Z" fill="#F5F5F5"/>
<path d="M9.39961 8.7998L9.49961 8.8998H9.39961V8.9998H9.29961H9.19961V8.8998H9.09961L9.39961 8.7998Z" fill="#F5F5F5"/>
</svg>
