<svg width="16" height="16" viewBox="0 0 16 16" xmlns="http://www.w3.org/2000/svg">
<path d="M16 14L2.91467e-05 14L0 2.3C0 2.1 0.1 2 0.3 2L16 2C16 2 16 2.1 16 2.3L16 13.7C16 13.9 16 14 16 14Z" fill="#E92737"/>
<path d="M16 14L2.91467e-05 14L0 2.3C0 2.1 0.1 2 0.3 2L16 2C16 2 16 2.1 16 2.3L16 13.7C16 13.9 16 14 16 14Z" fill="#E92737"/>
<path d="M16 14L2.91467e-05 14L0 2.3C0 2.1 0.1 2 0.3 2L16 2C16 2 16 2.1 16 2.3L16 13.7C16 13.9 16 14 16 14Z" fill="#E92737"/>
<path d="M6.00001 14L0.112508 14C0.0375082 14 8.13976e-06 14 8.13976e-06 14L0 2L6.00001 2V2.29998L6.00001 14Z" fill="#0D5B2F"/>
<path fill-rule="evenodd" clip-rule="evenodd" d="M9.23588 10.6723C8.18099 10.6405 3.34372 7.61549 3.31055 7.13378L3.57766 6.6875C4.05748 7.38597 9.00261 10.3278 9.48833 10.2236L9.23587 10.6722" fill="#FFFF00"/>
<path fill-rule="evenodd" clip-rule="evenodd" d="M3.52194 6.62701C3.42731 6.88217 4.78421 7.72261 6.41679 8.71739C8.04929 9.71209 9.45696 10.3268 9.5613 10.2387C9.56767 10.2273 9.61263 10.1498 9.60851 10.1504C9.58896 10.1799 9.54135 10.1892 9.46707 10.1678C9.02601 10.0403 7.87566 9.51133 6.45102 8.64582C5.02642 7.78023 3.78695 6.98259 3.5943 6.64367C3.58091 6.62019 3.57136 6.57734 3.5733 6.54402L3.56862 6.54395L3.5276 6.61577L3.52197 6.62703H3.52194L3.52194 6.62701ZM9.26114 10.6864C9.24325 10.719 9.2099 10.72 9.14655 10.7131C8.75197 10.6693 7.55465 10.086 6.13791 9.23633C4.4894 8.24771 3.12793 7.3469 3.27564 7.11146L3.31583 7.04028L3.32374 7.04275C3.19092 7.44174 6.01065 9.05701 6.17665 9.16C7.80818 10.1726 9.18366 10.764 9.30538 10.6103L9.2611 10.6866V10.6865L9.26114 10.6864Z"/>
<path fill-rule="evenodd" clip-rule="evenodd" d="M6.50992 7.42538C7.56575 7.41702 8.86866 7.28084 9.61847 6.98145L9.45692 6.71849C9.01373 6.96423 7.70366 7.12583 6.501 7.15C5.07856 7.13689 4.07451 7.00419 3.57144 6.66602L3.41895 6.94604C4.34373 7.33809 5.29138 7.42135 6.50993 7.42541" fill="#FFFF00"/>
<path fill-rule="evenodd" clip-rule="evenodd" d="M9.66221 6.98723C9.6364 7.02857 9.14741 7.19752 8.42704 7.3222C7.9386 7.3968 7.30148 7.46057 6.50638 7.46135C5.75099 7.46206 5.13391 7.40819 4.66674 7.34475C3.91054 7.22597 3.52026 7.06069 3.37598 7.00229C3.38977 6.9748 3.39864 6.95551 3.41195 6.92984C3.8273 7.09552 4.2194 7.19543 4.67875 7.26623C5.14286 7.3292 5.7525 7.38384 6.50415 7.38313C7.29554 7.38233 7.92565 7.31371 8.41126 7.24133C9.14996 7.12197 9.55348 6.96835 9.61015 6.89701L9.66221 6.98723ZM9.52043 6.72057C9.44036 6.78499 9.04142 6.92673 8.33952 7.03903C7.87109 7.10629 7.27549 7.16648 6.51451 7.16723C5.79156 7.16794 5.20091 7.11912 4.75165 7.05356C4.03882 6.9603 3.65943 6.79205 3.52266 6.743C3.53627 6.71943 3.55013 6.69604 3.56436 6.67256C3.67078 6.72625 4.03691 6.87514 4.75947 6.9777C5.20364 7.04079 5.79519 7.08781 6.51455 7.08707C7.27193 7.0863 7.86076 7.02493 8.32622 6.95804C9.03175 6.86079 9.41138 6.68003 9.46904 6.63477L9.52043 6.72057Z"/>
<path fill-rule="evenodd" clip-rule="evenodd" d="M3.0428 8.69974C3.69222 9.04967 5.13459 9.22601 6.49952 9.23815C7.74231 9.24012 9.36137 9.04569 9.96682 8.72426L9.95016 8.37402C9.76074 8.67058 8.0257 8.95504 6.48604 8.94339C4.94638 8.93176 3.51664 8.69352 3.04004 8.38511L3.04281 8.69965" fill="#FFFF00"/>
<path fill-rule="evenodd" clip-rule="evenodd" d="M9.99929 8.64967L9.99932 8.73319C9.90833 8.84219 9.33776 9.00694 8.62224 9.12296C8.07769 9.2066 7.36772 9.26969 6.48306 9.26969C5.6426 9.26969 4.97238 9.20965 4.45261 9.12971C3.63101 9.00985 3.10549 8.79996 3 8.73732L3.00046 8.63988C3.31734 8.85095 4.17586 9.00534 4.46414 9.0526C4.98052 9.13202 5.64677 9.1916 6.48303 9.1916C7.36354 9.1916 8.06952 9.12893 8.61065 9.04585C9.12399 8.97156 9.85529 8.77836 9.99926 8.64971H9.99929L9.99929 8.64967ZM9.99964 8.35259L9.99967 8.43611C9.90868 8.54505 9.33811 8.7098 8.62259 8.82581C8.07803 8.90945 7.36807 8.97254 6.48341 8.97254C5.64295 8.97254 4.97273 8.91257 4.45296 8.83257C3.63136 8.71277 3.10584 8.50288 3.00035 8.44021L3.00081 8.34277C3.31769 8.5538 4.1762 8.70823 4.46449 8.75542C4.98087 8.8349 5.64711 8.89451 6.48338 8.89451C7.36389 8.89451 8.06987 8.83181 8.611 8.74866C9.12434 8.67437 9.85564 8.48117 9.99961 8.35253L9.99964 8.3526L9.99964 8.35259Z"/>
<path fill-rule="evenodd" clip-rule="evenodd" d="M6.49663 10.6123C5.00309 10.6033 3.72336 10.2044 3.45312 10.1384L3.65018 10.4475C4.12752 10.6487 5.376 10.9485 6.51096 10.9153C7.64595 10.8821 8.63785 10.794 9.33685 10.4531L9.5389 10.1328C9.06254 10.3576 7.44141 10.6099 6.49661 10.6122" fill="#FFFF00"/>
<path fill-rule="evenodd" clip-rule="evenodd" d="M9.41335 10.3813C9.38366 10.4268 9.35339 10.4717 9.32269 10.5153C8.993 10.6318 8.47351 10.754 8.25429 10.7897C7.8065 10.8821 7.11368 10.9504 6.4988 10.9507C5.17575 10.9313 4.09275 10.6719 3.58326 10.4505L3.54215 10.3797L3.54886 10.3691L3.61858 10.3962C4.52464 10.7209 5.54227 10.8505 6.50626 10.8737C7.11866 10.8759 7.73172 10.8034 8.22746 10.7146C8.98767 10.562 9.29505 10.447 9.38937 10.3948L9.41335 10.3813ZM9.58854 10.0919L9.59082 10.0946C9.56862 10.1321 9.54574 10.1703 9.5223 10.2087C9.34646 10.2717 8.86926 10.4115 8.17239 10.5092C7.71325 10.5718 7.42786 10.6325 6.5145 10.6503C4.80298 10.6067 3.69485 10.2714 3.4316 10.1887L3.39258 10.1137C4.38447 10.3731 5.39766 10.5542 6.51456 10.5727C7.35019 10.5549 7.7057 10.4932 8.16103 10.4311C8.97362 10.3045 9.38303 10.1704 9.50591 10.1318C9.50437 10.1295 9.50256 10.1272 9.50052 10.1248L9.58854 10.0919Z"/>
<path fill-rule="evenodd" clip-rule="evenodd" d="M9.60559 8.42306C9.61043 9.40737 9.10765 10.2907 8.70267 10.6803C8.12973 11.2316 7.37008 11.5862 6.48295 11.6026C5.49232 11.6208 4.55825 10.9738 4.30772 10.6896C3.81788 10.1339 3.41908 9.42819 3.4063 8.47714C3.46697 7.40285 3.88793 6.65453 4.49813 6.14137C5.10832 5.6282 5.9208 5.37829 6.59745 5.39616C7.37815 5.4168 8.29011 5.80049 8.92025 6.56221C9.33309 7.06128 9.51187 7.60288 9.60559 8.42306ZM6.49137 5.05273C8.39389 5.05273 9.95861 6.60381 9.95861 8.50565C9.95861 10.4075 8.39389 11.9586 6.49137 11.9586C4.58884 11.9586 3.03711 10.4075 3.03711 8.50565C3.03711 6.60381 4.58884 5.05273 6.49137 5.05273Z" fill="#FFFF00"/>
<path fill-rule="evenodd" clip-rule="evenodd" d="M6.50029 5.04102C8.40454 5.04102 9.95762 6.59716 9.95762 8.5051C9.95762 10.413 8.40451 11.9691 6.50029 11.9691C4.59604 11.9691 3.04297 10.413 3.04297 8.5051C3.04297 6.59716 4.59608 5.04102 6.50029 5.04102ZM3.11906 8.50511C3.11906 10.3683 4.64626 11.8929 6.50029 11.8929C8.35436 11.8929 9.88156 10.3683 9.88156 8.50511C9.88156 6.64185 8.35433 5.11722 6.50029 5.11722C4.64626 5.11722 3.11906 6.64192 3.11906 8.50511Z"/>
<path fill-rule="evenodd" clip-rule="evenodd" d="M6.50378 5.3291C8.24031 5.3291 9.67064 6.75714 9.67064 8.50219C9.67064 10.2473 8.24027 11.6752 6.50378 11.6752C4.76728 11.6752 3.33691 10.2473 3.33691 8.50219C3.33691 6.75714 4.76732 5.3291 6.50378 5.3291ZM3.41297 8.50217C3.41297 10.2053 4.80897 11.599 6.50378 11.599C8.19858 11.599 9.59459 10.2053 9.59459 8.50217C9.59459 6.79899 8.19861 5.40531 6.50378 5.40531C4.80897 5.40531 3.41297 6.79899 3.41297 8.50217Z"/>
<path fill-rule="evenodd" clip-rule="evenodd" d="M6.64261 5.10742H6.34577L6.34473 11.8922H6.64259L6.64261 5.10742Z" fill="#FFFF00"/>
<path fill-rule="evenodd" clip-rule="evenodd" d="M6.61483 5H6.69038L6.69034 11.9999H6.61472L6.61483 5ZM6.32023 5.00006H6.39637L6.39578 12H6.31958L6.32023 5.00006Z"/>
<path fill-rule="evenodd" clip-rule="evenodd" d="M9.96053 8.63954V8.38223L9.75136 8.18703L8.56414 7.87218L6.85314 7.69727L4.79295 7.80221L3.32638 8.15204L3.03027 8.37174V8.62911L3.78032 8.29198L5.56116 8.01212H7.27216L8.52922 8.15205L9.40218 8.36195L9.96053 8.63954Z" fill="#FFFF00"/>
<path fill-rule="evenodd" clip-rule="evenodd" d="M6.50183 7.96898C7.31833 7.96747 8.11053 8.04648 8.73889 8.16906C9.38729 8.29892 9.8436 8.46137 9.99962 8.64382L9.99944 8.73415C9.81129 8.50711 9.19726 8.34066 8.72429 8.24551C8.10072 8.12398 7.31383 8.04552 6.50183 8.04703C5.645 8.04864 4.84715 8.12993 4.23269 8.25004C3.73964 8.34806 3.08209 8.54278 3 8.73484V8.64077C3.04508 8.50782 3.53471 8.30916 4.22159 8.1714C4.84066 8.05046 5.63998 7.97055 6.50183 7.96898V7.96898ZM6.50218 7.6719C7.31868 7.67042 8.11088 7.74946 8.73924 7.87198C9.38764 8.0019 9.84395 8.16428 9.99997 8.34673L9.99979 8.43707C9.81164 8.21008 9.19761 8.04362 8.72464 7.9485C8.10107 7.82691 7.31418 7.74845 6.50218 7.75002C5.64535 7.75156 4.85138 7.83292 4.23685 7.95297C3.76105 8.04334 3.07665 8.24576 3.00031 8.43783V8.3437C3.0454 8.21221 3.54494 8.00641 4.22194 7.87433C4.84101 7.75339 5.64033 7.67354 6.50218 7.67191V7.6719Z"/>
<path fill-rule="evenodd" clip-rule="evenodd" d="M6.48602 6.15641C7.77273 6.14996 8.89504 6.33666 9.40851 6.60018L9.59581 6.92479C9.14952 6.68382 7.93872 6.43327 6.4879 6.47074C5.30577 6.47802 4.04267 6.60112 3.40894 6.93986L3.63254 6.56523C4.15264 6.29501 5.37922 6.15792 6.48606 6.15648" fill="#FFFF00"/>
<path fill-rule="evenodd" clip-rule="evenodd" d="M6.50351 6.4248C7.2374 6.42285 7.94652 6.46432 8.51049 6.56626C9.0357 6.66418 9.53658 6.81117 9.60819 6.89021L9.66372 6.98851C9.48954 6.87457 9.0561 6.7477 8.49957 6.64197C7.94066 6.53673 7.23202 6.50187 6.50222 6.50378C5.67388 6.50094 5.03033 6.54475 4.47803 6.64123C3.89391 6.75073 3.48864 6.90715 3.38867 6.98148L3.44309 6.87757C3.63734 6.77828 3.94556 6.6586 4.46351 6.56518C5.03468 6.46065 5.68507 6.4293 6.50356 6.4248H6.50353L6.50351 6.4248ZM6.5032 6.12799C7.20552 6.12614 7.89896 6.16535 8.4395 6.2627C8.86582 6.34584 9.28743 6.47564 9.44181 6.59116L9.52301 6.72043C9.38496 6.56669 8.86529 6.421 8.40653 6.3394C7.87014 6.24672 7.2055 6.21003 6.50318 6.20417C5.76612 6.20624 5.08496 6.25147 4.5564 6.34788C4.05214 6.44402 3.72674 6.55784 3.58905 6.64672L3.66046 6.53874C3.85047 6.43853 4.15743 6.3465 4.54401 6.27124C5.07648 6.17412 5.76183 6.13006 6.50322 6.12799H6.5032Z"/>
<path fill-rule="evenodd" clip-rule="evenodd" d="M8.22018 9.94476C7.58404 9.82579 6.94674 9.80851 6.50161 9.81376C4.35738 9.83893 3.66471 10.2548 3.58018 10.3808L3.41992 10.1191C3.96583 9.72265 5.13346 9.50034 6.51322 9.52307C7.22967 9.53483 7.84794 9.58249 8.36804 9.68341L8.22013 9.94483" fill="#FFFF00"/>
<path fill-rule="evenodd" clip-rule="evenodd" d="M6.48929 9.77729C7.08577 9.78621 7.67124 9.81089 8.23636 9.91647L8.19544 9.98885C7.67058 9.89178 7.11105 9.85463 6.49132 9.85766C5.69996 9.85146 4.89956 9.92551 4.20273 10.1259C3.98286 10.1872 3.61886 10.3288 3.58175 10.4458L3.54103 10.3786C3.55277 10.3094 3.77276 10.1658 4.18402 10.0501C4.98218 9.82107 5.72877 9.78247 6.48929 9.77723V9.7773L6.48929 9.77729ZM6.51636 9.47657C7.13434 9.48814 7.77255 9.51677 8.39287 9.63987L8.35025 9.71521C7.79009 9.6038 7.2549 9.56665 6.52 9.55533C5.72614 9.55678 4.88405 9.61349 4.11839 9.8365C3.8712 9.90863 3.44457 10.0646 3.43036 10.1881L3.38965 10.1158C3.39892 10.0037 3.76823 9.85737 4.10052 9.76053C4.87207 9.5358 5.71636 9.47801 6.51638 9.47656L6.51636 9.47657Z"/>
<path fill-rule="evenodd" clip-rule="evenodd" d="M9.56195 10.1595L9.30429 10.56L8.56398 9.90133L6.64346 8.60696L4.47852 7.41754L3.35449 7.03238L3.59403 6.5874L3.67539 6.54297L4.37376 6.71788L6.67838 7.9073L8.00529 8.74689L9.12268 9.5515L9.57662 10.0762L9.56195 10.1595Z" fill="#FFFF00"/>
<path fill-rule="evenodd" clip-rule="evenodd" d="M3.31429 7.04277C3.51144 6.90881 4.96031 7.55544 6.47633 8.47126C7.98833 9.3897 9.43311 10.4275 9.30269 10.6218L9.25979 10.6894L9.24011 10.7049C9.24433 10.7019 9.26607 10.6753 9.23799 10.6033C9.17357 10.3909 8.14871 9.57157 6.44822 8.54294C4.79047 7.5526 3.40889 6.95573 3.27075 7.12634L3.31429 7.04276H3.31426L3.31429 7.04277ZM9.61496 10.1537C9.73962 9.907 8.39575 8.89277 6.72959 7.90527C5.02512 6.93744 3.79666 6.36774 3.57227 6.53762L3.52241 6.62854C3.52198 6.63354 3.52423 6.62234 3.53476 6.61419C3.57556 6.57853 3.64319 6.58093 3.67371 6.58038C4.06008 6.58618 5.16357 7.09494 6.71182 7.98417C7.39021 8.38 9.5776 9.78548 9.56926 10.1807C9.56984 10.2147 9.57206 10.2217 9.55931 10.2385L9.61496 10.1537V10.1536L9.61496 10.1537Z"/>
<path d="M5.00035 9.28798C5.00035 9.75757 5.16869 10.1823 5.4414 10.4927C5.71464 10.8037 6.08596 11 6.4977 11C6.91156 11 7.28715 10.808 7.55923 10.4982C7.83131 10.1883 7.99992 9.76071 8 9.28948L7.99995 6.00407L5 6L5.00035 9.28798Z" fill="white"/>
<path d="M5 9.29933V9.30068C5 9.76676 5.16964 10.1912 5.44179 10.4993C5.71447 10.8081 6.09003 11 6.50087 11C6.91385 11 7.28864 10.8094 7.56017 10.5019C7.83164 10.1944 7.9999 9.7699 7.99995 9.30221L7.9999 6.00055L5.00179 6L5 9.29933ZM7.39713 6.68909L7.39723 9.15383L7.39614 9.30877C7.39614 9.34954 7.39401 9.39602 7.38982 9.4356C7.36546 9.66717 7.27184 9.86902 7.13318 10.026C6.97085 10.2099 6.7468 10.3239 6.49987 10.3239C6.25423 10.3239 6.03533 10.2059 5.8723 10.0213C5.70508 9.83194 5.60815 9.57231 5.60815 9.30385L5.60781 6.68536L7.39713 6.68909Z" fill="#FF0000"/>
</svg>
