<svg width="16" height="16" viewBox="0 0 16 16" xmlns="http://www.w3.org/2000/svg">
<path d="M16 6L0 6L0 2.29999C0 2.09999 0.1 2 0.3 2L15.7 2C15.9 2 16 2.09999 16 2.29999V6Z" fill="#F5F5F5"/>
<path d="M15.7 14L0.3 14C0.1 14 0 13.9 0 13.7L0 10L16 10V13.7C16 13.9 15.9 14 15.7 14Z" fill="#FF4B55"/>
<path d="M16 6L0 6L0 10L16 10V6Z" fill="#41479B"/>
<path d="M3.9 11C3 10 2 9 2 8L2 5H6L6 8C6 9 4.1 10.9 4 11H3.9Z" fill="#1641D5"/>
<path d="M5 7.50001L4.36364 7.59374H4.18182V7.19922L4.36364 7.21875L4.81818 7.3125L4.72727 7.03126L4.81818 6.74999L4.36364 6.84375H4.18182V6.65624L4.5 6H4H3.5L3.81818 6.65624V6.84375H3.72727L3.27273 6.74999L3.36364 7.03126L3.27273 7.3125L3.72727 7.21875H3.81818V7.59374H3.63636L3 7.50001L3.09091 7.78125L3 8.06249L3.63636 7.96877H3.81818L3.72727 9.20312H4.26563L4.18182 7.96877H4.36364L5 8.06249L4.90909 7.78125L5 7.50001Z" fill="#F5F5F5"/>
<path d="M4 9C3.5 9 3 9.5 3 10C3 10 3.14286 9.4 3 9.4C2.42857 9.4 2 9.64001 2 9.96001C2.85714 10.6 3.85714 11 3.85714 11H4.14286C4.14286 11 5.14286 10.6 6 9.96001C6 9.64001 5.57143 9.4 5 9.4C5 9.4 5.14286 10 5 10C5 9.5 4.42857 9 4 9Z" fill="#41479B"/>
<path d="M6 5L6 7.80017C6 9 4 10 4 10C4 10 2 9 2 7.80017L2 5H6ZM7 4L1 4L1 8C1 10.1 4 11 4 11.2002C4 11 7 10.1 7 8L7 4Z" fill="#F5F5F5"/>
</svg>
