<svg width="16" height="16" viewBox="0 0 16 16" xmlns="http://www.w3.org/2000/svg">
<path d="M16 10L0 10L0 13.7C0 13.9 0.1 14 0.3 14L15.7 14C15.9 14 16 13.9 16 13.7V10Z" fill="#F5F5F5"/>
<path d="M15.7 2L0.3 2C0.1 2 0 2.09999 0 2.29999L0 6L16 6V2.29999C16 2.09999 15.9 2 15.7 2Z" fill="#FF4B55"/>
<path d="M16 6L0 6L0 10L16 10V6Z" fill="#41479B"/>
<path d="M2.99962 5.99512V9.33476C2.99962 9.33476 2.94587 10.0817 3.59466 10.7268C4.16705 11.2959 4.84055 11.3288 4.99123 11.3287C5.14468 11.3288 5.83001 11.2959 6.40241 10.7268C7.0512 10.0817 6.99745 9.33476 6.99745 9.33476V5.99512H2.99962Z" fill="#DA444D"/>
<path d="M4.17312 6.42436L4.45438 6.53503L4.17312 6.10742L3.99543 6.15932C3.92268 6.23219 3.92904 6.35215 4.00909 6.41689L4.11785 6.50485L4.17312 6.42436Z" fill="#FAB446"/>
<path d="M3.95711 6.50485L4.02751 6.57199C4.15728 6.69574 4.34464 6.73765 4.51464 6.68095L4.45438 6.57637L4.23839 6.59735L3.95711 6.50485Z" fill="#FAB446"/>
<path d="M3.88176 9.55364L3.68587 9.87999L3.37921 9.84543L3.27002 9.89574L3.37921 9.97113L3.61319 9.98415L3.37921 10.0316V10.2393L3.4676 10.156L3.68587 10.0316L3.5092 10.255L3.57036 10.4592L3.68587 10.3175L3.77698 9.97113L4.00576 9.91905L4.15804 9.84543L4.03695 9.76542L3.79257 9.86958L3.99228 9.55364H3.88176Z" fill="#FAB446"/>
<path d="M3.76449 10.5338L3.77913 10.5491C3.80663 10.4984 3.87561 10.4894 3.91515 10.5314L3.93182 10.5491V10.652L3.89659 10.6844H3.83493L3.89659 10.7549L4.0199 10.8608L4.1432 10.7549L4.20485 10.6844H4.1432L4.10796 10.652V10.5491L4.12463 10.5314C4.16417 10.4894 4.23315 10.4984 4.26065 10.5491L4.27529 10.5338C4.33269 10.4737 4.3259 10.3771 4.26065 10.3256H4.1432C4.15824 10.2559 4.14511 10.1831 4.10669 10.1231L4.01988 9.98745L3.93309 10.1231C3.89467 10.1831 3.88154 10.2559 3.89659 10.3256H3.77913C3.71388 10.3771 3.70709 10.4737 3.76449 10.5338Z" fill="#FAB446"/>
<path d="M6.21821 10.5491L6.23284 10.5338C6.29024 10.4737 6.28345 10.3771 6.21821 10.3256H6.10075C6.11579 10.2559 6.10267 10.1831 6.06425 10.1231L5.97745 9.98745L5.89064 10.1231C5.85222 10.1831 5.8391 10.2559 5.85414 10.3256H5.73668C5.67144 10.3771 5.66465 10.4737 5.72205 10.5338L5.73668 10.5491C5.76418 10.4984 5.83317 10.4894 5.87271 10.5314L5.88937 10.5491V10.652L5.85414 10.6844H5.79248L5.85414 10.7549L5.97744 10.8608L6.10075 10.7549L6.16241 10.6844H6.10075L6.06552 10.652V10.5491L6.08218 10.5314C6.12172 10.4894 6.19071 10.4984 6.21821 10.5491Z" fill="#FAB446"/>
<path d="M5.82422 6.42436L5.54296 6.53503L5.82422 6.10742L6.0019 6.15932C6.07466 6.23219 6.0683 6.35215 5.98825 6.41689L5.87948 6.50485L5.82422 6.42436Z" fill="#FAB446"/>
<path d="M6.04023 6.50485L5.96983 6.57199C5.84006 6.69574 5.65269 6.73765 5.48269 6.68095L5.54296 6.57637L5.75895 6.59735L6.04023 6.50485Z" fill="#FAB446"/>
<path d="M6.11557 9.55364L6.31147 9.87999L6.61813 9.84543L6.72732 9.89574L6.61813 9.97113L6.38415 9.98415L6.61813 10.0316V10.2393L6.52973 10.156L6.31147 10.0316L6.48814 10.255L6.42697 10.4592L6.31147 10.3175L6.22036 9.97113L5.99158 9.91905L5.8393 9.84543L5.96038 9.76542L6.20476 9.86958L6.00505 9.55364H6.11557Z" fill="#FAB446"/>
<path d="M3.70263 6.69856L4.09232 7.24265C4.14528 7.3166 4.25501 7.31684 4.30829 7.24312L4.58213 6.86428L4.17217 6.09863H4.44975C4.51118 6.09863 4.57142 6.11567 4.62379 6.14785L4.85514 6.29005V6.34474H4.64584L4.73393 6.39295C4.81153 6.43543 4.86906 6.50709 4.89381 6.59212L5.00507 6.97424L5.10548 6.59734C5.12896 6.50919 5.18749 6.43454 5.26742 6.39079L5.35156 6.34474H5.14225V6.29005L5.3736 6.14785C5.42597 6.11567 5.48621 6.09863 5.54765 6.09863H5.82522L5.41526 6.86428L5.6891 7.24312C5.74238 7.31684 5.85211 7.3166 5.90507 7.24265L6.29477 6.69856C6.35933 6.60842 6.37488 6.49202 6.33626 6.38805L6.25245 6.16243L6.31177 6.18272C6.50938 6.25031 6.66387 6.40687 6.72902 6.60558L6.80348 6.83268C6.88353 7.07683 6.91585 7.33415 6.89867 7.59056L6.8258 8.67816V9.56085C6.8258 9.67378 6.69439 9.73556 6.60765 9.66341L6.3098 9.41567C6.27209 9.3843 6.24225 9.34452 6.22266 9.29952L6.02216 8.83892C5.98439 8.75217 5.88093 8.71592 5.79741 8.76019L6.12508 9.54408L5.71557 9.77195L5.59335 9.54937C5.53421 9.44168 5.37271 9.46858 5.35156 9.58965L5.71325 10.743C5.7371 10.819 5.68942 10.8989 5.61125 10.9139L4.9937 11.0306L4.38615 10.9139C4.30797 10.8989 4.26029 10.819 4.28414 10.743L4.64584 9.58965C4.62468 9.46858 4.46318 9.44168 4.40404 9.54937L4.28182 9.77195L3.87231 9.54408L4.19998 8.76019C4.11646 8.71592 4.013 8.75217 3.97523 8.83892L3.77474 9.29952C3.75514 9.34452 3.7253 9.3843 3.68759 9.41567L3.38974 9.66341C3.303 9.73556 3.17159 9.67378 3.17159 9.56085V8.67816L3.09872 7.59056C3.08154 7.33415 3.11386 7.07683 3.19391 6.83268L3.26837 6.60558C3.33352 6.40687 3.48801 6.25031 3.68562 6.18272L3.74494 6.16243L3.66113 6.38805C3.62251 6.49202 3.63806 6.60842 3.70263 6.69856Z" fill="white"/>
<path d="M4.18354 7.41113L4.18355 8.64356C4.18355 8.64356 4.16167 9.00353 4.42573 9.3144C4.6898 9.62528 4.99619 9.60414 4.99619 9.60414H5.00081C5.00081 9.60414 5.30721 9.62528 5.57127 9.3144C5.83533 9.00353 5.81345 8.64356 5.81345 8.64356L5.81346 7.41113H4.18354Z" fill="#DA444D"/>
<path d="M4.81898 8.53527V9.60444H5.178V8.53527H5.81389V8.20082H5.178V7.41113H4.81898V8.20082H4.17627V8.53527H4.81898Z" fill="white"/>
<path d="M4.53374 7.51883C4.51411 7.50976 4.49131 7.5108 4.47259 7.52162L4.34262 7.59673C4.32295 7.6081 4.31043 7.62872 4.3094 7.65144C4.30836 7.67416 4.31897 7.69584 4.33752 7.70894L4.43907 7.78069L4.51579 7.67174L4.49931 7.6601L4.50926 7.65435L4.5846 7.68918L4.54216 7.80429L4.53374 7.82367L4.54215 7.84629L4.58231 7.94305L4.50926 7.97682L4.49931 7.97107L4.51579 7.95943L4.43907 7.85048L4.33752 7.92223C4.31897 7.93533 4.30836 7.95701 4.3094 7.97973C4.31043 8.00245 4.32295 8.02307 4.34262 8.03444L4.47259 8.10955C4.49131 8.12037 4.51411 8.12141 4.53374 8.11234L4.69623 8.03723C4.7287 8.02222 4.74353 7.98419 4.7298 7.95111L4.67691 7.82367L4.73078 7.67756C4.74281 7.64493 4.72777 7.60852 4.69623 7.59394L4.53374 7.51883Z" fill="white"/>
<path d="M5.52468 7.52162C5.50596 7.5108 5.48316 7.50976 5.46353 7.51883L5.30103 7.59394C5.2695 7.60852 5.25446 7.64493 5.26649 7.67756L5.32035 7.82367L5.26746 7.95111C5.25374 7.98419 5.26856 8.02222 5.30103 8.03723L5.46353 8.11234C5.48316 8.12141 5.50596 8.12037 5.52468 8.10955L5.65465 8.03444C5.67431 8.02307 5.68684 8.00245 5.68787 7.97973C5.6889 7.95701 5.6783 7.93533 5.65974 7.92223L5.55819 7.85048L5.48147 7.95943L5.49795 7.97107L5.48801 7.97682L5.41496 7.94305L5.45512 7.84629L5.46353 7.82367L5.4551 7.80429L5.41266 7.68918L5.48801 7.65435L5.49795 7.6601L5.48147 7.67174L5.55819 7.78069L5.65974 7.70894C5.6783 7.69584 5.6889 7.67416 5.68787 7.65144C5.68684 7.62872 5.67431 7.6081 5.65465 7.59673L5.52468 7.52162Z" fill="white"/>
<path d="M5.52468 8.6257C5.50596 8.61488 5.48316 8.61384 5.46353 8.62291L5.30103 8.69802C5.2695 8.7126 5.25446 8.74901 5.26649 8.78164L5.32035 8.92775L5.26746 9.05519C5.25374 9.08827 5.26856 9.1263 5.30103 9.14131L5.46353 9.21642C5.48316 9.22549 5.50596 9.22445 5.52468 9.21363L5.65465 9.13852C5.67431 9.12715 5.68684 9.10653 5.68787 9.08381C5.6889 9.06109 5.6783 9.03941 5.65974 9.02631L5.55819 8.95456L5.48147 9.06351L5.49795 9.07515L5.48801 9.0809L5.41496 9.04713L5.45512 8.95037L5.46353 8.92775L5.4551 8.90837L5.41266 8.79326L5.48801 8.75843L5.49795 8.76417L5.48147 8.77582L5.55819 8.88477L5.65974 8.81302C5.6783 8.79992 5.6889 8.77824 5.68787 8.75552C5.68684 8.7328 5.67431 8.71218 5.65465 8.70081L5.52468 8.6257Z" fill="white"/>
<path d="M4.47259 8.6257C4.49131 8.61488 4.51411 8.61384 4.53374 8.62291L4.69623 8.69802C4.72777 8.7126 4.74281 8.74901 4.73078 8.78164L4.67691 8.92775L4.7298 9.05519C4.74353 9.08827 4.7287 9.1263 4.69623 9.14131L4.53374 9.21642C4.51411 9.22549 4.49131 9.22445 4.47259 9.21363L4.34262 9.13852C4.32295 9.12715 4.31043 9.10653 4.3094 9.08381C4.30836 9.06109 4.31897 9.03941 4.33752 9.02631L4.43907 8.95456L4.51579 9.06351L4.49931 9.07515L4.50926 9.0809L4.58231 9.04713L4.54215 8.95037L4.53374 8.92775L4.54216 8.90837L4.5846 8.79326L4.50926 8.75843L4.49931 8.76417L4.51579 8.77582L4.43907 8.88477L4.33752 8.81302C4.31897 8.79992 4.30836 8.77824 4.3094 8.75552C4.31043 8.7328 4.32295 8.71218 4.34262 8.70081L4.47259 8.6257Z" fill="white"/>
<ellipse cx="4.4064" cy="5.70131" rx="0.127838" ry="0.107556" fill="#DA444D"/>
<path d="M4.12573 5.6704C4.1504 5.6704 4.1704 5.6504 4.1704 5.62573C4.1704 5.60106 4.1504 5.58105 4.12573 5.58105C4.10106 5.58105 4.08105 5.60106 4.08105 5.62573C4.08105 5.6504 4.10106 5.6704 4.12573 5.6704Z" fill="white"/>
<path d="M4.12573 5.8539C4.1504 5.8539 4.1704 5.8339 4.1704 5.80923C4.1704 5.78455 4.1504 5.76455 4.12573 5.76455C4.10106 5.76455 4.08105 5.78455 4.08105 5.80923C4.08105 5.8339 4.10106 5.8539 4.12573 5.8539Z" fill="white"/>
<path d="M4.71069 5.62548C4.73536 5.62548 4.75536 5.60548 4.75536 5.58081C4.75536 5.55613 4.73536 5.53613 4.71069 5.53613C4.68602 5.53613 4.66602 5.55613 4.66602 5.58081C4.66602 5.60548 4.68602 5.62548 4.71069 5.62548Z" fill="white"/>
<path d="M4.71069 5.80898C4.73536 5.80898 4.75536 5.78898 4.75536 5.7643C4.75536 5.73963 4.73536 5.71963 4.71069 5.71963C4.68602 5.71963 4.66602 5.73963 4.66602 5.7643C4.66602 5.78898 4.68602 5.80898 4.71069 5.80898Z" fill="white"/>
<ellipse cx="4.99649" cy="5.67006" rx="0.127838" ry="0.107556" fill="#175294"/>
<path d="M3.78052 5.50488L3.85285 5.96648H6.13215L6.20448 5.50488H3.78052Z" fill="#FAB446"/>
<ellipse cx="0.127838" cy="0.107556" rx="0.127838" ry="0.107556" transform="matrix(-1 0 0 1 5.70654 5.59375)" fill="#DA444D"/>
<ellipse cx="4.4064" cy="5.70131" rx="0.127838" ry="0.107556" fill="#DA444D"/>
<path d="M4.8872 4.94163V4.06833C4.86267 4.06965 4.83733 4.07088 4.81159 4.07212C4.78458 4.07343 4.75713 4.07476 4.72972 4.07624C4.6325 4.08148 4.53123 4.08878 4.4342 4.10355C4.23259 4.13422 4.08134 4.19288 4.0114 4.29633C3.98827 4.33054 3.98022 4.38116 3.99472 4.45355C4.00912 4.52542 4.04338 4.60548 4.08606 4.68329C4.12826 4.76023 4.17608 4.83029 4.21371 4.88145C4.23243 4.90691 4.24842 4.92739 4.25961 4.94138C4.2652 4.94837 4.26958 4.95372 4.27249 4.95724L4.27572 4.96112L4.27644 4.96198L4.12464 5.09188L4.12412 5.09128L4.12293 5.08987L4.11874 5.08484C4.11518 5.08053 4.1101 5.07432 4.10378 5.06642C4.09115 5.05063 4.0735 5.02799 4.05296 5.00006C4.01206 4.94446 3.95886 4.86672 3.91106 4.77958C3.86374 4.6933 3.81901 4.59298 3.79896 4.49289C3.79024 4.44933 3.78572 4.40322 3.78884 4.35707C3.76779 4.3632 3.74537 4.37018 3.72243 4.378C3.66985 4.39592 3.61696 4.41745 3.57259 4.44205C3.52647 4.46762 3.49859 4.49161 3.48585 4.51046C3.46285 4.54447 3.45503 4.59444 3.4699 4.66594C3.48468 4.73704 3.51947 4.81622 3.56279 4.89321C3.60562 4.96932 3.65408 5.03856 3.6922 5.08912C3.71116 5.11427 3.72735 5.1345 3.73868 5.14832C3.74434 5.15522 3.74877 5.1605 3.75172 5.16398L3.75498 5.1678L3.75572 5.16865L3.60552 5.30042L3.605 5.29982L3.6038 5.29843L3.59955 5.29346C3.59593 5.28919 3.59079 5.28306 3.58439 5.27525C3.57159 5.25964 3.55369 5.23726 3.53287 5.20964C3.49141 5.15466 3.43743 5.07774 3.38885 4.9914C3.34076 4.90593 3.29515 4.80635 3.27443 4.70672C3.25379 4.60748 3.25536 4.49472 3.32052 4.39833C3.35922 4.34108 3.41919 4.29852 3.4759 4.26708C3.53437 4.23467 3.5993 4.20872 3.65811 4.18867C3.71731 4.1685 3.77273 4.15349 3.8132 4.14354C3.83351 4.13854 3.85024 4.13477 3.86203 4.13223L3.87588 4.12932L3.87973 4.12855L3.88134 4.12823L3.88295 4.13664C4.01046 3.99231 4.21743 3.93425 4.40422 3.90583C4.51104 3.88958 4.62006 3.88188 4.71898 3.87654C4.74963 3.87489 4.77894 3.87347 4.80689 3.87212C4.87124 3.86901 4.92836 3.86625 4.97801 3.86174C4.98287 3.8613 4.98772 3.86121 4.99252 3.86148C4.99733 3.86121 5.00217 3.8613 5.00703 3.86174C5.05668 3.86625 5.11381 3.86901 5.17816 3.87212C5.2061 3.87347 5.23542 3.87489 5.26607 3.87654C5.36498 3.88188 5.47401 3.88958 5.58083 3.90583C5.76761 3.93425 5.97458 3.99231 6.10209 4.13664L6.10371 4.12823L6.10531 4.12855L6.10917 4.12932L6.12302 4.13223C6.1348 4.13477 6.15153 4.13854 6.17184 4.14354C6.21232 4.15349 6.26773 4.1685 6.32693 4.18867C6.38574 4.20872 6.45068 4.23467 6.50914 4.26708C6.56585 4.29852 6.62582 4.34108 6.66453 4.39833C6.72969 4.49472 6.73125 4.60748 6.71061 4.70672C6.6899 4.80635 6.64429 4.90593 6.59619 4.9914C6.54761 5.07774 6.49363 5.15466 6.45217 5.20964C6.43135 5.23726 6.41346 5.25964 6.40066 5.27525C6.39425 5.28306 6.38911 5.28919 6.38549 5.29346L6.38125 5.29843L6.38004 5.29982L6.37952 5.30042L6.22933 5.16865L6.23006 5.1678L6.23333 5.16398C6.23627 5.1605 6.24071 5.15522 6.24637 5.14832C6.2577 5.1345 6.27388 5.11427 6.29285 5.08912C6.33097 5.03856 6.37942 4.96932 6.42225 4.89321C6.46557 4.81622 6.50036 4.73704 6.51515 4.66594C6.53001 4.59444 6.52219 4.54447 6.4992 4.51046C6.48645 4.49161 6.45858 4.46762 6.41245 4.44205C6.36808 4.41745 6.31519 4.39592 6.26261 4.378C6.23968 4.37018 6.21725 4.3632 6.19621 4.35707C6.19933 4.40322 6.19481 4.44933 6.18608 4.49289C6.16603 4.59298 6.12131 4.6933 6.07398 4.77958C6.02618 4.86672 5.97298 4.94446 5.93209 5.00006C5.91155 5.02799 5.89389 5.05063 5.88126 5.06642C5.87494 5.07432 5.86987 5.08053 5.8663 5.08484L5.86211 5.08987L5.86092 5.09128L5.8604 5.09188L5.7086 4.96198L5.70933 4.96112L5.71256 4.95724C5.71547 4.95372 5.71985 4.94837 5.72544 4.94138C5.73663 4.92739 5.75261 4.90691 5.77133 4.88145C5.80896 4.83029 5.85678 4.76023 5.89899 4.68329C5.94167 4.60548 5.97592 4.52542 5.99032 4.45355C6.00482 4.38116 5.99677 4.33054 5.97364 4.29633C5.90371 4.19288 5.75245 4.13422 5.55084 4.10355C5.45381 4.08878 5.35255 4.08148 5.25532 4.07624C5.22791 4.07476 5.20046 4.07343 5.17345 4.07212C5.14772 4.07088 5.12237 4.06965 5.09784 4.06833V4.94163H4.8872Z" fill="#FEFEFE"/>
<path d="M4.98716 5.77761C5.05765 5.77761 5.11479 5.72946 5.11479 5.67006C5.11479 5.61065 5.05765 5.5625 4.98716 5.5625C4.91667 5.5625 4.85952 5.61065 4.85952 5.67006C4.85952 5.72946 4.91667 5.77761 4.98716 5.77761Z" fill="#175294"/>
<path d="M3.99745 5.72214C3.99745 5.78154 3.94031 5.82969 3.86982 5.82969C3.79933 5.82969 3.74219 5.78154 3.74219 5.72214C3.74219 5.66273 3.79933 5.61458 3.86982 5.61458C3.94031 5.61458 3.99745 5.66273 3.99745 5.72214Z" fill="#175294"/>
<path d="M5.98774 5.72214C5.98774 5.78154 6.04489 5.82969 6.11538 5.82969C6.18587 5.82969 6.24301 5.78154 6.24301 5.72214C6.24301 5.66273 6.18587 5.61458 6.11538 5.61458C6.04489 5.61458 5.98774 5.66273 5.98774 5.72214Z" fill="#175294"/>
<path fill-rule="evenodd" clip-rule="evenodd" d="M6.36573 5.36587C6.37172 5.36715 6.37791 5.36761 6.38414 5.36719C6.40178 5.366 6.41822 5.35782 6.42984 5.34446L6.4305 5.3437L6.43195 5.34202L6.43635 5.33687C6.44019 5.33235 6.44557 5.32593 6.45222 5.31782C6.46551 5.30161 6.48398 5.27851 6.50542 5.25007C6.54799 5.19361 6.60381 5.11413 6.65431 5.02438C6.70399 4.93608 6.75321 4.82971 6.7759 4.72056C6.79844 4.61217 6.79902 4.47845 6.71977 4.36121C6.67242 4.29118 6.60176 4.24242 6.54151 4.20901C6.47834 4.17399 6.4094 4.14658 6.34851 4.12582C6.28697 4.10485 6.2296 4.08932 6.18785 4.07905C6.16685 4.07389 6.14914 4.0699 6.13681 4.06724L6.12573 4.06492C5.98118 3.92252 5.76881 3.86724 5.59096 3.84018C5.48087 3.82343 5.36926 3.8156 5.26978 3.81023C5.23895 3.80857 5.2094 3.80714 5.1815 3.80579C5.11673 3.80266 5.06114 3.79996 5.01317 3.7956C5.00631 3.79498 4.99946 3.79479 4.99265 3.79501C4.98585 3.79479 4.97899 3.79498 4.97213 3.7956C4.92417 3.79996 4.86856 3.80266 4.80379 3.80579C4.77589 3.80714 4.74636 3.80857 4.71553 3.81023C4.61604 3.8156 4.50443 3.82343 4.39435 3.84018C4.2165 3.86724 4.00413 3.92252 3.85958 4.06492L3.8485 4.06724C3.83617 4.0699 3.81846 4.07389 3.79746 4.07905C3.75571 4.08932 3.69834 4.10485 3.6368 4.12582C3.57591 4.14658 3.50696 4.17399 3.4438 4.20901C3.38354 4.24242 3.31288 4.29118 3.26554 4.36121C3.18629 4.47845 3.18686 4.61217 3.2094 4.72056C3.2321 4.82971 3.28131 4.93608 3.331 5.02438C3.3815 5.11413 3.43732 5.19361 3.47989 5.25007C3.50133 5.27851 3.51979 5.30161 3.53308 5.31782C3.53974 5.32593 3.54512 5.33235 3.54896 5.33687L3.55335 5.34202L3.55481 5.3437L3.55547 5.34446C3.56709 5.35782 3.58353 5.366 3.60117 5.36719C3.60739 5.36761 3.61358 5.36715 3.61957 5.36587L3.63042 5.37445C3.711 5.43814 3.81099 5.47215 3.91363 5.47079L4.99265 5.45644L6.07166 5.47079C6.1743 5.47215 6.27429 5.43814 6.35487 5.37445L6.36573 5.36587ZM4.98745 5.01458C4.98703 5.01731 4.98704 5.02025 4.98743 5.02337C4.98507 5.04089 4.96997 5.06407 4.94672 5.08737C4.96572 5.09204 4.98293 5.10396 4.99265 5.12221C5.0009 5.10671 5.01457 5.09577 5.03015 5.08997C5.00538 5.0658 4.98973 5.04154 4.98743 5.02337C4.98785 5.02025 4.98787 5.01731 4.98745 5.01458ZM5.16453 4.86145C5.18801 4.85648 5.20612 4.85896 5.21379 4.87011C5.21481 4.8716 5.2796 5.01241 5.2796 5.01458C5.2796 5.01675 5.21481 5.15755 5.21379 5.15905C5.20357 5.17391 5.17479 5.17336 5.13952 5.16032L5.14132 5.1622L5.14389 5.16465L5.16959 5.18802C5.22574 5.23908 5.3144 5.22653 5.35423 5.16188L5.40541 5.07879C5.44481 5.01484 5.54204 5.03223 5.5569 5.10589C5.56321 5.13714 5.58464 5.15853 5.61025 5.16756C5.59377 5.12576 5.57207 5.07025 5.57207 5.06889C5.57207 5.06673 5.62762 4.92592 5.6285 4.92443C5.6341 4.91491 5.64623 4.91171 5.66217 4.91407L5.67363 4.89996C5.6788 4.8935 5.68506 4.88555 5.6922 4.87629C5.68741 4.85171 5.68935 4.83267 5.69919 4.82475C5.69919 4.82475 5.71907 4.81693 5.74236 4.80813C5.77376 4.76347 5.80904 4.70933 5.84079 4.65144C5.88192 4.57646 5.91269 4.50315 5.9252 4.44069C5.93785 4.37755 5.9279 4.34762 5.91866 4.33396C5.86589 4.2559 5.74113 4.20016 5.54098 4.16971C5.44722 4.15544 5.34854 4.14827 5.25187 4.14306C5.22468 4.14159 5.19742 4.14027 5.17038 4.13896L5.16453 4.13868V4.86145ZM5.99305 4.91332C5.97763 4.91327 5.95703 4.91997 5.93473 4.93242C5.9573 4.8828 5.96307 4.83806 5.94652 4.82475C5.94652 4.82475 5.87223 4.79628 5.83895 4.78404C5.85917 4.75277 5.87974 4.71888 5.89912 4.68354C5.9418 4.60574 5.97606 4.52567 5.99045 4.4538C6.00495 4.38142 5.9969 4.3308 5.97377 4.29658C5.90384 4.19314 5.75259 4.13448 5.55098 4.1038C5.45395 4.08904 5.35268 4.08174 5.25546 4.07649C5.22805 4.07501 5.2006 4.07368 5.17359 4.07238L5.15355 4.07141V3.96158C5.15355 3.92865 5.14382 3.89679 5.12605 3.8698L5.17829 3.87237C5.20624 3.87372 5.23555 3.87514 5.2662 3.8768C5.36512 3.88214 5.47414 3.88983 5.58096 3.90609C5.74468 3.931 5.9239 3.97868 6.05154 4.08726C6.06592 4.09949 6.07964 4.1125 6.09261 4.12633C6.09586 4.12979 6.09906 4.1333 6.10221 4.13687L6.10384 4.12849L6.10545 4.1288L6.1093 4.12958L6.12315 4.13249C6.13432 4.1349 6.14993 4.13841 6.16883 4.14302L6.17198 4.14379C6.21245 4.15374 6.26787 4.16875 6.32707 4.18893C6.38588 4.20897 6.45081 4.23492 6.50928 4.26734C6.56598 4.29878 6.62596 4.34134 6.66466 4.39859C6.72982 4.49498 6.73138 4.60773 6.71075 4.70697C6.69003 4.80661 6.64442 4.90619 6.59633 4.99165C6.55716 5.06126 6.51449 5.12474 6.4777 5.17554C6.46516 5.10695 6.38504 5.05832 6.31372 5.10151L6.27785 5.12323C6.27259 5.12641 6.26703 5.12873 6.26134 5.13021C6.27048 5.11873 6.28119 5.105 6.29298 5.08937C6.3311 5.03882 6.37956 4.96958 6.42239 4.89346C6.46571 4.81648 6.50049 4.7373 6.51528 4.66619C6.53015 4.59469 6.52232 4.54473 6.49933 4.51071C6.48659 4.49186 6.45871 4.46788 6.41258 4.44231C6.36852 4.41787 6.31604 4.39647 6.26381 4.37862L6.26275 4.37825C6.23981 4.37043 6.21738 4.36346 6.19634 4.35732C6.19791 4.38056 6.19755 4.40378 6.19568 4.42667C6.19384 4.44925 6.19055 4.47151 6.18622 4.49314C6.16617 4.59323 6.12144 4.69356 6.07411 4.77984C6.04775 4.82791 6.01973 4.87312 5.99305 4.91332ZM6.03175 4.97507C6.04346 5.01621 6.0579 5.06889 6.0579 5.06889C6.0579 5.07037 6.03764 5.14225 6.02566 5.18405C6.03184 5.18007 6.03769 5.17511 6.04303 5.16911L6.10089 5.10417C6.12635 5.07559 6.17115 5.07676 6.19516 5.10615C6.206 5.09294 6.22158 5.07346 6.23987 5.0492C6.27688 5.00012 6.3235 4.93344 6.36441 4.86073C6.40614 4.78656 6.43732 4.71419 6.45012 4.6526C6.46303 4.59054 6.45323 4.56142 6.44422 4.54809C6.44015 4.54206 6.423 4.52427 6.38035 4.50063C6.34574 4.48144 6.30411 4.46372 6.2605 4.44807C6.25834 4.46799 6.25524 4.48745 6.25147 4.50625C6.22954 4.61575 6.18132 4.72282 6.13244 4.81194C6.09944 4.87211 6.06408 4.92775 6.03175 4.97507ZM3.5076 5.17552C3.47081 5.12472 3.42814 5.06125 3.38898 4.99165C3.34089 4.90619 3.29528 4.80661 3.27456 4.70697C3.25392 4.60773 3.25549 4.49498 3.32065 4.39859C3.35935 4.34134 3.41932 4.29878 3.47603 4.26734C3.5345 4.23492 3.59943 4.20897 3.65824 4.18893C3.71744 4.16875 3.77286 4.15374 3.81333 4.14379L3.81648 4.14302C3.83537 4.13841 3.85099 4.1349 3.86216 4.13249L3.87601 4.12958L3.87986 4.1288L3.88147 4.12849L3.8831 4.13687C3.88625 4.1333 3.88945 4.12979 3.8927 4.12633C3.90567 4.1125 3.91939 4.09949 3.93377 4.08726C4.0614 3.97868 4.24063 3.931 4.40435 3.90609C4.51117 3.88983 4.62019 3.88214 4.71911 3.8768C4.74976 3.87514 4.77907 3.87372 4.80702 3.87237L4.85926 3.8698C4.84149 3.89679 4.83176 3.92865 4.83176 3.96158V4.07141L4.81172 4.07238C4.78471 4.07368 4.75726 4.07501 4.72985 4.07649C4.63263 4.08174 4.53136 4.08904 4.43433 4.1038C4.23272 4.13448 4.08147 4.19314 4.01153 4.29658C3.9884 4.3308 3.98035 4.38142 3.99485 4.4538C4.00925 4.52567 4.04351 4.60574 4.08619 4.68354C4.10557 4.71888 4.12614 4.75276 4.14636 4.78403C4.11308 4.79627 4.03877 4.82475 4.03877 4.82475C4.02223 4.83806 4.02799 4.8828 4.05056 4.93242C4.02827 4.91997 4.00767 4.91327 3.99225 4.91332C3.96557 4.87311 3.93756 4.82791 3.91119 4.77984C3.86387 4.69356 3.81914 4.59323 3.79909 4.49314C3.79476 4.47151 3.79146 4.44925 3.78962 4.42667C3.78776 4.40378 3.7874 4.38056 3.78897 4.35732C3.76792 4.36346 3.7455 4.37043 3.72256 4.37825L3.72149 4.37862C3.66926 4.39647 3.61679 4.41787 3.57272 4.44231C3.5266 4.46788 3.49872 4.49186 3.48598 4.51071C3.46298 4.54473 3.45516 4.59469 3.47003 4.66619C3.48481 4.7373 3.5196 4.81648 3.56292 4.89346C3.60575 4.96958 3.65421 5.03882 3.69233 5.08937C3.70412 5.10501 3.71483 5.11874 3.72397 5.13021C3.71827 5.12873 3.71271 5.12641 3.70744 5.12323L3.67158 5.10151C3.60026 5.05833 3.52014 5.10694 3.5076 5.17552ZM3.79013 5.10614C3.7793 5.09292 3.76373 5.07345 3.74544 5.0492C3.70843 5.00012 3.66181 4.93344 3.6209 4.86073C3.57916 4.78656 3.54799 4.71419 3.53518 4.6526C3.52228 4.59054 3.53208 4.56142 3.54109 4.54809C3.54516 4.54206 3.56231 4.52427 3.60495 4.50063C3.63957 4.48144 3.6812 4.46372 3.72481 4.44807C3.72697 4.46799 3.73007 4.48745 3.73384 4.50625C3.75577 4.61575 3.80398 4.72282 3.85286 4.81194C3.88586 4.8721 3.92122 4.92774 3.95355 4.97505C3.94184 5.0162 3.92739 5.06889 3.92739 5.06889C3.92739 5.07037 3.94765 5.14225 3.95963 5.18405C3.95345 5.18006 3.94761 5.17511 3.94227 5.16911L3.88441 5.10417C3.85894 5.07559 3.81415 5.07675 3.79013 5.10614ZM4.2931 4.87628C4.29789 4.85171 4.29594 4.83267 4.2861 4.82475C4.2861 4.82475 4.26623 4.81694 4.24295 4.80814C4.21155 4.76348 4.17627 4.70934 4.14452 4.65144C4.10338 4.57646 4.07262 4.50315 4.06011 4.44069C4.04746 4.37755 4.05741 4.34762 4.06664 4.33396C4.11941 4.2559 4.24418 4.20016 4.44433 4.16971C4.53809 4.15544 4.63677 4.14827 4.73343 4.14306C4.76063 4.14159 4.78789 4.14027 4.81493 4.13896L4.82077 4.13868V4.86423C4.79199 4.85593 4.76929 4.85726 4.76046 4.87011C4.75947 4.87154 4.71285 5.0125 4.71285 5.01458C4.71285 5.01666 4.75947 5.15762 4.76046 5.15905C4.77224 5.17619 4.80873 5.17283 4.8514 5.15344C4.84848 5.1575 4.84514 5.16126 4.84141 5.16465L4.81571 5.18802C4.75955 5.23908 4.6709 5.22653 4.63107 5.16188L4.57988 5.07879C4.54048 5.01484 4.44325 5.03223 4.42839 5.10589C4.42209 5.13714 4.40066 5.15853 4.37504 5.16756C4.39153 5.12576 4.41322 5.07025 4.41322 5.06889C4.41322 5.06673 4.35768 4.92592 4.3568 4.92443C4.35119 4.91491 4.33907 4.91171 4.32313 4.91406L4.31168 4.89996C4.30651 4.8935 4.30024 4.88555 4.2931 4.87628ZM5.08699 4.75576C5.04508 4.74215 4.98711 4.72401 4.98711 4.72401C4.98711 4.72401 4.93847 4.73916 4.89832 4.75216V3.96158C4.89832 3.93349 4.91011 3.90669 4.93082 3.88775C4.94793 3.8721 4.96981 3.863 4.99265 3.86173C5.0155 3.863 5.03738 3.8721 5.05449 3.88775C5.0752 3.90669 5.08699 3.93349 5.08699 3.96158V4.75576Z" fill="#FAB446"/>
<path d="M4.63465 4.9476C4.63465 5.02976 4.60359 5.09637 4.56527 5.09637C4.52695 5.09637 4.49589 5.02976 4.49589 4.9476C4.49589 4.86544 4.52695 4.79883 4.56527 4.79883C4.60359 4.79883 4.63465 4.86544 4.63465 4.9476Z" fill="#FEFEFE"/>
<path d="M3.91793 5.0503C3.93461 5.13075 3.91771 5.20229 3.88019 5.21009C3.84267 5.2179 3.79874 5.159 3.78206 5.07856C3.76539 4.99811 3.78228 4.92657 3.8198 4.91876C3.85732 4.91096 3.90125 4.96985 3.91793 5.0503Z" fill="#FEFEFE"/>
<path d="M5.35057 4.9476C5.35057 5.02976 5.38163 5.09637 5.41995 5.09637C5.45827 5.09637 5.48933 5.02976 5.48933 4.9476C5.48933 4.86544 5.45827 4.79883 5.41995 4.79883C5.38163 4.79883 5.35057 4.86544 5.35057 4.9476Z" fill="#FEFEFE"/>
<path d="M6.06729 5.0503C6.05061 5.13075 6.06751 5.20229 6.10503 5.21009C6.14254 5.2179 6.18648 5.159 6.20316 5.07856C6.21983 4.99811 6.20294 4.92657 6.16542 4.91876C6.1279 4.91096 6.08397 4.96985 6.06729 5.0503Z" fill="#FEFEFE"/>
<path d="M5.27457 5.62514C5.24994 5.62514 5.22997 5.60514 5.22997 5.58046C5.22997 5.55579 5.24994 5.53579 5.27457 5.53579C5.2992 5.53579 5.31917 5.55579 5.31917 5.58046C5.31917 5.60514 5.2992 5.62514 5.27457 5.62514Z" fill="#FEFEFE"/>
<path d="M5.27457 5.80864C5.24994 5.80864 5.22997 5.78864 5.22997 5.76396C5.22997 5.73929 5.24994 5.71929 5.27457 5.71929C5.2992 5.71929 5.31917 5.73929 5.31917 5.76396C5.31917 5.78864 5.2992 5.80864 5.27457 5.80864Z" fill="#FEFEFE"/>
<path d="M5.85952 5.66981C5.83489 5.66981 5.81492 5.64981 5.81492 5.62514C5.81492 5.60047 5.83489 5.58046 5.85952 5.58046C5.88415 5.58046 5.90412 5.60047 5.90412 5.62514C5.90412 5.64981 5.88415 5.66981 5.85952 5.66981Z" fill="#FEFEFE"/>
<path d="M5.85952 5.85331C5.83489 5.85331 5.81492 5.83331 5.81492 5.80864C5.81492 5.78396 5.83489 5.76396 5.85952 5.76396C5.88415 5.76396 5.90412 5.78396 5.90412 5.80864C5.90412 5.83331 5.88415 5.85331 5.85952 5.85331Z" fill="#FEFEFE"/>
<path d="M4.17023 5.62514C4.17023 5.64981 4.15026 5.66981 4.12563 5.66981C4.101 5.66981 4.08103 5.64981 4.08103 5.62514C4.08103 5.60047 4.101 5.58046 4.12563 5.58046C4.15026 5.58046 4.17023 5.60047 4.17023 5.62514Z" fill="#FEFEFE"/>
<path d="M4.17023 5.80864C4.17023 5.83331 4.15026 5.85331 4.12563 5.85331C4.101 5.85331 4.08103 5.83331 4.08103 5.80864C4.08103 5.78396 4.101 5.76396 4.12563 5.76396C4.15026 5.76396 4.17023 5.78396 4.17023 5.80864Z" fill="#FEFEFE"/>
<path d="M4.71058 5.62514C4.73521 5.62514 4.75518 5.60514 4.75518 5.58046C4.75518 5.55579 4.73521 5.53579 4.71058 5.53579C4.68595 5.53579 4.66598 5.55579 4.66598 5.58046C4.66598 5.60514 4.68595 5.62514 4.71058 5.62514Z" fill="#FEFEFE"/>
<path d="M4.71058 5.80864C4.73521 5.80864 4.75518 5.78864 4.75518 5.76396C4.75518 5.73929 4.73521 5.71929 4.71058 5.71929C4.68595 5.71929 4.66598 5.73929 4.66598 5.76396C4.66598 5.78864 4.68595 5.80864 4.71058 5.80864Z" fill="#FEFEFE"/>
<path d="M4.9871 5.09667C5.03232 5.09667 5.06899 5.05994 5.06899 5.01464C5.06899 4.96934 5.03232 4.93262 4.9871 4.93262C4.94187 4.93262 4.9052 4.96934 4.9052 5.01464C4.9052 5.05994 4.94187 5.09667 4.9871 5.09667Z" fill="#175294"/>
<path d="M4.23271 5.06896C4.23271 5.11426 4.20127 5.15098 4.1625 5.15098C4.12372 5.15098 4.09229 5.11426 4.09229 5.06896C4.09229 5.02366 4.12372 4.98693 4.1625 4.98693C4.20127 4.98693 4.23271 5.02366 4.23271 5.06896Z" fill="#175294"/>
<path d="M5.75253 5.06896C5.75253 5.11426 5.78397 5.15098 5.82274 5.15098C5.86152 5.15098 5.89296 5.11426 5.89296 5.06896C5.89296 5.02366 5.86152 4.98693 5.82274 4.98693C5.78397 4.98693 5.75253 5.02366 5.75253 5.06896Z" fill="#175294"/>
<path d="M5.09329 4.07343C5.16187 4.03588 5.20838 3.96304 5.20838 3.87934C5.20838 3.75721 5.10938 3.6582 4.98725 3.6582C4.86512 3.6582 4.76611 3.75721 4.76611 3.87934C4.76611 3.96307 4.81265 4.03594 4.88128 4.07347C4.88758 4.02052 4.93264 3.97947 4.98729 3.97947C5.04192 3.97947 5.08697 4.0205 5.09329 4.07343Z" fill="#175294"/>
<path d="M5.0222 3.36163C5.04222 3.36866 5.05564 3.38158 5.05564 3.39636C5.05564 3.41113 5.04222 3.42405 5.0222 3.43108C5.02152 3.43302 5.02079 3.4349 5.02 3.43671V3.52603H5.09316C5.09692 3.5239 5.1011 3.52202 5.10561 3.52044C5.11264 3.5004 5.12557 3.48697 5.14035 3.48697C5.15514 3.48697 5.16807 3.50041 5.1751 3.52047C5.19512 3.5275 5.20854 3.54042 5.20854 3.5552C5.20854 3.56997 5.19512 3.58289 5.1751 3.58993C5.16807 3.60998 5.15514 3.62343 5.14035 3.62343C5.12586 3.62343 5.11315 3.61052 5.10603 3.59113H5.02V3.84644H5.21432V3.91153H4.7605V3.84644H4.9549V3.59113H4.86879C4.86167 3.61052 4.84896 3.62343 4.83447 3.62343C4.81968 3.62343 4.80675 3.60998 4.79972 3.58993C4.77969 3.58289 4.76628 3.56997 4.76628 3.5552C4.76628 3.54042 4.77969 3.5275 4.79972 3.52047C4.80675 3.50041 4.81968 3.48697 4.83447 3.48697C4.84925 3.48697 4.86217 3.5004 4.86921 3.52044C4.87372 3.52202 4.87789 3.5239 4.88166 3.52603H4.9549V3.43671C4.95412 3.43491 4.95339 3.43304 4.95271 3.43112C4.93264 3.42409 4.91918 3.41115 4.91918 3.39636C4.91918 3.38156 4.93264 3.36862 4.95271 3.3616C4.95974 3.34156 4.97267 3.32812 4.98745 3.32812C5.00224 3.32812 5.01517 3.34157 5.0222 3.36163Z" fill="#FAB446"/>
</svg>
