<svg width="16" height="16" viewBox="0 0 16 16" xmlns="http://www.w3.org/2000/svg">
<path d="M15.7 14L0.3 14C0.1 14 0 13.9 0 13.7L0 2.3C0 2.1 0.1 2 0.3 2L15.7 2C15.9 2 16 2.1 16 2.3L16 13.7C16 13.9 15.9 14 15.7 14Z" fill="#FF4B55"/>
<path d="M9.3998 6.99952L9.8998 7.59953L10.5998 7.39952C10.5998 7.39952 10.6998 7.39952 10.6998 7.49952L10.2998 8.09953L10.7998 8.69952V8.79953L10.0998 8.59953L9.5998 9.19952H9.4998V8.39952L8.7998 8.19952V8.09953L9.4998 7.79953L9.3998 6.99952C9.3998 6.89952 9.2998 6.99952 9.3998 6.99952Z" fill="#F5F5F5"/>
<path d="M6.80016 10.4C5.50016 10.4 4.40016 9.3 4.40016 8C4.40016 6.7 5.50016 5.60001 6.80016 5.60001C7.30016 5.60001 7.80016 5.8 8.10016 6C8.20016 6 8.20016 5.99999 8.20016 5.89999C7.60016 5.29999 6.80016 5 5.90016 5C4.40016 5.1 3.10016 6.3 3.00016 7.8C2.90016 9.5 4.30016 11 6.00016 11C6.90016 11 7.60016 10.6 8.20016 10.1C8.20016 10.1 8.20016 10 8.10016 10C7.70016 10.2 7.30016 10.4 6.80016 10.4Z" fill="#F5F5F5"/>
</svg>
