<svg width="16" height="16" viewBox="0 0 16 16" xmlns="http://www.w3.org/2000/svg">
<path d="M15.7 14L0.3 14C0.1 14 0 13.9 0 13.7L0 2.3C0 2.1 0.1 2 0.3 2L15.7 2C15.9 2 16 2.1 16 2.3L16 13.7C16 13.9 15.9 14 15.7 14Z" fill="#FF4B55"/>
<path d="M2.70021 3.9002L3.00021 4.8002H3.80021C3.90021 4.8002 4.00021 5.0002 3.90021 5.0002L3.20021 5.60021L3.50021 6.5002C3.50021 6.6002 3.40021 6.70021 3.30021 6.60021L2.60021 6.0002L1.90021 6.60021C1.80021 6.70021 1.70021 6.6002 1.70021 6.5002L2.00021 5.60021L1.30021 5.0002C1.20021 4.9002 1.30021 4.8002 1.40021 4.8002H2.20021L2.50021 3.9002C2.50021 3.8002 2.60021 3.8002 2.70021 3.9002Z" fill="#FFE15A"/>
<path d="M5.6998 4.09961L5.8998 4.3996L6.1998 4.29961C6.1998 4.29961 6.2998 4.2996 6.1998 4.3996L5.9998 4.6996L6.1998 4.9996V5.09961L5.8998 4.9996L5.6998 5.29961H5.5998V4.8996L5.2998 4.79961V4.6996L5.5998 4.59961L5.6998 4.09961C5.6998 4.09961 5.5998 4.09961 5.6998 4.09961Z" fill="#FFE15A"/>
<path d="M4.5 3.20039H4.8L4.9 2.90039H5L5.1 3.3004H5.4C5.4 3.3004 5.5 3.40039 5.4 3.40039L5.1 3.6004L5.2 4.0004C5.2 4.0004 5.2 4.1004 5.1 4.0004L4.9 3.8004L4.7 4.0004C4.7 4.0004 4.6 4.00039 4.6 3.90039L4.7 3.6004L4.5 3.20039C4.5 3.30039 4.5 3.20039 4.5 3.20039Z" fill="#FFE15A"/>
<path d="M4.99952 6.79961L4.79952 7.09961L4.49952 6.99961C4.49952 6.99961 4.39952 6.99961 4.49952 7.09961L4.69952 7.3996L4.49952 7.6996V7.79961L4.79952 7.6996L4.99952 7.99961H5.09952V7.59961L5.39952 7.49961V7.3996L5.09952 7.29961L4.99952 6.79961C5.09952 6.69961 5.09952 6.69961 4.99952 6.79961Z" fill="#FFE15A"/>
<path d="M6.2003 5.8996H5.9003L5.8003 5.59961H5.7003L5.6003 5.9996H5.3003C5.3003 5.9996 5.2003 6.09961 5.3003 6.09961L5.6003 6.29961L5.5003 6.6996C5.5003 6.6996 5.5003 6.7996 5.6003 6.6996L5.8003 6.4996L6.1003 6.6996C6.1003 6.6996 6.2003 6.69961 6.2003 6.59961L6.1003 6.29961L6.2003 5.8996C6.2003 5.9996 6.2003 5.8996 6.2003 5.8996Z" fill="#FFE15A"/>
</svg>
