<svg width="16" height="16" viewBox="0 0 16 16" xmlns="http://www.w3.org/2000/svg">
<path fill-rule="evenodd" clip-rule="evenodd" d="M0 2H16V14H0V2Z" fill="#FF4B55"/>
<path fill-rule="evenodd" clip-rule="evenodd" d="M0 2H8.61538V8H0V2Z" fill="#41479B"/>
<path d="M4.33333 2.66699L3.16667 7.02105L6.35406 3.83366L2 5.00033L6.35406 6.16699L3.16667 2.9796L4.33333 7.33366L5.5 2.9796L2.3126 6.16699L6.66667 5.00033L2.3126 3.83366L5.5 7.02105L4.33333 2.66699Z" fill="white"/>
<path fill-rule="evenodd" clip-rule="evenodd" d="M4.33325 5.66667C4.70144 5.66667 4.99992 5.36819 4.99992 5C4.99992 4.63181 4.70144 4.33333 4.33325 4.33333C3.96506 4.33333 3.66659 4.63181 3.66659 5C3.66659 5.36819 3.96506 5.66667 4.33325 5.66667ZM5.33325 5C5.33325 5.55228 4.88554 6 4.33325 6C3.78097 6 3.33325 5.55228 3.33325 5C3.33325 4.44772 3.78097 4 4.33325 4C4.88554 4 5.33325 4.44772 5.33325 5Z" fill="#41479B"/>
</svg>
