<svg width="24" height="24" viewBox="0 0 24 24" xmlns="http://www.w3.org/2000/svg">
<path d="M17.5 2.74902C18.4665 2.74902 19.25 3.53253 19.25 4.49902V5.49902C19.25 5.91324 18.9142 6.24902 18.5 6.24902C18.0858 6.24902 17.75 5.91324 17.75 5.49902V4.49902C17.75 4.36095 17.6381 4.24902 17.5 4.24902H4.5C4.36193 4.24902 4.25 4.36095 4.25 4.49902V14.499C4.25 14.6371 4.36193 14.749 4.5 14.749H6.40039C6.86952 14.7492 7.24979 15.1295 7.25 15.5986V17.6885L7.46973 17.4688C7.76262 17.1759 8.23738 17.1759 8.53027 17.4688C8.82317 17.7616 8.82317 18.2364 8.53027 18.5293L7.20117 19.8584C6.66575 20.3938 5.75017 20.0149 5.75 19.2578V16.249H4.5C3.5335 16.249 2.75 15.4655 2.75 14.499V4.49902C2.75 3.53252 3.5335 2.74902 4.5 2.74902H17.5Z" fill="#444444"/>
<path d="M10.5 7.74902C9.5335 7.74902 8.75 8.53253 8.75 9.49902V15.499C8.75 16.4655 9.5335 17.249 10.5 17.249H13.1895L16.7988 20.8584C17.3343 21.3938 18.2498 21.0149 18.25 20.2578V17.249H19.5C20.4665 17.249 21.25 16.4655 21.25 15.499V9.49902C21.25 8.53253 20.4665 7.74902 19.5 7.74902H10.5ZM19.5 9.24902C19.6381 9.24902 19.75 9.36095 19.75 9.49902V15.499C19.75 15.6371 19.6381 15.749 19.5 15.749H17.5996C17.1305 15.7492 16.7502 16.1295 16.75 16.5986V18.6885L14.1768 16.1152L14.085 16.0322C13.8626 15.85 13.583 15.749 13.293 15.749H10.5C10.3619 15.749 10.25 15.6371 10.25 15.499V9.49902C10.25 9.36095 10.3619 9.24902 10.5 9.24902H19.5Z" fill="#444444"/>
</svg>
