<svg width="24" height="24" viewBox="0 0 24 24" xmlns="http://www.w3.org/2000/svg">
<path d="M12 2C17.5228 2 22 6.47715 22 12C22 17.5228 17.5228 22 12 22C6.47715 22 2 17.5228 2 12C2 6.47715 6.47715 2 12 2ZM12 3C7.02944 3 3 7.02944 3 12C3 16.9706 7.02944 21 12 21C16.9706 21 21 16.9706 21 12C21 7.02944 16.9706 3 12 3ZM7.25 11C7.94036 11 8.5 11.5596 8.5 12.25C8.5 12.9404 7.94036 13.5 7.25 13.5C6.55964 13.5 6 12.9404 6 12.25C6 11.5596 6.55964 11 7.25 11ZM12 11C12.6904 11 13.25 11.5596 13.25 12.25C13.25 12.9404 12.6904 13.5 12 13.5C11.3096 13.5 10.75 12.9404 10.75 12.25C10.75 11.5596 11.3096 11 12 11ZM16.75 11C17.4404 11 18 11.5596 18 12.25C18 12.9404 17.4404 13.5 16.75 13.5C16.0596 13.5 15.5 12.9404 15.5 12.25C15.5 11.5596 16.0596 11 16.75 11Z"/>
</svg>
