<svg width="24" height="24" viewBox="0 0 24 24" xmlns="http://www.w3.org/2000/svg">
<path d="M1 16.0124V18H2.00114V16.0124C2.00114 13.1304 4.10353 11.0435 7.00683 11.0435H21.1229L18.0193 14.0248C17.9192 14.1242 17.9192 14.2236 18.0193 14.323L18.4198 14.7205C18.5199 14.8199 18.62 14.8199 18.7201 14.7205L22.9249 10.5466C23.025 10.4472 23.025 10.3478 22.9249 10.2484L22.5245 9.85093H22.4243L18.62 6.07453C18.5199 5.97516 18.4198 5.97516 18.3197 6.07453L17.8191 6.47205C17.719 6.57143 17.719 6.67081 17.8191 6.77019L21.1229 10.0497H7.00683C3.70307 10.0497 1 12.7329 1 16.0124Z"/>
</svg>
