<svg width="24" height="24" viewBox="0 0 24 24" xmlns="http://www.w3.org/2000/svg">
<path d="M14.6675 1.76465C14.8108 1.79317 14.944 1.86337 15.0493 1.96777L20.5288 7.40039C20.6712 7.5418 20.7512 7.73484 20.7505 7.93555L20.7075 20.5059C20.7042 21.4698 19.9215 22.2497 18.9575 22.25H13.5005C13.0863 22.25 12.7505 21.9142 12.7505 21.5C12.7505 21.0858 13.0863 20.75 13.5005 20.75H18.9575C19.095 20.7497 19.2069 20.6385 19.2075 20.501L19.2476 8.69141L15.5259 8.7373C14.5487 8.7492 13.7509 7.95864 13.7544 6.98145L13.769 3.25H6.00049C5.86248 3.25007 5.75049 3.36197 5.75049 3.5V13.5C5.75041 13.914 5.41444 14.2497 5.00049 14.25C4.58632 14.25 4.25054 13.9141 4.25049 13.5V3.5C4.2505 2.53355 5.03406 1.75007 6.00049 1.75H14.522L14.6675 1.76465ZM15.2544 6.98633C15.2539 7.12588 15.3678 7.23894 15.5073 7.2373L18.2007 7.2041L15.2642 4.29297L15.2544 6.98633Z" fill="#444444"/>
<path fill-rule="evenodd" clip-rule="evenodd" d="M5.52992 15.9609C5.74739 15.751 6.0706 15.692 6.34828 15.8115C6.62572 15.9312 6.80447 16.2057 6.80141 16.5078L6.74965 21.5078C6.74534 21.9219 6.40587 22.2541 5.99184 22.25C5.57766 22.2457 5.24535 21.9064 5.24965 21.4922L5.28188 18.2852L5.02114 18.5391C4.7234 18.8268 4.24848 18.819 3.96059 18.5215C3.6728 18.2237 3.68057 17.7488 3.97817 17.4609L5.52992 15.9609ZM11.1364 15.75C11.7507 15.7502 12.2495 16.249 12.2497 16.8633C12.2496 17.1335 12.1511 17.3916 11.9782 17.5928C11.7141 17.8997 11.0056 18.7475 10.651 19.3711C10.4243 19.77 10.1918 20.3452 10.0094 20.8486C9.92035 21.0945 9.8468 21.3136 9.79555 21.4707C9.77002 21.549 9.75032 21.6126 9.73696 21.6553C9.73038 21.6762 9.72462 21.6925 9.72133 21.7031C9.71979 21.7081 9.71912 21.7123 9.7184 21.7148L9.71742 21.7178C9.59738 22.1141 9.17822 22.3386 8.78188 22.2188C8.38547 22.0987 8.16183 21.6796 8.28188 21.2832V21.2812C8.28229 21.2803 8.28338 21.2788 8.28383 21.2773C8.28488 21.2738 8.2858 21.268 8.28774 21.2617C8.29174 21.2487 8.2979 21.2297 8.30532 21.2061C8.32024 21.1584 8.3423 21.0901 8.36977 21.0059C8.4248 20.8372 8.50347 20.6023 8.59926 20.3379C8.78688 19.8201 9.05453 19.1449 9.34731 18.6299C9.60536 18.176 9.99319 17.6595 10.318 17.251H8.49965C8.0856 17.251 7.74992 16.915 7.74965 16.501C7.74976 16.0869 8.08551 15.75 8.49965 15.75H11.1364Z" fill="#446ECA"/>
</svg>
