<svg width="24" height="24" viewBox="0 0 24 24" xmlns="http://www.w3.org/2000/svg">
<path fill-rule="evenodd" clip-rule="evenodd" d="M5.69275 12.4961C7.2244 14.6191 9.70332 15.9961 12.5 15.9961C15.2967 15.9961 17.7756 14.6191 19.3073 12.4961C17.7756 10.3731 15.2967 8.99609 12.5 8.99609C9.70332 8.99609 7.2244 10.3731 5.69275 12.4961ZM20.5 12.4961C18.8413 9.79497 15.8786 7.99609 12.5 7.99609C9.12136 7.99609 6.15875 9.79498 4.5 12.4961C6.15875 15.1972 9.12136 16.9961 12.5 16.9961C15.8786 16.9961 18.8413 15.1972 20.5 12.4961Z"/>
<path d="M12.5 9.99609C13.8675 9.99263 14.9737 11.115 14.9767 12.4961C14.9798 13.8803 13.8706 15.0108 12.5 15.0073C11.1328 15.0039 10.0326 13.8768 10.0357 12.4961C10.0387 11.1185 11.1359 9.99955 12.5 9.99609Z"/>
</svg>
