<svg xmlns="http://www.w3.org/2000/svg" width="25" height="25" viewBox="0 0 25 25"><path fill-rule="evenodd" clip-rule="evenodd" d="M11.3563 15.7651C11.7305 15.8154 12.1123 15.8414 12.5002 15.8414C15.3246 15.8414 17.8281 14.4644 19.3749 12.3414C18.6236 11.3102 18.166 10.7574 17.0361 10.1505L17.7591 9.41118C19.134 10.198 19.746 10.9975 20.5795 12.3414C18.9043 15.0425 15.9123 16.8414 12.5002 16.8414C11.8178 16.8414 11.1521 16.7695 10.5105 16.6327L11.3563 15.7651ZM8.12773 14.6323C7.14813 14.0435 6.29672 13.2627 5.62546 12.3414C7.1723 10.2184 9.67579 8.84141 12.5002 8.84141C13.0975 8.84141 13.2187 8.82442 13.7967 8.91092L14.721 8.06225C13.8906 7.82361 13.4176 7.8414 12.5148 7.84141H12.5002C9.08806 7.84141 6.09608 9.64029 4.4209 12.3414C5.17086 13.5507 6.18474 14.5791 7.38209 15.3462L8.12773 14.6323Z"/><path d="M16.0314 9.67145C15.7088 9.5343 15.3584 9.3959 15.0218 9.27392L9.15792 15.1593C9.49185 15.3022 9.83676 15.4243 10.191 15.5241L16.0314 9.67145Z"/><path d="M16.7904 8.91092C16.4786 8.76381 16.1396 8.6121 15.8163 8.47649L15.0218 9.27392C15.3584 9.3959 15.7088 9.5343 16.0314 9.67145L16.7904 8.91092Z"/><path d="M18.3454 7.35265L17.625 6.66113L15.8163 8.47649C16.1396 8.6121 16.4786 8.76381 16.7904 8.91092L18.3454 7.35265Z"/><path d="M9.39461 16.3222C9.05541 16.2049 8.72492 16.069 8.40438 15.9156L6.67677 17.6495L7.38209 18.3389L9.39461 16.3222Z"/><path d="M10.191 15.5241C9.83676 15.4243 9.49185 15.3022 9.15792 15.1593L8.40438 15.9156C8.72492 16.069 9.05541 16.2049 9.39461 16.3222L10.191 15.5241Z"/></svg>