<svg width="24" height="24" viewBox="0 0 24 24" xmlns="http://www.w3.org/2000/svg">
<g clip-path="url(#clip0_0_573)">
<rect x="9.2998" y="0.700195" width="5.4" height="10.5" rx="2.7" fill="white"/>
<rect x="2.10059" y="5.91895" width="5.4" height="10.5" rx="2.7" transform="rotate(-45 2.10059 5.91895)" fill="white"/>
<rect x="0.699951" y="14.7002" width="5.4" height="10.5" rx="2.7" transform="rotate(-90 0.699951 14.7002)" fill="white"/>
<rect x="5.91919" y="21.8994" width="5.4" height="10.5" rx="2.7" transform="rotate(-135 5.91919 21.8994)" fill="white"/>
<rect x="14.7002" y="23.2998" width="5.4" height="10.5" rx="2.7" transform="rotate(-180 14.7002 23.2998)" fill="white"/>
<rect x="21.8994" y="18.0811" width="5.4" height="10.5" rx="2.7" transform="rotate(135 21.8994 18.0811)" fill="white"/>
<rect x="23.3" y="9.2998" width="5.4" height="10.5" rx="2.7" transform="rotate(90 23.3 9.2998)" fill="white"/>
<rect x="18.0808" y="2.10059" width="5.4" height="10.5" rx="2.7" transform="rotate(45 18.0808 2.10059)" fill="white"/>
<g style="mix-blend-mode:multiply">
<rect x="9.2998" y="0.700195" width="5.4" height="10.5" rx="2.7" fill="url(#paint0_linear_0_573)"/>
</g>
<g style="mix-blend-mode:multiply">
<rect x="2.10059" y="5.91895" width="5.4" height="10.5" rx="2.7" transform="rotate(-45 2.10059 5.91895)" fill="url(#paint1_linear_0_573)"/>
</g>
<g style="mix-blend-mode:multiply">
<rect x="0.699951" y="14.7002" width="5.4" height="10.5" rx="2.7" transform="rotate(-90 0.699951 14.7002)" fill="url(#paint2_linear_0_573)"/>
</g>
<g style="mix-blend-mode:multiply">
<rect x="5.91919" y="21.8994" width="5.4" height="10.5" rx="2.7" transform="rotate(-135 5.91919 21.8994)" fill="url(#paint3_linear_0_573)"/>
</g>
<g style="mix-blend-mode:multiply">
<rect x="14.7002" y="23.2998" width="5.4" height="10.5" rx="2.7" transform="rotate(-180 14.7002 23.2998)" fill="url(#paint4_linear_0_573)"/>
</g>
<g style="mix-blend-mode:multiply">
<rect x="21.8994" y="18.0811" width="5.4" height="10.5" rx="2.7" transform="rotate(135 21.8994 18.0811)" fill="url(#paint5_linear_0_573)"/>
</g>
<g style="mix-blend-mode:multiply">
<rect x="23.3" y="9.2998" width="5.4" height="10.5" rx="2.7" transform="rotate(90 23.3 9.2998)" fill="url(#paint6_linear_0_573)"/>
</g>
<g style="mix-blend-mode:multiply">
<rect x="18.0808" y="2.10059" width="5.4" height="10.5" rx="2.7" transform="rotate(45 18.0808 2.10059)" fill="url(#paint7_linear_0_573)"/>
</g>
</g>
<defs>
<linearGradient id="paint0_linear_0_573" x1="11.9998" y1="0.700195" x2="11.9998" y2="11.2002" gradientUnits="userSpaceOnUse">
<stop offset="0.143646" stop-color="#F67812"/>
<stop offset="1" stop-color="#F67812" stop-opacity="0.5"/>
</linearGradient>
<linearGradient id="paint1_linear_0_573" x1="4.80059" y1="5.91895" x2="4.80059" y2="16.4189" gradientUnits="userSpaceOnUse">
<stop offset="0.143646" stop-color="#E73332"/>
<stop offset="1" stop-color="#E73332" stop-opacity="0.5"/>
</linearGradient>
<linearGradient id="paint2_linear_0_573" x1="3.39995" y1="14.7002" x2="3.39995" y2="25.2002" gradientUnits="userSpaceOnUse">
<stop offset="0.143646" stop-color="#B24C74"/>
<stop offset="1" stop-color="#F67812" stop-opacity="0.5"/>
<stop offset="1" stop-color="#B24C74" stop-opacity="0.5"/>
</linearGradient>
<linearGradient id="paint3_linear_0_573" x1="8.61919" y1="21.8994" x2="8.61919" y2="32.3994" gradientUnits="userSpaceOnUse">
<stop offset="0.143646" stop-color="#72579C"/>
<stop offset="1" stop-color="#72579C" stop-opacity="0.5"/>
</linearGradient>
<linearGradient id="paint4_linear_0_573" x1="17.4002" y1="23.2998" x2="17.4002" y2="33.7998" gradientUnits="userSpaceOnUse">
<stop offset="0.143646" stop-color="#417ABF"/>
<stop offset="1" stop-color="#417ABF" stop-opacity="0.5"/>
</linearGradient>
<linearGradient id="paint5_linear_0_573" x1="24.5994" y1="18.0811" x2="24.5994" y2="28.5811" gradientUnits="userSpaceOnUse">
<stop offset="0.143646" stop-color="#399A65"/>
<stop offset="1" stop-color="#399A65" stop-opacity="0.5"/>
</linearGradient>
<linearGradient id="paint6_linear_0_573" x1="26" y1="9.2998" x2="26" y2="19.7998" gradientUnits="userSpaceOnUse">
<stop offset="0.143646" stop-color="#88B828"/>
<stop offset="1" stop-color="#88B828" stop-opacity="0.5"/>
</linearGradient>
<linearGradient id="paint7_linear_0_573" x1="20.7808" y1="2.10059" x2="20.7808" y2="12.6006" gradientUnits="userSpaceOnUse">
<stop offset="0.143646" stop-color="#F4CB0A"/>
<stop offset="1" stop-color="#F4CB0A" stop-opacity="0.5"/>
</linearGradient>
<clipPath id="clip0_0_573">
<rect width="24" height="24" fill="white"/>
</clipPath>
</defs>
</svg>
