<svg width="24" height="24" viewBox="0 0 24 24" xmlns="http://www.w3.org/2000/svg">
<path fill-rule="evenodd" clip-rule="evenodd" d="M6.15499 8.97852C5.37395 8.19782 4.10782 8.19767 3.32687 8.97852L2.09445 10.2109C1.31381 10.9919 1.31382 12.2581 2.09445 13.0391L3.71554 14.6602L10.7155 21.5352C10.848 21.6651 11.0243 21.7412 11.2097 21.749L14.2097 21.874C14.4137 21.8825 14.613 21.8073 14.7605 21.666C14.9077 21.5246 14.9909 21.3292 14.9909 21.125V18C14.9909 17.7988 14.9099 17.6058 14.7663 17.4648L7.76632 10.5898L6.15499 8.97852ZM13.4909 18.3145V20.3428L11.5612 20.2627L5.30636 14.1201L7.24581 12.1807L13.4909 18.3145ZM15.738 2.12501C15.4428 2.12625 15.1753 2.30053 15.0554 2.57032L11.0554 11.5703C10.8872 11.9488 11.0577 12.3923 11.4362 12.5606C11.8147 12.7288 12.2583 12.5582 12.4265 12.1797L13.1179 10.625H18.4401L20.0583 14.1856C20.2298 14.5625 20.6745 14.729 21.0515 14.5576C21.4284 14.3861 21.5949 13.9415 21.4235 13.5645L16.4235 2.56446L16.3708 2.46876C16.2336 2.25587 15.9962 2.12401 15.738 2.12501ZM4.38741 10.0391C4.58258 9.84401 4.89919 9.84415 5.09445 10.0391L6.18038 11.125L4.24093 13.0645L3.15499 11.9785C2.96015 11.7833 2.96015 11.4667 3.15499 11.2715L4.38741 10.0391ZM17.7585 9.12501H13.7849L15.7497 4.70411L17.7585 9.12501Z" fill="#444444"/>
</svg>
