<svg width="24" height="24" viewBox="0 0 24 24" xmlns="http://www.w3.org/2000/svg">
<path fill-rule="evenodd" clip-rule="evenodd" d="M13.9697 4.46967C14.2626 4.17678 14.7374 4.17678 15.0303 4.46967L19.0303 8.46967C19.3231 8.76257 19.3232 9.23733 19.0303 9.53022L15.0303 13.5302C14.7374 13.8231 14.2626 13.8231 13.9697 13.5302C13.6768 13.2373 13.6769 12.7626 13.9697 12.4697L16.6895 9.74994H10.5C8.15279 9.74994 6.25 11.6527 6.25 13.9999C6.25003 16.3471 8.15281 18.2499 10.5 18.2499H11.5C11.9142 18.2499 12.25 18.5857 12.25 18.9999C12.25 19.4141 11.9142 19.7499 11.5 19.7499H10.5C7.32438 19.7499 4.75003 17.1756 4.75 13.9999C4.75 10.8243 7.32436 8.24994 10.5 8.24994H16.6895L13.9697 5.53022C13.6768 5.23733 13.6769 4.76257 13.9697 4.46967Z" fill="#444444"/>
</svg>
