<svg width="24" height="24" viewBox="0 0 24 24" xmlns="http://www.w3.org/2000/svg">
<path d="M23 16.0124V18H21.9989V16.0124C21.9989 13.1304 19.8965 11.0435 16.9932 11.0435H2.87713L5.98066 14.0248C6.08077 14.1242 6.08077 14.2236 5.98066 14.323L5.5802 14.7205C5.48009 14.8199 5.37998 14.8199 5.27986 14.7205L1.07509 10.5466C0.974972 10.4472 0.974972 10.3478 1.07509 10.2484L1.47554 9.85093H1.57565L5.37998 6.07453C5.48009 5.97516 5.5802 5.97516 5.68032 6.07453L6.18089 6.47205C6.281 6.57143 6.281 6.67081 6.18089 6.77019L2.87713 10.0497H16.9932C20.2969 10.0497 23 12.7329 23 16.0124Z"/>
</svg>
