<svg width="24" height="24" viewBox="0 0 24 24" xmlns="http://www.w3.org/2000/svg">
<path fill-rule="evenodd" clip-rule="evenodd" d="M21 6H3V18H21V6ZM3 5C2.44772 5 2 5.44772 2 6V18C2 18.5523 2.44772 19 3 19H21C21.5523 19 22 18.5523 22 18V6C22 5.44772 21.5523 5 21 5H3Z"/>
<path fill-rule="evenodd" clip-rule="evenodd" d="M2.66552 6.37165L3.33448 5.62835L12 13.3273L20.6655 5.62835L21.3345 6.37165L12 14.6727L2.66552 6.37165Z"/>
<path fill-rule="evenodd" clip-rule="evenodd" d="M9.37629 11.3293L3.37629 18.3293L2.62371 17.6707L8.62371 10.6707L9.37629 11.3293Z"/>
<path fill-rule="evenodd" clip-rule="evenodd" d="M15.3763 10.6707L21.3763 17.6707L20.6237 18.3293L14.6237 11.3293L15.3763 10.6707Z"/>
</svg>
