<svg width="24" height="24" viewBox="0 0 24 24" xmlns="http://www.w3.org/2000/svg">
<path d="M17.7998 10.7998L8.59961 19.9004L10.0996 21.4004L19.2998 12.2998L19.9004 12.9004L10.2998 22.5L7 23L7.5 19.7002L17.0996 10.0996L17.7998 10.7998ZM13.5186 11.8525L12.6387 12.7324L12.0234 11H6.97656L5.2002 16H4L9 2H10L13.5186 11.8525ZM19.2002 8C19.2002 8 20.4006 8.10039 21.1006 8.90039C21.7948 9.59494 21.9969 10.7812 22 10.7998L20.5 12.2998L17.7002 9.5L19.2002 8ZM7.33203 10H11.668L9.5 3.90039L7.33203 10Z"/>
</svg>
