<svg xmlns="http://www.w3.org/2000/svg" viewBox="0 0 22 22"><path d="m11.8 3 .4 2c.1.7.6 1.1 1.3 1.1.3 0 .5-.1.7-.2l1.9-1.2 1.1 1.1-1.1 1.8c-.3.4-.3.9-.1 1.3.2.4.5.7 1 .8l2.1.5v1.6l-2.1.4c-.5.1-.8.4-1 .8-.2.4-.1.9.1 1.2l1.2 1.9-1.1 1.1-1.8-1.1c-.2-.2-.5-.2-.8-.2-.6 0-1.2.5-1.3 1.1l-.5 2.1h-1.6l-.4-2c-.1-.7-.6-1.1-1.3-1.1-.3 0-.5.1-.7.2l-1.9 1.2-1.1-1.1 1.1-1.8c.3-.4.3-.9.1-1.3-.2-.4-.5-.7-1-.8l-2.1-.5v-1.6l2-.4c.5-.1.8-.4 1-.8.2-.4.1-.9-.1-1.2l-1-2 1.1-1.1 1.8 1.1c.3.2.5.3.8.3.6 0 1.2-.5 1.3-1.1l.5-2.1h1.5M11 15.5c2.5 0 4.5-2 4.5-4.5s-2-4.5-4.5-4.5-4.5 2-4.5 4.5 2 4.5 4.5 4.5M12.1 2H9.9c-.3 0-.5.2-.6.5l-.5 2.4c0 .2-.2.3-.3.3s-.1 0-.2-.1L6.2 3.8c-.1-.1-.2-.1-.4-.1-.1 0-.3 0-.4.1L3.8 5.4c-.1.2-.2.5 0 .8l1.3 2.1c.1.2.1.4-.2.5l-2.4.5c-.3.1-.5.3-.5.6v2.2c0 .3.2.5.5.6l2.4.5c.3.1.4.3.2.5l-1.3 2.1c-.2.2-.1.6.1.8l1.6 1.6c.1.1.3.2.4.2s.2 0 .3-.1L8.3 17c.1-.1.1-.1.2-.1s.3.1.3.3l.5 2.3c.1.3.3.5.6.5h2.2c.3 0 .5-.2.6-.5l.5-2.4c0-.2.1-.3.3-.3.1 0 .1 0 .2.1l2.1 1.3c.1.1.2.1.3.1.2 0 .3-.1.4-.2l1.6-1.6c.2-.2.2-.5.1-.8l-1.3-2.1c-.2-.2-.1-.5.2-.5l2.4-.5c.3-.1.5-.3.5-.6V9.8c0-.3-.2-.5-.5-.6l-2.4-.5c-.3-.1-.4-.3-.2-.5l1.3-2.1c.2-.2.1-.6-.1-.8l-1.6-1.6c-.1-.1-.3-.2-.4-.2-.1 0-.2 0-.3.1l-2.1 1.3c-.1.1-.1.1-.2.1s-.3-.1-.3-.3l-.5-2.2c-.1-.3-.3-.5-.6-.5zM11 14.5c-1.9 0-3.5-1.6-3.5-3.5S9.1 7.5 11 7.5s3.5 1.6 3.5 3.5-1.6 3.5-3.5 3.5z"/></svg>