<svg width="24" height="24" viewBox="0 0 24 24" xmlns="http://www.w3.org/2000/svg">
<path fill-rule="evenodd" clip-rule="evenodd" d="M13.4697 4.46967C13.7626 4.17678 14.2374 4.17678 14.5303 4.46967L18.5303 8.46967C18.8231 8.76257 18.8232 9.23733 18.5303 9.53022L14.5303 13.5302C14.2374 13.8231 13.7626 13.8231 13.4697 13.5302C13.1768 13.2373 13.1769 12.7626 13.4697 12.4697L16.1895 9.74994H10C7.65279 9.74994 5.75 11.6527 5.75 13.9999C5.75003 16.3471 7.65281 18.2499 10 18.2499H11C11.4142 18.2499 11.75 18.5857 11.75 18.9999C11.75 19.4141 11.4142 19.7499 11 19.7499H10C6.82438 19.7499 4.25003 17.1756 4.25 13.9999C4.25 10.8243 6.82436 8.24994 10 8.24994H16.1895L13.4697 5.53022C13.1768 5.23733 13.1769 4.76257 13.4697 4.46967Z" fill="#444444"/>
</svg>
