<svg width="30" height="30" viewBox="0 0 30 30" xmlns="http://www.w3.org/2000/svg"><path fill-rule="evenodd" clip-rule="evenodd" d="M10 15C10 16.6569 8.65685 18 7 18C5.34315 18 4 16.6569 4 15C4 13.3431 5.34315 12 7 12C8.65685 12 10 13.3431 10 15ZM7 16.7143C7.94677 16.7143 8.71429 15.9468 8.71429 15C8.71429 14.0532 7.94677 13.2857 7 13.2857C6.05323 13.2857 5.28571 14.0532 5.28571 15C5.28571 15.9468 6.05323 16.7143 7 16.7143Z" fill="#A3A3A3"/><path fill-rule="evenodd" clip-rule="evenodd" d="M18 15C18 16.6569 16.6569 18 15 18C13.3431 18 12 16.6569 12 15C12 13.3431 13.3431 12 15 12C16.6569 12 18 13.3431 18 15ZM15 16.7143C15.9468 16.7143 16.7143 15.9468 16.7143 15C16.7143 14.0532 15.9468 13.2857 15 13.2857C14.0532 13.2857 13.2857 14.0532 13.2857 15C13.2857 15.9468 14.0532 16.7143 15 16.7143Z" fill="#A3A3A3"/><path fill-rule="evenodd" clip-rule="evenodd" d="M26 15C26 16.6569 24.6569 18 23 18C21.3431 18 20 16.6569 20 15C20 13.3431 21.3431 12 23 12C24.6569 12 26 13.3431 26 15ZM23 16.7143C23.9468 16.7143 24.7143 15.9468 24.7143 15C24.7143 14.0532 23.9468 13.2857 23 13.2857C22.0532 13.2857 21.2857 14.0532 21.2857 15C21.2857 15.9468 22.0532 16.7143 23 16.7143Z" fill="#A3A3A3"/></svg>