<svg width="24" height="24" viewBox="0 0 24 24" xmlns="http://www.w3.org/2000/svg">
<path d="M5.25049 20.5C5.25054 20.638 5.36246 20.75 5.50049 20.75H18.4546C18.5924 20.7497 18.7045 20.6379 18.7046 20.5V17H20.2046V20.5C20.2045 21.4663 19.4208 22.2497 18.4546 22.25H5.50049C4.53403 22.25 3.75054 21.4664 3.75049 20.5V17H5.25049V20.5ZM14.1675 1.76465C14.3108 1.79317 14.444 1.86337 14.5493 1.96777L20.0288 7.40039C20.1705 7.54108 20.2504 7.73293 20.2505 7.93262V13H18.7505V8.69141L15.0259 8.7373C14.0487 8.7492 13.2509 7.95864 13.2544 6.98145L13.269 3.25H5.50049C5.36248 3.25008 5.25049 3.36198 5.25049 3.5V13H3.75049V3.5C3.75049 2.53355 4.53406 1.75008 5.50049 1.75H14.022L14.1675 1.76465ZM14.7544 6.98633C14.7539 7.12588 14.8678 7.23894 15.0073 7.2373L17.7007 7.2041L14.7642 4.29297L14.7544 6.98633Z" fill="#444444"/>
<path d="M19.5 14.25C19.0858 14.25 18.75 14.5858 18.75 15C18.75 15.4142 19.0858 15.75 19.5 15.75H20.5C20.9142 15.75 21.25 15.4142 21.25 15C21.25 14.5858 20.9142 14.25 20.5 14.25H19.5ZM15.5 14.25C15.0858 14.25 14.75 14.5858 14.75 15C14.75 15.4142 15.0858 15.75 15.5 15.75H16.5C16.9142 15.75 17.25 15.4142 17.25 15C17.25 14.5858 16.9142 14.25 16.5 14.25H15.5ZM11.5 14.25C11.0858 14.25 10.75 14.5858 10.75 15C10.75 15.4142 11.0858 15.75 11.5 15.75H12.5C12.9142 15.75 13.25 15.4142 13.25 15C13.25 14.5858 12.9142 14.25 12.5 14.25H11.5ZM7.5 14.25C7.08579 14.25 6.75 14.5858 6.75 15C6.75 15.4142 7.08579 15.75 7.5 15.75H8.5C8.91421 15.75 9.25 15.4142 9.25 15C9.25 14.5858 8.91421 14.25 8.5 14.25H7.5ZM3.5 14.25C3.08579 14.25 2.75 14.5858 2.75 15C2.75 15.4142 3.08579 15.75 3.5 15.75H4.5C4.91421 15.75 5.25 15.4142 5.25 15C5.25 14.5858 4.91421 14.25 4.5 14.25H3.5Z" fill="#446ECA"/>
</svg>
