<svg width="24" height="24" viewBox="0 0 24 24" xmlns="http://www.w3.org/2000/svg"><path fill-rule="evenodd" clip-rule="evenodd" d="M5.79177 16.6667L8.87529 13.1667L11.1254 15.5L14.2089 12L18.2092 16.6667H5.79177ZM19.4593 18.526C19.8204 18.2101 20.001 17.8455 20.001 17.4323V6.56771C20.001 6.15451 19.8204 5.78993 19.4593 5.47396C19.0981 5.15799 18.6814 5 18.2092 5H5.79177C5.31952 5 4.90283 5.15799 4.5417 5.47396C4.18057 5.78993 4 6.15451 4 6.56771V17.4323C4 17.8455 4.18057 18.2101 4.5417 18.526C4.90283 18.842 5.31952 19 5.79177 19H18.2092C18.6814 19 19.0981 18.842 19.4593 18.526ZM8.79933 11.2222C9.68304 11.2222 10.3994 10.5258 10.3994 9.66667C10.3994 8.80756 9.68304 8.11111 8.79933 8.11111C7.91562 8.11111 7.19923 8.80756 7.19923 9.66667C7.19923 10.5258 7.91562 11.2222 8.79933 11.2222Z"/></svg>