<svg width="24" height="24" viewBox="0 0 24 24" xmlns="http://www.w3.org/2000/svg">
<path d="M21 14.3999C21 17.4927 18.4629 20 15.3333 20C12.2037 20 9.66667 17.4927 9.66667 14.3999C9.66667 11.3071 12.2037 8.79992 15.3333 8.79992C18.4629 8.79992 21 11.3071 21 14.3999Z"/>
<path fill-rule="evenodd" clip-rule="evenodd" d="M5 4.7998C4.44772 4.7998 4 5.24752 4 5.79981V15.7998C4 16.3521 4.44771 16.7998 5 16.7998H9.32787C9.02431 16.0587 8.85714 15.2486 8.85714 14.3999C8.85714 10.8653 11.7566 7.99988 15.3333 7.99988C15.8924 7.99988 16.4349 8.06988 16.9524 8.20151V5.7998C16.9524 5.24752 16.5047 4.7998 15.9524 4.7998H5Z"/>
</svg>
