<svg xmlns="http://www.w3.org/2000/svg" width="25" height="25" viewBox="0 0 25 25"><path fill-rule="evenodd" clip-rule="evenodd" d="M5.62546 12.5C7.1723 14.623 9.67579 16 12.5002 16C15.3246 16 17.8281 14.623 19.3749 12.5C17.8281 10.377 15.3246 9 12.5002 9C9.67579 9 7.1723 10.377 5.62546 12.5ZM20.5795 12.5C18.9043 9.79888 15.9123 8 12.5002 8C9.08806 8 6.09608 9.79888 4.4209 12.5C6.09608 15.2011 9.08806 17 12.5002 17C15.9123 17 18.9043 15.2011 20.5795 12.5Z"/><path d="M12.5002 10C13.8812 9.99654 14.9984 11.1189 15.0015 12.5C15.0046 13.8842 13.8843 15.0147 12.5002 15.0112C11.1195 15.0078 10.0083 13.8807 10.0114 12.5C10.0145 11.1224 11.1226 10.0035 12.5002 10Z"/></svg>