<svg width="24" height="24" viewBox="0 0 24 24" xmlns="http://www.w3.org/2000/svg">
<path d="M5.25 15.25C6.2165 15.25 7 16.0335 7 17C7 17.9665 6.2165 18.75 5.25 18.75C4.2835 18.75 3.5 17.9665 3.5 17C3.5 16.0335 4.2835 15.25 5.25 15.25ZM11.917 15.25C12.8833 15.2502 13.667 16.0336 13.667 17C13.667 17.9664 12.8833 18.7498 11.917 18.75C10.9505 18.75 10.167 17.9665 10.167 17C10.167 16.0335 10.9505 15.25 11.917 15.25ZM18.583 15.25C19.5495 15.25 20.333 16.0335 20.333 17C20.333 17.9665 19.5495 18.75 18.583 18.75C17.6167 18.7498 16.833 17.9664 16.833 17C16.833 16.0336 17.6167 15.2502 18.583 15.25Z" fill="#444444"/>
</svg>
