<svg width="24" height="24" viewBox="0 0 24 24" xmlns="http://www.w3.org/2000/svg">
<path fill-rule="evenodd" clip-rule="evenodd" d="M22.1298 13.8554C22.4226 13.5625 22.8974 13.5626 23.1903 13.8554C23.4832 14.1482 23.4832 14.623 23.1903 14.9159L20.1845 17.9208L23.1903 20.9266C23.4832 21.2195 23.4832 21.6943 23.1903 21.9872C22.8974 22.2801 22.4227 22.2801 22.1298 21.9872L19.1239 18.9813L16.119 21.9872C15.8261 22.2801 15.3514 22.2801 15.0585 21.9872C14.7658 21.6943 14.7656 21.2195 15.0585 20.9266L18.0634 17.9208L15.0585 14.9159C14.7657 14.623 14.7656 14.1482 15.0585 13.8554C15.3513 13.5625 15.8261 13.5626 16.119 13.8554L19.1239 16.8602L22.1298 13.8554Z" fill="#FF3B30"/>
<path d="M20.5 4.54199C21.4665 4.54199 22.25 5.32549 22.25 6.29199V11.2959C22.25 11.7101 21.9142 12.0459 21.5 12.0459C21.0858 12.0459 20.75 11.7101 20.75 11.2959V6.29199C20.75 6.15392 20.6381 6.04199 20.5 6.04199H3.5C3.36193 6.04199 3.25 6.15392 3.25 6.29199V18.2959C3.25 18.434 3.36193 18.5459 3.5 18.5459H12C12.4142 18.5459 12.7499 18.8817 12.75 19.2959C12.75 19.7101 12.4142 20.0459 12 20.0459H3.5C2.5335 20.0459 1.75 19.2624 1.75 18.2959V6.29199C1.75 5.32549 2.5335 4.54199 3.5 4.54199H20.5ZM12 14.5459C12.4142 14.5459 12.75 14.8817 12.75 15.2959C12.75 15.7101 12.4142 16.0459 12 16.0459H6C5.58579 16.0459 5.25 15.7101 5.25 15.2959C5.25 14.8817 5.58579 14.5459 6 14.5459H12ZM12 11.5459C12.4142 11.5459 12.75 11.8817 12.75 12.2959C12.75 12.7101 12.4142 13.0459 12 13.0459H6C5.58579 13.0459 5.25 12.7101 5.25 12.2959C5.25 11.8817 5.58579 11.5459 6 11.5459H12ZM18 8.5459C18.4142 8.5459 18.75 8.88168 18.75 9.2959C18.75 9.71011 18.4142 10.0459 18 10.0459H6C5.58579 10.0459 5.25 9.71011 5.25 9.2959C5.25 8.88168 5.58579 8.5459 6 8.5459H18Z" fill="#444444"/>
</svg>
