<svg width="24" height="24" viewBox="0 0 24 24" xmlns="http://www.w3.org/2000/svg">
<path fill-rule="evenodd" clip-rule="evenodd" d="M8.46967 4.46967C8.76256 4.17678 9.23732 4.17678 9.53022 4.46967C9.82305 4.76257 9.82309 5.23734 9.53022 5.53022L6.81049 8.24994H12.9999C16.1756 8.24997 18.7499 10.8243 18.7499 13.9999C18.7499 17.1755 16.1755 19.7499 12.9999 19.7499H11.9999C11.5857 19.7499 11.25 19.4141 11.2499 18.9999C11.2499 18.5857 11.5857 18.2499 11.9999 18.2499H12.9999C15.3471 18.2499 17.2499 16.3471 17.2499 13.9999C17.2499 11.6528 15.3471 9.74997 12.9999 9.74994H6.81049L9.53022 12.4697C9.82305 12.7626 9.82309 13.2373 9.53022 13.5302C9.23734 13.8231 8.76257 13.8231 8.46967 13.5302L4.46967 9.53022C4.17678 9.23732 4.17678 8.76256 4.46967 8.46967L8.46967 4.46967Z" fill="#444444"/>
</svg>
