<svg width="24" height="24" viewBox="0 0 24 24" xmlns="http://www.w3.org/2000/svg">
<path fill-rule="evenodd" clip-rule="evenodd" d="M12.0138 14C9.18567 14 7.01647 15.4069 5.9043 17.2572C5.3423 18.1923 5.50366 18.562 5.60508 18.6903C5.75845 18.8844 6.11323 19 6.47655 19H12.0138V20H6.47655C6.00508 20 5.25793 19.8656 4.8186 19.3097C4.32732 18.688 4.4052 17.8077 5.0453 16.7428C6.33733 14.5931 8.83148 13 12.0138 13V14ZM12.0138 13C15.1962 13 17.6627 14.5931 18.9547 16.7428C19.5948 17.8077 19.6727 18.688 19.1814 19.3097C18.7421 19.8656 17.9949 20 17.5234 20H12.0138V19H17.5234C17.8868 19 18.2415 18.8844 18.3949 18.6903C18.4963 18.562 18.6577 18.1923 18.0957 17.2572C16.9835 15.4069 14.842 14 12.0138 14V13Z"/>
<path d="M12.0137 4.5C13.614 4.5 15.0205 6.00307 15.0205 8C15.0205 9.99693 13.614 11.5 12.0137 11.5C10.4134 11.4998 9.00781 9.99682 9.00781 8C9.00781 6.00318 10.4134 4.50016 12.0137 4.5Z"/>
</svg>
