<svg viewBox="0 0 24 24" xmlns="http://www.w3.org/2000/svg"><path fill-rule="evenodd" clip-rule="evenodd" d="M21 12C21 16.9706 16.9706 21 12 21C7.02944 21 3 16.9706 3 12C3 7.02944 7.02944 3 12 3C16.9706 3 21 7.02944 21 12ZM22 12C22 17.5228 17.5228 22 12 22C6.47715 22 2 17.5228 2 12C2 6.47715 6.47715 2 12 2C17.5228 2 22 6.47715 22 12ZM15.5 12.25C15.5 11.5596 16.0596 11 16.75 11C17.4404 11 18 11.5596 18 12.25C18 12.9404 17.4404 13.5 16.75 13.5C16.0596 13.5 15.5 12.9404 15.5 12.25ZM12 11C11.3096 11 10.75 11.5596 10.75 12.25C10.75 12.9404 11.3096 13.5 12 13.5C12.6904 13.5 13.25 12.9404 13.25 12.25C13.25 11.5596 12.6904 11 12 11ZM7.25 11C6.55964 11 6 11.5596 6 12.25C6 12.9404 6.55964 13.5 7.25 13.5C7.94036 13.5 8.5 12.9404 8.5 12.25C8.5 11.5596 7.94036 11 7.25 11Z"/></svg>