<svg version="1.1" xmlns="http://www.w3.org/2000/svg" xmlns:xlink="http://www.w3.org/1999/xlink" viewBox="0 0 22 22"><g><path d="M7.6,10.3c0.2,0.3,0.4,0.4,0.5,0.5c0.3,0.2,0.6,0.3,1,0.3c0.7,0,1.3-0.3,1.7-0.8c0.4-0.5,0.6-1.2,0.6-2.1c0-0.9-0.2-1.5-0.6-2c-0.4-0.4-0.9-0.7-1.6-0.7c-0.3,0-0.6,0.1-0.9,0.2C8,6,7.8,6.2,7.6,6.4V3.8H6.8V11h0.8V10.3z M8,6.9c0.3-0.3,0.7-0.4,1.1-0.4c0.5,0,0.8,0.2,1,0.5c0.2,0.4,0.4,0.8,0.4,1.4c0,0.6-0.1,1.1-0.4,1.5c-0.2,0.4-0.6,0.6-1.1,0.6c-0.6,0-1.1-0.3-1.3-0.9C7.6,9.2,7.6,8.8,7.6,8.3C7.6,7.7,7.7,7.2,8,6.9z M5.7,10.4c-0.1,0-0.2,0-0.2-0.1c0-0.1-0.1-0.1-0.1-0.2v-3c0-0.5-0.2-0.9-0.6-1.1C4.4,5.8,4,5.6,3.3,5.6c-0.5,0-1,0.1-1.4,0.4C1.5,6.3,1.3,6.7,1.3,7.4h0.8c0-0.3,0.1-0.5,0.2-0.6c0.2-0.2,0.5-0.4,1-0.4c0.4,0,0.7,0.1,0.9,0.2c0.2,0.1,0.3,0.4,0.3,0.7c0,0.1,0,0.3-0.1,0.3C4.4,7.7,4.3,7.8,4.1,7.8L2.7,8C2.2,8.1,1.8,8.2,1.5,8.5C1.2,8.8,1,9.1,1,9.6c0,0.4,0.2,0.8,0.5,1.1c0.3,0.3,0.7,0.4,1.2,0.4c0.4,0,0.8-0.1,1.1-0.3c0.3-0.2,0.6-0.4,0.8-0.6c0,0.2,0.1,0.4,0.2,0.5c0.1,0.2,0.4,0.3,0.7,0.3c0.1,0,0.2,0,0.3,0c0.1,0,0.2,0,0.3-0.1v-0.6c-0.1,0-0.1,0-0.2,0C5.8,10.4,5.7,10.4,5.7,10.4z M4.5,9.1c0,0.5-0.2,0.9-0.7,1.2c-0.3,0.1-0.6,0.2-0.9,0.2c-0.3,0-0.5-0.1-0.7-0.2C2,10.1,2,9.9,2,9.6C2,9.3,2.1,9,2.4,8.9c0.2-0.1,0.4-0.2,0.7-0.2l0.5-0.1c0.2,0,0.3-0.1,0.5-0.1c0.2,0,0.3-0.1,0.4-0.2V9.1z M18.5,5L8.3,15.3l-0.5,2c-0.6,0.4-1.3,0.3-1.5,0.6c-0.3,0.4,0.9,0.4,1.5,0.3c0.4,0,0.5,0,0.5-0.2l2.2-0.6L20.7,7.1L18.5,5z M9,15.3l9.5-9.5L20,7.1l-9.5,9.5L9,15.3z"/></g></svg>