<svg width="24" height="24" viewBox="0 0 24 24" xmlns="http://www.w3.org/2000/svg">
<path fill-rule="evenodd" clip-rule="evenodd" d="M19.5684 3.82129C20.5345 3.82172 21.3183 4.60513 21.3184 5.57129V18.4248C21.3184 19.391 20.5345 20.1744 19.5684 20.1748H4.43263C3.46626 20.1747 2.68263 19.3912 2.68263 18.4248V5.57812C2.67918 4.60921 3.46369 3.82129 4.43263 3.82129H19.5684ZM4.18263 18.4248C4.18263 18.5628 4.29469 18.6747 4.43263 18.6748H8.39357V15.6074H4.18263V18.4248ZM9.89357 18.6748H14.1074V15.6074H9.89357V18.6748ZM15.6074 18.6748H19.5684C19.7061 18.6744 19.8184 18.5626 19.8184 18.4248V15.6074H15.6074V18.6748ZM4.18263 14.1074H8.39357V11.0361H4.18263V14.1074ZM9.89357 14.1074H14.1074V11.0361H9.89357V14.1074ZM15.6074 14.1074H19.8184V11.0361H15.6074V14.1074ZM4.18263 9.53613H8.39357V6.46875H4.18263V9.53613ZM9.89357 9.53613H14.1074V6.46875H9.89357V9.53613ZM15.6074 9.53613H19.8184V6.46875H15.6074V9.53613Z" fill="#444444"/>
</svg>
