<svg width="24" height="24" viewBox="0 0 24 24" xmlns="http://www.w3.org/2000/svg">
<path d="M5.27148 20.502C5.27276 20.639 5.38439 20.7499 5.52148 20.75H18.5C18.6376 20.7497 18.7498 20.6377 18.75 20.5V17H20.25V20.5C20.2497 21.466 19.466 22.2497 18.5 22.25H5.52148C4.55942 22.2499 3.7776 21.4728 3.77148 20.5107L3.75 17.0049L5.25 16.9951L5.27148 20.502ZM18.5 1.75C19.4662 1.75033 20.25 2.53371 20.25 3.5L20.249 13H18.749L18.75 3.5C18.75 3.36213 18.6378 3.25033 18.5 3.25H5.47168C5.33361 3.25001 5.22168 3.36193 5.22168 3.5V13H3.72168V3.5C3.72168 2.5335 4.50519 1.75001 5.47168 1.75H18.5Z" fill="#444444"/>
<path d="M4.5 14.25C4.91421 14.25 5.25 14.5858 5.25 15C5.25 15.4142 4.91421 15.75 4.5 15.75H3.5C3.08579 15.75 2.75 15.4142 2.75 15C2.75 14.5858 3.08579 14.25 3.5 14.25H4.5ZM8.5 14.25C8.91421 14.25 9.25 14.5858 9.25 15C9.25 15.4142 8.91421 15.75 8.5 15.75H7.5C7.08579 15.75 6.75 15.4142 6.75 15C6.75 14.5858 7.08579 14.25 7.5 14.25H8.5ZM12.5 14.25C12.9142 14.25 13.25 14.5858 13.25 15C13.25 15.4142 12.9142 15.75 12.5 15.75H11.5C11.0858 15.75 10.75 15.4142 10.75 15C10.75 14.5858 11.0858 14.25 11.5 14.25H12.5ZM16.5 14.25C16.9142 14.25 17.25 14.5858 17.25 15C17.25 15.4142 16.9142 15.75 16.5 15.75H15.5C15.0858 15.75 14.75 15.4142 14.75 15C14.75 14.5858 15.0858 14.25 15.5 14.25H16.5ZM20.5 14.25C20.9142 14.25 21.25 14.5858 21.25 15C21.25 15.4142 20.9142 15.75 20.5 15.75H19.5C19.0858 15.75 18.75 15.4142 18.75 15C18.75 14.5858 19.0858 14.25 19.5 14.25H20.5Z" fill="#446ECA"/>
</svg>
