<svg width="24" height="24" viewBox="0 0 24 24" xmlns="http://www.w3.org/2000/svg">
<path d="M12 2C17.5228 2 22 6.47715 22 12C22 17.5228 17.5228 22 12 22C6.47715 22 2 17.5228 2 12C2 6.47715 6.47715 2 12 2ZM12 3.5C7.30558 3.5 3.5 7.30558 3.5 12C3.5 16.6944 7.30558 20.5 12 20.5C16.6944 20.5 20.5 16.6944 20.5 12C20.5 7.30558 16.6944 3.5 12 3.5ZM7.5 10.5C8.32843 10.5 9 11.1716 9 12C9 12.8284 8.32843 13.5 7.5 13.5C6.67157 13.5 6 12.8284 6 12C6 11.1716 6.67157 10.5 7.5 10.5ZM12 10.5C12.8284 10.5 13.5 11.1716 13.5 12C13.5 12.8284 12.8284 13.5 12 13.5C11.1716 13.5 10.5 12.8284 10.5 12C10.5 11.1716 11.1716 10.5 12 10.5ZM16.5 10.5C17.3284 10.5 18 11.1716 18 12C18 12.8284 17.3284 13.5 16.5 13.5C15.6716 13.5 15 12.8284 15 12C15 11.1716 15.6716 10.5 16.5 10.5Z" fill="#444444"/>
</svg>
