<svg width="24" height="24" viewBox="0 0 24 24" xmlns="http://www.w3.org/2000/svg"><path fill-rule="evenodd" clip-rule="evenodd" d="M7.00049 18C7.00049 18.8284 6.32892 19.5 5.50049 19.5C4.67206 19.5 4.00049 18.8284 4.00049 18C4.00049 17.1716 4.67206 16.5 5.50049 16.5C6.32892 16.5 7.00049 17.1716 7.00049 18ZM13.5005 18C13.5005 18.8284 12.8289 19.5 12.0005 19.5C11.1721 19.5 10.5005 18.8284 10.5005 18C10.5005 17.1716 11.1721 16.5 12.0005 16.5C12.8289 16.5 13.5005 17.1716 13.5005 18ZM18.5005 19.5C19.3289 19.5 20.0005 18.8284 20.0005 18C20.0005 17.1716 19.3289 16.5 18.5005 16.5C17.6721 16.5 17.0005 17.1716 17.0005 18C17.0005 18.8284 17.6721 19.5 18.5005 19.5Z"/></svg>