<svg width="24" height="24" viewBox="0 0 24 24" xmlns="http://www.w3.org/2000/svg">
<path d="M3 5C3 3.89543 3.89543 3 5 3H18C19.1046 3 20 3.89543 20 5V7H19V5C19 4.44772 18.5523 4 18 4H5C4.44772 4 4 4.44772 4 5V19C4 19.5523 4.44772 20 5 20H18C18.5523 20 19 19.5523 19 19V14H20V19C20 20.1046 19.1046 21 18 21H5C3.89543 21 3 20.1046 3 19V5Z"/>
<path d="M16 7.5C16 7.77614 15.7761 8 15.5 8H7.5C7.22386 8 7 7.77614 7 7.5C7 7.22386 7.22386 7 7.5 7H15.5C15.7761 7 16 7.22386 16 7.5Z"/>
<path d="M14 11.5C14 11.7761 13.7761 12 13.5 12H7.5C7.22386 12 7 11.7761 7 11.5C7 11.2239 7.22386 11 7.5 11H13.5C13.7761 11 14 11.2239 14 11.5Z"/>
<path d="M11 15.5C11 15.7761 10.7761 16 10.5 16H7.5C7.22386 16 7 15.7761 7 15.5C7 15.2239 7.22386 15 7.5 15H10.5C10.7761 15 11 15.2239 11 15.5Z"/>
<path d="M13.2929 15.2071C13.1054 15.3946 13 15.649 13 15.9142V17H14.0858C14.351 17 14.6054 16.8946 14.7929 16.7071L21.7929 9.70711C22.1834 9.31658 22.1834 8.68342 21.7929 8.29289L21.7071 8.20711C21.3166 7.81658 20.6834 7.81658 20.2929 8.20711L13.2929 15.2071Z"/>
</svg>
