<svg width="24" height="24" viewBox="0 0 24 24" xmlns="http://www.w3.org/2000/svg">
<path fill-rule="evenodd" clip-rule="evenodd" d="M16.0002 2L21 15.9997H19.8001L18.0233 11H12.977L12.3613 12.7326L11.4814 11.8526L15.0002 2H16.0002ZM15.5002 3.89996L13.3324 10.0001H17.668L15.5002 3.89996Z"/>
<path d="M5.70038 12.3L14.9002 21.3998L16.4001 19.8998L7.20035 10.8L7.90033 10.1001L17.5001 19.6999L18.0001 22.9998L14.7002 22.4998L5.10039 12.9L5.70038 12.3Z"/>
<path d="M3.00024 10.8L4.50021 12.3L7.30015 9.50006L5.80018 8.0001C5.80018 8.0001 4.60021 8.1001 3.90022 8.90008C3.20024 9.60006 3.00024 10.8 3.00024 10.8Z"/>
</svg>
