<svg width="24" height="24" viewBox="0 0 24 24" xmlns="http://www.w3.org/2000/svg">
<path d="M9.83252 1.76465C9.68917 1.79317 9.55599 1.86337 9.45068 1.96777L3.97119 7.40039C3.82878 7.5418 3.74885 7.73484 3.74951 7.93555L3.79248 20.5059C3.7958 21.4698 4.57854 22.2497 5.54248 22.25H10.9995C11.4137 22.25 11.7495 21.9142 11.7495 21.5C11.7495 21.0858 11.4137 20.75 10.9995 20.75H5.54248C5.40503 20.7497 5.29307 20.6385 5.29248 20.501L5.25244 8.69141L8.97412 8.7373C9.95132 8.7492 10.7491 7.95864 10.7456 6.98145L10.731 3.25H18.4995C18.6375 3.25007 18.7495 3.36197 18.7495 3.5V13.5C18.7496 13.914 19.0856 14.2497 19.4995 14.25C19.9137 14.25 20.2495 13.9141 20.2495 13.5V3.5C20.2495 2.53355 19.4659 1.75007 18.4995 1.75H9.97803L9.83252 1.76465ZM9.24561 6.98633C9.24609 7.12588 9.13222 7.23894 8.99268 7.2373L6.29932 7.2041L9.23584 4.29297L9.24561 6.98633Z" fill="#444444"/>
<path fill-rule="evenodd" clip-rule="evenodd" d="M14.0307 15.9609C14.2481 15.751 14.5713 15.692 14.849 15.8115C15.1265 15.9312 15.3052 16.2057 15.3021 16.5078L15.2504 21.5078C15.2461 21.9219 14.9066 22.2541 14.4926 22.25C14.0784 22.2457 13.7461 21.9064 13.7504 21.4922L13.7826 18.2852L13.5219 18.5391C13.2241 18.8268 12.7492 18.819 12.4613 18.5215C12.1735 18.2237 12.1813 17.7488 12.4789 17.4609L14.0307 15.9609ZM19.6371 15.75C20.2514 15.7502 20.7503 16.249 20.7504 16.8633C20.7504 17.1335 20.6519 17.3916 20.4789 17.5928C20.2149 17.8997 19.5063 18.7475 19.1518 19.3711C18.925 19.77 18.6926 20.3452 18.5101 20.8486C18.4211 21.0945 18.3475 21.3136 18.2963 21.4707C18.2707 21.549 18.2511 21.6126 18.2377 21.6553C18.2311 21.6762 18.2254 21.6925 18.2221 21.7031C18.2205 21.7081 18.2199 21.7123 18.2191 21.7148L18.2182 21.7178C18.0981 22.1141 17.679 22.3386 17.2826 22.2188C16.8862 22.0987 16.6626 21.6796 16.7826 21.2832V21.2812C16.783 21.2803 16.7841 21.2788 16.7846 21.2773C16.7856 21.2738 16.7865 21.268 16.7885 21.2617C16.7925 21.2487 16.7986 21.2297 16.806 21.2061C16.821 21.1584 16.843 21.0901 16.8705 21.0059C16.9255 20.8372 17.0042 20.6023 17.1 20.3379C17.2876 19.8201 17.5553 19.1449 17.848 18.6299C18.1061 18.176 18.4939 17.6595 18.8187 17.251H17.0004C16.5863 17.251 16.2506 16.915 16.2504 16.501C16.2505 16.0869 16.5862 15.75 17.0004 15.75H19.6371Z" fill="#446ECA"/>
</svg>
