<svg width="24" height="24" viewBox="0 0 24 24" xmlns="http://www.w3.org/2000/svg"><path fill-rule="evenodd" clip-rule="evenodd" d="M16 7C16 9.34102 15.4162 11.1346 14.6143 12.3121C13.8071 13.4974 12.8337 14 12 14C11.1663 14 10.1929 13.4974 9.38574 12.3121C8.5838 11.1346 8 9.34102 8 7C8 4.61508 9.97853 3 12 3C14.0215 3 16 4.61508 16 7ZM15.1891 13.2201C14.2865 14.375 13.1451 15 12 15C10.8549 15 9.71347 14.375 8.81092 13.2201C7.40473 13.7844 6.21268 14.3488 5.26963 14.9224C3.55256 15.9667 3 16.8326 3 17.5C3 18.2545 3.4257 19.0877 4.82302 19.7879C6.25015 20.5031 8.57272 20.9999 12 21C15.4273 21 17.7499 20.5031 19.177 19.7879C20.5743 19.0877 21 18.2545 21 17.5C21 16.8326 20.4474 15.9667 18.7304 14.9224C17.7873 14.3488 16.5953 13.7844 15.1891 13.2201ZM15.7544 12.37C16.5137 11.0279 17 9.20917 17 7C17 4 14.5088 2 12 2C9.49121 2 7 4 7 7C7 9.20917 7.48633 11.0279 8.24563 12.37C4.38973 13.9392 2 15.579 2 17.5C2 19.9852 5 21.9999 12 22C19 22 22 19.9852 22 17.5C22 15.579 19.6103 13.9392 15.7544 12.37Z" /></svg>