<svg width="24" height="24" viewBox="0 0 24 24" xmlns="http://www.w3.org/2000/svg">
<path d="M9.5 3C8.18909 3 7.00001 4.21529 7 5.50293V8.00586H8V5.50293C8.00002 4.80546 8.78993 4.00098 9.5 4.00098H19.5C20.2101 4.00098 21 4.80546 21 5.50293V12.0342C21 12.7317 20.2101 13.0117 19.5 13.0117H17V16.5L14 14.25V10.8555C14 9.83481 13.1737 9.00708 12.1543 9.00684H3.8457C2.82631 9.00708 2 9.83481 2 10.8555V15.1689C2 16.1896 2.82631 17.0173 3.8457 17.0176H4.53809C4.79289 17.0176 4.99984 17.2244 5 17.4795V20.0371C5.00006 20.4288 5.45624 20.6424 5.75684 20.3916L9.87207 17.125C9.95496 17.0559 10.0591 17.0176 10.167 17.0176H12.1543C12.994 17.0174 13.702 16.4559 13.9258 15.6875L17 18.0186C17.3864 18.3349 17.9998 18.0126 18 17.5186V14.5137C18 14.1918 18.1723 14.0127 18.5 14.0127H19.5C20.8109 14.0127 22 13.3218 22 12.0342V5.50293C22 4.21529 20.8109 3 19.5 3H9.5ZM12 10.0078C12.5523 10.0078 13 10.4568 13 11.0098V15.0156C12.9999 15.5684 12.5522 16.0166 12 16.0166H9.5L6 19C6 19 6 19.2912 6 18.8994L5.99707 16.0166H4C3.4478 16.0166 3.00014 15.5684 3 15.0156V11.0098C3 10.4568 3.44772 10.0078 4 10.0078H12Z"/>
</svg>
