<svg width="24" height="24" viewBox="0 0 24 24" xmlns="http://www.w3.org/2000/svg">
<path d="M19.4998 4.75C20.4663 4.75 21.2498 5.5335 21.2498 6.5V17.5C21.2495 18.4663 20.4661 19.25 19.4998 19.25H4.49976C3.53353 19.2499 2.75002 18.4662 2.74976 17.5V6.5C2.74976 5.53359 3.53337 4.75014 4.49976 4.75H19.4998ZM12.6052 14.5664C12.2725 14.9031 11.728 14.903 11.3953 14.5664L9.67358 12.8223L4.37378 17.7139C4.41091 17.7358 4.45354 17.75 4.49976 17.75H19.4998C19.5459 17.75 19.5886 17.7357 19.6257 17.7139L14.3269 12.8213L12.6052 14.5664ZM4.24976 15.7881L8.6189 11.7539L4.24976 7.32812V15.7881ZM15.3816 11.7529L19.7498 15.7861V7.32812L15.3816 11.7529ZM11.9998 13.043L18.7048 6.25H5.29468L11.9998 13.043Z" fill="#444444"/>
</svg>
