<svg width="24" height="24" viewBox="0 0 24 24" xmlns="http://www.w3.org/2000/svg"><path fill-rule="evenodd" clip-rule="evenodd" d="M20.1538 9.00708H11.8462C10.8266 9.00708 10 9.83461 10 10.8554V15.1694C10 16.1902 10.8266 17.0177 11.8462 17.0177H13.8329C13.9409 17.0177 14.0454 17.0556 14.1284 17.1248L18.243 20.392C18.5436 20.6428 19 20.4288 19 20.037V17.4798C19 17.2246 19.2066 17.0177 19.4615 17.0177H20.1538C21.1734 17.0177 22 16.1902 22 15.1694V10.8554C22 9.83461 21.1734 9.00708 20.1538 9.00708ZM20 10.0083C20.5523 10.0083 21 10.4565 21 11.0095V15.0154C21 15.5683 20.5523 16.0165 20 16.0165H18.0025L18 18.8995C18 19.2912 18 19 18 19L14.5 16.0165H12C11.4477 16.0165 11 15.5683 11 15.0154V11.0095C11 10.4565 11.4477 10.0083 12 10.0083H20Z" /><path d="M14.5 3H4.5C3.18908 3 2 4.2153 2 5.50295V12.0346C2 13.3222 3.18908 14.013 4.5 14.013H5.5C5.82773 14.013 6 14.1917 6 14.5136V17.5183C6 18.0125 6.6135 18.3352 7 18.0189L11 14.9858V13.5L7 16.5V13.0118H4.5C3.78992 13.0118 3 12.732 3 12.0346V5.50295C3 4.80547 3.78992 4.00118 4.5 4.00118H14.5C15.2101 4.00118 16 4.80547 16 5.50295V8.0059H17V5.50295C17 4.2153 15.8109 3 14.5 3Z" /></svg>