<svg xmlns="http://www.w3.org/2000/svg" width="24" height="24" viewBox="0 0 24 24" stroke="currentColor" stroke-linecap="round" stroke-linejoin="round" fill="none">
    <path d="M4 18.5V17a.5.5 0 0 1 1 0v1.5a.5.5 0 0 0 .5.5H7a.5.5 0 0 1 0 1H5.5A1.5 1.5 0 0 1 4 18.5Zm9 .5a.5.5 0 0 1 0 1h-3a.5.5 0 0 1 0-1h3Zm5-.5V17a.5.5 0 0 1 1 0v1.5a1.5 1.5 0 0 1-1.5 1.5H16a.5.5 0 0 1 0-1h1.5a.5.5 0 0 0 .5-.5ZM4 14v-3a.5.5 0 0 1 1 0v3a.5.5 0 0 1-1 0Zm14 0v-3a.5.5 0 0 1 1 0v3a.5.5 0 0 1-1 0ZM4 8V6.5A1.5 1.5 0 0 1 5.5 5H7a.5.5 0 0 1 0 1H5.5a.5.5 0 0 0-.5.5V8a.5.5 0 0 1-1 0Zm14 0V6.5a.5.5 0 0 0-.5-.5H16a.5.5 0 0 1 0-1h1.5A1.5 1.5 0 0 1 19 6.5V8a.5.5 0 0 1-1 0Zm-5-3a.5.5 0 0 1 0 1h-3a.5.5 0 0 1 0-1h3Z" fill="currentColor" stroke="none" class="icon-fill-gray-primary"/>
    <path d="M11.5 8.5H8a.5.5 0 0 0-.5.5v.5m4-1H15a.5.5 0 0 1 .5.5v.5m-4-1v8m0 0h1m-1 0h-1" class="icon-stroke-blue-primary"/>
</svg>
