<svg xmlns="http://www.w3.org/2000/svg" width="24" height="24" viewBox="0 0 24 24" stroke="currentColor" stroke-linecap="round" stroke-linejoin="round" fill="none">
    <path d="m17.5 8.5-4-4m4 4h-3.9a.1.1 0 0 1-.1-.1V4.5m4 4v1m-4-5h-6a1 1 0 0 0-1 1v12a1 1 0 0 0 1 1h1" class="icon-stroke-gray-primary"/>
    <path d="M14.498 11a4.498 4.498 0 1 1 0 8.996 4.498 4.498 0 0 1 0-8.996Zm.002 2a.5.5 0 0 0-.5.5V15h-1.5a.5.5 0 0 0 0 1H14v1.5a.5.5 0 0 0 1 0V16h1.5a.5.5 0 0 0 0-1H15v-1.5a.5.5 0 0 0-.5-.5Z" fill="currentColor" stroke="none" class="icon-fill-blue-primary"/>
</svg>
