<svg xmlns="http://www.w3.org/2000/svg" width="28" height="28" viewBox="0 0 28 28" stroke="currentColor" stroke-linecap="round" stroke-linejoin="round" fill="none">
    <path d="M16.5 6.5V4.75c0-.69-.56-1.25-1.25-1.25h-9.5c-.69 0-1.25.56-1.25 1.25v12.5c0 .69.56 1.25 1.25 1.25H8.5m13-11v-3a1 1 0 0 0-1-1h-2m3 4 2-2m-2 2-2-2m-13 15v3a1 1 0 0 0 1 1h2m-3-4 2 2m-2-2-2 2m3-12h2m-2-4h6m-6 8h2m3-5h10a1 1 0 0 1 1 1v13a1 1 0 0 1-1 1h-10a1 1 0 0 1-1-1v-13a1 1 0 0 1 1-1Z" class="icon-stroke-gray-primary"/>
    <path d="m20.5 14.5-3.5 5-2.5-3" class="icon-stroke-blue-primary"/>
</svg>
