<svg xmlns="http://www.w3.org/2000/svg" width="28" height="28" fill="none" viewBox="0 0 28 28">
  <path fill="#969696" d="M4.5 20a.5.5 0 0 1 .5.5v2a.5.5 0 0 0 .5.5h2a.5.5 0 0 1 0 1h-2A1.5 1.5 0 0 1 4 22.5v-2a.5.5 0 0 1 .5-.5Zm11 3a.5.5 0 0 1 0 1h-4a.5.5 0 0 1 0-1h4Zm7-3a.5.5 0 0 1 .49.4l.01.1v2a1.5 1.5 0 0 1-1.5 1.5h-2a.5.5 0 0 1 0-1h2a.5.5 0 0 0 .5-.5v-2l.01-.1a.5.5 0 0 1 .49-.4Zm-18-8a.5.5 0 0 1 .49.4l.01.1v4a.5.5 0 0 1-1 0v-4l.01-.1a.5.5 0 0 1 .49-.4Zm18 0a.5.5 0 0 1 .49.4l.01.1v4a.5.5 0 0 1-1 0v-4l.01-.1a.5.5 0 0 1 .49-.4Zm-15-7a.5.5 0 0 1 0 1h-2a.5.5 0 0 0-.5.5v2a.5.5 0 0 1-1 0v-2A1.5 1.5 0 0 1 5.5 5h2Zm14 0A1.5 1.5 0 0 1 23 6.5v2a.5.5 0 0 1-1 0v-2a.5.5 0 0 0-.5-.5h-2a.5.5 0 0 1 0-1h2Zm-6 0a.5.5 0 0 1 0 1h-4a.5.5 0 0 1 0-1h4Z"/>
  <path fill="#446ECA" d="M6 14.5a.5.5 0 0 1 .4-.49l.1-.01H13V7.5l.01-.1a.5.5 0 0 1 .98 0l.01.1V14h6.5a.5.5 0 0 1 0 1H14v6.5a.5.5 0 0 1-1 0V15H6.5a.5.5 0 0 1-.5-.5Z"/>
</svg>
