<svg xmlns="http://www.w3.org/2000/svg" width="28" height="28" fill="none" viewBox="0 0 28 28">
  <path fill="#383838" d="M20.5 8A1.5 1.5 0 0 1 22 9.5v13a1.5 1.5 0 0 1-1.5 1.5h-9a1.5 1.5 0 0 1-1.5-1.5v-13A1.5 1.5 0 0 1 11.5 8h9Zm-9 1a.5.5 0 0 0-.5.5v13a.5.5 0 0 0 .5.5h9a.5.5 0 0 0 .5-.5v-13a.5.5 0 0 0-.5-.5h-9Zm5-5A1.5 1.5 0 0 1 18 5.5v1a.5.5 0 0 1-1 0v-1a.5.5 0 0 0-.5-.5h-9a.5.5 0 0 0-.5.5v13a.5.5 0 0 0 .5.5h1a.5.5 0 0 1 0 1h-1A1.5 1.5 0 0 1 6 18.5v-13A1.5 1.5 0 0 1 7.5 4h9Z"/>
  <path fill="#446ECA" d="M18.4 12a.6.6 0 0 1 .6.6v6.659a.6.6 0 0 1-1.024.424L16 17.707l-1.976 1.976A.6.6 0 0 1 13 19.259v-6.66a.6.6 0 0 1 .6-.599h4.8ZM14 18.293l1.576-1.576.094-.076a.6.6 0 0 1 .66 0l.094.076L18 18.293V13h-4v5.293Z"/>
</svg>
