<svg xmlns="http://www.w3.org/2000/svg" width="28" height="28" fill="none" viewBox="0 0 28 28">
  <path fill="#383838" d="M23.5 22a.5.5 0 0 1 0 1h-19a.5.5 0 0 1 0-1h19Zm-16-5a.5.5 0 0 1 0 1h-3a.5.5 0 0 1 0-1h3Zm16 0a.5.5 0 0 1 0 1h-3a.5.5 0 0 1 0-1h3Zm-16-4a.5.5 0 0 1 0 1h-3a.5.5 0 0 1 0-1h3Zm16 0a.5.5 0 0 1 0 1h-3a.5.5 0 0 1 0-1h3Zm-16-4a.5.5 0 0 1 0 1h-3a.5.5 0 0 1 0-1h3Zm16 0a.5.5 0 0 1 0 1h-3a.5.5 0 0 1 0-1h3Zm0-5a.5.5 0 0 1 0 1h-19a.5.5 0 0 1 0-1h19Z"/>
  <path fill="#446ECA" d="M14 8a5 5 0 0 1 5 5v6.5a.5.5 0 0 1-1 0V13a4 4 0 0 0-8 0v6.5a.5.5 0 0 1-1 0V13a5 5 0 0 1 5-5Z"/>
</svg>
