<svg xmlns="http://www.w3.org/2000/svg" width="28" height="28" viewBox="0 0 28 28" stroke="currentColor" stroke-linecap="round" stroke-linejoin="round" fill="none">
    <path d="M16.5 4.5h-9a1 1 0 0 0-1 1v16.996a1 1 0 0 0 1 1h4m5-18.996 5 5m-5-5v4a1 1 0 0 0 1 1h4m0 0v2m-12-3h4m-4 4h9m-9 4h7" class="icon-stroke-gray-primary"/>
    <path d="M14.5 23.5H14a.5.5 0 0 0 .5.5v-.5Zm2 0v.5a.5.5 0 0 0 .354-.146L16.5 23.5Zm6.793-8.207.353-.354-.353.354Zm-.586-.586.354-.353-.354.353ZM14.5 21.5l-.354-.354A.5.5 0 0 0 14 21.5h.5Zm6.793-6.793-.354-.353.354.353ZM22 18l.354.354L22 18Zm1.293-1.293-.354-.353.354.353ZM14.5 23.5v.5h2v-1h-2v.5Zm8.793-8.207.353-.354-.585-.585-.354.353-.353.354.585.585.354-.353ZM14.5 21.5H14v2h1v-2h-.5Zm6.793-6.793-.354-.353-1.293 1.293L20 16l.354.354 1.292-1.293-.353-.354ZM20 16l-.354-.354-5.5 5.5.354.354.354.354 5.5-5.5L20 16Zm-3.5 7.5.354.354 5.5-5.5L22 18l-.354-.354-5.5 5.5.354.354ZM22 18l.354.354 1.292-1.293-.353-.354-.354-.353-1.293 1.293L22 18Zm-2-2-.354.354 2 2L22 18l.354-.354-2-2L20 16Zm2.707-1.293.354-.353a1.5 1.5 0 0 0-2.122 0l.354.353.353.354a.5.5 0 0 1 .708 0l.353-.354Zm.586.586-.354.354a.5.5 0 0 1 0 .707l.354.353.353.354a1.5 1.5 0 0 0 0-2.122l-.353.354Z" fill="currentColor" stroke="none" class="icon-fill-blue-primary"/>
</svg>
