<svg xmlns="http://www.w3.org/2000/svg" width="28" height="28" viewBox="0 0 28 28" stroke="currentColor" stroke-linecap="round" stroke-linejoin="round" fill="none">
    <path d="M16.5 4.5h-9a1 1 0 0 0-1 1v1m10-2 5 5m-5-5v4a1 1 0 0 0 1 1h4m0 0v12.996a1 1 0 0 1-1 1h-13a1 1 0 0 1-1-1V21.5M9.556 8.994 4.55 14a1 1 0 0 0 0 1.414l3.06 3.06a1 1 0 0 0 1.415 0l4.3-4.298a1 1 0 0 0 0-1.414l-3.77-3.768Zm0 0L8.5 8" class="icon-stroke-gray-primary"/>
    <path d="M14.5 16c.011.012 1.5 1.674 1.5 2.5a1.5 1.5 0 0 1-3 0c0-.829 1.5-2.5 1.5-2.5Zm-7.043-2.95 3.029.332a.934.934 0 0 1 .569 1.578L9.13 16.946a1 1 0 0 1-1.447-.012L6.084 15.23a1 1 0 0 1 .045-1.413l.535-.5a1 1 0 0 1 .793-.265Z" fill="currentColor" stroke="none" class="icon-fill-blue-primary"/>
</svg>
