<svg xmlns="http://www.w3.org/2000/svg" width="28" height="28" viewBox="0 0 28 28" stroke="currentColor" stroke-linecap="round" stroke-linejoin="round" fill="none">
    <path d="M16.5 4.5h-9a1 1 0 0 0-1 1v1m10-2 5 5m-5-5v4a1 1 0 0 0 1 1h4m0 0v12.996a1 1 0 0 1-1 1h-13a1 1 0 0 1-1-1V21.5" class="icon-gray-primary"/>
    <path d="M14.5 20a1.5 1.5 0 0 0 1.5-1.5c0-.828-1.5-2.5-1.5-2.5S13 17.672 13 18.5a1.5 1.5 0 0 0 1.5 1.5Z" class="icon-blue-primary"/>
    <path d="m5.5 9.5 4 4m-4.95.5 4.3-4.3a1 1 0 0 1 1.413 0l3.061 3.062a1 1 0 0 1 0 1.414l-4.299 4.299a1 1 0 0 1-1.414 0l-3.06-3.061a1 1 0 0 1 0-1.414Z" class="icon-blue-primary"/>
</svg>
