<svg xmlns="http://www.w3.org/2000/svg" width="28" height="28" fill="none" viewBox="0 0 28 28">
  <path fill="#383838" d="M9.89 6.007a.604.604 0 0 1 .577.24l.052.084 2.06 4.123.034.078a.601.601 0 0 1-.043.48l-.046.071-1.734 2.31-.04.061a.495.495 0 0 0-.033.441l.099.186c.12.205.304.466.545.764.316.389.707.815 1.118 1.226.41.411.837.802 1.226 1.117.397.322.728.544.95.645l.056.02a.52.52 0 0 0 .445-.093l2.311-1.734.072-.045a.6.6 0 0 1 .557-.011l4.123 2.061.085.052a.604.604 0 0 1 .246.485l-.007.093-.005.033-.01.032c-.465 1.572-1.254 2.667-2.282 3.32-1.025.653-2.23.83-3.463.684-2.444-.293-5.105-1.872-7.098-3.865-1.65-1.65-3.215-4.307-3.597-6.818-.192-1.262-.09-2.53.497-3.614.594-1.096 1.65-1.941 3.238-2.412l.033-.01.034-.004Zm-.112 1.08c-1.182.418-1.905 1.067-2.314 1.823-.452.835-.557 1.864-.387 2.986.344 2.26 1.783 4.73 3.315 6.262 1.895 1.896 4.362 3.322 6.51 3.578 1.065.127 2.024-.034 2.808-.533.718-.456 1.337-1.227 1.753-2.431l-3.593-1.797-2.112 1.585c-.392.294-.93.403-1.42.223l-.098-.039c-.34-.155-.75-.444-1.164-.78a17.397 17.397 0 0 1-1.305-1.186c-.43-.43-.845-.882-1.186-1.303-.293-.362-.55-.722-.714-1.035l-.064-.13a1.491 1.491 0 0 1 .076-1.353l.108-.164 1.584-2.114-1.797-3.591Zm5.989 2.444.187.033c.959.203 2.641 1.015 3.03 3.01l.035.21.005.1a.501.501 0 0 1-.97.14l-.024-.1-.027-.152c-.302-1.554-1.687-2.153-2.378-2.252l-.098-.024a.5.5 0 0 1 .24-.965Zm.734-2.117.257.06c1.316.352 3.636 1.58 4.314 4.29l.064.286.01.1a.5.5 0 0 1-.96.192l-.03-.097-.053-.234c-.56-2.23-2.487-3.27-3.583-3.566l-.215-.05a.501.501 0 0 1 .196-.98Z"/>
</svg>
