<svg xmlns="http://www.w3.org/2000/svg" width="28" height="28" fill="none" viewBox="0 0 28 28">
  <path fill="#383838" d="M6.5 6a.5.5 0 0 1 0 1h-1a.5.5 0 0 0-.5.5v13a.5.5 0 0 0 .5.5h1a.5.5 0 0 1 0 1h-1A1.5 1.5 0 0 1 4 20.5v-13A1.5 1.5 0 0 1 5.5 6h1Zm16 0A1.5 1.5 0 0 1 24 7.5v13a1.5 1.5 0 0 1-1.5 1.5h-1a.5.5 0 0 1 0-1h1a.5.5 0 0 0 .5-.5v-13a.5.5 0 0 0-.5-.5h-1a.5.5 0 0 1 0-1h1Z"/>
  <path fill="#446ECA" d="M8.806 7.968c.731-.552 1.788-.7 2.774-.064.803.518 1.499 1.517 1.969 3.106.398-.285.82-.53 1.266-.716l.198-.072c.2-.062.4-.09.596-.065a.984.984 0 0 1 .664.382 1.5 1.5 0 0 1 .265.627c.043.214.057.448.057.679 0 .43-.052.912-.103 1.347a13.66 13.66 0 0 1 1.071-.79c.289-.19.565-.352.75-.422a.753.753 0 0 1 .23-.05.516.516 0 0 1 .501.733.691.691 0 0 1-.126.2l-.067.073c-.27.286-.252.656-.085.935.086.142.18.205.224.22.009.004-.01.01.005-.005a.5.5 0 0 1 .726.688.978.978 0 0 1-1.063.261c-.323-.114-.58-.37-.748-.648a1.887 1.887 0 0 1-.26-.827c-.474.347-1 .783-1.41 1.214a.5.5 0 0 1-.862-.343c0-.355.06-.827.112-1.272.055-.465.105-.923.105-1.314a2.54 2.54 0 0 0-.038-.483.547.547 0 0 0-.075-.212c-.005-.006.002-.001-.002-.002a.427.427 0 0 0-.167.027l-.113.042a5.77 5.77 0 0 0-1.392.848c.024.119.049.24.07.364l.082.488c.37 2.399.239 4.143-.158 5.352-.418 1.278-1.167 2.034-1.985 2.189-.846.16-1.512-.336-1.897-.973-.385-.636-.557-1.495-.45-2.337l.025-.155c.151-.81.726-2.112 1.57-3.352a11.556 11.556 0 0 1 1.638-1.937c-.431-1.714-1.08-2.584-1.664-2.96-.606-.39-1.21-.297-1.632.022l-.081.068c-.32.282-.51.7-.46 1.18.05.483.35 1.098 1.145 1.727a.5.5 0 0 1-.622.784c-.945-.748-1.432-1.589-1.517-2.408a2.36 2.36 0 0 1 .793-2.034l.141-.115Zm4.134 4.914c-.384.412-.735.862-1.048 1.321-.754 1.108-1.227 2.195-1.383 2.83l-.046.241c-.082.643.056 1.27.312 1.694.256.422.563.563.856.508.32-.061.864-.427 1.221-1.518.341-1.04.481-2.673.088-5.076Z"/>
</svg>
