<svg xmlns="http://www.w3.org/2000/svg" width="28" height="28" fill="none" viewBox="0 0 28 28">
  <path fill="#383838" d="M12.5 15a1.5 1.5 0 0 1 1.5 1.5v5a1.5 1.5 0 0 1-1.5 1.5h-5A1.5 1.5 0 0 1 6 21.5v-5A1.5 1.5 0 0 1 7.5 15h5Zm-5 1a.5.5 0 0 0-.5.5v5a.5.5 0 0 0 .5.5h5a.5.5 0 0 0 .5-.5v-5a.5.5 0 0 0-.5-.5h-5Zm14 3a.5.5 0 0 1 0 1h-5a.5.5 0 0 1 0-1h5Zm-9-14A1.5 1.5 0 0 1 14 6.5v5a1.5 1.5 0 0 1-1.5 1.5h-5A1.5 1.5 0 0 1 6 11.5v-5A1.5 1.5 0 0 1 7.5 5h5Zm-5 1a.5.5 0 0 0-.5.5v5a.5.5 0 0 0 .5.5h5a.5.5 0 0 0 .5-.5v-5a.5.5 0 0 0-.5-.5h-5Zm14 3a.5.5 0 0 1 0 1h-5a.5.5 0 0 1 0-1h5Z"/>
  <path fill="#446ECA" d="M11.324 7.238a.5.5 0 0 1 .852.524l-2 3.25a.5.5 0 0 1-.786.085l-.04-.047-1.5-2-.052-.087a.5.5 0 0 1 .783-.588l.07.075 1.058 1.411 1.615-2.623Z"/>
</svg>
