<svg xmlns="http://www.w3.org/2000/svg" width="28" height="28" fill="none" viewBox="0 0 28 28">
  <path fill="#383838" d="M6.5 6a.5.5 0 0 1 0 1h-1a.5.5 0 0 0-.5.5v13a.5.5 0 0 0 .5.5h1a.5.5 0 0 1 0 1h-1A1.5 1.5 0 0 1 4 20.5v-13A1.5 1.5 0 0 1 5.5 6h1Zm16 0A1.5 1.5 0 0 1 24 7.5v13a1.5 1.5 0 0 1-1.5 1.5h-1a.5.5 0 0 1 0-1h1a.5.5 0 0 0 .5-.5v-13a.5.5 0 0 0-.5-.5h-1a.5.5 0 0 1 0-1h1Z"/>
  <path fill="#446ECA" d="M19.5 9.5A1.5 1.5 0 0 1 21 11v6a1.5 1.5 0 0 1-1.5 1.5h-11A1.5 1.5 0 0 1 7 17v-6a1.5 1.5 0 0 1 1.5-1.5h11Zm-11 1a.5.5 0 0 0-.5.5v6a.5.5 0 0 0 .5.5h11a.5.5 0 0 0 .5-.5v-6a.5.5 0 0 0-.5-.5h-11Zm1.598.51a.5.5 0 0 1 .255.136l.147.147.146-.146.077-.063A.5.5 0 0 1 11 11h.5a.5.5 0 0 1 0 1h-.293l-.207.207v3.586l.207.207h.293a.5.5 0 0 1 0 1H11a.5.5 0 0 1-.354-.146l-.146-.147-.146.146A.5.5 0 0 1 10 17h-.5a.5.5 0 0 1 0-1h.293l.207-.207v-3.586L9.793 12H9.5a.5.5 0 0 1 0-1h.5l.098.01Z"/>
</svg>
