<svg xmlns="http://www.w3.org/2000/svg" width="28" height="28" fill="none" viewBox="0 0 28 28">
  <path fill="#383838" d="M6.225 20.082a.5.5 0 0 1 .629.064l2 2 .064.079a.5.5 0 0 1-.693.693l-.079-.064L7 21.707V23.5a.5.5 0 0 0 .5.5h2a.5.5 0 0 1 0 1h-2A1.5 1.5 0 0 1 6 23.5v-1.793l-1.146 1.146a.5.5 0 1 1-.708-.707l2-2 .079-.064ZM22.5 9a1.5 1.5 0 0 1 1.5 1.5v13a1.5 1.5 0 0 1-1.5 1.5h-10a1.5 1.5 0 0 1-1.5-1.5v-13A1.5 1.5 0 0 1 12.5 9h10Zm-10 1a.5.5 0 0 0-.5.5v13a.5.5 0 0 0 .5.5h10a.5.5 0 0 0 .5-.5v-13a.5.5 0 0 0-.5-.5h-10Zm2.75-7c.966 0 1.75.784 1.75 1.75V6.5a.5.5 0 0 1-1 0V4.75a.75.75 0 0 0-.75-.75h-9.5a.75.75 0 0 0-.75.75v12.5c0 .414.336.75.75.75H8.5a.5.5 0 0 1 0 1H5.75A1.75 1.75 0 0 1 4 17.25V4.75C4 3.784 4.784 3 5.75 3h9.5ZM9.5 14a.5.5 0 0 1 0 1h-2a.5.5 0 0 1 0-1h2Zm0-4a.5.5 0 0 1 0 1h-2a.5.5 0 0 1 0-1h2Zm11-7A1.5 1.5 0 0 1 22 4.5v1.793l1.146-1.147a.5.5 0 1 1 .707.708l-2 2a.5.5 0 0 1-.707 0l-2-2-.064-.079a.5.5 0 0 1 .693-.693l.079.064L21 6.293V4.5a.5.5 0 0 0-.5-.5h-2a.5.5 0 0 1 0-1h2Zm-7 3a.5.5 0 0 1 0 1h-6a.5.5 0 0 1 0-1h6Z"/>
  <path fill="#446ECA" d="M20.787 14.09a.5.5 0 0 0-.63.046l-.066.077-3.126 4.464-2.081-2.497-.072-.07a.5.5 0 0 0-.752.626l.056.084 2.5 3a.501.501 0 0 0 .793-.033l3.5-5 .05-.089a.5.5 0 0 0-.172-.607Z"/>
</svg>
