<svg xmlns="http://www.w3.org/2000/svg" width="28" height="28" fill="none" viewBox="0 0 28 28">
  <path fill="#383838" d="M21.5 4A1.5 1.5 0 0 1 23 5.5v17a1.5 1.5 0 0 1-1.5 1.5h-12A1.5 1.5 0 0 1 8 22.5v-17A1.5 1.5 0 0 1 9.5 4h12Zm-12 1a.5.5 0 0 0-.5.5v17a.5.5 0 0 0 .5.5h12a.5.5 0 0 0 .5-.5v-17a.5.5 0 0 0-.5-.5h-12Zm6 14a.5.5 0 0 1 0 1h-4a.5.5 0 0 1 0-1h4Zm4-3a.5.5 0 0 1 0 1h-8a.5.5 0 0 1 0-1h8Zm0-3a.5.5 0 0 1 0 1h-8a.5.5 0 0 1 0-1h8Zm0-3a.5.5 0 0 1 0 1h-8a.5.5 0 0 1 0-1h8Zm0-3a.5.5 0 0 1 0 1h-8a.5.5 0 0 1 0-1h8Z"/>
  <path fill="#446ECA" d="M6.146 18a.854.854 0 0 1 .604 1.457l-.663.662A1.5 1.5 0 0 1 5.5 23h-1a.5.5 0 0 1 0-1h1a.5.5 0 0 0 0-1H5a.5.5 0 0 1-.354-.854L5.793 19H4.5a.5.5 0 0 1 0-1h1.646ZM5.5 11A1.5 1.5 0 0 1 7 12.5v.086a1.5 1.5 0 0 1-.34.95l-.1.11L5.208 15H6.5a.5.5 0 1 1 0 1H4.853a.853.853 0 0 1-.848-.767L4 15.146l.004-.084a.853.853 0 0 1 .246-.519l1.603-1.604.063-.076A.5.5 0 0 0 6 12.586V12.5a.5.5 0 0 0-.99-.1l-.02.2a.5.5 0 0 1-.99-.1A1.5 1.5 0 0 1 5.5 11Zm-.354-6.854A.5.5 0 0 1 6 4.5v4a.5.5 0 0 1-1 0V5.707l-.647.647a.5.5 0 1 1-.707-.708l1.5-1.5Z"/>
</svg>
