<svg xmlns="http://www.w3.org/2000/svg" width="28" height="28" fill="none" viewBox="0 0 28 28">
  <path fill="#969696" d="M4.5 20a.5.5 0 0 1 .5.5v2a.5.5 0 0 0 .5.5h2a.5.5 0 0 1 0 1h-2A1.5 1.5 0 0 1 4 22.5v-2a.5.5 0 0 1 .5-.5Zm11 3a.5.5 0 0 1 0 1h-4a.5.5 0 0 1 0-1h4Zm7-3a.5.5 0 0 1 .5.5v2a1.5 1.5 0 0 1-1.5 1.5h-2a.5.5 0 0 1 0-1h2a.5.5 0 0 0 .5-.5v-2a.5.5 0 0 1 .5-.5Zm-18-8a.5.5 0 0 1 .5.5v4a.5.5 0 0 1-1 0v-4a.5.5 0 0 1 .5-.5Zm18 0a.5.5 0 0 1 .5.5v4a.5.5 0 0 1-1 0v-4a.5.5 0 0 1 .5-.5Zm-15-7a.5.5 0 0 1 0 1h-2a.5.5 0 0 0-.5.5v2a.5.5 0 0 1-1 0v-2A1.5 1.5 0 0 1 5.5 5h2Zm14 0A1.5 1.5 0 0 1 23 6.5v2a.5.5 0 0 1-1 0v-2a.5.5 0 0 0-.5-.5h-2a.5.5 0 0 1 0-1h2Zm-6 0a.5.5 0 0 1 0 1h-4a.5.5 0 0 1 0-1h4Z"/>
  <path fill="#446ECA" d="M12 15a1 1 0 0 1 1 1v5a1 1 0 0 1-1 1H7a1 1 0 0 1-1-1v-5a1 1 0 0 1 1-1h5Zm8 0a1 1 0 0 1 1 1v5a1 1 0 0 1-1 1h-5a1 1 0 0 1-1-1v-5a1 1 0 0 1 1-1h5ZM7 21h5v-5H7v5Zm8 0h5v-5h-5v5ZM12 7a1 1 0 0 1 1 1v5a1 1 0 0 1-1 1H7a1 1 0 0 1-1-1V8a1 1 0 0 1 1-1h5Zm8 0a1 1 0 0 1 1 1v5a1 1 0 0 1-1 1h-5a1 1 0 0 1-1-1V8a1 1 0 0 1 1-1h5ZM7 13h5V8H7v5Zm8 0h5V8h-5v5Z"/>
</svg>
