<svg xmlns="http://www.w3.org/2000/svg" width="28" height="28" viewBox="0 0 28 28" stroke="currentColor" stroke-linecap="round" stroke-linejoin="round" fill="none">
    <path d="M7.5 7.5h8m-8 3h8m-8 3h8m-8 3h8m-8 3h4m-6-15h12a1 1 0 0 1 1 1v17a1 1 0 0 1-1 1h-12a1 1 0 0 1-1-1v-17a1 1 0 0 1 1-1Z" class="icon-stroke-gray-primary"/>
    <path d="m20 6 1.5-1.5v4m1 7h-1.646a.354.354 0 0 1-.25-.604l1.603-1.603a1 1 0 0 0 .293-.707V12.5a1 1 0 1 0-2 0m0 6h1.646a.354.354 0 0 1 .25.604L21 20.5h.5a1 1 0 1 1 0 2h-1" class="icon-stroke-blue-primary"/>
</svg>
