<svg xmlns="http://www.w3.org/2000/svg" width="28" height="28" fill="none" viewBox="0 0 28 28">
  <path fill="#383838" fill-rule="evenodd" d="M7 6.5A1.5 1.5 0 0 1 8.5 5h10.996a1.5 1.5 0 0 1 1.5 1.5l.002 3.8 1.594 1.693A1.5 1.5 0 0 1 23 13.022V21.5a1.5 1.5 0 0 1-1.5 1.5h-15A1.5 1.5 0 0 1 5 21.5v-8.586c0-.398.158-.78.44-1.06L7 10.293V6.5Zm14 6.715-.001-1.456.865.92a.55.55 0 0 1 .06.077.501.501 0 0 0-.159.052l-.765.407Zm-1 .531L19.996 6.5a.5.5 0 0 0-.5-.5H8.5a.5.5 0 0 0-.5.5v7.246l6 3.188 6-3.188Zm-13-.53v-1.509l-.854.854a.5.5 0 0 0-.118.19.5.5 0 0 1 .207.057l.765.407Zm-1 .6V21.5a.5.5 0 0 0 .5.5h15a.5.5 0 0 0 .5-.5v-7.684l-7.765 4.126a.5.5 0 0 1-.47 0L6 13.816ZM9.875 9.5a.5.5 0 0 1 .5-.5h6.25a.5.5 0 0 1 0 1h-6.25a.5.5 0 0 1-.5-.5ZM10.5 12a.5.5 0 0 0 0 1h3.75a.5.5 0 0 0 0-1H10.5Z" clip-rule="evenodd"/>
</svg>
