<svg xmlns="http://www.w3.org/2000/svg" width="28" height="28" viewBox="0 0 28 28" stroke="currentColor" stroke-linecap="round" stroke-linejoin="round" fill="none">
    <path d="M3.5 22.5h21m-21-18h21m-21 13h2m17 0h2m-21-4h2m17 0h2m-21-4h2m17 0h2" class="icon-stroke-gray-primary"/>
    <path d="M15.808 8.473 15.04 12.5l-4.498.014c-1.14 0-1.253-.958-1.255-1.875a.621.621 0 0 0-.62-.625.652.652 0 0 0-.643.625c-.06 1.215-.183 2.269.976 3.085l.003 5.02a1.256 1.256 0 0 0 2.512.011L11.54 16l4.002.5-.009 2.262a1.233 1.233 0 1 0 2.467.005v-5.89c0-.173.14-.313.313-.313h.777c1.055 0 1.91-.299 1.91-1.354v-.573a.572.572 0 0 0-.573-.573h-.835s-.211-.684-.426-.899a1.146 1.146 0 0 0-.81-.337l-1.132-.064-.403-.537a.566.566 0 0 0-1.013.246Z" fill="currentColor" stroke="none" class="icon-fill-blue-primary"/>
</svg>
