<svg xmlns="http://www.w3.org/2000/svg" width="28" height="28" fill="none" viewBox="0 0 28 28">
  <path fill="#383838" d="M22.5 7A1.5 1.5 0 0 1 24 8.5v11a1.5 1.5 0 0 1-1.5 1.5h-17A1.5 1.5 0 0 1 4 19.5v-11A1.5 1.5 0 0 1 5.5 7h17Zm-17 1a.5.5 0 0 0-.5.5v11a.5.5 0 0 0 .5.5h17a.5.5 0 0 0 .5-.5v-11a.5.5 0 0 0-.5-.5h-17ZM15 9a1 1 0 0 1 1 1v8a1 1 0 0 1-1 1H7a1 1 0 0 1-1-1v-8a1 1 0 0 1 1-1h8Zm-8 9h8v-8H7v8Z"/>
  <path fill="#446ECA" d="M19.098 10.01a.5.5 0 0 1 .256.136l.146.147.146-.146.077-.063A.5.5 0 0 1 20 10h.5a.5.5 0 0 1 0 1h-.293l-.207.207v5.586l.207.207h.293a.5.5 0 0 1 0 1H20a.5.5 0 0 1-.354-.146l-.146-.147-.146.146A.5.5 0 0 1 19 18h-.5a.5.5 0 1 1 0-1h.293l.207-.207v-5.586L18.793 11H18.5a.5.5 0 1 1 0-1h.5l.098.01Zm-5.96 2.144a.5.5 0 0 1 .723.692l-3.357 3.5a.5.5 0 0 1-.618.083l-.08-.06-1.643-1.5a.5.5 0 1 1 .674-.738l1.282 1.17 3.02-3.147Z"/>
</svg>
