<svg xmlns="http://www.w3.org/2000/svg" width="28" height="28" fill="none" viewBox="0 0 28 28">
  <path fill="#383838" d="M22.5 6A1.5 1.5 0 0 1 24 7.5v11a1.5 1.5 0 0 1-1.5 1.5h-6a.5.5 0 0 1 0-1h6a.5.5 0 0 0 .5-.5v-11a.5.5 0 0 0-.5-.5h-17a.5.5 0 0 0-.5.5v7a.5.5 0 0 1-1 0v-7A1.5 1.5 0 0 1 5.5 6h17Z"/>
  <path fill="#446ECA" d="M7.225 16.082a.5.5 0 0 1 .693.693l-.065.079L5.707 19H13.5a.5.5 0 1 1 0 1H5.707l2.146 2.146a.5.5 0 1 1-.707.707l-3-3a.5.5 0 0 1 0-.707l3-3 .079-.064Zm.873-7.072a.5.5 0 0 1 .255.136l.147.147.146-.147.077-.062A.5.5 0 0 1 9 9h.5a.5.5 0 1 1 0 1h-.293L9 10.207V14.5a.5.5 0 0 1-1 0v-4.293L7.793 10H7.5a.5.5 0 0 1 0-1H8l.098.01Z"/>
</svg>
