<svg xmlns="http://www.w3.org/2000/svg" width="28" height="28" fill="none" viewBox="0 0 28 28">
  <path fill="#969696" d="M4.5 20a.5.5 0 0 1 .5.5v2a.5.5 0 0 0 .5.5h2a.5.5 0 0 1 0 1h-2A1.5 1.5 0 0 1 4 22.5v-2a.5.5 0 0 1 .5-.5Zm11 3a.5.5 0 0 1 0 1h-4a.5.5 0 0 1 0-1h4Zm7-3a.5.5 0 0 1 .49.4l.01.1v2a1.5 1.5 0 0 1-1.5 1.5h-2a.5.5 0 0 1 0-1h2a.5.5 0 0 0 .5-.5v-2l.01-.1a.5.5 0 0 1 .49-.4Zm-9-1a.5.5 0 0 1 .5.5v2a.5.5 0 0 1-1 0v-2a.5.5 0 0 1 .5-.5Zm-9-7a.5.5 0 0 1 .49.4l.01.1v4a.5.5 0 0 1-1 0v-4l.01-.1a.5.5 0 0 1 .49-.4Zm9 0a.5.5 0 0 1 .5.5V14h1.5a.5.5 0 0 1 0 1H14v1.5a.5.5 0 0 1-1 0V15h-1.5a.5.5 0 0 1 0-1H13v-1.5a.5.5 0 0 1 .5-.5Zm9 0a.5.5 0 0 1 .49.4l.01.1v4a.5.5 0 0 1-1 0v-4l.01-.1a.5.5 0 0 1 .49-.4Zm-14 2a.5.5 0 0 1 0 1h-2a.5.5 0 0 1 0-1h2Zm12 0a.5.5 0 0 1 0 1h-2a.5.5 0 0 1 0-1h2Zm-7-7a.5.5 0 0 1 .5.5v2a.5.5 0 0 1-1 0v-2a.5.5 0 0 1 .5-.5Zm-6-2a.5.5 0 0 1 0 1h-2a.5.5 0 0 0-.5.5v2a.5.5 0 0 1-1 0v-2A1.5 1.5 0 0 1 5.5 5h2Zm14 0A1.5 1.5 0 0 1 23 6.5v2a.5.5 0 0 1-1 0v-2a.5.5 0 0 0-.5-.5h-2a.5.5 0 0 1 0-1h2Zm-6 0a.5.5 0 0 1 0 1h-4a.5.5 0 0 1 0-1h4Z"/>
</svg>
