<svg xmlns="http://www.w3.org/2000/svg" width="28" height="28" viewBox="0 0 28 28">
  <g class="documenteditor/.2.5x/big/btn-combo-box" fill="none">
    <path d="M8.5 16a.5.5 0 0 0 0 1v-1Zm5 1a.5.5 0 0 0 0-1v1Zm-5 2a.5.5 0 0 0 0 1v-1Zm5 1a.5.5 0 0 0 0-1v1Zm2 2.5V22h-9v1h9v-.5Zm-10-1H6v-8H5v8h.5Zm11-8H16v8h1v-8h-.5Zm-8 3v.5h5v-1h-5v.5Zm0 3v.5h5v-1h-5v.5Zm-2 3V22a.5.5 0 0 1-.5-.5H5A1.5 1.5 0 0 0 6.5 23v-.5Zm9 0v.5a1.5 1.5 0 0 0 1.5-1.5h-1a.5.5 0 0 1-.5.5v.5Z" fill="currentColor" class="icon-gray-primary"/>
    <path stroke="currentColor" stroke-linecap="round" d="M16.5 13.5h6a1 1 0 0 0 1-1v-5a1 1 0 0 0-1-1h-6m0 7h-11a1 1 0 0 1-1-1v-5a1 1 0 0 1 1-1h11m0 7v-7m5 3-1.394 1.394a.15.15 0 0 1-.212 0L18.5 9.5" class="icon-blue-primary"/>
</svg>
