<svg xmlns="http://www.w3.org/2000/svg" width="28" height="28" fill="none" viewBox="0 0 28 28">
  <path fill="#969696" d="M5.5 20a.5.5 0 0 1 .5.5v2a.5.5 0 0 0 .5.5h2a.5.5 0 0 1 0 1h-2A1.5 1.5 0 0 1 5 22.5v-2a.5.5 0 0 1 .5-.5Zm11 3a.5.5 0 0 1 0 1h-4a.5.5 0 0 1 0-1h4Zm7-3a.5.5 0 0 1 .5.5v2a1.5 1.5 0 0 1-1.5 1.5h-2a.5.5 0 0 1 0-1h2a.5.5 0 0 0 .5-.5v-2a.5.5 0 0 1 .5-.5Zm-18-8a.5.5 0 0 1 .5.5v4a.5.5 0 0 1-1 0v-4a.5.5 0 0 1 .5-.5Zm18 0a.5.5 0 0 1 .5.5v4a.5.5 0 0 1-1 0v-4a.5.5 0 0 1 .5-.5Zm-14 2a.5.5 0 0 1 0 1h-2a.5.5 0 0 1 0-1h2Zm7 0a.5.5 0 0 1 0 1h-4a.5.5 0 0 1 0-1h4Zm5 0a.5.5 0 0 1 0 1h-2a.5.5 0 0 1 0-1h2Zm-13-9a.5.5 0 0 1 0 1h-2a.5.5 0 0 0-.5.5v2a.5.5 0 0 1-1 0v-2A1.5 1.5 0 0 1 6.5 5h2Zm14 0A1.5 1.5 0 0 1 24 6.5v2a.5.5 0 0 1-1 0v-2a.5.5 0 0 0-.5-.5h-2a.5.5 0 0 1 0-1h2Zm-6 0a.5.5 0 0 1 0 1h-4a.5.5 0 0 1 0-1h4Z"/>
  <path fill="#446ECA" d="M24 22.5a1.5 1.5 0 0 1-1.5 1.5h-2a.5.5 0 1 1 0-1h2a.5.5 0 0 0 .5-.5v-16a.5.5 0 0 0-.5-.5h-2a.5.5 0 1 1 0-1h2A1.5 1.5 0 0 1 24 6.5v16Z"/>
</svg>
