<svg xmlns="http://www.w3.org/2000/svg" width="28" height="28" viewBox="0 0 28 28" stroke="currentColor" stroke-linecap="round" stroke-linejoin="round" fill="none">
    <path d="M9.5 18.5h-4a1 1 0 0 1-1-1v-10a1 1 0 0 1 1-1h4m0 12v2a1 1 0 0 0 1 1h12a1 1 0 0 0 1-1v-13a1 1 0 0 0-1-1h-13m0 12v-12m-3 3h1m-1 3h1m-1 3h1m6-3h6a1 1 0 0 0 1-1v-1a1 1 0 0 0-1-1h-6a1 1 0 0 0-1 1v1a1 1 0 0 0 1 1Zm0 6h6a1 1 0 0 0 1-1v-1a1 1 0 0 0-1-1h-6a1 1 0 0 0-1 1v1a1 1 0 0 0 1 1Z" class="icon-stroke-gray-primary"/>
</svg>
