<svg xmlns="http://www.w3.org/2000/svg" width="28" height="28" viewBox="0 0 28 28" stroke="currentColor" stroke-linecap="round" stroke-linejoin="round" fill="none">
    <path d="M11.5 6.5h-6a1 1 0 0 0-1 1v13a1 1 0 0 0 1 1h6m6-5a1 1 0 0 1 1-1h4a1 1 0 0 1 1 1v6a1 1 0 0 1-1 1h-4a1 1 0 0 1-1-1m0-11a1 1 0 0 0 1 1h4a1 1 0 0 0 1-1v-6a1 1 0 0 0-1-1h-4a1 1 0 0 0-1 1" class="icon-stroke-gray-primary"/>
    <path d="m14.5 6.5-2 2m0 0 2 2m-2-2h5m-3 9-2 2m0 0 2 2m-2-2h5" class="icon-stroke-blue-primary"/>
</svg>
