<svg xmlns="http://www.w3.org/2000/svg" width="28" height="28" fill="none" viewBox="0 0 28 28">
  <path fill="#383838" d="M22.5 6A1.5 1.5 0 0 1 24 7.5v11a1.5 1.5 0 0 1-1.5 1.5h-6a.5.5 0 0 1 0-1h6a.5.5 0 0 0 .5-.5v-11a.5.5 0 0 0-.5-.5h-17a.5.5 0 0 0-.5.5v7a.5.5 0 0 1-1 0v-7A1.5 1.5 0 0 1 5.5 6h17Zm-7 9a.5.5 0 0 1 0 1h-5a.5.5 0 0 1 0-1h5Zm4-5a.5.5 0 0 1 0 1h-11a.5.5 0 0 1 0-1h11Z"/>
  <path fill="#446ECA" d="M7.225 16.082a.5.5 0 0 1 .693.694l-.064.078L5.707 19H13.5a.5.5 0 0 1 0 1H5.707l2.147 2.147a.5.5 0 1 1-.707.707l-3-3a.5.5 0 0 1 0-.707l3-3 .078-.065Z"/>
</svg>
