<svg xmlns="http://www.w3.org/2000/svg" width="28" height="28" fill="none" viewBox="0 0 28 28">
  <path fill="#383838" d="M8.615 10.014a.496.496 0 0 1 .109.039l.776.388.776-.388.109-.04A.5.5 0 0 1 10.5 10h1a.5.5 0 0 1 0 1h-.882l-.618.309v6.381l.618.31h.882a.5.5 0 0 1 0 1h-1a.5.5 0 0 1-.115-.014l-.109-.039-.776-.388-.776.388A.5.5 0 0 1 8.5 19h-1a.5.5 0 0 1 0-1h.882L9 17.69v-6.38L8.382 11H7.5a.5.5 0 0 1 0-1h1l.115.014Z"/>
  <path fill="#446ECA" d="M22.25 7c.966 0 1.75.784 1.75 1.75v11.5A1.75 1.75 0 0 1 22.25 22H5.75A1.75 1.75 0 0 1 4 20.25V8.75C4 7.784 4.784 7 5.75 7h16.5ZM5.75 8a.75.75 0 0 0-.75.75v11.5c0 .414.336.75.75.75h16.5a.75.75 0 0 0 .75-.75V8.75a.75.75 0 0 0-.75-.75H5.75Z"/>
</svg>
