<svg xmlns="http://www.w3.org/2000/svg" width="28" height="28" fill="none" viewBox="0 0 28 28">
  <path fill="#969696" d="M13.5 19a.5.5 0 0 1 .5.5v2a.5.5 0 0 1-1 0v-2a.5.5 0 0 1 .5-.5Zm0-7a.5.5 0 0 1 .5.5V14h1.5a.5.5 0 0 1 0 1H14v1.5a.5.5 0 0 1-1 0V15h-1.5a.5.5 0 0 1 0-1H13v-1.5a.5.5 0 0 1 .5-.5Zm-5 2a.5.5 0 0 1 0 1h-2a.5.5 0 0 1 0-1h2Zm12 0a.5.5 0 0 1 0 1h-2a.5.5 0 0 1 0-1h2Zm-7-7a.5.5 0 0 1 .5.5v2a.5.5 0 0 1-1 0v-2a.5.5 0 0 1 .5-.5Z"/>
  <path fill="#446ECA" d="M4 6.5A1.5 1.5 0 0 1 5.5 5h16A1.5 1.5 0 0 1 23 6.5v16a1.5 1.5 0 0 1-1.5 1.5h-16A1.5 1.5 0 0 1 4 22.5v-16Zm1 16a.5.5 0 0 0 .5.5h16a.5.5 0 0 0 .5-.5v-16a.5.5 0 0 0-.5-.5h-16l-.1.01a.5.5 0 0 0-.4.49v16Z"/>
</svg>
