<svg xmlns="http://www.w3.org/2000/svg" width="28" height="28" viewBox="0 0 28 28" stroke="currentColor" stroke-linecap="round" stroke-linejoin="round" fill="none">
    <path d="M6.5 6.5h-1a1 1 0 0 0-1 1v13a1 1 0 0 0 1 1h1m15-15h1a1 1 0 0 1 1 1v13a1 1 0 0 1-1 1h-1" class="icon-stroke-gray-primary"/>
    <path d="M9.7 12.133c-1.74-1.378-1.575-2.91-.705-3.675 1.1-.968 3.331-.722 4.264 3.418m0 0c.046.204.088.417.127.64.92 5.21-.523 7.235-1.662 7.45-1.139.216-1.947-1.27-1.758-2.754.136-1.06 1.388-3.673 3.293-5.336Zm0 0c.535-.467 1.121-.859 1.748-1.12 1.74-.727.87 2.405.87 3.674 1.17-1.234 3.189-2.447 2.61-1.837-.922.974.234 2.51.871 1.837" class="icon-stroke-blue-primary"/>
</svg>
