<svg xmlns="http://www.w3.org/2000/svg" width="28" height="28" fill="none" viewBox="0 0 28 28">
  <path fill="#383838" d="M13.469 4.228a1.5 1.5 0 0 1 1.23.075l8.5 4.473c.492.26.8.77.801 1.328V20.5a1.5 1.5 0 0 1-1.5 1.5h-17a1.5 1.5 0 0 1-1.492-1.347L4 20.5V10.104a1.5 1.5 0 0 1 .802-1.328l8.5-4.473.167-.075Zm.412.917-.113.043-8.5 4.473a.501.501 0 0 0-.268.443V20.5l.01.1a.5.5 0 0 0 .49.4h17a.5.5 0 0 0 .5-.5V10.104a.501.501 0 0 0-.268-.443l-8.5-4.473a.5.5 0 0 0-.351-.043ZM11.313 12a.6.6 0 0 1 .5.933L8.434 18H11.5a.5.5 0 0 1 0 1H7.687a.6.6 0 0 1-.5-.933L10.566 13H7.5a.5.5 0 1 1 0-1h3.813Zm2.187 0a.5.5 0 0 1 .5.5v6a.5.5 0 1 1-1 0v-6a.5.5 0 0 1 .5-.5Zm5.5 0a2 2 0 0 1 0 4h-2v2.5a.5.5 0 1 1-1 0v-5.9a.6.6 0 0 1 .6-.6H19Zm-2 3h2a1 1 0 1 0 0-2h-2v2Z"/>
</svg>
