<svg xmlns="http://www.w3.org/2000/svg" width="28" height="28" fill="none" viewBox="0 0 28 28">
  <path fill="#383838" d="M19.1 16.11c.98 0 1.883.335 2.59.898l.138.115.07.074a.501.501 0 0 1-.643.74l-.083-.06-.214-.169a3.153 3.153 0 0 0-1.858-.599c-1.726 0-3.1 1.357-3.1 3 0 1.644 1.375 3 3.1 3 .798 0 1.524-.291 2.072-.768l.083-.059a.5.5 0 0 1 .573.814l-.139.115a4.15 4.15 0 0 1-2.59.898c-2.25 0-4.099-1.778-4.099-4s1.849-4 4.1-4ZM6.5 13a.5.5 0 0 1 .5.5v3.855a4 4 0 1 1 0 5.288v.857a.5.5 0 0 1-1 0v-10a.5.5 0 0 1 .5-.5Zm3.5 4a3 3 0 1 0 0 6 3 3 0 0 0 0-6Zm3.5-13a.5.5 0 0 1 .5.5v7a.5.5 0 0 1-1 0v-.856a4 4 0 1 1 0-5.288V4.5a.5.5 0 0 1 .5-.5ZM10 5a3 3 0 1 0 0 6 3 3 0 0 0 0-6Zm11.5 3a.5.5 0 0 1 0 1h-5a.5.5 0 0 1 0-1h5Z"/>
</svg>
