<svg xmlns="http://www.w3.org/2000/svg" width="28" height="28" fill="none" viewBox="0 0 28 28">
  <path fill="#383838" d="M22.5 7A1.5 1.5 0 0 1 24 8.5v11a1.5 1.5 0 0 1-1.5 1.5h-17A1.5 1.5 0 0 1 4 19.5v-11A1.5 1.5 0 0 1 5.5 7h17ZM5 19.5a.5.5 0 0 0 .5.5h17a.5.5 0 0 0 .5-.5V12H5v7.5Zm5.5-5.5a1.5 1.5 0 0 1 1.5 1.5v1a1.5 1.5 0 0 1-1.5 1.5h-2A1.5 1.5 0 0 1 7 16.5v-1A1.5 1.5 0 0 1 8.5 14h2Zm-2 1a.5.5 0 0 0-.5.5v1a.5.5 0 0 0 .5.5h2a.5.5 0 0 0 .5-.5v-1a.5.5 0 0 0-.5-.5h-2Zm-3-7a.5.5 0 0 0-.5.5V11h18V8.5a.5.5 0 0 0-.5-.5h-17Z"/>
</svg>
