<svg xmlns="http://www.w3.org/2000/svg" width="28" height="28" fill="none" viewBox="0 0 28 28">
  <path fill="#383838" fill-rule="evenodd" d="M7.5 5a.5.5 0 0 0-.5.5v16.996a.5.5 0 0 0 .5.5h12a.5.5 0 0 0 .5-.5V10h-3.5A1.5 1.5 0 0 1 15 8.5V5H7.5Zm8.5.707L19.293 9H16.5a.5.5 0 0 1-.5-.5V5.707ZM6 5.5A1.5 1.5 0 0 1 7.5 4h8.207l.147.146 5 5 .146.147v13.203a1.5 1.5 0 0 1-1.5 1.5h-12a1.5 1.5 0 0 1-1.5-1.5V5.5Z" clip-rule="evenodd"/>
  <path fill="#446ECA" fill-rule="evenodd" d="M13.5 11a.5.5 0 0 1 .468.324l2.25 6 .75 2a.5.5 0 0 1-.936.352L15.403 18h-3.806l-.629 1.676a.5.5 0 0 1-.936-.352l.75-2 2.25-6A.5.5 0 0 1 13.5 11Zm-1.528 6h3.056L13.5 12.924 11.972 17Z" clip-rule="evenodd"/>
</svg>
