<svg xmlns="http://www.w3.org/2000/svg" width="28" height="28" fill="none" viewBox="0 0 28 28">
  <path fill="#969696" d="M23.5 9a.5.5 0 0 1-.5-.5v-2a.5.5 0 0 0-.5-.5h-2a.5.5 0 1 1 0-1h2A1.5 1.5 0 0 1 24 6.5v2a.5.5 0 0 1-.5.5Zm-11-3a.5.5 0 0 1 0-1h4a.5.5 0 0 1 0 1h-4Zm-7 3a.5.5 0 0 1-.5-.5v-2A1.5 1.5 0 0 1 6.5 5h2a.5.5 0 0 1 0 1h-2a.5.5 0 0 0-.5.5v2a.5.5 0 0 1-.5.5Zm18 8a.5.5 0 0 1-.5-.5v-4a.5.5 0 0 1 1 0v4a.5.5 0 0 1-.5.5Zm-18 0a.5.5 0 0 1-.5-.5v-4a.5.5 0 0 1 1 0v4a.5.5 0 0 1-.5.5Zm14-2a.5.5 0 0 1 0-1h2a.5.5 0 0 1 0 1h-2Zm-7 0a.5.5 0 0 1 0-1h4a.5.5 0 0 1 0 1h-4Zm-5 0a.5.5 0 0 1 0-1h2a.5.5 0 0 1 0 1h-2Zm13 9a.5.5 0 1 1 0-1h2a.5.5 0 0 0 .5-.5v-2a.5.5 0 1 1 1 0v2a1.5 1.5 0 0 1-1.5 1.5h-2Zm-14 0A1.5 1.5 0 0 1 5 22.5v-2a.5.5 0 0 1 1 0v2a.5.5 0 0 0 .5.5h2a.5.5 0 0 1 0 1h-2Zm6 0a.5.5 0 0 1 0-1h4a.5.5 0 0 1 0 1h-4Z"/>
</svg>
