<svg xmlns="http://www.w3.org/2000/svg" width="28" height="28" fill="none" viewBox="0 0 28 28">
  <path fill="#383838" d="M22.653 6.008A1.5 1.5 0 0 1 24 7.5v13a1.5 1.5 0 0 1-1.5 1.5h-12A1.5 1.5 0 0 1 9 20.5V19H5.5A1.5 1.5 0 0 1 4 17.5v-10A1.5 1.5 0 0 1 5.5 6h17l.153.008ZM10 20.5a.5.5 0 0 0 .5.5h12a.5.5 0 0 0 .5-.5v-13a.5.5 0 0 0-.4-.49L22.5 7H10v13.5ZM5.5 7a.5.5 0 0 0-.5.5v10a.5.5 0 0 0 .5.5H9V7H5.5Z"/>
  <path fill="#446ECA" d="M19.5 15a1.5 1.5 0 0 1 1.5 1.5v1a1.5 1.5 0 0 1-1.5 1.5h-6a1.5 1.5 0 0 1-1.5-1.5v-1a1.5 1.5 0 0 1 1.5-1.5h6Zm-6 1a.5.5 0 0 0-.5.5v1a.5.5 0 0 0 .5.5h6a.5.5 0 0 0 .5-.5v-1a.5.5 0 0 0-.5-.5h-6Zm-6-1a.5.5 0 0 1 0 1h-1a.5.5 0 0 1 0-1h1Zm0-3a.5.5 0 0 1 0 1h-1a.5.5 0 0 1 0-1h1Zm12-3a1.5 1.5 0 0 1 1.5 1.5v1a1.5 1.5 0 0 1-1.5 1.5h-6a1.5 1.5 0 0 1-1.5-1.5v-1A1.5 1.5 0 0 1 13.5 9h6Zm-6 1a.5.5 0 0 0-.5.5v1a.5.5 0 0 0 .5.5h6a.5.5 0 0 0 .5-.5v-1a.5.5 0 0 0-.5-.5h-6Zm-6-1a.5.5 0 0 1 0 1h-1a.5.5 0 0 1 0-1h1Z"/>
</svg>
