<svg xmlns="http://www.w3.org/2000/svg" width="28" height="28" fill="none" viewBox="0 0 28 28">
  <path fill="#383838" d="M22.5 15a1.5 1.5 0 0 1 1.5 1.5v6a1.5 1.5 0 0 1-1.347 1.492L22.5 24h-4a1.5 1.5 0 0 1-1.5-1.5.5.5 0 0 1 .99-.1l.02.2a.5.5 0 0 0 .49.4h4l.1-.01a.5.5 0 0 0 .4-.49v-6a.5.5 0 0 0-.5-.5h-4a.5.5 0 0 0-.49.4l-.02.2a.5.5 0 0 1-.99-.1 1.5 1.5 0 0 1 1.5-1.5h4Zm-11-9a.5.5 0 0 1 0 1h-6a.5.5 0 0 0-.5.5v13a.5.5 0 0 0 .5.5h6a.5.5 0 0 1 0 1h-6A1.5 1.5 0 0 1 4 20.5v-13A1.5 1.5 0 0 1 5.5 6h6Zm11.153-1.992A1.5 1.5 0 0 1 24 5.5v6a1.5 1.5 0 0 1-1.5 1.5h-4a1.5 1.5 0 0 1-1.5-1.5.5.5 0 0 1 .99-.1l.02.2a.5.5 0 0 0 .49.4h4a.5.5 0 0 0 .5-.5v-6a.5.5 0 0 0-.4-.49L22.5 5h-4a.5.5 0 0 0-.49.4l-.02.2a.5.5 0 0 1-.99-.1A1.5 1.5 0 0 1 18.5 4h4l.153.008Z"/>
  <path fill="#446ECA" d="M14.225 17.082a.5.5 0 0 1 .693.694l-.064.078L13.707 19H17.5a.5.5 0 0 1 0 1h-3.793l1.146 1.147.065.078a.5.5 0 0 1-.693.693l-.079-.064-2-2a.5.5 0 0 1 0-.707l2-2 .079-.065Zm0-11a.5.5 0 0 1 .693.694l-.064.078L13.707 8H17.5a.5.5 0 0 1 0 1h-3.793l1.146 1.147.065.078a.5.5 0 0 1-.693.693l-.079-.064-2-2a.5.5 0 0 1 0-.707l2-2 .079-.065Z"/>
</svg>
