<svg xmlns="http://www.w3.org/2000/svg" width="28" height="28" fill="none" viewBox="0 0 28 28">
  <path fill="#383838" d="M22.5 6A1.5 1.5 0 0 1 24 7.5v6a.5.5 0 0 1-1 0v-6a.5.5 0 0 0-.5-.5h-17a.5.5 0 0 0-.5.5v11a.5.5 0 0 0 .5.5h7a.5.5 0 0 1 0 1h-7A1.5 1.5 0 0 1 4 18.5v-11A1.5 1.5 0 0 1 5.5 6h17Zm-8 9a.5.5 0 0 1 0 1h-6a.5.5 0 0 1 0-1h6Zm5-5a.5.5 0 0 1 0 1h-11a.5.5 0 0 1 0-1h11Z"/>
  <path fill="#EF4444" d="M19.498 15a4.498 4.498 0 1 1 0 8.996 4.498 4.498 0 0 1 0-8.996Zm0 1a3.498 3.498 0 1 0 0 6.996 3.498 3.498 0 0 0 0-6.996Zm1.145 1.643a.5.5 0 1 1 .707.707l-1.147 1.146 1.147 1.147.064.078a.5.5 0 0 1-.693.693l-.078-.064-1.147-1.147-1.146 1.147a.5.5 0 0 1-.707-.707l1.146-1.147-1.146-1.146-.065-.079a.5.5 0 0 1 .694-.693l.078.065 1.146 1.146 1.147-1.146Z"/>
</svg>
