<svg xmlns="http://www.w3.org/2000/svg" width="28" height="28" fill="none" viewBox="0 0 28 28">
  <path fill="#383838" d="M8.615 10.014a.496.496 0 0 1 .109.039l.776.388.776-.388.109-.04A.5.5 0 0 1 10.5 10h1a.5.5 0 0 1 0 1h-.882l-.618.309v6.381l.618.31h.882a.5.5 0 0 1 0 1h-1a.5.5 0 0 1-.115-.014l-.109-.039-.776-.388-.776.388A.5.5 0 0 1 8.5 19h-1a.5.5 0 0 1 0-1h.882L9 17.69v-6.38L8.382 11H7.5a.5.5 0 0 1 0-1h1l.115.014Z"/>
  <path fill="#446ECA" d="M6.6 6.01a.5.5 0 0 1 .4.49V7h14v-.5l.01-.1a.5.5 0 0 1 .49-.4h2l.1.01a.5.5 0 0 1 .4.49v2a.5.5 0 0 1-.5.5H23v11h.5a.5.5 0 0 1 .5.5v2a.5.5 0 0 1-.5.5h-2a.5.5 0 0 1-.5-.5V22H7v.5a.5.5 0 0 1-.5.5h-2a.5.5 0 0 1-.5-.5v-2l.01-.1a.5.5 0 0 1 .49-.4H5V9h-.5a.5.5 0 0 1-.5-.5v-2l.01-.1A.5.5 0 0 1 4.5 6h2l.1.01ZM5 22h1v-1H5v1Zm17 0h1v-1h-1v1ZM7 8v.5a.5.5 0 0 1-.5.5H6v11h.5a.5.5 0 0 1 .5.5v.5h14v-.5a.5.5 0 0 1 .5-.5h.5V9h-.5a.5.5 0 0 1-.5-.5V8H7ZM5 8h1V7H5v1Zm17 0h1V7h-1v1Z"/>
</svg>
