<svg xmlns="http://www.w3.org/2000/svg" width="28" height="28" fill="none" viewBox="0 0 28 28">
  <path fill="#383838" fill-rule="evenodd" d="M17 8.5a.5.5 0 1 0-1 0v13a.5.5 0 0 0 .5.5h3.005a3.495 3.495 0 0 0 0-6.99H17V8.5ZM17 21v-4.988h2.505a2.495 2.495 0 0 1 0 4.989H17ZM9.967 8.342a.5.5 0 0 0-.934 0l-3.458 8.98-1.542 4a.5.5 0 0 0 .934.36L6.384 18h6.232l1.417 3.68a.5.5 0 0 0 .934-.359l-1.542-4-3.458-8.98ZM12.23 17H6.77L9.5 9.912 12.23 17Z" clip-rule="evenodd"/>
  <path fill="#446ECA" fill-rule="evenodd" d="M22.691 5.038A.5.5 0 0 1 23 5.5v5a.5.5 0 1 1-1 0V6.707l-1.146 1.147a.5.5 0 0 1-.708-.708l2-2a.5.5 0 0 1 .545-.108Z" clip-rule="evenodd"/>
</svg>
