<svg xmlns="http://www.w3.org/2000/svg" width="28" height="28" viewBox="0 0 28 28" stroke="currentColor" stroke-linecap="round" stroke-linejoin="round" fill="none">
    <path d="M21.5 13.5v-6a1 1 0 0 0-1-1h-15a1 1 0 0 0-1 1v11a1 1 0 0 0 1 1h8m-5-9h10m-10 5h6" class="icon-stroke-gray-primary"/>
    <path d="M19.502 15a4.502 4.502 0 1 1 0 9.004 4.502 4.502 0 0 1 0-9.004Zm.273 2.082a.5.5 0 0 0-.693.693l.064.079L20.293 19H17.5a.5.5 0 0 0 0 1h2.793l-1.146 1.146a.5.5 0 1 0 .707.707l2-2a.5.5 0 0 0 .064-.628l-.064-.079-2-2-.079-.064Z" fill="currentColor" stroke="none" class="icon-fill-blue-primary"/>
</svg>
