<svg xmlns="http://www.w3.org/2000/svg" width="28" height="28" fill="none" viewBox="0 0 28 28">
  <path fill="#383838" d="M15.598 4.01a.5.5 0 0 1 .255.136l5 5A.5.5 0 0 1 21 9.5v2.998a.5.5 0 1 1-1 0V10h-3.5A1.5 1.5 0 0 1 15 8.5V5H7.5a.5.5 0 0 0-.5.5v16.996a.5.5 0 0 0 .5.5h12a.5.5 0 0 0 .5-.5V21.5a.5.5 0 0 1 1 0v.996a1.5 1.5 0 0 1-1.5 1.5h-12a1.5 1.5 0 0 1-1.5-1.5V5.5A1.5 1.5 0 0 1 7.5 4h8l.098.01ZM16 8.5a.5.5 0 0 0 .5.5h2.793L16 5.707V8.5Z"/>
  <path fill="#446ECA" d="M23.12 13.175a.5.5 0 0 1 .76.65l-6 7a.501.501 0 0 1-.734.029l-3-3-.064-.079a.5.5 0 0 1 .693-.693l.078.064 2.618 2.619 5.649-6.59Z"/>
</svg>
