<svg xmlns="http://www.w3.org/2000/svg" width="28" height="28" fill="none" viewBox="0 0 28 28">
  <path fill="#446ECA" d="M4 6.5A1.5 1.5 0 0 1 5.5 5h16A1.5 1.5 0 0 1 23 6.5v16a1.5 1.5 0 0 1-1.5 1.5h-16A1.5 1.5 0 0 1 4 22.5v-16Zm1 16a.5.5 0 0 0 .5.5h16a.5.5 0 0 0 .5-.5v-16a.5.5 0 0 0-.5-.5h-16l-.1.01a.5.5 0 0 0-.4.49v16Zm9-6.5a1 1 0 0 1 1-1h5a1 1 0 0 1 1 1v5a1 1 0 0 1-1 1h-5a1 1 0 0 1-1-1v-5Zm0-8a1 1 0 0 1 1-1h5a1 1 0 0 1 1 1v5a1 1 0 0 1-1 1h-5a1 1 0 0 1-1-1V8Zm6 13v-5h-5v5h5Zm0-8V8h-5v5h5ZM6 16a1 1 0 0 1 1-1h5a1 1 0 0 1 1 1v5a1 1 0 0 1-1 1H7a1 1 0 0 1-1-1v-5Zm0-8a1 1 0 0 1 1-1h5a1 1 0 0 1 1 1v5a1 1 0 0 1-1 1H7a1 1 0 0 1-1-1V8Zm6 13v-5H7v5h5Zm0-8V8H7v5h5Z"/>
</svg>
