<svg xmlns="http://www.w3.org/2000/svg" width="28" height="28" viewBox="0 0 28 28" stroke="none"  fill="currentColor">
    <path d="m5.793 12.207.353.354-.353-.354Zm16.435.13.364-.344-.364.343ZM8.5 5.5V6v-.5Zm10.996 0V6v-.5Zm1 1h-.5.5ZM6.235 12.808a.5.5 0 0 0-.47.884l.47-.884ZM14 17.5l-.235.442a.5.5 0 0 0 .47 0L14 17.5Zm8.235-3.808a.5.5 0 0 0-.47-.884l.47.884ZM10.375 9a.5.5 0 0 0 0 1V9Zm6.25 1a.5.5 0 0 0 0-1v1ZM10.5 12a.5.5 0 0 0 0 1v-1Zm3.75 1a.5.5 0 0 0 0-1v1Zm7.25 9.5V22h-15v1h15v-.5Zm-16-1H6v-8.586H5V21.5h.5Zm17-8.478H22V21.5h1v-8.478h-.5Zm-16.707-.815.353.354 1.708-1.707L7.5 10.5l-.354-.354-1.707 1.707.354.354Zm16.435.13.364-.344-1.728-1.836-.364.343-.364.343 1.728 1.836.364-.343ZM6.5 22.5V22a.5.5 0 0 1-.5-.5H5A1.5 1.5 0 0 0 6.5 23v-.5Zm15 0v.5a1.5 1.5 0 0 0 1.5-1.5h-1a.5.5 0 0 1-.5.5v.5Zm1-9.478h.5a1.5 1.5 0 0 0-.408-1.029l-.364.343-.364.343a.5.5 0 0 1 .136.343h.5Zm-17-.108H6a.5.5 0 0 1 .146-.353l-.353-.354-.354-.354A1.5 1.5 0 0 0 5 12.915h.5Zm3-7.414V6h10.996V5H8.5v.5Zm-1 8.5H8V6.5H7V14h.5Zm12.996-7.5h-.5L20 14h1l-.004-7.5h-.5Zm-1-1V6a.5.5 0 0 1 .5.5h1a1.5 1.5 0 0 0-1.5-1.5v.5ZM8.5 5.5V5A1.5 1.5 0 0 0 7 6.5h1a.5.5 0 0 1 .5-.5v-.5ZM6 13.25l-.235.442 8 4.25L14 17.5l.235-.442-8-4.25L6 13.25Zm8 4.25.235.442 8-4.25L22 13.25l-.235-.442-8 4.25.235.442Zm-3.625-8v.5h6.25V9h-6.25v.5Zm.125 3v.5h3.75v-1H10.5v.5Z" class="icon-fill-gray-primary"/>
</svg>
