<svg xmlns="http://www.w3.org/2000/svg" width="28" height="28" fill="none" viewBox="0 0 28 28">
  <path fill="#383838" fill-rule="evenodd" d="M13 6.5a.5.5 0 0 1 .5-.5h10a.5.5 0 0 1 0 1h-10a.5.5 0 0 1-.5-.5Zm0 4a.5.5 0 0 1 .5-.5h10a.5.5 0 0 1 0 1h-10a.5.5 0 0 1-.5-.5Zm0 4a.5.5 0 0 1 .5-.5h10a.5.5 0 0 1 0 1h-10a.5.5 0 0 1-.5-.5Zm-9 4a.5.5 0 0 1 .5-.5h19a.5.5 0 0 1 0 1h-19a.5.5 0 0 1-.5-.5Zm0 4a.5.5 0 0 1 .5-.5h19a.5.5 0 0 1 0 1h-19a.5.5 0 0 1-.5-.5Z" clip-rule="evenodd"/>
  <path fill="#446ECA" fill-rule="evenodd" d="M7.5 6a.5.5 0 0 1 .468.324l2.25 6 .75 2a.5.5 0 0 1-.936.352L9.404 13H5.597l-.629 1.676a.5.5 0 0 1-.936-.352l.75-2 2.25-6A.5.5 0 0 1 7.5 6Zm-1.528 6h3.057L7.5 7.924 5.972 12Z" clip-rule="evenodd"/>
</svg>
