<svg xmlns="http://www.w3.org/2000/svg" width="28" height="28" viewBox="0 0 28 28" stroke="currentColor" stroke-linecap="round" stroke-linejoin="round" fill="none">
    <path d="M7.5 5.5h-2a1 1 0 0 0-1 1v2m7-3h4m4 0h2a1 1 0 0 1 1 1v2m0 4v4m0 4v2a1 1 0 0 1-1 1h-2m-4 0h-4m-4 0h-2a1 1 0 0 1-1-1v-2m0-4v-4" class="icon-stroke-gray-secondary"/>
    <path d="M12 7.5H7a.5.5 0 0 0-.5.5v5a.5.5 0 0 0 .5.5h5a.5.5 0 0 0 .5-.5V8a.5.5 0 0 0-.5-.5Zm8 0h-5a.5.5 0 0 0-.5.5v5a.5.5 0 0 0 .5.5h5a.5.5 0 0 0 .5-.5V8a.5.5 0 0 0-.5-.5Zm-5 8h5a.5.5 0 0 1 .5.5v5a.5.5 0 0 1-.5.5h-5a.5.5 0 0 1-.5-.5v-5a.5.5 0 0 1 .5-.5ZM12.5 21v-5a.5.5 0 0 0-.5-.5H7a.5.5 0 0 0-.5.5v5a.5.5 0 0 0 .5.5h5a.5.5 0 0 0 .5-.5Z" class="icon-stroke-blue-primary"/>
</svg>
