<svg xmlns="http://www.w3.org/2000/svg" width="28" height="28" fill="none" viewBox="0 0 28 28">
  <path fill="#383838" d="M22 9.293v13.203a1.5 1.5 0 0 1-1.5 1.5h-13a1.5 1.5 0 0 1-1.5-1.5V21.5a.5.5 0 0 1 1 0v.996a.5.5 0 0 0 .5.5h13a.5.5 0 0 0 .5-.5V10h-3.5A1.5 1.5 0 0 1 16 8.5V5H7.5a.5.5 0 0 0-.5.5v1a.5.5 0 0 1-1 0v-1A1.5 1.5 0 0 1 7.5 4h9.207L22 9.293ZM17 8.5a.5.5 0 0 0 .5.5h2.793L17 5.707V8.5Z"/>
  <path fill="#446ECA" d="M14.5 16s1.5 1.67 1.5 2.5a1.5 1.5 0 0 1-3 0c0-.83 1.5-2.5 1.5-2.5ZM8.495 9.346a1.501 1.501 0 0 1 2.123 0l3.06 3.06a1.5 1.5 0 0 1 0 2.122l-4.3 4.299a1.5 1.5 0 0 1-2.12 0l-3.061-3.06a1.5 1.5 0 0 1 0-2.122l2.37-2.372-1.42-1.421-.065-.078a.5.5 0 0 1 .694-.693l.078.064 1.42 1.42 1.221-1.219Zm1.416.707a.5.5 0 0 0-.708 0l-1.221 1.22 1.872 1.872.064.078a.501.501 0 0 1-.693.694l-.078-.065-1.872-1.872-2.371 2.372a.501.501 0 0 0 0 .708l3.06 3.06a.5.5 0 0 0 .707 0l4.3-4.3a.501.501 0 0 0 0-.706l-3.06-3.06Z"/>
</svg>
