<svg xmlns="http://www.w3.org/2000/svg" width="28" height="28" fill="none" viewBox="0 0 28 28">
  <path fill="#383838" d="M19.657 4.008A1.5 1.5 0 0 1 21.004 5.5v11a1.5 1.5 0 0 1-1.5 1.5h-11a1.5 1.5 0 0 1-1.5-1.5v-11a1.5 1.5 0 0 1 1.5-1.5h11l.153.008Zm-5.303 8.052a.5.5 0 0 0-.707 0L8.706 17h10.586l-4.94-4.94ZM8.504 5a.5.5 0 0 0-.5.5v10.79l4.936-4.936a1.5 1.5 0 0 1 2.12 0l4.944 4.943V5.5a.5.5 0 0 0-.5-.5h-11ZM16.5 6.5a2 2 0 1 1 0 4 2 2 0 0 1 0-4Zm0 1a1 1 0 1 0 0 2 1 1 0 0 0 0-2Z"/>
  <path fill="#446ECA" d="M16.5 23a.5.5 0 0 0 0 1h4a.5.5 0 0 0 0-1h-4Zm-9 0a.5.5 0 0 0 0 1h6a.5.5 0 0 0 0-1h-6Zm5-3a.5.5 0 0 0 0 1h8a.5.5 0 0 0 0-1h-8Zm-5 0a.5.5 0 0 0 0 1h2a.5.5 0 0 0 0-1h-2Z"/>
</svg>
