<svg xmlns="http://www.w3.org/2000/svg" width="28" height="28" viewBox="0 0 28 28" stroke="currentColor" stroke-linecap="round" stroke-linejoin="round" fill="none">
    <path d="M5.5 21.5h7m-7-5h7m-7-10h17" class="icon-stroke-gray-primary"/>
    <path d="M5.5 11a.5.5 0 0 0 0 1v-1Zm10 7.5-.354-.354a.5.5 0 0 0 0 .708l.354-.354Zm2.646 3.354a.5.5 0 0 0 .708-.708l-.708.708Zm.708-6a.5.5 0 0 0-.708-.708l.708.708ZM5.5 11.5v.5H20v-1H5.5v.5Zm14.5 7V18h-4.5v1H20v-.5Zm-4.5 0-.354.354 3 3 .354-.354.354-.354-3-3-.354.354Zm0 0 .354.354 3-3-.354-.354-.354-.354-3 3 .354.354Zm8-3.5H23a3 3 0 0 1-3 3v1a4 4 0 0 0 4-4h-.5ZM20 11.5v.5a3 3 0 0 1 3 3h1a4 4 0 0 0-4-4v.5Z" fill="currentColor" stroke="none" class="icon-fill-blue-primary"/>
</svg>
