<svg xmlns="http://www.w3.org/2000/svg" width="28" height="28" fill="none" viewBox="0 0 28 28">
  <path fill="#383838" d="M6 21.5a.5.5 0 0 0 .5.5h15a.5.5 0 0 0 .5-.5v-8h1v8a1.5 1.5 0 0 1-1.5 1.5h-15A1.5 1.5 0 0 1 5 21.5v-8h1v8ZM19.5 19a.5.5 0 0 1 0 1h-11a.5.5 0 0 1 0-1h11Zm0-3a.5.5 0 0 1 0 1h-11a.5.5 0 0 1 0-1h11Z"/>
  <path fill="#446ECA" d="M22.5 6A1.5 1.5 0 0 1 24 7.5v5a1.5 1.5 0 0 1-1.5 1.5h-17A1.5 1.5 0 0 1 4 12.5v-5A1.5 1.5 0 0 1 5.5 6h17Zm-17 1a.5.5 0 0 0-.5.5v5a.5.5 0 0 0 .5.5h17a.5.5 0 0 0 .5-.5v-5a.5.5 0 0 0-.5-.5h-17Zm15.646 2.146a.5.5 0 1 1 .707.708l-1.393 1.393a.651.651 0 0 1-.92 0l-1.393-1.393-.065-.079a.5.5 0 0 1 .693-.693l.079.064L20 10.293l1.146-1.147Z"/>
</svg>
