<svg xmlns="http://www.w3.org/2000/svg" width="28" height="28" fill="none" viewBox="0 0 28 28">
  <path fill="#383838" d="M12.5 21a.5.5 0 0 1 0 1h-7a.5.5 0 0 1 0-1h7Zm10 0a.5.5 0 0 1 0 1h-1a.5.5 0 0 1 0-1h1Zm-5-4a.5.5 0 0 1 0 1h-12a.5.5 0 0 1 0-1h12Zm5 0a.5.5 0 0 1 0 1h-1a.5.5 0 0 1 0-1h1Zm-10-4a.5.5 0 0 1 0 1h-7a.5.5 0 0 1 0-1h7Zm10 0a.5.5 0 0 1 0 1h-1a.5.5 0 0 1 0-1h1Zm-5-4a.5.5 0 0 1 0 1h-12a.5.5 0 0 1 0-1h12Zm5 0a.5.5 0 0 1 0 1h-1a.5.5 0 0 1 0-1h1Zm-10-4a.5.5 0 0 1 0 1h-7a.5.5 0 0 1 0-1h7Zm10 0a.5.5 0 0 1 0 1h-1a.5.5 0 0 1 0-1h1Z"/>
</svg>
