<svg xmlns="http://www.w3.org/2000/svg" width="28" height="28" viewBox="0 0 28 28" stroke="currentColor" stroke-linecap="round" stroke-linejoin="round" fill="none">
    <path d="M7.5 5.5h-2a1 1 0 0 0-1 1v2m7-3h4m4 0h2a1 1 0 0 1 1 1v2m0 4v4m0 4v2a1 1 0 0 1-1 1h-2m-4 0h-4m-4 0h-2a1 1 0 0 1-1-1v-2m0-4v-4m4-5h-1a1 1 0 0 0-1 1v1m4-2h1a1 1 0 0 1 1 1v1m-6 2v1a1 1 0 0 0 1 1h1m4-2V13a.5.5 0 0 1-.5.5h-1.5m6-6h-1a1 1 0 0 0-1 1v1m4-2h1a1 1 0 0 1 1 1v1m-6 2V13a.5.5 0 0 0 .5.5h1.5m4-2v1a1 1 0 0 1-1 1h-1m-10 2h-1a1 1 0 0 0-1 1v1m4-2H12a.5.5 0 0 1 .5.5v1.5m-6 2v1a1 1 0 0 0 1 1h1m4-2v1a1 1 0 0 1-1 1h-1m6-6H15a.5.5 0 0 0-.5.5v1.5m4-2h1a1 1 0 0 1 1 1v1m-6 2v1a1 1 0 0 0 1 1h1m4-2v1a1 1 0 0 1-1 1h-1" class="icon-stroke-gray-secondary"/>
    <path d="M12.5 8.5V13a.5.5 0 0 1-.5.5H7.5m12 0H15a.5.5 0 0 1-.5-.5V8.5m5 7H15a.5.5 0 0 0-.5.5v4.5m-2 0V16a.5.5 0 0 0-.5-.5H7.5" class="icon-stroke-blue-primary"/>
</svg>
