<svg xmlns="http://www.w3.org/2000/svg" width="28" height="28" viewBox="0 0 28 28" stroke="currentColor" stroke-linecap="round" stroke-linejoin="round" fill="none">
    <path d="M8.5 19.5h-1a1 1 0 0 1-1-1v-13a1 1 0 0 1 1-1h9a1 1 0 0 1 1 1v1m-6 2h9a1 1 0 0 1 1 1v13a1 1 0 0 1-1 1h-9a1 1 0 0 1-1-1v-13a1 1 0 0 1 1-1Z" class="icon-stroke-gray-primary"/>
    <path d="M18.4 12.5h-4.8a.1.1 0 0 0-.1.1v6.659a.1.1 0 0 0 .17.07l2.26-2.258a.1.1 0 0 1 .14 0l2.26 2.258a.1.1 0 0 0 .17-.07V12.6a.1.1 0 0 0-.1-.1Z" class="icon-stroke-blue-primary"/>
</svg>
