<svg xmlns="http://www.w3.org/2000/svg" width="28" height="28" fill="none" viewBox="0 0 28 28">
  <path fill="#969696" d="M6.5 19a.5.5 0 0 1 .5.5v1a.5.5 0 0 0 .5.5h1a.5.5 0 0 1 0 1h-1A1.5 1.5 0 0 1 6 20.5v-1a.5.5 0 0 1 .5-.5Zm6-.125a.5.5 0 0 1 .5.5V20.5a1.5 1.5 0 0 1-1.5 1.5h-1a.5.5 0 0 1 0-1h1a.5.5 0 0 0 .5-.5v-1.125a.5.5 0 0 1 .5-.5Zm2 0a.5.5 0 0 1 .5.5V20.5a.5.5 0 0 0 .5.5h1l.1.01a.5.5 0 0 1 0 .98l-.1.01h-1a1.5 1.5 0 0 1-1.5-1.5v-1.125a.5.5 0 0 1 .5-.5Zm6 .125a.5.5 0 0 1 .5.5v1a1.5 1.5 0 0 1-1.5 1.5h-1a.5.5 0 0 1 0-1h1a.5.5 0 0 0 .5-.5v-1a.5.5 0 0 1 .5-.5ZM8.625 15a.5.5 0 0 1 0 1H7.5a.5.5 0 0 0-.5.5v1a.5.5 0 0 1-1 0v-1A1.5 1.5 0 0 1 7.5 15h1.125ZM19.5 15a1.5 1.5 0 0 1 1.5 1.5v1a.5.5 0 0 1-1 0v-1a.5.5 0 0 0-.5-.5h-1.125a.5.5 0 0 1 0-1H19.5ZM12 15a1 1 0 0 1 1 1v1.125a.5.5 0 0 1-1 0V16h-1.125a.5.5 0 0 1 0-1H12Zm4.226.01a.5.5 0 0 1 0 .98l-.1.01H15v1.125a.5.5 0 0 1-1 0V16a1 1 0 0 1 1-1h1.125l.1.01ZM6.5 11a.5.5 0 0 1 .5.5v1a.5.5 0 0 0 .5.5h1.125a.5.5 0 0 1 0 1H7.5A1.5 1.5 0 0 1 6 12.5v-1a.5.5 0 0 1 .5-.5Zm6 .375a.5.5 0 0 1 .5.5V13a1 1 0 0 1-1 1h-1.125a.5.5 0 0 1 0-1H12v-1.125a.5.5 0 0 1 .5-.5Zm2 0a.5.5 0 0 1 .5.5V13h1.125l.1.01a.5.5 0 0 1 0 .98l-.1.01H15a1 1 0 0 1-1-1v-1.125a.5.5 0 0 1 .5-.5Zm6-.375a.5.5 0 0 1 .5.5v1a1.5 1.5 0 0 1-1.5 1.5h-1.125a.5.5 0 0 1 0-1H19.5a.501.501 0 0 0 .501-.5v-1a.5.5 0 0 1 .5-.5Zm-9-4A1.5 1.5 0 0 1 13 8.5v1.125a.5.5 0 0 1-1 0V8.5a.5.5 0 0 0-.5-.5h-1a.5.5 0 0 1 0-1h1Zm5 0a.5.5 0 0 1 0 1h-1a.5.5 0 0 0-.5.5v1.125a.5.5 0 0 1-1 0V8.5A1.5 1.5 0 0 1 15.5 7h1Zm-7.9.01a.5.5 0 0 1 0 .98L8.5 8h-1a.5.5 0 0 0-.5.5v1a.5.5 0 0 1-1 0v-1A1.5 1.5 0 0 1 7.5 7h1l.1.01ZM19.5 7A1.5 1.5 0 0 1 21 8.5v1a.5.5 0 0 1-1 0v-1a.5.5 0 0 0-.5-.5h-1a.5.5 0 0 1 0-1h1Z"/>
  <path fill="#446ECA" d="M21.5 5A1.5 1.5 0 0 1 23 6.5v16a1.5 1.5 0 0 1-1.5 1.5h-16A1.5 1.5 0 0 1 4 22.5v-16A1.5 1.5 0 0 1 5.5 5h16ZM5.4 6.01a.5.5 0 0 0-.4.49v16a.5.5 0 0 0 .5.5h16a.5.5 0 0 0 .5-.5v-16a.5.5 0 0 0-.5-.5h-16l-.1.01ZM12 15a1 1 0 0 1 1 1v4.5a.5.5 0 0 1-1 0V16H7.5a.5.5 0 0 1 0-1H12Zm7.5 0a.5.5 0 0 1 0 1H15v4.5a.5.5 0 0 1-1 0V16a1 1 0 0 1 1-1h4.5Zm-7-7a.5.5 0 0 1 .5.5V13a1 1 0 0 1-1 1H7.5a.5.5 0 0 1 0-1H12V8.5a.5.5 0 0 1 .5-.5Zm2 0a.5.5 0 0 1 .5.5V13h4.5a.5.5 0 0 1 0 1H15a1 1 0 0 1-1-1V8.5a.5.5 0 0 1 .5-.5Z"/>
</svg>
