<svg xmlns="http://www.w3.org/2000/svg" width="28" height="28" fill="none" viewBox="0 0 28 28">
  <path fill="#383838" d="M14.598 4.01a.5.5 0 0 1 .255.136l5 5A.5.5 0 0 1 20 9.5v2a.5.5 0 1 1-1 0V10h-4.4a.6.6 0 0 1-.6-.6V5H7.5a.5.5 0 0 0-.5.5v16a.5.5 0 0 0 .5.5h6a.5.5 0 0 1 0 1h-6A1.5 1.5 0 0 1 6 21.5v-16A1.5 1.5 0 0 1 7.5 4h7l.098.01ZM15 9h3.293L15 5.707V9Z"/>
  <path fill="#446ECA" d="M19 13a3 3 0 0 1 3 3v1.087a1.5 1.5 0 0 1 1 1.413v4a1.5 1.5 0 0 1-1.5 1.5h-5a1.5 1.5 0 0 1-1.492-1.347L15 22.5v-4a1.5 1.5 0 0 1 1-1.413V16a3 3 0 0 1 3-3Zm-2.5 5a.5.5 0 0 0-.5.5v4l.01.1a.5.5 0 0 0 .49.4h5a.5.5 0 0 0 .5-.5v-4a.5.5 0 0 0-.5-.5h-5Zm2.5-4a2 2 0 0 0-2 2v1h4v-1a2 2 0 0 0-2-2Z"/>
</svg>
