<svg xmlns="http://www.w3.org/2000/svg" width="28" height="28" fill="none" viewBox="0 0 28 28">
  <path fill="#383838" d="M6 21.5a.5.5 0 0 0 .5.5h9a.5.5 0 0 0 .5-.5v-8h1v8a1.5 1.5 0 0 1-1.5 1.5h-9A1.5 1.5 0 0 1 5 21.5v-8h1v8Zm7.5-2.5a.5.5 0 0 1 0 1h-5a.5.5 0 0 1 0-1h5Zm0-3a.5.5 0 0 1 0 1h-5a.5.5 0 0 1 0-1h5Z"/>
  <path fill="#446ECA" d="M22.653 6.008A1.5 1.5 0 0 1 24 7.5v5a1.5 1.5 0 0 1-1.5 1.5h-17A1.5 1.5 0 0 1 4 12.5v-5A1.5 1.5 0 0 1 5.5 6h17l.153.008ZM5.5 7a.5.5 0 0 0-.5.5v5a.5.5 0 0 0 .5.5H16V7H5.5ZM17 13h5.5a.5.5 0 0 0 .5-.5v-5a.5.5 0 0 0-.4-.49L22.5 7H17v6Zm4.146-3.854a.5.5 0 1 1 .707.708l-1.393 1.393a.651.651 0 0 1-.92 0l-1.393-1.393-.065-.079a.5.5 0 0 1 .693-.693l.079.064L20 10.293l1.146-1.147Z"/>
</svg>
