<svg xmlns="http://www.w3.org/2000/svg" width="28" height="28" viewBox="0 0 28 28" stroke="currentColor" stroke-linecap="round" stroke-linejoin="round" fill="none">
      <path d="M22.5 7.5h-17a1 1 0 0 0-1 1v11a1 1 0 0 0 1 1h17a1 1 0 0 0 1-1v-11a1 1 0 0 0-1-1Z"/>
      <path d="M15 9.5H7a.5.5 0 0 0-.5.5v8a.5.5 0 0 0 .5.5h8a.5.5 0 0 0 .5-.5v-8a.5.5 0 0 0-.5-.5Z"/>
    <path d="M19.5 11v6m0-6 .5-.5h.5m-1 .5-.5-.5h-.5m1 6.5.5.5h.5m-1-.5-.5.5h-.5m-5-5L10.143 16 8.5 14.5" class="icon-blue-primary"/>
</svg>
