<svg xmlns="http://www.w3.org/2000/svg" width="28" height="28" fill="none" viewBox="0 0 28 28">
  <path fill="#383838" d="M15.554 5.751a1.5 1.5 0 0 1 2.007.103l5.586 5.586.102.114a1.5 1.5 0 0 1 0 1.892l-.102.114-8.44 8.44H22.5a.5.5 0 0 1 0 1H9.084a.69.69 0 0 1-.46-.176l-.051-.052-3.81-4.232a1.5 1.5 0 0 1 .055-2.064L15.44 5.854l.114-.103ZM5.524 17.183a.5.5 0 0 0-.018.688L9.223 22h4.07l4.5-4.5-6.293-6.293-5.975 5.976ZM16.855 6.56a.5.5 0 0 0-.63-.064l-.077.064-3.94 3.939 6.293 6.293 3.94-3.94.063-.078a.5.5 0 0 0 0-.55l-.063-.079-5.586-5.585Z"/>
</svg>
