<svg xmlns="http://www.w3.org/2000/svg" width="28" height="28" fill="none" viewBox="0 0 28 28">
  <path fill="#383838" d="M22.5 6A1.5 1.5 0 0 1 24 7.5v7a.5.5 0 0 1-1 0v-7a.5.5 0 0 0-.5-.5h-17a.5.5 0 0 0-.5.5v11a.5.5 0 0 0 .5.5h6a.5.5 0 0 1 0 1h-6A1.5 1.5 0 0 1 4 18.5v-11A1.5 1.5 0 0 1 5.5 6h17Zm-7 9a.5.5 0 0 1 0 1h-7a.5.5 0 0 1 0-1h7Zm4-5a.5.5 0 0 1 0 1h-11a.5.5 0 0 1 0-1h11Z"/>
  <path fill="#446ECA" d="M20.146 16.146a.5.5 0 0 1 .707 0l3 3a.5.5 0 0 1 0 .707l-3 3-.078.065a.5.5 0 0 1-.693-.694l.064-.078L22.293 20H14.5l-.1-.01a.5.5 0 0 1 0-.98l.1-.01h7.793l-2.146-2.147a.5.5 0 0 1 0-.707Z"/>
</svg>
