<svg xmlns="http://www.w3.org/2000/svg" width="28" height="28" fill="none" viewBox="0 0 28 28">
  <path fill="#383838" d="M22 9.293V11.5a.5.5 0 0 1-1 0V10h-3.5A1.5 1.5 0 0 1 16 8.5V5H7.5a.5.5 0 0 0-.5.5v16.996a.5.5 0 0 0 .5.5h4l.1.01a.5.5 0 0 1 0 .98l-.1.01h-4a1.5 1.5 0 0 1-1.5-1.5V5.5A1.5 1.5 0 0 1 7.5 4h9.207L22 9.293ZM17 8.5a.5.5 0 0 0 .5.5h2.793L17 5.707V8.5Z"/>
  <path fill="#446ECA" d="M21.054 14.251a1.5 1.5 0 0 1 2.007.103l.585.586.103.114a1.5 1.5 0 0 1-.102 2.007l-6.793 6.793A.5.5 0 0 1 16.5 24h-2a.5.5 0 0 1-.5-.5v-2l.01-.098a.5.5 0 0 1 .136-.256l6.793-6.793.115-.102ZM15 21.707V23h1.293l5-5L20 16.707l-5 5Zm7.354-6.647a.5.5 0 0 0-.63-.063l-.078.063-.939.94L22 17.293l.94-.94a.5.5 0 0 0 .063-.628l-.064-.079-.585-.586ZM16.5 16a.5.5 0 0 1 0 1h-7a.5.5 0 0 1 0-1h7Zm2-4a.5.5 0 0 1 0 1h-9a.5.5 0 0 1 0-1h9Zm-5-4a.5.5 0 0 1 0 1h-4a.5.5 0 0 1 0-1h4Z"/>
</svg>
