<svg xmlns="http://www.w3.org/2000/svg" width="28" height="28" fill="none" viewBox="0 0 28 28">
  <path fill="#383838" fill-rule="evenodd" d="M19.53 7.22a.75.75 0 0 0-1.06 0l-1.263 1.262 3.293 3.293 1.263-1.262a.75.75 0 0 0 0-1.061L19.53 7.22Zm.263 5.262L16.5 9.19l-1.664 1.664a.5.5 0 0 1-.707-.707l2.017-2.017 1.617-1.616a1.75 1.75 0 0 1 2.474 0l2.233 2.232a1.75 1.75 0 0 1 0 2.475l-1.616 1.616-9 9a.5.5 0 0 1-.354.146h-4a.5.5 0 0 1-.5-.5V17.5a.5.5 0 0 1 .146-.354l2-2a.5.5 0 1 1 .708.707L8 17.707v3.275h3.293l8.5-8.5Z" clip-rule="evenodd"/>
  <path fill="#446ECA" fill-rule="evenodd" d="M4 8.5a.5.5 0 0 1 .5-.5h6a.5.5 0 0 1 0 1h-6a.5.5 0 0 1-.5-.5Zm0 4a.5.5 0 0 1 .5-.5h8a.5.5 0 0 1 0 1h-8a.5.5 0 0 1-.5-.5Z" clip-rule="evenodd"/>
</svg>
