<svg width="20" height="20" viewBox="0 0 20 20" fill="none" xmlns="http://www.w3.org/2000/svg">
<path fill-rule="evenodd" clip-rule="evenodd" d="M15.9994 9.99994C16.0118 10.1563 16.0009 9.99994 16.0009 9.99994C16.0026 12.6506 14.2342 15.0769 11.5523 15.7955C8.68062 16.565 5.73711 15.1151 4.5428 12.4973C4.14075 12.4157 3.92733 12.4675 3.56521 12.7593C4.9119 15.9104 8.40483 17.6741 11.8111 16.7614C14.94 15.923 17.0031 13.0924 17.0011 9.99994L15.9994 9.99994ZM14.9475 6.60354L15.9632 6.33138C14.3836 3.76114 11.2506 2.41774 8.18767 3.23846C5.39993 3.98543 3.45829 6.31391 3.06939 8.99994L4.08184 8.99994C4.46208 6.75827 6.10656 4.83137 8.44649 4.20438C10.9699 3.52823 13.5488 4.56574 14.9475 6.60354Z" fill="black"/>
<path fill-rule="evenodd" clip-rule="evenodd" d="M4 16H3V12H7V13H4V16Z" fill="black"/>
<path fill-rule="evenodd" clip-rule="evenodd" d="M15 3L16 3L16 7L12 7L12 6L15 6L15 3Z" fill="black"/>
</svg>
