<svg width="20" height="20" viewBox="0 0 20 20" fill="none" xmlns="http://www.w3.org/2000/svg">
    <path d="M8.947 2.022c-.103-.06-.255.01-.314.113L5.51 7.544c-.098.17-.056.545.115.643l.503.29-1.408 4.535c-.066.165.053.457.207.545l.432.25-1.5 2.598c-.135.239-.185.579.089.579h3.859c.107 0 .21-.05.277-.133l1-.894.26.15c.154.09.487-.093.596-.233l3.15-3.377.398.23c.17.098.584-.013.683-.183L17.314 7.1a.214.214 0 0 0-.079-.293l-.495-.285a.214.214 0 0 0-.292.078l-2.893 5.01-.126-.072-.017-.011L6.626 7.61c-.005-.004.106.059.1.056l-.1-.056L9.5 2.635c.06-.102.045-.268-.057-.328zM6.994 8.978l5.196 3-2.866 2.964-3.464-2z" fill="#000"/>
</svg>
