<svg width="20" height="20" viewBox="0 0 20 20" fill="none" xmlns="http://www.w3.org/2000/svg">
    <path d="M10.831 2.111a.07.07 0 0 0-.098.026l-3.463 6-1.98 5.661a.14.14 0 0 0 .066.162l.049.029 2.935 1.694.035.02c.056.033.13.024.175-.023l3.916-4.542 3.458-5.99a.07.07 0 0 0-.026-.098l-.742-.429a.07.07 0 0 0-.098.027L12.1 9.772l-3.463-2L11.6 2.638a.07.07 0 0 0-.027-.098zm.77 8.527-3.367 3.83-1.732-1 1.635-4.83zm-5.86 3.546S5 16.642 5.617 17c.619.357 2.376-1.515 2.376-1.515z" fill="#000"/>
</svg>
