<svg width="20" height="20" viewBox="0 0 20 20" fill="none" xmlns="http://www.w3.org/2000/svg">
    <path d="M6.462 16c-.515 0-1.176-.428-1.54-.803L3.55 13.784c-.758-.782-.722-2.012.036-2.793l6.138-6.405a1.9 1.9 0 0 1 2.746 0l2.402 2.476c.758.781 1.373 1.415 1.03 2.476L10.83 15H15v1zm2.912-1 3.783-4.047-4.119-4.245-4.765 4.99c-.379.391-.415.987-.036 1.378l1.371 1.413c.182.188.597.51.854.51zm2.41-9.706a.95.95 0 0 0-1.372 0l-.649.746 4.081 4.206 1.029-1.062c.343-.353-.307-1.024-.687-1.415z" fill="#000"/>
</svg>
