<svg width="20" height="20" viewBox="0 0 20 20" fill="none" xmlns="http://www.w3.org/2000/svg">
<path fill-rule="evenodd" clip-rule="evenodd" d="M12 5H4V11H5V7C5 6.44772 5.44772 6 6 6H12V5ZM13 6H14C14.5523 6 15 6.44772 15 7V8H16C16.5523 8 17 8.44772 17 9V15C17 15.5523 16.5523 16 16 16H8C7.44772 16 7 15.5523 7 15V14H6C5.44772 14 5 13.5523 5 13V12H4C3.44772 12 3 11.5523 3 11V5C3 4.44772 3.44772 4 4 4H12C12.5523 4 13 4.44772 13 5V6ZM6 7H14V8H8C7.44772 8 7 8.44772 7 9V13H6V7ZM16 9H8V15H16V9Z" fill="black"/>
</svg>
