<svg width="64" height="64" viewBox="0 0 64 64" xmlns="http://www.w3.org/2000/svg">
<g clip-path="url(#clip0_0_585)">
<path opacity="0.6" fill-rule="evenodd" clip-rule="evenodd" d="M54.0576 42.842C51.0235 47.1521 46.3091 50 39.3234 50C26.6123 50 18.5239 39.9634 13.6941 30.4302C11.2562 25.6183 9.5853 20.8178 8.52424 17.2275C7.99308 15.4302 7.6132 13.9309 7.36556 12.8781C7.24172 12.3516 7.15087 11.9364 7.09064 11.6512C7.06053 11.5085 7.03807 11.3983 7.02296 11.3228L7.00578 11.236L7.00126 11.2127L7 11.2061C6.99988 11.2055 6.99941 11.203 8.17684 10.9852C9.35427 10.7673 9.35423 10.7671 9.35422 10.767L9.35506 10.7714L9.3585 10.7891L9.37341 10.8645C9.38697 10.9322 9.40779 11.0345 9.43617 11.1689C9.49294 11.4378 9.57991 11.8355 9.69939 12.3434C9.93842 13.3596 10.3073 14.816 10.8243 16.5655C11.8596 20.0688 13.4831 24.7265 15.837 29.3727C20.5908 38.7558 28.0757 47.6355 39.3234 47.6355C45.5288 47.6355 49.5062 45.1632 52.09 41.4929C54.7245 37.7506 55.9683 32.6718 56.4085 27.4391C56.8468 22.2279 56.4782 16.9945 55.9948 13.0482C55.7536 11.0789 55.4849 9.43883 55.2769 8.2934C55.173 7.72085 55.0843 7.27237 55.022 6.96868C54.9909 6.81684 54.9663 6.70124 54.9498 6.62446L54.9311 6.53875L54.9265 6.51835L54.9255 6.51387L56.0947 6.25608C57.2639 5.99892 57.264 5.99941 57.2642 6.00006L57.2663 6.00932L57.272 6.03511L57.2931 6.1319C57.3113 6.21618 57.3375 6.33957 57.3703 6.49947C57.4359 6.81923 57.5279 7.28517 57.6353 7.87641C57.8499 9.05857 58.1259 10.7436 58.3734 12.7644C58.8676 16.7985 59.2528 22.2055 58.7961 27.6347C58.3412 33.0424 57.0411 38.6041 54.0576 42.842Z" fill="#555555"/>
<path d="M0 0H2.37037V61.6296H64V64H0V0Z" fill="#555555"/>
<path d="M16.5822 55.8605C17.4329 49.4862 19.7059 40.5549 23.8036 33.3559C27.9135 26.1356 33.6641 20.9593 41.4246 21.332C47.9753 21.6465 51.839 25.991 54.6143 32.4669C56.3281 36.4656 57.4964 42.262 58.2356 47.1405C58.6027 49.5634 58.8598 51.7304 59.0251 53.2914C59.1077 54.0717 59.1673 54.6997 59.2062 55.1316C59.2256 55.3476 59.2398 55.5145 59.2492 55.6268L59.2595 55.7537L59.2628 55.7946L60.4444 55.7037C61.6261 55.6128 61.626 55.6116 61.626 55.6116L61.6259 55.6091L61.6251 55.5998L61.6224 55.5648L61.6114 55.4304C61.6016 55.313 61.5869 55.1408 61.567 54.9193C61.5271 54.4762 61.4664 53.8357 61.3823 53.0419C61.2143 51.4548 60.9529 49.2514 60.5792 46.7854C59.8369 41.8861 58.6349 35.8306 56.7931 31.5331C53.8725 24.7184 49.4307 19.3433 41.5383 18.9643C32.4495 18.5279 26.0266 24.6588 21.7436 32.1833C17.4485 39.729 15.1091 48.98 14.2326 55.5469L16.5822 55.8605Z" fill="#555555"/>
</g>
<defs>
<clipPath id="clip0_0_585">
<rect width="64" height="64" fill="white"/>
</clipPath>
</defs>
</svg>
