<svg width="64" height="64" viewBox="0 0 64 64" xmlns="http://www.w3.org/2000/svg">
<g clip-path="url(#clip0_0_268)">
<path d="M4 0H2V37.9259V45.037V49.7778V56.8889V64H66V62H4V0Z" fill="#555555"/>
<path d="M4.58581 41.9859H4H2H0V48H2H4H6V43.4035L17.4142 31.9624H21.6972L34 40.1835V43.9906H40V38.553L60.0547 22.0141H64V16H58V21.4376L37.9453 37.9765H34.3028L22 29.7553V25.9482H16V30.5448L4.58581 41.9859Z" fill="#555555"/>
<path opacity="0.6" d="M34 18H40V22.5858L59.5 34H64.0858V40H58.0858V35.4142L38.5858 24H35.4142L6 53.4142V58H0V52H4.58578L34 22.5858V18Z" fill="#555555"/>
</g>
<defs>
<clipPath id="clip0_0_268">
<rect width="64" height="64" fill="white"/>
</clipPath>
</defs>
</svg>
