<svg width="64" height="64" viewBox="0 0 64 64" xmlns="http://www.w3.org/2000/svg">
<path d="M16 49L8 47V31L16 29L24 31V47L16 49Z" fill="#555555"/>
<path d="M24 31L16 33V49L24 47V31Z" fill="white" fill-opacity="0.35"/>
<path d="M26 53L18 51V23L26 21L34 23V51L26 53Z" fill="#555555"/>
<path d="M34 23L26 25V53L34 51V23Z" fill="white" fill-opacity="0.35"/>
<path d="M36 57L28 55V15L36 13L44 15V55L36 57Z" fill="#555555"/>
<path d="M44 15L36 17V57L44 55V15Z" fill="white" fill-opacity="0.35"/>
<path d="M46 61L38 59V5L46 3L54 5V59L46 61Z" fill="#555555"/>
<path d="M54 5L46 7V61L54 59V5Z" fill="white" fill-opacity="0.35"/>
</svg>
