<svg width="64" height="64" viewBox="0 0 64 64" xmlns="http://www.w3.org/2000/svg">
<g clip-path="url(#clip0_0_729)">
<g opacity="0.6">
<path d="M10.5714 14.1667C12.5439 14.1667 14.1429 12.5624 14.1429 10.5833C14.1429 8.60431 12.5439 7 10.5714 7C8.59898 7 7 8.60431 7 10.5833C7 12.5624 8.59898 14.1667 10.5714 14.1667Z" fill="#555555"/>
<path d="M39.1429 50C41.1153 50 42.7143 48.3957 42.7143 46.4167C42.7143 44.4376 41.1153 42.8333 39.1429 42.8333C37.1704 42.8333 35.5714 44.4376 35.5714 46.4167C35.5714 48.3957 37.1704 50 39.1429 50Z" fill="#555555"/>
<path d="M28.4286 39.25C28.4286 41.229 26.8296 42.8333 24.8571 42.8333C22.8847 42.8333 21.2857 41.229 21.2857 39.25C21.2857 37.271 22.8847 35.6667 24.8571 35.6667C26.8296 35.6667 28.4286 37.271 28.4286 39.25Z" fill="#555555"/>
<path d="M53.4286 23.7222C55.401 23.7222 57 22.1179 57 20.1389C57 18.1599 55.401 16.5556 53.4286 16.5556C51.4561 16.5556 49.8571 18.1599 49.8571 20.1389C49.8571 22.1179 51.4561 23.7222 53.4286 23.7222Z" fill="#555555"/>
</g>
<path d="M2.37037 0H0V64H64V61.6296H2.37037V0Z" fill="#555555"/>
<path d="M33.1852 24.8889C33.1852 26.8526 31.5933 28.4444 29.6296 28.4444C27.666 28.4444 26.0741 26.8526 26.0741 24.8889C26.0741 22.9252 27.666 21.3333 29.6296 21.3333C31.5933 21.3333 33.1852 22.9252 33.1852 24.8889Z" fill="#555555"/>
<path d="M46.2222 37.9259C48.1859 37.9259 49.7778 36.334 49.7778 34.3704C49.7778 32.4067 48.1859 30.8148 46.2222 30.8148C44.2585 30.8148 42.6667 32.4067 42.6667 34.3704C42.6667 36.334 44.2585 37.9259 46.2222 37.9259Z" fill="#555555"/>
<path d="M64 53.3333C64 55.297 62.4081 56.8889 60.4444 56.8889C58.4808 56.8889 56.8889 55.297 56.8889 53.3333C56.8889 51.3697 58.4808 49.7778 60.4444 49.7778C62.4081 49.7778 64 51.3697 64 53.3333Z" fill="#555555"/>
<path d="M15.4074 56.8889C17.3711 56.8889 18.963 55.297 18.963 53.3333C18.963 51.3697 17.3711 49.7778 15.4074 49.7778C13.4437 49.7778 11.8519 51.3697 11.8519 53.3333C11.8519 55.297 13.4437 56.8889 15.4074 56.8889Z" fill="#555555"/>
</g>
<defs>
<clipPath id="clip0_0_729">
<rect width="64" height="64" fill="white"/>
</clipPath>
</defs>
</svg>
