<svg width="20" height="20" viewBox="0 0 20 20" fill="none" xmlns="http://www.w3.org/2000/svg">
<path d="M13 3H3V4H13V3Z" fill="black"/>
<path d="M10 6H3V7H10V6Z" fill="black"/>
<path d="M3 9H13V10H3V9Z" fill="black"/>
<path d="M13 15H3V16H13V15Z" fill="black"/>
<path d="M16 15H17V16H16V15Z" fill="black"/>
<path d="M17 12H16V13H17V12Z" fill="black"/>
<path d="M16 9H17V10H16V9Z" fill="black"/>
<path d="M17 6H16V7H17V6Z" fill="black"/>
<path d="M16 3H17V4H16V3Z" fill="black"/>
<path d="M10 12H3V13H10V12Z" fill="black"/>
</svg>
