<svg width="20" height="20" viewBox="0 0 20 20" fill="none" xmlns="http://www.w3.org/2000/svg">
<path opacity="0.4" fill-rule="evenodd" clip-rule="evenodd" d="M18 2H2V3H18V2ZM2 4H18V5H2V4ZM18 6H2V7H18V6ZM2 8H18V9H2V8ZM18 10H2V11H18V10ZM2 12H18V13H2V12ZM18 14H2V15H18V14ZM18 16H2V17H18V16Z" fill="black"/>
<path d="M14.1011 8.67257C14.7453 7.89381 14.9869 5.16815 14.9869 5.16815C14.9869 4.87611 15.1479 4 14.3427 4C11.9271 4 10.4777 7.8938 10.4777 8.38053C10.4777 8.38053 10.4777 7.60177 10.0751 7.60177C9.67246 7.60177 9.67246 8.38053 9.67246 8.38053C9.67246 7.8938 8.22308 4.09735 5.72693 4.09735C4.92172 4.09735 5.00224 4.97346 5.00224 5.16815C5.00224 5.16815 5.32432 7.89381 5.88797 8.67257C6.3711 9.25664 7.25683 9.06195 7.49839 8.96461C7.17631 9.1593 5.96849 9.64602 5.96849 11.3009C5.96849 13.2478 6.7737 15 7.41787 15C8.14256 15 9.4309 12.6637 9.4309 10.4248C9.4309 10.2301 9.59194 10.0354 9.59194 9.93806C9.59194 9.93806 9.51142 11.4956 9.99454 11.4956C10.4777 11.4956 10.3972 9.93806 10.3972 9.93806C10.3972 10.0354 10.4777 10.1327 10.4777 10.4248C10.4777 12.6637 11.766 15 12.4907 15C13.2154 15 13.9401 13.2478 13.9401 11.3982C13.9401 9.74337 12.7323 9.1593 12.3297 9.06195C12.7323 9.06195 13.618 9.25664 14.1011 8.67257Z" fill="black"/>
</svg>
