<svg xmlns="http://www.w3.org/2000/svg" width="24" height="24" viewBox="0 0 24 24">
    <path d="M4.5 6a.5.5 0 0 0 0 1V6Zm15 1a.5.5 0 0 0 0-1v1Zm-15 2a.5.5 0 0 0 0 1V9Zm5 1a.5.5 0 0 0 0-1v1Zm-5 2a.5.5 0 0 0 0 1v-1Zm5 1a.5.5 0 0 0 0-1v1Zm-5 2a.5.5 0 0 0 0 1v-1Zm5 1a.5.5 0 0 0 0-1v1Zm-5 2a.5.5 0 0 0 0 1v-1Zm15 1a.5.5 0 0 0 0-1v1Zm-1.93-7.43.354-.353-.353.354ZM4.5 6.5V7h15V6h-15v.5Zm0 3v.5h5V9h-5v.5Zm0 3v.5h5v-1h-5v.5Zm0 3v.5h5v-1h-5v.5Zm0 3v.5h15v-1h-15v.5Zm9-9v.5h5V9h-5v.5Zm-1 5h.5v-4h-1v4h.5Zm6 1V15h-5v1h5v-.5Zm-5 0 .354.354 3.929-3.93-.354-.353-.353-.354-3.93 3.93.354.353Zm6-5H19v3h1v-3h-.5Zm0 3H19v1h1v-1h-.5Zm-1.93-1.93-.353.354 1.93 1.93.353-.354.354-.354-1.93-1.929-.353.354ZM12.5 14.5H12a1.5 1.5 0 0 0 1.5 1.5v-1a.5.5 0 0 1-.5-.5h-.5Zm6 1v.5a1.5 1.5 0 0 0 1.5-1.5h-1a.5.5 0 0 1-.5.5v.5Zm0-6v.5a.5.5 0 0 1 .5.5h1A1.5 1.5 0 0 0 18.5 9v.5Zm-1.07 2.07.353.354a.4.4 0 0 1-.566 0l.354-.353.353-.354a.6.6 0 0 0-.848 0l.353.354ZM13.5 9.5V9a1.5 1.5 0 0 0-1.5 1.5h1a.5.5 0 0 1 .5-.5v-.5Zm1.305 2h-.5c0-.108.087-.195.195-.195v1c.444 0 .805-.36.805-.805h-.5Zm-.305.305v-.5c.108 0 .195.087.195.195h-1c0 .444.36.805.805.805v-.5Zm-.305-.305h.5a.195.195 0 0 1-.195.195v-1a.805.805 0 0 0-.805.805h.5Zm.305-.305v.5a.195.195 0 0 1-.195-.195h1a.805.805 0 0 0-.805-.805v.5Z" fill="currentColor" class="icon-gray-primary"/>
</svg>
