<svg width="20" height="20" viewBox="0 0 20 20" fill="none" xmlns="http://www.w3.org/2000/svg">
<path fill-rule="evenodd" clip-rule="evenodd" d="M17 5H7V6H17V5ZM17 10H10V11H17V10ZM12 15H17V16H12V15Z" fill="black"/>
<path d="M4 7H5V3H4H3V4H4V7Z" fill="black"/>
<path d="M9 17H10V15H9V17Z" fill="black"/>
<path d="M9 14H10V13H9V14Z" fill="black"/>
<path d="M7.5 10.5C7.5 11.0523 7.05228 11.5 6.5 11.5C5.94772 11.5 5.5 11.0523 5.5 10.5C5.5 9.94772 5.94772 9.5 6.5 9.5C7.05228 9.5 7.5 9.94772 7.5 10.5Z" fill="black"/>
</svg>
