<svg width="60" height="60" viewBox="0 0 60 60" fill="none" xmlns="http://www.w3.org/2000/svg">
<mask id="mask0_692_5179" style="mask-type:alpha" maskUnits="userSpaceOnUse" x="0" y="0" width="60" height="60">
<rect width="60" height="60" fill="#D9D9D9"/>
</mask>
<g mask="url(#mask0_692_5179)">
<path d="M13.231 44C12.3103 44 11.5417 43.6917 10.925 43.075C10.3083 42.4583 10 41.6897 10 40.769V19.231C10 18.3103 10.3083 17.5417 10.925 16.925C11.5417 16.3083 12.3103 16 13.231 16H46.769C47.6897 16 48.4583 16.3083 49.075 16.925C49.6917 17.5417 50 18.3103 50 19.231V40.769C50 41.6897 49.6917 42.4583 49.075 43.075C48.4583 43.6917 47.6897 44 46.769 44H13.231ZM13.231 42H46.769C47.128 42 47.423 41.8847 47.654 41.654C47.8847 41.423 48 41.128 48 40.769V19.231C48 18.872 47.8847 18.577 47.654 18.346C47.423 18.1153 47.128 18 46.769 18H13.231C12.872 18 12.577 18.1153 12.346 18.346C12.1153 18.577 12 18.872 12 19.231V40.769C12 41.128 12.1153 41.423 12.346 41.654C12.577 41.8847 12.872 42 13.231 42Z" fill="#1C1B1F"/>
<path fill-rule="evenodd" clip-rule="evenodd" d="M16 22H26V24H22V36H26V38H16V36H20V24H16V22Z" fill="#5C89FF"/>
</g>
</svg>
