<svg width="60" height="60" viewBox="0 0 60 60" fill="none" xmlns="http://www.w3.org/2000/svg">
<mask id="mask0_695_1241" style="mask-type:alpha" maskUnits="userSpaceOnUse" x="0" y="0" width="60" height="60">
<rect width="60" height="60" fill="#D9D9D9"/>
</mask>
<g mask="url(#mask0_695_1241)">
<path d="M26 40H34V38H26V40ZM26 32H40V30H26V32ZM20 24H40V22H20V24ZM12.0574 48V46H17.4558C15.8585 45.3873 14.5499 44.3693 13.5299 42.946C12.51 41.523 12 39.9 12 38.077C12 35.7257 12.8274 33.7275 14.4823 32.0825C16.1372 30.4378 18.1383 29.6155 20.4856 29.6155V31.6155C18.681 31.6155 17.1483 32.245 15.8874 33.504C14.6269 34.763 13.9966 36.3002 13.9966 38.1155C13.9966 39.6718 14.4791 41.0397 15.4442 42.219C16.4092 43.3987 16.5128 44.682 18 45V40H20V48H12.0574ZM26 46V44H42.7745C43.0819 44 43.3636 43.8718 43.6195 43.6155C43.8754 43.3592 44.0034 43.077 44.0034 42.769V17.231C44.0034 16.923 43.8754 16.6408 43.6195 16.3845C43.3636 16.1282 43.0819 16 42.7745 16H17.2796C16.9721 16 16.6904 16.1282 16.4345 16.3845C16.1786 16.6408 16.0506 16.923 16.0506 17.231V25H14.054V17.231C14.054 16.3103 14.3618 15.5417 14.9775 14.925C15.5931 14.3083 16.3605 14 17.2796 14H42.7745C43.6936 14 44.4609 14.3083 45.0766 14.925C45.6922 15.5417 46 16.3103 46 17.231V42.769C46 43.6897 45.6922 44.4583 45.0766 45.075C44.4609 45.6917 43.6936 46 42.7745 46H26Z" fill="#1C1B1F"/>
</g>
</svg>
