<svg width="20" height="20" viewBox="0 0 20 20" fill="none" xmlns="http://www.w3.org/2000/svg">
<path opacity="0.4" fill-rule="evenodd" clip-rule="evenodd" d="M18 2H2V3H18V2ZM2 4H18V5H2V4ZM18 6H2V7H18V6ZM2 8H18V9H2V8ZM18 10H2V11H18V10ZM2 12H18V13H2V12ZM18 14H2V15H18V14ZM18 16H2V17H18V16Z" fill="black"/>
<path fill-rule="evenodd" clip-rule="evenodd" d="M5.00009 5C4.99971 5.0454 5.00064 5.08557 5.00139 5.11811C5.00185 5.13774 5.00224 5.15459 5.00224 5.16815C5.00224 5.16815 5.04342 5.51664 5.1221 6H8.59771C8.35523 5.64392 8.07389 5.29751 7.7559 5H5.00009ZM12.2937 5C11.9987 5.30183 11.7364 5.64724 11.5093 6H14.8868C14.956 5.51664 14.9869 5.16815 14.9869 5.16815C14.9869 5.13219 14.9893 5.08739 14.9921 5.03646L14.9921 5.03624L14.9921 5.03621V5.03621C14.9927 5.02445 14.9934 5.01237 14.994 5H12.2937ZM14.4438 8C14.5508 7.69844 14.64 7.34867 14.7132 7H10.9563C10.772 7.38984 10.6387 7.74244 10.5603 8H14.4438ZM5.57635 8C5.47489 7.69844 5.38582 7.34867 5.31 7H9.178C9.36953 7.38882 9.50733 7.74181 9.58803 8H5.57635ZM13.624 9H7.4367L7.38393 9.02901L7.38391 9.02902C7.11475 9.17636 6.62243 9.44585 6.29529 10H9.57799C9.58522 9.9804 9.59011 9.96263 9.59152 9.94702C9.59107 9.95702 9.59033 9.97513 9.58957 10H10.3995L10.3979 9.95469C10.3992 9.96933 10.4021 9.98422 10.406 10H13.5644C13.1748 9.3859 12.5873 9.12425 12.3297 9.06195C12.4007 9.06195 12.4867 9.06801 12.5829 9.07478C12.8805 9.09573 13.2756 9.12353 13.624 9ZM7.39358 9H6.36767C6.74753 9.13057 7.16718 9.06555 7.39358 9ZM10.4296 8C10.38 7.80241 10.2794 7.60177 10.0751 7.60177C9.87071 7.60177 9.77009 7.80241 9.72053 8H10.4296ZM5.96849 11.3009C5.96849 11.196 5.97334 11.0957 5.98252 11H9.40377C9.37246 11.3387 9.31527 11.6748 9.23862 12H6.0025C5.98041 11.7717 5.96849 11.5377 5.96849 11.3009ZM9.99454 11.4956C9.81276 11.4956 9.71078 11.2751 9.65428 11H10.3348C10.2783 11.2751 10.1763 11.4956 9.99454 11.4956ZM10.67 12C10.5933 11.6748 10.5361 11.3387 10.5048 11H13.9153C13.9314 11.1253 13.9401 11.2579 13.9401 11.3982C13.9401 11.6007 13.9314 11.802 13.915 12H10.67ZM13.7621 13H10.9766C11.1181 13.3717 11.2799 13.7108 11.4488 14H13.4419C13.5689 13.7097 13.6784 13.37 13.7621 13ZM8.93197 13H6.16968C6.25935 13.3721 6.37395 13.7111 6.50296 14H8.45975C8.62869 13.7108 8.79051 13.3717 8.93197 13Z" fill="black"/>
</svg>
