<svg width="20" height="20" viewBox="0 0 20 20" fill="none" xmlns="http://www.w3.org/2000/svg">
    <path d="M4 3.5a.5.5 0 0 1 .5-.5H9v3a1 1 0 0 0 1 1h3v3h1V6.293L9.707 2H4.5A1.5 1.5 0 0 0 3 3.5v12A1.5 1.5 0 0 0 4.5 17H6v-1H4.5a.5.5 0 0 1-.5-.5v-12ZM12.293 6H10V3.707L12.293 6Z" fill="#000"/>
    <path d="M7 12a1 1 0 0 1 1-1h8a1 1 0 0 1 1 1v5a1 1 0 0 1-1 1H8a1 1 0 0 1-1-1v-5Zm.8.507v3.986L9.793 14.5 7.8 12.507Zm.707-.707L12 15.293l3.493-3.493H8.507Zm7.693.707L14.207 14.5l1.993 1.993v-3.986Zm-.707 4.693L13.5 15.207l-1.5 1.5-1.5-1.5L8.507 17.2h6.986ZM5 6h3.2v1H5V6Zm6.4 4V9H5v1h6.4Z" fill="#000"/>
</svg>
