<svg width="60" height="60" viewBox="0 0 60 60" fill="none" xmlns="http://www.w3.org/2000/svg">
<mask id="mask0_692_5195" style="mask-type:alpha" maskUnits="userSpaceOnUse" x="0" y="0" width="60" height="60">
<rect width="60" height="60" fill="#D9D9D9"/>
</mask>
<g mask="url(#mask0_692_5195)">
<path d="M14 46V44H46V46H14ZM14 16V14H46V16H14Z" fill="#1C1B1F"/>
<path d="M26.9348 42C25.5701 42 24.4064 41.5 23.4437 40.4999C22.4812 39.5 22 38.2905 22 36.8714C22 36.1827 22.1566 35.5449 22.4698 34.958C22.7831 34.3713 23.3286 33.6896 24.1065 32.9129C24.3559 32.6839 24.5764 32.4432 24.768 32.1908C24.9598 31.9386 25.1796 31.6648 25.4274 31.3694C24.4442 29.7859 23.6923 28.1339 23.1717 26.4136C22.6509 24.6933 22.3905 23.0049 22.3905 21.3485C22.3905 20.2466 22.5546 19.4131 22.8828 18.848C23.211 18.2827 23.6821 18 24.296 18C25.2205 18 26.099 18.5208 26.9314 19.5623C27.7638 20.6038 28.4277 21.6706 28.9231 22.7628C29.1867 23.3769 29.4072 24.011 29.5846 24.6649C29.7621 25.3189 29.9005 25.9786 30 26.6441C30.0995 25.9786 30.2399 25.3189 30.4212 24.6649C30.6028 24.011 30.8277 23.3769 31.096 22.7628C31.5709 21.6706 32.2265 20.6038 33.0628 19.5623C33.8991 18.5208 34.7795 18 35.704 18C36.318 18 36.789 18.2827 37.1172 18.848C37.4454 19.4131 37.6095 20.2466 37.6095 21.3485C37.6095 23.0049 37.3491 24.6933 36.8283 26.4136C36.3077 28.1339 35.5558 29.7859 34.5726 31.3694C34.8204 31.6648 35.0402 31.9386 35.232 32.1908C35.4236 32.4432 35.6441 32.6839 35.8935 32.9129C36.6714 33.6896 37.2169 34.3713 37.5302 34.958C37.8434 35.5449 38 36.1827 38 36.8714C38 38.2905 37.5188 39.5 36.5563 40.4999C35.5936 41.5 34.4299 42 33.0652 42C32.2209 42 31.499 41.8796 30.8994 41.6388L30 41.2779L29.1006 41.6388C28.501 41.8796 27.7791 42 26.9348 42ZM26.9822 40.0581C27.4304 40.0581 27.8904 39.9967 28.3622 39.8739C28.8339 39.7512 29.275 39.5711 29.6852 39.3338C29.4754 39.2259 29.2841 39.0528 29.1114 38.8146C28.9385 38.5764 28.852 38.3685 28.852 38.191C28.852 38.0183 28.9621 37.8735 29.1822 37.7563C29.4023 37.6393 29.6749 37.5809 30 37.5809C30.3171 37.5809 30.5838 37.6415 30.8 37.7628C31.0162 37.8838 31.1243 38.0265 31.1243 38.191C31.1243 38.3685 31.0379 38.5764 30.8652 38.8146C30.6923 39.0528 30.5009 39.2259 30.2911 39.3338C30.7013 39.5711 31.1424 39.7512 31.6142 39.8739C32.0859 39.9967 32.5459 40.0581 32.9942 40.0581C33.8715 40.0581 34.6134 39.7493 35.22 39.1318C35.8268 38.5145 36.1302 37.761 36.1302 36.8714C36.1302 36.4498 36.0216 36.0515 35.8046 35.6765C35.5878 35.3013 35.2585 34.9179 34.8166 34.5263C34.5452 34.2839 34.329 34.074 34.168 33.8964C34.0072 33.7186 33.7729 33.4265 33.4652 33.02C32.815 32.1569 32.2832 31.6038 31.8698 31.3606C31.4565 31.1175 30.8293 30.9959 29.9883 30.9959C29.1473 30.9959 28.5168 31.1175 28.0969 31.3606C27.6772 31.6038 27.1486 32.1569 26.5111 33.02C26.2036 33.4265 25.9693 33.7186 25.8083 33.8964C25.6473 34.074 25.4311 34.2839 25.1597 34.5263C24.7178 34.9179 24.3885 35.3013 24.1717 35.6765C23.9547 36.0515 23.8462 36.4498 23.8462 36.8714C23.8462 37.761 24.1495 38.5145 24.7563 39.1318C25.3629 39.7493 26.1048 40.0581 26.9822 40.0581ZM28.1538 35.8506C27.9897 35.8506 27.8462 35.7535 27.7231 35.5593C27.6 35.3652 27.5385 35.1386 27.5385 34.8797C27.5385 34.6208 27.6 34.3942 27.7231 34.2C27.8462 34.0058 27.9897 33.9087 28.1538 33.9087C28.3179 33.9087 28.4615 34.0058 28.5846 34.2C28.7077 34.3942 28.7692 34.6208 28.7692 34.8797C28.7692 35.1386 28.7077 35.3652 28.5846 35.5593C28.4615 35.7535 28.3179 35.8506 28.1538 35.8506ZM31.8462 35.8506C31.6821 35.8506 31.5385 35.7535 31.4154 35.5593C31.2923 35.3652 31.2308 35.1386 31.2308 34.8797C31.2308 34.6208 31.2923 34.3942 31.4154 34.2C31.5385 34.0058 31.6821 33.9087 31.8462 33.9087C32.0103 33.9087 32.1538 34.0058 32.2769 34.2C32.4 34.3942 32.4615 34.6208 32.4615 34.8797C32.4615 35.1386 32.4 35.3652 32.2769 35.5593C32.1538 35.7535 32.0103 35.8506 31.8462 35.8506ZM26.7551 29.9453C26.9965 29.7561 27.2628 29.6009 27.5538 29.4799C27.8449 29.3586 28.1648 29.2607 28.5135 29.186C28.4725 28.2002 28.3317 27.2113 28.0911 26.2194C27.8505 25.2278 27.5393 24.3029 27.1575 23.4448C26.7598 22.5321 26.3171 21.7686 25.8295 21.1543C25.3419 20.5402 24.8623 20.1469 24.3905 19.9743C24.3494 20.1203 24.3135 20.3021 24.2828 20.5196C24.252 20.7371 24.2366 21.001 24.2366 21.3113C24.2366 22.7371 24.4552 24.1968 24.8923 25.6906C25.3294 27.1843 25.9504 28.6026 26.7551 29.9453ZM33.2449 29.9453C34.0496 28.6026 34.6706 27.1843 35.1077 25.6906C35.5448 24.1968 35.7634 22.7371 35.7634 21.3113C35.7634 21.001 35.748 20.7371 35.7172 20.5196C35.6865 20.3021 35.6506 20.1203 35.6095 19.9743C35.1377 20.1469 34.6581 20.5402 34.1705 21.1543C33.6829 21.7686 33.2402 22.5321 32.8425 23.4448C32.4732 24.3029 32.1683 25.2278 31.9277 26.2194C31.6871 27.2113 31.54 28.2002 31.4865 29.186C31.8099 29.2473 32.1172 29.3419 32.4083 29.4699C32.6994 29.5976 32.9783 29.7561 33.2449 29.9453Z" fill="#1C1B1F"/>
</g>
</svg>
