<svg width="60" height="60" viewBox="0 0 60 60" fill="none" xmlns="http://www.w3.org/2000/svg">
<mask id="mask0_695_1244" style="mask-type:alpha" maskUnits="userSpaceOnUse" x="0" y="0" width="60" height="60">
<rect width="60" height="60" fill="#D9D9D9"/>
</mask>
<g mask="url(#mask0_695_1244)">
<path d="M14 44V42H28V44H14ZM14 36V34H28V36H14ZM37.231 48C36.336 48 35.5737 47.6853 34.944 47.056C34.3147 46.4263 34 45.664 34 44.769V31.231C34 30.336 34.3147 29.5737 34.944 28.944C35.5737 28.3147 36.336 28 37.231 28H42.769C43.664 28 44.4263 28.3147 45.056 28.944C45.6853 29.5737 46 30.336 46 31.231V44.769C46 45.664 45.6853 46.4263 45.056 47.056C44.4263 47.6853 43.664 48 42.769 48H37.231ZM37.231 46H42.769C43.128 46 43.423 45.8847 43.654 45.654C43.8847 45.423 44 45.128 44 44.769V31.231C44 30.872 43.8847 30.577 43.654 30.346C43.423 30.1153 43.128 30 42.769 30H37.231C36.872 30 36.577 30.1153 36.346 30.346C36.1153 30.577 36 30.872 36 31.231V44.769C36 45.128 36.1153 45.423 36.346 45.654C36.577 45.8847 36.872 46 37.231 46Z" fill="#1C1B1F"/>
<path d="M46 15V24H37V22H42.2804C41.1678 19.759 39.5326 18.0433 37.3749 16.651C35.2173 15.2587 32.7909 14.5625 30.0959 14.5625C26.9806 14.5625 24.2293 15.4497 21.8419 17.224C19.4549 18.9983 17.7973 21.2907 16.8689 24.101H14.7499C15.7013 20.747 17.5839 17.9855 20.3979 15.8165C23.2119 13.6472 26.4446 12.5625 30.0959 12.5625C33.1599 12.5625 35.9259 13.342 38.3939 14.901C40.8619 16.46 42.6667 18.472 44 21V15H46Z" fill="#1C1B1F"/>
</g>
</svg>
