<svg width="20" height="20" viewBox="0 0 20 20" fill="none" xmlns="http://www.w3.org/2000/svg">
<g opacity="0.8">
<path d="M13 10C13 10.2761 13.2239 10.5 13.5 10.5C13.7761 10.5 14 10.2761 14 10H13ZM11 10C11 10.2761 11.2239 10.5 11.5 10.5C11.7761 10.5 12 10.2761 12 10H11ZM9 10C9 10.2761 9.22386 10.5 9.5 10.5C9.77614 10.5 10 10.2761 10 10H9ZM7.5 11.5L7.14645 11.8536C7.28945 11.9966 7.5045 12.0393 7.69134 11.9619C7.87818 11.8845 8 11.7022 8 11.5H7.5ZM4.19369 10.9316L4.64292 10.712L4.19369 10.9316ZM5.78825 9.78825L5.43469 10.1418L5.78825 9.78825ZM13 8V10H14V8H13ZM14 8V4.5H13V8H14ZM11 5V10H12V5H11ZM12 5V3.5H11V5H12ZM9 3.5V6H10V3.5H9ZM9 6V10H10V6H9ZM7 5.5V11.5H8V5.5H7ZM7.85355 11.1464L6.1418 9.43469L5.43469 10.1418L7.14645 11.8536L7.85355 11.1464ZM11 4.5V5H12V4.5H11ZM10 6V5.5H9V6H10ZM13 7.5V8H14V7.5H13ZM3.74446 11.1511C4.37947 12.4505 5.25669 14.1362 6.35258 15.501C7.4345 16.8483 8.82341 18 10.5 18V17C9.29804 17 8.1672 16.1636 7.13231 14.8749C6.11139 13.6035 5.27474 12.005 4.64292 10.712L3.74446 11.1511ZM10.5 18C11.868 18 12.9419 17.7062 13.7647 17.126C14.5896 16.5443 15.1084 15.7127 15.4351 14.7388C15.7596 13.7718 15.9025 12.6424 15.9653 11.4282C16.0282 10.2128 16.0119 8.87699 16.0036 7.49753L15.0036 7.50359C15.012 8.89673 15.0277 10.1972 14.9666 11.3765C14.9056 12.557 14.7688 13.5809 14.4871 14.4207C14.2076 15.2535 13.7936 15.882 13.1884 16.3088C12.5811 16.737 11.7276 17 10.5 17V18ZM14.5 6C13.6716 6 13 6.67157 13 7.5H14C14 7.22386 14.2239 7 14.5 7V6ZM10 5.5C10 4.67157 9.32843 4 8.5 4V5C8.77614 5 9 5.22386 9 5.5H10ZM5.09236 9C3.99507 9 3.25917 10.158 3.74446 11.1511L4.64292 10.712C4.48579 10.3905 4.72647 10 5.09236 10V9ZM6.1418 9.43469C5.86347 9.15636 5.48598 9 5.09236 9V10C5.22076 10 5.3439 10.051 5.43469 10.1418L6.1418 9.43469ZM10.5 2C9.67157 2 9 2.67157 9 3.5H10C10 3.22386 10.2239 3 10.5 3V2ZM12 3.5C12 2.67157 11.3284 2 10.5 2V3C10.7761 3 11 3.22386 11 3.5H12ZM12.5 3C11.6716 3 11 3.67157 11 4.5H12C12 4.22386 12.2239 4 12.5 4V3ZM14 4.5C14 3.67157 13.3284 3 12.5 3V4C12.7761 4 13 4.22386 13 4.5H14ZM8 5.5C8 5.22386 8.22386 5 8.5 5V4C7.67157 4 7 4.67157 7 5.5H8ZM14.5 7C14.7753 7 15.0019 7.22429 15.0036 7.50359L16.0036 7.49753C15.9986 6.67229 15.3292 6 14.5 6V7Z" fill="black"/>
</g>
</svg>
