<svg width="20" height="20" viewBox="0 0 20 20" fill="none" xmlns="http://www.w3.org/2000/svg">
<path fill-rule="evenodd" clip-rule="evenodd" d="M17 5H3V6H17V5ZM9 7H3V8H9V7ZM3 9H9V10H3V9ZM9 11H3V12H9V11ZM3 13H9V14H3V13ZM3 15V16H17V15H3ZM11 8H16V11.293L14.5 9.79297L11.293 13H11V8ZM16 13H12.7072L14.5 11.2072L16 12.7072L16 13ZM10.293 14H10V7H17V14L17 14.0001H10.2929L10.293 14ZM12.5 10C12.7761 10 13 9.77614 13 9.5C13 9.22386 12.7761 9 12.5 9C12.2239 9 12 9.22386 12 9.5C12 9.77614 12.2239 10 12.5 10Z" fill="black"/>
</svg>
