<svg width="20" height="20" viewBox="0 0 20 20" fill="none" xmlns="http://www.w3.org/2000/svg">
<path opacity="0.4" fill-rule="evenodd" clip-rule="evenodd" d="M9 10L9 15H4L4 10H9ZM9 9V4L4 4V9H9ZM10 3V4L10 15V16H9H4H3V15V4V3H4H9H10Z" fill="black"/>
<mask id="path-2-inside-1_534_12046" fill="white">
<path fill-rule="evenodd" clip-rule="evenodd" d="M15 3V2H14V3L11 3V4L14 4L14 9H11V10H14L14 15H11V16H14V17H15V16H17V15H15L15 10H17V9H15L15 4L17 4V3L15 3Z"/>
</mask>
<path fill-rule="evenodd" clip-rule="evenodd" d="M15 3V2H14V3L11 3V4L14 4L14 9H11V10H14L14 15H11V16H14V17H15V16H17V15H15L15 10H17V9H15L15 4L17 4V3L15 3Z" fill="black"/>
<path d="M15 2H16V1H15V2ZM15 3H14V4H15V3ZM14 2V1H13V2H14ZM14 3V4H15V3H14ZM11 3L11 2L10 2V3H11ZM11 4H10V5H11L11 4ZM14 4H15V3L14 3V4ZM14 9V10H15V9H14ZM11 9V8H10V9H11ZM11 10H10V11H11V10ZM14 10H15V9H14V10ZM14 15V16H15V15H14ZM11 15V14H10V15H11ZM11 16H10V17H11V16ZM14 16H15V15H14V16ZM14 17H13V18H14V17ZM15 17V18H16V17H15ZM15 16V15H14V16H15ZM17 16V17H18V16H17ZM17 15H18V14H17V15ZM15 15H14V16H15V15ZM15 10V9H14V10H15ZM17 10V11H18V10H17ZM17 9H18V8H17V9ZM15 9H14V10H15V9ZM15 4V3L14 3V4H15ZM17 4V5H18V4H17ZM17 3H18V2L17 2V3ZM14 2V3H16V2H14ZM14 3H15V1H14V3ZM15 3V2H13V3H15ZM11 4L14 4V2L11 2L11 4ZM12 4V3H10V4H12ZM14 3L11 3L11 5H14V3ZM15 9L15 4H13L13 9H15ZM11 10H14V8H11V10ZM12 10V9H10V10H12ZM14 9H11V11H14V9ZM15 15L15 10H13L13 15H15ZM14 14H11V16H14V14ZM10 15V16H12V15H10ZM11 17H14V15H11V17ZM15 17V16H13V17H15ZM15 16H14V18H15V16ZM14 16V17H16V16H14ZM15 17H17V15H15V17ZM18 16V15H16V16H18ZM17 14H15V16H17V14ZM14 10L14 15H16L16 10H14ZM17 9H15V11H17V9ZM16 9V10H18V9H16ZM15 10H17V8H15V10ZM14 4L14 9H16L16 4H14ZM17 3L15 3V5L17 5V3ZM16 3V4H18V3H16ZM15 4L17 4V2L15 2V4Z" fill="black" mask="url(#path-2-inside-1_534_12046)"/>
</svg>
