<svg width="0" height="0" style="position:absolute"><symbol viewBox="0 0 40 40" id="btn-drop-margin"><path fill-rule="evenodd" clip-rule="evenodd" d="M14.811 17H17L13.0095 7H10.8817L7 17H9.1346L9.95717 14.7285H13.9409L14.811 17ZM11.9218 9.33288L13.295 13.0437H10.5758L11.9218 9.33288ZM33 7H19V8H33V7ZM33 10H19V11H33V10ZM19 13H33V14H19V13ZM33 16H19V17H33V16ZM19 19H33V20H19V19ZM33 22H19V23H33V22ZM19 25H33V26H19V25ZM33 28H19V29H33V28ZM19 31H33V32H19V31Z"/></symbol><symbol viewBox="0 0 40 40" id="btn-drop-none"><path fill-rule="evenodd" clip-rule="evenodd" d="M7 7H33V8H7V7ZM7 10H33V11H7V10ZM33 13H7V14H33V13ZM7 16H33V17H7V16ZM33 19H7V20H33V19ZM7 22H33V23H7V22ZM33 25H7V26H33V25ZM7 28H33V29H7V28ZM33 31H7V32H33V31Z"/></symbol><symbol viewBox="0 0 40 40" id="btn-drop-text"><path fill-rule="evenodd" clip-rule="evenodd" d="M33 7H19V8H33V7ZM33 10H19V11H33V10ZM19 13H33V14H19V13ZM33 16H19V17H33V16ZM7 19H33V20H7V19ZM33 22H7V23H33V22ZM7 25H33V26H7V25ZM33 28H7V29H33V28ZM7 31H33V32H7V31ZM14.811 17H17L13.0095 7H10.8817L7 17H9.1346L9.95717 14.7285H13.9409L14.811 17ZM11.9218 9.33288L13.295 13.0437H10.5758L11.9218 9.33288Z"/></symbol><symbol viewBox="0 0 40 40" id="btn-none"><path fill-rule="evenodd" clip-rule="evenodd" d="M32 9H9V32H32V9ZM9 8H8V9V32V33H9H32H33V32V9V8H32H9ZM19.7929 20.5L15.1464 15.8536L15.8536 15.1464L20.5 19.7929L25.1464 15.1464L25.8536 15.8536L21.2071 20.5L25.8536 25.1464L25.1464 25.8536L20.5 21.2071L15.8536 25.8536L15.1464 25.1464L19.7929 20.5Z"/></symbol><symbol viewBox="0 0 40 40" id="btn-page-number-bottom-center"><path fill-rule="evenodd" clip-rule="evenodd" d="M10 7H30V33H10V7ZM9 7C9 6.44771 9.44772 6 10 6H30C30.5523 6 31 6.44772 31 7V33C31 33.5523 30.5523 34 30 34H10C9.44772 34 9 33.5523 9 33V7ZM23 28H17V31H23V28Z"/></symbol><symbol viewBox="0 0 40 40" id="btn-page-number-bottom-left"><path fill-rule="evenodd" clip-rule="evenodd" d="M10 7H30V33H10V7ZM9 7C9 6.44771 9.44772 6 10 6H30C30.5523 6 31 6.44772 31 7V33C31 33.5523 30.5523 34 30 34H10C9.44772 34 9 33.5523 9 33V7ZM18 28H12V31H18V28Z"/></symbol><symbol viewBox="0 0 40 40" id="btn-page-number-bottom-right"><path fill-rule="evenodd" clip-rule="evenodd" d="M10 7H30V33H10V7ZM9 7C9 6.44771 9.44772 6 10 6H30C30.5523 6 31 6.44772 31 7V33C31 33.5523 30.5523 34 30 34H10C9.44772 34 9 33.5523 9 33V7ZM28 28H22V31H28V28Z"/></symbol><symbol viewBox="0 0 40 40" id="btn-page-number-top-center"><path fill-rule="evenodd" clip-rule="evenodd" d="M10 7H30V33H10V7ZM9 7C9 6.44771 9.44772 6 10 6H30C30.5523 6 31 6.44772 31 7V33C31 33.5523 30.5523 34 30 34H10C9.44772 34 9 33.5523 9 33V7ZM23 9H17V12H23V9Z"/></symbol><symbol viewBox="0 0 40 40" id="btn-page-number-top-left"><path fill-rule="evenodd" clip-rule="evenodd" d="M10 7H30V33H10V7ZM9 7C9 6.44771 9.44772 6 10 6H30C30.5523 6 31 6.44772 31 7V33C31 33.5523 30.5523 34 30 34H10C9.44772 34 9 33.5523 9 33V7ZM18 9H12V12H18V9Z"/></symbol><symbol viewBox="0 0 40 40" id="btn-page-number-top-right"><path fill-rule="evenodd" clip-rule="evenodd" d="M10 7H30V33H10V7ZM9 7C9 6.44771 9.44772 6 10 6H30C30.5523 6 31 6.44772 31 7V33C31 33.5523 30.5523 34 30 34H10C9.44772 34 9 33.5523 9 33V7ZM28 9H22V12H28V9Z"/></symbol><symbol viewBox="0 0 40 40" id="btn-table-align-center"><path fill-rule="evenodd" clip-rule="evenodd" d="M33 8H8V9H33V8ZM8 11H33V12H8V11ZM33 29H8V30H33V29ZM33 32H8V33H33V32ZM26 15H15V26H26V15Z"/></symbol><symbol viewBox="0 0 40 40" id="btn-table-align-left"><path fill-rule="evenodd" clip-rule="evenodd" d="M33 8H8V9H33V8ZM8 11H33V12H8V11ZM33 29H8V30H33V29ZM33 32H8V33H33V32ZM19 15H8V26H19V15Z"/></symbol><symbol viewBox="0 0 40 40" id="btn-table-align-right"><path fill-rule="evenodd" clip-rule="evenodd" d="M33 8H8V9H33V8ZM8 11H33V12H8V11ZM33 29H8V30H33V29ZM33 32H8V33H33V32ZM33 15H22V26H33V15Z"/></symbol><symbol viewBox="0 0 40 40" id="btn-table-flow"><path fill-rule="evenodd" clip-rule="evenodd" d="M33 8H8V9H33V8ZM8 11H33V12H8V11ZM12 14H8V15H12V14ZM33 29H8V30H33V29ZM33 32H8V33H33V32ZM29 14H33V15H29V14ZM12 17H8V18H12V17ZM29 17H33V18H29V17ZM12 20H8V21H12V20ZM29 20H33V21H29V20ZM12 23H8V24H12V23ZM29 23H33V24H29V23ZM12 26H8V27H12V26ZM29 26H33V27H29V26ZM26 15H15V26H26V15Z"/></symbol><symbol viewBox="0 0 40 40" id="btn-wrap-behind"><path opacity="0.4" fill-rule="evenodd" clip-rule="evenodd" d="M4 4H36V5H4V4ZM36 7H4V8H36V7ZM4 10H36V11H4V10ZM36 13H4V14H36V13ZM4 16H36V17H4V16ZM36 19H4V20H36V19ZM4 22H36V23H4V22ZM36 25H4V26H36V25ZM4 28H36V29H4V28ZM36 31H4V32H36V31ZM36 34H4V35H36V34Z"/><path fill-rule="evenodd" clip-rule="evenodd" d="M11.1017 11C10.9885 11.3525 10.9976 11.728 11.0025 11.9313C11.0033 11.9652 11.004 11.9943 11.004 12.0177C11.004 12.0177 11.0523 12.4098 11.1454 13H17.1375C16.5372 12.2321 15.825 11.5187 15.009 11H11.1017ZM24.982 11C24.2408 11.539 23.5892 12.2471 23.0358 13H28.8607C28.9401 12.4098 28.9763 12.0177 28.9763 12.0177C28.9763 11.9555 28.9807 11.878 28.9858 11.7898C28.9983 11.5685 29.0147 11.2803 28.9747 11H24.982ZM28.71 14H22.3688C21.9399 14.7068 21.5974 15.4058 21.3477 16H28.285C28.4637 15.3397 28.604 14.6325 28.71 14ZM27.9646 17H20.9804C20.9006 17.2643 20.8598 17.4613 20.8598 17.5664C20.8598 17.5664 20.8598 17.2974 20.795 17H19.4752C19.4104 17.2974 19.4104 17.5664 19.4104 17.5664C19.4104 17.4603 19.3689 17.2633 19.2874 17H12.0699C12.2298 17.441 12.4063 17.8161 12.5983 18.0708C13.468 19.0796 15.0623 18.7434 15.4971 18.5752C15.4418 18.6073 15.372 18.6439 15.291 18.6865C15.1379 18.767 14.9446 18.8685 14.7332 19H24.8693C24.5975 18.8632 24.358 18.7816 24.1934 18.7434C24.3212 18.7434 24.476 18.7538 24.6492 18.7655C25.4579 18.8201 26.6658 18.9017 27.382 18.0708C27.6015 17.8161 27.7951 17.441 27.9646 17ZM26.1432 20H13.5863C13.1985 20.4893 12.8813 21.1367 12.7785 22H18.9352C18.9616 21.6994 18.9756 21.3979 18.9756 21.0974C18.9756 20.9004 19.0751 20.7034 19.1575 20.5402C19.2116 20.4331 19.2583 20.3406 19.2647 20.2721C19.2588 20.3991 19.2241 21.2826 19.3594 22H20.6209C20.7522 21.3039 20.7234 20.4513 20.7162 20.2854C20.721 20.3377 20.7381 20.3919 20.7589 20.4578C20.8016 20.5929 20.8598 20.7776 20.8598 21.0974C20.8598 21.3979 20.8738 21.6994 20.9003 22H27.0344C26.9021 21.1421 26.5568 20.4888 26.1432 20ZM27.0901 23H21.0331C21.1553 23.6924 21.3361 24.3674 21.5553 25H26.8867C27.0051 24.3634 27.0772 23.6871 27.0901 23ZM26.6544 26H21.9483C22.2997 26.7953 22.7032 27.4838 23.1065 28H25.8036C26.1371 27.4817 26.4315 26.7914 26.6544 26ZM16.7289 28C17.1322 27.4838 17.5357 26.7953 17.8871 26H13.2297C13.466 26.7965 13.7701 27.4845 14.1007 28H16.7289ZM12.9823 25H18.2801C18.4993 24.3674 18.6801 23.6924 18.8023 23H12.7497C12.7726 23.6939 12.8553 24.3686 12.9823 25ZM11.7598 16H18.9085C18.6492 15.404 18.292 14.7041 17.8428 14H11.3164C11.4334 14.6325 11.5819 15.3397 11.7598 16Z"/></symbol><symbol viewBox="0 0 40 40" id="btn-wrap-infront"><path opacity="0.4" fill-rule="evenodd" clip-rule="evenodd" d="M4 4H36V5H4V4ZM36 7H4V8H36V7ZM4 10H36V11H4V10ZM36 13H4V14H36V13ZM4 16H36V17H4V16ZM36 19H4V20H36V19ZM4 22H36V23H4V22ZM36 25H4V26H36V25ZM4 28H36V29H4V28ZM36 31H4V32H36V31ZM36 34H4V35H36V34Z"/><path d="M27.382 18.0708C28.5415 16.7257 28.9763 12.0177 28.9763 12.0177C28.9763 11.5133 29.2662 10 27.8168 10C23.4687 10 20.8598 16.7257 20.8598 17.5664C20.8598 17.5664 20.8598 16.2212 20.1351 16.2212C19.4104 16.2212 19.4104 17.5664 19.4104 17.5664C19.4104 16.7257 16.8015 10.1682 12.3085 10.1682C10.8591 10.1682 11.004 11.6814 11.004 12.0177C11.004 12.0177 11.5838 16.7257 12.5983 18.0708C13.468 19.0796 15.0623 18.7434 15.4971 18.5752C14.9174 18.9115 12.7433 19.7522 12.7433 22.6106C12.7433 25.9734 14.1927 29 15.3522 29C16.6566 29 18.9756 24.9646 18.9756 21.0974C18.9756 20.7611 19.2655 20.4248 19.2655 20.2566C19.2655 20.2566 19.1206 22.9469 19.9902 22.9469C20.8598 22.9469 20.7149 20.2566 20.7149 20.2566C20.7149 20.4248 20.8598 20.5929 20.8598 21.0974C20.8598 24.9646 23.1788 29 24.4833 29C25.7877 29 27.0921 25.9735 27.0921 22.7788C27.0921 19.9204 24.9181 18.9115 24.1934 18.7434C24.9181 18.7434 26.5124 19.0796 27.382 18.0708Z"/></symbol><symbol viewBox="0 0 40 40" id="btn-wrap-inline"><path fill-rule="evenodd" clip-rule="evenodd" d="M36 4H4V5H36V4ZM4 7H36V8H4V7ZM29 28H36V29H29V28ZM36 31H4V32H36V31ZM36 34H4V35H36V34ZM11 28H4V29H11V28ZM28.9763 12.0177C28.9763 12.0177 28.5415 16.7257 27.382 18.0708C26.6658 18.9017 25.4579 18.8201 24.6492 18.7655C24.476 18.7538 24.3212 18.7434 24.1934 18.7434C24.9181 18.9115 27.0921 19.9204 27.0921 22.7788C27.0921 25.9735 25.7877 29 24.4833 29C23.1788 29 20.8598 24.9646 20.8598 21.0974C20.8598 20.7776 20.8016 20.5929 20.7589 20.4578C20.7381 20.3918 20.721 20.3377 20.7162 20.2854C20.7288 20.5744 20.8068 22.9469 19.9902 22.9469C19.1592 22.9469 19.2546 20.4906 19.2647 20.2721C19.2583 20.3406 19.2116 20.4331 19.1575 20.5402C19.0751 20.7034 18.9756 20.9004 18.9756 21.0974C18.9756 24.9646 16.6566 29 15.3522 29C14.1927 29 12.7433 25.9734 12.7433 22.6106C12.7433 20.0248 14.5225 19.0902 15.291 18.6865C15.372 18.6439 15.4418 18.6073 15.4971 18.5752C15.0623 18.7434 13.468 19.0796 12.5983 18.0708C11.5838 16.7257 11.004 12.0177 11.004 12.0177C11.004 11.9943 11.0033 11.9652 11.0025 11.9313C10.9916 11.4781 10.96 10.1682 12.3085 10.1682C16.8015 10.1682 19.4104 16.7257 19.4104 17.5664C19.4104 17.5664 19.4104 16.2212 20.1351 16.2212C20.8598 16.2212 20.8598 17.5664 20.8598 17.5664C20.8598 16.7257 23.4687 10 27.8168 10C29.0875 10 29.0214 11.1631 28.9858 11.7898C28.9807 11.878 28.9763 11.9555 28.9763 12.0177Z"/></symbol><symbol viewBox="0 0 40 40" id="btn-wrap-square"><path fill-rule="evenodd" clip-rule="evenodd" d="M36 4H4V5H36V4ZM4 7H36V8H4V7ZM4 10H9V11H4V10ZM9 13H4V14H9V13ZM4 16H9V17H4V16ZM9 19H4V20H9V19ZM4 22H9V23H4V22ZM9 25H4V26H9V25ZM4 28H9V29H4V28ZM36 31H4V32H36V31ZM36 34H4V35H36V34ZM36 28H31V29H36V28ZM31 25H36V26H31V25ZM36 22H31V23H36V22ZM31 19H36V20H31V19ZM36 16H31V17H36V16ZM31 13H36V14H31V13ZM36 10H31V11H36V10ZM28.9763 12.0177C28.9763 12.0177 28.5415 16.7257 27.382 18.0708C26.6658 18.9017 25.4579 18.8201 24.6492 18.7655C24.476 18.7538 24.3212 18.7434 24.1934 18.7434C24.9181 18.9115 27.0921 19.9204 27.0921 22.7788C27.0921 25.9735 25.7877 29 24.4833 29C23.1788 29 20.8598 24.9646 20.8598 21.0974C20.8598 20.7776 20.8016 20.5929 20.7589 20.4578C20.7381 20.3918 20.721 20.3377 20.7162 20.2854C20.7288 20.5744 20.8068 22.9469 19.9902 22.9469C19.1592 22.9469 19.2546 20.4906 19.2647 20.2721C19.2583 20.3406 19.2116 20.4331 19.1575 20.5402C19.0751 20.7034 18.9756 20.9004 18.9756 21.0974C18.9756 24.9646 16.6566 29 15.3522 29C14.1927 29 12.7433 25.9734 12.7433 22.6106C12.7433 20.0248 14.5225 19.0902 15.291 18.6865C15.372 18.6439 15.4418 18.6073 15.4971 18.5752C15.0623 18.7434 13.468 19.0796 12.5983 18.0708C11.5838 16.7257 11.004 12.0177 11.004 12.0177C11.004 11.9943 11.0033 11.9652 11.0025 11.9313C10.9916 11.4781 10.96 10.1682 12.3085 10.1682C16.8015 10.1682 19.4104 16.7257 19.4104 17.5664C19.4104 17.5664 19.4104 16.2212 20.1351 16.2212C20.8598 16.2212 20.8598 17.5664 20.8598 17.5664C20.8598 16.7257 23.4687 10 27.8168 10C29.0875 10 29.0214 11.1631 28.9858 11.7898C28.9807 11.878 28.9763 11.9555 28.9763 12.0177Z"/></symbol><symbol viewBox="0 0 40 40" id="btn-wrap-through"><path fill-rule="evenodd" clip-rule="evenodd" d="M36 4H4V5H36V4ZM4 7H36V8H4V7ZM9 10H4V11H9V10ZM4 13H9V14H4V13ZM10 16H4V17H10V16ZM4 19H11V20H4V19ZM11 22H4V23H11V22ZM4 25H11V26H4V25ZM12 28H4V29H12V28ZM4 31H36V32H4V31ZM4 34H36V35H4V34ZM17 10H23V11H17V10ZM21 13H19V14H21V13ZM18 28H22V29H18V28ZM28 28H36V29H28V28ZM36 25H29V26H36V25ZM29 22H36V23H29V22ZM36 19H29V20H36V19ZM30 16H36V17H30V16ZM36 13H31V14H36V13ZM31 10H36V11H31V10ZM28.9763 12.0177C28.9763 12.0177 28.5415 16.7257 27.382 18.0708C26.6658 18.9017 25.4579 18.8201 24.6492 18.7655C24.476 18.7538 24.3212 18.7434 24.1934 18.7434C24.9181 18.9115 27.0921 19.9204 27.0921 22.7788C27.0921 25.9735 25.7877 29 24.4833 29C23.1788 29 20.8598 24.9646 20.8598 21.0974C20.8598 20.7776 20.8016 20.5929 20.7589 20.4578C20.7381 20.3918 20.721 20.3377 20.7162 20.2854C20.7288 20.5744 20.8068 22.9469 19.9902 22.9469C19.1592 22.9469 19.2546 20.4906 19.2647 20.2721C19.2583 20.3406 19.2116 20.4331 19.1575 20.5402C19.0751 20.7034 18.9756 20.9004 18.9756 21.0974C18.9756 24.9646 16.6566 29 15.3522 29C14.1927 29 12.7433 25.9734 12.7433 22.6106C12.7433 20.0248 14.5225 19.0902 15.291 18.6865C15.372 18.6439 15.4418 18.6073 15.4971 18.5752C15.0623 18.7434 13.468 19.0796 12.5983 18.0708C11.5838 16.7257 11.004 12.0177 11.004 12.0177C11.004 11.9943 11.0033 11.9652 11.0025 11.9313C10.9916 11.4781 10.96 10.1682 12.3085 10.1682C16.8015 10.1682 19.4104 16.7257 19.4104 17.5664C19.4104 17.5664 19.4104 16.2212 20.1351 16.2212C20.8598 16.2212 20.8598 17.5664 20.8598 17.5664C20.8598 16.7257 23.4687 10 27.8168 10C29.0875 10 29.0214 11.1631 28.9858 11.7898C28.9807 11.878 28.9763 11.9555 28.9763 12.0177Z"/></symbol><symbol viewBox="0 0 40 40" id="btn-wrap-tight"><path fill-rule="evenodd" clip-rule="evenodd" d="M36 4H4V5H36V4ZM4 7H36V8H4V7ZM4 10H9V11H4V10ZM9 13H4V14H9V13ZM4 16H10V17H4V16ZM11 19H4V20H11V19ZM4 22H11V23H4V22ZM11 25H4V26H11V25ZM4 28H12V29H4V28ZM36 31H4V32H36V31ZM36 34H4V35H36V34ZM28 28H36V29H28V28ZM36 25H29V26H36V25ZM29 22H36V23H29V22ZM36 19H29V20H36V19ZM30 16H36V17H30V16ZM36 13H31V14H36V13ZM31 10H36V11H31V10ZM28.9763 12.0177C28.9763 12.0177 28.5415 16.7257 27.382 18.0708C26.6658 18.9017 25.4579 18.8201 24.6492 18.7655C24.476 18.7538 24.3212 18.7434 24.1934 18.7434C24.9181 18.9115 27.0921 19.9204 27.0921 22.7788C27.0921 25.9735 25.7877 29 24.4833 29C23.1788 29 20.8598 24.9646 20.8598 21.0974C20.8598 20.7776 20.8016 20.5929 20.7589 20.4578C20.7381 20.3918 20.721 20.3377 20.7162 20.2854C20.7288 20.5744 20.8068 22.9469 19.9902 22.9469C19.1592 22.9469 19.2546 20.4906 19.2647 20.2721C19.2583 20.3406 19.2116 20.4331 19.1575 20.5402C19.0751 20.7034 18.9756 20.9004 18.9756 21.0974C18.9756 24.9646 16.6566 29 15.3522 29C14.1927 29 12.7433 25.9734 12.7433 22.6106C12.7433 20.0248 14.5225 19.0902 15.291 18.6865C15.372 18.6439 15.4418 18.6073 15.4971 18.5752C15.0623 18.7434 13.468 19.0796 12.5983 18.0708C11.5838 16.7257 11.004 12.0177 11.004 12.0177C11.004 11.9943 11.0033 11.9652 11.0025 11.9313C10.9916 11.4781 10.96 10.1682 12.3085 10.1682C16.8015 10.1682 19.4104 16.7257 19.4104 17.5664C19.4104 17.5664 19.4104 16.2212 20.1351 16.2212C20.8598 16.2212 20.8598 17.5664 20.8598 17.5664C20.8598 16.7257 23.4687 10 27.8168 10C29.0875 10 29.0214 11.1631 28.9858 11.7898C28.9807 11.878 28.9763 11.9555 28.9763 12.0177Z"/></symbol><symbol viewBox="0 0 40 40" id="btn-wrap-topbottom"><path fill-rule="evenodd" clip-rule="evenodd" d="M36 4H4V5H36V4ZM4 7H36V8H4V7ZM36 31H4V32H36V31ZM36 34H4V35H36V34ZM28.9763 12.0177C28.9763 12.0177 28.5415 16.7257 27.382 18.0708C26.6658 18.9017 25.4579 18.8201 24.6492 18.7655C24.476 18.7538 24.3212 18.7434 24.1934 18.7434C24.9181 18.9115 27.0921 19.9204 27.0921 22.7788C27.0921 25.9735 25.7877 29 24.4833 29C23.1788 29 20.8598 24.9646 20.8598 21.0974C20.8598 20.7776 20.8016 20.5929 20.7589 20.4578C20.7381 20.3918 20.721 20.3377 20.7162 20.2854C20.7288 20.5744 20.8068 22.9469 19.9902 22.9469C19.1592 22.9469 19.2546 20.4906 19.2647 20.2721C19.2583 20.3406 19.2116 20.4331 19.1575 20.5402C19.0751 20.7034 18.9756 20.9004 18.9756 21.0974C18.9756 24.9646 16.6566 29 15.3522 29C14.1927 29 12.7433 25.9734 12.7433 22.6106C12.7433 20.0248 14.5225 19.0902 15.291 18.6865C15.372 18.6439 15.4418 18.6073 15.4971 18.5752C15.0623 18.7434 13.468 19.0796 12.5983 18.0708C11.5838 16.7257 11.004 12.0177 11.004 12.0177C11.004 11.9943 11.0033 11.9652 11.0025 11.9313C10.9916 11.4781 10.96 10.1682 12.3085 10.1682C16.8015 10.1682 19.4104 16.7257 19.4104 17.5664C19.4104 17.5664 19.4104 16.2212 20.1351 16.2212C20.8598 16.2212 20.8598 17.5664 20.8598 17.5664C20.8598 16.7257 23.4687 10 27.8168 10C29.0875 10 29.0214 11.1631 28.9858 11.7898C28.9807 11.878 28.9763 11.9555 28.9763 12.0177Z"/></symbol></svg>