<svg width="24" height="24" viewBox="0 0 24 24" fill="none" xmlns="http://www.w3.org/2000/svg">
<path fill-rule="evenodd" clip-rule="evenodd" d="M4 2H20V4.45714L21 5.42857V2V1H20H4H3V2V22V23H4H20H21V22V15.1429L20 16.1143V22H4V2Z" fill="currentColor"/>
<path d="M18 19H14.4286M14.4286 19L19.1429 14.2857M14.4286 19H13.0036H8.375L6.39203 16.9856C5.62147 16.2028 5.62642 14.945 6.40312 14.1683L12.7143 7.85714M19.1429 14.2857L21.5858 11.8428C22.3668 11.0617 22.3668 9.79541 21.5858 9.01436L17.9856 5.41421C17.2046 4.63316 15.9383 4.63317 15.1572 5.41421L12.7143 7.85714M19.1429 14.2857L12.7143 7.85714" stroke="currentColor"/>
</svg>
