<svg width="24" height="24" viewBox="0 0 24 24" xmlns="http://www.w3.org/2000/svg">
<path fill-rule="evenodd" clip-rule="evenodd" d="M20.737 5.62105L22.0002 4.35789C22.0002 4.35789 21.8318 3.34737 21.2423 2.75789C20.6528 2.08421 19.6423 2 19.6423 2L18.3791 3.26316L20.737 5.62105ZM19.7263 5.62108L8.61053 16.6527L7.34737 15.3895L18.4632 4.35792L17.8737 3.76845L6.42105 15.2211L6 18L8.77895 17.579L14.5053 11.8527L20.2316 6.12634L19.7263 5.62108ZM13.4801 7.10498C13.7534 6.68633 13.7532 6.68617 13.7529 6.686L13.7523 6.68561L13.7508 6.68462L13.7466 6.68189L13.7332 6.67345C13.7222 6.66654 13.707 6.6571 13.6876 6.64542C13.6488 6.62206 13.5934 6.58971 13.5223 6.55067C13.3801 6.47261 13.1745 6.36757 12.9125 6.25401C12.3888 6.02712 11.636 5.76465 10.7096 5.61688C8.84758 5.3199 6.30186 5.49026 3.53986 7.30505C0.618665 9.22443 0.000158966 12.2988 0.854419 15.2145C1.7018 18.1067 3.99969 20.8956 6.99949 22.4443L7.45822 21.5557C4.6876 20.1254 2.5803 17.5485 1.81408 14.9333C1.05473 12.3416 1.61422 9.76684 4.08899 8.14078C6.61649 6.48008 8.9036 6.34147 10.5521 6.6044C11.3808 6.73658 12.0526 6.97128 12.5148 7.17157C12.7457 7.2716 12.9234 7.36266 13.0411 7.4273C13.1 7.4596 13.1438 7.48526 13.1717 7.50206C13.1856 7.51046 13.1956 7.51664 13.2015 7.52033L13.2071 7.52389C13.2069 7.52377 13.2067 7.52363 13.4801 7.10498ZM19.1353 20.4311C20.7445 18.6887 20.7121 16.4688 20.147 14.5823C19.5829 12.6991 18.4598 11.0314 17.6862 10.2326L16.9678 10.9283C17.6368 11.619 18.6736 13.1485 19.189 14.8693C19.7035 16.5868 19.6702 18.3779 18.4006 19.7527C17.0172 21.2507 14.7032 21.3649 12.5461 20.8504C11.4861 20.5975 10.5138 20.2025 9.79385 19.7968C9.43322 19.5936 9.14757 19.3943 8.94872 19.2175C8.84948 19.1293 8.77888 19.0529 8.73234 18.9909C8.68391 18.9264 8.67427 18.8944 8.67428 18.8944L7.70686 19.1476C7.78962 19.4639 8.03374 19.7421 8.28433 19.9649C8.55196 20.2028 8.90143 20.4418 9.30292 20.668C10.1072 21.1213 11.1671 21.5495 12.3141 21.8231C14.5712 22.3615 17.3707 22.3418 19.1353 20.4311Z"/>
</svg>
