<svg width="24" height="24" viewBox="0 0 24 24" fill="none" xmlns="http://www.w3.org/2000/svg">
<path d="M7 14H6V21.5V21.75C6 22 6 22 6.25 22H6.5H7H6.75C7 22 7 22 7 21.75V14Z" fill="currentColor"/>
<path d="M18 14H17V21.5V21.75C17 22 17 22 17.25 22H17.5H17.75C18 22 18 22 18 21.75V14Z" fill="currentColor"/>
<path d="M15 7.99998H9H8.75C8.5 7.99998 8.4674 8.10429 8.4348 8.20861L7 13H8L9.2 8.99998H14.75L16 13H17L15.755 8.99998L15.5703 8.20861C15.5469 8.13358 15.45 7.99998 15.25 7.99998H15Z" fill="currentColor"/>
<path d="M7.19 13H16.745H17.245L17.6 12.9995C17.855 12.9995 18 13.1495 18 13.3995V14H16.995H6.94H6V13.3995C6 13.1495 6.15 13 6.4 13H6.69H7.19Z" fill="currentColor"/>
<path d="M9 7.99998H15V2.39189C14.9975 2.21731 14.9628 2.10444 14.9 2.0466C14.8238 1.97646 14.7062 1.98727 14.5544 2.06713L9.64754 4.85429C9.64168 4.85802 9.63591 4.86187 9.63023 4.86584C9.57927 4.90147 9.53532 4.94691 9.5 4.99947C9.45228 5.07048 9.42033 5.15451 9.40822 5.24492L9 7.99998Z" fill="currentColor"/>
</svg>
