<svg width="24" height="24" viewBox="0 0 24 24" fill="none" xmlns="http://www.w3.org/2000/svg">
<path fill-rule="evenodd" clip-rule="evenodd" d="M14.82 5.80825H9.18H8.75C8.5 5.80825 8.4674 5.91382 8.4348 6.01938L6 13.9041H7H17H18L15.8171 6.82024L15.5703 6.01938C15.5469 5.94345 15.45 5.80825 15.25 5.80825H14.82ZM9.18 6.82024L7.5 12.8921H16.5L14.82 6.82024H9.18Z" fill="currentColor"/>
<path d="M7 13.9041H6V21.494V21.747C6 22 6 22 6.25 22H6.5H7H6.75C7 22 7 22 7 21.747V13.9041Z" fill="currentColor"/>
<path d="M18 13.9041H17V21.494V21.747C17 22 17 22 17.25 22H17.5H17.75C18 22 18 22 18 21.747V13.9041Z" fill="currentColor"/>
<path d="M9.18 5.80825H14.82L13.5 3.32813C12.5 1.56585 11.5 1.54875 10.5 3.32813L9.18 5.80825Z" fill="currentColor"/>
</svg>
