<svg width="24" height="24" viewBox="0 0 24 24" fill="none" xmlns="http://www.w3.org/2000/svg">
<path d="M13.3131 22.5C10.2175 22.5087 8.01189 20.812 6.84764 17.5345L5.15461 12.7863C5.04986 12.5004 5.00123 12.1658 5.00026 11.9178C4.98411 10.9611 5.71509 10.406 6.54563 10.4022C7.14956 10.4048 7.6768 10.7657 7.97915 11.4901L8.7828 13.4574C8.8051 13.5051 8.82797 13.5234 8.86564 13.5272C8.91504 13.5255 8.93599 13.4935 8.93407 13.4433L8.87828 5.30155C8.87059 4.20929 9.5785 3.49716 10.5628 3.50001C11.5298 3.49655 12.2595 4.19874 12.2672 5.291L12.2914 8.50878C12.5222 8.4346 12.7729 8.38746 12.9964 8.38985C13.7776 8.38785 14.3525 8.83546 14.5653 9.53711C14.843 9.44044 15.114 9.39084 15.39 9.38267C16.1422 9.37998 16.6886 9.79739 16.8878 10.4544C18.531 10.4701 19.4744 11.6762 19.4848 13.8193L19.4998 15.7263C19.5286 20.0452 16.978 22.4813 13.3131 22.5ZM13.3413 21.5001C16.5067 21.4871 18.5706 19.4379 18.5375 15.6325L18.5327 13.9471C18.5206 12.3382 17.992 11.4519 17.054 11.456L17.055 12.5954C17.0635 12.9055 16.8451 13.0833 16.6012 13.0833C16.3542 13.0922 16.1341 12.9128 16.1287 12.5939L16.1232 11.2449C16.1112 10.6661 15.8014 10.3252 15.2845 10.3247C15.0783 10.3286 14.8449 10.382 14.6518 10.4601L14.6691 12.2491C14.6689 12.5561 14.4505 12.7339 14.2153 12.7371C13.9596 12.7428 13.7395 12.5634 13.7428 12.2477L13.7209 10.2489C13.7176 9.6733 13.4108 9.32359 12.8823 9.32867C12.6877 9.32697 12.4513 9.38921 12.2582 9.46724L12.2745 11.8997C12.278 12.1684 12.0936 12.3883 11.8207 12.3877C11.5564 12.3902 11.3486 12.1757 11.3452 11.907L11.3013 5.23546C11.2932 4.75712 11.0149 4.4376 10.5765 4.43598C10.135 4.44315 9.8353 4.76951 9.83472 5.2447L9.90648 14.6501C9.91321 15.0487 9.65545 15.3111 9.30409 15.3116C9.01078 15.3135 8.75494 15.1804 8.58272 14.7808L7.3437 11.9118C7.19128 11.5392 6.96312 11.3272 6.64078 11.3283C6.2283 11.3362 5.94652 11.6393 5.95382 12.0085C5.95037 12.1855 5.98266 12.3161 6.03782 12.465L7.73085 17.2132C8.79341 20.196 10.7626 21.5093 13.3413 21.5001Z" fill="currentColor"/>
<path d="M4.64523 7.22755C4.49571 7.08397 4.25857 7.08587 4.11189 7.23231C3.96521 7.37874 3.96236 7.61551 4.10617 7.7648L5.23002 8.8878C5.30145 8.96006 5.39764 9 5.49861 9C5.59956 9 5.69671 8.96006 5.76815 8.88875L6.89295 7.7667C7.03676 7.61836 7.03485 7.3816 6.88818 7.23516C6.74151 7.08777 6.50437 7.08587 6.35484 7.22945L5.88054 7.70204V3.29677L6.35484 3.76936C6.50436 3.91199 6.7415 3.91104 6.88818 3.76365C7.03485 3.61722 7.03676 3.38045 6.89295 3.23211C5.19098 1.59468 5.81006 1.58329 4.10514 3.23401C3.96133 3.3833 3.96514 3.62006 4.11181 3.7665C4.25848 3.91294 4.49563 3.91484 4.64516 3.77126L5.11946 3.29772V7.70202L4.64523 7.22755Z" fill="currentColor"/>
</svg>
