<svg fill="none" height="96" viewBox="0 0 96 96" width="96" xmlns="http://www.w3.org/2000/svg">
    <symbol id="svg-file-template">
    <clipPath id="a">
        <path d="m0 0h96v96h-96z"/>
    </clipPath>
    <g clip-path="url(#a)">
        <path d="m.499997 94 .000003-74c0-.8284.67157-1.5 1.5-1.5h92c.8284 0 1.5.6716 1.5 1.5v74c0 .8284-.6716 1.5-1.5 1.5h-92c-.82843 0-1.500003-.6716-1.500003-1.5z" fill="#fff" stroke="#bfbfbf"/>
        <g fill="#444">
            <rect height="8" opacity=".4" rx="1" width="64" x="16" y="34"/>
            <rect height="4" opacity=".4" rx="1" width="4" x="54" y="54"/>
            <rect height="4" opacity=".4" rx="1" width="4" x="54" y="62"/>
            <rect height="4" opacity=".4" rx="1" width="4" x="54" y="70"/>
            <rect height="4" opacity=".2" rx="1" width="20" x="60" y="54"/>
            <rect height="4" opacity=".2" rx="1" width="20" x="60" y="62"/>
            <rect height="4" opacity=".2" rx="1" width="20" x="60" y="70"/>
            <path d="m44 65c0 2.7689-.8211 5.4757-2.3594 7.778-1.5384 2.3023-3.7249 4.0967-6.283 5.1563-2.5582 1.0596-5.3731 1.3369-8.0889.7967-2.7157-.5402-5.2103-1.8736-7.1682-3.8315s-3.2913-4.4525-3.8315-7.1682c-.5402-2.7158-.2629-5.5307.7967-8.0889 1.0596-2.5581 2.854-4.7446 5.1563-6.283 2.3023-1.5383 5.0091-2.3594 7.778-2.3594v14z" opacity=".2"/>
            <path d="m32 49c1.8385 0 3.659.3621 5.3576 1.0657 1.6985.7036 3.2419 1.7348 4.5419 3.0348s2.3312 2.8434 3.0348 4.5419c.7036 1.6986 1.0657 3.5191 1.0657 5.3576h-14z" opacity=".4"/>
        </g>
    </g>
    </symbol>
</svg>