<svg width="24" height="24" viewBox="0 0 24 24" xmlns="http://www.w3.org/2000/svg">
<path fill-rule="evenodd" clip-rule="evenodd" d="M16.4997 3.75C17.4662 3.75 18.2497 4.5335 18.2497 5.5V7.5C18.2497 7.91421 17.9139 8.25 17.4997 8.25C17.0856 8.24995 16.7497 7.91419 16.7497 7.5V5.5C16.7497 5.36193 16.6378 5.25 16.4997 5.25H7.31028L12.9997 10.9395C13.5854 11.5252 13.5854 12.4748 12.9997 13.0605L7.31028 18.75H16.4997C16.6378 18.75 16.7497 18.6381 16.7497 18.5V16.5C16.7497 16.0858 17.0856 15.75 17.4997 15.75C17.9139 15.75 18.2497 16.0858 18.2497 16.5V18.5C18.2497 19.4665 17.4662 20.25 16.4997 20.25H7.31028C5.9741 20.2498 5.30498 18.6344 6.24973 17.6895L11.9392 12L6.24973 6.31055C5.30498 5.36563 5.9741 3.75016 7.31028 3.75H16.4997Z" fill="#444444"/>
</svg>
