<svg width="24" height="24" viewBox="0 0 24 24" xmlns="http://www.w3.org/2000/svg">
<path d="M7.47168 14.6143C8.16197 14.6143 8.72166 15.174 8.72168 15.8643V19.4473C8.72149 20.1374 8.16186 20.6972 7.47168 20.6973H5.03418C4.34394 20.6973 3.78437 20.1375 3.78418 19.4473V15.8643C3.7842 15.1739 4.34383 14.6143 5.03418 14.6143H7.47168ZM13.2002 10.0312C13.8906 10.0312 14.4502 10.5909 14.4502 11.2812V19.4473C14.45 20.1375 13.8904 20.6973 13.2002 20.6973H10.7627C10.0727 20.697 9.51289 20.1373 9.5127 19.4473V11.2812C9.5127 10.591 10.0725 10.0315 10.7627 10.0312H13.2002ZM18.9297 4.30664C19.6199 4.30676 20.1797 4.86636 20.1797 5.55664V19.4473C20.1795 20.1374 19.6198 20.6971 18.9297 20.6973H16.4922C15.8019 20.6973 15.2424 20.1375 15.2422 19.4473V5.55664C15.2422 4.86629 15.8018 4.30664 16.4922 4.30664H18.9297ZM5.28418 19.1973H7.22168V16.1143H5.28418V19.1973ZM11.0127 19.1973H12.9502V11.5312H11.0127V19.1973ZM16.7422 19.1973H18.6797V5.80664H16.7422V19.1973Z" fill="#444444"/>
</svg>
