<svg width="24" height="24" viewBox="0 0 24 24" xmlns="http://www.w3.org/2000/svg">
<path d="M8.96973 3.97046C9.26263 3.67757 9.73739 3.67757 10.0303 3.97046L18.0303 11.9705C18.323 12.2634 18.3231 12.7382 18.0303 13.031L12.4443 18.6169C11.3705 19.6906 9.62957 19.6905 8.55567 18.6169L5.3838 15.4451C4.31008 14.3712 4.31012 12.6303 5.3838 11.5564L10.4395 6.50073L8.96973 5.03101C8.67686 4.73813 8.6769 4.26336 8.96973 3.97046ZM6.44434 12.6169C5.95645 13.1051 5.95641 13.8964 6.44434 14.3845L9.61622 17.5564C10.1043 18.0441 10.8957 18.0442 11.3838 17.5564L16.4395 12.5007L11.5 7.56128L6.44434 12.6169Z" fill="#444444"/>
<path d="M18.292 14.8125C18.3909 14.6641 18.609 14.6641 18.708 14.8125L19.793 16.4404C20.2039 17.0569 20.1225 17.8775 19.5986 18.4014C18.9917 19.0081 18.0083 19.0082 17.4014 18.4014C16.8775 17.8775 16.7961 17.0569 17.207 16.4404L18.292 14.8125ZM14.4746 13C14.6265 13 14.75 13.1235 14.75 13.2754C14.7499 13.3547 14.7159 13.4302 14.6562 13.4824L11.3213 16.3975C10.9314 16.7384 10.3458 16.7253 9.97168 16.3672L7.71582 14.207C7.57798 14.0749 7.5001 13.8921 7.5 13.7012C7.5 13.3141 7.81412 13 8.20117 13H14.4746Z" fill="#8E8E93"/>
</svg>
