<svg xmlns="http://www.w3.org/2000/svg" xmlns:xlink="http://www.w3.org/1999/xlink" viewBox="0 0 22 22"><defs><style>.cls-1{isolation:isolate;}.cls-2{opacity:0.2;}.cls-3{fill:#fff;}.cls-10,.cls-11,.cls-4,.cls-6,.cls-7,.cls-8,.cls-9{mix-blend-mode:multiply;}.cls-4{fill:url(#grad_8);}.cls-5{fill:url(#grad_10);}.cls-6{fill:url(#grad_12);}.cls-7{fill:url(#grad_14);}.cls-8{fill:url(#grad_79);}.cls-9{fill:url(#grad_77);}.cls-10{fill:url(#grad_75);}.cls-11{fill:url(#grad_81);}</style><linearGradient id="grad_8" x1="11.08" y1="10.26" x2="11.08" y2="1.26" gradientUnits="userSpaceOnUse"><stop offset="0" stop-color="#f3e916"/><stop offset="1" stop-color="#f89d34"/></linearGradient><linearGradient id="grad_10" x1="11.08" y1="20.44" x2="11.08" y2="11.88" gradientUnits="userSpaceOnUse"><stop offset="0" stop-color="#5eb6e8"/><stop offset="1" stop-color="#958cc3"/></linearGradient><linearGradient id="grad_12" x1="1.46" y1="11.05" x2="10.46" y2="11.05" gradientTransform="translate(17 5.09) rotate(90)" gradientUnits="userSpaceOnUse"><stop offset="0" stop-color="#cc8dba"/><stop offset="1" stop-color="#f86867"/></linearGradient><linearGradient id="grad_14" x1="11.73" y1="11.05" x2="20.73" y2="11.05" gradientTransform="translate(27.28 -5.18) rotate(90)" gradientUnits="userSpaceOnUse"><stop offset="0" stop-color="#6ac07f"/><stop offset="1" stop-color="#c5da3d"/></linearGradient><linearGradient id="grad_79" x1="11.74" y1="10.42" x2="17.52" y2="4.63" gradientTransform="translate(30.29 2.51) rotate(135)" gradientUnits="userSpaceOnUse"><stop offset="0" stop-color="#c5da3d"/><stop offset="1" stop-color="#f3e916"/></linearGradient><linearGradient id="grad_77" x1="4.7" y1="17.49" x2="10.48" y2="11.71" gradientTransform="translate(23.24 19.65) rotate(135)" gradientUnits="userSpaceOnUse"><stop offset="0" stop-color="#9595c3"/><stop offset="1" stop-color="#cc8dba"/></linearGradient><linearGradient id="grad_75" x1="4.69" y1="4.64" x2="10.47" y2="10.42" gradientTransform="translate(7.54 -3.15) rotate(45)" gradientUnits="userSpaceOnUse"><stop offset="0" stop-color="#f86867"/><stop offset="1" stop-color="#f89d34"/></linearGradient><linearGradient id="grad_81" x1="11.77" y1="11.78" x2="17.55" y2="17.56" gradientTransform="translate(14.63 -6.05) rotate(45)" gradientUnits="userSpaceOnUse"><stop offset="0" stop-color="#5ec0e8"/><stop offset="1" stop-color="#6ac07f"/></linearGradient></defs><title>icons_for_svg</title><g class="cls-1"><g id="Слой_1" data-name="Слой 1"><rect class="cls-2" x="0.09" y="0.01" width="22" height="22" rx="4" ry="4"/><rect class="cls-3" x="0.57" y="0.49" width="21.04" height="21.04" rx="3.6" ry="3.6"/><rect class="cls-4" x="8.33" y="1.26" width="5.5" height="9" rx="2.5" ry="2.5"/><rect class="cls-5" x="8.33" y="11.76" width="5.5" height="9" rx="2.5" ry="2.5"/><rect class="cls-6" x="3.21" y="6.55" width="5.5" height="9" rx="2.5" ry="2.5" transform="translate(-5.09 17) rotate(-90)"/><rect class="cls-7" x="13.48" y="6.55" width="5.5" height="9" rx="2.5" ry="2.5" transform="translate(5.18 27.28) rotate(-90)"/><rect class="cls-8" x="11.87" y="3.03" width="5.5" height="9" rx="2.5" ry="2.5" transform="translate(19.64 23.19) rotate(-135)"/><rect class="cls-9" x="4.8" y="10.14" width="5.5" height="9" rx="2.5" ry="2.5" transform="translate(2.54 30.33) rotate(-135)"/><rect class="cls-10" x="4.83" y="3.03" width="5.5" height="9" rx="2.5" ry="2.5" transform="translate(-3.1 7.56) rotate(-45)"/><rect class="cls-11" x="11.87" y="10.14" width="5.5" height="9" rx="2.5" ry="2.5" transform="translate(-6.07 14.63) rotate(-45)"/></g></g></svg>