<svg width="24" height="24" viewBox="0 0 24 24" xmlns="http://www.w3.org/2000/svg">
<path d="M20.75 0.996094C21.7164 0.996174 22.5 1.77965 22.5 2.74609V20.7461C22.4998 21.7124 21.7163 22.496 20.75 22.4961H3.75C2.78362 22.4961 2.0002 21.7124 2 20.7461V2.74609C2 1.7796 2.7835 0.996094 3.75 0.996094H20.75ZM3.75 2.49609C3.61193 2.49609 3.5 2.60802 3.5 2.74609V20.7461C3.5002 20.884 3.61205 20.9961 3.75 20.9961H20.75C20.8879 20.996 20.9998 20.8839 21 20.7461V2.74609C21 2.60807 20.888 2.49617 20.75 2.49609H3.75ZM11.75 16.9961C12.1641 16.9962 12.5 17.3319 12.5 17.7461C12.4998 18.1601 12.164 18.496 11.75 18.4961H6.75C6.33591 18.4961 6.0002 18.1601 6 17.7461C6 17.3319 6.33579 16.9961 6.75 16.9961H11.75ZM17.75 12.9961C18.1641 12.9962 18.5 13.3319 18.5 13.7461C18.4998 14.1601 18.164 14.496 17.75 14.4961H6.75C6.33591 14.4961 6.0002 14.1601 6 13.7461C6 13.3319 6.33579 12.9961 6.75 12.9961H17.75ZM11.75 8.99609C12.1641 8.99617 12.5 9.33193 12.5 9.74609C12.4998 10.1601 12.164 10.496 11.75 10.4961H6.75C6.33591 10.4961 6.0002 10.1601 6 9.74609C6 9.33188 6.33579 8.99609 6.75 8.99609H11.75ZM17.75 4.99609C18.1641 4.99617 18.5 5.33193 18.5 5.74609C18.4998 6.16009 18.164 6.49601 17.75 6.49609H6.75C6.33591 6.49609 6.0002 6.16014 6 5.74609C6 5.33188 6.33579 4.99609 6.75 4.99609H17.75Z" fill="#444444"/>
</svg>
