<svg xmlns="http://www.w3.org/2000/svg" width="24" height="24" viewBox="0 0 24 24"><g clip-path="url(#clip0_364_6999)"><rect x="3" width="1" height="24" fill-opacity="0.6"/><rect x="20" width="1" height="24"  fill-opacity="0.6"/><rect y="6" width="24" height="1" fill-opacity="0.6"/><rect y="17" width="24" height="1" fill-opacity="0.6"/><g clip-path="url(#clip1_364_6999)"><path d="M22.3684 24.6037C22.6359 24.8593 22.987 25.0001 23.3569 25.0001C23.739 25.0001 24.0983 24.8514 24.3692 24.581L24.2984 24.5103C24.5458 24.2627 24.684 23.9341 24.688 23.5843L24.688 23.5842L24.6881 23.5689C24.6881 23.2247 24.5576 22.899 24.3192 22.6495L16.8124 14.7988C16.5614 15.6054 16.0175 16.2914 15.2479 16.7493L15.1974 16.6644L15.2479 16.7493C15.0452 16.8698 14.833 16.9705 14.6146 17.0513L24.2985 24.5102C24.0464 24.7619 23.7124 24.9001 23.3569 24.9001C23.0127 24.9001 22.6864 24.7692 22.4375 24.5314M22.3684 24.6037L22.4375 24.5314L22.4375 24.5314M22.3684 24.6037L14.509 17.0887L22.4375 24.5314M22.3684 24.6037L22.4375 24.5314" fill-opacity="0.6" stroke-width="0.2"/><path d="M15.8715 13.8633C15.8732 13.8231 15.874 13.783 15.874 13.7429C15.874 13.0698 15.6399 12.4021 15.2481 11.8575C14.7758 11.201 14.0974 10.9392 13.4794 10.4572C12.7045 9.85273 12.3255 8.92288 12.0671 8C10.6467 8.53746 10.0651 10.5341 10.0338 11.8433C10.0326 11.8903 10.0321 11.9376 10.0321 11.9852C10.0321 13.4676 10.583 15.2136 12.0416 15.9282C13.6428 16.7128 15.7927 15.7458 15.8715 13.8633Z" fill-opacity="0.6"/></g></g><defs><clipPath id="clip0_364_6999"><rect width="24" height="24" /></clipPath><clipPath id="clip1_364_6999"><rect width="17" height="17" transform="translate(25.9102 8) rotate(90)"/></clipPath></defs></svg>