<svg width="24" height="24" viewBox="0 0 24 24" xmlns="http://www.w3.org/2000/svg">
<path d="M16.5 4.75C17.4665 4.75 18.25 5.5335 18.25 6.5V8.5C18.25 9.4665 17.4665 10.25 16.5 10.25H10.25V16.5C10.25 17.4665 9.4665 18.25 8.5 18.25H6.5C5.5335 18.25 4.75 17.4665 4.75 16.5V6.5C4.75 5.5335 5.5335 4.75 6.5 4.75H16.5ZM6.25 16.5C6.25 16.6381 6.36193 16.75 6.5 16.75H8.5C8.63807 16.75 8.75 16.6381 8.75 16.5V10.25H6.25V16.5ZM6.5 6.25C6.36193 6.25 6.25 6.36193 6.25 6.5V8.75H8.75V6.25H6.5ZM10.25 8.75H16.5C16.6381 8.75 16.75 8.63807 16.75 8.5V6.5C16.75 6.36193 16.6381 6.25 16.5 6.25H10.25V8.75Z" fill="#444444"/>
<path d="M19.9349 10.1475C20.3064 9.82656 20.851 9.82501 21.223 10.1309L21.2963 10.1973L21.7631 10.6641C22.134 11.035 22.1555 11.6299 21.8119 12.0264L16.6224 18.0117C16.6128 18.08 16.3175 20.0342 13.8392 21.2734C11.8382 22.2739 9.0454 21.2904 7.97595 20.8408C7.8758 20.7987 7.90791 20.5972 8.01208 20.5664C8.60457 20.3909 9.64514 19.8169 10.5209 17.9541C11.7691 15.2996 13.7529 15.3249 13.934 15.333L19.9349 10.1475ZM15.1849 16.2354L15.7172 16.7676L19.1478 12.8096L15.1849 16.2354Z" fill="#40865C"/>
</svg>
