<svg width="28" height="28" viewBox="0 0 28 28" fill="none" xmlns="http://www.w3.org/2000/svg">
<path d="M18 3H24C24.5523 3 25 3.44772 25 4V13.0009C25 13.5532 24.5523 14.0009 24 14.0009H18C17.4477 14.0009 17 13.5532 17 13.0009V12H18V13H24V4H18V7H17V4C17 3.44772 17.4477 3 18 3Z" fill="black"/>
<path d="M12.8867 5.99805H4C3.44772 5.99805 3 6.44576 3 6.99805V22.0039C3 22.5562 3.44772 23.0039 4 23.0039H12.875L11.8697 22.0039H4.00391V6.99609H11.8828L12.8867 5.99805Z" fill="black"/>
<path d="M13.7071 9.00004L15.8535 6.85359L15.1464 6.14648L11.7928 9.50004L15.1464 12.8536L15.8535 12.1465L13.7071 10H18V9.00004H13.7071Z" fill="black"/>
<path d="M24 26H18C17.4477 26 17 25.5523 17 25V22H18V25H24V16H18V17H17V15.9991C17 15.4468 17.4477 14.9991 18 14.9991H24C24.5523 14.9991 25 15.4468 25 15.9991V25C25 25.5523 24.5523 26 24 26Z" fill="black"/>
<path d="M15.8535 16.8575L13.7071 19.0039H18V20.0039H13.7071L15.8535 22.1504L15.1464 22.8575L11.7928 19.5039L15.1464 16.1504L15.8535 16.8575Z" fill="black"/>
</svg>
