<svg width="28" height="28" viewBox="0 0 28 28" fill="none" xmlns="http://www.w3.org/2000/svg">
<path opacity="0.4" fill-rule="evenodd" clip-rule="evenodd" d="M22 7H7V22H22V7ZM6 6V23H23V6H6Z" fill="black"/>
<path fill-rule="evenodd" clip-rule="evenodd" d="M9 9H13V13H9V9ZM8 8H9H13H14V9V13V14H13H9H8V13V9V8ZM16 9H20V13H16V9ZM15 8H16H20H21V9V13V14H20H16H15V13V9V8ZM13 16H9V20H13V16ZM9 15H8V16V20V21H9H13H14V20V16V15H13H9ZM16 16H20V20H16V16ZM15 15H16H20H21V16V20V21H20H16H15V20V16V15Z" fill="black"/>
</svg>
