<svg width="28" height="28" viewBox="0 0 28 28" fill="none" xmlns="http://www.w3.org/2000/svg">
<path fill-rule="evenodd" clip-rule="evenodd" d="M5 4H21V7H22V4C22 3.44772 21.5523 3 21 3H5C4.44772 3 4 3.44772 4 4V24C4 24.5523 4.44772 25 5 25H21C21.5523 25 22 24.5523 22 24V18H21V24H5V4ZM18 8H7V9H18V8ZM15 11H7V12H15V11ZM7 14H12V15H7V14ZM10 17H7V18H10V17ZM22.5 7.79285L22.8535 8.1464L25.3535 10.6464L25.7071 11L25.3535 11.3535L17.3535 19.3535L17 19.7071L16.6464 19.3535L16.2499 18.957L15.2071 19.9999H11.7928L14.5428 17.2499L14.1464 16.8535L13.7928 16.5L14.1464 16.1464L22.1464 8.1464L22.5 7.79285ZM15.2071 16.5L17 18.2928L22.2928 13L20.4999 11.2071L15.2071 16.5ZM24.2928 11L22.9999 12.2929L21.207 10.5L22.5 9.20706L24.2928 11Z" fill="black"/>
</svg>
