<svg width="28" height="28" viewBox="0 0 28 28" fill="none" xmlns="http://www.w3.org/2000/svg">
    <path d="M22 24H8v-3H7v3a1 1 0 0 0 1 1h14a1 1 0 0 0 1-1V8.414a1 1 0 0 0-.293-.707l-4.414-4.414A1 1 0 0 0 17.586 3H8a1 1 0 0 0-1 1v2h1V4h9v4a1 1 0 0 0 1 1h4zm-.414-16H18V4.414z" fill="#000"/>
    <path d="m7.025 10.65-3.44 3.439a2 2 0 0 0 0 2.828l2.587 2.586a2 2 0 0 0 2.828 0l4.586-4.586a2 2 0 0 0 0-2.828L11 9.503a2 2 0 0 0-2.828 0l-.44.44L5.44 7.65l-.707.707zm.707.707 2 2 .707-.707-2-2 .44-.44a1 1 0 0 1 1.414 0l2.586 2.586a1 1 0 0 1 0 1.414l-4.586 4.586a1 1 0 0 1-1.414 0L4.293 16.21a1 1 0 0 1 0-1.414zm6.854 8.646a1.5 1.5 0 0 0 1.5-1.5c0-.828-1.5-2.5-1.5-2.5s-1.5 1.672-1.5 2.5a1.5 1.5 0 0 0 1.5 1.5" fill="#000"/>
</svg>
