<svg width="28" height="28" viewBox="0 0 28 28" fill="none" xmlns="http://www.w3.org/2000/svg">
<path fill-rule="evenodd" clip-rule="evenodd" d="M21 24H7V4H16V8C16 8.55228 16.4477 9 17 9H21V24ZM20.5858 8L17 4.41421V8H20.5858ZM7 25H21C21.5523 25 22 24.5523 22 24V8.41421C22 8.149 21.8946 7.89464 21.7071 7.70711L17.2929 3.29289C17.1054 3.10536 16.851 3 16.5858 3H7C6.44772 3 6 3.44772 6 4V24C6 24.5523 6.44772 25 7 25Z" fill="black"/>
<path opacity="0.4" d="M16.4125 16.782H11.5793L9.91945 21H9L13.7844 9H14.3133L19 21H18.0643L16.4125 16.782ZM11.8804 16.03H16.1359L14.5167 11.7221C14.3811 11.3842 14.2183 10.9155 14.0285 10.3161C13.882 10.8392 13.722 11.3134 13.5484 11.7384L11.8804 16.03Z" fill="black"/>
</svg>
