<svg width="28" height="28" viewBox="0 0 28 28" fill="none" xmlns="http://www.w3.org/2000/svg">
<path fill-rule="evenodd" clip-rule="evenodd" d="M19.1464 5.85355L21.5 8.20711L23.8535 5.85355L23.1464 5.14645L22 6.29289L22 4.5C22 3.67157 21.3284 3 20.5 3H18V4L20.5 4C20.7761 4 21 4.22386 21 4.5V6.29289L19.8535 5.14645L19.1464 5.85355ZM5 4.00008H16V8.00008H17V4.00008C17 3.44779 16.5523 3.00008 16 3.00008H5C4.44772 3.00008 4 3.44779 4 4.00008V18.0001C4 18.5524 4.44772 19.0001 5 19.0001H10V18.0001H5L5 4.00008ZM7 6.00008H14V7.00008H7V6.00008ZM23 10.0001H12V24.0001H23V10.0001ZM12 9.00008C11.4477 9.00008 11 9.44779 11 10.0001V24.0001C11 24.5524 11.4477 25.0001 12 25.0001H23C23.5523 25.0001 24 24.5524 24 24.0001V10.0001C24 9.44779 23.5523 9.00008 23 9.00008H12ZM21 21.0001H14V22.0001H21V21.0001ZM14 18.0001H21V19.0001H14V18.0001ZM10 9.00008H7V10.0001H10V9.00008ZM7 12.0001H10V13.0001H7V12.0001ZM10 15.0001H7V16.0001H10V15.0001ZM16.5 16.2072L21.3536 11.3537L20.6465 10.6466L16.5 14.793L14.3536 12.6466L13.6465 13.3537L16.5 16.2072ZM6.50004 19.793L8.85359 22.1466L8.14648 22.8537L7.00004 21.7073V23.5002C7.00004 23.7763 7.2239 24.0002 7.50004 24.0002H10V25.0002H7.50004C6.67161 25.0002 6.00004 24.3286 6.00004 23.5002V21.7073L4.85359 22.8537L4.14648 22.1466L6.50004 19.793Z" fill="black"/>
</svg>
