<svg width="28" height="28" viewBox="0 0 28 28" fill="none" xmlns="http://www.w3.org/2000/svg">
<path fill-rule="evenodd" clip-rule="evenodd" d="M23.0002 7V18H17.0002V19H23.0002C23.6002 19 24.0002 18.6 24.0002 18V7C24.0002 6.4 23.6002 6 23.0002 6H6.00015C5.40015 6 5.00015 6.4 5.00015 7V13H6.00015V7H23.0002ZM20.0002 10H9.00015V11H20.0002V10ZM12.0002 13H20.0002V14H12.0002V13ZM10.2073 15.2072L7.41436 18.0001H15.0002V20.0001H7.41436L10.2073 22.793L8.79304 24.2072L4.29304 19.7072L3.58594 19.0001L4.29304 18.293L8.79304 13.793L10.2073 15.2072Z" fill="black"/>
</svg>
