<svg width="28" height="28" viewBox="0 0 28 28" fill="none" xmlns="http://www.w3.org/2000/svg">
<path fill-rule="evenodd" clip-rule="evenodd" d="M14 5.09846L24 9.64391V23H4V9.64391L14 5.09846ZM25 9L14 4L3 9V23V24H4H24H25V23V9ZM12.0001 13H7.00008V14H10.7747L7 19H7.00008V20H12.0001V19H8.22396L11.9986 14H12.0001V13ZM19 13H17H16V14V16V17V20H17V17H19C20.1046 17 21 16.1046 21 15C21 13.8954 20.1046 13 19 13ZM17 16V14H17.2676H19C19.5523 14 20 14.4477 20 15C20 15.5523 19.5523 16 19 16H17.2676H17ZM13 13H14V20H13V13Z" fill="black"/>
</svg>
