<svg width="28" height="28" viewBox="0 0 28 28" fill="none" xmlns="http://www.w3.org/2000/svg">
<path fill-rule="evenodd" clip-rule="evenodd" d="M22 3V12H6V3H5V12C5 12.6 5.4 13 6 13H22C22.6 13 23 12.6 23 12V3H22ZM20 5H8V6H20V5ZM8 8H16V9H8V8ZM23 16H24V15H23V16ZM21 16H22V15H21V16ZM19 16H20V15H19V16ZM17 16H18V15H17V16ZM15 16H16V15H15V16ZM13 16H14V15H13V16ZM11 16H12V15H11V16ZM9 16H10V15H9V16ZM7 16H8V15H7V16ZM5 16H6V15H5V16ZM3 16H4V15H3V16ZM8 23V22H20V23H8ZM22 19H6V25H5V19C5 18.4 5.4 18 6 18H22C22.6 18 23 18.4 23 19V25H22V19Z" fill="black"/>
</svg>
