<svg width="28" height="28" viewBox="0 0 28 28" fill="none" xmlns="http://www.w3.org/2000/svg">
    <path d="M12.967 2.887q.29.279.639.766l.002.003c.848 1.199.854 2.762.49 4.32a14 14 0 0 1-.547 1.749c.214.827.443 1.673.675 2.505l.004-.003c.422-.342.96-.6 1.491-.467l.012.003.01.003c.447.134.695.483.84.792.132.283.214.61.276.863l.014.053q.035.146.068.259l.034-.095c.06-.178.113-.385.175-.628l.079-.305a7 7 0 0 1 .388-1.144c.174-.375.42-.752.789-1.02l.007-.006c.179-.125.432-.24.718-.166.28.071.434.284.513.429.082.15.135.324.174.47.028.106.054.222.078.329l.028.121q.042.183.083.307l.054-.048a.5.5 0 0 1 .678.735c-.186.172-.396.32-.63.375a.78.78 0 0 1-.72-.184 1.2 1.2 0 0 1-.303-.483 4 4 0 0 1-.135-.474l-.034-.148c-.023-.098-.043-.186-.066-.274l-.01-.038q-.175.189-.317.496a6 6 0 0 0-.328.978l-.067.258a10 10 0 0 1-.207.743c-.052.15-.115.307-.2.445a1 1 0 0 1-.388.38.9.9 0 0 1-.615.114.8.8 0 0 1-.502-.344 1.6 1.6 0 0 1-.198-.42 6 6 0 0 1-.117-.42l-.004-.02c-.071-.282-.131-.522-.221-.714-.084-.178-.156-.234-.209-.254-.079-.013-.286.015-.608.276a3 3 0 0 0-.326.313c.659 2.296 1.3 4.348 1.64 5.37.625 1.875.85 3.136.752 3.893-.05.378-.202.777-.587.961-.373.178-.762.054-1.037-.093-.567-.303-1.183-.977-1.693-1.755-.52-.793-.98-1.766-1.196-2.736-.48-2.027-.08-3.874.607-5.182a6 6 0 0 1 .412-.676c-.176-.62-.352-1.255-.523-1.888a28 28 0 0 1-.785 1.514 41 41 0 0 1-2.498 3.9 43 43 0 0 1-1.214 1.605l-.018.023-.006.008L8 17.945l.388.316a.5.5 0 0 1-.775-.633l.001-.001.004-.005.016-.02.065-.081q.088-.109.248-.316c.213-.274.514-.672.868-1.163a40 40 0 0 0 2.436-3.803c.468-.842.902-1.716 1.251-2.579q-.18-.703-.338-1.375c-.46-1.936-.791-3.684-.76-4.644.007-.237.037-.492.135-.699a.8.8 0 0 1 .273-.327.7.7 0 0 1 .474-.11c.275.035.507.216.681.382m.127 4.987.03-.126c.34-1.45.27-2.662-.331-3.513a6 6 0 0 0-.391-.495c-.008.797.263 2.304.692 4.134m.72 6.549c-.531 1.104-.825 2.63-.427 4.307l.001.006c.184.829.587 1.692 1.057 2.408.48.731.983 1.238 1.328 1.422a1 1 0 0 0 .123.054 1 1 0 0 0 .038-.17c.066-.508-.083-1.572-.708-3.447-.303-.907-.837-2.612-1.413-4.58" fill="#000"/>
    <path d="M2 7.5q0-.026.003-.051A.5.5 0 0 1 2.5 7h7a.5.5 0 0 1 0 1H3v12h6.5a.5.5 0 0 1 0 1h-7a.5.5 0 0 1-.5-.5zM19.5 20a.5.5 0 0 0 0 1h6a.5.5 0 0 0 .5-.5v-13a.5.5 0 0 0-.5-.5h-8a.5.5 0 0 0 0 1H25v12z" fill="#000"/>
</svg>
