<svg width="28" height="28" viewBox="0 0 28 28" fill="none" xmlns="http://www.w3.org/2000/svg">
<path fill-rule="evenodd" clip-rule="evenodd" d="M15 6H5V18H15V8H10V7H15V6ZM16 18V8C16.5523 8 17.0523 8.22386 17.4142 8.58579C17.7761 8.94772 18 9.44772 18 10V10.2929L17.3536 9.64648L16.6465 10.3536L18.5 12.2071L20.3536 10.3536L19.6465 9.64648L19 10.2929V10C19 9.65896 18.9419 9.32081 18.8284 9C18.8108 8.95021 18.7919 8.90085 18.7716 8.85195C18.6209 8.48797 18.3999 8.15726 18.1213 7.87868C17.8427 7.6001 17.512 7.37913 17.1481 7.22836C17.0992 7.20811 17.0498 7.18917 17 7.17157C16.6792 7.05815 16.341 7 16 7V6C16 5.44772 15.5523 5 15 5H5C4.44772 5 4 5.44772 4 6V18C4 18.5523 4.44771 19 5 19H15C15.5523 19 16 18.5523 16 18ZM22 12H23V24H13V20H12V24C12 24.5523 12.4477 25 13 25H23C23.5523 25 24 24.5523 24 24V12C24 11.4477 23.5523 11 23 11H22V12ZM17 14H22V22L19.5 20L17 22V14Z" fill="black"/>
</svg>
