<svg width="28" height="28" viewBox="0 0 28 28" fill="none" xmlns="http://www.w3.org/2000/svg">
<path fill-rule="evenodd" clip-rule="evenodd" d="M2 17C2 17.5523 2.44772 18 3 18H7V21C7 21.5523 7.44772 22 8 22H24C24.5523 22 25 21.5523 25 21V7C25 6.44772 24.5523 6 24 6H3C2.44772 6 2 6.44772 2 7V17ZM7 7H3L3 17H7V7ZM24 21H8V7H24V21ZM5 10C5.55228 10 6 9.55228 6 9C6 8.44772 5.55228 8 5 8C4.44772 8 4 8.44772 4 9C4 9.55228 4.44772 10 5 10ZM6 12C6 12.5523 5.55228 13 5 13C4.44772 13 4 12.5523 4 12C4 11.4477 4.44772 11 5 11C5.55228 11 6 11.4477 6 12ZM5 16C5.55228 16 6 15.5523 6 15C6 14.4477 5.55228 14 5 14C4.44772 14 4 14.4477 4 15C4 15.5523 4.44772 16 5 16Z" fill="black"/>
<path opacity="0.4" fill-rule="evenodd" clip-rule="evenodd" d="M22 9H10V13H22V9ZM22 15H10V19H22V15Z" fill="black"/>
</svg>
