<svg width="28" height="28" viewBox="0 0 28 28" fill="none" xmlns="http://www.w3.org/2000/svg">
<path fill-rule="evenodd" clip-rule="evenodd" d="M14 24H7L7 4H15V5V9C15 9.55228 15.4477 10 16 10H20H21V13H22V9.41421C22 9.149 21.8946 8.89464 21.7071 8.70711L16.2929 3.29289C16.1054 3.10536 15.851 3 15.5858 3H7C6.44772 3 6 3.44772 6 4V24C6 24.5523 6.44772 25 7 25H14V24ZM16 4.41421L20.5858 9H20H16V5V4.41421Z" fill="black"/>
<path fill-rule="evenodd" clip-rule="evenodd" d="M22 18V19H18V18C18 16.8954 18.8954 16 20 16C21.1046 16 22 16.8954 22 18ZM17 19V18C17 16.3431 18.3431 15 20 15C21.6569 15 23 16.3431 23 18V19C23.5523 19 24 19.4477 24 20V25C24 25.5523 23.5523 26 23 26H17C16.4477 26 16 25.5523 16 25V20C16 19.4477 16.4477 19 17 19ZM23 20H22H18H17V25H23V20Z" fill="black"/>
</svg>
