<svg width="28" height="28" viewBox="0 0 28 28" fill="none" xmlns="http://www.w3.org/2000/svg">
<path fill-rule="evenodd" clip-rule="evenodd" d="M15 6H14V5V4H7L7 10H6V4C6 3.44772 6.44772 3 7 3H14.5858C14.851 3 15.1054 3.10536 15.2929 3.29289L18 6H16.5858L15 4.41421V5V6ZM6 17V20C6 20.5523 6.44772 21 7 21H10V20H7L7 17H6ZM3 7H5V8H4L4 13H3V8V7ZM3 13V14.0001H6.83594L5.54297 15.293L6.25008 16.0002L8.75008 13.5L6.25008 11L5.54297 11.7071L6.83594 13.0001L3 13ZM12 8.03125L12 23.9688H24V14.2188H23H19C18.4477 14.2188 18 13.757 18 13.1875V9.0625V8.03125H12ZM19 8.45841L23.5858 13.1875H23H19V9.0625V8.45841ZM12 7C11.4477 7 11 7.46171 11 8.03125V23.9688C11 24.5383 11.4477 25 12 25H24C24.5523 25 25 24.5383 25 23.9688V13.6147C25 13.3412 24.8946 13.0789 24.7071 12.8855L19.2929 7.30205C19.1054 7.10865 18.851 7 18.5858 7H12ZM22 17V16H14V17H22ZM21 21V20H15V21H21ZM15 19H14V20V21V22H15H21H22V21V20V19H21H15Z" fill="black"/>
</svg>
