<svg width="28" height="28" viewBox="0 0 28 28" fill="none" xmlns="http://www.w3.org/2000/svg">
<path fill-rule="evenodd" clip-rule="evenodd" d="M16.2273 4.64453C15.7634 4.21484 15.053 4 14.0959 4C13.5784 4 13.0852 4.06592 12.6165 4.19775C12.1477 4.32959 11.7327 4.48828 11.3713 4.67383L11.7449 5.59668C12.0867 5.43066 12.448 5.28662 12.8289 5.16455C13.2097 5.04248 13.6101 4.98145 14.03 4.98145C14.572 4.98145 14.9919 5.12061 15.2898 5.39893C15.5876 5.67725 15.7366 6.16309 15.7366 6.85645V7.34717L14.3523 7.40576C13.0535 7.44482 12.0867 7.6792 11.4519 8.10889C10.8171 8.53857 10.4998 9.15381 10.4998 9.95459C10.4998 10.4868 10.6072 10.9263 10.822 11.2729C11.0417 11.6196 11.3396 11.8784 11.7156 12.0493C12.0964 12.2202 12.531 12.3057 13.0193 12.3057C13.4832 12.3057 13.8738 12.2568 14.1912 12.1592C14.5134 12.0566 14.7966 11.9077 15.0408 11.7124C15.1285 11.6404 15.2481 11.566 15.3756 11.4866C15.603 11.3451 15.8559 11.1877 15.9998 11L16.0369 12.0493H16.9231V6.70264C16.9231 5.76025 16.6912 5.07422 16.2273 4.64453ZM14.4988 8.25537L15.7219 8.2041V8.94385C15.7219 9.73486 15.4949 10.3281 15.0408 10.7236C14.5867 11.1191 14.0032 11.3169 13.2903 11.3169C12.8313 11.3169 12.4626 11.207 12.1843 10.9873C11.906 10.7676 11.7668 10.4282 11.7668 9.96924C11.7668 9.44189 11.9719 9.03418 12.3821 8.74609C12.7922 8.45801 13.4978 8.29443 14.4988 8.25537ZM18 8V9.01709L22 9V8H18ZM8 14.5V12H7V23.0312H8L8.12793 22.0825H8.22314C8.44287 22.4243 8.75537 22.7148 9.16064 22.9541C9.5708 23.1885 10.0933 23.3057 10.728 23.3057C11.4067 23.3057 11.9951 23.147 12.4932 22.8296C12.9912 22.5122 13.377 22.0435 13.6504 21.4233C13.9238 20.8032 14.0605 20.0415 14.0605 19.1382C14.0605 17.7661 13.7603 16.7334 13.1597 16.04C12.564 15.3418 11.7632 14.9927 10.7573 14.9927C10.1128 14.9927 9.58301 15.1172 9.16797 15.3662C8.75293 15.6152 8.43555 15.9204 8.21582 16.2817L8 16.355C8.00433 16.2793 8.00194 16.1632 7.99922 16.0306C7.9958 15.864 7.99184 15.6713 8 15.5C8.01306 15.2943 8.00865 15.0628 8.0043 14.8342C8.00214 14.7209 8 14.6084 8 14.5ZM9.17529 16.355C9.51709 16.1255 9.97852 16.0107 10.5596 16.0107C11.3164 16.0107 11.8779 16.272 12.2441 16.7944C12.6152 17.3169 12.8008 18.0957 12.8008 19.1309C12.8008 20.1465 12.6128 20.9277 12.2368 21.4746C11.8657 22.0215 11.3066 22.2949 10.5596 22.2949C9.6709 22.2949 9.05811 22.0288 8.72119 21.4966C8.38428 20.9595 8.21582 20.1855 8.21582 19.1748V19.1089C8.21582 18.4106 8.28906 17.8345 8.43555 17.3804C8.58691 16.9214 8.8335 16.5796 9.17529 16.355ZM17.4883 22.8589C18.04 23.1567 18.6772 23.3057 19.3999 23.3057C19.854 23.3057 20.2446 23.269 20.5718 23.1958C20.9038 23.1226 21.2041 23.0176 21.4727 22.8809V21.7969C21.1943 21.9189 20.8843 22.0264 20.5425 22.1191C20.2007 22.207 19.8174 22.251 19.3926 22.251C18.8604 22.251 18.416 22.1313 18.0596 21.8921C17.708 21.6479 17.4419 21.2964 17.2612 20.8374C17.0854 20.3784 16.9976 19.8242 16.9976 19.1748C16.9976 18.4961 17.0879 17.9248 17.2686 17.4609C17.4541 16.9971 17.73 16.6455 18.0962 16.4062C18.4673 16.167 18.9312 16.0474 19.4878 16.0474C19.7661 16.0474 20.064 16.0864 20.3813 16.1646C20.7036 16.2427 20.9868 16.3306 21.231 16.4282L21.5972 15.4102C21.3579 15.2881 21.0503 15.188 20.6743 15.1099C20.3032 15.0269 19.9175 14.9854 19.5171 14.9854C18.7896 14.9854 18.1401 15.1343 17.5688 15.4321C16.9976 15.73 16.5483 16.189 16.2212 16.8091C15.8989 17.4243 15.7378 18.2178 15.7378 19.1895C15.7378 20.1172 15.8916 20.8862 16.1992 21.4966C16.5068 22.1069 16.9365 22.561 17.4883 22.8589Z" fill="black"/>
</svg>
