<svg width="28" height="28" viewBox="0 0 28 28" fill="none" xmlns="http://www.w3.org/2000/svg">
<path opacity="0.4" fill-rule="evenodd" clip-rule="evenodd" d="M22 7H7V22H22V7ZM7 6H6V7V22V23H7H22H23V22V7V6H22H7ZM13 9H9V13H13V9ZM9 8H8V9V13V14H9H13H14V13V9V8H13H9ZM16 9H20V13H16V9ZM15 8H16H20H21V9V13V14H20H16H15V13V9V8ZM13 16H9V20H13V16ZM9 15H8V16V20V21H9H13H14V20V16V15H13H9ZM16 16H20V20H16V16ZM15 15H16H20H21V16V20V21H20H16H15V20V16V15Z" fill="black"/>
<path fill-rule="evenodd" clip-rule="evenodd" d="M15.5 8H15V9H15.5H20V13.5V14H21V13.5V8.5V8H20.5H15.5ZM21 15.5V15H20V15.5V20H15.5H15V21H15.5H20.5H21V20.5V15.5ZM9 15V15.5V20H13.5H14V21H13.5H8.5H8V20.5V15.5V15H9ZM8.5 8H8V8.5V13.5V14H9V13.5V9H13.5H14V8H13.5H8.5Z" fill="black"/>
</svg>
