<svg width="28" height="28" viewBox="0 0 28 28" fill="none" xmlns="http://www.w3.org/2000/svg">
    <path d="M6 24h3v1H6a1 1 0 0 1-1-1V4a1 1 0 0 1 1-1h8.586a1 1 0 0 1 .707.293l5.414 5.414a1 1 0 0 1 .293.707V15h-1v-5h-5a1 1 0 0 1-1-1V4H6v20Zm9-19.586V9h4.586L15 4.414Z" fill="#000"/>
    <path d="M10 17a1 1 0 0 1 1-1h12a1 1 0 0 1 1 1v8a1 1 0 0 1-1 1H11a1 1 0 0 1-1-1v-8Zm1 7.293L14.293 21 11 17.707v6.586Zm4-2.586L11.707 25h10.586L19 21.707l-2 2-2-2ZM19.707 21 23 24.293v-6.586L19.707 21Zm2.586-4H11.707L17 22.293 22.293 17ZM12 6H8v1h4V6ZM8 9h4v1H8V9Zm10 3H8v1h10v-1Z" fill="#000"/>
</svg>
