<svg width="28" height="28" viewBox="0 0 28 28" fill="none" xmlns="http://www.w3.org/2000/svg">
<path fill-rule="evenodd" clip-rule="evenodd" d="M25 3H3V4H25V3ZM3 5H25V6H3V5ZM21 7H25V8H21V7ZM25 9H21V10H25V9ZM21 11H25V12H21V11ZM25 13H21V14H25V13ZM21 15H25V16H21V15ZM25 17H21V18H25V17ZM21 19H25V20H21V19ZM25 21H3V22H25V21ZM25 23H3V24H25V23ZM7 19H3V20H7V19ZM3 17H7V18H3V17ZM7 15H3V16H7V15ZM3 13H7V14H3V13ZM7 11H3V12H7V11ZM3 9H7V10H3V9ZM7 7H3V8H7V7ZM19.9842 8.38054C19.9842 8.38054 19.6943 11.6018 18.9213 12.5221C18.4438 13.0907 17.6386 13.0348 17.0995 12.9975C16.984 12.9895 16.8808 12.9823 16.7956 12.9823C17.2787 13.0973 18.7281 13.7876 18.7281 15.7434C18.7281 17.9292 17.8585 20 16.9888 20C16.1192 20 14.5732 17.2389 14.5732 14.5929C14.5732 14.3741 14.5344 14.2478 14.5059 14.1553C14.4921 14.1102 14.4807 14.0732 14.4775 14.0374C14.4858 14.2351 14.5379 15.8584 13.9935 15.8584C13.4395 15.8584 13.5031 14.1778 13.5098 14.0283C13.5055 14.0751 13.4744 14.1384 13.4383 14.2117C13.3834 14.3234 13.3171 14.4581 13.3171 14.5929C13.3171 17.2389 11.7711 20 10.9014 20C10.1284 20 9.16219 17.9292 9.16219 15.6283C9.16219 13.859 10.3483 13.2196 10.8607 12.9434C10.9147 12.9143 10.9612 12.8892 10.9981 12.8673C10.7082 12.9823 9.64531 13.2124 9.06556 12.5221C8.38919 11.6018 8.00268 8.38054 8.00268 8.38054C8.00268 8.36452 8.00222 8.3446 8.00167 8.3214C7.99438 8.01132 7.97332 7.11505 8.87231 7.11505C11.8677 7.11505 13.607 11.6018 13.607 12.177C13.607 12.177 13.607 11.2566 14.0901 11.2566C14.5732 11.2566 14.5732 12.177 14.5732 12.177C14.5732 11.6018 16.3125 7 19.2112 7C20.0583 7 20.0143 7.7958 19.9905 8.22461C19.9872 8.28493 19.9842 8.33798 19.9842 8.38054Z" fill="black"/>
</svg>
