<svg width="28" height="28" viewBox="0 0 28 28" fill="none" xmlns="http://www.w3.org/2000/svg">
<path d="M18 8H4V9H18V8Z" fill="black"/>
<path d="M15 11H4V12H15V11Z" fill="black"/>
<path d="M4 14H18V15H4V14Z" fill="black"/>
<path d="M18 20H4V21H18V20Z" fill="black"/>
<path d="M23 20H24V21H23V20Z" fill="black"/>
<path d="M24 17H23V18H24V17Z" fill="black"/>
<path d="M23 14H24V15H23V14Z" fill="black"/>
<path d="M24 11H23V12H24V11Z" fill="black"/>
<path d="M23 8H24V9H23V8Z" fill="black"/>
<path d="M15 17H4V18H15V17Z" fill="black"/>
</svg>
