<svg width="28" height="28" viewBox="0 0 28 28" fill="none" xmlns="http://www.w3.org/2000/svg">
<path fill-rule="evenodd" clip-rule="evenodd" d="M23 5H10V23H23V5ZM10 4C9.44772 4 9 4.44772 9 5V23C9 23.5523 9.44772 24 10 24H23C23.5523 24 24 23.5523 24 23V5C24 4.44772 23.5523 4 23 4H10ZM12 7H21V8H12V7ZM12 13H21V14H12V13ZM12 19H18V20H12V19ZM21 16H12V17H21V16ZM21 10H12V11H21V10ZM7 15V16H4V15L6 13V12H4V11H5H6L7 12V13L5 15H7ZM5 21H6V22H4V23H6L7 22V21L6.5 20.5L7 20V19L6 18H4V19H6V20H5V21ZM6 9H5V5H4V4H5H6V9Z" fill="black"/>
</svg>
