<svg xmlns="http://www.w3.org/2000/svg" width="28" height="28" viewBox="0 0 28 28" stroke="currentColor" stroke-linecap="round" stroke-linejoin="round" fill="none">
    <path d="M15.696 10.026c.825.118 2.545.848 2.828 2.828m-2.121-4.95c1.179.236 3.677 1.415 4.243 4.243M10.07 6.555l2.062 4.123a.1.1 0 0 1-.01.104l-1.732 2.31c-.217.29-.279.681-.13 1.01.513 1.126 3.06 3.674 4.187 4.186.329.15.72.089 1.01-.128l2.31-1.733a.1.1 0 0 1 .105-.01l4.122 2.062c.039.02.06.063.054.106-1.757 5.936-8.12 3.815-12.01-.074-3.182-3.182-6.01-10.253-.073-12.01a.102.102 0 0 1 .105.054Z" class="icon-gray-primary"/>
</svg>
