<svg width="28" height="28" viewBox="0 0 28 28" fill="none" xmlns="http://www.w3.org/2000/svg">
    <path d="M21 4H5v20h16v-4h1v4a1 1 0 0 1-1 1H5a1 1 0 0 1-1-1V4a1 1 0 0 1 1-1h16a1 1 0 0 1 1 1v6h-1V4Z" fill="#000"/>
    <path d="M9.331 9.622 9.33 9.62l2.741-2.74-.707-.708-2.74 2.741L7.308 7.6l-.707.707 2.022 2.022.707-.707ZM16 14H7v1h9v-1Zm-3 3H7v1h6v-1Zm-6 3h4v1H7v-1Zm7.201-13.093.707-.707 1.596 1.596 1.577-1.577.707.708-1.576 1.576 1.596 1.596-.708.707-1.596-1.596-1.576 1.577-.707-.707 1.576-1.577-1.596-1.596ZM18.242 20.7l6.364-6.364a1 1 0 0 0 0-1.415l-1.415-1.414a1 1 0 0 0-1.414 0l-6.364 6.364L15 19.936a1 1 0 0 0 1.177 1.177l2.065-.413Zm2.121-6.364 1.414 1.414-4.028 4.028-1.768.354.353-1.768 4.03-4.028Zm.707-.707 1.414-1.415L23.9 13.63l-1.415 1.414-1.414-1.414Z" fill="#000"/>
</svg>
