<svg width="28" height="28" viewBox="0 0 28 28" fill="none" xmlns="http://www.w3.org/2000/svg">
<path fill-rule="evenodd" clip-rule="evenodd" d="M6 24H22V4H6V24ZM6 3C5.44772 3 5 3.44772 5 4V24C5 24.5523 5.44772 25 6 25H22C22.5523 25 23 24.5523 23 24V4C23 3.44772 22.5523 3 22 3H6ZM9 20H16V21H9V20ZM18 20H17V21H18V20ZM9 7H19L19 13.2928L16.5 10.7928L12.5 14.7928L11.5 13.7928L9 16.2929L9 7ZM9 16.9999V17H9.00005L9 16.9999ZM9.70707 17L19 17V14.7071L16.5 12.2071L12.5 16.2071L11.5 15.2071L9.70707 17ZM8 7C8 6.44772 8.44772 6 9 6H19C19.5523 6 20 6.44772 20 7V17C20 17.5523 19.5523 18 19 18H9C8.44772 18 8 17.5523 8 17V7ZM12 9.5C12 9.77614 11.7761 10 11.5 10C11.2239 10 11 9.77614 11 9.5C11 9.22386 11.2239 9 11.5 9C11.7761 9 12 9.22386 12 9.5ZM13 9.5C13 10.3284 12.3284 11 11.5 11C10.6716 11 10 10.3284 10 9.5C10 8.67157 10.6716 8 11.5 8C12.3284 8 13 8.67157 13 9.5Z" fill="black"/>
</svg>
