<svg width="28" height="28" viewBox="0 0 28 28" fill="none" xmlns="http://www.w3.org/2000/svg">
<path fill-rule="evenodd" clip-rule="evenodd" d="M22.7106 10.4178C23.3046 11.0119 23.3046 11.988 22.7106 12.582L19.9997 15.2929L13.7068 8.99998L16.4606 6.24626C17.0379 5.66894 17.9617 5.66894 18.539 6.24626L22.7106 10.4178ZM12.9997 9.70708L19.2926 16L14.2976 20.9949H8.99978L8.70179 20.9949L6.2889 18.582C5.69485 17.988 5.69485 17.0119 6.28891 16.4178L12.9997 9.70708ZM14.7018 22.0049L14.7018 22.005H14.4997L8.4997 22.005H8.29762L8.15329 21.8606L5.59608 19.3034C4.60599 18.3133 4.60599 16.6865 5.59608 15.6964L15.7677 5.52486C16.7299 4.56267 18.2697 4.56268 19.2318 5.52488L23.4034 9.69644C24.3935 10.6865 24.3935 12.3133 23.4034 13.3034L15.7119 20.9949H21.9998V22.0049L14.7018 22.0049Z" fill="black"/>
</svg>
