<svg width="28" height="28" viewBox="0 0 28 28" fill="none" xmlns="http://www.w3.org/2000/svg">
<path fill-rule="evenodd" clip-rule="evenodd" d="M5.99993 4H21.9999V9.12947L16.9478 12H7.99993V13H15.1878L11.6678 15H7.99993V16H9.90781L5.99993 18.2204V4ZM22.9999 4V8.56129L24.7529 7.56527L25.2469 8.43473L3.24694 20.9347L2.75293 20.0653L4.99993 18.7886V4C4.99993 3.44772 5.44765 3 5.99993 3H21.9999C22.5522 3 22.9999 3.44772 22.9999 4ZM22.9999 24V11.1364L16.1999 15H19.9999V16H14.4399L10.9199 18H19.9999V19H9.15991L4.99993 21.3636V24C4.99993 24.5522 5.44765 25 5.99993 25H21.9999C22.5522 25 22.9999 24.5522 22.9999 24ZM7.99993 22H19.9999V21H7.99993V22ZM7.99993 7H19.9999V6H7.99993V7ZM19.9999 10H7.99993V9H19.9999V10Z" fill="black"/>
</svg>
