<svg width="20" height="20" viewBox="0 0 20 20" fill="none" xmlns="http://www.w3.org/2000/svg">
<path fill-rule="evenodd" clip-rule="evenodd" d="M6.92725 10.0107H8.02783L6.02148 5H4.95166L3 10.0107H4.07324L4.48682 8.87256H6.48975L6.92725 10.0107ZM5.47461 6.16895L6.16504 8.02832H4.79785L5.47461 6.16895ZM10.9942 5H8.99129V10.0107H10.6969C11.3417 10.0062 11.7485 9.99479 11.9171 9.97656C12.186 9.94694 12.4115 9.86833 12.5938 9.74072C12.7784 9.61084 12.9231 9.4388 13.0279 9.22461C13.135 9.00814 13.1886 8.78597 13.1886 8.55811C13.1886 8.26872 13.1065 8.01693 12.9425 7.80273C12.7784 7.58854 12.5437 7.43701 12.2384 7.34814C12.4548 7.25016 12.6257 7.10319 12.7511 6.90723C12.8787 6.71126 12.9425 6.49593 12.9425 6.26123C12.9425 6.04476 12.8912 5.84994 12.7887 5.67676C12.6861 5.5013 12.5574 5.36117 12.4024 5.25635C12.2498 5.15153 12.0754 5.08317 11.8795 5.05127C11.6858 5.01709 11.3907 5 10.9942 5ZM10.003 6.99268V5.83398H10.5841C11.0603 5.83398 11.3485 5.83968 11.4488 5.85107C11.6174 5.87158 11.7439 5.93083 11.8282 6.02881C11.9148 6.12451 11.9581 6.24984 11.9581 6.40479C11.9581 6.56657 11.908 6.69759 11.8077 6.79785C11.7097 6.89583 11.5741 6.95508 11.401 6.97559C11.3053 6.98698 11.0603 6.99268 10.6661 6.99268H10.003ZM10.003 9.1665V7.82666H10.8199C11.2802 7.82666 11.5787 7.85059 11.7154 7.89844C11.8544 7.94629 11.9604 8.02262 12.0333 8.12744C12.1062 8.23226 12.1427 8.35986 12.1427 8.51025C12.1427 8.68799 12.0948 8.8304 11.9991 8.9375C11.9057 9.04232 11.7838 9.1084 11.6334 9.13574C11.5354 9.15625 11.3041 9.1665 10.9395 9.1665H10.003ZM15 13C16.1046 13 17 12.1046 17 11C17 9.89543 16.1046 9 15 9V8C16.6569 8 18 9.34315 18 11C18 12.6569 16.6569 14 15 14V13ZM15 14H18V14H11.7071L12.8536 15.1465L12.1465 15.8536L10.1465 13.8536L9.79291 13.5L10.1465 13.1465L12.1465 11.1465L12.8536 11.8536L11.7071 13H15V14H15ZM14 8H15V9H14V8Z" fill="black"/>
</svg>
