<svg width="20" height="20" viewBox="0 0 20 20" fill="none" xmlns="http://www.w3.org/2000/svg">
<path fill-rule="evenodd" clip-rule="evenodd" d="M8 8V7C8 6.44772 7.55228 6 7 6C6.44772 6 6 6.44772 6 7V8C6 8.55228 6.44772 9 7 9C7.55228 9 8 8.55228 8 8ZM7 5C5.89543 5 5 5.89543 5 7V8C5 9.10457 5.89543 10 7 10C8.10457 10 9 9.10457 9 8V7C9 5.89543 8.10457 5 7 5ZM14 14V13C14 12.4477 13.5523 12 13 12C12.4477 12 12 12.4477 12 13V14C12 14.5523 12.4477 15 13 15C13.5523 15 14 14.5523 14 14ZM13 11C11.8954 11 11 11.8954 11 13V14C11 15.1046 11.8954 16 13 16C14.1046 16 15 15.1046 15 14V13C15 11.8954 14.1046 11 13 11ZM6.90963 15.7868L13.9096 5.78684L13.0904 5.21338L6.09039 15.2134L6.90963 15.7868Z" fill="black"/>
</svg>
