<svg width="20" height="20" viewBox="0 0 20 20" fill="none" xmlns="http://www.w3.org/2000/svg">
<path fill-rule="evenodd" clip-rule="evenodd" d="M6 3H5L3 9H4.25L4.52778 8H6.47222L6.75 9H8L6 3ZM6.19444 7L5.5 4.5L4.80556 7H6.19444ZM14 15.0858L14 3H13L13 15.0858L11.3787 13.4645L10.6716 14.1716L13.5 17L16.3284 14.1716L15.6213 13.4645L14 15.0858ZM6 14.75V17H7V11H5.54688C4.80777 11.0055 4.14662 11.1473 3.73438 11.4688C3.32213 11.7902 3 12.4121 3 13C3 13.717 3.58746 14.4093 4.25 14.75L3 17H4.25L5.25 14.75H6ZM5.54688 14C5 14 4 14 4 13C4 12.0014 4.99727 12.0014 5.54463 12.0014H5.54688L6 12V14H5.54688Z" fill="black"/>
</svg>
