<svg width="20" height="20" viewBox="0 0 20 20" fill="none" xmlns="http://www.w3.org/2000/svg">
<g opacity="0.75">
<path d="M13 5H12V8H10V9H17V8H13V5Z" fill="black"/>
<path d="M9 9H8V12H6V13H8V16H9V9Z" fill="black"/>
</g>
<g opacity="0.5">
<path d="M13 5H17V8H13V5Z" fill="black"/>
<path d="M12 7H11V8H12V7Z" fill="black"/>
<path d="M7 11H8V12H7V11Z" fill="black"/>
<path d="M4 13H8V16H4V13Z" fill="black"/>
<path d="M12 9H13V12H17V13H13V16H12V13H9V12H12V9Z" fill="black"/>
</g>
<path d="M11 5.70715L8.35359 8.35356L7.64648 7.64645L9.29289 6.00004H5.5C5.22386 6.00004 5 6.2239 5 6.50004V10.293L6.64645 8.64653L7.35356 9.35363L4.70712 12H4.29289L1.64648 9.35363L2.35359 8.64653L4 10.2929V6.50004C4 5.67162 4.67157 5.00004 5.5 5.00004H9.29294L7.64648 3.35359L8.35359 2.64648L11 5.29292V5.70715Z" fill="black"/>
<path d="M3 16V13H4V16H17V5H12V4H17C17.5523 4 18 4.44772 18 5V16C18 16.5523 17.5523 17 17 17H4C3.44772 17 3 16.5523 3 16Z" fill="black"/>
</svg>
