<svg width="20" height="20" viewBox="0 0 20 20" fill="none" xmlns="http://www.w3.org/2000/svg">
<path fill-rule="evenodd" clip-rule="evenodd" d="M9 6V8C9 8.55228 8.55228 9 8 9C7.44772 9 7 8.55228 7 8V6C7 5.44772 7.44772 5 8 5C8.55228 5 9 5.44772 9 6ZM6 6C6 4.89543 6.89543 4 8 4C9.10457 4 10 4.89543 10 6V8C10 9.10457 9.10457 10 8 10C6.89543 10 6 9.10457 6 8V6ZM14.3536 15.8536L16.3536 13.8536L16.7071 13.5L16.3536 13.1465L14.3536 11.1465L13.6464 11.8536L14.7929 13H3V14H14.7929L13.6464 15.1465L14.3536 15.8536ZM14 8V6C14 5.44772 13.5523 5 13 5C12.4477 5 12 5.44772 12 6V8C12 8.55228 12.4477 9 13 9C13.5523 9 14 8.55228 14 8ZM13 4C11.8954 4 11 4.89543 11 6V8C11 9.10457 11.8954 10 13 10C14.1046 10 15 9.10457 15 8V6C15 4.89543 14.1046 4 13 4ZM5 9H4V10H5V9Z" fill="black"/>
</svg>
