<svg width="20" height="20" viewBox="0 0 20 20" fill="none" xmlns="http://www.w3.org/2000/svg">
<path fill-rule="evenodd" clip-rule="evenodd" d="M9.0776 8.33071L9.85583 9.10894L11.9803 4.1471L11.2238 3.39062L6.30062 5.55372L7.05952 6.31262L8.15678 5.80024L9.57306 7.21653L9.0776 8.33071ZM10.767 4.58698L9.94042 6.38996L8.97368 5.42321L10.767 4.58698ZM15.4965 7.66336L14.0802 6.24707L10.5371 9.7902L11.7431 10.9962C12.2023 11.449 12.498 11.7285 12.6301 11.8349C12.8412 12.0041 13.0563 12.108 13.2754 12.1467C13.4978 12.1853 13.7217 12.166 13.9473 12.0886C14.1761 12.0113 14.3711 11.8921 14.5322 11.7309C14.7368 11.5263 14.8569 11.2903 14.8923 11.0228C14.9277 10.7553 14.8689 10.4822 14.7159 10.2035C14.9382 10.2873 15.163 10.3042 15.3902 10.2542C15.619 10.2059 15.8163 10.0988 15.9823 9.9328C16.1354 9.77973 16.2369 9.60572 16.2868 9.41076C16.3384 9.21418 16.3464 9.02406 16.311 8.84037C16.2772 8.6583 16.2022 8.48671 16.0862 8.32558C15.9734 8.16446 15.7769 7.94372 15.4965 7.66336ZM13.3866 8.3715L14.2059 7.55218L14.6168 7.96305C14.9535 8.2998 15.1533 8.50765 15.2162 8.5866C15.3209 8.72034 15.3684 8.85165 15.3588 8.98055C15.3523 9.10945 15.2943 9.22868 15.1847 9.33825C15.0703 9.45265 14.9422 9.50985 14.8005 9.50985C14.6619 9.50985 14.5241 9.45587 14.3872 9.34792C14.3114 9.2883 14.1342 9.11912 13.8555 8.84037L13.3866 8.3715ZM11.8495 9.90863L12.7969 8.96122L13.3745 9.53885C13.7 9.86432 13.8941 10.0923 13.957 10.2228C14.0214 10.3549 14.0424 10.4838 14.0198 10.6095C13.9973 10.7352 13.9328 10.8512 13.8265 10.9576C13.7008 11.0832 13.5662 11.1501 13.4228 11.1582C13.2827 11.1662 13.1497 11.1267 13.0241 11.0397C12.9403 10.9849 12.7695 10.8287 12.5117 10.5709L11.8495 9.90863ZM9 14.9999H10.2929L4.14648 8.85344L4.85359 8.14634L11 14.2927V12.9999H12V14.9999V15.9999H11H9V14.9999Z" fill="black"/>
</svg>
