<svg width="20" height="20" viewBox="0 0 20 20" fill="none" xmlns="http://www.w3.org/2000/svg">
<path fill-rule="evenodd" clip-rule="evenodd" d="M8.65262 4.83566L7.23633 6.25194L10.7795 9.79507L11.9855 8.58906C12.4382 8.12985 12.7178 7.83419 12.8241 7.70207C12.9933 7.49099 13.0972 7.27589 13.1359 7.05676C13.1746 6.83441 13.1552 6.61045 13.0779 6.38487C13.0006 6.15608 12.8813 5.96111 12.7202 5.79999C12.5156 5.59536 12.2795 5.47532 12.0121 5.43988C11.7446 5.40443 11.4715 5.46324 11.1927 5.61631C11.2765 5.39396 11.2934 5.16919 11.2435 4.942C11.1952 4.7132 11.088 4.51583 10.9221 4.34987C10.769 4.1968 10.595 4.09529 10.4 4.04534C10.2034 3.99378 10.0133 3.98573 9.82963 4.02117C9.64756 4.05501 9.47596 4.12993 9.31484 4.24594C9.15371 4.35873 8.93297 4.5553 8.65262 4.83566ZM9.36076 6.94559L8.54144 6.12627L8.95231 5.7154C9.28906 5.37865 9.49691 5.17885 9.57586 5.11602C9.70959 5.01128 9.84091 4.96375 9.96981 4.97342C10.0987 4.97987 10.2179 5.03787 10.3275 5.14743C10.4419 5.26183 10.4991 5.38993 10.4991 5.53172C10.4991 5.67028 10.4451 5.80805 10.3372 5.945C10.2776 6.02073 10.1084 6.19797 9.82963 6.47671L9.36076 6.94559ZM10.8979 8.48271L9.95048 7.5353L10.5281 6.95767C10.8536 6.6322 11.0816 6.43804 11.2121 6.3752C11.3442 6.31075 11.4731 6.28981 11.5988 6.31237C11.7245 6.33492 11.8405 6.39937 11.9468 6.50572C12.0725 6.63139 12.1394 6.76593 12.1474 6.90933C12.1555 7.04951 12.116 7.18244 12.029 7.30812C11.9742 7.3919 11.8179 7.56269 11.5601 7.82049L10.8979 8.48271ZM9.31996 11.2546L10.0982 10.4763L5.13636 8.35191L4.37988 9.10839L6.54298 14.0316L7.30188 13.2727L6.7895 12.1754L8.20579 10.7591L9.31996 11.2546ZM5.57623 9.56518L7.37922 10.3918L6.41247 11.3585L5.57623 9.56518ZM15.0002 9.00014H12.9999V10.0001H14.293L8.14634 16.1466L8.85343 16.8537L15.0002 10.7071V12.0001H16.0002V9.00014H15.9999H15.0002Z" fill="black"/>
</svg>
