<svg width="20" height="20" viewBox="0 0 20 20" fill="none" xmlns="http://www.w3.org/2000/svg">
<path d="M9.00003 12C6.62253 12 4.52076 10.8151 3.2546 9C4.52077 7.18485 6.62254 6 9.00005 6C11.3776 6 13.4793 7.18486 14.7455 9L15.9298 9C14.5466 6.6088 11.9612 5 9.00005 5C6.03893 5 3.45355 6.60879 2.07031 9C3.45355 11.3912 6.03891 13 9.00003 13V12Z" fill="black"/>
<path d="M11 9C11 7.89543 10.1046 7 9.00003 7C7.89546 7 7.00003 7.89543 7.00003 9C7.00003 10.1046 7.89546 11 9.00003 11L9.00003 9H11Z" fill="black"/>
<path d="M17.0359 10.672L16.3288 9.96484L13.5004 12.7933L10.672 9.96484L9.96484 10.6719L12.7933 13.5004L9.96484 16.3288L10.672 17.0359L13.5004 14.2075L16.3288 17.0359L17.0359 16.3288L14.2075 13.5004L17.0359 10.672Z" fill="black"/>
</svg>
