<svg width="20" height="20" viewBox="0 0 20 20" fill="none" xmlns="http://www.w3.org/2000/svg">
<g opacity="0.8">
<path fill-rule="evenodd" clip-rule="evenodd" d="M10.5001 1.79297L10.8536 2.14652L12.8536 4.14652L12.1465 4.85363L11.0001 3.70723V6.00024H10.0001V3.70714L8.85363 4.85363L8.14652 4.14652L10.1465 2.14652L10.5001 1.79297ZM16.1465 8.85363L17.2931 10.0002H15.0001V11.0002H17.2928L16.1465 12.1465L16.8536 12.8536L18.8536 10.8536L19.2072 10.5001L18.8536 10.1465L16.8536 8.14652L16.1465 8.85363ZM8.14652 16.8536L10.1465 18.8536L10.5001 19.2072L10.8536 18.8536L12.8536 16.8536L12.1465 16.1465L11.0001 17.2929V15.0002H10.0001V17.293L8.85363 16.1465L8.14652 16.8536ZM4.85363 8.85363L3.70701 10.0002H6.00012V11.0002H3.70735L4.85363 12.1465L4.14652 12.8536L2.14652 10.8536L1.79297 10.5001L2.14652 10.1465L4.14652 8.14652L4.85363 8.85363ZM8.00008 8.00008H10.0001V10.0001H8.00008V8.00008ZM8.00008 11.0001V13.0001H10.0001V11.0001H8.00008ZM11.0001 11.0001V13.0001H13.0001V11.0001H11.0001ZM13.0001 10.0001V8.00008H11.0001V10.0001H13.0001ZM7.00008 7.00008H8.00008H13.0001H14.0001V8.00008V13.0001V14.0001H13.0001H8.00008H7.00008V13.0001V8.00008V7.00008Z" fill="black"/>
</g>
</svg>
