<svg width="20" height="20" viewBox="0 0 20 20" fill="none" xmlns="http://www.w3.org/2000/svg">
<path fill-rule="evenodd" clip-rule="evenodd" d="M5 6H10V7H5V6ZM5 5H10H11H16H17V6V7V8V13V14V15V16H16H11H10H5H4V15V14V13V8V7V6V5H5ZM16 8V13H11H10H5V8H10H11H16ZM5 14H10V15H5V14ZM16 15H11V14H16V15ZM16 6V7H11V6H16ZM5.64646 10.8536L7.14647 12.3536L7.85357 11.6465L7.20713 11H10V10H7.20713L7.85357 9.35359L7.14647 8.64648L5.64646 10.1465L5.29291 10.5L5.64646 10.8536ZM13.8536 12.3536L15.3536 10.8536L15.7071 10.5L15.3536 10.1465L13.8536 8.64648L13.1464 9.35359L13.7929 10H11V11H13.7929L13.1464 11.6465L13.8536 12.3536Z" fill="black"/>
</svg>
