<svg width="20" height="20" viewBox="0 0 20 20" fill="none" xmlns="http://www.w3.org/2000/svg">
    <path opacity=".6" d="m13.445 8.75-.818 4.905-5.94 1.188-2.017-6.45 5.604-4.003 3.17 4.36Zm.055 5.75 1-6-4-5.5-7 5L6 16l7.5-1.5Z" fill="#444"/>
    <path d="m9.223 10.267-1.18 1.77-.404-2.298 1.584.528Zm.779.634 2.657 3.986-4.142-1.758 1.485-2.228Zm3.835 3.95-3.049-4.573 4.963-1.55-1.914 6.123Zm-.168 1.55.917 1.376.832-.554-.868-1.302 2.362-7.557 1.239-.387-.298-.954-1.403.438-5.68-1.748.23-3.682-.997-.062-.222 3.544-2.914 2.915L2.66 7.026l-.316.948L6.56 9.38l.678 3.863-2.653 3.98.832.554 2.534-3.802 5.717 2.427Zm-5.742-7.62 1.76-1.76-.144 2.3-1.616-.54Zm2.78-2.041 4.056 1.248-4.217 1.318.16-2.566Z" fill="#444"/>
</svg>
