<svg width="20" height="20" viewBox="0 0 20 20" fill="none" xmlns="http://www.w3.org/2000/svg">
<path fill-rule="evenodd" clip-rule="evenodd" d="M15 15.0858L15 3H14L14 15.0858L12.3787 13.4645L11.6716 14.1716L14.5 17L17.3284 14.1716L16.6213 13.4645L15 15.0858ZM7 11H6L4 17H5.25L5.52778 16H7.47222L7.75 17H9L7 11ZM7.19444 15L6.5 12.5L5.80556 15H7.19444ZM7 6.75V9H8V3H6.54688C5.80777 3.00549 5.14662 3.14732 4.73438 3.46875C4.32213 3.79018 4 4.41209 4 5C4 5.71703 4.58746 6.40934 5.25 6.75L4 9H5.25L6.25 6.75H7ZM6.54688 6C6 6 5 6 5 5C5 4.00137 5.99727 4.00137 6.54463 4.00137H6.54688L7 4V6H6.54688Z" fill="black"/>
</svg>
