<svg width="20" height="20" viewBox="0 0 20 20" fill="none" xmlns="http://www.w3.org/2000/svg">
<path fill-rule="evenodd" clip-rule="evenodd" d="M16.0001 8V6C16.0001 5.44772 15.5523 5 15.0001 5C14.4478 5 14.0001 5.44772 14.0001 6V8C14.0001 8.55228 14.4478 9 15.0001 9C15.5523 9 16.0001 8.55228 16.0001 8ZM15.0001 4C13.8955 4 13.0001 4.89543 13.0001 6V8C13.0001 9.10457 13.8955 10 15.0001 10C16.1046 10 17.0001 9.10457 17.0001 8V6C17.0001 4.89543 16.1046 4 15.0001 4ZM6.14653 15.8536L6.85363 15.1465L5.70718 14H17.0001V13H5.70718L6.85363 11.8536L6.14652 11.1465L3.79297 13.5L6.14653 15.8536ZM12.0001 9H11.0001V10H12.0001V9Z" fill="black"/>
</svg>
