<svg width="20" height="20" viewBox="0 0 20 20" fill="none" xmlns="http://www.w3.org/2000/svg">
<path fill-rule="evenodd" clip-rule="evenodd" d="M5.87508 14.8536L5.16797 14.1465L4.02152 15.3164L4.02152 4.00004L3.00006 4.00004L3.00006 15.2929L1.87508 14.1465L1.16797 14.8536L3.52152 17.2072L5.87508 14.8536Z" fill="black"/>
<path fill-rule="evenodd" clip-rule="evenodd" d="M13.8535 2.14653L13.1464 2.85364L14.2928 4.00008L2.99991 4.00009L2.99991 5.00009L14.2928 5.00008L13.1464 6.14653L13.8535 6.85364L16.207 4.50008L13.8535 2.14653Z" fill="black"/>
<path fill-rule="evenodd" clip-rule="evenodd" d="M10 8L9 8L9 9.29289L3.84314 4.13603L3.13603 4.84314L8.29289 10L7 10L7 11L10 11L10 8Z" fill="black"/>
<path fill-rule="evenodd" clip-rule="evenodd" d="M14.5003 15.2072L16.6216 17.3285L17.3287 16.6214L15.2074 14.5001L17.3287 12.3787L16.6216 11.6716L14.5003 13.793L12.379 11.6716L11.6719 12.3787L13.7931 14.5001L11.6719 16.6214L12.379 17.3285L14.5003 15.2072Z" fill="black"/>
</svg>
