<svg width="20" height="20" viewBox="0 0 20 20" fill="none" xmlns="http://www.w3.org/2000/svg">
    <path opacity=".4" d="m6 8 5-3.5L16 9l-4 2.5-3.5 1L5 10l1-2Z" fill="#444"/>
    <path d="M8 5.49V3H7v3.19l-1.39.973L1.69 15h1.602l-1.146 1.146.707.708L4.708 15h3.184l5.878 2.672L16.04 12H18v-1h-1.56l.648-1.62-6.03-6.03L8 5.49ZM7.62 14H3.31l1.645-3.289.179.196c.295.319.697.724 1.073.997.397.289.936.556 1.354.744.14.064.27.12.382.167L7.619 14Zm1.322-1.05.051-.007a20.4 20.4 0 0 0 1.066-.175c.603-.116 1.328-.285 1.98-.524l2.019 2.02-.826 2.064-4.636-2.107.346-1.271Zm5.52.303L13 11.793c.659-.39 1.332-.961 1.848-1.438a20.49 20.49 0 0 0 .905-.894l.16.16-1.453 3.632Zm-2.195-2.195-2.194-2.194 1.265-3.82 3.71 3.71-.183.19c-.17.174-.412.415-.695.677-.575.532-1.284 1.118-1.898 1.435l-.005.002ZM9.115 8.573l-3.479.774.755-1.51 3.864-2.705-1.14 3.441Zm-3.178 1.731L8.8 9.668l-.593 2.173a14.064 14.064 0 0 1-.236-.104c-.406-.184-.867-.416-1.176-.641-.27-.196-.585-.503-.858-.792Zm5.31 1.15c-.452.136-.934.246-1.378.332-.231.044-.449.081-.64.111l.527-1.934 1.49 1.49Z" fill="#444"/>
</svg>
