<svg width="20" height="20" viewBox="0 0 20 20" fill="none" xmlns="http://www.w3.org/2000/svg">
<path fill-rule="evenodd" clip-rule="evenodd" d="M7.00004 4L7.00004 13.2929L8.14648 12.1464L8.85359 12.8536L6.85359 14.8536L6.50004 15.2071L6.14648 14.8536L4.14648 12.8536L4.85359 12.1464L6.00004 13.2929L6.00004 4H7.00004ZM13.9273 9.01074H15.0279L13.0215 4H11.9517L10.0001 9.01074H11.0733L11.4869 7.87256H13.4898L13.9273 9.01074ZM12.4747 5.16895L13.1651 7.02832H11.7979L12.4747 5.16895ZM13.003 10H11.0001L11.0001 15.0107H12.7056C13.3505 15.0062 13.7572 14.9948 13.9258 14.9766C14.1947 14.9469 14.4203 14.8683 14.6026 14.7407C14.7872 14.6108 14.9319 14.4388 15.0367 14.2246C15.1438 14.0081 15.1973 13.786 15.1973 13.5581C15.1973 13.2687 15.1153 13.0169 14.9512 12.8027C14.7872 12.5885 14.5525 12.437 14.2471 12.3481C14.4636 12.2502 14.6345 12.1032 14.7598 11.9072C14.8874 11.7113 14.9512 11.4959 14.9512 11.2612C14.9512 11.0448 14.9 10.8499 14.7974 10.6768C14.6949 10.5013 14.5661 10.3612 14.4112 10.2563C14.2585 10.1515 14.0842 10.0832 13.8882 10.0513C13.6946 10.0171 13.3995 10 13.003 10ZM12.0118 11.9927V10.834H12.5928C13.0691 10.834 13.3573 10.8397 13.4576 10.8511C13.6262 10.8716 13.7527 10.9308 13.837 11.0288C13.9236 11.1245 13.9669 11.2498 13.9669 11.4048C13.9669 11.5666 13.9167 11.6976 13.8165 11.7979C13.7185 11.8958 13.5829 11.9551 13.4097 11.9756C13.314 11.987 13.0691 11.9927 12.6749 11.9927H12.0118ZM12.0118 14.1665V12.8267H12.8287C13.289 12.8267 13.5875 12.8506 13.7242 12.8984C13.8632 12.9463 13.9691 13.0226 14.0421 13.1274C14.115 13.2323 14.1514 13.3599 14.1514 13.5103C14.1514 13.688 14.1036 13.8304 14.0079 13.9375C13.9144 14.0423 13.7925 14.1084 13.6422 14.1357C13.5442 14.1562 13.3129 14.1665 12.9483 14.1665H12.0118Z" fill="black"/>
</svg>
