<svg xmlns="http://www.w3.org/2000/svg" width="24" height="24" viewBox="0 0 24 24" stroke="currentColor" stroke-linecap="round" stroke-linejoin="round" fill="none">
    <path d="m7.5 8.5-1.704 1.707a1 1 0 0 0-.292.707v6.582a1 1 0 0 0 1 1h10.992a1 1 0 0 0 1-1v-6.582a1 1 0 0 0-.292-.707L16.5 8.5m-9 0v-2a1 1 0 0 1 1-1h7a1 1 0 0 1 1 1v2m-9 0v3.351m9-3.351v3.357m0 0-4.45 2.533a.1.1 0 0 1-.1 0L7.5 11.85m9 .006 1.764-1.004m-12.65-.077L7.5 11.85m2-3.351h5m-5 2h3" class="icon-stroke-gray-primary"/>
</svg>
