<svg xmlns="http://www.w3.org/2000/svg" width="24" height="24" viewBox="0 0 24 24" stroke="currentColor" stroke-linecap="round" stroke-linejoin="round" fill="none">
    <path d="M14.5 10.695a.805.805 0 1 1 0 1.61.805.805 0 0 1 0-1.61Z" fill="currentColor" stroke="none" class="icon-fill-gray-primary"/>
    <path d="M4.5 6.5h15m-15 3h5m-5 3h5m-5 3h5m-5 3h15m-6-3h5a1 1 0 0 0 1-1v-1m-6 2 3.93-3.93a.1.1 0 0 1 .14 0l1.93 1.93m-6 2a1 1 0 0 1-1-1v-4a1 1 0 0 1 1-1h5a1 1 0 0 1 1 1v3" class="icon-stroke-gray-primary"/>
</svg>
