<svg xmlns="http://www.w3.org/2000/svg" width="24" height="24" fill="none" viewBox="0 0 24 24">
  <path fill="#383838" d="M17.5 5A1.5 1.5 0 0 1 19 6.5v11a1.5 1.5 0 0 1-1.5 1.5h-11A1.5 1.5 0 0 1 5 17.5v-11A1.5 1.5 0 0 1 6.5 5h11Zm-11 1a.5.5 0 0 0-.5.5v11a.5.5 0 0 0 .5.5H8V6H6.5ZM9 18h8.5a.5.5 0 0 0 .5-.5v-11a.5.5 0 0 0-.5-.5H9v12Z"/>
  <path fill="#446ECA" d="M14.6 16.01a.5.5 0 0 1 0 .98l-.1.01h-3a.5.5 0 0 1 0-1h3l.1.01Zm1-2.999a.5.5 0 0 1 0 .98l-.1.01h-4a.5.5 0 0 1 0-1h4l.1.01Zm-1-3a.5.5 0 0 1 0 .98l-.1.01h-3a.5.5 0 0 1 0-1h3l.1.01Zm1-3.001a.5.5 0 0 1 0 .98l-.1.01h-4a.5.5 0 0 1 0-1h4l.1.01Z"/>
</svg>
