<svg xmlns="http://www.w3.org/2000/svg" width="24" height="24" fill="none" viewBox="0 0 24 24">
  <path fill="#383838" d="M8.098 9.01a.5.5 0 0 1 .256.136l.146.147.146-.147.077-.062A.5.5 0 0 1 9 9h.5a.5.5 0 0 1 0 1h-.293L9 10.207v3.586l.207.207H9.5a.5.5 0 0 1 0 1H9a.5.5 0 0 1-.354-.146l-.146-.147-.146.146A.5.5 0 0 1 8 15h-.5a.5.5 0 0 1 0-1h.293L8 13.793v-3.586L7.793 10H7.5a.5.5 0 0 1 0-1H8l.098.01Z"/>
  <path fill="#446ECA" d="M6.6 5.01a.5.5 0 0 1 .4.49V6h10v-.5l.01-.1a.5.5 0 0 1 .49-.4h2l.1.01a.5.5 0 0 1 .4.49v2a.5.5 0 0 1-.5.5H19v8h.5a.5.5 0 0 1 .5.5v2a.5.5 0 0 1-.5.5h-2a.5.5 0 0 1-.5-.5V18H7v.5a.5.5 0 0 1-.5.5h-2a.5.5 0 0 1-.5-.5v-2l.01-.1a.5.5 0 0 1 .49-.4H5V8h-.5a.5.5 0 0 1-.5-.5v-2l.01-.1A.5.5 0 0 1 4.5 5h2l.1.01ZM5 18h1v-1H5v1Zm13 0h1v-1h-1v1ZM7 7v.5a.5.5 0 0 1-.5.5H6v8h.5a.5.5 0 0 1 .5.5v.5h10v-.5a.5.5 0 0 1 .5-.5h.5V8h-.5a.5.5 0 0 1-.5-.5V7H7ZM5 7h1V6H5v1Zm13 0h1V6h-1v1Z"/>
</svg>
