<svg xmlns="http://www.w3.org/2000/svg" width="24" height="24" fill="none" viewBox="0 0 24 24">
  <path fill="#383838" fill-rule="evenodd" d="M11 6.5a.5.5 0 0 1 .5-.5h7a.5.5 0 0 1 0 1h-7a.5.5 0 0 1-.5-.5Zm0 4a.5.5 0 0 1 .5-.5h7a.5.5 0 0 1 0 1h-7a.5.5 0 0 1-.5-.5Zm-6 4a.5.5 0 0 1 .5-.5h13a.5.5 0 0 1 0 1h-13a.5.5 0 0 1-.5-.5Zm0 4a.5.5 0 0 1 .5-.5h13a.5.5 0 0 1 0 1h-13a.5.5 0 0 1-.5-.5Z" clip-rule="evenodd"/>
  <path fill="#446ECA" fill-rule="evenodd" d="M7.5 6a.5.5 0 0 1 .464.314l1.2 3 .4 1 .4 1a.5.5 0 1 1-.928.372L8.76 11H6.24l-.275.686a.5.5 0 1 1-.928-.372l.4-1 .4-1 1.2-3A.5.5 0 0 1 7.5 6Zm-.861 4H8.36l-.125-.314-.736-1.84-.736 1.84L6.64 10Z" clip-rule="evenodd"/>
</svg>
