<svg xmlns="http://www.w3.org/2000/svg" width="24" height="24" fill="none" viewBox="0 0 24 24">
  <path fill="#383838" d="M10.653 5.008A1.5 1.5 0 0 1 12 6.5v12a1.5 1.5 0 0 1-1.5 1.5h-4A1.5 1.5 0 0 1 5 18.5v-12A1.5 1.5 0 0 1 6.5 5h4l.153.008ZM6 18.5a.5.5 0 0 0 .5.5h4a.5.5 0 0 0 .5-.5V13H6v5.5ZM6.5 6a.5.5 0 0 0-.5.5V12h5V6.5a.5.5 0 0 0-.4-.49L10.5 6h-4Z"/>
  <path fill="#446ECA" d="M16.5 5a.5.5 0 0 1 .5.5V6h1.5a.5.5 0 0 1 0 1H17v5h1.5a.5.5 0 0 1 0 1H17v5h1.5a.5.5 0 0 1 0 1H17v.5a.5.5 0 0 1-1 0V19h-1.5a.5.5 0 0 1 0-1H16v-5h-1.5a.5.5 0 0 1 0-1H16V7h-1.5a.5.5 0 0 1 0-1H16v-.5a.5.5 0 0 1 .5-.5Z"/>
</svg>
