<svg xmlns="http://www.w3.org/2000/svg" width="24" height="24" fill="none" viewBox="0 0 24 24">
  <path fill="#383838" d="M12.5 4a1.5 1.5 0 0 1 1.446 1.106A1.5 1.5 0 0 1 16 6.5v1.587a1.506 1.506 0 0 1 2.004 1.41c.008 1.38.024 2.715-.04 3.93-.062 1.215-.204 2.345-.528 3.312-.327.974-.847 1.805-1.671 2.387-.823.58-1.897.874-3.265.874-1.677 0-3.066-1.152-4.147-2.499-1.096-1.365-1.974-3.05-2.609-4.35C5.26 12.158 5.995 11 7.093 11c.393 0 .77.156 1.049.435l.858.858V7.5a1.5 1.5 0 0 1 2-1.413V5.5A1.5 1.5 0 0 1 12.5 4Zm0 1a.5.5 0 0 0-.5.5V12a.5.5 0 0 1-1 0V7.5l-.01-.1a.5.5 0 0 0-.99.1v6a.5.5 0 0 1-.854.354l-1.711-1.712A.485.485 0 0 0 7.093 12a.5.5 0 0 0-.45.712c.631 1.293 1.468 2.892 2.489 4.163C10.167 18.164 11.298 19 12.5 19c1.227 0 2.081-.263 2.688-.691.605-.427 1.02-1.056 1.3-1.888.281-.84.418-1.864.479-3.044.06-1.18.045-2.48.037-3.873A.506.506 0 0 0 16.5 9a.5.5 0 0 0-.5.5V12a.5.5 0 0 1-1 0V6.5a.5.5 0 0 0-1 0V12a.5.5 0 0 1-1 0V5.5a.5.5 0 0 0-.5-.5Z"/>
</svg>
