<svg width="60" height="60" viewBox="0 0 60 60" fill="none" xmlns="http://www.w3.org/2000/svg">
<mask id="mask0_692_5184" style="mask-type:alpha" maskUnits="userSpaceOnUse" x="0" y="0" width="60" height="60">
<rect width="60" height="60" fill="#D9D9D9"/>
</mask>
<g mask="url(#mask0_692_5184)">
<path d="M21.231 48C20.3103 48 19.5417 47.6917 18.925 47.075C18.3083 46.4583 18 45.6897 18 44.769V15.231C18 14.3103 18.3083 13.5417 18.925 12.925C19.5417 12.3083 20.3103 12 21.231 12H38.769C39.6897 12 40.4583 12.3083 41.075 12.925C41.6917 13.5417 42 14.3103 42 15.231V44.769C42 45.6897 41.6917 46.4583 41.075 47.075C40.4583 47.6917 39.6897 48 38.769 48H21.231ZM21.231 46H38.769C39.077 46 39.3592 45.8718 39.6155 45.6155C39.8718 45.3592 40 45.077 40 44.769V15.231C40 14.923 39.8718 14.6408 39.6155 14.3845C39.3592 14.1282 39.077 14 38.769 14H21.231C20.923 14 20.6408 14.1282 20.3845 14.3845C20.1282 14.6408 20 14.923 20 15.231V44.769C20 45.077 20.1282 45.3592 20.3845 45.6155C20.6408 45.8718 20.923 46 21.231 46Z" fill="#1C1B1F"/>
<path d="M24 28V18H36V28H24ZM24 42V32H36V42H24ZM26 26H34V20H26V26ZM26 40.0741H34V34H26V40.0741Z" fill="#1C1B1F"/>
</g>
</svg>
