<svg xmlns="http://www.w3.org/2000/svg" width="24" height="24" fill="none" viewBox="0 0 24 24">
  <path fill="#383838" d="M17.5 5A1.5 1.5 0 0 1 19 6.5v11a1.5 1.5 0 0 1-1.5 1.5h-4.922a.5.5 0 0 1 0-1H17.5a.5.5 0 0 0 .5-.5v-11a.5.5 0 0 0-.5-.5h-8a.5.5 0 0 0-.5.5v5a.5.5 0 0 1-1 0v-5A1.5 1.5 0 0 1 9.5 5h8Z"/>
  <path fill="#446ECA" d="M6.379 11.014a.501.501 0 0 1 .242.971l-.007.002-.047.014a2.733 2.733 0 0 0-.768.4C5.392 12.706 5 13.196 5 14c0 .858.315 1.343.638 1.62.347.297.732.38.862.38h3.293l-.647-.647-.064-.078a.5.5 0 0 1 .693-.693l.079.064 1.347 1.348.112.111.03.03.01.011.065.078a.501.501 0 0 1-.064.63l-1.5 1.5a.5.5 0 0 1-.708-.708L9.793 17H6.5c-.37 0-.985-.168-1.513-.62C4.436 15.907 4 15.14 4 14c0-1.196.61-1.957 1.2-2.4a3.727 3.727 0 0 1 1.14-.575l.025-.007.009-.002h.003v-.002c.001 0 .003.006.123.486l-.121-.486ZM15.5 14a.5.5 0 0 1 0 1h-2a.5.5 0 0 1 0-1h2Zm0-3a.5.5 0 0 1 0 1h-4a.5.5 0 0 1 0-1h4Zm0-3a.5.5 0 0 1 0 1h-4a.5.5 0 0 1 0-1h4Z"/>
</svg>
