<svg xmlns="http://www.w3.org/2000/svg" width="24" height="24" fill="none" viewBox="0 0 24 24">
  <path fill="#383838" d="M16.5 3.996a1.5 1.5 0 0 1 1.5 1.5V18.5a1.5 1.5 0 0 1-1.5 1.5h-9A1.5 1.5 0 0 1 6 18.5V5.496a1.5 1.5 0 0 1 1.5-1.5h9Zm-9 1a.5.5 0 0 0-.5.5V18.5a.5.5 0 0 0 .5.5h9a.5.5 0 0 0 .5-.5V5.496a.5.5 0 0 0-.5-.5h-9ZM15 13a1 1 0 0 1 1 1v3a1 1 0 0 1-1 1H9a1 1 0 0 1-1-1v-3a1 1 0 0 1 1-1h6Zm-6 4h6v-3H9v3Zm6-11a1 1 0 0 1 1 1v3a1 1 0 0 1-1 1H9a1 1 0 0 1-1-1V7a1 1 0 0 1 1-1h6Zm-6 4h6V7H9v3Z"/>
</svg>
