<svg xmlns="http://www.w3.org/2000/svg" width="24" height="24" fill="none" viewBox="0 0 24 24">
  <path fill="#383838" fill-rule="evenodd" d="M7 6.5A1.5 1.5 0 0 1 8.5 5h7A1.5 1.5 0 0 1 17 6.5v1.793l1.558 1.561a1.5 1.5 0 0 1 .438 1.06v6.582a1.5 1.5 0 0 1-1.5 1.5H6.504a1.5 1.5 0 0 1-1.5-1.5v-6.582a1.5 1.5 0 0 1 .438-1.06L7 8.294V6.5Zm1 2v3.061l4 2.282 4-2.277V6.5a.5.5 0 0 0-.5-.5h-7a.5.5 0 0 0-.5.5v2Zm9 1.209v1.288l.82-.467-.82-.821Zm.996 1.871-1.249.711-4.45 2.534a.6.6 0 0 1-.594 0l-4.45-2.54-1.25-.712v5.923a.5.5 0 0 0 .5.5h10.993a.5.5 0 0 0 .5-.5V11.58ZM6.185 10.525l.815.466V9.709l-.815.816ZM9 8.5a.5.5 0 0 1 .5-.5h5a.5.5 0 0 1 0 1h-5a.5.5 0 0 1-.5-.5Zm0 2a.5.5 0 0 1 .5-.5h3a.5.5 0 0 1 0 1h-3a.5.5 0 0 1-.5-.5Z" clip-rule="evenodd"/>
</svg>
