<svg xmlns="http://www.w3.org/2000/svg" width="24" height="24" viewBox="0 0 24 24">
    <path d="M20.5 19a.5.5 0 0 1 0 1h-17a.5.5 0 0 1 0-1h17ZM7 16.355c0 .24.058.456.146.645H3.5a.5.5 0 0 1 0-1H7v.355Zm5.5.025c0 .22.044.43.124.62h-2.245c.077-.189.121-.395.121-.611V16h2v.38Zm8-.38a.5.5 0 0 1 0 1h-4.602a1.52 1.52 0 0 0 .093-.394l.009-.165V16h4.5ZM7 14H3.5a.5.5 0 0 1 0-1H7v1Zm13.5-1a.5.5 0 0 1 0 1H16v-1h4.5ZM5.918 10c.008.301.04.643.144 1H3.5a.5.5 0 0 1 0-1h2.418ZM20.5 10a.5.5 0 0 1 0 1h-2.331a2.03 2.03 0 0 0 .287-1H20.5Zm-8.062-3a1.443 1.443 0 0 0-.184.418l-.027.129L12.15 8H3.5a.5.5 0 0 1 0-1h8.938ZM20.5 7a.5.5 0 0 1 0 1h-3.474l-.015-.033a1.91 1.91 0 0 0-.204-.334l-.112-.127-.14-.126a1.92 1.92 0 0 0-.763-.38H20.5Zm0-3a.5.5 0 0 1 0 1h-17a.5.5 0 0 1 0-1h17Z" fill="currentColor" stroke="none" class="icon-fill-gray-primary"/>
    <path d="M13.213 7.767 12.665 11H9c-.912 0-1.003-.767-1.004-1.5 0-.276-.22-.5-.496-.5a.501.501 0 0 0-.501.5C7 10.48 7.073 11.346 8 12v4a1 1 0 1 0 2 0v-2l3 .659V16a1 1 0 1 0 2 0v-3.725l.007-1.026a.25.25 0 0 1 .25-.249h.674c.844 0 1.527-.24 1.527-1.083v-.459A.457.457 0 0 0 17 9h-.668s-.172-.559-.344-.73A.916.916 0 0 0 15.34 8h-.995l-.322-.43a.452.452 0 0 0-.81.197Z" fill="currentColor" stroke="none" class="icon-fill-blue-primary"/>
</svg>
