<svg xmlns="http://www.w3.org/2000/svg" width="24" height="24" fill="none" viewBox="0 0 24 24">
  <path fill="#383838" d="M8.098 9.01a.5.5 0 0 1 .256.136l.146.147.146-.147.077-.062A.5.5 0 0 1 9 9h.5a.5.5 0 0 1 0 1h-.293L9 10.207v3.586l.207.207H9.5a.5.5 0 0 1 0 1H9a.5.5 0 0 1-.354-.146l-.146-.147-.146.146A.5.5 0 0 1 8 15h-.5a.5.5 0 0 1 0-1h.293L8 13.793v-3.586L7.793 10H7.5a.5.5 0 0 1 0-1H8l.098.01Z"/>
  <path fill="#446ECA" d="M18.5 6A1.5 1.5 0 0 1 20 7.5v9a1.5 1.5 0 0 1-1.5 1.5h-13A1.5 1.5 0 0 1 4 16.5v-9A1.5 1.5 0 0 1 5.5 6h13Zm-13 1a.5.5 0 0 0-.5.5v9a.5.5 0 0 0 .5.5h13a.5.5 0 0 0 .5-.5v-9a.5.5 0 0 0-.5-.5h-13Z"/>
</svg>
