<svg xmlns="http://www.w3.org/2000/svg" width="24" height="24" fill="none" viewBox="0 0 24 24">
  <path fill="#969696" d="M12 8a4 4 0 0 1 4 4v4.5a.5.5 0 0 1-1 0V12a3 3 0 1 0-6 0v4.5a.5.5 0 0 1-1 0V12a4 4 0 0 1 4-4Z"/>
  <path fill="#383838" d="M19.5 19a.5.5 0 0 1 0 1h-15a.5.5 0 0 1 0-1h15Zm0-3a.5.5 0 0 1 0 1h-15a.5.5 0 0 1 0-1h15Zm0-3a.5.5 0 0 1 0 1h-15a.5.5 0 0 1 0-1h15Zm0-3a.5.5 0 0 1 0 1h-15a.5.5 0 0 1 0-1h15Zm0-3a.5.5 0 0 1 0 1h-15a.5.5 0 0 1 0-1h15Zm0-3a.5.5 0 0 1 0 1h-15a.5.5 0 0 1 0-1h15Z"/>
</svg>
