<svg width="60" height="60" viewBox="0 0 60 60" fill="none" xmlns="http://www.w3.org/2000/svg">
<mask id="mask0_692_3039" style="mask-type:alpha" maskUnits="userSpaceOnUse" x="0" y="0" width="60" height="60">
<rect width="60" height="60" fill="#D9D9D9"/>
</mask>
<g mask="url(#mask0_692_3039)">
<path d="M15.231 42C14.3423 42 13.5817 41.6837 12.949 41.051C12.3163 40.4183 12 39.6577 12 38.769V21.231C12 20.3423 12.3163 19.5817 12.949 18.949C13.5817 18.3163 14.3423 18 15.231 18H30.769C31.6577 18 32.4183 18.3163 33.051 18.949C33.6837 19.5817 34 20.3423 34 21.231V38.769C34 39.6577 33.6837 40.4183 33.051 41.051C32.4183 41.6837 31.6577 42 30.769 42H15.231ZM15.231 40H30.769C31.128 40 31.423 39.8847 31.654 39.654C31.8847 39.423 32 39.128 32 38.769V21.231C32 20.872 31.8847 20.577 31.654 20.346C31.423 20.1153 31.128 20 30.769 20H15.231C14.872 20 14.577 20.1153 14.346 20.346C14.1153 20.577 14 20.872 14 21.231V38.769C14 39.128 14.1153 39.423 14.346 39.654C14.577 39.8847 14.872 40 15.231 40ZM16 36H30L26.75 29.3075L23 34.3075L20.25 30.6575L16 36Z" fill="#1C1B1F"/>
<path d="M39.6345 28C39.1575 28 38.7658 27.8468 38.4595 27.5405C38.1532 27.2342 38 26.8425 38 26.3655V19.6345C38 19.1575 38.1532 18.7658 38.4595 18.4595C38.7658 18.1532 39.1575 18 39.6345 18H46.3655C46.8425 18 47.2342 18.1532 47.5405 18.4595C47.8468 18.7658 48 19.1575 48 19.6345V26.3655C48 26.8425 47.8468 27.2342 47.5405 27.5405C47.2342 27.8468 46.8425 28 46.3655 28H39.6345ZM40 26H46V20H40V26ZM39.6345 42C39.1575 42 38.7658 41.8468 38.4595 41.5405C38.1532 41.2342 38 40.8425 38 40.3655V33.6345C38 33.1575 38.1532 32.7658 38.4595 32.4595C38.7658 32.1532 39.1575 32 39.6345 32H46.3655C46.8425 32 47.2342 32.1532 47.5405 32.4595C47.8468 32.7658 48 33.1575 48 33.6345V40.3655C48 40.8425 47.8468 41.2342 47.5405 41.5405C47.2342 41.8468 46.8425 42 46.3655 42H39.6345ZM40 40H46V34H40V40Z" fill="#5C89FF"/>
</g>
</svg>
