<svg xmlns="http://www.w3.org/2000/svg" width="24" height="24" viewBox="0 0 24 24" stroke-linecap="round" stroke-linejoin="round" fill="none">
    <path stroke="currentColor" d="M5.5 11.5h4m-4 3h4m-4 3h4m3-4v-2a1 1 0 0 1 1-1h4a1 1 0 0 1 1 1v2m-6 0h6m-6 0v3m6-3v3m-6 0v2a1 1 0 0 0 1 1h4a1 1 0 0 0 1-1v-2m-6 0h6" class="icon-gray-primary"/>
    <path fill="currentColor" d="M7.026 7.342a.5.5 0 1 0 .948.316l-.948-.316Zm.567-.12-.475-.158.475.158Zm7.089-.95.416-.277-.416.278ZM15.5 7.5V8a.5.5 0 0 0 .5-.5h-.5Zm.5-3a.5.5 0 0 0-1 0h1ZM12.5 7a.5.5 0 0 0 0 1V7Zm-1.13-2.5V5v-.5Zm-3.87 3 .474.158.093-.278-.474-.158-.475-.158-.092.278.474.158Zm7.182-1.227-.416.277.818 1.227.416-.277.416-.277-.818-1.228-.416.278ZM15.5 7.5h.5v-3h-1v3h.5Zm0 0V7h-3v1h3v-.5Zm-4.13-3V5c1.163 0 2.25.582 2.896 1.55l.416-.277.416-.278A4.481 4.481 0 0 0 11.369 4v.5ZM7.592 7.222l.474.158A3.481 3.481 0 0 1 11.369 5V4a4.481 4.481 0 0 0-4.25 3.064l.474.158Z" class="icon-fill-blue-primary"/>
</svg>
