<svg xmlns="http://www.w3.org/2000/svg" width="24" height="24" fill="none" viewBox="0 0 24 24">
  <path fill="#383838" fill-rule="evenodd" d="M6 5.5a.5.5 0 0 1 .5-.5h11a.5.5 0 0 1 0 1h-11a.5.5 0 0 1-.5-.5Zm0 5a.5.5 0 0 1 .5-.5h11a.5.5 0 0 1 0 1h-11a.5.5 0 0 1-.5-.5Zm9 5a.5.5 0 0 1 .5-.5h2a.5.5 0 0 1 0 1h-2a.5.5 0 0 1-.5-.5Z" clip-rule="evenodd"/>
  <path fill="#3D59AF" fill-rule="evenodd" d="M7.691 13.038A.5.5 0 0 1 8 13.5v4a.5.5 0 1 1-1 0v-2.793l-.646.647a.5.5 0 0 1-.708-.707l1.5-1.5a.5.5 0 0 1 .545-.109ZM10 14.5a1.5 1.5 0 0 1 3 0v.086a1.5 1.5 0 0 1-.44 1.06L11.208 17H12.5a.5.5 0 0 1 0 1h-1.93a.57.57 0 0 1-.57-.57c0-.408.162-.8.451-1.088l1.403-1.403a.5.5 0 0 0 .146-.353V14.5a.5.5 0 0 0-1 0 .5.5 0 1 1-1 0Z" clip-rule="evenodd"/>
</svg>
