<svg xmlns="http://www.w3.org/2000/svg" width="24" height="24" fill="none" viewBox="0 0 24 24">
  <path fill="#383838" fill-rule="evenodd" d="M7 5.496a.5.5 0 0 1 .5-.5h9a.5.5 0 0 1 .5.5V18.5a.5.5 0 0 1-.5.5h-9a.5.5 0 0 1-.5-.5V5.496Zm.5-1.5a1.5 1.5 0 0 0-1.5 1.5V18.5A1.5 1.5 0 0 0 7.5 20h9a1.5 1.5 0 0 0 1.5-1.5V5.496a1.5 1.5 0 0 0-1.5-1.5h-9ZM9 6a1 1 0 0 0-1 1v1a1 1 0 0 0 1 1h6a1 1 0 0 0 1-1V7a1 1 0 0 0-1-1H9Zm0 1h6v1H9V7Zm0 8a1 1 0 0 0-1 1v1a1 1 0 0 0 1 1h6a1 1 0 0 0 1-1v-1a1 1 0 0 0-1-1H9Zm0 1h6v1H9v-1Z" clip-rule="evenodd"/>
</svg>
