<svg xmlns="http://www.w3.org/2000/svg" width="24" height="24" fill="none" viewBox="0 0 24 24">
  <path fill="#383838" fill-rule="evenodd" d="M10 7.5a.5.5 0 0 1 .5-.5h8a.5.5 0 0 1 0 1h-8a.5.5 0 0 1-.5-.5Zm3 5a.5.5 0 0 1 .5-.5h5a.5.5 0 0 1 0 1h-5a.5.5 0 0 1-.5-.5Zm2 5a.5.5 0 0 1 .5-.5h3a.5.5 0 0 1 0 1h-3a.5.5 0 0 1-.5-.5Z" clip-rule="evenodd"/>
  <path fill="#3D59AF" fill-rule="evenodd" d="M6.691 6.038A.5.5 0 0 1 7 6.5v4a.5.5 0 1 1-1 0V7.707l-.646.647a.5.5 0 1 1-.708-.708l1.5-1.5a.5.5 0 0 1 .545-.108ZM8 15.5a1.5 1.5 0 0 1 3 0v3a.5.5 0 1 1-1 0V17H9v1.5a.5.5 0 1 1-1 0v-3Zm1 .5h1v-.5a.5.5 0 0 0-1 0v.5Z" clip-rule="evenodd"/>
</svg>
