<svg width="60" height="60" viewBox="0 0 60 60" fill="none" xmlns="http://www.w3.org/2000/svg">
<mask id="mask0_695_1245" style="mask-type:alpha" maskUnits="userSpaceOnUse" x="0" y="0" width="60" height="60">
<rect width="60" height="60" fill="#D9D9D9"/>
</mask>
<g mask="url(#mask0_695_1245)">
<path d="M30.0385 46C27.8205 46 25.7416 45.5827 23.802 44.748C21.8623 43.9133 20.1675 42.771 18.7175 41.321C17.2675 39.871 16.1251 38.1762 15.2905 36.2365C14.4558 34.2968 14.0385 32.218 14.0385 30C14.0385 27.782 14.4558 25.7032 15.2905 23.7635C16.1251 21.8238 17.2675 20.129 18.7175 18.679C20.1675 17.229 21.8623 16.0867 23.802 15.252C25.7416 14.4173 27.8205 14 30.0385 14C32.3358 14 34.5236 14.4743 36.6019 15.423C38.68 16.3717 40.4921 17.6948 42.0385 19.3925L42.0385 15H44L44 23H36V21H40.6925C39.3001 19.4667 37.6936 18.1858 35.873 17.3115C34.0526 16.4372 32.1078 16 30.0385 16C26.1385 16 22.8301 17.3583 20.1135 20.075C17.3968 22.7917 16.0385 26.1 16.0385 30C16.0385 33.9 17.3968 37.2083 20.1135 39.925C22.8301 42.6417 26.1385 44 30.0385 44C33.5385 44 36.584 42.8603 39.175 40.581C41.766 38.3013 43.3333 35.441 43.877 32H45.9C45.4256 36.0283 43.6788 39.3687 40.6595 42.021C37.6405 44.6737 34.1001 46 30.0385 46Z" fill="#1C1B1F"/>
</g>
</svg>
