<svg xmlns="http://www.w3.org/2000/svg" width="24" height="24" fill="none" viewBox="0 0 24 24">
  <path fill="#383838" d="M19.5 18a.5.5 0 0 1 0 1h-15a.5.5 0 0 1 0-1h15Zm-10-3a.5.5 0 0 1 0 1h-5a.5.5 0 0 1 0-1h5Zm9-6a1.5 1.5 0 0 1 1.5 1.5v4a1.5 1.5 0 0 1-1.5 1.5h-5a1.5 1.5 0 0 1-1.5-1.5v-4A1.5 1.5 0 0 1 13.5 9h5Zm-3.793 6H18.5a.5.5 0 0 0 .5-.5v-.793l-1.5-1.5L14.707 15ZM13.5 10a.5.5 0 0 0-.5.5v4a.5.5 0 0 0 .325.467l3.751-3.75.094-.076a.6.6 0 0 1 .66 0l.094.076L19 12.293V10.5a.5.5 0 0 0-.5-.5h-5Zm-4 2a.5.5 0 0 1 0 1h-5a.5.5 0 0 1 0-1h5Zm5-1.305a.805.805 0 1 1 0 1.61.805.805 0 0 1 0-1.61Zm0 .61a.195.195 0 1 0 0 .39.195.195 0 0 0 0-.39ZM9.5 9a.5.5 0 0 1 0 1h-5a.5.5 0 0 1 0-1h5Zm10-3a.5.5 0 0 1 0 1h-15a.5.5 0 0 1 0-1h15Z"/>
</svg>
