<svg width="60" height="60" viewBox="0 0 60 60" fill="none" xmlns="http://www.w3.org/2000/svg">
<mask id="mask0_692_5181" style="mask-type:alpha" maskUnits="userSpaceOnUse" x="0" y="0" width="60" height="60">
<rect width="60" height="60" fill="#D9D9D9"/>
</mask>
<g mask="url(#mask0_692_5181)">
<path d="M26.8999 46C26.1549 46 25.4443 45.8404 24.7679 45.521C24.0919 45.202 23.5044 44.7401 23.0054 44.1351L11.6074 30.35L12.5999 29.4845C12.9513 29.1589 13.3679 28.991 13.8499 28.981C14.3319 28.9707 14.7691 29.0874 15.1614 29.331L21.9999 33.573V12.9615C21.9999 12.6782 22.0959 12.4407 22.2879 12.249C22.4799 12.0574 22.7178 11.9615 23.0014 11.9615C23.2851 11.9615 23.5224 12.0574 23.7134 12.249C23.9044 12.4407 23.9999 12.6782 23.9999 12.9615V37.3116L15.5654 32.0271L24.6129 42.887C24.9196 43.234 25.2678 43.5064 25.6574 43.7041C26.0474 43.9014 26.4616 44 26.8999 44H38.9999C40.4076 44 41.5929 43.5187 42.5559 42.556C43.5186 41.5931 43.9999 40.4077 43.9999 39V25C43.9999 24.7167 44.0959 24.4792 44.2879 24.2875C44.4799 24.0959 44.7178 24 45.0014 24C45.2851 24 45.5224 24.0959 45.7134 24.2875C45.9044 24.4792 45.9999 24.7167 45.9999 25V39C45.9999 40.9437 45.3191 42.5962 43.9574 43.9576C42.5961 45.3192 40.9436 46 38.9999 46H26.8999ZM30 30V19C30 18.7167 30.096 18.4792 30.288 18.2875C30.48 18.0958 30.7178 18 31.0015 18C31.2852 18 31.5225 18.0958 31.7135 18.2875C31.9045 18.4792 32 18.7167 32 19V30H30ZM36 30V21C36 20.7167 36.0958 20.4792 36.2875 20.2875C36.4795 20.0958 36.7173 20 37.001 20C37.2847 20 37.5222 20.0958 37.7135 20.2875C37.9045 20.4792 38 20.7167 38 21V30H36Z" fill="#1C1B1F"/>
</g>
</svg>
