<svg xmlns="http://www.w3.org/2000/svg" width="24" height="24" fill="none" viewBox="0 0 24 24">
  <path fill="#383838" d="M17.653 10.008A1.5 1.5 0 0 1 19 11.5v7a1.5 1.5 0 0 1-1.5 1.5h-4a1.5 1.5 0 0 1-1.5-1.5v-7a1.5 1.5 0 0 1 1.5-1.5h4l.153.008ZM13 18.5a.5.5 0 0 0 .5.5h4a.5.5 0 0 0 .5-.5V17h-5v1.5ZM9.5 17a.5.5 0 0 1 0 1h-4a.5.5 0 0 1 0-1h4Zm3.5-1h5v-2h-5v2Zm-3.5-2a.5.5 0 0 1 0 1h-4a.5.5 0 0 1 0-1h4Zm4-3a.5.5 0 0 0-.5.5V13h5v-1.5a.5.5 0 0 0-.4-.49l-.1-.01h-4Zm-4 0a.5.5 0 0 1 0 1h-4a.5.5 0 0 1 0-1h4Z"/>
  <path fill="#446ECA" d="M15.5 4a.5.5 0 0 1 .49.4l.01.1v3a.5.5 0 0 1-.5.5h-3l-.101-.01a.5.5 0 0 1 0-.98l.1-.01h2.067l-.3-.45a3.482 3.482 0 0 0-6.1.57l-.099.26-.093.278a.5.5 0 0 1-.949-.316l.093-.278.127-.335A4.48 4.48 0 0 1 15 5.859V4.5l.01-.1a.5.5 0 0 1 .49-.4Z"/>
</svg>
