<svg xmlns="http://www.w3.org/2000/svg" width="24" height="24" viewBox="0 0 24 24" stroke="currentColor" stroke-linecap="round" stroke-linejoin="round" fill="none">
    <path d="M3.5 19.5h17m-17-15h17m-17 12h17m-17-3h17m-17-3h17m-17-3h17" class="icon-stroke-gray-secondary"/>
    <path d="M13.213 7.767 12.665 11H9c-.912 0-1.003-.767-1.004-1.5 0-.276-.22-.5-.496-.5a.501.501 0 0 0-.501.5C7 10.48 7.073 11.346 8 12v4a1 1 0 1 0 2 0v-2l3 .659V16a1 1 0 1 0 2 0v-3.725l.007-1.027a.25.25 0 0 1 .25-.248h.674c.844 0 1.527-.24 1.527-1.083v-.459A.457.457 0 0 0 17 9h-.668s-.172-.559-.344-.73A.916.916 0 0 0 15.34 8h-.995l-.322-.43a.452.452 0 0 0-.81.197Z" fill="currentColor" stroke="none" class="icon-fill-blue-primary"/>
</svg>
