<svg xmlns="http://www.w3.org/2000/svg" width="24" height="24" viewBox="0 0 24 24" stroke="currentColor" stroke-linecap="round" stroke-linejoin="round" fill="none">
      <path d="M17.5 18.5V5.496a1 1 0 0 0-1-1h-9a1 1 0 0 0-1 1V18.5a1 1 0 0 0 1 1h9a1 1 0 0 0 1-1Z" class="icon-stroke-gray-primary"/>
      <path d="M15 17.5H9a.5.5 0 0 1-.5-.5v-3a.5.5 0 0 1 .5-.5h6a.5.5 0 0 1 .5.5v3a.5.5 0 0 1-.5.5Zm0-7H9a.5.5 0 0 1-.5-.5V7a.5.5 0 0 1 .5-.5h6a.5.5 0 0 1 .5.5v3a.5.5 0 0 1-.5.5Z" class="icon-stroke-gray-primary"/>
</svg>
