<svg width="24" height="24" viewBox="0 0 24 24" xmlns="http://www.w3.org/2000/svg">
<path d="M20 1C21.6569 1 23 2.34315 23 4V20C23 21.6569 21.6569 23 20 23H4C2.34315 23 1 21.6569 1 20V4C1 2.34315 2.34315 1 4 1H20ZM15.2637 6C13.7479 6.00004 12.4352 6.63521 12.0029 7.21191C11.5653 6.63521 10.2521 6.00004 8.73633 6C6.86319 6 5.29924 6.95204 5 7.77734V17.3965C5 17.825 5.28818 18 5.6084 18C5.86459 18 6.0195 17.9205 6.16895 17.7988C6.51593 17.4602 7.38074 16.9414 8.73633 16.9414C10.0972 16.9414 11.0361 17.4501 11.3457 17.7676C11.4898 17.8893 11.6773 18 12.0029 18C12.323 17.9999 12.5049 17.8787 12.6543 17.7676C12.9853 17.466 13.9081 16.9414 15.2637 16.9414C16.6193 16.9414 17.4894 17.4655 17.8311 17.7988C17.9804 17.9205 18.1352 17.9999 18.3965 18C18.7114 18 19 17.8251 19 17.3965V7.77734C18.7008 6.95204 17.1368 6 15.2637 6ZM8.73633 6.87891C10.3265 6.87897 11.4203 7.66132 11.5273 8.06348V16.8623C10.8975 16.3492 9.86762 16.0635 8.73633 16.0635C7.61018 16.0635 6.58002 16.3494 5.9502 16.8838V8.06348C6.07321 7.65602 7.15135 6.87891 8.73633 6.87891ZM15.2637 6.87891C16.854 6.87891 17.9268 7.65603 18.0498 8.06348V16.8838C17.42 16.3494 16.3898 16.0635 15.2637 16.0635C14.1377 16.0635 13.1025 16.3493 12.4727 16.8623V8.06348C12.5797 7.66131 13.6735 6.87895 15.2637 6.87891Z" fill="#BC8C18"/>
</svg>
