<svg xmlns="http://www.w3.org/2000/svg" width="24" height="24" viewBox="0 0 24 24" fill="none"><path fill-rule="evenodd" clip-rule="evenodd" d="M4 1C2.34315 1 1 2.34315 1 4V20C1 21.6569 2.34315 23 4 23H20C21.6569 23 23 21.6569 23 20V4C23 2.34315 21.6569 1 20 1H4ZM15.2638 6C13.748 6 12.435 6.63492 12.0027 7.21164C11.565 6.63492 10.252 6 8.73618 6C6.86275 6 5.29889 6.95238 5 7.77778V17.3968C5 17.8254 5.28822 18 5.60846 18C5.86466 18 6.01944 17.9206 6.16889 17.7989C6.51582 17.4603 7.38048 16.9418 8.73618 16.9418C10.0972 16.9418 11.0366 17.4497 11.3462 17.7672C11.4903 17.8889 11.6771 18 12.0027 18C12.3229 18 12.5044 17.8783 12.6538 17.7672C12.9848 17.4656 13.9081 16.9418 15.2638 16.9418C16.6195 16.9418 17.4895 17.4656 17.8311 17.7989C17.9806 17.9206 18.1353 18 18.3969 18C18.7118 18 19 17.8254 19 17.3968V7.77778C18.7011 6.95238 17.1372 6 15.2638 6ZM5.95001 16.8837V8.06361C6.07277 7.65621 7.15093 6.87843 8.73614 6.87843C10.3267 6.87843 11.4208 7.6615 11.5276 8.06361V16.8626C10.8978 16.3493 9.86766 16.0636 8.73614 16.0636C7.60994 16.0636 6.57983 16.3493 5.95001 16.8837ZM18.0499 8.06361C17.9272 7.65621 16.8544 6.87843 15.2638 6.87843C13.6733 6.87843 12.5791 7.6615 12.4724 8.06361V16.8626C13.1022 16.3493 14.1376 16.0636 15.2638 16.0636C16.39 16.0636 17.4201 16.3493 18.0499 16.8837V8.06361Z" fill="#BC8C18"/></svg>