<svg xmlns="http://www.w3.org/2000/svg" width="22" height="22" viewBox="0 0 22 22" fill="none"><path fill-rule="evenodd" clip-rule="evenodd" d="M3 0C1.34315 0 0 1.34315 0 3V19C0 20.6569 1.34315 22 3 22H19C20.6569 22 22 20.6569 22 19V3C22 1.34315 20.6569 0 19 0H3ZM6.37166 11L11 15.7143L16.4272 10.1429L16.7988 10.5142C17.0671 10.7824 17.0671 11.2175 16.7988 11.486L11.4859 16.7987C11.2177 17.0671 10.7826 17.0671 10.5141 16.7987L5.20117 11.486C4.93294 11.2175 4.93294 10.7824 5.20117 10.5142L10.5141 5.20135C10.7826 4.93288 11.2177 4.93288 11.4859 5.20135L14.5 8.21531L10.7291 11.9859L9.87203 11.1288L12.8433 8.15775L11 6.28571L6.37166 11Z" fill="#5892B6"/></svg>