<svg xmlns="http://www.w3.org/2000/svg" width="22" height="22" viewBox="0 0 22 22" fill="none"><path fill-rule="evenodd" clip-rule="evenodd" d="M3 0C1.34315 0 0 1.34315 0 3V19C0 20.6569 1.34315 22 3 22H19C20.6569 22 22 20.6569 22 19V3C22 1.34315 20.6569 0 19 0H3ZM14.2638 5C12.748 5 11.435 5.63492 11.0027 6.21164C10.565 5.63492 9.252 5 7.73618 5C5.86275 5 4.29889 5.95238 4 6.77778V16.3968C4 16.8254 4.28822 17 4.60846 17C4.86466 17 5.01944 16.9206 5.16889 16.7989C5.51582 16.4603 6.38048 15.9418 7.73618 15.9418C9.09722 15.9418 10.0366 16.4497 10.3462 16.7672C10.4903 16.8889 10.6771 17 11.0027 17C11.3229 17 11.5044 16.8783 11.6538 16.7672C11.9848 16.4656 12.9081 15.9418 14.2638 15.9418C15.6195 15.9418 16.4895 16.4656 16.8311 16.7989C16.9806 16.9206 17.1353 17 17.3969 17C17.7118 17 18 16.8254 18 16.3968V6.77778C17.7011 5.95238 16.1372 5 14.2638 5ZM4.95001 15.8837V7.06361C5.07277 6.65621 6.15093 5.87843 7.73614 5.87843C9.32668 5.87843 10.4208 6.6615 10.5276 7.06361V15.8626C9.89778 15.3493 8.86766 15.0636 7.73614 15.0636C6.60994 15.0636 5.57983 15.3493 4.95001 15.8837ZM17.0499 7.06361C16.9272 6.65621 15.8544 5.87843 14.2638 5.87843C12.6733 5.87843 11.5791 6.6615 11.4724 7.06361V15.8626C12.1022 15.3493 13.1376 15.0636 14.2638 15.0636C15.39 15.0636 16.4201 15.3493 17.0499 15.8837V7.06361Z" fill="#B07408"/></svg>