<svg xmlns="http://www.w3.org/2000/svg" width="24" height="24" viewBox="0 0 24 24" fill="none"><path fill-rule="evenodd" clip-rule="evenodd" d="M4 1C2.34315 1 1 2.34315 1 4V20C1 21.6569 2.34315 23 4 23H20C21.6569 23 23 21.6569 23 20V4C23 2.34315 21.6569 1 20 1H4ZM14.7499 8.5L20.2531 11.5823V12.5358L14.7531 15V13.9043L18.9274 11.9833L14.7499 9.67542V8.5ZM12.6262 7.5H13.6262L11.3771 16.5H10.3771L12.6262 7.5ZM9.2531 8.5L3.75 11.5823V12.5358L9.25 15V13.9043L5.07567 11.9833L9.2531 9.67542V8.5Z" fill="#7C9A34"/></svg>