<svg xmlns="http://www.w3.org/2000/svg" width="25" height="24" viewBox="0 0 25 24" fill="none"><path fill-rule="evenodd" clip-rule="evenodd" d="M1.5 4C1.5 2.34315 2.84315 1 4.5 1H20.5C22.1569 1 23.5 2.34315 23.5 4V20C23.5 21.6569 22.1569 23 20.5 23H4.5C2.84315 23 1.5 21.6569 1.5 20V4ZM20.4523 7.74897V7.74817C20.4256 7.72981 20.3987 7.71247 20.3719 7.69519L20.3513 7.68188C19.8128 7.33699 19.2196 7.11012 18.5893 7.03103C17.4751 6.89113 16.4103 7.23056 15.5106 7.92168C14.8943 7.45795 14.1965 7.156 13.4453 7.06171C12.41 6.93181 11.4174 7.21642 10.5601 7.81245L10.5495 7.82011L10.5495 7.82011C10.5445 7.82374 10.5396 7.82735 10.5349 7.83046C10.5141 7.85206 10.5 7.88567 10.5 7.92342C10.5 7.98904 10.5394 8.04212 10.5894 8.04212C10.594 8.04212 10.5985 8.04118 10.6034 8.03985C10.6055 8.03958 10.6076 8.03838 10.6095 8.03785C11.0706 7.92475 11.5513 7.89274 12.0415 7.95423C13.4173 8.12667 14.6162 8.69056 15.4573 9.95625C15.5013 10.0169 15.54 10.0132 15.5846 9.95305C16.6426 8.32593 18.2652 7.68295 20.009 7.90154C20.1063 7.91408 20.2021 7.92995 20.2976 7.94889L20.3265 7.95483C20.3559 7.96094 20.3894 7.96791 20.4115 7.97116C20.469 7.97957 20.5 7.91822 20.5 7.85233C20.4995 7.80778 20.485 7.77044 20.4523 7.74897ZM19.4258 12.7749C19.429 12.7766 19.4324 12.7784 19.4362 12.7808C19.474 12.8046 19.5003 12.8562 19.5 12.9167C19.5 13.0004 19.4486 13.0681 19.3859 13.0681C19.3834 13.0681 19.2737 13.057 19.2217 13.0516C19.0412 13.035 18.8585 13.0258 18.6747 13.0258C16.1014 13.0258 13.7897 14.2795 12.3875 16.822C12.3766 16.8415 12.3607 16.8711 12.3471 16.8964C12.3327 16.923 12.321 16.9447 12.3208 16.9444C12.2997 16.9785 12.2685 17 12.2329 17C12.2042 17 12.1784 16.9863 12.1584 16.9628C12.1575 16.9616 12.1566 16.9605 12.1558 16.9593C12.1534 16.9562 12.1513 16.9533 12.1488 16.9509C10.7681 15.2289 8.93433 14.5842 6.87705 14.5842C6.1032 14.5842 5.35524 14.7369 4.65044 15.018C4.64616 15.0202 4.64224 15.0216 4.63776 15.0231L4.63654 15.0235C4.62921 15.0255 4.62161 15.0269 4.61419 15.0269C4.5511 15.0269 4.5 14.959 4.5 14.8755C4.5 14.8263 4.51769 14.7835 4.54393 14.7567C4.5454 14.7554 4.54681 14.754 4.54819 14.7527C4.55119 14.7498 4.55401 14.7471 4.55679 14.7448C5.78644 13.6439 7.26778 13.0011 8.86321 13.0011C9.98515 13.0011 11.0512 13.3196 12.0132 13.891C13.2735 12.7012 14.8151 12 16.4803 12C17.5223 12 18.5151 12.2756 19.4229 12.7734C19.4239 12.7739 19.4248 12.7744 19.4258 12.7749Z" fill="#3C6D88"/></svg>