<svg width="64" height="64" viewBox="0 0 64 64" xmlns="http://www.w3.org/2000/svg">
<g clip-path="url(#clip0_0_681)">
<path d="M4 0H2V37.9259V45.037V49.7778V56.8889V64H66V62H4V0Z"/>
<path d="M4.58581 51.9859H4H2H0V58H2H4H6V53.4035L17.4142 41.9624H21.6972L34 50.1835V53.9906H40V48.553L60.0547 32.0141H64V26H58V31.4376L37.9453 47.9765H34.3028L22 39.7553V35.9482H16V40.5448L4.58581 51.9859Z"/>
<path opacity="0.6" d="M64 11H58V15.0665L40.7283 29H35.5L24 22.5625V19H18V23.5858L4.58579 37H0V43H6V38.4142L19.4142 25H24V24.866L35.5 31.4374V35H41.5V30.9335L58.7717 17H64V11Z"/>
</g>
<defs>
<clipPath id="clip0_0_681">
<rect width="64" height="64" fill="white"/>
</clipPath>
</defs>
</svg>
