<svg width="64" height="64" viewBox="0 0 64 64" xmlns="http://www.w3.org/2000/svg">
<g clip-path="url(#clip0_0_460)">
<path opacity="0.6" d="M31.7444 17.3952L19.6568 30.666L21.6714 48.0202L26.3902 49.5166L16.6349 55.166L5.55463 26.5827L31.7444 6.16602L41.5546 20.4577L31.7444 17.3952Z"/>
<path opacity="0.4" d="M47.4177 56.166L22.9268 46.9761L20.7808 30.6192L31.9024 18.166L57.5546 26.3822L47.4177 56.166Z"/>
<path d="M33.0176 16.9355L58.6846 25.1494L63.375 23.6289L64 25.5488L59.2812 27.085L49.0791 56.6689L52.4004 61.2461L50.7676 62.4346L47.9336 58.54L22.8945 49.1504L13.2324 62.4336L11.5977 61.2471L21.0332 48.2441L18.9678 31.7246L0 25.5488L0.623047 23.6279L19.2363 29.6641L30.9805 16.8525L30.9902 1.56641L33.0088 1.56543L33.0176 16.9355ZM24.127 47.4551L45.7764 55.5732L31.999 36.6348L24.127 47.4551ZM33.6631 35.4258L47.6309 54.6738L56.875 27.8682L33.6631 35.4258ZM22.7686 45.8525L30.335 35.4258L21.0889 32.415L22.7686 45.8525ZM21.3477 30.3486L30.9707 33.4697L30.9785 19.8428L21.3477 30.3486ZM33.0283 33.4697L55.3945 26.2158L33.0186 19.0566L33.0283 33.4697Z"/>
</g>
<defs>
<clipPath id="clip0_0_460">
<rect width="64" height="64" fill="white"/>
</clipPath>
</defs>
</svg>
