<svg width="64" height="64" viewBox="0 0 64 64" xmlns="http://www.w3.org/2000/svg">
<path opacity="0.6" fill-rule="evenodd" clip-rule="evenodd" d="M15.6893 58.166L3 26.466L32.5387 4.16602L51 30.2112L39.5991 44.757L15.6893 58.166ZM32.0846 7.04394L48.4637 30.1516L38.2267 43.2124L16.7291 55.2686L5.46851 27.1375L32.0846 7.04394Z"/>
<path d="M33.0156 13.6826H35.0283V17.5791L54.3994 23.7783H59.2598V24.9619L63.375 23.6289L64 25.5488L59.2812 27.085L59.2598 27.1465V29.8359H58.333L49.9756 54.0684H51.1826V59.5674L52.4004 61.2461L50.7676 62.4346L49.0889 60.127H45.125V57.4873L24.9316 49.9141V50.0293H22.2549L13.2324 62.4336L11.5977 61.2471L19.7383 50.0293H18.874V43.9717H20.499L19.2354 33.875H16.8545V31.0361L0 25.5488L0.623047 23.6279L16.8545 28.8906V27.8174H20.9297L28.9707 19.0449V13.6826H30.9824L30.9902 1.56641L33.0088 1.56543L33.0156 13.6826ZM24.9316 46.3496V47.7568L45.125 55.3301V54.6777L31.999 36.6348L24.9316 46.3496ZM33.6631 35.4258L47.1904 54.0684H47.8398L56.1963 29.8359H53.2021V29.0635L33.6631 35.4258ZM22.9121 33.875H21.2715L22.5332 43.9717H24.1338L30.335 35.4258L22.9121 33.0078V33.875ZM22.9121 28.6426V30.8555L30.9707 33.4697L30.9785 19.8428L22.9121 28.6426ZM35.0283 19.7402H33.0186L33.0283 33.4697L53.2021 26.9268V25.5137L35.0283 19.6992V19.7402Z"/>
</svg>
