<svg width="64" height="64" viewBox="0 0 64 64" xmlns="http://www.w3.org/2000/svg">
<rect opacity="0.3" x="8" y="13" width="35" height="1" fill="#444444"/>
<path d="M40.605 36V29.2754H40.5835L38.5317 30.7524V29.7319L40.5942 28.2495H41.5396V36H40.605Z" fill="#444444"/>
<path d="M50.605 36V29.2754H50.5835L48.5317 30.7524V29.7319L50.5942 28.2495H51.5396V36H50.605Z" fill="#444444"/>
<path d="M25.605 53V46.2754H25.5835L23.5317 47.7524V46.7319L25.5942 45.2495H26.5396V53H25.605Z" fill="#444444"/>
<rect x="45" y="35" width="1" height="1" fill="#444444"/>
<rect x="30" y="52" width="1" height="1" fill="#444444"/>
<path d="M35.605 53V46.2754H35.5835L33.5317 47.7524V46.7319L35.5942 45.2495H36.5396V53H35.605Z" fill="#444444"/>
<path d="M45.605 53V46.2754H45.5835L43.5317 47.7524V46.7319L45.5942 45.2495H46.5396V53H45.605Z" fill="#444444"/>
<rect x="40" y="52" width="1" height="1" fill="#444444"/>
<path opacity="0.3" d="M8 31H32V32H8V31Z" fill="#444444"/>
<path opacity="0.3" d="M8 49H17V50H8V49Z" fill="#444444"/>
<path d="M54.605 18V11.2754H54.5835L52.5317 12.7524V11.7319L54.5942 10.2495H55.5396V18H54.605Z" fill="#444444"/>
<rect x="48" y="17" width="1" height="1" fill="#444444"/>
</svg>
