<svg width="64" height="64" viewBox="0 0 64 64" xmlns="http://www.w3.org/2000/svg">
<rect opacity="0.3" width="35" height="1" transform="matrix(-1 0 0 1 43 13)" fill="#444444"/>
<path opacity="0.3" d="M33 31H8V32H33V31Z" fill="#444444"/>
<path opacity="0.3" d="M27 49H8V50H27V49Z" fill="#444444"/>
<path d="M38.3447 53V47.4141H37.4102V53H38.3447ZM37.8774 46.4741C38.1943 46.4741 38.4575 46.2109 38.4575 45.894C38.4575 45.5718 38.1943 45.314 37.8774 45.314C37.5552 45.314 37.292 45.5718 37.292 45.894C37.292 46.2109 37.5552 46.4741 37.8774 46.4741ZM34.2305 49.9492C34.2305 52.4038 35.0469 53.7466 35.7559 54.6489H36.54C36.0674 54.1011 35.1812 52.3823 35.1812 49.9492C35.1812 47.5161 36.0728 45.792 36.54 45.2495H35.7559C35.0469 46.1519 34.2305 47.4946 34.2305 49.9492Z" fill="#444444"/>
<path d="M55.0732 18.0005H56.0078V10.25H55.0625L53 11.7324V12.7529L55.0518 11.2759H55.0732V18.0005Z" fill="#444444"/>
<path d="M48.6904 14.9497C48.6904 12.4951 49.5068 11.1523 50.2158 10.25H51C50.5327 10.7925 49.6411 12.5166 49.6411 14.9497C49.6411 17.3828 50.5273 19.1016 51 19.6494H50.2158C49.5068 18.7471 48.6904 17.4043 48.6904 14.9497Z" fill="#444444"/>
<path d="M46.0679 35.3018C45.3965 35.3018 44.9507 34.9526 44.9507 34.4209C44.9507 33.8945 45.3804 33.5615 46.1323 33.5132L47.6255 33.4219V33.8784C47.6255 34.6841 46.9487 35.3018 46.0679 35.3018ZM45.8584 36.0967C46.6104 36.0967 47.3193 35.6777 47.6523 35.0386H47.6738V36H48.5601V32.1382C48.5601 31.0264 47.7329 30.3174 46.4224 30.3174C45.1011 30.3174 44.2739 31.0586 44.2095 32.0254H45.1118C45.23 31.4775 45.6812 31.1392 46.4009 31.1392C47.1743 31.1392 47.6255 31.5474 47.6255 32.2295V32.6968L46.0249 32.7881C44.7358 32.8633 44 33.4648 44 34.4209C44 35.4253 44.7466 36.0967 45.8584 36.0967Z" fill="#444444"/>
<path d="M40.6904 32.9497C40.6904 30.4951 41.5068 29.1523 42.2158 28.25H43C42.5327 28.7925 41.6411 30.5166 41.6411 32.9497C41.6411 35.3828 42.5273 37.1016 43 37.6494H42.2158C41.5068 36.7471 40.6904 35.4043 40.6904 32.9497Z" fill="#444444"/>
</svg>
