<svg width="100" height="14" viewBox="0 0 100 14" xmlns="http://www.w3.org/2000/svg">
<g clip-path="url(#clip0_0_93)">
<path d="M20.0149 6.48201C19.959 5.79068 20.0611 5.0957 20.3134 4.44954C20.5658 3.80338 20.9618 3.22293 21.4717 2.75199C22.4021 1.92114 23.6137 1.47408 24.8615 1.50116C26.0997 1.47534 27.3009 1.92391 28.2183 2.75479C28.7177 3.23878 29.1043 3.82664 29.3506 4.47661C29.5969 5.12659 29.6969 5.82276 29.6435 6.51568C29.6972 7.20401 29.5972 7.89564 29.3507 8.54068C29.1042 9.18571 28.7175 9.76806 28.2183 10.2457C27.2979 11.0717 26.0988 11.5195 24.8615 11.4993C23.6157 11.5143 22.4085 11.0676 21.4731 10.2457C20.9648 9.76636 20.5701 9.1797 20.3178 8.52855C20.0655 7.8774 19.962 7.17821 20.0149 6.48201ZM22.1052 6.48201C22.0366 7.36424 22.2586 8.2447 22.7374 8.98927C23.0867 9.47357 23.5885 9.82682 24.1626 9.99245C24.2771 10.0259 24.3948 10.0468 24.5138 10.0549C24.6086 10.0549 24.7358 10.0865 24.8306 10.0865C24.9485 10.0904 25.0665 10.0798 25.1818 10.0549C25.3011 10.0496 25.4192 10.0286 25.533 9.99245C26.0978 9.82508 26.589 9.47144 26.9266 8.98927C27.3973 8.25268 27.6189 7.38464 27.5588 6.51288C27.6235 5.64069 27.4016 4.77122 26.9266 4.03648C26.589 3.55431 26.0978 3.20067 25.533 3.0333C25.4186 2.99986 25.3008 2.97892 25.1818 2.97086C25.0554 2.97086 24.9599 2.93929 24.8306 2.93929C24.724 2.93256 24.617 2.94323 24.5138 2.97086C24.3948 2.97892 24.2771 2.99985 24.1626 3.0333C23.5925 3.20713 23.093 3.55868 22.7374 4.03648C22.2389 4.74885 22.0144 5.61693 22.1052 6.48131V6.48201Z" fill="white"/>
<path d="M30.6865 1.59473H33.2855L36.7055 7.738L37.2119 9.05407H37.2436L37.2119 7.33042V1.59473H39.2068V11.3733H36.6079L33.1878 4.9796L32.6814 3.88241H32.6533L32.6849 5.60606V11.3733H30.6865V1.59473Z" fill="white"/>
<path d="M41.7405 1.59473H43.7669V9.7121H47.6934V11.3733H41.7405V1.59473Z" fill="white"/>
<path d="M46.6934 1.59473H49.005L51.0315 5.01117L51.3482 5.70077H51.3799L51.7311 5.01117L53.7877 1.59473H55.8781L52.3316 7.39285V11.3733H50.3368V7.36199L46.6934 1.59473Z" fill="white"/>
<path d="M56.365 6.48201C56.3091 5.79068 56.4112 5.0957 56.6635 4.44954C56.9159 3.80338 57.312 3.22292 57.8218 2.75199C58.7522 1.92114 59.9638 1.47408 61.2116 1.50116C62.4498 1.47534 63.651 1.92391 64.5684 2.75479C65.0678 3.23878 65.4544 3.82664 65.7007 4.47661C65.947 5.12659 66.047 5.82276 65.9936 6.51568C66.0473 7.204 65.9473 7.89564 65.7008 8.54068C65.4544 9.18571 65.0676 9.76806 64.5684 10.2457C63.648 11.0717 62.4489 11.5196 61.2116 11.4993C59.9649 11.5197 58.7558 11.0724 57.8232 10.2457C57.3208 9.76193 56.9301 9.17457 56.6782 8.52456C56.4264 7.87455 56.3195 7.17751 56.365 6.48201ZM58.4553 6.48201C58.3867 7.36424 58.6087 8.2447 59.0875 8.98927C59.4305 9.47981 59.9348 9.83478 60.5127 9.99245C60.6272 10.0259 60.7449 10.0468 60.8639 10.0549C60.9587 10.0549 61.0859 10.0865 61.1807 10.0865C61.2987 10.0918 61.4168 10.0812 61.5319 10.0549C61.6512 10.0496 61.7693 10.0286 61.8831 9.99245C62.4479 9.82508 62.9391 9.47144 63.2767 8.98927C63.7474 8.25265 63.969 7.38464 63.9089 6.51287C63.9737 5.64069 63.7517 4.77122 63.2767 4.03648C62.9391 3.55431 62.4479 3.20067 61.8831 3.0333C61.7687 2.99986 61.6509 2.97892 61.5319 2.97086C61.4055 2.97086 61.31 2.93929 61.1807 2.93929C61.0741 2.93256 60.9671 2.94322 60.8639 2.97086C60.7449 2.97892 60.6272 2.99985 60.5127 3.0333C59.9426 3.20713 59.4432 3.55868 59.0875 4.03648C58.6031 4.75524 58.3799 5.61814 58.4553 6.48131V6.48201Z" fill="white"/>
<path d="M67.373 1.59473H72.9151V3.22437H69.403V5.60957H72.7598V7.27078H69.403V11.3768H67.373V1.59473Z" fill="white"/>
<path d="M74.3171 1.59473H79.8592V3.22437H76.3471V5.60957H79.7039V7.27078H76.3471V11.3768H74.3171V1.59473Z" fill="white"/>
<path d="M81.1531 11.3733V1.59473H83.1795V11.3733H81.1531Z" fill="white"/>
<path d="M92.8107 1.81291V3.50569C92.4612 3.37915 92.1008 3.28522 91.7339 3.22508C91.3256 3.16022 90.9126 3.12878 90.4991 3.13108C90.0506 3.10176 89.6013 3.17391 89.1846 3.34214C88.768 3.51037 88.3947 3.77035 88.0926 4.10269C87.5101 4.76886 87.2043 5.63211 87.2378 6.51595C87.2027 7.3694 87.4838 8.20583 88.0273 8.86536C88.3101 9.18768 88.6618 9.44236 89.0565 9.61054C89.4512 9.77873 89.8787 9.85612 90.3073 9.83698C90.6585 9.83698 91.0041 9.80541 91.4157 9.77454C91.8502 9.71442 92.2752 9.59865 92.6801 9.43009L92.8065 11.0913C92.724 11.1278 92.6393 11.1592 92.5529 11.1853C92.4265 11.2169 92.2994 11.2478 92.1413 11.2793C91.8877 11.3418 91.571 11.3733 91.1909 11.4358C90.8109 11.4673 90.4309 11.4982 90.0193 11.4982H89.7025C88.5514 11.4207 87.4543 10.9819 86.5677 10.2446C86.0695 9.78619 85.6823 9.2206 85.4354 8.59065C85.1885 7.9607 85.0883 7.28289 85.1425 6.60855C85.1031 5.92429 85.2067 5.23933 85.4466 4.59719C85.6865 3.95505 86.0575 3.36977 86.5361 2.87853C87.5603 1.96535 88.9038 1.49245 90.275 1.56246C90.6866 1.56246 91.0666 1.56246 91.3834 1.59403C91.7346 1.6256 92.0486 1.68804 92.397 1.75047C92.4602 1.78204 92.555 1.78204 92.619 1.81291C92.6482 1.79755 92.6807 1.78952 92.7138 1.78952C92.7468 1.78952 92.7794 1.79755 92.8086 1.81291H92.8107Z" fill="white"/>
<path d="M94.1096 1.59473H100V3.13037H96.1045V5.57519H99.6516V7.07997H96.1045V9.83768H99.9993V11.3733H94.1096V1.59473Z" fill="white"/>
<path fill-rule="evenodd" clip-rule="evenodd" d="M6.12556 13.8276L0.367848 10.9426C-0.122616 10.6907 -0.122616 10.3016 0.367848 10.0729L2.37233 9.06738L6.10392 10.944C6.3808 11.0687 6.67805 11.1329 6.9783 11.1329C7.27856 11.1329 7.5758 11.0687 7.85268 10.944L11.5849 9.06738L13.5894 10.0743C14.0799 10.3262 14.0799 10.7154 13.5894 10.944L7.8317 13.829C7.28337 14.0576 6.6752 14.0576 6.12687 13.829L6.12556 13.8276Z" fill="white" fill-opacity="0.5"/>
<path fill-rule="evenodd" clip-rule="evenodd" d="M6.12556 10.2799L0.367848 7.39489C-0.122616 7.14298 -0.122616 6.75385 0.367848 6.52516L2.32971 5.54004L6.12556 7.43992C6.40244 7.56457 6.69968 7.62877 6.99994 7.62877C7.30019 7.62877 7.59744 7.56457 7.87432 7.43992L11.6702 5.54004L13.632 6.52516C14.1225 6.77707 14.1225 7.1662 13.632 7.39489L7.87432 10.2799C7.59744 10.4045 7.30019 10.4687 6.99994 10.4687C6.69968 10.4687 6.40244 10.4045 6.12556 10.2799Z" fill="white" fill-opacity="0.75"/>
<path fill-rule="evenodd" clip-rule="evenodd" d="M6.12556 6.82577L0.367848 3.94217C-0.122616 3.69026 -0.122616 3.30114 0.367848 3.07245L6.12556 0.188852C6.40244 0.0642006 6.69969 0 6.99994 0C7.3002 0 7.59744 0.0642006 7.87432 0.188852L13.632 3.07386C14.1225 3.32577 14.1225 3.71489 13.632 3.94358L7.87432 6.82858C7.31091 7.0575 6.68897 7.0575 6.12556 6.82858V6.82577Z" fill="white"/>
</g>
<defs>
<clipPath id="clip0_0_93">
<rect width="100" height="14.0004" fill="white"/>
</clipPath>
</defs>
</svg>
