<svg width="109" height="20" viewBox="0 0 109 20" fill="none" xmlns="http://www.w3.org/2000/svg">
<path d="M31.6635 4.75171C29.1195 4.75171 26.6197 6.2365 26.6197 9.86282C26.6197 13.4891 29.1195 14.9739 31.6635 14.9739C34.2075 14.9739 36.7073 13.4891 36.7073 9.86282C36.7073 6.2365 34.2075 4.75171 31.6635 4.75171ZM31.6635 6.17939C32.4429 6.17939 34.5016 6.47921 34.5016 9.86282C34.5016 13.2464 32.4429 13.5462 31.6635 13.5462C30.8841 13.5462 28.8254 13.2464 28.8254 9.86282C28.8254 6.47921 30.8841 6.17939 31.6635 6.17939Z" fill="white"/>
<path d="M38.4038 4.86592V14.8597H40.4919V8.97766L40.4478 7.20733H40.4919L41.0066 8.32092L44.5946 14.8597H47.3004V4.86592H45.2122V10.748L45.2564 12.5183H45.2122L44.6682 11.162L41.1095 4.86592H38.4038Z" fill="white"/>
<path d="M49.3608 4.86592V14.8597H55.5369V13.175H51.4489V4.86592H49.3608Z" fill="white"/>
<path d="M53.7723 4.86592L57.5662 10.7765V14.8597H59.6543V10.8051L63.36 4.86592H61.1542L59.022 8.37803L58.6691 9.06332H58.625L58.3015 8.37803L56.1839 4.86592H53.7723Z" fill="white"/>
<path d="M68.2251 4.75171C65.6811 4.75171 63.1812 6.2365 63.1812 9.86282C63.1812 13.4891 65.6811 14.9739 68.2251 14.9739C70.769 14.9739 73.2689 13.4891 73.2689 9.86282C73.2689 6.2365 70.769 4.75171 68.2251 4.75171ZM68.2251 6.17939C69.0044 6.17939 71.0631 6.47921 71.0631 9.86282C71.0631 13.2464 69.0044 13.5462 68.2251 13.5462C67.4457 13.5462 65.387 13.2464 65.387 9.86282C65.387 6.47921 67.4457 6.17939 68.2251 6.17939Z" fill="white"/>
<path d="M74.9654 4.86592V14.8597H77.0535V10.6195H80.5533V8.97766H77.0535V6.55059H80.7298V4.86592H74.9654Z" fill="white"/>
<path d="M82.203 4.86592V14.8597H84.2911V10.6195H87.7909V8.97766H84.2911V6.55059H87.9674V4.86592H82.203Z" fill="white"/>
<path d="M89.4407 14.8597H91.5288V4.86592H89.4407V14.8597Z" fill="white"/>
<path d="M101.105 12.8467C100.59 13.0751 99.8699 13.2893 98.9582 13.2893C97.1053 13.2893 95.429 12.3042 95.429 9.89137C95.429 7.84978 96.7965 6.43638 99.1052 6.43638C99.8846 6.43638 100.546 6.57914 101.149 6.80757L101.237 5.09435C100.458 4.85165 99.7669 4.75171 98.9582 4.75171C95.7231 4.75171 93.2232 6.47921 93.2232 9.91993C93.2232 13.5605 96.0172 14.9739 98.5758 14.9739C99.3993 14.9739 100.326 14.8454 101.237 14.5456L101.105 12.8467Z" fill="white"/>
<path d="M102.853 4.86592V14.8597H109V13.0894H104.941V10.5338H108.632V8.89199H104.941V6.63625H109V4.86592H102.853Z" fill="white"/>
<path opacity="0.5" fill-rule="evenodd" clip-rule="evenodd" d="M9.38088 19.7549L0.563343 15.6374C-0.187781 15.2779 -0.187781 14.7224 0.563343 14.3956L3.63315 12.9578L9.34822 15.6374C10.0993 15.9969 11.3077 15.9969 12.0261 15.6374L17.7412 12.9578L20.811 14.3956C21.5621 14.7551 21.5621 15.3106 20.811 15.6374L11.9935 19.7549C11.3077 20.0817 10.0993 20.0817 9.38088 19.7549Z" fill="white"/>
<path opacity="0.75" fill-rule="evenodd" clip-rule="evenodd" d="M9.3523 14.6595L0.561626 10.5373C-0.187209 10.1774 -0.187209 9.62119 0.561626 9.29402L3.55697 7.88721L9.3523 10.6027C10.1011 10.9626 11.3058 10.9626 12.0221 10.6027L17.8174 7.88721L20.8127 9.29402C21.5616 9.6539 21.5616 10.2101 20.8127 10.5373L12.0221 14.6595C11.2732 15.0194 10.0686 15.0194 9.3523 14.6595Z" fill="white"/>
<path fill-rule="evenodd" clip-rule="evenodd" d="M9.3523 9.61731L0.561626 5.55434C-0.187209 5.19964 -0.187209 4.65146 0.561626 4.329L9.3523 0.266028C10.1011 -0.088676 11.3058 -0.088676 12.0221 0.266028L20.8127 4.329C21.5616 4.6837 21.5616 5.23188 20.8127 5.55434L12.0221 9.61731C11.2732 9.93977 10.0686 9.93977 9.3523 9.61731Z" fill="white"/>
</svg>
