<svg width="100" height="14" viewBox="0 0 100 14" fill="none" xmlns="http://www.w3.org/2000/svg">
    <path d="M20.313 4.45a4.574 4.574 0 0 0-.298 2.032 4.682 4.682 0 0 0 1.458 3.764 5.042 5.042 0 0 0 3.389 1.253 4.906 4.906 0 0 0 3.356-1.253 4.664 4.664 0 0 0 1.425-3.73 4.729 4.729 0 0 0-1.425-3.761A4.85 4.85 0 0 0 24.861 1.5a4.929 4.929 0 0 0-3.39 1.251 4.578 4.578 0 0 0-1.158 1.698Zm2.424 4.54a4.054 4.054 0 0 1-.632-2.508 3.609 3.609 0 0 1 .632-2.446 2.8 2.8 0 0 1 1.426-1.003 1.65 1.65 0 0 1 .35-.062.985.985 0 0 1 .318-.032 1.2 1.2 0 0 1 .177.016c.056.008.11.016.174.016.119.008.237.029.351.062a2.604 2.604 0 0 1 1.394 1.003c.475.735.697 1.605.632 2.477a4.08 4.08 0 0 1-.632 2.476 2.604 2.604 0 0 1-1.394 1.003 1.36 1.36 0 0 1-.351.063 1.439 1.439 0 0 1-.51.016 1.196 1.196 0 0 0-.158-.016 1.652 1.652 0 0 1-.351-.063 2.67 2.67 0 0 1-1.426-1.003Zm10.548-7.395h-2.598v9.778h1.998V5.606l-.032-1.724h.028l.507 1.098 3.42 6.393h2.599V1.595h-1.995V7.33l.032 1.724h-.032l-.507-1.316-3.42-6.143Zm8.455 0h2.027v8.117h3.926v1.661H41.74V1.595Zm7.265 0h-2.312l3.644 5.767v4.011h1.995v-3.98l3.546-5.798h-2.09L51.73 5.01l-.351.69h-.032l-.316-.69-2.027-3.416Zm7.359 4.887a4.573 4.573 0 0 1 1.457-3.73 4.93 4.93 0 0 1 3.39-1.25 4.85 4.85 0 0 1 3.357 1.253 4.734 4.734 0 0 1 1.425 3.76 4.66 4.66 0 0 1-1.425 3.73 4.906 4.906 0 0 1-3.357 1.254 4.985 4.985 0 0 1-3.388-1.253 4.794 4.794 0 0 1-1.459-3.764Zm2.09 0a4.054 4.054 0 0 0 .633 2.507c.343.49.847.846 1.425 1.003.115.034.233.055.352.063.047 0 .102.008.158.016a1.312 1.312 0 0 0 .51-.016 1.36 1.36 0 0 0 .35-.063 2.605 2.605 0 0 0 1.394-1.003 4.08 4.08 0 0 0 .632-2.476 4.014 4.014 0 0 0-.632-2.477 2.605 2.605 0 0 0-1.393-1.003 1.65 1.65 0 0 0-.352-.062 1.17 1.17 0 0 1-.173-.016 1.22 1.22 0 0 0-.178-.016.985.985 0 0 0-.316.032 1.649 1.649 0 0 0-.352.062 2.79 2.79 0 0 0-1.425 1.003 3.787 3.787 0 0 0-.632 2.446Zm14.461-4.887h-5.542v9.782h2.03V7.27h3.357V5.61h-3.357V3.224h3.512v-1.63Zm1.402 0h5.542v1.63h-3.512V5.61h3.357v1.66h-3.357v4.107h-2.03V1.595Zm6.836 0v9.778h2.027V1.595h-2.027Zm11.657.218v1.692c-.35-.126-.71-.22-1.076-.28a7.601 7.601 0 0 0-1.235-.094 2.99 2.99 0 0 0-2.407.971 3.467 3.467 0 0 0-.855 2.414 3.47 3.47 0 0 0 .79 2.349 2.861 2.861 0 0 0 2.28.972c.297 0 .59-.023.923-.049l.185-.014c.435-.06.86-.176 1.265-.344l.126 1.66a2.16 2.16 0 0 1-.253.095 8.414 8.414 0 0 1-.412.094c-.164.04-.355.068-.572.1-.118.016-.245.034-.378.056-.38.032-.76.063-1.172.063h-.317a5.478 5.478 0 0 1-3.135-1.254 4.458 4.458 0 0 1-1.425-3.636 4.936 4.936 0 0 1 1.394-3.73 5.219 5.219 0 0 1 3.739-1.316c.411 0 .791 0 1.108.032.301.027.575.077.867.13l.147.026c.032.016.072.024.112.032.039.008.078.015.11.03a.204.204 0 0 1 .19 0h.001Zm7.19-.218h-5.89v9.778H100V9.838h-3.896V7.08h3.547V5.575h-3.547V3.13H100V1.595Z" fill="#333"/>
    <path d="M6.126 13.827.368 10.942c-.49-.252-.49-.64 0-.87l2.004-1.005 3.732 1.877a2.127 2.127 0 0 0 1.749 0l3.732-1.877 2.004 1.007c.49.252.49.64 0 .87l-5.757 2.885a2.206 2.206 0 0 1-1.705 0l-.001-.002Z" fill="#FF6F3D"/>
    <path d="M6.126 10.28.368 7.395c-.49-.252-.49-.64 0-.87L2.33 5.54l3.796 1.9a2.128 2.128 0 0 0 1.748 0l3.796-1.9 1.962.986c.49.251.49.64 0 .87L7.874 10.28a2.129 2.129 0 0 1-1.748 0Z" fill="#95C038"/>
    <path d="M6.126 6.826.368 3.942c-.49-.252-.49-.64 0-.87L6.126.19a2.128 2.128 0 0 1 1.748 0l5.758 2.885c.49.252.49.64 0 .87L7.874 6.829a2.312 2.312 0 0 1-1.748 0v-.003Z" fill="#5DC0E8"/>
</svg>
