<svg width="109" height="20" viewBox="0 0 109 20" fill="none" xmlns="http://www.w3.org/2000/svg">
<path fill-rule="evenodd" clip-rule="evenodd" d="M9.33433 19.7549L0.560547 15.6374C-0.186849 15.2779 -0.186849 14.7224 0.560547 14.3956L3.61512 12.9578L9.30183 15.6374C10.0492 15.9969 11.2516 15.9969 11.9665 15.6374L17.6532 12.9578L20.7077 14.3956C21.4551 14.7551 21.4551 15.3106 20.7077 15.6374L11.934 19.7549C11.2516 20.0817 10.0492 20.0817 9.33433 19.7549Z" fill="#FF6F3D"/>
<path fill-rule="evenodd" clip-rule="evenodd" d="M9.30589 14.6595L0.558839 10.5372C-0.18628 10.1774 -0.18628 9.62118 0.558839 9.29402L3.53932 7.88721L9.30589 10.6027C10.051 10.9626 11.2497 10.9626 11.9624 10.6027L17.729 7.88721L20.7095 9.29402C21.4546 9.6539 21.4546 10.2101 20.7095 10.5372L11.9624 14.6595C11.2173 15.0194 10.0186 15.0194 9.30589 14.6595Z" fill="#95C038"/>
<path fill-rule="evenodd" clip-rule="evenodd" d="M9.30589 9.6173L0.558839 5.55433C-0.18628 5.19963 -0.18628 4.65145 0.558839 4.32899L9.30589 0.266028C10.051 -0.0886759 11.2497 -0.0886759 11.9624 0.266028L20.7095 4.32899C21.4546 4.6837 21.4546 5.23188 20.7095 5.55433L11.9624 9.6173C11.2173 9.93976 10.0186 9.93976 9.30589 9.6173Z" fill="#5DC0E8"/>
<path d="M31.6042 4.88892C29.0728 4.88892 26.5854 6.37371 26.5854 10C26.5854 13.6263 29.0728 15.1111 31.6042 15.1111C34.1355 15.1111 36.623 13.6263 36.623 10C36.623 6.37371 34.1355 4.88892 31.6042 4.88892ZM31.6042 6.3166C32.3797 6.3166 34.4282 6.61641 34.4282 10C34.4282 13.3836 32.3797 13.6834 31.6042 13.6834C30.8287 13.6834 28.7802 13.3836 28.7802 10C28.7802 6.61641 30.8287 6.3166 31.6042 6.3166Z" fill="#333333"/>
<path d="M38.311 5.00313V14.9969H40.3888V9.11486L40.3449 7.34453H40.3888L40.9009 8.45812L44.4711 14.9969H47.1634V5.00313H45.0857V10.8852L45.1296 12.6555H45.0857L44.5443 11.2992L41.0033 5.00313H38.311Z" fill="#333333"/>
<path d="M49.2136 5.00313V14.9969H55.3591V13.3122H51.2914V5.00313H49.2136Z" fill="#333333"/>
<path d="M53.6033 5.00313L57.3783 10.9137V14.9969H59.4561V10.9423L63.1434 5.00313H60.9486L58.8269 8.51523L58.4757 9.20052H58.4319L58.1099 8.51523L56.0029 5.00313H53.6033Z" fill="#333333"/>
<path d="M67.9843 4.88892C65.453 4.88892 62.9655 6.37371 62.9655 10C62.9655 13.6263 65.453 15.1111 67.9843 15.1111C70.5157 15.1111 73.0031 13.6263 73.0031 10C73.0031 6.37371 70.5157 4.88892 67.9843 4.88892ZM67.9843 6.3166C68.7598 6.3166 70.8083 6.61641 70.8083 10C70.8083 13.3836 68.7598 13.6834 67.9843 13.6834C67.2088 13.6834 65.1603 13.3836 65.1603 10C65.1603 6.61641 67.2088 6.3166 67.9843 6.3166Z" fill="#333333"/>
<path d="M74.6912 5.00313V14.9969H76.7689V10.7567H80.2514V9.11486H76.7689V6.6878H80.427V5.00313H74.6912Z" fill="#333333"/>
<path d="M81.8929 5.00313V14.9969H83.9707V10.7567H87.4531V9.11486H83.9707V6.6878H87.6287V5.00313H81.8929Z" fill="#333333"/>
<path d="M89.0946 14.9969H91.1724V5.00313H89.0946V14.9969Z" fill="#333333"/>
<path d="M100.701 12.9839C100.189 13.2123 99.4721 13.4265 98.5649 13.4265C96.7213 13.4265 95.0532 12.4414 95.0532 10.0286C95.0532 7.98699 96.414 6.57358 98.7112 6.57358C99.4867 6.57358 100.145 6.71635 100.745 6.94478L100.833 5.23156C100.057 4.98885 99.3697 4.88892 98.5649 4.88892C95.3458 4.88892 92.8584 6.61641 92.8584 10.0571C92.8584 13.6977 95.6385 15.1111 98.1845 15.1111C99.0039 15.1111 99.9257 14.9826 100.833 14.6828L100.701 12.9839Z" fill="#333333"/>
<path d="M102.441 5.00313V14.9969H108.557V13.2266H104.518V10.671H108.191V9.0292H104.518V6.77346H108.557V5.00313H102.441Z" fill="#333333"/>
</svg>
