<svg width="80" height="100" viewBox="0 0 80 100" fill="none" xmlns="http://www.w3.org/2000/svg">
<g clip-path="url(#clip0_2964_22035)">
<path d="M75 19V92.6667C75 93.2855 74.7542 93.879 74.3166 94.3166C73.879 94.7542 73.2855 95 72.6667 95H7.33333C6.71449 95 6.121 94.7542 5.68342 94.3166C5.24583 93.879 5 93.2855 5 92.6667V7.33333C5 6.71449 5.24583 6.121 5.68342 5.68342C6.121 5.24583 6.71449 5 7.33333 5H61L75 19Z" fill="#214479"/>
<path opacity="0.2" d="M75 19H63.3333C62.7145 19 62.121 18.7542 61.6834 18.3166C61.2458 17.879 61 17.2855 61 16.6667V5L75 19Z" fill="black"/>
<path d="M31.4922 82.6348C31.4922 83.5996 31.3066 84.4062 30.9355 85.0547C30.5684 85.6992 30.0352 86.1855 29.3359 86.5137C28.6367 86.8379 27.7949 87 26.8105 87H24.3848V78.4336H27.0742C27.9727 78.4336 28.752 78.5938 29.4121 78.9141C30.0723 79.2305 30.584 79.7012 30.9473 80.3262C31.3105 80.9473 31.4922 81.7168 31.4922 82.6348ZM29.6055 82.6816C29.6055 82.0488 29.5117 81.5293 29.3242 81.123C29.1406 80.7129 28.8672 80.4102 28.5039 80.2148C28.1445 80.0195 27.6992 79.9219 27.168 79.9219H26.2012V85.5H26.9805C27.8672 85.5 28.5254 85.2637 28.9551 84.791C29.3887 84.3184 29.6055 83.6152 29.6055 82.6816ZM41.043 82.7051C41.043 83.3652 40.9609 83.9668 40.7969 84.5098C40.6328 85.0488 40.3828 85.5137 40.0469 85.9043C39.7148 86.2949 39.293 86.5957 38.7812 86.8066C38.2695 87.0137 37.6641 87.1172 36.9648 87.1172C36.2656 87.1172 35.6602 87.0137 35.1484 86.8066C34.6367 86.5957 34.2129 86.2949 33.877 85.9043C33.5449 85.5137 33.2969 85.0469 33.1328 84.5039C32.9688 83.9609 32.8867 83.3574 32.8867 82.6934C32.8867 81.8066 33.0312 81.0352 33.3203 80.3789C33.6133 79.7188 34.0625 79.207 34.668 78.8438C35.2734 78.4805 36.043 78.2988 36.9766 78.2988C37.9062 78.2988 38.6699 78.4805 39.2676 78.8438C39.8691 79.207 40.3145 79.7188 40.6035 80.3789C40.8965 81.0391 41.043 81.8145 41.043 82.7051ZM34.791 82.7051C34.791 83.3027 34.8652 83.8184 35.0137 84.252C35.166 84.6816 35.4023 85.0137 35.7227 85.248C36.043 85.4785 36.457 85.5938 36.9648 85.5938C37.4805 85.5938 37.8984 85.4785 38.2188 85.248C38.5391 85.0137 38.7715 84.6816 38.916 84.252C39.0645 83.8184 39.1387 83.3027 39.1387 82.7051C39.1387 81.8066 38.9707 81.0996 38.6348 80.584C38.2988 80.0684 37.7461 79.8105 36.9766 79.8105C36.4648 79.8105 36.0469 79.9277 35.7227 80.1621C35.4023 80.3926 35.166 80.7246 35.0137 81.1582C34.8652 81.5879 34.791 82.1035 34.791 82.7051ZM46.123 87H44.3066V79.9453H41.9805V78.4336H48.4492V79.9453H46.123V87ZM56.6934 87H54.6191L52.627 83.7598L50.6348 87H48.6895L51.5312 82.582L48.8711 78.4336H50.875L52.7207 81.5156L54.5312 78.4336H56.4883L53.7988 82.6816L56.6934 87Z" fill="white"/>
<path d="M51.8009 36L47.2398 56.6471L42.1719 36H40H37.8281L32.7602 56.6471L28.1991 36H24L30.1538 62H34.7873L40 40.6647L45.2127 62H49.8462L56 36H51.8009Z" fill="white"/>
<path fill-rule="evenodd" clip-rule="evenodd" d="M12 10C10.8954 10 10 10.8954 10 12V21C10 22.1046 10.8954 23 12 23H21C22.1046 23 23 22.1046 23 21V12C23 10.8954 22.1046 10 21 10H12ZM17.2129 20V14.0381H19.4004V12.8906H17.2129H15.7529H13.5996V14.0381H15.7529V20H17.2129Z" fill="white"/>
</g>
<defs>
<clipPath id="clip0_2964_22035">
<rect width="80" height="100" fill="white"/>
</clipPath>
</defs>
</svg>
