<svg width="80" height="100" viewBox="0 0 80 100" fill="none" xmlns="http://www.w3.org/2000/svg">
<g clip-path="url(#clip0_2964_22040)">
<path d="M75 19V92.6667C75 93.2855 74.7542 93.879 74.3166 94.3166C73.879 94.7542 73.2855 95 72.6667 95H7.33333C6.71449 95 6.121 94.7542 5.68342 94.3166C5.24583 93.879 5 93.2855 5 92.6667V7.33333C5 6.71449 5.24583 6.121 5.68342 5.68342C6.121 5.24583 6.71449 5 7.33333 5H61L75 19Z" fill="#7371D8"/>
<path opacity="0.2" d="M75 19H63.3333C62.7145 19 62.121 18.7542 61.6834 18.3166C61.2458 17.879 61 17.2855 61 16.6667V5L75 19Z" fill="black"/>
<path d="M30.0801 89.5195C29.8457 89.5195 29.6406 89.5059 29.4648 89.4785C29.2852 89.4551 29.1328 89.4258 29.0078 89.3906V87.8789C29.1328 87.9062 29.2676 87.9316 29.4121 87.9551C29.5527 87.9824 29.7031 87.9961 29.8633 87.9961C30.0742 87.9961 30.2637 87.9551 30.4316 87.873C30.5996 87.7949 30.7324 87.6445 30.8301 87.4219C30.9277 87.1992 30.9766 86.8789 30.9766 86.4609V78.4336H32.793V86.4492C32.793 87.1836 32.6777 87.7754 32.4473 88.2246C32.2207 88.6777 31.9023 89.0059 31.4922 89.209C31.0859 89.416 30.6152 89.5195 30.0801 89.5195ZM37.6855 78.4336C38.791 78.4336 39.5977 78.6719 40.1055 79.1484C40.6133 79.6211 40.8672 80.2734 40.8672 81.1055C40.8672 81.4805 40.8105 81.8398 40.6973 82.1836C40.584 82.5234 40.3984 82.8262 40.1406 83.0918C39.8867 83.3574 39.5469 83.5684 39.1211 83.7246C38.6953 83.877 38.1699 83.9531 37.5449 83.9531H36.7656V87H34.9492V78.4336H37.6855ZM37.5918 79.9219H36.7656V82.4648H37.3633C37.7031 82.4648 37.998 82.4199 38.248 82.3301C38.498 82.2402 38.6914 82.0996 38.8281 81.9082C38.9648 81.7168 39.0332 81.4707 39.0332 81.1699C39.0332 80.748 38.916 80.4355 38.6816 80.2324C38.4473 80.0254 38.084 79.9219 37.5918 79.9219ZM45.7363 82.1895H49.1348V86.6309C48.6855 86.7793 48.2188 86.8984 47.7344 86.9883C47.25 87.0742 46.7012 87.1172 46.0879 87.1172C45.2363 87.1172 44.5137 86.9492 43.9199 86.6133C43.3262 86.2773 42.875 85.7812 42.5664 85.125C42.2578 84.4688 42.1035 83.6621 42.1035 82.7051C42.1035 81.8066 42.2754 81.0293 42.6191 80.373C42.9668 79.7168 43.4727 79.209 44.1367 78.8496C44.8047 78.4902 45.6191 78.3105 46.5801 78.3105C47.0332 78.3105 47.4805 78.3594 47.9219 78.457C48.3633 78.5547 48.7637 78.6816 49.123 78.8379L48.5195 80.291C48.2578 80.1582 47.959 80.0469 47.623 79.957C47.2871 79.8672 46.9355 79.8223 46.5684 79.8223C46.041 79.8223 45.582 79.9434 45.1914 80.1855C44.8047 80.4277 44.5039 80.7676 44.2891 81.2051C44.0781 81.6387 43.9727 82.1504 43.9727 82.7402C43.9727 83.2988 44.0488 83.7949 44.2012 84.2285C44.3535 84.6582 44.5938 84.9961 44.9219 85.2422C45.25 85.4844 45.6777 85.6055 46.2051 85.6055C46.4629 85.6055 46.6797 85.5938 46.8555 85.5703C47.0352 85.543 47.2031 85.5156 47.3594 85.4883V83.7012H45.7363V82.1895Z" fill="white"/>
<mask id="path-4-inside-1_2964_22040" fill="white">
<path fill-rule="evenodd" clip-rule="evenodd" d="M25.3677 44.4118C27.6906 44.4118 29.5736 42.5287 29.5736 40.2059C29.5736 37.883 27.6906 36 25.3677 36C23.0449 36 21.1619 37.883 21.1619 40.2059C21.1619 42.5287 23.0449 44.4118 25.3677 44.4118ZM44.103 39.0588L58.6325 62H21.1619L31.4854 45.1765L35.7879 52.188L44.103 39.0588Z"/>
</mask>
<path fill-rule="evenodd" clip-rule="evenodd" d="M25.3677 44.4118C27.6906 44.4118 29.5736 42.5287 29.5736 40.2059C29.5736 37.883 27.6906 36 25.3677 36C23.0449 36 21.1619 37.883 21.1619 40.2059C21.1619 42.5287 23.0449 44.4118 25.3677 44.4118ZM44.103 39.0588L58.6325 62H21.1619L31.4854 45.1765L35.7879 52.188L44.103 39.0588Z" fill="white"/>
<path d="M58.6325 62V64H62.2665L60.3221 60.9299L58.6325 62ZM44.103 39.0588L45.7927 37.9887L44.103 35.3208L42.4134 37.9887L44.103 39.0588ZM21.1619 62L19.4572 60.9539L17.5881 64H21.1619V62ZM31.4854 45.1765L33.19 44.1304L31.4854 41.3525L29.7807 44.1304L31.4854 45.1765ZM35.7879 52.188L34.0833 53.234L35.7611 55.9682L37.4775 53.2581L35.7879 52.188ZM27.5736 40.2059C27.5736 41.4242 26.586 42.4118 25.3677 42.4118V46.4118C28.7952 46.4118 31.5736 43.6333 31.5736 40.2059H27.5736ZM25.3677 38C26.586 38 27.5736 38.9876 27.5736 40.2059H31.5736C31.5736 36.7785 28.7952 34 25.3677 34V38ZM23.1619 40.2059C23.1619 38.9876 24.1495 38 25.3677 38V34C21.9403 34 19.1619 36.7785 19.1619 40.2059H23.1619ZM25.3677 42.4118C24.1495 42.4118 23.1619 41.4242 23.1619 40.2059H19.1619C19.1619 43.6333 21.9403 46.4118 25.3677 46.4118V42.4118ZM60.3221 60.9299L45.7927 37.9887L42.4134 40.1289L56.9428 63.0701L60.3221 60.9299ZM21.1619 64H58.6325V60H21.1619V64ZM29.7807 44.1304L19.4572 60.9539L22.8665 63.046L33.19 46.2225L29.7807 44.1304ZM37.4926 51.1419L33.19 44.1304L29.7807 46.2225L34.0833 53.234L37.4926 51.1419ZM42.4134 37.9887L34.0983 51.1179L37.4775 53.2581L45.7927 40.1289L42.4134 37.9887Z" fill="white" mask="url(#path-4-inside-1_2964_22040)"/>
</g>
<defs>
<clipPath id="clip0_2964_22040">
<rect width="80" height="100" fill="white"/>
</clipPath>
</defs>
</svg>
