<svg width="80" height="100" viewBox="0 0 80 100" fill="none" xmlns="http://www.w3.org/2000/svg">
    <path d="M75 19v73.667A2.333 2.333 0 0 1 72.667 95H7.333A2.333 2.333 0 0 1 5 92.667V7.333A2.333 2.333 0 0 1 7.333 5H61z" fill="#3c6d88"/>
    <path opacity=".2" d="M75 19H63.333A2.333 2.333 0 0 1 61 16.667V5z" fill="#000"/>
    <path d="M49.404 82.635q0 1.447-.556 2.42a3.5 3.5 0 0 1-1.6 1.459q-1.05.486-2.525.486h-2.426v-8.566h2.69q1.347 0 2.337.48.99.475 1.535 1.412.545.931.545 2.309m-1.886.047q0-.95-.282-1.559a1.85 1.85 0 0 0-.82-.908q-.54-.293-1.336-.293h-.967V85.5h.78q1.329 0 1.974-.709.65-.71.65-2.11M34.604 87l-2.063-6.72h-.053l.035.726q.03.48.053 1.025.024.545.024.985V87h-1.623v-8.566h2.472l2.028 6.55h.035l2.15-6.55h2.473V87H38.44v-4.055q0-.405.012-.931.017-.528.041-1.002l.035-.721h-.052L36.267 87zM28 41l4.5 5.339L37 41h4v15h-4v-8.816l-4.5 5.339-4.5-5.34V56h-4V41zm25 0v7h5l-7 8-7-8h5v-7z" fill="#fff"/>
    <path d="M59 35a4 4 0 0 1 4 4v19a4 4 0 0 1-3.794 3.995L59 62H22l-.206-.005a4 4 0 0 1-3.79-3.789L18 58V39a4 4 0 0 1 4-4zm-37 2a2 2 0 0 0-2 2v19a2 2 0 0 0 2 2h37a2 2 0 0 0 2-2V39a2 2 0 0 0-2-2z" fill="#fff"/>
</svg>
