<svg width="80" height="100" viewBox="0 0 80 100" fill="none" xmlns="http://www.w3.org/2000/svg">
<g clip-path="url(#clip0_2964_22030)">
<path d="M75 19V92.6667C75 93.2855 74.7542 93.879 74.3166 94.3166C73.879 94.7542 73.2855 95 72.6667 95H7.33333C6.71449 95 6.121 94.7542 5.68342 94.3166C5.24583 93.879 5 93.2855 5 92.6667V7.33333C5 6.71449 5.24583 6.121 5.68342 5.68342C6.121 5.24583 6.71449 5 7.33333 5H61L75 19Z" fill="#DD9426"/>
<path fill-rule="evenodd" clip-rule="evenodd" d="M64.6167 38.8763L64.8745 39.0096C64.9076 39.0254 64.9362 39.049 64.958 39.0785C64.9797 39.108 64.9938 39.1424 64.999 39.1786C65.002 39.2093 64.998 39.2403 64.9873 39.2692C64.9766 39.2982 64.9594 39.3243 64.9372 39.3457C64.915 39.3671 64.8882 39.3831 64.8588 39.3927C64.8295 39.4023 64.7984 39.4051 64.7678 39.4009H64.4744C64.4458 39.3956 64.4171 39.3902 64.3882 39.3847C64.175 39.3445 63.9557 39.3031 63.7364 39.3031C59.2548 38.8852 55.0934 40.13 52.3547 43.26C52.2391 43.3667 52.1413 43.3756 52.0257 43.26C49.865 40.8058 46.8151 39.7121 43.2583 39.3831C42.0298 39.2614 40.7903 39.3153 39.577 39.5432H39.5237C39.4624 39.5432 39.4036 39.5188 39.3602 39.4754C39.3169 39.4321 39.2925 39.3733 39.2925 39.312C39.2925 39.2775 39.3005 39.2434 39.316 39.2126C39.3314 39.1817 39.3538 39.1548 39.3814 39.1341H39.4526C41.4206 38.1028 43.6159 37.5819 45.8375 37.6192C48.059 37.6565 50.2357 38.2508 52.168 39.3475C54.0479 38.2618 56.1645 37.6514 58.3339 37.5692C60.5033 37.4871 62.66 37.9358 64.6167 38.8763ZM48.2607 48.4782C52.1435 48.0444 56.0728 48.6016 59.6819 50.0979C59.7176 50.1243 59.7478 50.1576 59.7707 50.1957C59.7936 50.2339 59.8087 50.2761 59.8152 50.3202C59.813 50.4114 59.7757 50.4983 59.7112 50.5629C59.6466 50.6274 59.5597 50.6647 59.4684 50.6669H58.9794C58.437 50.6136 57.8946 50.6136 57.3433 50.6136H57.3433C49.6429 50.6136 42.725 53.4412 38.528 59.1765L38.3324 59.4521C38.3006 59.4922 38.26 59.5243 38.2137 59.5459C38.1674 59.5675 38.1167 59.578 38.0656 59.5766C37.9843 59.5776 37.9054 59.5492 37.8433 59.4966C33.7175 55.6197 28.2312 54.1615 22.0691 54.1615C19.8133 54.162 17.5697 54.4915 15.409 55.1396H15.3379C15.2475 55.1372 15.1615 55.0997 15.0984 55.0349C15.0353 54.9701 15 54.8832 15 54.7928C15.0011 54.7421 15.0127 54.6922 15.0341 54.6463C15.0556 54.6004 15.0863 54.5594 15.1245 54.526H15.1689C18.4181 52.338 22.1699 51.0114 26.0723 50.6707C29.9747 50.3301 33.8996 50.9866 37.4787 52.5787C40.6685 50.3228 44.378 48.9121 48.2607 48.4782Z" fill="white"/>
<path opacity="0.2" d="M75 19H63.3333C62.7145 19 62.121 18.7542 61.6834 18.3166C61.2458 17.879 61 17.2855 61 16.6667V5L75 19Z" fill="black"/>
<path d="M35.8691 82.7051C35.8691 83.3652 35.7871 83.9668 35.623 84.5098C35.459 85.0488 35.209 85.5137 34.873 85.9043C34.541 86.2949 34.1191 86.5957 33.6074 86.8066C33.0957 87.0137 32.4902 87.1172 31.791 87.1172C31.0918 87.1172 30.4863 87.0137 29.9746 86.8066C29.4629 86.5957 29.0391 86.2949 28.7031 85.9043C28.3711 85.5137 28.123 85.0469 27.959 84.5039C27.7949 83.9609 27.7129 83.3574 27.7129 82.6934C27.7129 81.8066 27.8574 81.0352 28.1465 80.3789C28.4395 79.7188 28.8887 79.207 29.4941 78.8438C30.0996 78.4805 30.8691 78.2988 31.8027 78.2988C32.7324 78.2988 33.4961 78.4805 34.0938 78.8438C34.6953 79.207 35.1406 79.7188 35.4297 80.3789C35.7227 81.0391 35.8691 81.8145 35.8691 82.7051ZM29.6172 82.7051C29.6172 83.3027 29.6914 83.8184 29.8398 84.252C29.9922 84.6816 30.2285 85.0137 30.5488 85.248C30.8691 85.4785 31.2832 85.5938 31.791 85.5938C32.3066 85.5938 32.7246 85.4785 33.0449 85.248C33.3652 85.0137 33.5977 84.6816 33.7422 84.252C33.8906 83.8184 33.9648 83.3027 33.9648 82.7051C33.9648 81.8066 33.7969 81.0996 33.4609 80.584C33.125 80.0684 32.5723 79.8105 31.8027 79.8105C31.291 79.8105 30.873 79.9277 30.5488 80.1621C30.2285 80.3926 29.9922 80.7246 29.8398 81.1582C29.6914 81.5879 29.6172 82.1035 29.6172 82.7051ZM44.752 82.6348C44.752 83.5996 44.5664 84.4062 44.1953 85.0547C43.8281 85.6992 43.2949 86.1855 42.5957 86.5137C41.8965 86.8379 41.0547 87 40.0703 87H37.6445V78.4336H40.334C41.2324 78.4336 42.0117 78.5938 42.6719 78.9141C43.332 79.2305 43.8438 79.7012 44.207 80.3262C44.5703 80.9473 44.752 81.7168 44.752 82.6348ZM42.8652 82.6816C42.8652 82.0488 42.7715 81.5293 42.584 81.123C42.4004 80.7129 42.127 80.4102 41.7637 80.2148C41.4043 80.0195 40.959 79.9219 40.4277 79.9219H39.4609V85.5H40.2402C41.127 85.5 41.7852 85.2637 42.2148 84.791C42.6484 84.3184 42.8652 83.6152 42.8652 82.6816ZM49.2637 78.4336C50.3691 78.4336 51.1758 78.6719 51.6836 79.1484C52.1914 79.6211 52.4453 80.2734 52.4453 81.1055C52.4453 81.4805 52.3887 81.8398 52.2754 82.1836C52.1621 82.5234 51.9766 82.8262 51.7188 83.0918C51.4648 83.3574 51.125 83.5684 50.6992 83.7246C50.2734 83.877 49.748 83.9531 49.123 83.9531H48.3438V87H46.5273V78.4336H49.2637ZM49.1699 79.9219H48.3438V82.4648H48.9414C49.2812 82.4648 49.5762 82.4199 49.8262 82.3301C50.0762 82.2402 50.2695 82.0996 50.4062 81.9082C50.543 81.7168 50.6113 81.4707 50.6113 81.1699C50.6113 80.748 50.4941 80.4355 50.2598 80.2324C50.0254 80.0254 49.6621 79.9219 49.1699 79.9219Z" fill="white"/>
</g>
<defs>
<clipPath id="clip0_2964_22030">
<rect width="80" height="100" fill="white"/>
</clipPath>
</defs>
</svg>
