<svg width="80" height="100" viewBox="0 0 80 100" fill="none" xmlns="http://www.w3.org/2000/svg">
<g clip-path="url(#clip0_2964_22043)">
<path d="M75 19V92.6667C75 93.2855 74.7542 93.879 74.3166 94.3166C73.879 94.7542 73.2855 95 72.6667 95H7.33333C6.71449 95 6.121 94.7542 5.68342 94.3166C5.24583 93.879 5 93.2855 5 92.6667V7.33333C5 6.71449 5.24583 6.121 5.68342 5.68342C6.121 5.24583 6.71449 5 7.33333 5H61L75 19Z" fill="#237453"/>
<path fill-rule="evenodd" clip-rule="evenodd" d="M64.6167 38.8762L64.8745 39.0096C64.9076 39.0253 64.9362 39.049 64.958 39.0785C64.9797 39.1079 64.9938 39.1423 64.999 39.1786C65.002 39.2093 64.998 39.2403 64.9873 39.2692C64.9766 39.2981 64.9594 39.3243 64.9372 39.3456C64.915 39.367 64.8882 39.3831 64.8588 39.3927C64.8295 39.4022 64.7984 39.405 64.7678 39.4009H64.4744C64.4458 39.3956 64.4171 39.3901 64.3882 39.3847C64.175 39.3444 63.9557 39.303 63.7364 39.303C59.2548 38.8851 55.0934 40.13 52.3547 43.2599C52.2391 43.3667 52.1413 43.3755 52.0257 43.2599C49.865 40.8058 46.8151 39.7121 43.2583 39.3831C42.0298 39.2614 40.7903 39.3153 39.577 39.5431H39.5237C39.4624 39.5431 39.4036 39.5188 39.3602 39.4754C39.3169 39.4321 39.2925 39.3733 39.2925 39.3119C39.2925 39.2774 39.3005 39.2434 39.316 39.2125C39.3314 39.1817 39.3538 39.1548 39.3814 39.1341H39.4526C41.4206 38.1028 43.6159 37.5819 45.8375 37.6192C48.059 37.6565 50.2357 38.2507 52.168 39.3475C54.0479 38.2618 56.1645 37.6513 58.3339 37.5692C60.5033 37.4871 62.66 37.9357 64.6167 38.8762ZM48.2607 48.4782C52.1435 48.0444 56.0728 48.6016 59.6819 50.0978C59.7176 50.1243 59.7478 50.1575 59.7707 50.1957C59.7936 50.2338 59.8087 50.2761 59.8152 50.3201C59.813 50.4114 59.7757 50.4983 59.7112 50.5628C59.6466 50.6274 59.5597 50.6647 59.4684 50.6669H58.9794C58.437 50.6136 57.8946 50.6136 57.3433 50.6136H57.3433C49.6429 50.6136 42.725 53.4412 38.528 59.1765L38.3324 59.4521C38.3006 59.4922 38.26 59.5243 38.2137 59.5459C38.1674 59.5675 38.1167 59.578 38.0656 59.5766C37.9843 59.5775 37.9054 59.5491 37.8433 59.4966C33.7175 55.6197 28.2312 54.1614 22.0691 54.1614C19.8133 54.1619 17.5697 54.4914 15.409 55.1395H15.3379C15.2475 55.1372 15.1615 55.0997 15.0984 55.0349C15.0353 54.9701 15 54.8832 15 54.7928C15.0011 54.7421 15.0127 54.6922 15.0341 54.6463C15.0556 54.6003 15.0863 54.5594 15.1245 54.526H15.1689C18.4181 52.3379 22.1699 51.0113 26.0723 50.6707C29.9747 50.3301 33.8996 50.9866 37.4787 52.5787C40.6685 50.3228 44.378 48.912 48.2607 48.4782Z" fill="white"/>
<path opacity="0.2" d="M75 19H63.3333C62.7145 19 62.121 18.7542 61.6834 18.3166C61.2458 17.879 61 17.2855 61 16.6667V5L75 19Z" fill="black"/>
<path d="M36.332 82.7051C36.332 83.3652 36.25 83.9668 36.0859 84.5098C35.9219 85.0488 35.6719 85.5137 35.3359 85.9043C35.0039 86.2949 34.582 86.5957 34.0703 86.8066C33.5586 87.0137 32.9531 87.1172 32.2539 87.1172C31.5547 87.1172 30.9492 87.0137 30.4375 86.8066C29.9258 86.5957 29.502 86.2949 29.166 85.9043C28.834 85.5137 28.5859 85.0469 28.4219 84.5039C28.2578 83.9609 28.1758 83.3574 28.1758 82.6934C28.1758 81.8066 28.3203 81.0352 28.6094 80.3789C28.9023 79.7188 29.3516 79.207 29.957 78.8438C30.5625 78.4805 31.332 78.2988 32.2656 78.2988C33.1953 78.2988 33.959 78.4805 34.5566 78.8438C35.1582 79.207 35.6035 79.7188 35.8926 80.3789C36.1855 81.0391 36.332 81.8145 36.332 82.7051ZM30.0801 82.7051C30.0801 83.3027 30.1543 83.8184 30.3027 84.252C30.4551 84.6816 30.6914 85.0137 31.0117 85.248C31.332 85.4785 31.7461 85.5938 32.2539 85.5938C32.7695 85.5938 33.1875 85.4785 33.5078 85.248C33.8281 85.0137 34.0605 84.6816 34.2051 84.252C34.3535 83.8184 34.4277 83.3027 34.4277 82.7051C34.4277 81.8066 34.2598 81.0996 33.9238 80.584C33.5879 80.0684 33.0352 79.8105 32.2656 79.8105C31.7539 79.8105 31.3359 79.9277 31.0117 80.1621C30.6914 80.3926 30.4551 80.7246 30.3027 81.1582C30.1543 81.5879 30.0801 82.1035 30.0801 82.7051ZM45.2148 82.6348C45.2148 83.5996 45.0293 84.4062 44.6582 85.0547C44.291 85.6992 43.7578 86.1855 43.0586 86.5137C42.3594 86.8379 41.5176 87 40.5332 87H38.1074V78.4336H40.7969C41.6953 78.4336 42.4746 78.5938 43.1348 78.9141C43.7949 79.2305 44.3066 79.7012 44.6699 80.3262C45.0332 80.9473 45.2148 81.7168 45.2148 82.6348ZM43.3281 82.6816C43.3281 82.0488 43.2344 81.5293 43.0469 81.123C42.8633 80.7129 42.5898 80.4102 42.2266 80.2148C41.8672 80.0195 41.4219 79.9219 40.8906 79.9219H39.9238V85.5H40.7031C41.5898 85.5 42.248 85.2637 42.6777 84.791C43.1113 84.3184 43.3281 83.6152 43.3281 82.6816ZM52.0469 84.6211C52.0469 85.1289 51.9238 85.5703 51.6777 85.9453C51.4316 86.3203 51.0723 86.6094 50.5996 86.8125C50.1309 87.0156 49.5605 87.1172 48.8887 87.1172C48.5918 87.1172 48.3008 87.0977 48.0156 87.0586C47.7344 87.0195 47.4629 86.9629 47.2012 86.8887C46.9434 86.8105 46.6973 86.7148 46.4629 86.6016V84.9141C46.8691 85.0938 47.291 85.2559 47.7285 85.4004C48.166 85.5449 48.5996 85.6172 49.0293 85.6172C49.3262 85.6172 49.5645 85.5781 49.7441 85.5C49.9277 85.4219 50.0605 85.3145 50.1426 85.1777C50.2246 85.041 50.2656 84.8848 50.2656 84.709C50.2656 84.4941 50.1934 84.3105 50.0488 84.1582C49.9043 84.0059 49.7051 83.8633 49.4512 83.7305C49.2012 83.5977 48.918 83.4551 48.6016 83.3027C48.4023 83.209 48.1855 83.0957 47.9512 82.9629C47.7168 82.8262 47.4941 82.6602 47.2832 82.4648C47.0723 82.2695 46.8984 82.0332 46.7617 81.7559C46.6289 81.4746 46.5625 81.1387 46.5625 80.748C46.5625 80.2363 46.6797 79.7988 46.9141 79.4355C47.1484 79.0723 47.4824 78.7949 47.916 78.6035C48.3535 78.4082 48.8691 78.3105 49.4629 78.3105C49.9082 78.3105 50.332 78.3633 50.7344 78.4688C51.1406 78.5703 51.5645 78.7188 52.0059 78.9141L51.4199 80.3262C51.0254 80.166 50.6719 80.043 50.3594 79.957C50.0469 79.8672 49.7285 79.8223 49.4043 79.8223C49.1777 79.8223 48.9844 79.8594 48.8242 79.9336C48.6641 80.0039 48.543 80.1055 48.4609 80.2383C48.3789 80.3672 48.3379 80.5176 48.3379 80.6895C48.3379 80.8926 48.3965 81.0645 48.5137 81.2051C48.6348 81.3418 48.8145 81.4746 49.0527 81.6035C49.2949 81.7324 49.5957 81.8828 49.9551 82.0547C50.3926 82.2617 50.7656 82.4785 51.0742 82.7051C51.3867 82.9277 51.627 83.1914 51.7949 83.4961C51.9629 83.7969 52.0469 84.1719 52.0469 84.6211Z" fill="white"/>
</g>
<defs>
<clipPath id="clip0_2964_22043">
<rect width="80" height="100" fill="white"/>
</clipPath>
</defs>
</svg>
