<svg width="80" height="100" viewBox="0 0 80 100" fill="none" xmlns="http://www.w3.org/2000/svg">
<g clip-path="url(#clip0_2964_22031)">
<path d="M75 19V92.6667C75 93.2855 74.7542 93.879 74.3166 94.3166C73.879 94.7542 73.2855 95 72.6667 95H7.33333C6.71449 95 6.121 94.7542 5.68342 94.3166C5.24583 93.879 5 93.2855 5 92.6667V7.33333C5 6.71449 5.24583 6.121 5.68342 5.68342C6.121 5.24583 6.71449 5 7.33333 5H61L75 19Z" fill="#3C6D88"/>
<path fill-rule="evenodd" clip-rule="evenodd" d="M64.6167 38.8762L64.8745 39.0096C64.9076 39.0254 64.9362 39.049 64.958 39.0785C64.9797 39.1079 64.9938 39.1423 64.999 39.1786C65.002 39.2093 64.998 39.2403 64.9873 39.2692C64.9766 39.2981 64.9594 39.3243 64.9372 39.3456C64.915 39.367 64.8882 39.3831 64.8588 39.3927C64.8295 39.4022 64.7984 39.405 64.7678 39.4009H64.4744C64.4458 39.3956 64.4171 39.3901 64.3882 39.3847C64.175 39.3444 63.9557 39.303 63.7364 39.303C59.2548 38.8851 55.0934 40.13 52.3547 43.2599C52.2391 43.3667 52.1413 43.3755 52.0257 43.2599C49.865 40.8058 46.8151 39.7121 43.2583 39.3831C42.0298 39.2614 40.7903 39.3153 39.577 39.5431H39.5237C39.4624 39.5431 39.4036 39.5188 39.3602 39.4754C39.3169 39.4321 39.2925 39.3733 39.2925 39.3119C39.2925 39.2774 39.3005 39.2434 39.316 39.2125C39.3314 39.1817 39.3538 39.1548 39.3814 39.1341H39.4526C41.4206 38.1028 43.6159 37.5819 45.8375 37.6192C48.059 37.6565 50.2357 38.2507 52.168 39.3475C54.0479 38.2618 56.1645 37.6513 58.3339 37.5692C60.5033 37.4871 62.66 37.9357 64.6167 38.8762ZM48.2607 48.4782C52.1435 48.0444 56.0728 48.6016 59.6819 50.0978C59.7176 50.1243 59.7478 50.1575 59.7707 50.1957C59.7936 50.2338 59.8087 50.2761 59.8152 50.3201C59.813 50.4114 59.7757 50.4983 59.7112 50.5628C59.6466 50.6274 59.5597 50.6647 59.4684 50.6669H58.9794C58.437 50.6136 57.8946 50.6136 57.3433 50.6136H57.3433C49.6429 50.6136 42.725 53.4412 38.528 59.1765L38.3324 59.4521C38.3006 59.4922 38.26 59.5243 38.2137 59.5459C38.1674 59.5675 38.1167 59.578 38.0656 59.5766C37.9843 59.5775 37.9054 59.5491 37.8433 59.4966C33.7175 55.6197 28.2312 54.1614 22.0691 54.1614C19.8133 54.1619 17.5697 54.4914 15.409 55.1395H15.3379C15.2475 55.1372 15.1615 55.0997 15.0984 55.0349C15.0353 54.9701 15 54.8832 15 54.7928C15.0011 54.7421 15.0127 54.6922 15.0341 54.6463C15.0556 54.6003 15.0863 54.5594 15.1245 54.526H15.1689C18.4181 52.3379 22.1699 51.0113 26.0723 50.6707C29.9747 50.3301 33.8996 50.9866 37.4787 52.5787C40.6685 50.3228 44.378 48.912 48.2607 48.4782Z" fill="white"/>
<path opacity="0.2" d="M75 19H63.3333C62.7145 19 62.121 18.7542 61.6834 18.3166C61.2458 17.879 61 17.2855 61 16.6667V5L75 19Z" fill="black"/>
<path d="M36.1621 82.7051C36.1621 83.3652 36.0801 83.9668 35.916 84.5098C35.752 85.0488 35.502 85.5137 35.166 85.9043C34.834 86.2949 34.4121 86.5957 33.9004 86.8066C33.3887 87.0137 32.7832 87.1172 32.084 87.1172C31.3848 87.1172 30.7793 87.0137 30.2676 86.8066C29.7559 86.5957 29.332 86.2949 28.9961 85.9043C28.6641 85.5137 28.416 85.0469 28.252 84.5039C28.0879 83.9609 28.0059 83.3574 28.0059 82.6934C28.0059 81.8066 28.1504 81.0352 28.4395 80.3789C28.7324 79.7188 29.1816 79.207 29.7871 78.8438C30.3926 78.4805 31.1621 78.2988 32.0957 78.2988C33.0254 78.2988 33.7891 78.4805 34.3867 78.8438C34.9883 79.207 35.4336 79.7188 35.7227 80.3789C36.0156 81.0391 36.1621 81.8145 36.1621 82.7051ZM29.9102 82.7051C29.9102 83.3027 29.9844 83.8184 30.1328 84.252C30.2852 84.6816 30.5215 85.0137 30.8418 85.248C31.1621 85.4785 31.5762 85.5938 32.084 85.5938C32.5996 85.5938 33.0176 85.4785 33.3379 85.248C33.6582 85.0137 33.8906 84.6816 34.0352 84.252C34.1836 83.8184 34.2578 83.3027 34.2578 82.7051C34.2578 81.8066 34.0898 81.0996 33.7539 80.584C33.418 80.0684 32.8652 79.8105 32.0957 79.8105C31.584 79.8105 31.166 79.9277 30.8418 80.1621C30.5215 80.3926 30.2852 80.7246 30.1328 81.1582C29.9844 81.5879 29.9102 82.1035 29.9102 82.7051ZM45.0449 82.6348C45.0449 83.5996 44.8594 84.4062 44.4883 85.0547C44.1211 85.6992 43.5879 86.1855 42.8887 86.5137C42.1895 86.8379 41.3477 87 40.3633 87H37.9375V78.4336H40.627C41.5254 78.4336 42.3047 78.5938 42.9648 78.9141C43.625 79.2305 44.1367 79.7012 44.5 80.3262C44.8633 80.9473 45.0449 81.7168 45.0449 82.6348ZM43.1582 82.6816C43.1582 82.0488 43.0645 81.5293 42.877 81.123C42.6934 80.7129 42.4199 80.4102 42.0566 80.2148C41.6973 80.0195 41.252 79.9219 40.7207 79.9219H39.7539V85.5H40.5332C41.4199 85.5 42.0781 85.2637 42.5078 84.791C42.9414 84.3184 43.1582 83.6152 43.1582 82.6816ZM50.125 87H48.3086V79.9453H45.9824V78.4336H52.4512V79.9453H50.125V87Z" fill="white"/>
</g>
<defs>
<clipPath id="clip0_2964_22031">
<rect width="80" height="100" fill="white"/>
</clipPath>
</defs>
</svg>
