<svg width="80" height="100" viewBox="0 0 80 100" fill="none" xmlns="http://www.w3.org/2000/svg">
<g clip-path="url(#clip0_2964_22033)">
<path d="M75 19V92.6667C75 93.2855 74.7542 93.879 74.3166 94.3166C73.879 94.7542 73.2855 95 72.6667 95H7.33333C6.71449 95 6.121 94.7542 5.68342 94.3166C5.24583 93.879 5 93.2855 5 92.6667V7.33333C5 6.71449 5.24583 6.121 5.68342 5.68342C6.121 5.24583 6.71449 5 7.33333 5H61L75 19Z" fill="#237453"/>
<path fill-rule="evenodd" clip-rule="evenodd" d="M64.6167 37.8762L64.8745 38.0096C64.9076 38.0253 64.9362 38.049 64.958 38.0785C64.9797 38.1079 64.9938 38.1423 64.999 38.1786C65.002 38.2093 64.998 38.2403 64.9873 38.2692C64.9766 38.2981 64.9594 38.3243 64.9372 38.3456C64.915 38.367 64.8882 38.3831 64.8588 38.3927C64.8295 38.4022 64.7984 38.405 64.7678 38.4009H64.4744C64.4458 38.3956 64.4171 38.3901 64.3882 38.3847C64.175 38.3444 63.9557 38.303 63.7364 38.303C59.2548 37.8851 55.0934 39.13 52.3547 42.2599C52.2391 42.3667 52.1413 42.3755 52.0257 42.2599C49.865 39.8058 46.8151 38.7121 43.2583 38.3831C42.0298 38.2614 40.7903 38.3153 39.577 38.5431H39.5237C39.4624 38.5431 39.4036 38.5188 39.3602 38.4754C39.3169 38.4321 39.2925 38.3733 39.2925 38.3119C39.2925 38.2774 39.3005 38.2434 39.316 38.2125C39.3314 38.1817 39.3538 38.1548 39.3814 38.1341H39.4526C41.4206 37.1028 43.6159 36.5819 45.8375 36.6192C48.059 36.6565 50.2357 37.2507 52.168 38.3475C54.0479 37.2618 56.1645 36.6513 58.3339 36.5692C60.5033 36.4871 62.66 36.9357 64.6167 37.8762ZM48.2607 47.4782C52.1435 47.0444 56.0728 47.6016 59.6819 49.0978C59.7176 49.1243 59.7478 49.1575 59.7707 49.1957C59.7936 49.2338 59.8087 49.2761 59.8152 49.3201C59.813 49.4114 59.7757 49.4983 59.7112 49.5628C59.6466 49.6274 59.5597 49.6647 59.4684 49.6669H58.9794C58.437 49.6136 57.8946 49.6136 57.3433 49.6136H57.3433C49.6429 49.6136 42.725 52.4412 38.528 58.1765L38.3324 58.4521C38.3006 58.4922 38.26 58.5243 38.2137 58.5459C38.1674 58.5675 38.1167 58.578 38.0656 58.5766C37.9843 58.5775 37.9054 58.5491 37.8433 58.4966C33.7175 54.6197 28.2312 53.1614 22.0691 53.1614C19.8133 53.1619 17.5697 53.4914 15.409 54.1395H15.3379C15.2475 54.1372 15.1615 54.0997 15.0984 54.0349C15.0353 53.9701 15 53.8832 15 53.7928C15.0011 53.7421 15.0127 53.6922 15.0341 53.6463C15.0556 53.6003 15.0863 53.5594 15.1245 53.526H15.1689C18.4181 51.3379 22.1699 50.0113 26.0723 49.6707C29.9747 49.3301 33.8996 49.9866 37.4787 51.5787C40.6685 49.3228 44.378 47.912 48.2607 47.4782Z" fill="white"/>
<path opacity="0.2" d="M75 19H63.3333C62.7145 19 62.121 18.7542 61.6834 18.3166C61.2458 17.879 61 17.2855 61 16.6667V5L75 19Z" fill="black"/>
<path d="M37.2988 82.7051C37.2988 83.3652 37.2168 83.9668 37.0527 84.5098C36.8887 85.0488 36.6387 85.5137 36.3027 85.9043C35.9707 86.2949 35.5488 86.5957 35.0371 86.8066C34.5254 87.0137 33.9199 87.1172 33.2207 87.1172C32.5215 87.1172 31.916 87.0137 31.4043 86.8066C30.8926 86.5957 30.4688 86.2949 30.1328 85.9043C29.8008 85.5137 29.5527 85.0469 29.3887 84.5039C29.2246 83.9609 29.1426 83.3574 29.1426 82.6934C29.1426 81.8066 29.2871 81.0352 29.5762 80.3789C29.8691 79.7188 30.3184 79.207 30.9238 78.8438C31.5293 78.4805 32.2988 78.2988 33.2324 78.2988C34.1621 78.2988 34.9258 78.4805 35.5234 78.8438C36.125 79.207 36.5703 79.7188 36.8594 80.3789C37.1523 81.0391 37.2988 81.8145 37.2988 82.7051ZM31.0469 82.7051C31.0469 83.3027 31.1211 83.8184 31.2695 84.252C31.4219 84.6816 31.6582 85.0137 31.9785 85.248C32.2988 85.4785 32.7129 85.5938 33.2207 85.5938C33.7363 85.5938 34.1543 85.4785 34.4746 85.248C34.7949 85.0137 35.0273 84.6816 35.1719 84.252C35.3203 83.8184 35.3945 83.3027 35.3945 82.7051C35.3945 81.8066 35.2266 81.0996 34.8906 80.584C34.5547 80.0684 34.002 79.8105 33.2324 79.8105C32.7207 79.8105 32.3027 79.9277 31.9785 80.1621C31.6582 80.3926 31.4219 80.7246 31.2695 81.1582C31.1211 81.5879 31.0469 82.1035 31.0469 82.7051ZM42.3789 87H40.5625V79.9453H38.2363V78.4336H44.7051V79.9453H42.3789V87ZM51.0801 84.6211C51.0801 85.1289 50.957 85.5703 50.7109 85.9453C50.4648 86.3203 50.1055 86.6094 49.6328 86.8125C49.1641 87.0156 48.5938 87.1172 47.9219 87.1172C47.625 87.1172 47.334 87.0977 47.0488 87.0586C46.7676 87.0195 46.4961 86.9629 46.2344 86.8887C45.9766 86.8105 45.7305 86.7148 45.4961 86.6016V84.9141C45.9023 85.0938 46.3242 85.2559 46.7617 85.4004C47.1992 85.5449 47.6328 85.6172 48.0625 85.6172C48.3594 85.6172 48.5977 85.5781 48.7773 85.5C48.9609 85.4219 49.0938 85.3145 49.1758 85.1777C49.2578 85.041 49.2988 84.8848 49.2988 84.709C49.2988 84.4941 49.2266 84.3105 49.082 84.1582C48.9375 84.0059 48.7383 83.8633 48.4844 83.7305C48.2344 83.5977 47.9512 83.4551 47.6348 83.3027C47.4355 83.209 47.2188 83.0957 46.9844 82.9629C46.75 82.8262 46.5273 82.6602 46.3164 82.4648C46.1055 82.2695 45.9316 82.0332 45.7949 81.7559C45.6621 81.4746 45.5957 81.1387 45.5957 80.748C45.5957 80.2363 45.7129 79.7988 45.9473 79.4355C46.1816 79.0723 46.5156 78.7949 46.9492 78.6035C47.3867 78.4082 47.9023 78.3105 48.4961 78.3105C48.9414 78.3105 49.3652 78.3633 49.7676 78.4688C50.1738 78.5703 50.5977 78.7188 51.0391 78.9141L50.4531 80.3262C50.0586 80.166 49.7051 80.043 49.3926 79.957C49.0801 79.8672 48.7617 79.8223 48.4375 79.8223C48.2109 79.8223 48.0176 79.8594 47.8574 79.9336C47.6973 80.0039 47.5762 80.1055 47.4941 80.2383C47.4121 80.3672 47.3711 80.5176 47.3711 80.6895C47.3711 80.8926 47.4297 81.0645 47.5469 81.2051C47.668 81.3418 47.8477 81.4746 48.0859 81.6035C48.3281 81.7324 48.6289 81.8828 48.9883 82.0547C49.4258 82.2617 49.7988 82.4785 50.1074 82.7051C50.4199 82.9277 50.6602 83.1914 50.8281 83.4961C50.9961 83.7969 51.0801 84.1719 51.0801 84.6211Z" fill="white"/>
<path fill-rule="evenodd" clip-rule="evenodd" d="M12 10C10.8954 10 10 10.8954 10 12V21C10 22.1046 10.8954 23 12 23H21C22.1046 23 23 22.1046 23 21V12C23 10.8954 22.1046 10 21 10H12ZM17.2129 20V14.0381H19.4004V12.8906H17.2129H15.7529H13.5996V14.0381H15.7529V20H17.2129Z" fill="white"/>
</g>
<defs>
<clipPath id="clip0_2964_22033">
<rect width="80" height="100" fill="white"/>
</clipPath>
</defs>
</svg>
