<svg width="80" height="100" viewBox="0 0 80 100" fill="none" xmlns="http://www.w3.org/2000/svg">
<g clip-path="url(#clip0_2964_22057)">
<path d="M75 19V92.6667C75 93.2855 74.7542 93.879 74.3166 94.3166C73.879 94.7542 73.2855 95 72.6667 95H7.33333C6.71449 95 6.121 94.7542 5.68342 94.3166C5.24583 93.879 5 93.2855 5 92.6667V7.33333C5 6.71449 5.24583 6.121 5.68342 5.68342C6.121 5.24583 6.71449 5 7.33333 5H61L75 19Z" fill="#D871D6"/>
<path opacity="0.2" d="M75 19H63.3333C62.7145 19 62.121 18.7542 61.6834 18.3166C61.2458 17.879 61 17.2855 61 16.6667V5L75 19Z" fill="black"/>
<path d="M30.8184 78.4336C31.9238 78.4336 32.7305 78.6719 33.2383 79.1484C33.7461 79.6211 34 80.2734 34 81.1055C34 81.4805 33.9434 81.8398 33.8301 82.1836C33.7168 82.5234 33.5312 82.8262 33.2734 83.0918C33.0195 83.3574 32.6797 83.5684 32.2539 83.7246C31.8281 83.877 31.3027 83.9531 30.6777 83.9531H29.8984V87H28.082V78.4336H30.8184ZM30.7246 79.9219H29.8984V82.4648H30.4961C30.8359 82.4648 31.1309 82.4199 31.3809 82.3301C31.6309 82.2402 31.8242 82.0996 31.9609 81.9082C32.0977 81.7168 32.166 81.4707 32.166 81.1699C32.166 80.748 32.0488 80.4355 31.8145 80.2324C31.5801 80.0254 31.2168 79.9219 30.7246 79.9219ZM43.2168 87H40.9082L37.1816 80.5195H37.1289C37.1445 80.7891 37.1582 81.0605 37.1699 81.334C37.1816 81.6074 37.1934 81.8809 37.2051 82.1543C37.2168 82.4238 37.2285 82.6953 37.2402 82.9688V87H35.6172V78.4336H37.9082L41.6289 84.8496H41.6699C41.6621 84.584 41.6523 84.3203 41.6406 84.0586C41.6289 83.7969 41.6172 83.5352 41.6055 83.2734C41.5977 83.0117 41.5898 82.75 41.582 82.4883V78.4336H43.2168V87ZM48.6309 82.1895H52.0293V86.6309C51.5801 86.7793 51.1133 86.8984 50.6289 86.9883C50.1445 87.0742 49.5957 87.1172 48.9824 87.1172C48.1309 87.1172 47.4082 86.9492 46.8145 86.6133C46.2207 86.2773 45.7695 85.7812 45.4609 85.125C45.1523 84.4688 44.998 83.6621 44.998 82.7051C44.998 81.8066 45.1699 81.0293 45.5137 80.373C45.8613 79.7168 46.3672 79.209 47.0312 78.8496C47.6992 78.4902 48.5137 78.3105 49.4746 78.3105C49.9277 78.3105 50.375 78.3594 50.8164 78.457C51.2578 78.5547 51.6582 78.6816 52.0176 78.8379L51.4141 80.291C51.1523 80.1582 50.8535 80.0469 50.5176 79.957C50.1816 79.8672 49.8301 79.8223 49.4629 79.8223C48.9355 79.8223 48.4766 79.9434 48.0859 80.1855C47.6992 80.4277 47.3984 80.7676 47.1836 81.2051C46.9727 81.6387 46.8672 82.1504 46.8672 82.7402C46.8672 83.2988 46.9434 83.7949 47.0957 84.2285C47.248 84.6582 47.4883 84.9961 47.8164 85.2422C48.1445 85.4844 48.5723 85.6055 49.0996 85.6055C49.3574 85.6055 49.5742 85.5938 49.75 85.5703C49.9297 85.543 50.0977 85.5156 50.2539 85.4883V83.7012H48.6309V82.1895Z" fill="white"/>
<mask id="path-4-inside-1_2964_22057" fill="white">
<path fill-rule="evenodd" clip-rule="evenodd" d="M25.3677 44.4118C27.6906 44.4118 29.5736 42.5287 29.5736 40.2059C29.5736 37.883 27.6906 36 25.3677 36C23.0449 36 21.1619 37.883 21.1619 40.2059C21.1619 42.5287 23.0449 44.4118 25.3677 44.4118ZM44.103 39.0588L58.6325 62H21.1619L31.4854 45.1765L35.7879 52.188L44.103 39.0588Z"/>
</mask>
<path fill-rule="evenodd" clip-rule="evenodd" d="M25.3677 44.4118C27.6906 44.4118 29.5736 42.5287 29.5736 40.2059C29.5736 37.883 27.6906 36 25.3677 36C23.0449 36 21.1619 37.883 21.1619 40.2059C21.1619 42.5287 23.0449 44.4118 25.3677 44.4118ZM44.103 39.0588L58.6325 62H21.1619L31.4854 45.1765L35.7879 52.188L44.103 39.0588Z" fill="white"/>
<path d="M58.6325 62V64H62.2665L60.3221 60.9299L58.6325 62ZM44.103 39.0588L45.7927 37.9887L44.103 35.3208L42.4134 37.9887L44.103 39.0588ZM21.1619 62L19.4572 60.9539L17.5881 64H21.1619V62ZM31.4854 45.1765L33.19 44.1304L31.4854 41.3525L29.7807 44.1304L31.4854 45.1765ZM35.7879 52.188L34.0833 53.234L35.7611 55.9682L37.4775 53.2581L35.7879 52.188ZM27.5736 40.2059C27.5736 41.4242 26.586 42.4118 25.3677 42.4118V46.4118C28.7952 46.4118 31.5736 43.6333 31.5736 40.2059H27.5736ZM25.3677 38C26.586 38 27.5736 38.9876 27.5736 40.2059H31.5736C31.5736 36.7785 28.7952 34 25.3677 34V38ZM23.1619 40.2059C23.1619 38.9876 24.1495 38 25.3677 38V34C21.9403 34 19.1619 36.7785 19.1619 40.2059H23.1619ZM25.3677 42.4118C24.1495 42.4118 23.1619 41.4242 23.1619 40.2059H19.1619C19.1619 43.6333 21.9403 46.4118 25.3677 46.4118V42.4118ZM60.3221 60.9299L45.7927 37.9887L42.4134 40.1289L56.9428 63.0701L60.3221 60.9299ZM21.1619 64H58.6325V60H21.1619V64ZM29.7807 44.1304L19.4572 60.9539L22.8665 63.046L33.19 46.2225L29.7807 44.1304ZM37.4926 51.1419L33.19 44.1304L29.7807 46.2225L34.0833 53.234L37.4926 51.1419ZM42.4134 37.9887L34.0983 51.1179L37.4775 53.2581L45.7927 40.1289L42.4134 37.9887Z" fill="white" mask="url(#path-4-inside-1_2964_22057)"/>
</g>
<defs>
<clipPath id="clip0_2964_22057">
<rect width="80" height="100" fill="white"/>
</clipPath>
</defs>
</svg>
