<svg width="80" height="100" viewBox="0 0 80 100" fill="none" xmlns="http://www.w3.org/2000/svg">
<g clip-path="url(#clip0_2964_22037)">
<path d="M75 19V92.6667C75 93.2855 74.7542 93.879 74.3166 94.3166C73.879 94.7542 73.2855 95 72.6667 95H7.33333C6.71449 95 6.121 94.7542 5.68342 94.3166C5.24583 93.879 5 93.2855 5 92.6667V7.33333C5 6.71449 5.24583 6.121 5.68342 5.68342C6.121 5.24583 6.71449 5 7.33333 5H61L75 19Z" fill="#DD682B"/>
<path fill-rule="evenodd" clip-rule="evenodd" d="M41 46V34C44.1826 34 47.2348 35.2643 49.4853 37.5147C51.7357 39.7652 53 42.8174 53 46H41ZM47.4853 56.4853C45.2348 58.7357 42.1826 60 39 60C35.8174 60 32.7652 58.7357 30.5147 56.4853C28.2643 54.2348 27 51.1826 27 48C27 44.8174 28.2643 41.7652 30.5147 39.5147C32.7652 37.2643 35.8174 36 39 36V48H51C51 51.1826 49.7357 54.2348 47.4853 56.4853Z" fill="white"/>
<path opacity="0.2" d="M75 19H63.3333C62.7145 19 62.121 18.7542 61.6834 18.3166C61.2458 17.879 61 17.2855 61 16.6667V5L75 19Z" fill="black"/>
<path d="M27.7949 78.4336C28.9004 78.4336 29.707 78.6719 30.2148 79.1484C30.7227 79.6211 30.9766 80.2734 30.9766 81.1055C30.9766 81.4805 30.9199 81.8398 30.8066 82.1836C30.6934 82.5234 30.5078 82.8262 30.25 83.0918C29.9961 83.3574 29.6562 83.5684 29.2305 83.7246C28.8047 83.877 28.2793 83.9531 27.6543 83.9531H26.875V87H25.0586V78.4336H27.7949ZM27.7012 79.9219H26.875V82.4648H27.4727C27.8125 82.4648 28.1074 82.4199 28.3574 82.3301C28.6074 82.2402 28.8008 82.0996 28.9375 81.9082C29.0742 81.7168 29.1426 81.4707 29.1426 81.1699C29.1426 80.748 29.0254 80.4355 28.791 80.2324C28.5566 80.0254 28.1934 79.9219 27.7012 79.9219ZM40.3691 82.7051C40.3691 83.3652 40.2871 83.9668 40.123 84.5098C39.959 85.0488 39.709 85.5137 39.373 85.9043C39.041 86.2949 38.6191 86.5957 38.1074 86.8066C37.5957 87.0137 36.9902 87.1172 36.291 87.1172C35.5918 87.1172 34.9863 87.0137 34.4746 86.8066C33.9629 86.5957 33.5391 86.2949 33.2031 85.9043C32.8711 85.5137 32.623 85.0469 32.459 84.5039C32.2949 83.9609 32.2129 83.3574 32.2129 82.6934C32.2129 81.8066 32.3574 81.0352 32.6465 80.3789C32.9395 79.7188 33.3887 79.207 33.9941 78.8438C34.5996 78.4805 35.3691 78.2988 36.3027 78.2988C37.2324 78.2988 37.9961 78.4805 38.5938 78.8438C39.1953 79.207 39.6406 79.7188 39.9297 80.3789C40.2227 81.0391 40.3691 81.8145 40.3691 82.7051ZM34.1172 82.7051C34.1172 83.3027 34.1914 83.8184 34.3398 84.252C34.4922 84.6816 34.7285 85.0137 35.0488 85.248C35.3691 85.4785 35.7832 85.5938 36.291 85.5938C36.8066 85.5938 37.2246 85.4785 37.5449 85.248C37.8652 85.0137 38.0977 84.6816 38.2422 84.252C38.3906 83.8184 38.4648 83.3027 38.4648 82.7051C38.4648 81.8066 38.2969 81.0996 37.9609 80.584C37.625 80.0684 37.0723 79.8105 36.3027 79.8105C35.791 79.8105 35.373 79.9277 35.0488 80.1621C34.7285 80.3926 34.4922 80.7246 34.3398 81.1582C34.1914 81.5879 34.1172 82.1035 34.1172 82.7051ZM45.4492 87H43.6328V79.9453H41.3066V78.4336H47.7754V79.9453H45.4492V87ZM56.0195 87H53.9453L51.9531 83.7598L49.9609 87H48.0156L50.8574 82.582L48.1973 78.4336H50.2012L52.0469 81.5156L53.8574 78.4336H55.8145L53.125 82.6816L56.0195 87Z" fill="white"/>
<path fill-rule="evenodd" clip-rule="evenodd" d="M12 10C10.8954 10 10 10.8954 10 12V21C10 22.1046 10.8954 23 12 23H21C22.1046 23 23 22.1046 23 21V12C23 10.8954 22.1046 10 21 10H12ZM17.2129 20V14.0381H19.4004V12.8906H17.2129H15.7529H13.5996V14.0381H15.7529V20H17.2129Z" fill="white"/>
</g>
<defs>
<clipPath id="clip0_2964_22037">
<rect width="80" height="100" fill="white"/>
</clipPath>
</defs>
</svg>
