<svg width="80" height="100" viewBox="0 0 80 100" fill="none" xmlns="http://www.w3.org/2000/svg">
<g clip-path="url(#clip0_2964_22034)">
<path d="M75 19V92.6667C75 93.2855 74.7542 93.879 74.3166 94.3166C73.879 94.7542 73.2855 95 72.6667 95H7.33333C6.71449 95 6.121 94.7542 5.68342 94.3166C5.24583 93.879 5 93.2855 5 92.6667V7.33333C5 6.71449 5.24583 6.121 5.68342 5.68342C6.121 5.24583 6.71449 5 7.33333 5H61L75 19Z" fill="#DD682B"/>
<path fill-rule="evenodd" clip-rule="evenodd" d="M42 47V35C45.1826 35 48.2348 36.2643 50.4853 38.5147C52.7357 40.7652 54 43.8174 54 47H42ZM48.4853 57.4853C46.2348 59.7357 43.1826 61 40 61C36.8174 61 33.7652 59.7357 31.5147 57.4853C29.2643 55.2348 28 52.1826 28 49C28 45.8174 29.2643 42.7652 31.5147 40.5147C33.7652 38.2643 36.8174 37 40 37V49H52C52 52.1826 50.7357 55.2348 48.4853 57.4853Z" fill="white"/>
<path opacity="0.2" d="M75 19H63.3333C62.7145 19 62.121 18.7542 61.6834 18.3166C61.2458 17.879 61 17.2855 61 16.6667V5L75 19Z" fill="black"/>
<path d="M27.1445 78.4336C28.25 78.4336 29.0566 78.6719 29.5645 79.1484C30.0723 79.6211 30.3262 80.2734 30.3262 81.1055C30.3262 81.4805 30.2695 81.8398 30.1562 82.1836C30.043 82.5234 29.8574 82.8262 29.5996 83.0918C29.3457 83.3574 29.0059 83.5684 28.5801 83.7246C28.1543 83.877 27.6289 83.9531 27.0039 83.9531H26.2246V87H24.4082V78.4336H27.1445ZM27.0508 79.9219H26.2246V82.4648H26.8223C27.1621 82.4648 27.457 82.4199 27.707 82.3301C27.957 82.2402 28.1504 82.0996 28.2871 81.9082C28.4238 81.7168 28.4922 81.4707 28.4922 81.1699C28.4922 80.748 28.375 80.4355 28.1406 80.2324C27.9062 80.0254 27.543 79.9219 27.0508 79.9219ZM34.6797 78.4336C35.7852 78.4336 36.5918 78.6719 37.0996 79.1484C37.6074 79.6211 37.8613 80.2734 37.8613 81.1055C37.8613 81.4805 37.8047 81.8398 37.6914 82.1836C37.5781 82.5234 37.3926 82.8262 37.1348 83.0918C36.8809 83.3574 36.541 83.5684 36.1152 83.7246C35.6895 83.877 35.1641 83.9531 34.5391 83.9531H33.7598V87H31.9434V78.4336H34.6797ZM34.5859 79.9219H33.7598V82.4648H34.3574C34.6973 82.4648 34.9922 82.4199 35.2422 82.3301C35.4922 82.2402 35.6855 82.0996 35.8223 81.9082C35.959 81.7168 36.0273 81.4707 36.0273 81.1699C36.0273 80.748 35.9102 80.4355 35.6758 80.2324C35.4414 80.0254 35.0781 79.9219 34.5859 79.9219ZM42.7832 87H40.9668V79.9453H38.6406V78.4336H45.1094V79.9453H42.7832V87ZM50.0547 87L47.9922 80.2793H47.9395C47.9473 80.4395 47.959 80.6816 47.9746 81.0059C47.9941 81.3262 48.0117 81.668 48.0273 82.0312C48.043 82.3945 48.0508 82.7227 48.0508 83.0156V87H46.4277V78.4336H48.9004L50.9277 84.9844H50.9629L53.1133 78.4336H55.5859V87H53.8926V82.9453C53.8926 82.6758 53.8965 82.3652 53.9043 82.0137C53.916 81.6621 53.9297 81.3281 53.9453 81.0117C53.9609 80.6914 53.9727 80.4512 53.9805 80.291H53.9277L51.7188 87H50.0547Z" fill="white"/>
<path fill-rule="evenodd" clip-rule="evenodd" d="M12 10C10.8954 10 10 10.8954 10 12V21C10 22.1046 10.8954 23 12 23H21C22.1046 23 23 22.1046 23 21V12C23 10.8954 22.1046 10 21 10H12ZM14.6641 12.8906H13.9902H13.4238H12.7549V20H14.2148V17.9785L14.0691 14.6767L15.9922 20H16.9883L18.9114 14.6767L18.7656 17.9785V20H20.2305V12.8906H19.5566H18.9902H18.3164L16.4902 18.1104L14.6641 12.8906Z" fill="white"/>
</g>
<defs>
<clipPath id="clip0_2964_22034">
<rect width="80" height="100" fill="white"/>
</clipPath>
</defs>
</svg>
