<svg width="80" height="100" viewBox="0 0 80 100" fill="none" xmlns="http://www.w3.org/2000/svg">
<g clip-path="url(#clip0_2964_22058)">
<path d="M75 19V92.6667C75 93.2855 74.7542 93.879 74.3166 94.3166C73.879 94.7542 73.2855 95 72.6667 95H7.33333C6.71449 95 6.121 94.7542 5.68342 94.3166C5.24583 93.879 5 93.2855 5 92.6667V7.33333C5 6.71449 5.24583 6.121 5.68342 5.68342C6.121 5.24583 6.71449 5 7.33333 5H61L75 19Z" fill="#635E9B"/>
<path fill-rule="evenodd" clip-rule="evenodd" d="M21 33H33V45H21V33ZM35 33H59V35H35V33ZM59 38H35V40H59V38ZM35 43H59V45H35V43ZM59 48H21V50H59V48ZM21 53H59V55H21V53ZM59 58H21V60H59V58ZM21 63H59V65H21V63Z" fill="white"/>
<path opacity="0.2" d="M75 19H63.3333C62.7145 19 62.121 18.7542 61.6834 18.3166C61.2458 17.879 61 17.2855 61 16.6667V5L75 19Z" fill="black"/>
<path d="M32.8457 78.4336C33.623 78.4336 34.2637 78.5273 34.7676 78.7148C35.2754 78.9023 35.6523 79.1855 35.8984 79.5645C36.1445 79.9434 36.2676 80.4219 36.2676 81C36.2676 81.3906 36.1934 81.7324 36.0449 82.0254C35.8965 82.3184 35.7012 82.5664 35.459 82.7695C35.2168 82.9727 34.9551 83.1387 34.6738 83.2676L37.1934 87H35.1777L33.1328 83.7129H32.166V87H30.3496V78.4336H32.8457ZM32.7168 79.9219H32.166V82.2363H32.752C33.3535 82.2363 33.7832 82.1367 34.041 81.9375C34.3027 81.7344 34.4336 81.4375 34.4336 81.0469C34.4336 80.6406 34.293 80.3516 34.0117 80.1797C33.7344 80.0078 33.3027 79.9219 32.7168 79.9219ZM41.5762 87H39.7598V79.9453H37.4336V78.4336H43.9023V79.9453H41.5762V87ZM47.0078 87H45.2207V78.4336H50.1309V79.9219H47.0078V82.1309H49.9141V83.6133H47.0078V87Z" fill="white"/>
</g>
<defs>
<clipPath id="clip0_2964_22058">
<rect width="80" height="100" fill="white"/>
</clipPath>
</defs>
</svg>
