<svg width="80" height="100" viewBox="0 0 80 100" fill="none" xmlns="http://www.w3.org/2000/svg">
    <path d="M75 19v73.667A2.333 2.333 0 0 1 72.667 95H7.333A2.333 2.333 0 0 1 5 92.667V7.333A2.333 2.333 0 0 1 7.333 5H61z" fill="#705CED"/>
    <path opacity=".2" d="M75 19H63.333A2.333 2.333 0 0 1 61 16.667V5z" fill="#000"/>
    <path d="M32.148 78.434 29.236 87h-1.98l-2.906-8.566h1.834l1.61 5.097q.042.129.136.487.094.351.187.75.1.392.135.65.034-.258.123-.65.094-.393.182-.745.093-.357.134-.492l1.624-5.097zm6.142 6.187q0 .763-.37 1.324-.369.562-1.078.868-.704.304-1.711.304-.446 0-.873-.058a6 6 0 0 1-.815-.17 5 5 0 0 1-.738-.287v-1.688q.609.27 1.266.486a4.1 4.1 0 0 0 1.3.217q.446 0 .715-.117a.8.8 0 0 0 .399-.322.9.9 0 0 0 .123-.469.77.77 0 0 0-.217-.55 2.3 2.3 0 0 0-.598-.428q-.375-.2-.85-.428a10 10 0 0 1-.65-.34 3.8 3.8 0 0 1-.668-.498 2.4 2.4 0 0 1-.521-.71q-.2-.42-.2-1.007 0-.769.352-1.312.353-.546 1.002-.833.657-.292 1.547-.292.668 0 1.272.158.61.152 1.271.445l-.586 1.412a10 10 0 0 0-1.06-.369 3.4 3.4 0 0 0-.955-.135q-.34 0-.58.112a.78.78 0 0 0-.487.755q0 .306.176.516.181.206.539.398.363.195.902.452.656.31 1.12.65.468.334.72.791.252.45.252 1.125m8.661-1.986q0 1.447-.557 2.42-.551.966-1.6 1.459-1.05.486-2.525.486h-2.426v-8.566h2.69q1.347 0 2.337.48.99.475 1.535 1.412.545.931.545 2.309m-1.888.047q0-.95-.28-1.559a1.85 1.85 0 0 0-.821-.908q-.54-.293-1.336-.293h-.967V85.5h.78q1.329 0 1.974-.709.65-.71.65-2.11M55.65 87h-2.074l-1.992-3.24L49.592 87h-1.945l2.841-4.418-2.66-4.148h2.004l1.846 3.082 1.81-3.082h1.957l-2.69 4.248zM38.487 37H50a1 1 0 0 1 1 1v15h4a1 1 0 0 1 1 1v10a1 1 0 0 1-1 1H45a1 1 0 0 1-1-1V54a1 1 0 0 1 1-1h4V39H38.484L32 45.484V53h4a1 1 0 0 1 1 1v10a1 1 0 0 1-1 1H26a1 1 0 0 1-1-1V54a1 1 0 0 1 1-1h4v-7.516l-6.778-6.778a1 1 0 0 1 0-1.414l7.071-7.071a1 1 0 0 1 1.414 0zm-1.83.999L31 32.342l-5.657 5.657L31 43.656zm-5.682 17H27v8h8v-8zM54 63v-8h-8v8z" fill="#fff"/>
</svg>
