<svg width="80" height="100" viewBox="0 0 80 100" fill="none" xmlns="http://www.w3.org/2000/svg">
    <path d="M75 19v73.667A2.333 2.333 0 0 1 72.667 95H7.333A2.333 2.333 0 0 1 5 92.667V7.333A2.333 2.333 0 0 1 7.333 5H61l14 14Z" fill="#1F7244"/>
    <path opacity=".2" d="M75 19H63.333A2.333 2.333 0 0 1 61 16.667V5l14 14Z" fill="#000"/>
    <path d="M33.273 87H31.2l-1.992-3.24L27.215 87H25.27l2.841-4.418-2.66-4.148h2.004l1.846 3.082 1.81-3.082h1.957l-2.69 4.248L33.274 87Zm1.079 0v-8.566h1.816V85.5h3.475V87h-5.291Zm11.841-2.379c0 .508-.123.95-.369 1.324-.246.375-.605.664-1.078.868-.469.203-1.039.304-1.71.304a6.023 6.023 0 0 1-1.688-.228 5.092 5.092 0 0 1-.739-.287v-1.688c.407.18.828.342 1.266.486a4.13 4.13 0 0 0 1.3.217c.298 0 .536-.039.716-.117a.818.818 0 0 0 .398-.322.893.893 0 0 0 .123-.469.772.772 0 0 0-.217-.55 2.264 2.264 0 0 0-.597-.428c-.25-.133-.533-.276-.85-.428a9.732 9.732 0 0 1-.65-.34 3.798 3.798 0 0 1-.668-.498 2.402 2.402 0 0 1-.522-.71c-.133-.28-.199-.616-.199-1.007 0-.512.117-.95.351-1.313.235-.363.569-.64 1.002-.832.438-.195.954-.292 1.547-.292.446 0 .87.052 1.272.158.406.101.83.25 1.271.445l-.586 1.412a9.712 9.712 0 0 0-1.06-.369 3.442 3.442 0 0 0-.955-.135c-.227 0-.42.037-.58.112a.782.782 0 0 0-.487.755c0 .204.059.376.176.516.121.137.3.27.54.398.241.13.542.28.902.452.437.207.81.423 1.119.65.312.223.552.486.72.791.168.3.252.676.252 1.125Zm1.553-6.187h2.666c1.14 0 2.004.16 2.59.48.586.32.879.883.879 1.688 0 .324-.053.617-.158.879-.102.261-.25.476-.446.644a1.474 1.474 0 0 1-.715.328v.059c.286.058.544.16.774.304.23.141.414.348.55.621.141.27.212.63.212 1.079 0 .52-.127.965-.381 1.336-.254.37-.617.656-1.09.855-.469.195-1.027.293-1.676.293h-3.205v-8.566Zm1.816 3.392h1.055c.528 0 .893-.082 1.096-.246.203-.168.305-.414.305-.738 0-.328-.121-.563-.364-.703-.238-.145-.617-.217-1.136-.217h-.956v1.904Zm0 1.442V85.5h1.184c.547 0 .928-.106 1.143-.316.214-.211.322-.495.322-.85a1.09 1.09 0 0 0-.14-.557c-.094-.16-.253-.285-.475-.375-.219-.09-.522-.134-.908-.134h-1.126Zm-8.071-34.551L49.638 36h-3.983L39.5 45.605 33.345 36h-3.983l8.147 12.717L29 62h3.983L39.5 51.83 46.017 62H50l-8.509-13.283Z" fill="#fff"/>
</svg>
