<svg width="80" height="100" viewBox="0 0 80 100" fill="none" xmlns="http://www.w3.org/2000/svg">
<g clip-path="url(#clip0_2964_22041)">
<path d="M75 19V92.6667C75 93.2855 74.7542 93.879 74.3166 94.3166C73.879 94.7542 73.2855 95 72.6667 95H7.33333C6.71449 95 6.121 94.7542 5.68342 94.3166C5.24583 93.879 5 93.2855 5 92.6667V7.33333C5 6.71449 5.24583 6.121 5.68342 5.68342C6.121 5.24583 6.71449 5 7.33333 5H61L75 19Z" fill="#1F7244"/>
<path opacity="0.2" d="M75 19H63.3333C62.7145 19 62.121 18.7542 61.6834 18.3166C61.2458 17.879 61 17.2855 61 16.6667V5L75 19Z" fill="black"/>
<path d="M33.1328 87H31.0586L29.0664 83.7598L27.0742 87H25.1289L27.9707 82.582L25.3105 78.4336H27.3145L29.1602 81.5156L30.9707 78.4336H32.9277L30.2383 82.6816L33.1328 87ZM34.2109 87V78.4336H36.0273V85.5H39.502V87H34.2109ZM44.3008 87H42.4844V79.9453H40.1582V78.4336H46.627V79.9453H44.3008V87ZM54.8711 87H52.7969L50.8047 83.7598L48.8125 87H46.8672L49.709 82.582L47.0488 78.4336H49.0527L50.8984 81.5156L52.709 78.4336H54.666L51.9766 82.6816L54.8711 87Z" fill="white"/>
<path d="M41.4914 48.7171L49.6379 36H45.6552L39.5 45.6047L33.3448 36H29.3621L37.5086 48.7171L29 62H32.9828L39.5 51.8294L46.0172 62H50L41.4914 48.7171Z" fill="white"/>
<path fill-rule="evenodd" clip-rule="evenodd" d="M12 10C10.8954 10 10 10.8954 10 12V21C10 22.1046 10.8954 23 12 23H21C22.1046 23 23 22.1046 23 21V12C23 10.8954 22.1046 10 21 10H12ZM17.2129 20V14.0381H19.4004V12.8906H17.2129H15.7529H13.5996V14.0381H15.7529V20H17.2129Z" fill="white"/>
</g>
<defs>
<clipPath id="clip0_2964_22041">
<rect width="80" height="100" fill="white"/>
</clipPath>
</defs>
</svg>
