<svg width="20" height="20" viewBox="0 0 20 20" fill="none" xmlns="http://www.w3.org/2000/svg">
    <path d="M8.471 3.686a.2.2 0 0 1 0-.372l.524-.206a.2.2 0 0 0 .112-.113l.207-.523a.2.2 0 0 1 .372 0l.206.523a.2.2 0 0 0 .113.113l.523.206a.2.2 0 0 1 0 .372l-.523.206a.2.2 0 0 0-.113.113l-.206.523a.2.2 0 0 1-.372 0l-.207-.523a.2.2 0 0 0-.112-.113zM5.514 15.728l9.9-9.9a1 1 0 0 0 0-1.414l-.708-.707a1 1 0 0 0-1.414 0l-9.9 9.9a1 1 0 0 0 0 1.414l.708.707a1 1 0 0 0 1.414 0M14.706 5.12l-2.121 2.122-.707-.708 2.121-2.12zM4.1 14.314l7.07-7.071.708.707-7.071 7.07zm.724-9.602a.2.2 0 0 1-.112.113l-1.24.489a.2.2 0 0 0 0 .372l1.24.49a.2.2 0 0 1 .112.112l.49 1.24a.2.2 0 0 0 .372 0l.489-1.24a.2.2 0 0 1 .113-.113l1.24-.489a.2.2 0 0 0 0-.372l-1.24-.49a.2.2 0 0 1-.113-.112l-.49-1.24a.2.2 0 0 0-.371 0zm.676.762-.026.026.026.026.025-.026zm7.929 7.068-1.958.772a.2.2 0 0 0 0 .372l1.958.772a.2.2 0 0 1 .113.113l.772 1.957a.2.2 0 0 0 .372 0l.772-1.957a.2.2 0 0 1 .112-.113l1.958-.772a.2.2 0 0 0 0-.372l-1.958-.772a.2.2 0 0 1-.112-.113l-.772-1.957a.2.2 0 0 0-.372 0l-.772 1.957a.2.2 0 0 1-.113.113m1.043.254.028-.07.027.07a1.2 1.2 0 0 0 .677.676l.07.028-.07.028a1.2 1.2 0 0 0-.677.676l-.027.07-.028-.07a1.2 1.2 0 0 0-.676-.676l-.07-.028.07-.028a1.2 1.2 0 0 0 .676-.676" fill="#000"/>
</svg>
