<svg xmlns="http://www.w3.org/2000/svg" width="20" height="20" fill="none" viewBox="0 0 20 20">
    <path fill="#000" d="M9 3.5a1.5 1.5 0 0 1 2.946-.394A1.5 1.5 0 0 1 14 4.5v1.587a1.506 1.506 0 0 1 2.004 1.41c.008 1.38.023 2.715-.04 3.93-.062 1.215-.204 2.345-.529 3.312-.327.974-.846 1.805-1.67 2.387-.823.58-1.897.874-3.265.874-1.677 0-3.066-1.152-4.148-2.499-1.096-1.365-1.973-3.05-2.608-4.35C3.259 10.158 3.995 9 5.093 9c.393 0 .77.156 1.048.435l.859.858V5.5a1.5 1.5 0 0 1 2-1.413zm1 6.5a.5.5 0 0 1-1 0V5.5l-.01-.1a.5.5 0 0 0-.99.1v6a.5.5 0 0 1-.854.354l-1.712-1.712A.48.48 0 0 0 5.093 10a.5.5 0 0 0-.45.712c.631 1.293 1.468 2.892 2.489 4.163C8.166 16.164 9.298 17 10.5 17c1.227 0 2.08-.263 2.688-.691.605-.427 1.02-1.055 1.3-1.888.28-.84.418-1.864.479-3.044.06-1.18.045-2.48.037-3.873A.506.506 0 0 0 14.5 7a.5.5 0 0 0-.5.5V10a.5.5 0 0 1-1 0V4.5a.5.5 0 0 0-1 0V10a.5.5 0 0 1-1 0V3.5a.5.5 0 0 0-1 0z"/>
</svg>
