<svg xmlns="http://www.w3.org/2000/svg" xmlns:xlink="http://www.w3.org/1999/xlink" version="1.1" x="0" y="0" viewBox="-238 240 24 22" xml:space="preserve" enable-background="new -238 240 22 22"><path d="M-226.94 257.74c-0.26-0.54-0.46-1.18-0.61-1.92 -0.15-0.73-0.22-1.46-0.22-2.18 0-1.35 0.26-2.7 0.78-4.04 0.52-1.35 1.22-2.49 2.1-3.43 0.88-0.94 1.51-1.53 1.89-1.77 0.1-0.06 0.14-0.1 0.14-0.13 0-0.04-0.07-0.05-0.21-0.05 -0.31 0-0.55 0.04-0.71 0.12 -0.16 0.08-0.53 0.4-1.1 0.96s-1.07 1.14-1.49 1.75c-0.42 0.61-0.78 1.25-1.06 1.94 -0.29 0.69-0.51 1.42-0.68 2.19 -0.17 0.77-0.25 1.63-0.25 2.57 0 0.58 0.07 1.25 0.2 1.99 0.13 0.74 0.33 1.41 0.58 2 0.25 0.59 0.41 0.9 0.48 0.94 0.07 0.04 0.24 0.06 0.51 0.06 0.09 0 0.13-0.02 0.13-0.05l-0.03-0.05C-226.53 258.59-226.68 258.29-226.94 257.74zM-219.15 253.05c0-0.09-0.04-0.14-0.12-0.14 -0.08 0-0.18 0.08-0.29 0.24 -0.28 0.41-0.59 0.71-0.92 0.91s-0.61 0.3-0.85 0.3c-0.18 0-0.36-0.08-0.52-0.25 -0.17-0.16-0.25-0.42-0.25-0.77 0-0.69 0.23-1.66 0.68-2.93 0.45-1.27 1.01-1.9 1.68-1.9 0.15 0 0.22 0.08 0.22 0.24 0 0.06-0.01 0.15-0.04 0.27 -0.02 0.07-0.02 0.12-0.02 0.18 0 0.13 0.05 0.23 0.14 0.32 0.09 0.08 0.2 0.13 0.34 0.13 0.19 0 0.34-0.06 0.45-0.17 0.1-0.11 0.16-0.24 0.16-0.38 0-0.24-0.1-0.47-0.29-0.67 -0.19-0.21-0.43-0.31-0.71-0.31 -0.55 0-1.09 0.29-1.62 0.87 -0.11 0.12-0.18 0.18-0.21 0.18l-0.08-0.03c-0.06-0.33-0.17-0.58-0.34-0.75 -0.17-0.17-0.4-0.25-0.69-0.25 -0.37 0-0.78 0.19-1.22 0.56 -0.44 0.37-0.66 0.62-0.66 0.74 0 0.08 0.04 0.11 0.13 0.11 0.08 0 0.2-0.09 0.37-0.27 0.45-0.48 0.81-0.72 1.09-0.72 0.14 0 0.27 0.08 0.38 0.25 0.11 0.17 0.16 0.39 0.16 0.67 0 0.58-0.27 1.53-0.8 2.85 -0.54 1.32-1.1 1.98-1.68 1.98 -0.13 0-0.23-0.05-0.3-0.14 -0.08-0.09-0.12-0.18-0.12-0.27 0-0.05 0.01-0.12 0.03-0.23 0.01-0.07 0.02-0.13 0.02-0.18 0-0.3-0.14-0.45-0.42-0.45 -0.18 0-0.33 0.07-0.46 0.2 -0.13 0.13-0.2 0.3-0.2 0.51 0 0.26 0.13 0.48 0.4 0.66 0.27 0.18 0.56 0.26 0.86 0.26 0.4 0 0.87-0.23 1.41-0.68 0.23-0.19 0.39-0.31 0.47-0.36 0.04 0.05 0.11 0.17 0.21 0.37 0.26 0.48 0.66 0.71 1.21 0.71 0.57 0 1.11-0.22 1.63-0.67C-219.41 253.59-219.15 253.26-219.15 253.05zM-216.2 247.22c-0.13-0.75-0.33-1.41-0.58-2 -0.25-0.59-0.41-0.9-0.48-0.94 -0.07-0.04-0.24-0.06-0.51-0.06 -0.09 0-0.13 0.02-0.13 0.05l0.03 0.05c0.05 0.06 0.2 0.36 0.46 0.91 0.26 0.54 0.46 1.18 0.61 1.91 0.15 0.73 0.22 1.46 0.22 2.17 0 1.36-0.26 2.71-0.78 4.05 -0.52 1.35-1.22 2.49-2.11 3.43 -0.89 0.94-1.51 1.53-1.89 1.77l-0.14 0.13c0 0.04 0.07 0.06 0.21 0.06 0.3 0 0.5-0.02 0.59-0.05 0.1-0.03 0.47-0.35 1.11-0.94 0.64-0.59 1.19-1.24 1.65-1.94 0.46-0.7 0.83-1.4 1.12-2.11 0.28-0.7 0.49-1.44 0.62-2.21C-216.06 250.74-216 249.98-216 249.21 -216 248.63-216.07 247.97-216.2 247.22z"/><path class="st0" d="M-226.94 257.74c-0.26-0.54-0.46-1.18-0.61-1.92 -0.15-0.73-0.22-1.46-0.22-2.18 0-1.35 0.26-2.7 0.78-4.04 0.52-1.35 1.22-2.49 2.1-3.43 0.88-0.94 1.51-1.53 1.89-1.77 0.1-0.06 0.14-0.1 0.14-0.13 0-0.04-0.07-0.05-0.21-0.05 -0.31 0-0.55 0.04-0.71 0.12 -0.16 0.08-0.53 0.4-1.1 0.96s-1.07 1.14-1.49 1.75c-0.42 0.61-0.78 1.25-1.06 1.94 -0.29 0.69-0.51 1.42-0.68 2.19 -0.17 0.77-0.25 1.63-0.25 2.57 0 0.58 0.07 1.25 0.2 1.99 0.13 0.74 0.33 1.41 0.58 2 0.25 0.59 0.41 0.9 0.48 0.94 0.07 0.04 0.24 0.06 0.51 0.06 0.09 0 0.13-0.02 0.13-0.05l-0.03-0.05C-226.53 258.59-226.68 258.29-226.94 257.74zM-219.15 253.05c0-0.09-0.04-0.14-0.12-0.14 -0.08 0-0.18 0.08-0.29 0.24 -0.28 0.41-0.59 0.71-0.92 0.91s-0.61 0.3-0.85 0.3c-0.18 0-0.36-0.08-0.52-0.25 -0.17-0.16-0.25-0.42-0.25-0.77 0-0.69 0.23-1.66 0.68-2.93 0.45-1.27 1.01-1.9 1.68-1.9 0.15 0 0.22 0.08 0.22 0.24 0 0.06-0.01 0.15-0.04 0.27 -0.02 0.07-0.02 0.12-0.02 0.18 0 0.13 0.05 0.23 0.14 0.32 0.09 0.08 0.2 0.13 0.34 0.13 0.19 0 0.34-0.06 0.45-0.17 0.1-0.11 0.16-0.24 0.16-0.38 0-0.24-0.1-0.47-0.29-0.67 -0.19-0.21-0.43-0.31-0.71-0.31 -0.55 0-1.09 0.29-1.62 0.87 -0.11 0.12-0.18 0.18-0.21 0.18l-0.08-0.03c-0.06-0.33-0.17-0.58-0.34-0.75 -0.17-0.17-0.4-0.25-0.69-0.25 -0.37 0-0.78 0.19-1.22 0.56 -0.44 0.37-0.66 0.62-0.66 0.74 0 0.08 0.04 0.11 0.13 0.11 0.08 0 0.2-0.09 0.37-0.27 0.45-0.48 0.81-0.72 1.09-0.72 0.14 0 0.27 0.08 0.38 0.25 0.11 0.17 0.16 0.39 0.16 0.67 0 0.58-0.27 1.53-0.8 2.85 -0.54 1.32-1.1 1.98-1.68 1.98 -0.13 0-0.23-0.05-0.3-0.14 -0.08-0.09-0.12-0.18-0.12-0.27 0-0.05 0.01-0.12 0.03-0.23 0.01-0.07 0.02-0.13 0.02-0.18 0-0.3-0.14-0.45-0.42-0.45 -0.18 0-0.33 0.07-0.46 0.2 -0.13 0.13-0.2 0.3-0.2 0.51 0 0.26 0.13 0.48 0.4 0.66 0.27 0.18 0.56 0.26 0.86 0.26 0.4 0 0.87-0.23 1.41-0.68 0.23-0.19 0.39-0.31 0.47-0.36 0.04 0.05 0.11 0.17 0.21 0.37 0.26 0.48 0.66 0.71 1.21 0.71 0.57 0 1.11-0.22 1.63-0.67C-219.41 253.59-219.15 253.26-219.15 253.05zM-216.2 247.22c-0.13-0.75-0.33-1.41-0.58-2 -0.25-0.59-0.41-0.9-0.48-0.94 -0.07-0.04-0.24-0.06-0.51-0.06 -0.09 0-0.13 0.02-0.13 0.05l0.03 0.05c0.05 0.06 0.2 0.36 0.46 0.91 0.26 0.54 0.46 1.18 0.61 1.91 0.15 0.73 0.22 1.46 0.22 2.17 0 1.36-0.26 2.71-0.78 4.05 -0.52 1.35-1.22 2.49-2.11 3.43 -0.89 0.94-1.51 1.53-1.89 1.77l-0.14 0.13c0 0.04 0.07 0.06 0.21 0.06 0.3 0 0.5-0.02 0.59-0.05 0.1-0.03 0.47-0.35 1.11-0.94 0.64-0.59 1.19-1.24 1.65-1.94 0.46-0.7 0.83-1.4 1.12-2.11 0.28-0.7 0.49-1.44 0.62-2.21C-216.06 250.74-216 249.98-216 249.21 -216 248.63-216.07 247.97-216.2 247.22z"/><path class="st1" d="M-229.66 247.67c0.02-0.08 0.03-0.18 0.04-0.3 0.02-0.12 0.03-0.21 0.04-0.27 -0.88 0-1.36-0.01-1.44-0.04 0.39-1.87 0.78-3.11 1.17-3.73 0.39-0.62 0.83-0.93 1.31-0.93 0.18 0 0.32 0.04 0.4 0.11 0.09 0.07 0.13 0.18 0.13 0.33 0 0.1-0.04 0.22-0.11 0.35 -0.12 0.21-0.17 0.39-0.17 0.53 0 0.2 0.06 0.36 0.18 0.5 0.12 0.13 0.26 0.2 0.42 0.2 0.2 0 0.36-0.09 0.48-0.27 0.12-0.18 0.18-0.39 0.18-0.62 0-0.4-0.13-0.75-0.39-1.06C-227.69 242.15-228.05 242-228.52 242c-0.79 0-1.49 0.43-2.11 1.28 -0.61 0.85-1.09 2.15-1.43 3.9 -0.68 0.01-1.21 0.04-1.62 0.08l-0.1 0.54 1.6-0.05c-0.08 0.33-0.26 1.17-0.53 2.52 -0.68 3.42-1.27 5.89-1.77 7.41 -0.5 1.52-1.1 2.28-1.79 2.28 -0.19 0-0.34-0.06-0.45-0.19s-0.17-0.26-0.17-0.41c0-0.1 0.04-0.25 0.11-0.45 0.06-0.17 0.09-0.31 0.09-0.42 0-0.19-0.06-0.36-0.18-0.5 -0.12-0.14-0.27-0.21-0.44-0.21 -0.2 0-0.36 0.1-0.5 0.3 -0.14 0.2-0.2 0.44-0.2 0.72 0 0.43 0.15 0.8 0.45 1.11 0.3 0.31 0.68 0.47 1.14 0.47 0.77 0 1.45-0.41 2.06-1.23 0.61-0.82 1.11-2.1 1.51-3.85l1.68-7.57C-230.66 247.7-230.16 247.68-229.66 247.67L-229.66 247.67z"/></svg>