<svg version="1.1" xmlns="http://www.w3.org/2000/svg" xmlns:xlink="http://www.w3.org/1999/xlink" viewBox="0 0 22 22"><g><path d="M15.5,21h-10C4.1,21,3,19.9,3,18.5v-14C3,3.1,4.1,2,5.5,2h10C16.9,2,18,3.1,18,4.5v14C18,19.9,16.9,21,15.5,21z M5.5,3C4.7,3,4,3.7,4,4.5v14C4,19.3,4.7,20,5.5,20h10c0.8,0,1.5-0.7,1.5-1.5v-14C17,3.7,16.3,3,15.5,3H5.5z"/><path d="M14.5,9h-8C5.7,9,5,8.3,5,7.5v-2C5,4.7,5.7,4,6.5,4h8C15.3,4,16,4.7,16,5.5v2C16,8.3,15.3,9,14.5,9z M6.5,5C6.2,5,6,5.2,6,5.5v2C6,7.8,6.2,8,6.5,8h8C14.8,8,15,7.8,15,7.5v-2C15,5.2,14.8,5,14.5,5H6.5z"/><rect x="5" y="10" width="3" height="2"/><rect x="9" y="10" width="3" height="2"/><rect x="13" y="10" width="3" height="2"/><rect x="13" y="13" width="3" height="2"/><rect x="9" y="13" width="3" height="2"/><rect x="5" y="13" width="3" height="2"/><rect x="5" y="16" width="3" height="2"/><rect x="9" y="16" width="3" height="2"/><rect x="13" y="16" width="3" height="2"/></g></svg>