<svg version="1.1" xmlns="http://www.w3.org/2000/svg" xmlns:xlink="http://www.w3.org/1999/xlink" viewBox="0 0 22 22"><g><path d="M4.7089844,14.8330078V9.7529297H2.8691406V9.0732422c0.2402344,0,0.4736328-0.0185547,0.7001953-0.0551758s0.4316406-0.1049805,0.6152344-0.2050781C4.3671875,8.7128906,4.5234375,8.5766602,4.6494141,8.402832c0.1259766-0.1733398,0.2138672-0.3930664,0.2607422-0.659668h0.6494141v7.0898438H4.7089844z"/><path d="M8.109375,9.2529297c0.09375-0.3066406,0.2382812-0.5712891,0.4355469-0.7949219c0.1962891-0.2231445,0.4414062-0.3984375,0.734375-0.5249023s0.6269531-0.1899414,1-0.1899414c0.3066406,0,0.5957031,0.0449219,0.8652344,0.1347656s0.5048828,0.2202148,0.7050781,0.3901367s0.3583984,0.3818359,0.4746094,0.6347656C12.4414062,9.15625,12.5,9.449707,12.5,9.7832031c0,0.3134766-0.0488281,0.5898438-0.1455078,0.8295898c-0.0966797,0.2402344-0.2255859,0.4550781-0.3847656,0.6450195c-0.1601562,0.1904297-0.34375,0.3618164-0.5498047,0.5151367C11.2128906,11.9262695,11,12.0732422,10.7792969,12.2128906c-0.2197266,0.1337891-0.4394531,0.2651367-0.6601562,0.3950195c-0.2197266,0.1298828-0.421875,0.2685547-0.6044922,0.4150391c-0.1835938,0.1469727-0.3398438,0.3051758-0.4697266,0.4750977c-0.1308594,0.1699219-0.2148438,0.3647461-0.2558594,0.5849609h3.640625v0.75H7.7998047c0.0332031-0.4199219,0.1083984-0.7783203,0.2246094-1.0751953c0.1162109-0.2963867,0.2646484-0.5546875,0.4453125-0.7749023c0.1796875-0.2197266,0.3837891-0.4130859,0.6103516-0.5800781c0.2265625-0.1665039,0.4628906-0.3232422,0.7089844-0.4697266c0.3007812-0.1865234,0.5644531-0.3583984,0.7910156-0.5151367s0.4140625-0.3149414,0.5644531-0.4750977c0.1503906-0.159668,0.2636719-0.3330078,0.3398438-0.5200195c0.0761719-0.1865234,0.1152344-0.4033203,0.1152344-0.6499023c0-0.1933594-0.0371094-0.3681641-0.109375-0.5249023c-0.0742188-0.1567383-0.171875-0.2915039-0.2958984-0.4052734c-0.1230469-0.1132812-0.2685547-0.199707-0.4345703-0.2597656c-0.1669922-0.0600586-0.34375-0.0898438-0.5302734-0.0898438c-0.2470703,0-0.4580078,0.0517578-0.6347656,0.1547852C9.4179688,8.7514648,9.2734375,8.8862305,9.1601562,9.0532227C9.0458984,9.2197266,8.9648438,9.4082031,8.9140625,9.6181641c-0.0488281,0.2099609-0.0712891,0.4213867-0.0644531,0.6347656H8C7.9794922,9.8930664,8.015625,9.5595703,8.109375,9.2529297z"/><path d="M15.3896484,10.7929688c0.0332031,0,0.0664062,0,0.1005859,0h0.1796875c0.1796875,0,0.3515625-0.0249023,0.5146484-0.0751953c0.1630859-0.0498047,0.3066406-0.1230469,0.4306641-0.2197266c0.1230469-0.0966797,0.2207031-0.2182617,0.2949219-0.3652344c0.0722656-0.1464844,0.109375-0.3129883,0.109375-0.5c0-0.3798828-0.1201172-0.6650391-0.359375-0.8549805c-0.2402344-0.1899414-0.5410156-0.284668-0.9003906-0.284668c-0.2265625,0-0.4257812,0.0415039-0.5957031,0.125s-0.3095703,0.1948242-0.4199219,0.3349609C14.6347656,9.0927734,14.5527344,9.2563477,14.5,9.4428711c-0.0537109,0.1870117-0.0800781,0.3837891-0.0800781,0.590332h-0.8496094c0.0126953-0.340332,0.0673828-0.6503906,0.1640625-0.9301758s0.2353516-0.5200195,0.4150391-0.7202148c0.1806641-0.199707,0.4052734-0.3564453,0.6748047-0.4697266c0.2705078-0.1132812,0.5820312-0.1699219,0.9355469-0.1699219c0.3066406,0,0.5917969,0.0380859,0.8554688,0.1147461c0.2626953,0.0766602,0.4902344,0.1918945,0.6845703,0.3452148c0.1923828,0.1533203,0.3447266,0.3500977,0.4541016,0.5898438c0.1113281,0.2402344,0.1660156,0.5234375,0.1660156,0.8500977c0,0.3198242-0.09375,0.6035156-0.2802734,0.8500977s-0.4199219,0.4331055-0.7001953,0.5600586v0.0200195c0.4335938,0.0932617,0.7558594,0.2963867,0.9648438,0.6098633c0.2109375,0.3134766,0.3154297,0.6831055,0.3154297,1.1098633c0,0.3535156-0.0654297,0.6650391-0.1953125,0.9350586S17.7197266,14.2231445,17.5,14.402832c-0.2207031,0.1801758-0.4785156,0.3149414-0.7753906,0.4052734c-0.296875,0.0898438-0.6113281,0.1347656-0.9453125,0.1347656c-0.359375,0-0.6865234-0.0498047-0.9794922-0.1499023c-0.2939453-0.1000977-0.5439453-0.2480469-0.75-0.4448242c-0.2070312-0.1967773-0.3652344-0.4384766-0.4755859-0.7250977c-0.109375-0.2866211-0.1611328-0.6132812-0.1542969-0.9799805h0.8496094c0.0136719,0.4599609,0.1464844,0.8349609,0.4003906,1.125c0.2529297,0.2900391,0.6230469,0.4350586,1.109375,0.4350586c0.2070312,0,0.4042969-0.0317383,0.5898438-0.0952148c0.1875-0.0629883,0.3505859-0.1533203,0.4902344-0.2700195C17,13.7216797,17.1113281,13.578125,17.1953125,13.4082031c0.0820312-0.1704102,0.125-0.3618164,0.125-0.5751953c0-0.2202148-0.0410156-0.4150391-0.1210938-0.5849609s-0.1865234-0.3134766-0.3203125-0.4301758c-0.1328125-0.1162109-0.2910156-0.203125-0.4746094-0.2597656s-0.3808594-0.0849609-0.5947266-0.0849609c-0.1806641,0-0.3505859,0.0097656-0.5097656,0.0297852v-0.7197266C15.3330078,10.7895508,15.3632812,10.7929688,15.3896484,10.7929688z"/></g></svg>