<svg version="1.1" xmlns="http://www.w3.org/2000/svg" xmlns:xlink="http://www.w3.org/1999/xlink" viewBox="0 0 22 22"><g><path d="M20,20H2V7h18V20z M3,19h16V8H3V19z"/><path d="M8,6H5V2h3V6z M6,5h1V3H6V5z"/><path d="M17,6h-3V2h3V6z M15,5h1V3h-1V5z"/><path d="M8.8,15.8v-4.1H7.4v-0.5c0.2,0,0.4,0,0.6,0s0.3-0.1,0.5-0.2c0.1-0.1,0.3-0.2,0.4-0.3C8.9,10.6,9,10.4,9,10.2h0.5v5.7H8.8z"/><path d="M14.4,11.8c-0.3,0.4-0.5,0.8-0.7,1.2c-0.2,0.4-0.4,0.9-0.5,1.4c-0.1,0.5-0.2,0.9-0.2,1.4h-0.8c0-0.5,0.1-0.9,0.2-1.4c0.1-0.5,0.3-0.9,0.5-1.3s0.4-0.8,0.7-1.2c0.3-0.4,0.5-0.7,0.8-1h-3v-0.6h3.7v0.6C14.9,11.1,14.6,11.5,14.4,11.8z"/><rect x="2" y="3" width="1" height="4"/><rect x="3" y="3" width="2" height="1"/><rect x="8" y="3" width="6" height="1"/><rect x="17" y="3" width="3" height="1"/><rect x="19" y="4" width="1" height="3"/></g></svg>