<svg width="24" height="24" viewBox="0 0 24 24" xmlns="http://www.w3.org/2000/svg">
<path fill-rule="evenodd" clip-rule="evenodd" d="M5.21978 9.01562C5.43426 8.80141 5.75707 8.73656 6.03717 8.85254C6.31717 8.96868 6.49999 9.24275 6.50006 9.5459V15.5459C6.50006 15.96 6.16405 16.2956 5.75006 16.2959C5.33584 16.2959 5.00006 15.9601 5.00006 15.5459V11.3564L4.28033 12.0762C3.98749 12.369 3.51269 12.3689 3.21978 12.0762C2.92689 11.7833 2.92689 11.3085 3.21978 11.0156L5.21978 9.01562ZM19.6915 8.55176C20.2861 8.61239 20.7501 9.11496 20.7501 9.72559C20.75 10.1296 20.5894 10.5171 20.3038 10.8027L19.3809 11.7246C20.1858 12.0674 20.7501 12.8658 20.7501 13.7959C20.7501 15.0385 19.7427 16.0459 18.5001 16.0459H17.0001C16.5858 16.0459 16.2501 15.7101 16.2501 15.2959C16.2501 14.8817 16.5858 14.5459 17.0001 14.5459H18.5001C18.9142 14.5459 19.2501 14.2101 19.2501 13.7959C19.2501 13.3817 18.9142 13.0459 18.5001 13.0459H17.7501C17.4467 13.0459 17.1728 12.8633 17.0567 12.583C16.9407 12.3028 17.0053 11.9801 17.2198 11.7656L18.9395 10.0459H17.0001C16.5858 10.0459 16.2501 9.71011 16.2501 9.2959C16.2501 8.88168 16.5858 8.5459 17.0001 8.5459H19.5704L19.6915 8.55176ZM11.8282 8.62988C13.1198 8.63005 14.1669 9.67711 14.1671 10.9688C14.1669 11.6627 13.8584 12.3213 13.3253 12.7656L11.2891 14.4629H13.4171C13.8311 14.463 14.1669 14.7989 14.1671 15.2129C14.1668 15.6268 13.831 15.9628 13.4171 15.9629H10.3145C9.72078 15.9629 9.23204 15.5117 9.17291 14.9336L9.16705 14.8164L9.17389 14.6895C9.20636 14.3966 9.35131 14.1253 9.58014 13.9346L12.3653 11.6133C12.5563 11.454 12.6669 11.2175 12.6671 10.9688C12.6669 10.5055 12.2914 10.13 11.8282 10.1299H11.6671C11.1148 10.1299 10.667 10.5776 10.667 11.1299C10.6668 11.5438 10.331 11.8798 9.91705 11.8799C9.503 11.8799 9.16731 11.5439 9.16705 11.1299C9.16705 9.74917 10.2863 8.62988 11.6671 8.62988H11.8282Z" fill="#444444"/>
</svg>
