<svg version="1.1" xmlns="http://www.w3.org/2000/svg" xmlns:xlink="http://www.w3.org/1999/xlink" viewBox="0 0 22 22"><g><path d="M5.5234375,6.4316406L8.8710938,15H7.6113281l-0.9355469-2.5800781h-3.625L2.0917969,15H0.9277344l3.3359375-8.5683594H5.5234375z M6.3154297,11.4599609L4.8876953,7.4638672H4.8632812l-1.4511719,3.9960938H6.3154297z"/><path d="M15.21875,6.4316406c0.1845703,0,0.3828125,0.0019531,0.5947266,0.0058594s0.421875,0.0166016,0.6298828,0.0371094c0.2080078,0.0195312,0.4023438,0.0488281,0.5820312,0.0898438c0.1796875,0.0390625,0.3339844,0.0996094,0.4619141,0.1796875c0.2802734,0.1679688,0.5185547,0.4003906,0.7138672,0.6953125c0.1962891,0.296875,0.2939453,0.6601562,0.2939453,1.0927734c0,0.4560547-0.1103516,0.8505859-0.3291016,1.1816406c-0.2207031,0.3320312-0.5351562,0.578125-0.9433594,0.7382812v0.0244141c0.5292969,0.1113281,0.9326172,0.3515625,1.2128906,0.71875c0.2792969,0.3691406,0.4199219,0.8164062,0.4199219,1.3447266c0,0.3115234-0.0566406,0.6162109-0.1679688,0.9121094c-0.1123047,0.2958984-0.2783203,0.5576172-0.4980469,0.7861328c-0.2207031,0.2275391-0.4921875,0.4121094-0.8164062,0.5517578S16.6757812,15,16.2519531,15h-4.140625V6.4316406H15.21875z M15.53125,10.1162109c0.6484375,0,1.1132812-0.1142578,1.3984375-0.3427734c0.2832031-0.2275391,0.4257812-0.5693359,0.4257812-1.0253906c0-0.3046875-0.0488281-0.5439453-0.1445312-0.7207031c-0.0957031-0.1757812-0.2275391-0.3115234-0.3955078-0.4072266c-0.1679688-0.0966797-0.3623047-0.1582031-0.5820312-0.1865234C16.0136719,7.40625,15.7792969,7.3925781,15.53125,7.3925781h-2.2792969v2.7236328H15.53125z M16.1074219,14.0400391c0.5039062,0,0.8984375-0.1357422,1.1816406-0.4082031c0.2841797-0.2714844,0.4257812-0.6474609,0.4257812-1.1279297c0-0.2792969-0.0517578-0.5117188-0.15625-0.6953125c-0.1035156-0.1845703-0.2412109-0.3300781-0.4130859-0.4384766c-0.1728516-0.1083984-0.3701172-0.1845703-0.5947266-0.2275391c-0.2236328-0.0449219-0.4550781-0.0664062-0.6953125-0.0664062h-2.6035156v2.9638672H16.1074219z"/></g></svg>