<svg version="1.1" xmlns="http://www.w3.org/2000/svg" xmlns:xlink="http://www.w3.org/1999/xlink" viewBox="0 0 22 22"><g><path d="M2.7998047,6.4970703c0.0957031-0.4375,0.2578125-0.8251953,0.4863281-1.161132C3.5136719,5,3.8134766,4.7333984,4.1855469,4.5351562s0.8339844-0.296875,1.3867188-0.296875c0.5634766,0,1.0283203,0.0957031,1.3945312,0.2880859c0.3662109,0.1914062,0.6601562,0.4492188,0.8818359,0.7734375c0.2226562,0.3242188,0.3779297,0.7050781,0.46875,1.1435547c0.0898438,0.4375,0.1347656,0.9023438,0.1347656,1.3945312c0,0.4677734-0.0517578,0.9208984-0.1533203,1.359375c-0.1015625,0.4375-0.2695312,0.8222656-0.5039062,1.1513672c-0.234375,0.3300781-0.53125,0.5976562-0.890625,0.8017578c-0.3603516,0.2041016-0.8046875,0.3056641-1.3320312,0.3056641c-0.5400391,0-0.9960938-0.0927734-1.3681641-0.2792969c-0.3720703-0.1855469-0.671875-0.4404297-0.9003906-0.7646484c-0.2275391-0.3242188-0.3925781-0.7021484-0.4951172-1.1337891C2.7070312,8.8457031,2.65625,8.3837891,2.65625,7.8916016C2.65625,7.4003906,2.7041016,6.9355469,2.7998047,6.4970703z M4.0507812,8.7109375c0.0302734,0.3056641,0.0996094,0.5878906,0.2070312,0.8457031c0.1083984,0.2587891,0.2607422,0.4746094,0.4589844,0.6484375s0.4648438,0.2607422,0.8007812,0.2607422c0.3486328,0,0.6240234-0.0839844,0.828125-0.2519531s0.3632812-0.3808594,0.4775391-0.6386719c0.1132812-0.2578125,0.1884766-0.5429688,0.2246094-0.8554688c0.0361328-0.3115234,0.0537109-0.6054688,0.0537109-0.8818359c0-0.2636719-0.0146484-0.5488281-0.0449219-0.8544922C7.0273438,6.6767578,6.9580078,6.3955078,6.8496094,6.1367188C6.7421875,5.8789062,6.5888672,5.6630859,6.390625,5.4892578C6.1933594,5.3154297,5.9199219,5.2275391,5.5722656,5.2275391c-0.3359375,0-0.6064453,0.0878906-0.8105469,0.2617188S4.3984375,5.8789062,4.2851562,6.1367188C4.1708984,6.3955078,4.0957031,6.6767578,4.0595703,6.9833984C4.0244141,7.2890625,4.0058594,7.5800781,4.0058594,7.8564453C4.0058594,8.1201172,4.0205078,8.4052734,4.0507812,8.7109375z M15.5976562,4.0039062L5.9316406,17.3779297H4.3837891l9.6845703-13.3740234H15.5976562z M11.6923828,12.2568359c0.0957031-0.4375,0.2578125-0.8251953,0.4853516-1.1611328c0.2285156-0.3359375,0.5283203-0.6025391,0.9003906-0.8007812s0.8339844-0.296875,1.3857422-0.296875c0.5644531,0,1.0292969,0.0957031,1.3955078,0.2880859c0.3652344,0.1923828,0.6591797,0.4501953,0.8818359,0.7734375c0.2216797,0.3242188,0.3779297,0.7050781,0.4677734,1.1435547s0.1347656,0.9033203,0.1347656,1.3945312c0,0.46875-0.0507812,0.921875-0.1523438,1.359375c-0.1025391,0.4384766-0.2705078,0.8222656-0.5048828,1.1523438c-0.2333984,0.3300781-0.5302734,0.59375-0.890625,0.7919922c-0.3603516,0.1972656-0.8037109,0.296875-1.3320312,0.296875c-0.5400391,0-0.9960938-0.09375-1.3681641-0.2792969s-0.671875-0.4375-0.8994141-0.7558594c-0.2285156-0.3183594-0.3935547-0.6933594-0.4951172-1.125c-0.1025391-0.4316406-0.1533203-0.8935547-0.1533203-1.3857422S11.5957031,12.6953125,11.6923828,12.2568359z M12.9433594,14.4707031c0.0292969,0.3066406,0.0986328,0.5888672,0.2070312,0.8466797c0.1074219,0.2578125,0.2607422,0.4736328,0.4589844,0.6474609c0.1972656,0.1738281,0.4648438,0.2607422,0.8007812,0.2607422c0.3476562,0,0.6240234-0.0830078,0.828125-0.2519531c0.2041016-0.1679688,0.3623047-0.3808594,0.4765625-0.6386719s0.1894531-0.5429688,0.2255859-0.8544922c0.0351562-0.3125,0.0537109-0.6064453,0.0537109-0.8828125c0-0.2636719-0.015625-0.5488281-0.0449219-0.8544922c-0.0302734-0.3066406-0.0996094-0.5878906-0.2070312-0.8457031c-0.1083984-0.2587891-0.2607422-0.4746094-0.4589844-0.6484375s-0.4716797-0.2607422-0.8193359-0.2607422c-0.3359375,0-0.6064453,0.0869141-0.8095703,0.2607422c-0.2041016,0.1738281-0.3632812,0.3896484-0.4775391,0.6484375c-0.1142578,0.2578125-0.1884766,0.5390625-0.2246094,0.8457031c-0.0361328,0.3056641-0.0537109,0.5966797-0.0537109,0.8730469C12.8984375,13.8798828,12.9130859,14.1650391,12.9433594,14.4707031z"/></g></svg>