<svg xmlns="http://www.w3.org/2000/svg" version="1.1" x="0" y="0" viewBox="-238 240 22 22" xml:space="preserve"><polygon class="st0" points="-230 256.4 -230.7 255.7 -233 258.1 -233 242 -234 242 -234 258.1 -236.3 255.7 -237 256.4 -233.5 260 -233.5 260 -233.5 260 "/><path class="st0" d="M-226 249.55L-223.1 242h1.08l3.09 7.55h-1.14l-0.88-2.29h-3.16l-0.83 2.29H-226zM-223.82 246.45h2.56l-0.79-2.09c-0.24-0.64-0.42-1.16-0.54-1.57 -0.1 0.48-0.23 0.97-0.41 1.44L-223.82 246.45z"/><path class="st0" d="M-225.93 259v-0.93l3.87-4.84c0.28-0.34 0.54-0.64 0.78-0.9h-4.21v-0.89h5.41v0.89l-4.24 5.24 -0.46 0.53h4.82V259H-225.93z"/></svg>