<svg width="24" height="24" viewBox="0 0 24 24" xmlns="http://www.w3.org/2000/svg">
<path fill-rule="evenodd" clip-rule="evenodd" d="M17.8881 5.05302C18.181 4.76036 18.6558 4.76029 18.9486 5.05302C19.2413 5.34591 19.2414 5.82072 18.9486 6.11357L13.0599 12.0003L18.9486 17.888C19.2414 18.1808 19.2413 18.6556 18.9486 18.9485C18.6558 19.2412 18.1809 19.2412 17.8881 18.9485L11.9984 13.0608L6.11072 18.9485C5.81786 19.2413 5.34305 19.2413 5.05017 18.9485C4.75736 18.6556 4.75737 18.1808 5.05017 17.888L10.9379 12.0003L5.05017 6.11454C4.75733 5.82178 4.75759 5.34695 5.05017 5.054C5.34295 4.76129 5.81781 4.76048 6.11072 5.05302L11.9994 10.9397L17.8881 5.05302Z" fill="#444444"/>
</svg>
