<svg xmlns="http://www.w3.org/2000/svg" width="24" height="24" viewBox="0 0 24 24"><path fill-rule="evenodd" clip-rule="evenodd" d="M18 12C14.6863 12 12 14.6863 12 18C12 21.3137 14.6863 24 18 24C21.3137 24 24 21.3137 24 18C24 14.6863 21.3137 12 18 12ZM18.7458 22V16.7307H21.2522V15.4956H18.7458H17.2265H14.7478V16.7307H17.2265V22H18.7458Z" fill="#A8A8A8"/><path fill-rule="evenodd" clip-rule="evenodd" d="M4 1C2.34315 1 1 2.34315 1 4V20C1 21.6569 2.34315 23 4 23H13.101C11.8045 21.7295 11 19.9587 11 18H4V6H20V11.2899C21.1523 11.6328 22.1803 12.2645 23 13.101V4C23 2.34315 21.6569 1 20 1H4ZM18 11H19V7H12.5V11H18ZM11.5 15.3969C11.2965 15.9046 11.1508 16.4417 11.0709 17H5V12H11.5V15.3969ZM14.3924 12C13.6649 12.4384 13.0236 13.0053 12.5 13.6694V12H14.3924ZM5 7H11.5V11H5V7Z" fill="#40865C"/></svg>