<svg width="24" height="24" viewBox="0 0 24 24" xmlns="http://www.w3.org/2000/svg">
<path d="M18.4697 4.26562C18.7626 3.97273 19.2374 3.97273 19.5303 4.26562C19.8232 4.55852 19.8232 5.03328 19.5303 5.32617L5.53027 19.3262C5.23738 19.6191 4.76262 19.6191 4.46973 19.3262C4.17683 19.0333 4.17683 18.5585 4.46973 18.2656L18.4697 4.26562ZM16.5 13.0459C18.2949 13.0459 19.75 14.501 19.75 16.2959C19.75 18.0908 18.2949 19.5459 16.5 19.5459C14.7051 19.5459 13.25 18.0908 13.25 16.2959C13.25 14.501 14.7051 13.0459 16.5 13.0459ZM16.5 14.5459C15.5335 14.5459 14.75 15.3294 14.75 16.2959C14.75 17.2624 15.5335 18.0459 16.5 18.0459C17.4665 18.0459 18.25 17.2624 18.25 16.2959C18.25 15.3294 17.4665 14.5459 16.5 14.5459ZM7.5 4.0459C9.29493 4.0459 10.75 5.50097 10.75 7.2959C10.75 9.09082 9.29493 10.5459 7.5 10.5459C5.70507 10.5459 4.25 9.09082 4.25 7.2959C4.25 5.50097 5.70507 4.0459 7.5 4.0459ZM7.5 5.5459C6.5335 5.5459 5.75 6.3294 5.75 7.2959C5.75 8.2624 6.5335 9.0459 7.5 9.0459C8.4665 9.0459 9.25 8.2624 9.25 7.2959C9.25 6.3294 8.4665 5.5459 7.5 5.5459Z" fill="#444444"/>
</svg>
