<svg version="1.1" xmlns="http://www.w3.org/2000/svg" xmlns:xlink="http://www.w3.org/1999/xlink" viewBox="0 0 22 22"><g><path d="M4.9804688,15.8330078v-5.5878906H2.9570312V9.4970703c0.2636719,0,0.5195312-0.0200195,0.7695312-0.0605469c0.2490234-0.0400391,0.4746094-0.1157227,0.6757812-0.2255859c0.2021484-0.1098633,0.3730469-0.2602539,0.5117188-0.4511719c0.1396484-0.1904297,0.234375-0.4321289,0.2871094-0.7255859h0.7148438v7.7988281H4.9804688z"/><path d="M8.5996094,11.1137695c0.0146484-0.3076172,0.0507812-0.6083984,0.1103516-0.9018555c0.0585938-0.2929688,0.1425781-0.5717773,0.2529297-0.8359375c0.109375-0.2641602,0.2597656-0.4951172,0.4511719-0.6928711C9.6044922,8.4848633,9.84375,8.3276367,10.1347656,8.2099609c0.2890625-0.1171875,0.6357422-0.1757812,1.0390625-0.1757812s0.75,0.0585938,1.0390625,0.1757812c0.2900391,0.1176758,0.5302734,0.2749023,0.7207031,0.4731445C13.125,8.8808594,13.2753906,9.1118164,13.3847656,9.3759766s0.1943359,0.5429688,0.2529297,0.8359375c0.0585938,0.293457,0.0947266,0.5942383,0.1103516,0.9018555c0.0136719,0.3081055,0.0214844,0.6054688,0.0214844,0.8911133c0,0.2861328-0.0078125,0.5830078-0.0214844,0.8911133c-0.015625,0.3081055-0.0517578,0.6088867-0.1103516,0.9018555c-0.0585938,0.293457-0.1435547,0.5703125-0.2529297,0.8305664s-0.2597656,0.4897461-0.4511719,0.6875c-0.1904297,0.1982422-0.4287109,0.3540039-0.7148438,0.4677734c-0.2861328,0.1132812-0.6347656,0.1704102-1.0449219,0.1704102c-0.4033203,0-0.75-0.0571289-1.0390625-0.1704102C9.84375,15.6699219,9.6044922,15.5141602,9.4140625,15.315918c-0.1914062-0.1977539-0.3417969-0.4272461-0.4511719-0.6875c-0.1103516-0.2602539-0.1943359-0.5371094-0.2529297-0.8305664c-0.0595703-0.2929688-0.0957031-0.59375-0.1103516-0.9018555S8.578125,12.2910156,8.578125,12.0048828C8.578125,11.7192383,8.5849609,11.421875,8.5996094,11.1137695z M9.5957031,12.9785156c0.0175781,0.362793,0.0761719,0.7041016,0.1757812,1.0229492c0.0986328,0.3188477,0.2578125,0.5883789,0.4785156,0.8085938c0.2197266,0.2197266,0.5273438,0.3300781,0.9238281,0.3300781s0.7041016-0.1103516,0.9238281-0.3300781c0.2207031-0.2202148,0.3789062-0.4897461,0.4785156-0.8085938s0.1582031-0.6601562,0.1757812-1.0229492c0.0185547-0.362793,0.0273438-0.690918,0.0273438-0.984375c0-0.190918-0.0019531-0.4018555-0.0048828-0.6328125c-0.0039062-0.230957-0.0224609-0.4619141-0.0556641-0.6928711s-0.0800781-0.456543-0.1425781-0.6762695c-0.0625-0.2202148-0.1542969-0.4125977-0.2753906-0.5776367s-0.2734375-0.2988281-0.4560547-0.4013672C11.6611328,8.9101562,11.4375,8.8588867,11.1738281,8.8588867s-0.4882812,0.0512695-0.6708984,0.1542969c-0.1835938,0.1025391-0.3359375,0.2363281-0.4560547,0.4013672C9.9257812,9.5795898,9.8339844,9.7719727,9.7714844,9.9921875c-0.0625,0.2197266-0.1103516,0.4453125-0.1425781,0.6762695c-0.0332031,0.230957-0.0527344,0.4619141-0.0556641,0.6928711c-0.0039062,0.230957-0.0048828,0.4418945-0.0048828,0.6328125C9.5683594,12.2875977,9.5761719,12.6157227,9.5957031,12.9785156z"/><path d="M14.3300781,5.1098633c0.0546875-0.1835938,0.1425781-0.3427734,0.2597656-0.4770508c0.1191406-0.1337891,0.265625-0.2387695,0.4414062-0.3149414c0.1757812-0.0756836,0.3759766-0.1137695,0.5996094-0.1137695c0.1845703,0,0.3574219,0.0268555,0.5195312,0.0810547C16.3125,4.3388672,16.453125,4.4169922,16.5742188,4.519043c0.1191406,0.1020508,0.2148438,0.2290039,0.2841797,0.3808594c0.0693359,0.1523438,0.1044922,0.328125,0.1044922,0.5283203c0,0.1879883-0.0283203,0.3540039-0.0859375,0.4975586c-0.0585938,0.144043-0.1347656,0.2734375-0.2314453,0.387207c-0.0966797,0.1142578-0.2060547,0.2172852-0.3300781,0.309082s-0.2519531,0.1801758-0.3837891,0.2641602c-0.1328125,0.0800781-0.2636719,0.1586914-0.3964844,0.2368164c-0.1318359,0.078125-0.2519531,0.1611328-0.3632812,0.2490234c-0.109375,0.0878906-0.203125,0.1831055-0.28125,0.2851562c-0.078125,0.1015625-0.1289062,0.21875-0.1533203,0.3505859h2.1845703v0.4501953h-2.7783203c0.0205078-0.2519531,0.0654297-0.4667969,0.1347656-0.6450195c0.0703125-0.1777344,0.1591797-0.3330078,0.2666016-0.4648438C14.6533203,7.2158203,14.7753906,7.1000977,14.9121094,7c0.1347656-0.1000977,0.2773438-0.1938477,0.4257812-0.2822266c0.1796875-0.1118164,0.3378906-0.2148438,0.4736328-0.3085938c0.1357422-0.0942383,0.2490234-0.1889648,0.3388672-0.2851562s0.1582031-0.2001953,0.2041016-0.3120117s0.0693359-0.2421875,0.0693359-0.3901367c0-0.1157227-0.0224609-0.2207031-0.0664062-0.3149414c-0.0439453-0.09375-0.1035156-0.1748047-0.1767578-0.2431641c-0.0742188-0.0678711-0.1611328-0.1196289-0.2607422-0.1557617c-0.1005859-0.0361328-0.2070312-0.0541992-0.3183594-0.0541992c-0.1484375,0-0.2753906,0.03125-0.3808594,0.0932617c-0.1064453,0.0620117-0.1933594,0.1430664-0.2617188,0.2431641C14.8916016,5.0898438,14.8417969,5.203125,14.8125,5.3291016s-0.0429688,0.2529297-0.0390625,0.3808594h-0.5097656C14.2519531,5.4941406,14.2734375,5.2939453,14.3300781,5.1098633z"/></g></svg>