<svg width="24" height="24" viewBox="0 0 24 24" xmlns="http://www.w3.org/2000/svg">
<path fill-rule="evenodd" clip-rule="evenodd" d="M8.50027 14.2961C9.05221 14.2964 9.50004 14.7442 9.50027 15.2961C9.50027 15.8482 9.05235 16.2959 8.50027 16.2961C7.94799 16.2961 7.50027 15.8484 7.50027 15.2961C7.50051 14.744 7.94814 14.2961 8.50027 14.2961ZM19.0003 8.54709C20.2427 8.54733 21.2503 9.5546 21.2503 10.7971V13.7971C21.2501 15.0394 20.2426 16.0468 19.0003 16.0471C17.7578 16.0471 16.7505 15.0396 16.7503 13.7971V10.7971C16.7503 9.55444 17.7576 8.54709 19.0003 8.54709ZM13.0003 8.54611C14.2426 8.54635 15.25 9.55382 15.2503 10.7961V13.7961C15.2503 15.0386 14.2427 16.0459 13.0003 16.0461C11.7576 16.0461 10.7503 15.0387 10.7503 13.7961V10.7961C10.7505 9.55367 11.7578 8.54611 13.0003 8.54611ZM4.96902 8.76486C5.18346 8.55059 5.5063 8.48587 5.78641 8.60177C6.06653 8.7178 6.24912 8.99196 6.2493 9.29513V15.2951C6.2493 15.7093 5.91351 16.0451 5.4993 16.0451C5.0851 16.0451 4.7493 15.7093 4.7493 15.2951V11.1057L4.02957 11.8254C3.73668 12.1183 3.26192 12.1183 2.96902 11.8254C2.67637 11.5325 2.67621 11.0577 2.96902 10.7649L4.96902 8.76486ZM19.0003 10.0471C18.5861 10.0471 18.2503 10.3829 18.2503 10.7971V13.7971C18.2505 14.2111 18.5862 14.5471 19.0003 14.5471C19.4142 14.5468 19.7501 14.211 19.7503 13.7971V10.7971C19.7503 10.383 19.4143 10.0473 19.0003 10.0471ZM13.0003 10.0461C12.5862 10.0461 12.2505 10.3821 12.2503 10.7961V13.7961C12.2503 14.2103 12.5861 14.5461 13.0003 14.5461C13.4143 14.5459 13.7503 14.2102 13.7503 13.7961V10.7961C13.75 10.3822 13.4141 10.0464 13.0003 10.0461Z" fill="#444444"/>
</svg>
