<svg version="1.1" xmlns="http://www.w3.org/2000/svg" xmlns:xlink="http://www.w3.org/1999/xlink" viewBox="0 0 22 22"><g><path d="M4.7700195,2.8598633L7.5600586,10h-1.050293L5.7299805,7.8500977H2.7099609L1.9101562,10H0.9399414l2.7802734-7.1401367H4.7700195z M5.4301758,7.0498047L4.2402344,3.7202148H4.2202148L3.0097656,7.0498047H5.4301758z"/><path d="M10.8500977,2.8598633c0.1533203,0,0.3183594,0.0019531,0.4951172,0.0053711c0.1762695,0.003418,0.3515625,0.0131836,0.5249023,0.0297852s0.3349609,0.0415039,0.4848633,0.0751953c0.1499023,0.0332031,0.2783203,0.0830078,0.3847656,0.1499023c0.2333984,0.1396484,0.4316406,0.3334961,0.5952148,0.5800781c0.1630859,0.246582,0.2451172,0.5498047,0.2451172,0.909668c0,0.3803711-0.0917969,0.7084961-0.2749023,0.9853516c-0.1835938,0.2763672-0.4453125,0.4814453-0.7851562,0.6147461v0.0200195c0.4399414,0.0932617,0.7763672,0.293457,1.0097656,0.6000977s0.3500977,0.6796875,0.3500977,1.1201172c0,0.2597656-0.0463867,0.5131836-0.1401367,0.7597656c-0.0932617,0.246582-0.2314453,0.4648438-0.4145508,0.6552734c-0.1835938,0.1899414-0.4101562,0.3432617-0.6801758,0.4599609S12.0634766,10,11.7099609,10H8.2597656V2.8598633H10.8500977z M11.1098633,5.9301758c0.5400391,0,0.9282227-0.0952148,1.1650391-0.2851562s0.3549805-0.4750977,0.3549805-0.8549805c0-0.253418-0.0400391-0.453125-0.1201172-0.6000977c-0.0795898-0.1464844-0.1899414-0.2597656-0.3295898-0.3398438c-0.1401367-0.0800781-0.3017578-0.1318359-0.4853516-0.1552734c-0.1831055-0.0229492-0.378418-0.034668-0.5849609-0.034668H9.2099609v2.2700195H11.1098633z M11.5898438,9.2001953c0.4199219,0,0.7485352-0.1132812,0.9853516-0.340332c0.2363281-0.2265625,0.3549805-0.5400391,0.3549805-0.9399414c0-0.2333984-0.043457-0.4262695-0.1303711-0.5800781c-0.0864258-0.1533203-0.2016602-0.2749023-0.3447266-0.3647461c-0.1435547-0.090332-0.3085938-0.1533203-0.4951172-0.1899414s-0.3798828-0.0551758-0.5800781-0.0551758H9.2099609v2.4702148H11.5898438z"/><path d="M19.425293,3.8701172c-0.3637695-0.253418-0.7954102-0.3798828-1.2954102-0.3798828c-0.4267578,0-0.7915039,0.0795898-1.0947266,0.2397461c-0.3037109,0.1601562-0.5537109,0.375-0.75,0.6450195c-0.1967773,0.2700195-0.3417969,0.5786133-0.4350586,0.9248047c-0.0932617,0.3466797-0.1401367,0.7070312-0.1401367,1.0800781c0,0.4067383,0.046875,0.7919922,0.1401367,1.1552734s0.2382812,0.6796875,0.4350586,0.949707c0.1962891,0.2700195,0.4482422,0.4853516,0.7548828,0.6450195c0.3066406,0.1601562,0.6733398,0.2402344,1.1000977,0.2402344c0.3129883,0,0.5913086-0.0517578,0.8349609-0.1552734c0.2431641-0.1030273,0.453125-0.246582,0.6298828-0.4296875c0.1767578-0.1835938,0.3149414-0.4018555,0.4150391-0.6552734c0.1000977-0.2529297,0.1601562-0.5263672,0.1801758-0.8198242h0.949707c-0.0932617,0.8999023-0.4033203,1.6000977-0.9296875,2.1000977c-0.5268555,0.5-1.2470703,0.75-2.1601562,0.75c-0.5532227,0-1.0366211-0.0952148-1.4501953-0.2851562c-0.4130859-0.1899414-0.7563477-0.4516602-1.0297852-0.7851562c-0.2734375-0.3330078-0.4785156-0.7265625-0.6152344-1.1796875c-0.1367188-0.4536133-0.2045898-0.9399414-0.2045898-1.4599609s0.0732422-1.0083008,0.2197266-1.465332c0.1464844-0.456543,0.3618164-0.8549805,0.6450195-1.1948242s0.6367188-0.6083984,1.0600586-0.8051758c0.4233398-0.1962891,0.9082031-0.2949219,1.4550781-0.2949219c0.3730469,0,0.7265625,0.050293,1.0600586,0.1499023c0.3330078,0.1000977,0.6298828,0.2470703,0.8896484,0.4399414c0.2602539,0.1938477,0.4765625,0.4350586,0.6503906,0.7250977c0.1733398,0.2900391,0.2866211,0.625,0.3398438,1.0048828h-0.9501953C20.0234375,4.503418,19.7885742,4.1235352,19.425293,3.8701172z"/><path d="M3.7099609,19v-5.0800781H1.8701172v-0.6796875c0.2397461,0,0.4731445-0.0185547,0.699707-0.0551758s0.4316406-0.1049805,0.6152344-0.2050781c0.1831055-0.1000977,0.3383789-0.2363281,0.4648438-0.4101562c0.1264648-0.1733398,0.2133789-0.3930664,0.2602539-0.659668h0.6499023V19H3.7099609z"/><path d="M8.7099609,13.4199219C8.8032227,13.1132812,8.9482422,12.8486328,9.1450195,12.625c0.1967773-0.2231445,0.4418945-0.3984375,0.7353516-0.5249023c0.2929688-0.1264648,0.6264648-0.1899414,1-0.1899414c0.3061523,0,0.5947266,0.0449219,0.8647461,0.1347656S12.25,12.2651367,12.4501953,12.4350586s0.3583984,0.3818359,0.4750977,0.6347656c0.1162109,0.253418,0.1748047,0.546875,0.1748047,0.8803711c0,0.3134766-0.0483398,0.5898438-0.1450195,0.8295898c-0.0966797,0.2402344-0.2250977,0.4550781-0.3847656,0.6450195c-0.1601562,0.1904297-0.34375,0.3618164-0.550293,0.5151367s-0.4199219,0.300293-0.6396484,0.4399414c-0.2202148,0.1337891-0.4404297,0.2651367-0.6601562,0.3950195C10.5,16.9047852,10.2983398,17.043457,10.1152344,17.1899414c-0.1835938,0.1469727-0.3398438,0.3051758-0.4702148,0.4750977C9.5151367,17.8349609,9.4301758,18.0297852,9.3901367,18.25h3.6401367V19H8.4003906C8.4335938,18.5800781,8.5083008,18.2216797,8.625,17.9248047c0.1166992-0.2963867,0.2651367-0.5546875,0.4453125-0.7749023C9.25,16.9301758,9.4536133,16.7368164,9.6801758,16.5698242c0.2265625-0.1665039,0.4633789-0.3232422,0.7099609-0.4697266c0.2998047-0.1865234,0.5634766-0.3583984,0.7900391-0.5151367s0.4150391-0.3149414,0.5649414-0.4750977c0.1499023-0.159668,0.2631836-0.3330078,0.3398438-0.5200195c0.0766602-0.1865234,0.1152344-0.4033203,0.1152344-0.6499023c0-0.1933594-0.0366211-0.3681641-0.1098633-0.5249023c-0.0737305-0.1567383-0.171875-0.2915039-0.2954102-0.4052734c-0.1230469-0.1132812-0.2680664-0.199707-0.4345703-0.2597656c-0.1669922-0.0600586-0.34375-0.0898438-0.5302734-0.0898438c-0.246582,0-0.4584961,0.0517578-0.6347656,0.1547852c-0.1767578,0.1035156-0.3217773,0.2382812-0.4350586,0.4052734c-0.1137695,0.1665039-0.1953125,0.3549805-0.2451172,0.5649414s-0.0717773,0.4213867-0.0649414,0.6347656H8.6000977C8.5800781,14.0600586,8.6166992,13.7265625,8.7099609,13.4199219z"/><path d="M17.5898438,14.9599609c0.0332031,0,0.0664062,0,0.1000977,0h0.1796875c0.1801758,0,0.3515625-0.0249023,0.5151367-0.0751953c0.1635742-0.0498047,0.3066406-0.1230469,0.4301758-0.2197266c0.1230469-0.0966797,0.2216797-0.2182617,0.2949219-0.3652344c0.0732422-0.1464844,0.1098633-0.3129883,0.1098633-0.5c0-0.3798828-0.1201172-0.6650391-0.3598633-0.8549805c-0.2402344-0.1899414-0.5400391-0.284668-0.8999023-0.284668c-0.2270508,0-0.425293,0.0415039-0.5952148,0.125s-0.3100586,0.1948242-0.4199219,0.3349609c-0.1098633,0.1396484-0.1918945,0.3032227-0.2451172,0.4897461c-0.0532227,0.1870117-0.0800781,0.3837891-0.0800781,0.590332h-0.8496094c0.0131836-0.340332,0.0678711-0.6503906,0.1650391-0.9301758C16.03125,12.9902344,16.1699219,12.75,16.3496094,12.5498047c0.1801758-0.199707,0.4052734-0.3564453,0.675293-0.4697266s0.581543-0.1699219,0.9350586-0.1699219c0.3066406,0,0.5913086,0.0380859,0.8549805,0.1147461C19.078125,12.1015625,19.3061523,12.2167969,19.5,12.3701172c0.1928711,0.1533203,0.3447266,0.3500977,0.4545898,0.5898438c0.1103516,0.2402344,0.1650391,0.5234375,0.1650391,0.8500977c0,0.3198242-0.0932617,0.6035156-0.2797852,0.8500977s-0.4199219,0.4331055-0.7001953,0.5600586v0.0200195c0.4335938,0.0932617,0.7553711,0.2963867,0.965332,0.6098633s0.3149414,0.6831055,0.3149414,1.1098633c0,0.3535156-0.0649414,0.6650391-0.1953125,0.9350586c-0.1298828,0.2700195-0.3046875,0.4951172-0.5249023,0.6748047c-0.2197266,0.1801758-0.4785156,0.3149414-0.7749023,0.4052734c-0.296875,0.0898438-0.6118164,0.1347656-0.9448242,0.1347656c-0.3603516,0-0.6870117-0.0498047-0.9799805-0.1499023c-0.293457-0.1000977-0.543457-0.2480469-0.75-0.4448242c-0.2070312-0.1967773-0.3652344-0.4384766-0.4750977-0.7250977s-0.1616211-0.6132812-0.1552734-0.9799805h0.8500977c0.0131836,0.4599609,0.1464844,0.8349609,0.3999023,1.125s0.6235352,0.4350586,1.1103516,0.4350586c0.206543,0,0.4033203-0.0317383,0.5898438-0.0952148c0.1865234-0.0629883,0.3500977-0.1533203,0.4902344-0.2700195c0.1396484-0.1162109,0.2514648-0.2597656,0.3349609-0.4296875c0.0830078-0.1704102,0.125-0.3618164,0.125-0.5751953c0-0.2202148-0.0400391-0.4150391-0.1201172-0.5849609s-0.1870117-0.3134766-0.3203125-0.4301758c-0.1333008-0.1162109-0.2915039-0.203125-0.4746094-0.2597656c-0.1835938-0.0566406-0.3818359-0.0849609-0.5952148-0.0849609c-0.1801758,0-0.3500977,0.0097656-0.5097656,0.0297852v-0.7197266C17.5332031,14.956543,17.5629883,14.9599609,17.5898438,14.9599609z"/></g></svg>