<svg version="1.1" xmlns="http://www.w3.org/2000/svg" xmlns:xlink="http://www.w3.org/1999/xlink" viewBox="0 0 22 22"><g><path d="M3.7099609,13.8330078V8.7529297H1.8701172V8.0732422c0.2397461,0,0.4731445-0.0185547,0.699707-0.0551758s0.4316406-0.1049805,0.6152344-0.2050781C3.3681641,7.7128906,3.5234375,7.5766602,3.6499023,7.402832c0.1264648-0.1733398,0.2133789-0.3930664,0.2602539-0.659668h0.6499023v7.0898438H3.7099609z"/><path d="M8.5,12.7231445v1.0097656c0,0.3798828-0.0864258,0.706543-0.2597656,0.9799805c-0.1738281,0.2734375-0.4536133,0.4667969-0.840332,0.5800781v-0.5c0.1132812-0.0400391,0.2084961-0.0986328,0.2851562-0.1748047c0.0766602-0.0766602,0.1381836-0.1601562,0.1850586-0.25c0.0463867-0.090332,0.078125-0.1816406,0.0947266-0.2753906c0.0166016-0.0932617,0.0219727-0.1796875,0.0151367-0.2597656H7.3901367v-1.1098633H8.5z"/><path d="M9.7797852,9.5429688c0.0131836-0.2797852,0.0463867-0.5532227,0.1000977-0.8198242c0.0532227-0.2666016,0.1298828-0.5200195,0.2299805-0.7602539c0.1000977-0.2397461,0.2363281-0.449707,0.4101562-0.6298828c0.1733398-0.1801758,0.3916016-0.3232422,0.6547852-0.4301758c0.2631836-0.1064453,0.578125-0.159668,0.9448242-0.159668s0.6816406,0.0532227,0.9453125,0.159668c0.2631836,0.1069336,0.4814453,0.25,0.6547852,0.4301758s0.3100586,0.3901367,0.4101562,0.6298828c0.1000977,0.2402344,0.1767578,0.4936523,0.2299805,0.7602539s0.0864258,0.5400391,0.1000977,0.8198242c0.0131836,0.2802734,0.0200195,0.5498047,0.0200195,0.8100586c0,0.2597656-0.0068359,0.5297852-0.0200195,0.8100586c-0.0136719,0.2797852-0.046875,0.5532227-0.1000977,0.8198242s-0.1298828,0.5185547-0.2299805,0.7548828c-0.1000977,0.2368164-0.2368164,0.4453125-0.4101562,0.625c-0.1733398,0.1801758-0.3896484,0.3217773-0.6499023,0.425293c-0.2597656,0.1030273-0.5766602,0.1547852-0.9501953,0.1547852c-0.3666992,0-0.6816406-0.0517578-0.9448242-0.1547852c-0.2631836-0.1035156-0.4814453-0.2451172-0.6547852-0.425293c-0.1738281-0.1796875-0.3100586-0.3881836-0.4101562-0.625c-0.1000977-0.2363281-0.1767578-0.4882812-0.2299805-0.7548828c-0.0537109-0.2666016-0.0869141-0.5400391-0.1000977-0.8198242c-0.0131836-0.2802734-0.0200195-0.550293-0.0200195-0.8100586C9.7597656,10.0927734,9.7666016,9.8232422,9.7797852,9.5429688z M10.6850586,11.237793c0.0161133,0.3300781,0.0698242,0.6401367,0.159668,0.9301758c0.090332,0.2900391,0.2353516,0.5351562,0.4350586,0.7348633c0.2001953,0.2001953,0.4799805,0.300293,0.8398438,0.300293c0.3603516,0,0.6401367-0.1000977,0.840332-0.300293c0.199707-0.199707,0.3447266-0.4448242,0.4350586-0.7348633c0.0898438-0.2900391,0.1430664-0.6000977,0.159668-0.9301758c0.0166016-0.3295898,0.0253906-0.6279297,0.0253906-0.8950195c0-0.1728516-0.0019531-0.3647461-0.0053711-0.574707s-0.0200195-0.4199219-0.0498047-0.6298828c-0.0302734-0.2099609-0.0737305-0.4150391-0.1298828-0.6152344c-0.0571289-0.199707-0.1401367-0.375-0.25-0.5249023c-0.1103516-0.1499023-0.2485352-0.2714844-0.4150391-0.3652344c-0.1669922-0.0932617-0.3701172-0.1396484-0.6103516-0.1396484c-0.2397461,0-0.4433594,0.0463867-0.6098633,0.1396484c-0.1665039,0.09375-0.3046875,0.215332-0.4150391,0.3652344c-0.1098633,0.1499023-0.1933594,0.3251953-0.25,0.5249023c-0.0566406,0.2001953-0.1000977,0.4052734-0.1298828,0.6152344s-0.046875,0.4199219-0.0498047,0.6298828c-0.003418,0.2099609-0.0053711,0.4018555-0.0053711,0.574707C10.659668,10.6098633,10.6679688,10.9082031,10.6850586,11.237793z"/><path d="M15.3398438,9.5429688c0.0131836-0.2797852,0.0463867-0.5532227,0.1000977-0.8198242c0.0532227-0.2666016,0.1298828-0.5200195,0.2299805-0.7602539c0.1000977-0.2397461,0.2363281-0.449707,0.4101562-0.6298828c0.1733398-0.1801758,0.3916016-0.3232422,0.6547852-0.4301758c0.2631836-0.1064453,0.578125-0.159668,0.9448242-0.159668S18.3613281,6.7963867,18.625,6.902832c0.2631836,0.1069336,0.4814453,0.25,0.6547852,0.4301758s0.3100586,0.3901367,0.4101562,0.6298828c0.1000977,0.2402344,0.1767578,0.4936523,0.2299805,0.7602539s0.0864258,0.5400391,0.1000977,0.8198242c0.0131836,0.2802734,0.0200195,0.5498047,0.0200195,0.8100586c0,0.2597656-0.0068359,0.5297852-0.0200195,0.8100586c-0.0136719,0.2797852-0.046875,0.5532227-0.1000977,0.8198242s-0.1298828,0.5185547-0.2299805,0.7548828c-0.1000977,0.2368164-0.2368164,0.4453125-0.4101562,0.625c-0.1733398,0.1801758-0.3896484,0.3217773-0.6499023,0.425293c-0.2597656,0.1030273-0.5766602,0.1547852-0.9501953,0.1547852c-0.3666992,0-0.6816406-0.0517578-0.9448242-0.1547852c-0.2631836-0.1035156-0.4814453-0.2451172-0.6547852-0.425293c-0.1738281-0.1796875-0.3100586-0.3881836-0.4101562-0.625c-0.1000977-0.2363281-0.1767578-0.4882812-0.2299805-0.7548828c-0.0537109-0.2666016-0.0869141-0.5400391-0.1000977-0.8198242c-0.0131836-0.2802734-0.0200195-0.550293-0.0200195-0.8100586C15.3198242,10.0927734,15.3266602,9.8232422,15.3398438,9.5429688z M16.2451172,11.237793c0.0161133,0.3300781,0.0698242,0.6401367,0.159668,0.9301758c0.090332,0.2900391,0.2353516,0.5351562,0.4350586,0.7348633c0.2001953,0.2001953,0.4799805,0.300293,0.8398438,0.300293c0.3603516,0,0.6401367-0.1000977,0.840332-0.300293c0.199707-0.199707,0.3447266-0.4448242,0.4350586-0.7348633c0.0898438-0.2900391,0.1430664-0.6000977,0.159668-0.9301758c0.0166016-0.3295898,0.0253906-0.6279297,0.0253906-0.8950195c0-0.1728516-0.0019531-0.3647461-0.0053711-0.574707s-0.0200195-0.4199219-0.0498047-0.6298828c-0.0302734-0.2099609-0.0737305-0.4150391-0.1298828-0.6152344c-0.0571289-0.199707-0.1401367-0.375-0.25-0.5249023c-0.1103516-0.1499023-0.2485352-0.2714844-0.4150391-0.3652344c-0.1669922-0.0932617-0.3701172-0.1396484-0.6103516-0.1396484c-0.2397461,0-0.4433594,0.0463867-0.6098633,0.1396484c-0.1665039,0.09375-0.3046875,0.215332-0.4150391,0.3652344c-0.1098633,0.1499023-0.1933594,0.3251953-0.25,0.5249023c-0.0566406,0.2001953-0.1000977,0.4052734-0.1298828,0.6152344s-0.046875,0.4199219-0.0498047,0.6298828c-0.003418,0.2099609-0.0053711,0.4018555-0.0053711,0.574707C16.2197266,10.6098633,16.2280273,10.9082031,16.2451172,11.237793z"/></g></svg>