<svg xmlns="http://www.w3.org/2000/svg" version="1.1" x="0" y="0" viewBox="-238 240 22 22" xml:space="preserve"><polygon class="st0" points="-233.5 242 -233.5 242 -233.5 242 -237 245.6 -236.3 246.3 -234 243.9 -234 260 -233 260 -233 243.9 -230.7 246.3 -230 245.6 "/><path class="st0" d="M-226.53 260l2.9-7.55h1.08L-219.47 260h-1.14l-0.88-2.29h-3.16L-225.47 260H-226.53zM-224.36 256.9h2.56l-0.79-2.09c-0.24-0.64-0.42-1.16-0.54-1.57 -0.1 0.48-0.23 0.97-0.41 1.44L-224.36 256.9z"/><path class="st0" d="M-225.97 250.55v-0.93l3.87-4.84c0.28-0.34 0.54-0.64 0.78-0.9h-4.21V243h5.41v0.89l-4.24 5.24 -0.46 0.53H-220v0.89H-225.97z"/></svg>
