<svg width="24" height="24" viewBox="0 0 24 24" xmlns="http://www.w3.org/2000/svg">
<path d="M17.5 5.74902C18.4665 5.74904 19.25 6.53254 19.25 7.49902V20.499C19.25 21.4655 18.4665 22.249 17.5 22.249H3.5C2.53356 22.249 1.75008 21.4654 1.75 20.499V7.49902C1.75 6.53253 2.5335 5.74903 3.5 5.74902H17.5ZM3.25 20.499C3.25008 20.637 3.36198 20.749 3.5 20.749H9.75V17.249H3.25V20.499ZM11.25 20.749H17.5C17.6381 20.749 17.75 20.6371 17.75 20.499V17.249H11.25V20.749ZM21.5 1.74902C22.4665 1.74904 23.25 2.53254 23.25 3.49902V16.499C23.25 17.4655 22.4665 18.249 21.5 18.249H21C20.5858 18.249 20.25 17.9132 20.25 17.499C20.25 17.0848 20.5858 16.749 21 16.749H21.5C21.6381 16.749 21.75 16.6371 21.75 16.499V3.49902C21.75 3.36096 21.6381 3.24904 21.5 3.24902H7.5C7.36193 3.24903 7.25 3.36095 7.25 3.49902V3.99902C7.25 4.41324 6.91421 4.74902 6.5 4.74902C6.08579 4.74902 5.75 4.41324 5.75 3.99902V3.49902C5.75 2.53253 6.5335 1.74903 7.5 1.74902H21.5ZM3.25 15.749H9.75V12.249H3.25V15.749ZM11.25 15.749H17.75V12.249H11.25V15.749ZM3.5 7.24902C3.36193 7.24903 3.25 7.36095 3.25 7.49902V10.749H9.75V7.24902H3.5ZM11.25 10.749H17.75V7.49902C17.75 7.36096 17.6381 7.24904 17.5 7.24902H11.25V10.749Z" fill="#444444"/>
</svg>
