<svg width="24" height="24" viewBox="0 0 24 24" xmlns="http://www.w3.org/2000/svg">
<path fill-rule="evenodd" clip-rule="evenodd" d="M8.78021 15.9697C8.48732 15.6768 8.01256 15.6768 7.71967 15.9697L5.71967 17.9697C5.4268 18.2626 5.42678 18.7373 5.71967 19.0302L7.71967 21.0302C8.01255 21.3231 8.48733 21.3231 8.78021 21.0302C9.0731 20.7373 9.07308 20.2626 8.78021 19.9697L8.06049 19.2499H17.4394L16.7197 19.9697C16.4268 20.2626 16.4268 20.7373 16.7197 21.0302C17.0126 21.3231 17.4873 21.3231 17.7802 21.0302L19.7802 19.0302C19.8289 18.9815 19.8668 18.9262 19.8994 18.8691C19.9148 18.8419 19.9313 18.8152 19.9433 18.7861C19.964 18.7358 19.9789 18.6837 19.9882 18.6308C19.9957 18.5883 19.9999 18.5446 19.9999 18.4999C19.9999 18.4546 19.9959 18.4102 19.9882 18.3671C19.9791 18.3163 19.9649 18.2662 19.9453 18.2177L19.9413 18.208C19.9298 18.1806 19.914 18.1554 19.8994 18.1298C19.8669 18.073 19.8287 18.0182 19.7802 17.9697L17.7802 15.9697C17.4873 15.6768 17.0126 15.6768 16.7197 15.9697C16.4268 16.2626 16.4268 16.7373 16.7197 17.0302L17.4394 17.7499H8.06049L8.78021 17.0302C9.0731 16.7373 9.07308 16.2626 8.78021 15.9697Z" fill="#40865C"/>
<path d="M17.5 4.75C17.9142 4.75 18.25 5.08579 18.25 5.5C18.25 5.91421 17.9142 6.25 17.5 6.25H15.25V14.5C15.25 14.9142 14.9142 15.25 14.5 15.25C14.0858 15.25 13.75 14.9142 13.75 14.5V6.25H12.25V14.5C12.25 14.9142 11.9142 15.25 11.5 15.25C11.0858 15.25 10.75 14.9142 10.75 14.5V11.25H9C7.20507 11.25 5.75 9.79493 5.75 8C5.75 6.20507 7.20507 4.75 9 4.75H17.5ZM9 6.25C8.0335 6.25 7.25 7.0335 7.25 8C7.25 8.9665 8.0335 9.75 9 9.75H10.75V6.25H9Z" fill="#444444"/>
</svg>
