<svg xmlns="http://www.w3.org/2000/svg" width="24" height="24" viewBox="0 0 24 24" stroke="currentColor" stroke-linecap="round" stroke-linejoin="round" fill="none">
    <path d="M7.5 18.5h-1a1 1 0 0 1-1-1v-5a1 1 0 0 1 1-1h1a1 1 0 0 1 1 1v5a1 1 0 0 1-1 1Zm5 0h-1a1 1 0 0 1-1-1v-11a1 1 0 0 1 1-1h1a1 1 0 0 1 1 1v11a1 1 0 0 1-1 1Zm5 0h-1a1 1 0 0 1-1-1v-7a1 1 0 0 1 1-1h1a1 1 0 0 1 1 1v7a1 1 0 0 1-1 1Z" class="icon-stroke-gray-secondary"/>
    <path d="M5.5 16.5 12 10l5 5.5 1.5-2" class="icon-stroke-blue-primary"/>
    <path d="M5.5 5.5v12a1 1 0 0 0 1 1h12" class="icon-stroke-gray-primary"/>
</svg>
