<svg xmlns="http://www.w3.org/2000/svg" width="24" height="24" viewBox="0 0 24 24" stroke="currentColor" stroke-linecap="round" stroke-linejoin="round" fill="none">
    <path d="M6.5 6.5h12m-12 0v12m0-12 5 5m7-5-2-2m2 2-2 2m-10 10-2-2m2 2 2-2m3-5V9m0 2.5H9" class="icon-stroke-gray-primary"/>
    <path d="M16.498 12a4.498 4.498 0 1 1 0 8.996 4.498 4.498 0 0 1 0-8.996Zm1.77 2.732a.5.5 0 0 0-.707 0L16.5 15.793l-1.06-1.06-.079-.065a.5.5 0 0 0-.693.693l.064.079 1.061 1.06-1.06 1.06a.5.5 0 0 0 .707.708l1.06-1.061 1.06 1.06.08.065a.5.5 0 0 0 .692-.692l-.064-.08-1.061-1.06 1.06-1.06a.5.5 0 0 0 0-.708Z" fill="currentColor" stroke="none" class="icon-fill-red"/>
</svg>
