<svg xmlns="http://www.w3.org/2000/svg" width="24" height="24" viewBox="0 0 24 24" stroke="currentColor" stroke-linecap="round" stroke-linejoin="round" fill="none">
    <path d="M7.5 18.5h-1a1 1 0 0 1-1-1v-3a1 1 0 0 1 1-1h1a1 1 0 0 1 1 1v3a1 1 0 0 1-1 1Zm5 0h-1a1 1 0 0 1-1-1v-6a1 1 0 0 1 1-1h1a1 1 0 0 1 1 1v6a1 1 0 0 1-1 1Zm5 0h-1a1 1 0 0 1-1-1v-9a1 1 0 0 1 1-1h1a1 1 0 0 1 1 1v9a1 1 0 0 1-1 1Z" class="icon-stroke-gray-primary"/>
    <path d="m7.5 6 .53.97.97.53-.97.53L7.5 9l-.53-.97L6 7.5l.97-.53L7.5 6Z" class="icon-stroke-blue-primary"/>
</svg>
