<svg xmlns="http://www.w3.org/2000/svg" width="24" height="24" viewBox="0 0 24 24" stroke="currentColor" stroke-linecap="round" stroke-linejoin="round" fill="none">
    <path d="M7.5 6.5v3m0 0v5m0-5h-3m3 0h9m-9 5v3m0-3h-3m3 0h9m0-8v3m0 0v5m0-5h3m-3 5v3m0-3h3" class="icon-gray-secondary"/>
    <path d="M5.5 6.5a1 1 0 0 0-1 1v9a1 1 0 0 0 1 1h13a1 1 0 0 0 1-1v-9a1 1 0 0 0-1-1h-13Z" class="icon-gray-primary"/>
    <path d="M16.5 9.5h-9v5h9v-5Z" class="icon-blue-secondary" fill="currentColor"/>
    <path d="M16.5 9.5h-9v5h9v-5Z" class="icon-blue-primary"/>
</svg>
