<svg xmlns="http://www.w3.org/2000/svg" width="24" height="24" viewBox="0 0 24 24" stroke="currentColor" stroke-linecap="round" stroke-linejoin="round" fill="none">
    <path d="M7 10h10v1.5h-5.5V13H7v-3Zm0 4h4v3H7v-3Z" class="icon-blue-secondary" fill="currentColor"/>
    <path d="M11.5 17.5h-4a1 1 0 0 1-1-1v-3m0-4v-3a1 1 0 0 1 1-1h9a1 1 0 0 1 1 1v3m-11 0h11m-11 0v4m11-4v2m-11 2h5" class="icon-gray-primary"/>
    <path d="m13.5 13.5 4 2-4 2m-1-6h6a1 1 0 0 1 1 1v6a1 1 0 0 1-1 1h-6a1 1 0 0 1-1-1v-6a1 1 0 0 1 1-1Z" class="icon-blue-primary"/>
</svg>
