<svg xmlns="http://www.w3.org/2000/svg" width="24" height="24" viewBox="0 0 24 24">
    <path d="M16 10.5a.5.5 0 0 0 1 0h-1ZM12.5 17a.5.5 0 0 0 0-1v1Zm-4-10.5V6H8v.5h.5Zm6 0h.5V6h-.5v.5Zm0 2V9h.5v-.5h-.5Zm-6 0H8V9h.5v-.5Zm0 2V10H8v.5h.5Zm6 .5a.5.5 0 0 0 0-1v1Zm-6 1.5H8v.5h.5v-.5Zm1 .5a.5.5 0 0 0 0-1v1Zm2-.5V12a.5.5 0 0 0-.354.854l.354-.354Zm8 0 .354.354A.5.5 0 0 0 19.5 12v.5Zm-2.707 2.707.353.354-.353-.354ZM16.5 19.5l-.224.447A.5.5 0 0 0 17 19.5h-.5Zm-1.447-.724.223-.447-.223.447ZM16.5 10.5h.5v-5h-1v5h.5Zm-1-6V4h-8v1h8v-.5Zm-9 1H6v10h1v-10h-.5Zm1 11v.5h5v-1h-5v.5Zm1-10V7h6V6h-6v.5Zm6 0H14v2h1v-2h-.5Zm0 2V8h-6v1h6v-.5Zm-6 0H9v-2H8v2h.5Zm0 2v.5h6v-1h-6v.5Zm0 2H9v-2H8v2h.5Zm1 0V12h-1v1h1v-.5Zm-3 3H6A1.5 1.5 0 0 0 7.5 17v-1a.5.5 0 0 1-.5-.5h-.5Zm1-11V4A1.5 1.5 0 0 0 6 5.5h1a.5.5 0 0 1 .5-.5v-.5Zm9 1h.5A1.5 1.5 0 0 0 15.5 4v1a.5.5 0 0 1 .5.5h.5Zm-5 7v.5h8v-1h-8v.5Zm8 0-.354-.354-2.707 2.708.354.353.353.354 2.707-2.707-.353-.354Zm-3 3.414H16V19.5h1v-3.586h-.5Zm0 3.586.224-.447-1.448-.724-.223.447-.224.448 1.447.723.224-.447Zm-2-1.618h.5v-1.968h-1v1.968h.5Zm-.293-2.675.354-.353-2.707-2.708-.354.354-.354.354 2.707 2.707.354-.354Zm.293.707h.5a1.5 1.5 0 0 0-.44-1.06l-.353.353-.354.354a.5.5 0 0 1 .147.353h.5Zm.553 2.862.223-.447a.5.5 0 0 1-.276-.447h-1a1.5 1.5 0 0 0 .83 1.342l.223-.448Zm1.74-3.569-.354-.353a1.5 1.5 0 0 0-.439 1.06h1a.5.5 0 0 1 .146-.353l-.353-.354Z" fill="currentColor" stroke="none" class="icon-fill-gray-primary"/>
</svg>
