<svg xmlns="http://www.w3.org/2000/svg" width="24" height="24" viewBox="0 0 24 24" stroke="currentColor" stroke-linecap="round" stroke-linejoin="round" fill="none">
    <path d="M5 7h4v3H5V7Zm0 8h4v3H5v-3Zm10-8h4v3h-4V7Z" class="icon-blue-secondary" fill="currentColor"/>
    <path d="M4.5 10.5v-3a1 1 0 0 1 1-1h3a1 1 0 0 1 1 1v3m-5 0h5m-5 0v4m5-4v4m-3-6h1m-1 8h1m-3-2v3a1 1 0 0 0 1 1h3a1 1 0 0 0 1-1v-3m-5 0h5m10-4v-3a1 1 0 0 0-1-1h-3a1 1 0 0 0-1 1v3h5Zm0 0v4m-3-6h1m-1 4h1m2 2v3a1 1 0 0 1-1 1h-3a1 1 0 0 1-1-1v-3h5Zm-13-2h1" class="icon-gray-primary"/>
    <path d="m11.5 10.5 2 2-2 2" class="icon-blue-primary"/>
</svg>
