<svg xmlns="http://www.w3.org/2000/svg" width="24" height="24" viewBox="0 0 24 24" stroke="currentColor" stroke-linecap="round" stroke-linejoin="round" fill="none">
    <path d="M6 4h11v4H6V4Zm0 9.5h6s-1 1-1 2.5 1 2.5 1 2.5H6v-5Z" fill="currentColor" stroke="none" opacity=".5" class="icon-fill-gray-secondary"/>
    <path d="M17.498 12a4.498 4.498 0 1 1 0 8.996 4.498 4.498 0 0 1 0-8.996Zm1.77 2.732a.5.5 0 0 0-.707 0L17.5 15.793l-1.06-1.06-.079-.065a.5.5 0 0 0-.693.693l.064.079 1.061 1.06-1.06 1.06a.5.5 0 0 0 .706.708l1.061-1.061 1.06 1.06.08.065a.5.5 0 0 0 .692-.692l-.064-.08-1.061-1.06 1.06-1.06a.5.5 0 0 0 0-.708Z" fill="currentColor" stroke="none" class="icon-fill-red"/>
    <path d="M5.5 8.5V4.75c0-.69.56-1.25 1.25-1.25h9.5c.69 0 1.25.56 1.25 1.25V8.5m-12 0h12m-12 0v5m12-5v2m-12 3v3.75c0 .69.56 1.25 1.25 1.25h4.75m-6-5h6" class="icon-stroke-gray-primary"/>
</svg>
