<svg xmlns="http://www.w3.org/2000/svg" width="24" height="24" viewBox="0 0 24 24" stroke="currentColor" stroke-linecap="round" stroke-linejoin="round" fill="none">
    <path d="M4.5 7.5v-2a1 1 0 0 1 1-1h7m-8 3h8m-8 0v8m16-8v-2a1 1 0 0 0-1-1h-7m8 3h-8m8 0v8m-8-11v3m-8 8v2a1 1 0 0 0 1 1h7m-8-3h8m8 0v2a1 1 0 0 1-1 1h-7m8-3h-8m0 0v3" class="icon-stroke-gray-primary"/>
    <path d="M13.5 11.5h5m0 0-2-2m2 2-2 2m-5-2h-5m0 0 2-2m-2 2 2 2m11.75 2H4.75a.25.25 0 0 1-.25-.25v-7.5a.25.25 0 0 1 .25-.25h15.5a.25.25 0 0 1 .25.25v7.5a.25.25 0 0 1-.25.25Z" class="icon-stroke-blue-primary"/>
</svg>
