<svg xmlns="http://www.w3.org/2000/svg" width="24" height="24" viewBox="0 0 24 24">
    <path stroke="currentColor" stroke-linecap="round" stroke-linejoin="round" d="M5.5 17.5h4m-4-4h4m-4-8h13" class="icon-stroke-gray-primary"/>
    <path d="M5.5 9a.5.5 0 0 0 0 1zm6 6.5-.354-.354a.5.5 0 0 0 0 .708zm1.646 2.354a.5.5 0 0 0 .708-.708zm.708-4a.5.5 0 0 0-.708-.708zM5.5 9.5v.5h11V9h-11zm11 6V15h-5v1h5zm-5 0-.354.354 2 2 .354-.354.354-.354-2-2zm0 0 .354.354 2-2-.354-.354-.354-.354-2 2zm8-3H19a2.5 2.5 0 0 1-2.5 2.5v1a3.5 3.5 0 0 0 3.5-3.5zm-3-3v.5a2.5 2.5 0 0 1 2.5 2.5h1A3.5 3.5 0 0 0 16.5 9z" class="icon-fill-blue-primary" fill="currentColor"/>
</svg>