<svg xmlns="http://www.w3.org/2000/svg" width="24" height="24" viewBox="0 0 24 24" stroke="currentColor" stroke-linecap="round" stroke-linejoin="round" fill="none">
    <path d="M18.5 6.5v1a1 1 0 0 1-1 1h-6a1 1 0 0 1-1-1v-1a1 1 0 0 1 1-1h6a1 1 0 0 1 1 1Zm-10 0v1a1 1 0 0 1-1 1h-1a1 1 0 0 1-1-1v-1a1 1 0 0 1 1-1h1a1 1 0 0 1 1 1Zm-2 4h1a1 1 0 0 1 1 1v6a1 1 0 0 1-1 1h-1a1 1 0 0 1-1-1v-6a1 1 0 0 1 1-1Z" class="icon-stroke-gray-primary"/>
    <path d="M17.5 11.5v4a2 2 0 0 1-2 2h-4m6-6-2 2m2-2 2 2m-8 4 2-2m-2 2 2 2" class="icon-stroke-blue-primary"/>
</svg>
