<svg xmlns="http://www.w3.org/2000/svg" width="24" height="24" viewBox="0 0 24 24">
    <g class="spreadsheeteditor/.2.5x/btn-chart-elements">
        <path d="M16 8.5c.552 0 1-.052 1 .5v2.257a4.5 4.5 0 0 0-3 0V9c0-.552.448-.5 1-.5z" class="icon-gray-secondary"/>
        <path d="M12.5 5A1.5 1.5 0 0 1 14 6.5v1.587c.156-.055.325-.087.5-.087h2A1.5 1.5 0 0 1 18 9.5v2.258a4.5 4.5 0 0 0-1-.501V9.5a.5.5 0 0 0-.5-.5h-2a.5.5 0 0 0-.5.5v1.757a4.5 4.5 0 0 0-1 .5V6.5a.5.5 0 0 0-.5-.5h-2a.5.5 0 0 0-.5.5V18h1.759c.253.378.561.715.914 1H6.5A1.5 1.5 0 0 1 5 17.5v-5A1.5 1.5 0 0 1 6.5 11h2q.264.002.5.087V6.5A1.5 1.5 0 0 1 10.5 5zm-6 7a.5.5 0 0 0-.5.5v5a.5.5 0 0 0 .5.5H9v-5.5a.5.5 0 0 0-.5-.5z" class="icon-gray-primary"/>
        <g class="icon-blue-primary">
            <path d="M15.5 13a.5.5 0 0 1 .5.5V15h1.5a.5.5 0 0 1 0 1H16v1.5a.5.5 0 0 1-1 0V16h-1.5a.5.5 0 0 1 0-1H15v-1.5a.5.5 0 0 1 .5-.5"/>
            <path d="M15.5 11a4.5 4.5 0 1 1 0 9 4.5 4.5 0 0 1 0-9m0 1a3.5 3.5 0 1 0 0 7 3.5 3.5 0 0 0 0-7"/>
        </g>
    </g>
</svg>
