<svg width="24" height="24" viewBox="0 0 24 24" xmlns="http://www.w3.org/2000/svg"><path fill-rule="evenodd" clip-rule="evenodd" d="M18 4H6V20.0282L18 20V4ZM4 4.5C4 3.11929 5.11929 2 6.5 2H18C18.5302 2 18.9864 2.20344 19.3918 2.61033C19.7661 2.98592 20 3.46792 20 4V20C20 20.5321 19.7973 21.0297 19.3918 21.4366C18.9864 21.8122 18.5302 22 18 22H6C5.46979 22 5.01364 21.8122 4.60819 21.4366C4.20273 21.0297 4 20.5266 4 19.9945V4.5ZM11.5698 16H10.1836V12.2578H10.1574L9 13.0686V11.8385L10.1836 11H11.5698V16ZM14.1593 16H12.7076L14.6333 12.1365V12.1088H12.3709V11H16V12.1053L14.1593 16Z"/></svg>