<svg width="24" height="24" viewBox="0 0 24 24" xmlns="http://www.w3.org/2000/svg">
<path d="M9.83252 1.76465C9.68917 1.79317 9.55599 1.86337 9.45068 1.96777L3.97119 7.40039C3.82878 7.5418 3.74885 7.73484 3.74951 7.93555L3.79248 20.5059C3.7958 21.4698 4.57854 22.2497 5.54248 22.25H10.9995C11.4137 22.25 11.7495 21.9142 11.7495 21.5C11.7495 21.0858 11.4137 20.75 10.9995 20.75H5.54248C5.40503 20.7497 5.29307 20.6385 5.29248 20.501L5.25244 8.69141L8.97412 8.7373C9.95132 8.7492 10.7491 7.95864 10.7456 6.98145L10.731 3.25H18.4995C18.6375 3.25007 18.7495 3.36197 18.7495 3.5V13.5C18.7496 13.914 19.0856 14.2497 19.4995 14.25C19.9137 14.25 20.2495 13.9141 20.2495 13.5V3.5C20.2495 2.53355 19.4659 1.75007 18.4995 1.75H9.97803L9.83252 1.76465ZM9.24561 6.98633C9.24609 7.12588 9.13222 7.23894 8.99268 7.2373L6.29932 7.2041L9.23584 4.29297L9.24561 6.98633Z" fill="#444444"/>
<path d="M14.0308 15.9607C14.2482 15.7507 14.5714 15.6918 14.8491 15.8113C15.1266 15.9309 15.3053 16.2054 15.3022 16.5076L15.2505 21.5076C15.2462 21.9216 14.9067 22.2539 14.4927 22.2498C14.0785 22.2454 13.7462 21.9061 13.7505 21.4919L13.7827 18.2849L13.522 18.5388C13.2242 18.8266 12.7493 18.8188 12.4614 18.5212C12.1736 18.2235 12.1814 17.7486 12.479 17.4607L14.0308 15.9607ZM19.6372 15.7498C20.2515 15.7499 20.7504 16.2487 20.7505 16.863C20.7505 17.1333 20.652 17.3913 20.479 17.5925C20.215 17.8994 19.5064 18.7472 19.1519 19.3708C18.9251 19.7697 18.6927 20.3449 18.5103 20.8484C18.4212 21.0942 18.3476 21.3133 18.2964 21.4705C18.2709 21.5487 18.2512 21.6124 18.2378 21.655C18.2312 21.676 18.2255 21.6922 18.2222 21.7029C18.2206 21.7079 18.22 21.7121 18.2192 21.7146L18.2183 21.7175C18.0982 22.1139 17.6791 22.3384 17.2827 22.2185C16.8863 22.0984 16.6627 21.6794 16.7827 21.283V21.281C16.7831 21.2801 16.7842 21.2786 16.7847 21.2771C16.7857 21.2735 16.7866 21.2678 16.7886 21.2615C16.7926 21.2485 16.7987 21.2295 16.8062 21.2058C16.8211 21.1582 16.8431 21.0898 16.8706 21.0056C16.9256 20.8369 17.0043 20.602 17.1001 20.3376C17.2877 19.8198 17.5554 19.1447 17.8481 18.6296C18.1062 18.1758 18.494 17.6593 18.8188 17.2507H17.0005C16.5864 17.2507 16.2508 16.9147 16.2505 16.5007C16.2506 16.0866 16.5863 15.7498 17.0005 15.7498H19.6372Z" fill="#446ECA"/>
</svg>
