<svg width="24" height="24" viewBox="0 0 24 24" xmlns="http://www.w3.org/2000/svg">
<path d="M18.5 1.74512C19.4665 1.74512 20.25 2.52862 20.25 3.49512V5.49902C20.25 5.91324 19.9142 6.24902 19.5 6.24902C19.0858 6.24902 18.75 5.91324 18.75 5.49902V3.49512C18.75 3.35705 18.6381 3.24512 18.5 3.24512H5.5C5.36193 3.24512 5.25 3.35705 5.25 3.49512V20.499C5.25 20.6371 5.36193 20.749 5.5 20.749H18.5C18.6381 20.749 18.75 20.6371 18.75 20.499V16.748C18.75 16.3339 19.0858 15.998 19.5 15.998C19.9142 15.998 20.25 16.3339 20.25 16.748V20.499C20.25 21.4655 19.4665 22.249 18.5 22.249H5.5C4.5335 22.249 3.75 21.4655 3.75 20.499V3.49512C3.75 2.52862 4.5335 1.74512 5.5 1.74512H18.5Z" fill="#444444"/>
<path d="M19.3291 8.17578C20.0125 7.49239 21.1213 7.49239 21.8047 8.17578L22.3604 8.73145C23.0436 9.41474 23.0433 10.5226 22.3604 11.2061L16.5 17.0664C16.3594 17.2069 16.1685 17.2861 15.9697 17.2861H14C13.5859 17.2861 13.2502 16.9502 13.25 16.5361V14.5654C13.2501 14.3667 13.3292 14.1757 13.4697 14.0352L19.3291 8.17578ZM10 14.749C10.4142 14.749 10.75 15.0848 10.75 15.499C10.75 15.9132 10.4142 16.249 10 16.249H9C8.58579 16.249 8.25 15.9132 8.25 15.499C8.25 15.0848 8.58579 14.749 9 14.749H10ZM14.75 14.876V15.7861H15.6592L19.5059 11.9385L18.5957 11.0293L14.75 14.876ZM13 10.749C13.4142 10.749 13.75 11.0848 13.75 11.499C13.75 11.9132 13.4142 12.249 13 12.249H9C8.58579 12.249 8.25 11.9132 8.25 11.499C8.25 11.0848 8.58579 10.749 9 10.749H13ZM20.7432 9.23633C20.6455 9.13899 20.4872 9.13882 20.3896 9.23633L19.6562 9.96875L20.5664 10.8779L21.2998 10.1455C21.397 10.0479 21.3972 9.8895 21.2998 9.79199L20.7432 9.23633ZM15 6.74902C15.4142 6.74902 15.75 7.08481 15.75 7.49902C15.75 7.91324 15.4142 8.24902 15 8.24902H9C8.58579 8.24902 8.25 7.91324 8.25 7.49902C8.25 7.08481 8.58579 6.74902 9 6.74902H15Z" fill="#446ECA"/>
</svg>
