<svg width="24" height="24" viewBox="0 0 24 24" xmlns="http://www.w3.org/2000/svg">
<path d="M5.96973 5.76562C6.26261 5.47274 6.73738 5.47276 7.03027 5.76562L18.0303 16.7656C18.3232 17.0585 18.3232 17.5333 18.0303 17.8262C17.7374 18.119 17.2626 18.1191 16.9697 17.8262L16.0986 16.9551C14.9893 17.6021 13.6302 18.0459 12 18.0459C8.96743 18.0459 6.90149 16.5198 5.62012 15.0361C4.98107 14.2962 4.52907 13.5588 4.23633 13.0068C4.08954 12.73 3.98138 12.497 3.90918 12.3311C3.87322 12.2484 3.84594 12.1821 3.82715 12.1348C3.81777 12.1111 3.80993 12.0919 3.80469 12.0781C3.80217 12.0715 3.8004 12.0658 3.79883 12.0615C3.79806 12.0595 3.79741 12.0571 3.79688 12.0557L3.7959 12.0537C3.79583 12.0533 3.80206 12.0497 4.5 11.7959L3.79492 11.5391H3.7959V11.5371C3.79617 11.5364 3.79653 11.5351 3.79688 11.5342C3.79766 11.5321 3.79865 11.5294 3.7998 11.5264C3.80232 11.5196 3.80626 11.5102 3.81055 11.499C3.81912 11.4768 3.83092 11.4458 3.84668 11.4072C3.87835 11.3297 3.92514 11.2206 3.9873 11.0859C4.11169 10.8166 4.29946 10.4428 4.55859 10.0166C5.01394 9.26773 5.69984 8.33673 6.66113 7.51758L5.96973 6.82617C5.67688 6.53329 5.67688 6.05851 5.96973 5.76562ZM7.72754 8.58398C6.87534 9.28715 6.25575 10.1135 5.84082 10.7959C5.61571 11.1661 5.45408 11.4886 5.34961 11.7148C5.33624 11.7438 5.32397 11.7712 5.3125 11.7969C5.37073 11.927 5.45272 12.1004 5.56055 12.3037C5.81466 12.7829 6.20665 13.4208 6.75488 14.0557C7.8485 15.322 9.53272 16.5459 12 16.5459C13.1723 16.5459 14.159 16.2663 14.9902 15.8467L13.3389 14.1953C12.9422 14.4168 12.486 14.5459 12 14.5459C10.4812 14.5459 9.25 13.3147 9.25 11.7959C9.25006 11.3098 9.37891 10.8536 9.60059 10.457L7.72754 8.58398ZM12 5.5459C15.0326 5.5459 17.0985 7.07201 18.3799 8.55566C19.0189 9.29562 19.4709 10.033 19.7637 10.585C19.9105 10.8618 20.0186 11.0948 20.0908 11.2607C20.1268 11.3434 20.1541 11.4097 20.1729 11.457C20.1822 11.4807 20.1901 11.4999 20.1953 11.5137C20.1978 11.5203 20.1996 11.526 20.2012 11.5303C20.2019 11.5323 20.2026 11.5347 20.2031 11.5361L20.2041 11.5381C20.2042 11.5384 20.2048 11.5396 19.5 11.7959L20.2051 12.0527L20.2041 12.0547C20.2037 12.0559 20.2028 12.0579 20.2021 12.0596C20.2009 12.0628 20.1992 12.0672 20.1973 12.0723C20.1934 12.0826 20.1885 12.0968 20.1816 12.1143C20.1678 12.1496 20.1473 12.1997 20.1211 12.2617C20.0687 12.3856 19.9907 12.5599 19.8857 12.7705C19.6759 13.1914 19.3543 13.7637 18.9053 14.376C18.6603 14.7095 18.1913 14.7818 17.8574 14.5371C17.5234 14.2922 17.4514 13.8223 17.6963 13.4883C18.0849 12.9583 18.3627 12.4621 18.543 12.1006C18.6021 11.9819 18.6476 11.877 18.6855 11.792C18.6274 11.6622 18.5464 11.4898 18.4395 11.2881C18.1853 10.8089 17.7934 10.171 17.2451 9.53613C16.1515 8.26984 14.4673 7.0459 12 7.0459C11.5165 7.0459 11.066 7.09239 10.6465 7.17578C10.2403 7.2565 9.84551 6.99304 9.76465 6.58691C9.6839 6.18076 9.94744 5.78599 10.3535 5.70508C10.8701 5.60236 11.4189 5.5459 12 5.5459ZM10.7627 11.6191C10.7545 11.6769 10.75 11.7358 10.75 11.7959C10.75 12.4862 11.3097 13.0459 12 13.0459C12.0598 13.0459 12.1183 13.0403 12.1758 13.0322L10.7627 11.6191ZM4.5 11.7959L3.79492 12.0518C3.73495 11.8865 3.73495 11.7053 3.79492 11.54L4.5 11.7959ZM20.2051 11.54C20.2651 11.7053 20.2651 11.8865 20.2051 12.0518L19.5 11.7959L20.2051 11.54Z" fill="#444444"/>
</svg>
