<svg xmlns="http://www.w3.org/2000/svg" width="24" height="24" viewBox="0 0 24 24"><path d="M9.89362 9.89062C10.4865 9.29688 11.1887 9 12 9C12.8113 9 13.5135 9.29688 14.1064 9.89062C14.6993 10.4844 14.9957 11.1875 14.9957 12C14.9957 12.8125 14.6993 13.5156 14.1064 14.1094C13.5135 14.7031 12.8113 15 12 15C11.1887 15 10.4865 14.7031 9.89362 14.1094C9.30071 13.5156 9.00426 12.8125 9.00426 12C9.00426 11.1875 9.30071 10.4844 9.89362 9.89062ZM8.44255 15.5625C9.44114 16.5312 10.627 17.0156 12 17.0156C13.373 17.0156 14.5433 16.5312 15.5106 15.5625C16.5092 14.5625 17.0085 13.375 17.0085 12C17.0085 10.625 16.5092 9.45312 15.5106 8.48438C14.5433 7.48438 13.373 6.98438 12 6.98438C10.627 6.98438 9.44114 7.48438 8.44255 8.48438C7.47518 9.45312 6.99149 10.625 6.99149 12C6.99149 13.375 7.47518 14.5625 8.44255 15.5625ZM5.30638 6.5625C7.30355 5.1875 9.53475 4.5 12 4.5C14.4652 4.5 16.6965 5.1875 18.6936 6.5625C20.6908 7.9375 22.1262 9.75 23 12C22.1262 14.25 20.6908 16.0625 18.6936 17.4375C16.6965 18.8125 14.4652 19.5 12 19.5C9.53475 19.5 7.30355 18.8125 5.30638 17.4375C3.30922 16.0625 1.87376 14.25 1 12C1.87376 9.75 3.30922 7.9375 5.30638 6.5625Z"/></svg>