<svg width="24" height="24" viewBox="0 0 24 24" xmlns="http://www.w3.org/2000/svg">
<path d="M20.5 4.54199C21.4665 4.54199 22.25 5.32549 22.25 6.29199V12.2939C22.25 12.7082 21.9142 13.0439 21.5 13.0439C21.0858 13.0439 20.75 12.7082 20.75 12.2939V6.29199C20.75 6.15392 20.6381 6.04199 20.5 6.04199H3.5C3.36193 6.04199 3.25 6.15392 3.25 6.29199V18.2959C3.25 18.434 3.36193 18.5459 3.5 18.5459H12C12.4142 18.5459 12.7499 18.8817 12.75 19.2959C12.75 19.7101 12.4142 20.0459 12 20.0459H3.5C2.5335 20.0459 1.75 19.2624 1.75 18.2959V6.29199C1.75 5.32549 2.5335 4.54199 3.5 4.54199H20.5ZM18 14.5459C18.4142 14.5459 18.75 14.8817 18.75 15.2959C18.75 15.7101 18.4142 16.0459 18 16.0459H6C5.58579 16.0459 5.25 15.7101 5.25 15.2959C5.25 14.8817 5.58579 14.5459 6 14.5459H18ZM18 11.5459C18.4142 11.5459 18.75 11.8817 18.75 12.2959C18.75 12.7101 18.4142 13.0459 18 13.0459H6C5.58579 13.0459 5.25 12.7101 5.25 12.2959C5.25 11.8817 5.58579 11.5459 6 11.5459H18ZM18 8.5459C18.4142 8.5459 18.75 8.88168 18.75 9.2959C18.75 9.71011 18.4142 10.0459 18 10.0459H6C5.58579 10.0459 5.25 9.71011 5.25 9.2959C5.25 8.88168 5.58579 8.5459 6 8.5459H18Z" fill="#444444"/>
<path d="M21.9238 14.8154C22.189 14.4974 22.6623 14.4546 22.9805 14.7197C23.2985 14.9849 23.3413 15.4582 23.0762 15.7764L18.0762 21.7764C17.9413 21.9381 17.7445 22.0353 17.5342 22.0449C17.3237 22.0545 17.1187 21.9752 16.9697 21.8262L13.9697 18.8262C13.6768 18.5333 13.6768 18.0585 13.9697 17.7656C14.2626 17.4727 14.7374 17.4727 15.0303 17.7656L17.4492 20.1846L21.9238 14.8154Z" fill="#009900"/>
</svg>
