<svg width="24" height="24" viewBox="0 0 24 24" xmlns="http://www.w3.org/2000/svg">
<path d="M13.4697 4.46973C13.7626 4.17683 14.2374 4.17683 14.5303 4.46973L18.5303 8.46973C18.8231 8.76262 18.8232 9.23739 18.5303 9.53027L14.5303 13.5303C14.2374 13.8231 13.7626 13.8231 13.4697 13.5303C13.1768 13.2374 13.1769 12.7626 13.4697 12.4697L16.1895 9.75H10C7.65279 9.75 5.75 11.6528 5.75 14C5.75003 16.3472 7.65281 18.25 10 18.25H11C11.4142 18.25 11.75 18.5858 11.75 19C11.75 19.4142 11.4142 19.75 11 19.75H10C6.82438 19.75 4.25003 17.1756 4.25 14C4.25 10.8244 6.82436 8.25 10 8.25H16.1895L13.4697 5.53027C13.1768 5.23739 13.1769 4.76262 13.4697 4.46973Z" fill="#444444"/>
</svg>
