<svg width="24" height="24" viewBox="0 0 24 24" xmlns="http://www.w3.org/2000/svg"><path fill-rule="evenodd" clip-rule="evenodd" d="M15.5 7C15.5 9.26153 14.9357 10.9518 14.201 12.0307C13.4584 13.121 12.6234 13.5 12 13.5C11.3766 13.5 10.5416 13.121 9.79901 12.0307C9.0643 10.9518 8.5 9.26153 8.5 7C8.5 4.92262 10.2222 3.5 12 3.5C13.7778 3.5 15.5 4.92262 15.5 7ZM14.8461 13.6216C14.006 14.5191 13.0044 15 12 15C10.9956 15 9.99399 14.5191 9.15395 13.6216C7.69714 14.1996 6.4782 14.7725 5.52945 15.3496C3.82884 16.3839 3.5 17.1203 3.5 17.5C3.5 18.0104 3.76355 18.6977 5.04703 19.3409C6.37522 20.0065 8.60909 20.4999 12 20.5C15.3909 20.5 17.6248 20.0065 18.953 19.3409C20.2364 18.6977 20.5 18.0104 20.5 17.5C20.5 17.1203 20.1712 16.3839 18.4705 15.3496C17.5218 14.7725 16.3029 14.1996 14.8461 13.6216ZM15.7544 12.37C16.5137 11.0279 17 9.20917 17 7C17 4 14.5088 2 12 2C9.49121 2 7 4 7 7C7 9.20917 7.48633 11.0279 8.24563 12.37C4.38973 13.9392 2 15.579 2 17.5C2 19.9852 5 21.9999 12 22C19 22 22 19.9852 22 17.5C22 15.579 19.6103 13.9392 15.7544 12.37Z" /></svg>