<svg width="24" height="24" viewBox="0 0 24 24" xmlns="http://www.w3.org/2000/svg">
<path d="M22.1299 13.8555C22.4227 13.5626 22.8975 13.5628 23.1904 13.8555C23.4833 14.1484 23.4833 14.6231 23.1904 14.916L20.1846 17.9209L23.1904 20.9268C23.4833 21.2197 23.4833 21.6944 23.1904 21.9873C22.8975 22.2802 22.4228 22.2802 22.1299 21.9873L19.124 18.9814L16.1191 21.9873C15.8262 22.2802 15.3515 22.2802 15.0586 21.9873C14.7659 21.6944 14.7658 21.2196 15.0586 20.9268L18.0635 17.9209L15.0586 14.916C14.7658 14.6231 14.7657 14.1483 15.0586 13.8555C15.3514 13.5626 15.8262 13.5627 16.1191 13.8555L19.124 16.8604L22.1299 13.8555Z" fill="#FF3B30"/>
<path d="M20.5 4.54199C21.4665 4.54199 22.25 5.32549 22.25 6.29199V11.2959C22.25 11.7101 21.9142 12.0459 21.5 12.0459C21.0858 12.0459 20.75 11.7101 20.75 11.2959V6.29199C20.75 6.15392 20.6381 6.04199 20.5 6.04199H3.5C3.36193 6.04199 3.25 6.15392 3.25 6.29199V18.2959C3.25 18.434 3.36193 18.5459 3.5 18.5459H12C12.4142 18.5459 12.7499 18.8817 12.75 19.2959C12.75 19.7101 12.4142 20.0459 12 20.0459H3.5C2.5335 20.0459 1.75 19.2624 1.75 18.2959V6.29199C1.75 5.32549 2.5335 4.54199 3.5 4.54199H20.5ZM12 14.5459C12.4142 14.5459 12.75 14.8817 12.75 15.2959C12.75 15.7101 12.4142 16.0459 12 16.0459H6C5.58579 16.0459 5.25 15.7101 5.25 15.2959C5.25 14.8817 5.58579 14.5459 6 14.5459H12ZM12 11.5459C12.4142 11.5459 12.75 11.8817 12.75 12.2959C12.75 12.7101 12.4142 13.0459 12 13.0459H6C5.58579 13.0459 5.25 12.7101 5.25 12.2959C5.25 11.8817 5.58579 11.5459 6 11.5459H12ZM18 8.5459C18.4142 8.5459 18.75 8.88168 18.75 9.2959C18.75 9.71011 18.4142 10.0459 18 10.0459H6C5.58579 10.0459 5.25 9.71011 5.25 9.2959C5.25 8.88168 5.58579 8.5459 6 8.5459H18Z" fill="#444444"/>
</svg>
