<svg width="24" height="24" viewBox="0 0 24 24" xmlns="http://www.w3.org/2000/svg">
<path d="M8.46973 4.46973C8.76262 4.17683 9.23738 4.17683 9.53027 4.46973C9.82311 4.76262 9.82315 5.2374 9.53027 5.53027L6.81055 8.25H13C16.1756 8.25003 18.75 10.8244 18.75 14C18.75 17.1756 16.1756 19.75 13 19.75H12C11.5858 19.75 11.25 19.4142 11.25 19C11.25 18.5858 11.5858 18.25 12 18.25H13C15.3472 18.25 17.25 16.3472 17.25 14C17.25 11.6528 15.3472 9.75003 13 9.75H6.81055L9.53027 12.4697C9.82311 12.7626 9.82315 13.2374 9.53027 13.5303C9.2374 13.8231 8.76262 13.8231 8.46973 13.5303L4.46973 9.53027C4.17683 9.23738 4.17683 8.76262 4.46973 8.46973L8.46973 4.46973Z" fill="#444444"/>
</svg>
