<svg width="24" height="24" viewBox="0 0 24 24" xmlns="http://www.w3.org/2000/svg">
<path d="M20.5 22.5H3.5V7.79297L9.79297 1.5H20.5V22.5ZM10.5 8.5H4.5V21.5H19.5V2.5H10.5V8.5ZM12.6631 20.5H11.917V15.7451C11.7374 15.9164 11.5008 16.0875 11.208 16.2588C10.918 16.43 10.6568 16.5589 10.4248 16.6445V15.9238C10.842 15.7276 11.2063 15.489 11.5186 15.21C11.8308 14.9309 12.0518 14.66 12.1816 14.3975H12.6631V20.5ZM17.8828 15.082C17.4959 15.4938 17.1118 16.041 16.7305 16.7236C16.3519 17.4062 16.0588 18.1079 15.8516 18.8291C15.7023 19.3376 15.6069 19.8948 15.5654 20.5H14.7988C14.8071 20.022 14.9005 19.4445 15.0801 18.7676C15.2597 18.0905 15.5172 17.4379 15.8516 16.8105C16.1887 16.1805 16.5463 15.6498 16.9248 15.2188H13.9482V14.502H17.8828V15.082ZM5.20703 7.5H9.5V3.20703L5.20703 7.5Z"/>
</svg>
