<svg width="24" height="24" viewBox="0 0 24 24" xmlns="http://www.w3.org/2000/svg"><path d="M13.3966 19.2877L21.6495 11L23 12.3562L13.3966 22L9 17.5849L10.3505 16.2288L13.3966 19.2877Z"/><path fill-rule="evenodd" clip-rule="evenodd" d="M20.5 8L20.5 4.5L3.5 4.5L3.5 17.5L7 17.5L7 19L4 19C3.46792 19 2.97026 18.7973 2.56338 18.3918C2.18779 17.9864 2 17.5302 2 17L2 5C2 4.46978 2.18779 4.01364 2.56338 3.60819C2.97026 3.20273 3.4734 3 4.00549 3L20 3C21.1046 3 22 3.89543 22 5L22 8L20.5 8Z"/><path d="M6 8H18V9.5H6V8Z"/><path d="M6 12H16V13.5H6V12Z"/></svg>