<svg width="24" height="24" viewBox="0 0 24 24" xmlns="http://www.w3.org/2000/svg"><g clip-path="url(#clip0)"><path fill-rule="evenodd" clip-rule="evenodd" d="M4.23958 18L8.09375 13.5L10.9062 16.5L14.7604 12L19.7604 18H4.23958ZM21.3229 20.3906C21.7743 19.9844 22 19.5156 22 18.9844V5.01562C22 4.48438 21.7743 4.01562 21.3229 3.60938C20.8715 3.20313 20.3507 3 19.7604 3H4.23958C3.64931 3 3.12847 3.20313 2.67708 3.60938C2.22569 4.01562 2 4.48438 2 5.01562V18.9844C2 19.5156 2.22569 19.9844 2.67708 20.3906C3.12847 20.7969 3.64931 21 4.23958 21H19.7604C20.3507 21 20.8715 20.7969 21.3229 20.3906ZM8 11C9.10457 11 10 10.1046 10 9C10 7.89543 9.10457 7 8 7C6.89543 7 6 7.89543 6 9C6 10.1046 6.89543 11 8 11Z"/></g><defs><clipPath id="clip0"><path d="M0.000477791 0H24.0005V24H0.000477791V0Z" fill="transparent"/></clipPath></defs></svg>