<svg width="24" height="24" viewBox="0 0 24 24" xmlns="http://www.w3.org/2000/svg">
<path d="M15.0176 4C14.4872 4.00005 13.9785 4.21091 13.6035 4.58594L12.3359 5.85352C12.2422 5.94724 12.115 5.99995 11.9824 6H4.75C3.64543 6 2.75 6.89543 2.75 8V18.5C2.75 19.6046 3.64543 20.5 4.75 20.5H19.25C20.3546 20.5 21.25 19.6046 21.25 18.5V6C21.25 4.89543 20.3546 4 19.25 4H15.0176ZM19.25 5.5C19.5261 5.5 19.75 5.72386 19.75 6V18.5C19.75 18.7761 19.5261 19 19.25 19H4.75C4.47386 19 4.25 18.7761 4.25 18.5V8C4.25 7.72386 4.47386 7.5 4.75 7.5H11.9824C12.5128 7.49995 13.0215 7.28909 13.3965 6.91406L14.6641 5.64648C14.7578 5.55276 14.885 5.50005 15.0176 5.5H19.25ZM13.2803 9.21973C12.9874 8.92683 12.5126 8.92683 12.2197 9.21973C11.927 9.51263 11.9269 9.98742 12.2197 10.2803L13.9395 12H7.75C7.33579 12 7 12.3358 7 12.75C7.00013 13.1641 7.33587 13.5 7.75 13.5H13.9395L12.2197 15.2197C11.927 15.5126 11.9269 15.9874 12.2197 16.2803C12.5126 16.573 12.9874 16.573 13.2803 16.2803L16.2803 13.2803C16.5731 12.9874 16.573 12.5126 16.2803 12.2197L13.2803 9.21973Z" fill="#444444"/>
</svg>
