<svg width="24" height="24" viewBox="0 0 24 24" xmlns="http://www.w3.org/2000/svg">
<path d="M16.5127 3.5127C17.1961 2.82938 18.3039 2.82938 18.9873 3.5127L20.5732 5.09863C21.2564 5.78204 21.2565 6.88989 20.5732 7.57324L7.28027 20.8662C7.13963 21.0068 6.94885 21.0859 6.75 21.0859H3.75C3.33587 21.0859 3.00014 20.75 3 20.3359V17.3359C3 17.1371 3.07915 16.9463 3.21973 16.8057L16.5127 3.5127ZM4.5 17.6465V19.5859H6.43945L16.6895 9.33594L14.75 7.39648L4.5 17.6465ZM17.9268 4.57324C17.8291 4.47571 17.6709 4.47571 17.5732 4.57324L15.8105 6.33594L17.75 8.27539L19.5127 6.5127C19.6102 6.41513 19.6101 6.2568 19.5127 6.15918L17.9268 4.57324Z" fill="#444444"/>
<path d="M20.5 19.75C20.9142 19.75 21.25 20.0858 21.25 20.5C21.2498 20.914 20.9141 21.25 20.5 21.25H10.5C10.0859 21.25 9.75019 20.914 9.75 20.5C9.75 20.0858 10.0858 19.75 10.5 19.75H20.5Z" fill="#444444"/>
</svg>
