<svg width="24" height="24" viewBox="0 0 24 24" xmlns="http://www.w3.org/2000/svg">
<path d="M3.5 1.74902C2.53358 1.74902 1.75013 2.53264 1.75 3.49902V20.499C1.75 21.4655 2.5335 22.249 3.5 22.249H20.5C21.4665 22.249 22.25 21.4655 22.25 20.499V3.49902C22.2499 2.53264 21.4664 1.74902 20.5 1.74902H3.5ZM20.5 3.24902C20.638 3.24902 20.7499 3.36106 20.75 3.49902V20.499C20.75 20.6371 20.6381 20.749 20.5 20.749H3.5C3.36193 20.749 3.25 20.6371 3.25 20.499V3.49902C3.25013 3.36106 3.36201 3.24902 3.5 3.24902H20.5Z" fill="#444444"/>
<path d="M7.0302 6.97029C7.17083 6.82964 7.36165 6.75073 7.56053 6.7507L14.5605 6.75001C14.9747 6.75003 15.3111 7.08642 15.3111 7.50062C15.3107 7.91443 14.975 8.25036 14.5612 8.25054H9.37111L17.0913 15.9693C17.3839 16.2621 17.3838 16.7371 17.0913 17.03C16.7984 17.3227 16.3235 17.3227 16.0306 17.03L8.31045 9.3112L8.31114 14.5006C8.31105 14.9146 7.97532 15.2504 7.56122 15.2505C7.14721 15.2504 6.81148 14.9146 6.8113 14.5006L6.81061 7.50062C6.81059 7.30178 6.88967 7.11094 7.0302 6.97029Z" fill="#444444"/>
</svg>
