<svg width="24" height="24" viewBox="0 0 24 24" xmlns="http://www.w3.org/2000/svg"><g clip-path="url(#clip0)"><path fill-rule="evenodd" clip-rule="evenodd" d="M6 8L10 7.99531V4L6 8ZM10 10H6V11H4V7L9 2H18C18.5302 2 18.9864 2.20344 19.3918 2.61033C19.7661 2.98592 20 3.46792 20 4V11H18V4H12V8C12 9.10457 11.1046 10 10 10ZM6 17V20.0282L18 20V17H20V20C20 20.5321 19.7973 21.0297 19.3918 21.4366C18.9864 21.8122 18.5302 22 18 22H6C5.46979 22 5.01364 21.8122 4.60819 21.4366C4.20273 21.0297 4 20.5266 4 19.9945V17H6Z"/><path d="M3 13H7V15H3V13Z"/><path d="M9 13H15V15H9V13Z"/><path d="M17 13H21V15H17V13Z"/></g><defs><clipPath id="clip0"><path d="M0.000488281 0H24.0005V24H0.000488281V0Z" fill="transparent"/></clipPath></defs></svg>