<svg width="24" height="24" viewBox="0 0 24 24" xmlns="http://www.w3.org/2000/svg">
<path d="M11.9995 5.5459C15.0319 5.5459 17.098 7.07212 18.3794 8.55566C19.0183 9.29544 19.4704 10.033 19.7632 10.585C19.9098 10.8615 20.0181 11.0948 20.0903 11.2607C20.1262 11.3432 20.1536 11.4097 20.1724 11.457C20.1816 11.4804 20.1896 11.4999 20.1948 11.5137C20.1973 11.5201 20.1991 11.5261 20.2007 11.5303C20.2014 11.5322 20.2021 11.5347 20.2026 11.5361L20.2036 11.5381C20.2036 11.5381 20.2036 11.5375 20.1997 11.5391L20.2007 11.541L20.2046 11.54C20.2264 11.6001 20.2366 11.6619 20.2427 11.7227C20.2451 11.747 20.2466 11.7712 20.2466 11.7959C20.2466 11.8206 20.2451 11.8448 20.2427 11.8691C20.2367 11.9301 20.2264 11.9915 20.2046 12.0518L20.2007 12.0498V12.0508C20.2031 12.0517 20.2041 12.0525 20.2046 12.0527L20.2026 12.0557C20.2021 12.0571 20.2014 12.0595 20.2007 12.0615C20.1991 12.0657 20.1973 12.0716 20.1948 12.0781C20.1896 12.0919 20.1817 12.1112 20.1724 12.1348C20.1536 12.1821 20.1262 12.2485 20.0903 12.3311C20.0181 12.497 19.9099 12.7301 19.7632 13.0068C19.4704 13.5588 19.0184 14.2962 18.3794 15.0361C17.098 16.5198 15.0321 18.0459 11.9995 18.0459C8.96708 18.0458 6.90097 16.5197 5.61963 15.0361C4.98074 14.2963 4.52854 13.5587 4.23584 13.0068C4.08916 12.7302 3.98086 12.4969 3.90869 12.3311C3.87282 12.2486 3.84542 12.182 3.82666 12.1348C3.81736 12.1113 3.80941 12.0918 3.8042 12.0781C3.80176 12.0717 3.79988 12.0657 3.79834 12.0615C3.79764 12.0596 3.79689 12.057 3.79639 12.0557L3.79443 12.0527C3.79453 12.0526 3.79517 12.052 3.79834 12.0508L3.79736 12.0498L3.79443 12.0518C3.77263 11.9916 3.76136 11.9301 3.75537 11.8691C3.75296 11.8448 3.75146 11.8205 3.75146 11.7959C3.75149 11.7713 3.75294 11.747 3.75537 11.7227C3.76141 11.6618 3.77262 11.6001 3.79443 11.54L3.79736 11.541L3.79834 11.54C3.79537 11.5389 3.79445 11.5391 3.79443 11.5391L3.79639 11.5361C3.79691 11.5347 3.79761 11.5322 3.79834 11.5303C3.79989 11.5261 3.80172 11.5202 3.8042 11.5137C3.80944 11.4999 3.81733 11.4805 3.82666 11.457C3.84545 11.4097 3.87279 11.3433 3.90869 11.2607C3.9809 11.0948 4.08911 10.8617 4.23584 10.585C4.52859 10.033 4.98063 9.29556 5.61963 8.55566C6.90097 7.07207 8.96712 5.546 11.9995 5.5459ZM11.9995 7.0459C9.53241 7.046 7.84797 8.26991 6.75439 9.53613C6.20621 10.1709 5.81418 10.8089 5.56006 11.2881C5.45206 11.4918 5.37026 11.6657 5.31201 11.7959C5.37024 11.9261 5.45199 12.0999 5.56006 12.3037C5.81413 12.7828 6.20632 13.421 6.75439 14.0557C7.84797 15.3219 9.53237 16.5458 11.9995 16.5459C14.4668 16.5459 16.151 15.322 17.2446 14.0557C17.7928 13.4208 18.1849 12.7829 18.439 12.3037C18.5469 12.1001 18.6278 11.9261 18.686 11.7959C18.6278 11.6657 18.5468 11.4915 18.439 11.2881C18.1848 10.8089 17.7927 10.1708 17.2446 9.53613C16.151 8.26997 14.4666 7.0459 11.9995 7.0459ZM11.9995 9.0459C13.5182 9.0459 14.7493 10.2773 14.7495 11.7959C14.7495 12.6103 14.3948 13.3432 13.8335 13.8457C13.3475 14.2807 12.7034 14.5459 11.9995 14.5459C10.4809 14.5457 9.24951 13.3146 9.24951 11.7959C9.24961 11.0922 9.51478 10.4479 9.94971 9.96191C10.4521 9.4007 11.1852 9.04599 11.9995 9.0459ZM11.9995 10.5459C11.6295 10.546 11.2978 10.7061 11.0679 10.9629C10.8696 11.1844 10.7496 11.4754 10.7495 11.7959C10.7495 12.4861 11.3093 13.0457 11.9995 13.0459C12.3201 13.0459 12.6109 12.9259 12.8325 12.7275C13.0894 12.4976 13.2495 12.166 13.2495 11.7959C13.2493 11.1057 12.6897 10.5459 11.9995 10.5459Z" fill="#444444"/>
</svg>
