<svg width="24" height="24" viewBox="0 0 24 24" xmlns="http://www.w3.org/2000/svg"><g clip-path="url(#clip0)"><path fill-rule="evenodd" clip-rule="evenodd" d="M20 5.5H4C3.72386 5.5 3.5 5.72386 3.5 6V15.5822L8.03349 11.6898C8.47476 11.3109 9.11904 11.2865 9.58778 11.6308L13.5726 14.5579L15.9619 12.6774C16.4488 12.2942 17.1428 12.3255 17.5933 12.7509L20.5 15.4962V6C20.5 5.72386 20.2761 5.5 20 5.5ZM20.5 17.5294L20.485 17.5453L16.7201 13.9895L14.3509 15.8542C13.9095 16.2016 13.2905 16.2119 12.8378 15.8793L8.85988 12.9573L3.5 17.5592V18C3.5 18.2761 3.72386 18.5 4 18.5H20C20.2761 18.5 20.5 18.2761 20.5 18V17.5294ZM4 4C2.89543 4 2 4.89543 2 6V18C2 19.1046 2.89543 20 4 20H20C21.1046 20 22 19.1046 22 18V6C22 4.89543 21.1046 4 20 4H4ZM16.5 9.5C16.5 11.1569 15.1569 12.5 13.5 12.5C11.8431 12.5 10.5 11.1569 10.5 9.5C10.5 7.84315 11.8431 6.5 13.5 6.5C15.1569 6.5 16.5 7.84315 16.5 9.5ZM13.5 11C14.3284 11 15 10.3284 15 9.5C15 8.67157 14.3284 8 13.5 8C12.6716 8 12 8.67157 12 9.5C12 10.3284 12.6716 11 13.5 11Z"/></g><defs><clipPath id="clip0"><path d="M0 0H24V24H0V0Z" fill="transparent"/></clipPath></defs></svg>