<svg width="24" height="24" viewBox="0 0 24 24" xmlns="http://www.w3.org/2000/svg"><path d="M19.5 3H4.5C3.18908 3 2 4.2153 2 5.50295V15.0346C2 16.3222 3.18908 17.013 4.5 17.013H5.5C5.82773 17.013 6 17.1917 6 17.5136V21L12 17H20C21.1046 17 22 16.1046 22 15V8H20.5V14.5C20.5 15.0523 20.0523 15.5 19.5 15.5H11.5L7.5 18V15.5H4.5C3.94772 15.5 3.5 15.0523 3.5 14.5V5.5C3.5 4.94772 3.94772 4.5 4.5 4.5H19.5C20.0523 4.5 20.5 4.94772 20.5 5.5V8H22V5.50295C22 4.2153 20.8109 3 19.5 3Z" /><path d="M6 7.5H18V9H6L6 7.5Z" /><path d="M6 11H18V12.5H6V11Z" /></svg>