<svg width="24" height="24" viewBox="0 0 24 24" xmlns="http://www.w3.org/2000/svg">
<path d="M7.2373 3.5127C6.55391 2.82938 5.44609 2.82938 4.7627 3.5127L3.17676 5.09863C2.49357 5.78204 2.49348 6.88989 3.17676 7.57324L16.4697 20.8662C16.6104 21.0068 16.8011 21.0859 17 21.0859H20C20.4141 21.0859 20.7499 20.75 20.75 20.3359V17.3359C20.75 17.1371 20.6708 16.9463 20.5303 16.8057L7.2373 3.5127ZM19.25 17.6465V19.5859H17.3105L7.06055 9.33594L9 7.39648L19.25 17.6465ZM5.82324 4.57324C5.92085 4.47571 6.07915 4.47571 6.17676 4.57324L7.93945 6.33594L6 8.27539L4.2373 6.5127C4.13982 6.41513 4.1399 6.2568 4.2373 6.15918L5.82324 4.57324Z" fill="#444444"/>
<path d="M3.25 19.75C2.83579 19.75 2.5 20.0858 2.5 20.5C2.50019 20.914 2.83591 21.25 3.25 21.25H13.25C13.6641 21.25 13.9998 20.914 14 20.5C14 20.0858 13.6642 19.75 13.25 19.75H3.25Z" fill="#444444"/>
</svg>
