<svg width="24" height="24" viewBox="0 0 24 24" xmlns="http://www.w3.org/2000/svg">
<path d="M9.15576 2.08643C12.8065 2.0866 15.8096 4.85417 16.1841 8.40576H20.0308C20.7208 8.40615 21.2808 8.96565 21.2808 9.65576V20.0308C21.2803 20.7205 20.7205 21.2804 20.0308 21.2808H9.65576C8.96567 21.2808 8.40619 20.7208 8.40576 20.0308V16.1841C4.85418 15.8096 2.08661 12.8065 2.08643 9.15576C2.08643 5.25153 5.25153 2.08643 9.15576 2.08643ZM9.90576 19.7808H19.7808V9.90576H9.90576V19.7808ZM9.15576 3.58643C6.07996 3.58643 3.58643 6.07996 3.58643 9.15576C3.58661 11.977 5.68477 14.306 8.40576 14.6724V9.65576C8.40576 8.96541 8.96541 8.40576 9.65576 8.40576H14.6733C14.3071 5.6847 11.9771 3.5866 9.15576 3.58643Z" fill="#444444"/>
</svg>
