<svg width="24" height="24" viewBox="0 0 24 24" xmlns="http://www.w3.org/2000/svg"><path d="M20.5 4.5L20.5 19.5L3.5 19.5L3.5 4.5L20.5 4.5ZM22 19L22 5C22 3.89543 21.1046 3 20 3L4.00549 3C3.47341 3 2.97026 3.20273 2.56338 3.60819C2.18779 4.01364 2 4.46978 2 5L2 19C2 19.5302 2.18779 19.9864 2.56338 20.3918C2.97026 20.7973 3.46792 21 4 21L20 21C20.5321 21 21.0141 20.7661 21.3897 20.3918C21.7966 19.9864 22 19.5302 22 19Z"/><path d="M6 15H18V16.5H6V15Z"/><path d="M6 11H18V12.5H6V11Z"/><path d="M6 7H18V8.5H6V7Z"/></svg>