<svg width="24" height="24" viewBox="0 0 24 24" xmlns="http://www.w3.org/2000/svg">
<path d="M14.6675 1.76465C14.8108 1.79317 14.944 1.86337 15.0493 1.96777L20.5288 7.40039C20.6712 7.5418 20.7512 7.73484 20.7505 7.93555L20.7075 20.5059C20.7042 21.4698 19.9215 22.2497 18.9575 22.25H13.5005C13.0863 22.25 12.7505 21.9142 12.7505 21.5C12.7505 21.0858 13.0863 20.75 13.5005 20.75H18.9575C19.095 20.7497 19.2069 20.6385 19.2075 20.501L19.2476 8.69141L15.5259 8.7373C14.5487 8.7492 13.7509 7.95864 13.7544 6.98145L13.769 3.25H6.00049C5.86248 3.25007 5.75049 3.36197 5.75049 3.5V13.5C5.75041 13.914 5.41444 14.2497 5.00049 14.25C4.58632 14.25 4.25054 13.9141 4.25049 13.5V3.5C4.2505 2.53355 5.03406 1.75007 6.00049 1.75H14.522L14.6675 1.76465ZM15.2544 6.98633C15.2539 7.12588 15.3678 7.23894 15.5073 7.2373L18.2007 7.2041L15.2642 4.29297L15.2544 6.98633Z" fill="#444444"/>
<path d="M5.53003 15.9607C5.74749 15.7507 6.0707 15.6918 6.34839 15.8113C6.62583 15.9309 6.80457 16.2054 6.80151 16.5076L6.74976 21.5076C6.74544 21.9216 6.40597 22.2539 5.99194 22.2498C5.57776 22.2454 5.24545 21.9061 5.24976 21.4919L5.28198 18.2849L5.02124 18.5388C4.72351 18.8266 4.24859 18.8188 3.96069 18.5212C3.67291 18.2235 3.68067 17.7486 3.97827 17.4607L5.53003 15.9607ZM11.1365 15.7498C11.7508 15.7499 12.2496 16.2487 12.2498 16.863C12.2497 17.1333 12.1512 17.3913 11.9783 17.5925C11.7142 17.8994 11.0057 18.7472 10.6511 19.3708C10.4244 19.7697 10.1919 20.3449 10.0095 20.8484C9.92045 21.0942 9.84691 21.3133 9.79565 21.4705C9.77012 21.5487 9.75043 21.6124 9.73706 21.655C9.73049 21.676 9.72473 21.6922 9.72144 21.7029C9.7199 21.7079 9.71922 21.7121 9.71851 21.7146L9.71753 21.7175C9.59748 22.1139 9.17833 22.3384 8.78198 22.2185C8.38557 22.0984 8.16194 21.6794 8.28198 21.283V21.281C8.28239 21.2801 8.28349 21.2786 8.28394 21.2771C8.28498 21.2735 8.28591 21.2678 8.28784 21.2615C8.29184 21.2485 8.29801 21.2295 8.30542 21.2058C8.32034 21.1582 8.3424 21.0898 8.36987 21.0056C8.4249 20.8369 8.50357 20.602 8.59937 20.3376C8.78698 19.8198 9.05464 19.1447 9.34741 18.6296C9.60546 18.1758 9.99329 17.6593 10.3181 17.2507H8.49976C8.08571 17.2507 7.75002 16.9147 7.74976 16.5007C7.74987 16.0866 8.08561 15.7498 8.49976 15.7498H11.1365Z" fill="#446ECA"/>
</svg>
