<svg width="24" height="24" viewBox="0 0 24 24" xmlns="http://www.w3.org/2000/svg">
<path fill-rule="evenodd" clip-rule="evenodd" d="M11.3674 15.5717C11.7378 15.6191 12.1159 15.6435 12.5 15.6435C15.2967 15.6435 17.7756 14.3465 19.3073 12.3467C18.5633 11.3753 18.1102 10.8546 16.9915 10.283L17.7073 9.58652C19.0687 10.3276 19.6747 11.0808 20.5 12.3467C18.8413 14.891 15.8786 16.5855 12.5 16.5855C11.8243 16.5855 11.1652 16.5177 10.5298 16.3889L11.3674 15.5717ZM8.17046 14.5046C7.20046 13.95 6.35741 13.2145 5.69275 12.3467C7.2244 10.3469 9.70332 9.04982 12.5 9.04982C13.0914 9.04982 13.2114 9.03382 13.7838 9.1153L14.699 8.31589C13.8768 8.0911 13.4084 8.10786 12.5145 8.10786H12.5C9.12136 8.10786 6.15875 9.80233 4.5 12.3467C5.2426 13.4858 6.24654 14.4545 7.43213 15.1771L8.17046 14.5046Z"/>
<path d="M15.9966 9.83169C15.6771 9.7025 15.3302 9.57213 14.9969 9.45723L9.19054 15.001C9.52118 15.1356 9.86271 15.2507 10.2135 15.3446L15.9966 9.83169Z"/>
<path d="M16.7481 9.1153C16.4394 8.97672 16.1037 8.83383 15.7836 8.70608L14.9969 9.45723C15.3302 9.57213 15.6771 9.7025 15.9966 9.83169L16.7481 9.1153Z"/>
<path d="M18.2878 7.64747L17.5746 6.99609L15.7836 8.70608C16.1037 8.83383 16.4394 8.97672 16.7481 9.1153L18.2878 7.64747Z"/>
<path d="M9.4249 16.0964C9.08903 15.9859 8.76179 15.8579 8.44439 15.7134L6.73374 17.3467L7.43213 17.9961L9.4249 16.0964Z"/>
<path d="M10.2135 15.3446C9.86271 15.2507 9.52118 15.1356 9.19054 15.001L8.44439 15.7134C8.76179 15.8579 9.08903 15.9859 9.4249 16.0964L10.2135 15.3446Z"/>
</svg>
