<svg width="24" height="24" viewBox="0 0 24 24" xmlns="http://www.w3.org/2000/svg">
<path d="M14.3369 2L21 8.29297V23H3V2H14.3369ZM4.05859 3V22H19.9414V9H13.5879V3H4.05859ZM8.23828 20.1025H7.49219V15.3477C7.31258 15.5189 7.076 15.6901 6.7832 15.8613C6.49311 16.0326 6.23209 16.1614 6 16.2471V15.5254C6.41729 15.3292 6.78245 15.0916 7.09473 14.8125C7.40693 14.5334 7.62795 14.2625 7.75781 14H8.23828V20.1025ZM13.458 14.6836C13.0711 15.0953 12.687 15.6427 12.3057 16.3252C11.927 17.0078 11.634 17.7103 11.4268 18.4316C11.2776 18.9401 11.1821 19.4974 11.1406 20.1025H10.374C10.3823 19.6244 10.4766 19.0462 10.6562 18.3691C10.8358 17.6923 11.0925 17.0402 11.4268 16.4131C11.7639 15.7831 12.1224 15.2524 12.501 14.8213H9.52441V14.1035H13.458V14.6836ZM14.6475 8H19.1924L14.6475 3.70703V8Z"/>
</svg>
