<svg width="24" height="24" viewBox="0 0 24 24" xmlns="http://www.w3.org/2000/svg">
<path d="M18.2085 5C18.6806 5 19.0974 5.15785 19.4585 5.47363C19.8195 5.78952 20.0004 6.15432 20.0005 6.56738V17.4326C20.0004 17.8457 19.8195 18.2105 19.4585 18.5264C19.0974 18.8421 18.6806 19 18.2085 19H5.7915C5.3194 19 4.90256 18.8421 4.5415 18.5264C4.18047 18.2105 3.99961 17.8457 3.99951 17.4326V6.56738C3.99961 6.15432 4.18047 5.78952 4.5415 5.47363C4.90256 5.15785 5.3194 5 5.7915 5H18.2085ZM11.1245 15.5L8.87451 13.167L5.7915 16.667H18.2085L14.2085 12L11.1245 15.5ZM8.79932 8.11133C7.91561 8.11133 7.19873 8.80788 7.19873 9.66699C7.19891 10.526 7.91572 11.2227 8.79932 11.2227C9.68269 11.2224 10.3987 10.5258 10.3989 9.66699C10.3989 8.80804 9.68281 8.11158 8.79932 8.11133Z"/>
</svg>
