<svg width="24" height="24" viewBox="0 0 24 24" xmlns="http://www.w3.org/2000/svg">
<path d="M20.5 1.74902C21.4664 1.74902 22.2499 2.53264 22.25 3.49902V20.499C22.25 21.4655 21.4665 22.249 20.5 22.249H3.5C2.5335 22.249 1.75 21.4655 1.75 20.499V3.49902C1.75013 2.53264 2.53358 1.74902 3.5 1.74902H20.5ZM3.5 3.24902C3.36201 3.24902 3.25013 3.36106 3.25 3.49902V20.499C3.25 20.6371 3.36193 20.749 3.5 20.749H20.5C20.6381 20.749 20.75 20.6371 20.75 20.499V3.49902C20.7499 3.36106 20.638 3.24902 20.5 3.24902H3.5Z" fill="#444444"/>
<path d="M16.9698 6.97029C16.8292 6.82964 16.6384 6.75073 16.4395 6.7507L9.43953 6.75001C9.02534 6.75003 8.68893 7.08642 8.68892 7.50062C8.68925 7.91443 9.02498 8.25036 9.43884 8.25054H14.6289L6.90872 15.9693C6.61608 16.2621 6.61619 16.7371 6.90872 17.03C7.20156 17.3227 7.6765 17.3227 7.96938 17.03L15.6895 9.3112L15.6889 14.5006C15.689 14.9146 16.0247 15.2504 16.4388 15.2505C16.8528 15.2504 17.1885 14.9146 17.1887 14.5006L17.1894 7.50062C17.1894 7.30178 17.1103 7.11094 16.9698 6.97029Z" fill="#444444"/>
</svg>
