<svg width="24" height="24" viewBox="0 0 24 24" xmlns="http://www.w3.org/2000/svg"><g clip-path="url(#clip0)"><path d="M3 11H7V13H3V11Z"/><path d="M9 11H15V13H9V11Z"/><path d="M17 11H21V13H17V11Z"/><path fill-rule="evenodd" clip-rule="evenodd" d="M18 4H6V9H4V4C4 2.89543 4.89543 2 6 2H18C18.5302 2 18.9864 2.20344 19.3918 2.61033C19.7661 2.98592 20 3.46792 20 4V9H18V4ZM6 15V20.0282L18 20V15H20V20C20 20.5321 19.7973 21.0297 19.3918 21.4366C18.9864 21.8122 18.5302 22 18 22H6C5.46979 22 5.01364 21.8122 4.60819 21.4366C4.20273 21.0297 4 20.5266 4 19.9945V15H6Z"/></g><defs><clipPath id="clip0"><path d="M0 0H24V24H0V0Z" fill="transparent"/></clipPath></defs></svg>