<svg width="24" height="24" viewBox="0 0 24 24" xmlns="http://www.w3.org/2000/svg">
<path d="M18.7495 20.5C18.7495 20.638 18.6375 20.75 18.4995 20.75H5.54541C5.40759 20.7497 5.29547 20.6379 5.29541 20.5V17H3.79541V20.5C3.79548 21.4663 4.57917 22.2497 5.54541 22.25H18.4995C19.466 22.25 20.2495 21.4664 20.2495 20.5V17H18.7495V20.5ZM9.83252 1.76465C9.68917 1.79317 9.55599 1.86337 9.45068 1.96777L3.97119 7.40039C3.82949 7.54108 3.74963 7.73293 3.74951 7.93262V13H5.24951V8.69141L8.97412 8.7373C9.95132 8.7492 10.7491 7.95864 10.7456 6.98145L10.731 3.25H18.4995C18.6375 3.25008 18.7495 3.36198 18.7495 3.5V13H20.2495V3.5C20.2495 2.53355 19.4659 1.75008 18.4995 1.75H9.97803L9.83252 1.76465ZM9.24561 6.98633C9.24609 7.12588 9.13222 7.23894 8.99268 7.2373L6.29932 7.2041L9.23584 4.29297L9.24561 6.98633Z" fill="#444444"/>
<path d="M4.5 14.25C4.91421 14.25 5.25 14.5858 5.25 15C5.25 15.4142 4.91421 15.75 4.5 15.75H3.5C3.08579 15.75 2.75 15.4142 2.75 15C2.75 14.5858 3.08579 14.25 3.5 14.25H4.5ZM8.5 14.25C8.91421 14.25 9.25 14.5858 9.25 15C9.25 15.4142 8.91421 15.75 8.5 15.75H7.5C7.08579 15.75 6.75 15.4142 6.75 15C6.75 14.5858 7.08579 14.25 7.5 14.25H8.5ZM12.5 14.25C12.9142 14.25 13.25 14.5858 13.25 15C13.25 15.4142 12.9142 15.75 12.5 15.75H11.5C11.0858 15.75 10.75 15.4142 10.75 15C10.75 14.5858 11.0858 14.25 11.5 14.25H12.5ZM16.5 14.25C16.9142 14.25 17.25 14.5858 17.25 15C17.25 15.4142 16.9142 15.75 16.5 15.75H15.5C15.0858 15.75 14.75 15.4142 14.75 15C14.75 14.5858 15.0858 14.25 15.5 14.25H16.5ZM20.5 14.25C20.9142 14.25 21.25 14.5858 21.25 15C21.25 15.4142 20.9142 15.75 20.5 15.75H19.5C19.0858 15.75 18.75 15.4142 18.75 15C18.75 14.5858 19.0858 14.25 19.5 14.25H20.5Z" fill="#446ECA"/>
</svg>
