<svg width="24" height="24" viewBox="0 0 24 24" xmlns="http://www.w3.org/2000/svg"><path d="M17.0235 7C18.4006 7 19.5743 7.49845 20.5446 8.49534C21.5149 9.46108 22 10.6293 22 12C22 13.3708 21.5149 14.5546 20.5446 15.5515C19.5743 16.5172 18.4006 17.0001 17.0235 17.0001H13V15H17C17.8451 15 18.5884 14.7882 19.1831 14.1963C19.8091 13.5733 20 12.8411 20 12C20 11.1589 19.8091 10.4424 19.1831 9.85049C18.5884 9.22743 17.8685 9 17.0235 9H13V7H17.0235ZM8.00939 12.9814V11.0187H15.9906V12.9814H8.00939ZM4.76995 9.85049C4.17527 10.4424 4 11.1589 4 12C4 12.8411 4.17527 13.5733 4.76995 14.1963C5.39593 14.7882 6.15493 15 7 15H11.0141V17.0001H6.97653C5.59937 17.0001 4.42567 16.5172 3.4554 15.5515C2.48513 14.5546 2 13.3708 2 12C2 10.6293 2.48513 9.46108 3.4554 8.49534C4.42567 7.49845 5.59937 7 6.97653 7H11.0141V9H6.97653C6.13146 9 5.39593 9.22743 4.76995 9.85049Z"/></svg>