<svg width="24" height="24" viewBox="0 0 24 24" xmlns="http://www.w3.org/2000/svg"><path d="M16.6047 16.5848C17.0078 16.1793 17.4729 15.9766 18 15.9766C18.5271 15.9766 18.9922 16.1793 19.3953 16.5848C19.7984 16.9903 20 17.4581 20 17.9883C20 18.5185 19.7984 18.9864 19.3953 19.3918C18.9922 19.7973 18.5271 20 18 20C17.4729 20 17.0078 19.7973 16.6047 19.3918C16.2016 18.9864 16 18.5185 16 17.9883C16 17.4581 16.2016 16.9903 16.6047 16.5848ZM16.6047 10.5965C17.0078 10.191 17.4729 9.9883 18 9.9883C18.5271 9.9883 18.9922 10.191 19.3953 10.5965C19.7984 11.0019 20 11.4698 20 12C20 12.5302 19.7984 12.9981 19.3953 13.4035C18.9922 13.809 18.5271 14.0117 18 14.0117C17.4729 14.0117 17.0078 13.809 16.6047 13.4035C16.2016 12.9981 16 12.5302 16 12C16 11.4698 16.2016 11.0019 16.6047 10.5965ZM19.3953 7.4152C18.9922 7.82066 18.5271 8.02339 18 8.02339C17.4729 8.02339 17.0078 7.82066 16.6047 7.4152C16.2016 7.00975 16 6.54191 16 6.0117C16 5.48148 16.2016 5.01365 16.6047 4.60819C17.0078 4.20273 17.4729 4 18 4C18.5271 4 18.9922 4.20273 19.3953 4.60819C19.7984 5.01365 20 5.48148 20 6.0117C20 6.54191 19.7984 7.00975 19.3953 7.4152Z" fill-opacity="0.6"/></svg>