<svg width="24" height="24" viewBox="0 0 24 24" xmlns="http://www.w3.org/2000/svg">
<path d="M14.5 3C15.8109 3 17 4.21529 17 5.50293V8.00586H16V5.50293C16 4.80546 15.2101 4.00098 14.5 4.00098H4.5C3.78993 4.00098 3.00002 4.80546 3 5.50293V12.0342C3 12.7317 3.78992 13.0117 4.5 13.0117H7V16.5L10 14.25V10.8555C10 9.83481 10.8263 9.00708 11.8457 9.00684H20.1543C21.1737 9.00708 22 9.83481 22 10.8555V15.1689C22 16.1896 21.1737 17.0173 20.1543 17.0176H19.4619C19.2071 17.0176 19.0002 17.2244 19 17.4795V20.0371C18.9999 20.4288 18.5438 20.6424 18.2432 20.3916L14.1279 17.125C14.045 17.0559 13.9409 17.0176 13.833 17.0176H11.8457C11.006 17.0174 10.298 16.4559 10.0742 15.6875L7 18.0186C6.61357 18.3349 6.00022 18.0126 6 17.5186V14.5137C6 14.1918 5.82773 14.0127 5.5 14.0127H4.5C3.18908 14.0127 2 13.3218 2 12.0342V5.50293C2.00001 4.21529 3.18909 3 4.5 3H14.5ZM12 10.0078C11.4477 10.0078 11 10.4568 11 11.0098V15.0156C11.0001 15.5684 11.4478 16.0166 12 16.0166H14.5L18 19C18 19 18 19.2912 18 18.8994L18.0029 16.0166H20C20.5522 16.0166 20.9999 15.5684 21 15.0156V11.0098C21 10.4568 20.5523 10.0078 20 10.0078H12Z"/>
</svg>
