<svg width="24" height="24" viewBox="0 0 24 24" xmlns="http://www.w3.org/2000/svg">
<path d="M19.4998 4.74951C20.4663 4.74951 21.2498 5.53301 21.2498 6.49951V17.4995C21.2495 18.4658 20.4661 19.2495 19.4998 19.2495H4.49976C3.53353 19.2494 2.75002 18.4657 2.74976 17.4995V6.49951C2.74976 5.5331 3.53337 4.74965 4.49976 4.74951H19.4998ZM12.6052 14.5659C12.2725 14.9026 11.728 14.9025 11.3953 14.5659L9.67358 12.8218L4.37378 17.7134C4.41091 17.7353 4.45354 17.7495 4.49976 17.7495H19.4998C19.5459 17.7495 19.5886 17.7352 19.6257 17.7134L14.3269 12.8208L12.6052 14.5659ZM4.24976 15.7876L8.6189 11.7534L4.24976 7.32764V15.7876ZM15.3816 11.7524L19.7498 15.7856V7.32764L15.3816 11.7524ZM11.9998 13.0425L18.7048 6.24951H5.29468L11.9998 13.0425Z" fill="#444444"/>
</svg>
