<svg width="24" height="24" viewBox="0 0 24 24" xmlns="http://www.w3.org/2000/svg">
<path fill-rule="evenodd" clip-rule="evenodd" d="M20.5 1.5H9.79289L3.5 7.79289V14.5H4.5V8.5H10.5V2.5H19.5V14.5H20.5V1.5ZM9.5 7.5H5.20711L9.5 3.20711V7.5ZM3.5 15.5V22.5H20.5V15.5H19.5V21.5H4.5V15.5H3.5ZM6.5 14.5H5.5V15.5H6.5V14.5ZM7.5 14.5H8.5V15.5H7.5V14.5ZM10.5 14.5H9.5V15.5H10.5V14.5ZM11.5 14.5H12.5V15.5H11.5V14.5ZM14.5 14.5H13.5V15.5H14.5V14.5ZM15.5 14.5H16.5V15.5H15.5V14.5ZM18.5 14.5H17.5V15.5H18.5V14.5Z"/>
</svg>
