<svg width="24" height="24" viewBox="0 0 24 24" xmlns="http://www.w3.org/2000/svg">
<path d="M5.5 1.74512C4.5335 1.74512 3.75 2.52862 3.75 3.49512V5.49902C3.75 5.91324 4.08579 6.24902 4.5 6.24902C4.91421 6.24902 5.25 5.91324 5.25 5.49902V3.49512C5.25 3.35705 5.36193 3.24512 5.5 3.24512H18.5C18.6381 3.24512 18.75 3.35705 18.75 3.49512V20.499C18.75 20.6371 18.6381 20.749 18.5 20.749H5.5C5.36193 20.749 5.25 20.6371 5.25 20.499V16.748C5.24996 16.3339 4.91419 15.998 4.5 15.998C4.08581 15.998 3.75004 16.3339 3.75 16.748V20.499C3.75 21.4655 4.5335 22.249 5.5 22.249H18.5C19.4665 22.249 20.25 21.4655 20.25 20.499V3.49512C20.25 2.52862 19.4665 1.74512 18.5 1.74512H5.5Z" fill="#444444"/>
<path d="M4.6709 8.17578C3.98749 7.49239 2.87873 7.49239 2.19531 8.17578L1.63965 8.73145C0.956431 9.41474 0.956652 10.5226 1.63965 11.2061L7.5 17.0664C7.64062 17.2069 7.8315 17.2861 8.03027 17.2861H10C10.4141 17.2861 10.7498 16.9502 10.75 16.5361V14.5654C10.7499 14.3667 10.6708 14.1757 10.5303 14.0352L4.6709 8.17578ZM14 14.749C13.5858 14.749 13.25 15.0848 13.25 15.499C13.25 15.9132 13.5858 16.249 14 16.249H15C15.4142 16.249 15.75 15.9132 15.75 15.499C15.75 15.0848 15.4142 14.749 15 14.749H14ZM9.25 14.876V15.7861H8.34082L4.49414 11.9385L5.4043 11.0293L9.25 14.876ZM11 10.749C10.5858 10.749 10.25 11.0848 10.25 11.499C10.25 11.9132 10.5858 12.249 11 12.249H15C15.4142 12.249 15.75 11.9132 15.75 11.499C15.75 11.0848 15.4142 10.749 15 10.749H11ZM3.25684 9.23633C3.35448 9.13899 3.51281 9.13882 3.61035 9.23633L4.34375 9.96875L3.43359 10.8779L2.7002 10.1455C2.60299 10.0479 2.60276 9.8895 2.7002 9.79199L3.25684 9.23633ZM9 6.74902C8.58579 6.74902 8.25 7.08481 8.25 7.49902C8.25 7.91324 8.58579 8.24902 9 8.24902H15C15.4142 8.24902 15.75 7.91324 15.75 7.49902C15.75 7.08481 15.4142 6.74902 15 6.74902H9Z" fill="#446ECA"/>
</svg>
