<svg width="24" height="24" viewBox="0 0 24 24" xmlns="http://www.w3.org/2000/svg">
<path d="M5.27148 20.5022C5.27276 20.6392 5.38439 20.7501 5.52148 20.7502H18.5C18.6376 20.7499 18.7498 20.6379 18.75 20.5002V17.0002H20.25V20.5002C20.2497 21.4663 19.466 22.2499 18.5 22.2502H5.52148C4.55942 22.2501 3.7776 21.473 3.77148 20.511L3.75 17.0051L5.25 16.9954L5.27148 20.5022ZM18.5 1.75024C19.4662 1.75057 20.25 2.53395 20.25 3.50024L20.249 13.0002H18.749L18.75 3.50024C18.75 3.36238 18.6378 3.25057 18.5 3.25024H5.47168C5.33361 3.25025 5.22168 3.36218 5.22168 3.50024V13.0002H3.72168V3.50024C3.72168 2.53375 4.50519 1.75025 5.47168 1.75024H18.5Z" fill="#444444"/>
<path d="M4.5 14.25C4.91421 14.25 5.25 14.5858 5.25 15C5.25 15.4142 4.91421 15.75 4.5 15.75H3.5C3.08579 15.75 2.75 15.4142 2.75 15C2.75 14.5858 3.08579 14.25 3.5 14.25H4.5ZM8.5 14.25C8.91421 14.25 9.25 14.5858 9.25 15C9.25 15.4142 8.91421 15.75 8.5 15.75H7.5C7.08579 15.75 6.75 15.4142 6.75 15C6.75 14.5858 7.08579 14.25 7.5 14.25H8.5ZM12.5 14.25C12.9142 14.25 13.25 14.5858 13.25 15C13.25 15.4142 12.9142 15.75 12.5 15.75H11.5C11.0858 15.75 10.75 15.4142 10.75 15C10.75 14.5858 11.0858 14.25 11.5 14.25H12.5ZM16.5 14.25C16.9142 14.25 17.25 14.5858 17.25 15C17.25 15.4142 16.9142 15.75 16.5 15.75H15.5C15.0858 15.75 14.75 15.4142 14.75 15C14.75 14.5858 15.0858 14.25 15.5 14.25H16.5ZM20.5 14.25C20.9142 14.25 21.25 14.5858 21.25 15C21.25 15.4142 20.9142 15.75 20.5 15.75H19.5C19.0858 15.75 18.75 15.4142 18.75 15C18.75 14.5858 19.0858 14.25 19.5 14.25H20.5Z" fill="#446ECA"/>
</svg>
