<svg width="24" height="24" viewBox="0 0 24 24" xmlns="http://www.w3.org/2000/svg">
<path d="M13.9697 4.46973C14.2626 4.17683 14.7374 4.17683 15.0303 4.46973L19.0303 8.46973C19.3231 8.76262 19.3232 9.23739 19.0303 9.53027L15.0303 13.5303C14.7374 13.8231 14.2626 13.8231 13.9697 13.5303C13.6768 13.2374 13.6769 12.7626 13.9697 12.4697L16.6895 9.75H10.5C8.15279 9.75 6.25 11.6528 6.25 14C6.25003 16.3472 8.15281 18.25 10.5 18.25H11.5C11.9142 18.25 12.25 18.5858 12.25 19C12.25 19.4142 11.9142 19.75 11.5 19.75H10.5C7.32438 19.75 4.75003 17.1756 4.75 14C4.75 10.8244 7.32436 8.25 10.5 8.25H16.6895L13.9697 5.53027C13.6768 5.23739 13.6769 4.76262 13.9697 4.46973Z" fill="#444444"/>
</svg>
