<svg width="24" height="24" viewBox="0 0 24 24" xmlns="http://www.w3.org/2000/svg">
<path d="M21.5 5C21.5 3.89543 20.5851 3 19.4566 3H6.17446C5.04592 3 4.13105 3.89543 4.13105 5V7H5.15276V5C5.15276 4.44772 5.61019 4 6.17446 4H19.4566C20.0209 4 20.4783 4.44772 20.4783 5V19C20.4783 19.5523 20.0209 20 19.4566 20H6.17446C5.61019 20 5.15276 19.5523 5.15276 19V14H4.13105V19C4.13105 20.1046 5.04592 21 6.17446 21H19.4566C20.5851 21 21.5 20.1046 21.5 19V5Z"/>
<path d="M8.21786 7.5C8.21786 7.77614 8.44658 8 8.72872 8H16.9023C17.1845 8 17.4132 7.77614 17.4132 7.5C17.4132 7.22386 17.1845 7 16.9023 7H8.72872C8.44658 7 8.21786 7.22386 8.21786 7.5Z"/>
<path d="M10.2613 11.5C10.2613 11.7761 10.49 12 10.7721 12H16.9023C17.1845 12 17.4132 11.7761 17.4132 11.5C17.4132 11.2239 17.1845 11 16.9023 11H10.7721C10.49 11 10.2613 11.2239 10.2613 11.5Z"/>
<path d="M13.3264 15.5C13.3264 15.7761 13.5551 16 13.8372 16H16.9023C17.1845 16 17.4132 15.7761 17.4132 15.5C17.4132 15.2239 17.1845 15 16.9023 15H13.8372C13.5551 15 13.3264 15.2239 13.3264 15.5Z"/>
<path d="M10.9837 15.2071C11.1753 15.3946 11.283 15.649 11.283 15.9142V17H10.1736C9.90265 17 9.64278 16.8946 9.45117 16.7071L2.29925 9.70711C1.90025 9.31658 1.90025 8.68342 2.29925 8.29289L2.3869 8.20711C2.7859 7.81658 3.4328 7.81658 3.8318 8.20711L10.9837 15.2071Z"/>
</svg>
