<svg width="24" height="24" viewBox="0 0 24 24" xmlns="http://www.w3.org/2000/svg"><path d="M23 13.4099L19.4099 17L23 20.5901L21.5901 22L18 18.4099L14.4099 22L13 20.5901L16.5901 17L13 13.4099L14.4099 12L18 15.5901L21.5901 12L23 13.4099Z" /><path fill-rule="evenodd" clip-rule="evenodd" d="M20.5 10L20.5 4.5L3.5 4.5L3.5 17.5L11 17.5L11 19L4 19C3.46792 19 2.97026 18.7973 2.56338 18.3918C2.18779 17.9864 2 17.5302 2 17L2 5C2 4.46978 2.18779 4.01364 2.56338 3.60819C2.97026 3.20273 3.4734 3 4.00549 3L20 3C21.1046 3 22 3.89543 22 5L22 10L20.5 10Z"/><path d="M6 8H18V9.5H6L6 8Z"/><path d="M6 12H11V13.5H6V12Z"/></svg>