<svg width="24" height="24" viewBox="0 0 24 24" xmlns="http://www.w3.org/2000/svg">
<path d="M17.8882 5.05322C18.1811 4.76056 18.6559 4.76049 18.9487 5.05322C19.2415 5.34611 19.2415 5.82093 18.9487 6.11377L13.0601 12.0005L18.9487 17.8882C19.2415 18.181 19.2414 18.6558 18.9487 18.9487C18.6559 19.2414 18.1811 19.2414 17.8882 18.9487L11.9985 13.061L6.11084 18.9487C5.81798 19.2415 5.34317 19.2415 5.05029 18.9487C4.75748 18.6558 4.75749 18.1811 5.05029 17.8882L10.938 12.0005L5.05029 6.11475C4.75745 5.82198 4.75771 5.34715 5.05029 5.0542C5.34307 4.7615 5.81793 4.76068 6.11084 5.05322L11.9995 10.9399L17.8882 5.05322Z" fill="#444444"/>
</svg>
