<svg width="24" height="24" viewBox="0 0 24 24" xmlns="http://www.w3.org/2000/svg">
<path d="M5.5 16.5C6.32843 16.5 7 17.1716 7 18C7 18.8284 6.32843 19.5 5.5 19.5C4.67157 19.5 4 18.8284 4 18C4 17.1716 4.67157 16.5 5.5 16.5ZM12 16.5C12.8284 16.5 13.5 17.1716 13.5 18C13.5 18.8284 12.8284 19.5 12 19.5C11.1716 19.5 10.5 18.8284 10.5 18C10.5 17.1716 11.1716 16.5 12 16.5ZM18.5 16.5C19.3284 16.5 20 17.1716 20 18C20 18.8284 19.3284 19.5 18.5 19.5C17.6716 19.5 17 18.8284 17 18C17 17.1716 17.6716 16.5 18.5 16.5Z"/>
</svg>
