<svg width="24" height="24" viewBox="0 0 24 24" xmlns="http://www.w3.org/2000/svg">
<path fill-rule="evenodd" clip-rule="evenodd" d="M9 8.00002C9 9.10459 8.10457 10 7 10C5.89543 10 5 9.10459 5 8.00002C5 6.89545 5.89543 6.00002 7 6.00002C8.10457 6.00002 9 6.89545 9 8.00002ZM8 8.00002C8 8.5523 7.55229 9.00002 7 9.00002C6.44772 9.00002 6 8.5523 6 8.00002C6 7.44773 6.44772 7.00002 7 7.00002C7.55229 7.00002 8 7.44773 8 8.00002Z"/>
<path fill-rule="evenodd" clip-rule="evenodd" d="M2 2.99997C2 8.99996 2.00005 12.9999 2 18.9999C12.4199 19.0008 22 18.9999 22 18.9999C22 18.9999 22 11.6325 22 2.99994C15.3333 3.00047 8.66667 3.00028 2 2.99997ZM21 4H3V15.2929L6.50001 11.7929L8.50001 13.7929L14.5 7.79286L21 14.2929V4ZM3.00001 18L3 16.7071L6.50001 13.2071L8.50001 15.2071L14.5 9.20708L21 15.7071L21 18H3.00001Z"/>
</svg>
