<svg width="24" height="24" viewBox="0 0 24 24" xmlns="http://www.w3.org/2000/svg">
<path d="M19.5684 3.82129C20.5344 3.82172 21.3183 4.60513 21.3184 5.57129V18.4248C21.3184 19.391 20.5345 20.1744 19.5684 20.1748H4.43262C3.46625 20.1747 2.68262 19.3912 2.68262 18.4248V5.57812C2.67917 4.60921 3.46368 3.82129 4.43262 3.82129H19.5684ZM4.18262 18.4248C4.18262 18.5628 4.29467 18.6747 4.43262 18.6748H8.39355V15.6074H4.18262V18.4248ZM9.89355 18.6748H14.1074V15.6074H9.89355V18.6748ZM15.6074 18.6748H19.5684C19.7061 18.6744 19.8184 18.5626 19.8184 18.4248V15.6074H15.6074V18.6748ZM4.18262 14.1074H8.39355V11.0361H4.18262V14.1074ZM9.89355 14.1074H14.1074V11.0361H9.89355V14.1074ZM15.6074 14.1074H19.8184V11.0361H15.6074V14.1074ZM4.18262 9.53613H8.39355V6.46875H4.18262V9.53613ZM9.89355 9.53613H14.1074V6.46875H9.89355V9.53613ZM15.6074 9.53613H19.8184V6.46875H15.6074V9.53613Z" fill="#444444"/>
</svg>
