<svg width="24" height="24" viewBox="0 0 24 24" xmlns="http://www.w3.org/2000/svg"><path fill-rule="evenodd" clip-rule="evenodd" d="M17.5 3.5H4.5V20.5H17.5V18H19V20C19 20.5321 18.7973 21.0297 18.3918 21.4366C17.9864 21.8122 17.5302 22 17 22H5C4.46979 22 4.01364 21.8122 3.60819 21.4366C3.20273 21.0297 3 20.5266 3 19.9945V4C3 2.89543 3.89543 2 5 2H17C17.5302 2 17.9864 2.20344 18.3918 2.61033C18.7661 2.98592 19 3.46792 19 4V7H17.5V3.5Z" /><path d="M22.8438 10.2396L21.8281 11.2552L19.7448 9.17188L20.7604 8.15625C20.8646 8.05208 20.9948 8 21.151 8C21.3073 8 21.4375 8.05208 21.5417 8.15625L22.8438 9.45833C22.9479 9.5625 23 9.69271 23 9.84896C23 10.0052 22.9479 10.1354 22.8438 10.2396ZM13 15.9167L19.1458 9.77083L21.2292 11.8542L15.0833 18H13V15.9167Z" /><path d="M7 15.5H11V17H7V15.5Z" /><path d="M7 11H13V12.5H7V11Z" /><path d="M7 7H15V8.5H7V7Z" /></svg>