<svg width="24" height="24" viewBox="0 0 24 24" xmlns="http://www.w3.org/2000/svg">
<path d="M21 14.4002C21 17.493 18.4629 20.0002 15.3333 20.0002C12.2037 20.0002 9.66667 17.493 9.66667 14.4002C9.66667 11.3074 12.2037 8.80017 15.3333 8.80017C18.4629 8.80017 21 11.3074 21 14.4002Z"/>
<path fill-rule="evenodd" clip-rule="evenodd" d="M5 4.80005C4.44772 4.80005 4 5.24776 4 5.80005V15.8001C4 16.3524 4.44771 16.8001 5 16.8001H9.32787C9.02431 16.059 8.85714 15.2488 8.85714 14.4001C8.85714 10.8655 11.7566 8.00012 15.3333 8.00012C15.8924 8.00012 16.4349 8.07013 16.9524 8.20175V5.80005C16.9524 5.24776 16.5047 4.80005 15.9524 4.80005H5Z"/>
</svg>
