<svg xmlns="http://www.w3.org/2000/svg" width="28" height="28" fill="none" viewBox="0 0 28 28">
  <path fill="#383838" fill-rule="evenodd" d="M14 5.5a.5.5 0 0 0-1 0v2a.5.5 0 0 0 1 0v-2ZM7.49 7.782a.5.5 0 1 0-.708.708l1.415 1.414a.5.5 0 1 0 .707-.707L7.49 7.782Zm12.728.708a.5.5 0 1 0-.708-.708l-1.414 1.415a.5.5 0 1 0 .707.707l1.415-1.414ZM4.5 14a.5.5 0 0 0 0 1h2a.5.5 0 0 0 0-1h-2Zm16 0a.5.5 0 0 0 0 1h2a.5.5 0 0 0 0-1h-2ZM8.904 19.803a.5.5 0 1 0-.707-.707L6.782 20.51a.5.5 0 1 0 .708.707l1.414-1.414Zm9.9-.707a.5.5 0 1 0-.708.707l1.414 1.415a.5.5 0 1 0 .707-.708l-1.414-1.414ZM14 21.5a.5.5 0 0 0-1 0v2a.5.5 0 0 0 1 0v-2Zm-5-7a4.5 4.5 0 1 1 9 0 4.5 4.5 0 0 1-9 0ZM13.5 9a5.5 5.5 0 1 0 0 11 5.5 5.5 0 0 0 0-11Z" clip-rule="evenodd"/>
</svg>
