<svg xmlns="http://www.w3.org/2000/svg" width="28" height="28" fill="none" viewBox="0 0 28 28">
  <path fill="#383838" fill-rule="evenodd" d="M14 5a9 9 0 0 0-7.655 13.735c.1.162.126.362.066.547L5.282 22.72l3.455-1.12a.651.651 0 0 1 .543.065A9 9 0 1 0 14 5ZM4 14C4 8.477 8.477 4 14 4s10 4.477 10 10-4.477 10-10 10a9.956 9.956 0 0 1-5.107-1.4l-3.77 1.224a.75.75 0 0 1-.945-.948l1.232-3.753A9.956 9.956 0 0 1 4 14Z" clip-rule="evenodd"/>
  <path fill="#446ECA" fill-rule="evenodd" d="M10 13.5a.5.5 0 1 0 0 1 .5.5 0 0 0 0-1Zm-1.5.5a1.5 1.5 0 1 1 3 0 1.5 1.5 0 0 1-3 0Zm5.5-.5a.5.5 0 1 0 0 1 .5.5 0 0 0 0-1Zm-1.5.5a1.5 1.5 0 1 1 3 0 1.5 1.5 0 0 1-3 0Zm5.5-.5a.5.5 0 1 0 0 1 .5.5 0 0 0 0-1Zm-1.5.5a1.5 1.5 0 1 1 3 0 1.5 1.5 0 0 1-3 0Z" clip-rule="evenodd"/>
</svg>
