<svg xmlns="http://www.w3.org/2000/svg" width="28" height="28" fill="none" viewBox="0 0 28 28">
  <path fill="#383838" fill-rule="evenodd" d="M12.166 8.002a.5.5 0 0 0-.488.391L9.317 19.017 7.28 14.944a.5.5 0 0 0-.8-.13l-1.334 1.333a.5.5 0 1 0 .708.708l.842-.843 2.356 4.712a.5.5 0 0 0 .936-.115l2.579-11.607h8.93a.5.5 0 0 0 0-1h-9.331Zm8.753 5.786a.5.5 0 1 0-.707-.707L17.5 15.793l-2.712-2.712a.5.5 0 1 0-.707.707l2.712 2.712-2.712 2.712a.5.5 0 0 0 .707.707l2.712-2.712 2.712 2.712a.5.5 0 1 0 .707-.707L18.207 16.5l2.712-2.712Z" clip-rule="evenodd"/>
</svg>
