<svg xmlns="http://www.w3.org/2000/svg" width="28" height="28" fill="none" viewBox="0 0 28 28">
  <path fill="#383838" fill-rule="evenodd" d="M5.5 6A1.5 1.5 0 0 0 4 7.5v1a.5.5 0 0 0 1 0v-1a.5.5 0 0 1 .5-.5h1a.5.5 0 0 0 0-1h-1Zm3 0a.5.5 0 0 0 0 1h2a.5.5 0 0 0 0-1h-2Zm4 0a.5.5 0 0 0 0 1h1a.5.5 0 0 1 .5.5v1a.5.5 0 0 0 1 0v-1A1.5 1.5 0 0 0 13.5 6h-1ZM5 10.5a.5.5 0 0 0-1 0v2a.5.5 0 0 0 1 0v-2Zm10 0a.5.5 0 0 0-1 0V12H9.5A1.5 1.5 0 0 0 8 13.5v8A1.5 1.5 0 0 0 9.5 23h13a1.5 1.5 0 0 0 1.5-1.5v-8a1.5 1.5 0 0 0-1.5-1.5H15v-1.5Zm-.5 2.5h-5a.5.5 0 0 0-.5.5v8a.5.5 0 0 0 .5.5h13a.5.5 0 0 0 .5-.5v-8a.5.5 0 0 0-.5-.5h-8ZM5 14.5a.5.5 0 0 0-1 0v2a.5.5 0 0 0 1 0v-2Zm0 4a.5.5 0 0 0-1 0v1A1.5 1.5 0 0 0 5.5 21h1a.5.5 0 0 0 0-1h-1a.5.5 0 0 1-.5-.5v-1Z" clip-rule="evenodd"/>
  <path fill="#446ECA" fill-rule="evenodd" d="M18.854 5.146a.5.5 0 0 1 0 .708L17.707 7H19.5a3.5 3.5 0 0 1 3.5 3.5.5.5 0 0 1-1 0A2.5 2.5 0 0 0 19.5 8h-1.793l1.147 1.146a.5.5 0 0 1-.708.708l-2-2a.5.5 0 0 1 0-.708l2-2a.5.5 0 0 1 .708 0Z" clip-rule="evenodd"/>
</svg>
