<svg xmlns="http://www.w3.org/2000/svg" width="28" height="28" fill="none" viewBox="0 0 28 28">
  <path fill="#383838" fill-rule="evenodd" d="M5.5 4A1.5 1.5 0 0 0 4 5.5v12A1.5 1.5 0 0 0 5.5 19h4a.5.5 0 0 0 0-1h-4a.5.5 0 0 1-.5-.5V7h13v2a.5.5 0 0 0 1 0V5.5A1.5 1.5 0 0 0 17.5 4h-12ZM18 6H5v-.5a.5.5 0 0 1 .5-.5h12a.5.5 0 0 1 .5.5V6ZM7.5 9a.5.5 0 0 0 0 1h8a.5.5 0 0 0 0-1h-8Zm0 3a.5.5 0 0 0 0 1h2a.5.5 0 0 0 0-1h-2Zm0 3a.5.5 0 0 0 0 1h2a.5.5 0 0 0 0-1h-2Z" clip-rule="evenodd"/>
  <path fill="#446ECA" fill-rule="evenodd" d="M14.5 13a1.5 1.5 0 0 0-1.5 1.5V20h5v2a1 1 0 1 0 2 0v-8c0-.364.097-.706.268-1H14.5Zm7.5-1h-7.5a2.5 2.5 0 0 0-2.5 2.5V20H9.5a.5.5 0 0 0-.5.5v1a2.5 2.5 0 0 0 2.5 2.5H19a2 2 0 0 0 2-2v-6h2.5a.5.5 0 0 0 .5-.5V14a2 2 0 0 0-2-2Zm0 1a1 1 0 0 0-1 1v1h2v-1a1 1 0 0 0-1-1Zm-4.732 10A1.99 1.99 0 0 1 17 22v-1h-7v.5a1.5 1.5 0 0 0 1.5 1.5h5.768Z" clip-rule="evenodd"/>
</svg>
