<svg xmlns="http://www.w3.org/2000/svg" width="28" height="28" fill="none" viewBox="0 0 28 28">
  <path fill="#383838" fill-rule="evenodd" d="M17.5 10a.5.5 0 0 1 .5.5V17h4v-6.5a.5.5 0 0 1 1 0v11a1.5 1.5 0 0 1-1.5 1.5h-11a.5.5 0 0 1 0-1H17v-4h-6.5a.5.5 0 0 1 0-1H17v-6.5a.5.5 0 0 1 .5-.5Zm.5 8v4h3.5a.5.5 0 0 0 .5-.5V18h-4Z" clip-rule="evenodd"/>
  <path fill="#446ECA" fill-rule="evenodd" d="M6.5 6a.5.5 0 0 0-.5.5V10h4V6H6.5ZM11 6v4h6V6h-6Zm7 0v4h4V6.5a.5.5 0 0 0-.5-.5H18Zm-7 5h11.5a.5.5 0 0 0 .5-.5v-4A1.5 1.5 0 0 0 21.5 5h-15A1.5 1.5 0 0 0 5 6.5v15A1.5 1.5 0 0 0 6.5 23h4a.5.5 0 0 0 .5-.5V11Zm-1 0H6v6h4v-6Zm0 7H6v3.5a.5.5 0 0 0 .5.5H10v-4Z" clip-rule="evenodd"/>
</svg>
