<svg xmlns="http://www.w3.org/2000/svg" width="28" height="28" fill="none" viewBox="0 0 28 28">
  <path fill="#383838" fill-rule="evenodd" d="M5.5 6A1.5 1.5 0 0 0 4 7.5v11A1.5 1.5 0 0 0 5.5 20H8v3.259a.6.6 0 0 0 1.024.424L12.707 20H22.5a1.5 1.5 0 0 0 1.5-1.5v-11A1.5 1.5 0 0 0 22.5 6h-17ZM5 7.5a.5.5 0 0 1 .5-.5h17a.5.5 0 0 1 .5.5v11a.5.5 0 0 1-.5.5h-9.793a1 1 0 0 0-.707.293l-3 3V19.6a.6.6 0 0 0-.6-.6H5.5a.5.5 0 0 1-.5-.5v-11ZM8.5 10a.5.5 0 0 0 0 1h11a.5.5 0 0 0 0-1h-11Zm0 4a.5.5 0 0 0 0 1h6a.5.5 0 0 0 0-1h-6Z" clip-rule="evenodd"/>
</svg>
