<svg xmlns="http://www.w3.org/2000/svg" width="28" height="28" fill="none" viewBox="0 0 28 28">
  <path fill="#383838" fill-rule="evenodd" d="M6.75 5A1.75 1.75 0 0 0 5 6.75v14.5c0 .966.784 1.75 1.75 1.75h14.5A1.75 1.75 0 0 0 23 21.25v-2.5A1.75 1.75 0 0 0 21.25 17h-5.543l4.263-4.263a1.75 1.75 0 0 0 0-2.474L17.737 8.03a1.75 1.75 0 0 0-2.474 0L11 12.293V6.75A1.75 1.75 0 0 0 9.25 5h-2.5Zm4.164 16.793L14.707 18H17v4h-6.168c.031-.067.059-.136.082-.207Zm8.349-9.763L11 20.293v-6.586l4.97-4.97a.75.75 0 0 1 1.06 0l2.233 2.233a.75.75 0 0 1 0 1.06ZM10 13.5V15H6v-4h4v2.5ZM9.25 22a.75.75 0 0 0 .75-.75V16H6v5.25c0 .414.336.75.75.75h2.5ZM6 6.75A.75.75 0 0 1 6.75 6h2.5a.75.75 0 0 1 .75.75V10H6V6.75ZM18 22v-4h3.25a.75.75 0 0 1 .75.75v2.5a.75.75 0 0 1-.75.75H18ZM8 19.164a.833.833 0 0 0 0 1.666h.008a.833.833 0 1 0 0-1.666H8Z" clip-rule="evenodd"/>
</svg>
