<svg xmlns="http://www.w3.org/2000/svg" width="28" height="28" fill="none" viewBox="0 0 28 28">
  <path fill="#383838" fill-rule="evenodd" d="M4.5 5a.5.5 0 0 0-.5.5v2a.5.5 0 0 0 .5.5H5v13h-.5a.5.5 0 0 0-.5.5v2a.5.5 0 0 0 .5.5h2a.5.5 0 0 0 .5-.5V23h13v.5a.5.5 0 0 0 .5.5h2a.5.5 0 0 0 .5-.5v-2a.5.5 0 0 0-.5-.5H22V8h.5a.5.5 0 0 0 .5-.5v-2a.5.5 0 0 0-.5-.5h-2a.5.5 0 0 0-.5.5V6H7v-.5a.5.5 0 0 0-.5-.5h-2ZM7 7v.5a.5.5 0 0 1-.5.5H6v13h.5a.5.5 0 0 1 .5.5v.5h13v-.5a.5.5 0 0 1 .5-.5h.5V8h-.5a.5.5 0 0 1-.5-.5V7H7ZM5 7V6h1v1H5Zm16 0V6h1v1h-1ZM5 23v-1h1v1H5Zm16 0v-1h1v1h-1Z" clip-rule="evenodd"/>
  <path fill="#446ECA" fill-rule="evenodd" d="M9 10.5a.5.5 0 0 1 .5-.5h8a.5.5 0 0 1 .5.5v1a.5.5 0 0 1-1 0V11h-3v7h.5a.5.5 0 0 1 0 1h-2a.5.5 0 0 1 0-1h.5v-7h-3v.5a.5.5 0 0 1-1 0v-1Z" clip-rule="evenodd"/>
</svg>
