<svg xmlns="http://www.w3.org/2000/svg" width="28" height="28" fill="none" viewBox="0 0 28 28">
  <path fill="#383838" fill-rule="evenodd" d="M4.06 6.264A.5.5 0 0 1 4.5 6h14a.5.5 0 0 1 .416.223l5 7.5a.5.5 0 0 1 0 .554l-1.247 1.87-.832-.554L22.9 14l-4.667-7H5.434l4.482 6.723a.5.5 0 0 1 0 .554L5.434 21H12.5v1h-8a.5.5 0 0 1-.416-.777L8.899 14 4.084 6.777a.5.5 0 0 1-.025-.513Z" clip-rule="evenodd"/>
  <path fill="#446ECA" fill-rule="evenodd" d="M13.5 16a.5.5 0 0 0-.5.5v6a.5.5 0 0 0 .5.5h8a.5.5 0 0 0 .5-.5v-6a.5.5 0 0 0-.5-.5h-8Zm-1.5.5a1.5 1.5 0 0 1 1.5-1.5h8a1.5 1.5 0 0 1 1.5 1.5v6a1.5 1.5 0 0 1-1.5 1.5h-8a1.5 1.5 0 0 1-1.5-1.5v-6Zm3 2a.5.5 0 0 1 .5-.5h4a.5.5 0 0 1 0 1h-4a.5.5 0 0 1-.5-.5Zm0 2a.5.5 0 0 1 .5-.5h4a.5.5 0 0 1 0 1h-4a.5.5 0 0 1-.5-.5Z" clip-rule="evenodd"/>
</svg>
