<svg xmlns="http://www.w3.org/2000/svg" width="28" height="28" fill="none" viewBox="0 0 28 28">
  <path fill="#383838" fill-rule="evenodd" d="M9.885 6.388c-1.036-.65-2.09-.441-2.775.146a2.1 2.1 0 0 0-.74 1.846c.08.749.554 1.666 1.745 2.585a.5.5 0 1 1-.61.792c-1.34-1.034-2.012-2.177-2.129-3.272a3.1 3.1 0 0 1 1.083-2.71c.994-.851 2.524-1.134 3.957-.234 1.158.727 2.188 2.183 2.863 4.584a9.442 9.442 0 0 1 2.063-1.18c.36-.146.708-.219 1.032-.178.342.044.617.21.813.458.186.234.288.522.346.804.058.287.079.603.079.923 0 .637-.083 1.358-.162 2.006a58.062 58.062 0 0 1-.05.418 19.473 19.473 0 0 1 1.977-1.463c.42-.27.803-.487 1.045-.575a.867.867 0 0 1 .26-.056.552.552 0 0 1 .288.066.522.522 0 0 1 .268.407.561.561 0 0 1-.047.28.757.757 0 0 1-.075.132 1.642 1.642 0 0 1-.165.193c-.474.488-.43 1.114-.151 1.566.141.229.314.36.443.405.098.034.17.024.257-.065a.5.5 0 0 1 .716.697 1.209 1.209 0 0 1-1.297.314c-.405-.139-.743-.458-.97-.826a2.38 2.38 0 0 1-.343-1.492c-.78.527-1.736 1.268-2.452 2.005a.5.5 0 0 1-.858-.35c0-.448.071-1.037.143-1.624l.018-.152c.08-.657.155-1.319.155-1.886a3.69 3.69 0 0 0-.06-.722c-.04-.2-.097-.319-.148-.384a.211.211 0 0 0-.156-.087c-.092-.011-.258.003-.53.113-.769.312-1.498.768-2.177 1.315.043.203.084.412.123.626.678 3.74.496 6.394-.105 8.18-.598 1.777-1.643 2.759-2.715 2.957-1.096.201-1.983-.415-2.517-1.277-.534-.858-.776-2.028-.625-3.183.072-.553.325-1.313.708-2.146a17.91 17.91 0 0 1 1.578-2.736c.678-.971 1.5-1.948 2.441-2.79-.633-2.528-1.616-3.847-2.544-4.43Zm2.79 5.57a15.675 15.675 0 0 0-1.868 2.223 16.915 16.915 0 0 0-1.488 2.58c-.366.797-.572 1.45-.626 1.859-.124.949.083 1.882.483 2.526.398.64.927.923 1.487.82.584-.108 1.417-.712 1.949-2.292.528-1.57.728-4.041.068-7.682l-.006-.034Zm8.106.314-.005.001h.005Z" clip-rule="evenodd"/>
</svg>
