<svg xmlns="http://www.w3.org/2000/svg" width="28" height="28" fill="none" viewBox="0 0 28 28">
  <path fill="#383838" fill-rule="evenodd" d="M11 13.5a1.5 1.5 0 0 1 1.5-1.5h2a1.5 1.5 0 0 1 1.5 1.5v8a1.5 1.5 0 0 1-1.5 1.5h-2a1.5 1.5 0 0 1-1.5-1.5v-8Zm1.5-.5a.5.5 0 0 0-.5.5v8a.5.5 0 0 0 .5.5h2a.5.5 0 0 0 .5-.5v-8a.5.5 0 0 0-.5-.5h-2ZM5 16.5A1.5 1.5 0 0 1 6.5 15h1A1.5 1.5 0 0 1 9 16.5v5A1.5 1.5 0 0 1 7.5 23h-1A1.5 1.5 0 0 1 5 21.5v-5Zm1.5-.5a.5.5 0 0 0-.5.5v5a.5.5 0 0 0 .5.5h1a.5.5 0 0 0 .5-.5v-5a.5.5 0 0 0-.5-.5h-1Z" clip-rule="evenodd"/>
  <path fill="#446ECA" fill-rule="evenodd" d="M18 6.5A1.5 1.5 0 0 1 19.5 5h2A1.5 1.5 0 0 1 23 6.5v15a1.5 1.5 0 0 1-1.5 1.5h-2a1.5 1.5 0 0 1-1.5-1.5v-15Zm1.5-.5a.5.5 0 0 0-.5.5v15a.5.5 0 0 0 .5.5h2a.5.5 0 0 0 .5-.5v-15a.5.5 0 0 0-.5-.5h-2Z" clip-rule="evenodd"/>
</svg>
