<svg xmlns="http://www.w3.org/2000/svg" width="28" height="28" fill="none" viewBox="0 0 28 28">
  <path fill="#383838" fill-rule="evenodd" d="M4 7.5A1.5 1.5 0 0 1 5.5 6h17A1.5 1.5 0 0 1 24 7.5v6a.5.5 0 0 1-1 0v-6a.5.5 0 0 0-.5-.5h-17a.5.5 0 0 0-.5.5v11a.5.5 0 0 0 .5.5h2.9a.6.6 0 0 1 .6.6v2.693l3.146-3.147a.5.5 0 0 1 .708.708l-3.83 3.829A.6.6 0 0 1 8 23.259V20H5.5A1.5 1.5 0 0 1 4 18.5v-11Z" clip-rule="evenodd"/>
  <path fill="#446ECA" fill-rule="evenodd" d="M8 10.5a.5.5 0 0 1 .5-.5h11a.5.5 0 0 1 0 1h-11a.5.5 0 0 1-.5-.5Zm0 4a.5.5 0 0 1 .5-.5h6a.5.5 0 0 1 0 1h-6a.5.5 0 0 1-.5-.5ZM19.502 16a3.502 3.502 0 1 0 0 7.004 3.502 3.502 0 0 0 0-7.004ZM15 19.502a4.502 4.502 0 1 1 9.004 0 4.502 4.502 0 0 1-9.004 0Zm6.814-1.493a.5.5 0 0 0-.858-.514l-2.033 3.394-.562-.842-.5-.75a.5.5 0 0 0-.832.554l.5.75.562.843a1 1 0 0 0 1.69-.041l2.033-3.394Z" clip-rule="evenodd"/>
</svg>
