<svg xmlns="http://www.w3.org/2000/svg" width="28" height="28" fill="none" viewBox="0 0 28 28">
  <path fill="#383838" fill-rule="evenodd" d="M6.5 4a.5.5 0 0 1 .5.5v5.996a.5.5 0 0 0 .5.5h13a.5.5 0 0 0 .5-.5V4.5a.5.5 0 0 1 1 0v5.996a1.5 1.5 0 0 1-1.5 1.5h-13a1.5 1.5 0 0 1-1.5-1.5V4.5a.5.5 0 0 1 .5-.5ZM6 18.496a1.5 1.5 0 0 1 1.5-1.5h13a1.5 1.5 0 0 1 1.5 1.5V23.5a.5.5 0 0 1-1 0v-5.004a.5.5 0 0 0-.5-.5h-13a.5.5 0 0 0-.5.5V23.5a.5.5 0 0 1-1 0v-5.004Z" clip-rule="evenodd"/>
  <path fill="#446ECA" fill-rule="evenodd" d="M5 14.5a.5.5 0 0 1 .5-.5h1a.5.5 0 0 1 0 1h-1a.5.5 0 0 1-.5-.5Zm4 0a.5.5 0 0 1 .5-.5h1a.5.5 0 0 1 0 1h-1a.5.5 0 0 1-.5-.5Zm4 0a.5.5 0 0 1 .5-.5h1a.5.5 0 0 1 0 1h-1a.5.5 0 0 1-.5-.5Zm4 0a.5.5 0 0 1 .5-.5h1a.5.5 0 0 1 0 1h-1a.5.5 0 0 1-.5-.5Zm4 0a.5.5 0 0 1 .5-.5h1a.5.5 0 0 1 0 1h-1a.5.5 0 0 1-.5-.5Z" clip-rule="evenodd"/>
</svg>
