<svg xmlns="http://www.w3.org/2000/svg" width="28" height="28" viewBox="0 0 28 28" stroke="currentColor" stroke-linecap="round" stroke-linejoin="round" fill="none">
    <path d="M23.5 14.5v-8a1 1 0 0 0-1-1h-17a1 1 0 0 0-1 1v12a1 1 0 0 0 1 1h2.9a.1.1 0 0 1 .1.1v3.659a.1.1 0 0 0 .17.07l3.537-3.536a1 1 0 0 1 .707-.293H14.5m-6-9h11m-11 4h6" class="icon-stroke-gray-primary"/>
    <path d="M20.502 15a4.502 4.502 0 1 1 0 9.004 4.502 4.502 0 0 1 0-9.004Zm-.002 1.879a.5.5 0 0 0-.5.5V19h-1.621a.5.5 0 0 0 0 1H20v1.621a.5.5 0 0 0 1 0V20h1.621l.102-.01a.5.5 0 0 0 0-.98L22.62 19H21v-1.621a.5.5 0 0 0-.5-.5Z" fill="currentColor" stroke="none" class="icon-fill-blue-primary"/>
</svg>
