<svg xmlns="http://www.w3.org/2000/svg" width="28" height="28" fill="none" viewBox="0 0 28 28">
  <path fill="#383838" fill-rule="evenodd" d="M15.086 6.207a2 2 0 0 1 2.828 0l4.379 4.379a2 2 0 0 1 0 2.828l-2.932 2.932a.566.566 0 0 1-.007.008l-.008.008L14.707 21H21.5a.5.5 0 1 1 0 1H7.593a.725.725 0 0 1-.512-.212l-2.374-2.374a2 2 0 0 1 0-2.828l7.44-7.44 2.939-2.939Zm-2.586 4-7.086 7.086a1 1 0 0 0 0 1.414L7.707 21h5.586l5-5-5.793-5.793Zm6.5 5.086L13.207 9.5l2.586-2.586a1 1 0 0 1 1.414 0l4.379 4.379a1 1 0 0 1 0 1.414L19 15.293Z" clip-rule="evenodd"/>
</svg>
