<svg xmlns="http://www.w3.org/2000/svg" width="28" height="28" fill="none" viewBox="0 0 28 28">
  <path fill="#383838" fill-rule="evenodd" d="M7.5 4.996a.5.5 0 0 0-.5.5V22.5a.5.5 0 0 0 .5.5h13a.5.5 0 0 0 .5-.5V5.496a.5.5 0 0 0-.5-.5h-13Zm-1.5.5a1.5 1.5 0 0 1 1.5-1.5h13a1.5 1.5 0 0 1 1.5 1.5V22.5a1.5 1.5 0 0 1-1.5 1.5h-13A1.5 1.5 0 0 1 6 22.5V5.496Z" clip-rule="evenodd"/>
  <path fill="#446ECA" fill-rule="evenodd" d="M9 7V5h1v2h8V5h1v2h2v1h-2v12h2v1h-2v2h-1v-2h-8v2H9v-2H7v-1h2V8H7V7h2Zm1 1v12h8V8h-8Z" clip-rule="evenodd"/>
</svg>
