<svg xmlns="http://www.w3.org/2000/svg" width="28" height="28" fill="none" viewBox="0 0 28 28">
  <path fill="#383838" fill-rule="evenodd" d="M5.934 10A9 9 0 1 1 14 23a9.005 9.005 0 0 1-8.543-6.158.5.5 0 0 0-.949.316C5.83 21.133 9.58 24 14 24c5.523 0 10-4.477 10-10S19.524 3.999 14 3.999a10 10 0 0 0-9 5.635V6.5a.5.5 0 0 0-1 0v4a.5.5 0 0 0 .5.5h4a.5.5 0 0 0 0-1H5.934Z" clip-rule="evenodd"/>
  <path fill="#446ECA" fill-rule="evenodd" d="M13.5 9a.5.5 0 0 1 .5.5V15h3.5a.5.5 0 0 1 0 1h-4a.5.5 0 0 1-.5-.5v-6a.5.5 0 0 1 .5-.5Z" clip-rule="evenodd"/>
</svg>
