<svg xmlns="http://www.w3.org/2000/svg" width="28" height="28" fill="none" viewBox="0 0 28 28">
  <path fill="#383838" fill-rule="evenodd" d="M9 5a4 4 0 1 0 0 8h10a4 4 0 0 0 0-8H9ZM6 9a3 3 0 0 1 3-3h10a3 3 0 1 1 0 6H9a3 3 0 0 1-3-3Zm3 6a4 4 0 0 0 0 8h10a4 4 0 0 0 0-8H9Zm-3 4a3 3 0 0 1 3-3h10a3 3 0 1 1 0 6H9a3 3 0 0 1-3-3Z" clip-rule="evenodd"/>
  <path fill="#446ECA" fill-rule="evenodd" d="M17 9a1 1 0 1 1 2 0 1 1 0 0 1-2 0Zm1-2a2 2 0 1 0 0 4 2 2 0 0 0 0-4ZM9 19a1 1 0 1 1 2 0 1 1 0 0 1-2 0Zm1-2a2 2 0 1 0 0 4 2 2 0 0 0 0-4Z" clip-rule="evenodd"/>
</svg>
