<svg xmlns="http://www.w3.org/2000/svg" width="28" height="28" fill="none" viewBox="0 0 28 28">
  <path fill="#383838" fill-rule="evenodd" d="M17.938 10.062A7.001 7.001 0 0 0 4 11c0 3.548 2.64 6.48 6.062 6.938A7.001 7.001 0 0 0 24 17c0-3.548-2.64-6.48-6.062-6.938ZM17 11a6 6 0 0 0-6 6 6 6 0 0 0 6-6Zm-.083-1A6.002 6.002 0 0 0 5 11a6.002 6.002 0 0 0 5 5.917A7 7 0 0 1 16.918 10ZM18 11.084A6.002 6.002 0 0 1 17 23a6.002 6.002 0 0 1-5.917-5A7 7 0 0 0 18 11.083Z" clip-rule="evenodd"/>
  <circle cx="11" cy="11" r="6.5" fill="#DCE7FA" stroke="#383838"/>
  <circle cx="17" cy="17" r="6.5" fill="#DCE7FA" stroke="#383838"/>
  <mask id="a" fill="#fff">
    <path fill-rule="evenodd" d="M11 18a7 7 0 0 0 6.938-7.938 7 7 0 0 0-7.875 7.875c.306.042.619.063.937.063Z" clip-rule="evenodd"/>
  </mask>
  <path fill="#fff" fill-rule="evenodd" d="M11 18a7 7 0 0 0 6.938-7.938 7 7 0 0 0-7.875 7.875c.306.042.619.063.937.063Z" clip-rule="evenodd"/>
  <path fill="#383838" d="m17.938 10.062.99-.132-.1-.758-.758-.1-.132.99Zm-7.876 7.876-.99.132.1.758.758.1.132-.99ZM17 11a6 6 0 0 1-6 6v2a8 8 0 0 0 8-8h-2Zm-.053-.805c.035.263.053.531.053.805h2c0-.363-.024-.72-.071-1.07l-1.982.265ZM17 11c.273 0 .542.018.805.053l.265-1.982A8.063 8.063 0 0 0 17 9v2Zm-6 6a6 6 0 0 1 6-6V9a8 8 0 0 0-8 8h2Zm.053.805A6.061 6.061 0 0 1 11 17H9c0 .363.024.72.071 1.07l1.982-.265ZM11 17c-.274 0-.542-.018-.805-.053l-.265 1.982c.35.047.707.071 1.07.071v-2Z" mask="url(#a)"/>
</svg>
