<svg xmlns="http://www.w3.org/2000/svg" width="28" height="28" fill="none" viewBox="0 0 28 28">
  <path fill="#383838" fill-rule="evenodd" d="M6.5 6a.5.5 0 0 0-.5.5v5a.5.5 0 0 0 .5.5h5a.5.5 0 0 0 .5-.5v-5a.5.5 0 0 0-.5-.5h-5ZM5 6.5A1.5 1.5 0 0 1 6.5 5h5A1.5 1.5 0 0 1 13 6.5v5a1.5 1.5 0 0 1-1.5 1.5h-5A1.5 1.5 0 0 1 5 11.5v-5ZM6.5 16a.5.5 0 0 0-.5.5v5a.5.5 0 0 0 .5.5h5a.5.5 0 0 0 .5-.5v-5a.5.5 0 0 0-.5-.5h-5Zm-1.5.5A1.5 1.5 0 0 1 6.5 15h5a1.5 1.5 0 0 1 1.5 1.5v5a1.5 1.5 0 0 1-1.5 1.5h-5A1.5 1.5 0 0 1 5 21.5v-5Zm11.5-.5a.5.5 0 0 0-.5.5v5a.5.5 0 0 0 .5.5h5a.5.5 0 0 0 .5-.5v-5a.5.5 0 0 0-.5-.5h-5Zm-1.5.5a1.5 1.5 0 0 1 1.5-1.5h5a1.5 1.5 0 0 1 1.5 1.5v5a1.5 1.5 0 0 1-1.5 1.5h-5a1.5 1.5 0 0 1-1.5-1.5v-5Z" clip-rule="evenodd"/>
  <path fill="#446ECA" fill-rule="evenodd" d="M15.06 8.597a.5.5 0 0 0 0 .707l3.536 3.536a.5.5 0 0 0 .707 0l3.536-3.536a.5.5 0 0 0 0-.707l-3.536-3.536a.5.5 0 0 0-.707 0l-3.535 3.536Zm-.707 1.414a1.5 1.5 0 0 1 0-2.121l3.536-3.536a1.5 1.5 0 0 1 2.121 0l3.536 3.536a1.5 1.5 0 0 1 0 2.121l-3.536 3.536a1.5 1.5 0 0 1-2.12 0l-3.537-3.536Z" clip-rule="evenodd"/>
</svg>
