<svg xmlns="http://www.w3.org/2000/svg" width="28" height="28" fill="none" viewBox="0 0 28 28">
  <path fill="#383838" fill-rule="evenodd" d="M10.947 14.775a.5.5 0 0 1-.223.671L6.618 17.5l6.882 3.44 6.882-3.44-4.106-2.054a.5.5 0 1 1 .448-.894l5 2.5a.5.5 0 0 1 0 .894l-8 4a.5.5 0 0 1-.448 0l-8-4a.5.5 0 0 1 0-.894l5-2.5a.5.5 0 0 1 .671.223Z" clip-rule="evenodd"/>
  <path fill="#446ECA" fill-rule="evenodd" d="M13.146 6.146a.5.5 0 0 1 .708 0l3 3a.5.5 0 0 1-.708.708L14 7.707V17.5a.5.5 0 0 1-1 0V7.707l-2.146 2.147a.5.5 0 0 1-.708-.708l3-3Z" clip-rule="evenodd"/>
</svg>
