<svg xmlns="http://www.w3.org/2000/svg" width="28" height="28" fill="none" viewBox="0 0 28 28">
  <path fill="#383838" fill-rule="evenodd" d="M11.5 9a.5.5 0 0 0-.5.5v13a.5.5 0 0 0 .5.5h9a.5.5 0 0 0 .5-.5V13h-3.4a.6.6 0 0 1-.6-.6V9h-5.5Zm6.5.707L20.293 12H18V9.707ZM10 9.5A1.5 1.5 0 0 1 11.5 8h6a.5.5 0 0 1 .354.146l4 4A.5.5 0 0 1 22 12.5v10a1.5 1.5 0 0 1-1.5 1.5h-9a1.5 1.5 0 0 1-1.5-1.5v-13Z" clip-rule="evenodd"/>
  <path fill="#446ECA" fill-rule="evenodd" d="M7.5 4a.5.5 0 0 1 .5.5V5h13v-.5a.5.5 0 0 1 1 0v2a.5.5 0 0 1-1 0V6H8v17h.5a.5.5 0 0 1 0 1h-2a.5.5 0 0 1 0-1H7V6h-.5a.5.5 0 0 1 0-1H7v-.5a.5.5 0 0 1 .5-.5Z" clip-rule="evenodd"/>
</svg>
