<svg xmlns="http://www.w3.org/2000/svg" width="28" height="28" viewBox="0 0 28 28" stroke="currentColor" stroke-linecap="round" stroke-linejoin="round" fill="none">
    <path d="M23.5 13.5v-7a1 1 0 0 0-1-1h-17a1 1 0 0 0-1 1v12a1 1 0 0 0 1 1h2.9a.1.1 0 0 1 .1.1v3.659a.1.1 0 0 0 .17.07l3.537-3.536a1 1 0 0 1 .707-.293H14.5m-6-9h11m-11 4h6" class="icon-stroke-gray-primary"/>
    <path d="M20.502 15a4.5 4.5 0 1 1 0 9 4.5 4.5 0 0 1 0-9Zm1.852 2.645a.5.5 0 0 0-.707 0L20.5 18.791l-1.145-1.146-.079-.064a.5.5 0 0 0-.693.693l.065.078 1.145 1.146-1.145 1.146a.5.5 0 0 0 .707.708l1.145-1.147 1.146 1.147.079.063a.501.501 0 0 0 .692-.692l-.064-.078-1.146-1.147 1.146-1.146a.5.5 0 0 0 0-.707Z" fill="currentColor" stroke="none" class="icon-fill-red"/>
</svg>
