<svg xmlns="http://www.w3.org/2000/svg" width="28" height="28" fill="none" viewBox="0 0 28 28">
  <path fill="#383838" fill-rule="evenodd" d="M8 10a3 3 0 1 1 6 0 3 3 0 0 1-6 0Zm3-4a4 4 0 1 0 0 8 4 4 0 0 0 0-8Zm-2.5 9A3.5 3.5 0 0 0 5 18.5v3a.5.5 0 0 0 .5.5h11a.5.5 0 0 0 .5-.5v-3a3.5 3.5 0 0 0-3.5-3.5h-5ZM6 18.5A2.5 2.5 0 0 1 8.5 16h5a2.5 2.5 0 0 1 2.5 2.5V21H6v-2.5Zm11-3a.5.5 0 0 1 .5-.5h1a3.5 3.5 0 0 1 3.5 3.5v3a.5.5 0 0 1-.5.5h-3a.5.5 0 0 1 0-1H21v-2.5a2.5 2.5 0 0 0-2.5-2.5h-1a.5.5 0 0 1-.5-.5ZM16 6a.5.5 0 0 0 0 1 3 3 0 1 1 0 6 .5.5 0 0 0 0 1 4 4 0 0 0 0-8Z" clip-rule="evenodd"/>
</svg>
