<svg xmlns="http://www.w3.org/2000/svg" width="28" height="28" viewBox="0 0 28 28" stroke="currentColor" stroke-linecap="round" stroke-linejoin="round" fill="none">
    <path d="M7.81 11.361C5.279 9.409 5.52 7.239 6.785 6.155c1.6-1.371 4.845-1.023 6.201 4.842m0 0c.067.288.129.59.186.905 1.337 7.381-.762 10.25-2.418 10.556-1.657.305-2.832-1.8-2.556-3.903.196-1.502 2.018-5.203 4.788-7.558Zm0 0c.778-.662 1.631-1.217 2.544-1.588 2.531-1.029 1.266 3.407 1.266 5.206 1.7-1.749 4.637-3.467 3.796-2.603-1.342 1.38.34 3.556 1.266 2.603" class="icon-stroke-gray-primary"/>
</svg>
