<svg xmlns="http://www.w3.org/2000/svg" width="28" height="28" viewBox="0 0 28 28" stroke="none" stroke-linecap="round" stroke-linejoin="round" fill="currentColor">
    <path d="M17.965 15.181a.5.5 0 1 0 .998.06l-.5-.03-.498-.03Zm-.226 5.522a.5.5 0 1 0-.914-.406l.457.203.457.203Zm-2.561-1.736a.5.5 0 0 0-.057-.999l.028.5.029.499Zm5.119-2.142a.5.5 0 1 0 .406.914l-.203-.457-.203-.457ZM18.5 15.5l-.354.354a.5.5 0 0 0 .708 0L18.5 15.5Zm-1.646-2.354a.5.5 0 0 0-.708.708l.354-.354.354-.354Zm4 .708a.5.5 0 0 0-.708-.708l.354.354.354.354ZM15.5 18.5l.354.354a.5.5 0 0 0 0-.708l-.354.354Zm-2.354 1.646a.5.5 0 0 0 .708.708L13.5 20.5l-.354-.354Zm.708-4a.5.5 0 0 0-.708.708l.354-.354.354-.354ZM14 23.5V23c-.937 0-1.936-.82-2.73-2.497C10.494 18.865 10 16.566 10 14H9c0 2.68.514 5.132 1.366 6.932C11.201 22.693 12.452 24 14 24v-.5ZM9.5 14h.5c0-2.566.494-4.865 1.27-6.503C12.064 5.82 13.063 5 14 5V4c-1.548 0-2.8 1.307-3.634 3.068C9.514 8.868 9 11.32 9 14h.5ZM14 4.5V5c.937 0 1.936.82 2.73 2.497C17.506 9.135 18 11.434 18 14h1c0-2.68-.514-5.132-1.366-6.932C16.799 5.307 15.548 4 14 4v.5Zm4.5 9.5H18c0 .4-.012.795-.035 1.181l.499.03.499.03c.024-.406.037-.82.037-1.241h-.5Zm-1.218 6.5-.457-.203C16.02 22.107 14.977 23 14 23v1c1.611 0 2.901-1.413 3.739-3.297l-.457-.203ZM14 9.5v.5c2.566 0 4.865.494 6.503 1.27C22.18 12.064 23 13.063 23 14h1c0-1.548-1.307-2.8-3.068-3.634C19.132 9.514 16.68 9 14 9v.5Zm0 9V18c-2.566 0-4.865-.494-6.503-1.27C5.82 15.936 5 14.937 5 14H4c0 1.548 1.307 2.8 3.068 3.634C8.868 18.486 11.32 19 14 19v-.5ZM4.5 14H5c0-.937.82-1.936 2.497-2.73C9.135 10.494 11.434 10 14 10V9c-2.68 0-5.132.514-6.932 1.366C5.307 11.201 4 12.452 4 14h.5Zm10.65 4.467-.03-.499c-.366.021-.74.032-1.12.032v1c.398 0 .791-.011 1.178-.033l-.029-.5ZM23.5 14H23c0 .977-.894 2.02-2.703 2.825l.203.457.203.457C22.587 16.9 24 15.61 24 14h-.5Zm-5 1.5.354-.354-2-2-.354.354-.354.354 2 2 .354-.354Zm0 0 .354.354 2-2-.354-.354-.354-.354-2 2 .354.354Zm-3 3-.354-.354-2 2 .354.354.354.354 2-2-.354-.354Zm0 0 .354-.354-2-2-.354.354-.354.354 2 2 .354-.354Z" class="icon-fill-gray-primary"/>
</svg>
