<svg xmlns="http://www.w3.org/2000/svg" width="28" height="28" fill="none" viewBox="0 0 28 28">
  <path fill="#383838" fill-rule="evenodd" d="M14 6.5a.5.5 0 0 0-1 0V9h-2.25A1.75 1.75 0 0 0 9 10.75v1.5c0 .966.784 1.75 1.75 1.75H13v2H6.75A1.75 1.75 0 0 0 5 17.75v1.5c0 .966.784 1.75 1.75 1.75H13v2.5a.5.5 0 0 0 1 0V21h6.25A1.75 1.75 0 0 0 22 19.25v-1.5A1.75 1.75 0 0 0 20.25 16H14v-2h2.25A1.75 1.75 0 0 0 18 12.25v-1.5A1.75 1.75 0 0 0 16.25 9H14V6.5ZM13.5 20h6.75a.75.75 0 0 0 .75-.75v-1.5a.75.75 0 0 0-.75-.75H6.75a.75.75 0 0 0-.75.75v1.5c0 .414.336.75.75.75h6.75Zm0-7h2.75a.75.75 0 0 0 .75-.75v-1.5a.75.75 0 0 0-.75-.75h-5.5a.75.75 0 0 0-.75.75v1.5c0 .414.336.75.75.75h2.75Z" clip-rule="evenodd"/>
</svg>
