<svg xmlns="http://www.w3.org/2000/svg" width="28" height="28" fill="none" viewBox="0 0 28 28">
  <path fill="#383838" fill-rule="evenodd" d="M6.5 7A1.5 1.5 0 0 0 5 8.5v11A1.5 1.5 0 0 0 6.5 21h12a1.5 1.5 0 0 0 1.5-1.5v-2l2.88 2.16A.7.7 0 0 0 24 19.1V8.9a.7.7 0 0 0-1.12-.56L20 10.5v-2A1.5 1.5 0 0 0 18.5 7h-12ZM20 11.75v4.5l3 2.25v-9l-3 2.25ZM6 8.5a.5.5 0 0 1 .5-.5h12a.5.5 0 0 1 .5.5v11a.5.5 0 0 1-.5.5h-12a.5.5 0 0 1-.5-.5v-11Z" clip-rule="evenodd"/>
  <path fill="#446ECA" fill-rule="evenodd" d="M15 11a1 1 0 1 0 0 2 1 1 0 0 0 0-2Zm-2 1a2 2 0 1 1 4 0 2 2 0 0 1-4 0Z" clip-rule="evenodd"/>
</svg>
