<svg xmlns="http://www.w3.org/2000/svg" width="28" height="28" fill="none" viewBox="0 0 28 28">
  <path fill="#383838" fill-rule="evenodd" d="M12 6.5a1.5 1.5 0 0 1 2.947-.395A1.5 1.5 0 0 1 17 7.5v1.585a1.505 1.505 0 0 1 2.003 1.412l.004.654c.019 2.827.037 5.632-.478 7.772-.28 1.161-.728 2.185-1.467 2.921C16.31 22.594 15.3 23 14 23c-2.12 0-3.777-1.433-4.98-3.061-1.214-1.643-2.054-3.597-2.527-4.877C6.108 14.021 6.907 13 7.965 13c.49 0 .954.223 1.26.605l.775.97V8.5a1.5 1.5 0 0 1 2-1.415V6.5Zm1 2V14a.5.5 0 1 1-1 0V8.5a.5.5 0 1 0-1 0V16a.5.5 0 0 1-.89.312L8.444 14.23a.613.613 0 0 0-.48-.23c-.414 0-.658.376-.533.716.46 1.245 1.26 3.097 2.393 4.628C10.966 20.89 12.362 22 14 22c1.072 0 1.816-.326 2.357-.864.555-.553.942-1.376 1.2-2.447.485-2.015.468-4.7.45-7.577l-.004-.61A.505.505 0 0 0 17.5 10a.5.5 0 0 0-.5.5V14a.5.5 0 1 1-1 0V7.5a.5.5 0 1 0-1 0V14a.5.5 0 1 1-1 0V6.5a.5.5 0 1 0-1 0v2Z" clip-rule="evenodd"/>
</svg>
