<svg xmlns="http://www.w3.org/2000/svg" width="28" height="28" fill="none" viewBox="0 0 28 28">
  <path fill="#383838" fill-rule="evenodd" d="M13.276 6.053a.5.5 0 0 1 .448 0l8 4a.5.5 0 0 1 0 .894l-5 2.5a.5.5 0 1 1-.448-.894l4.106-2.053L13.5 7.059 6.618 10.5l4.106 2.053a.5.5 0 1 1-.448.894l-5-2.5a.5.5 0 0 1 0-.894l8-4Z" clip-rule="evenodd"/>
  <path fill="#446ECA" fill-rule="evenodd" d="M13.5 10a.5.5 0 0 1 .5.5v9.793l2.146-2.147a.5.5 0 0 1 .708.708l-3 3a.5.5 0 0 1-.708 0l-3-3a.5.5 0 0 1 .708-.708L13 20.293V10.5a.5.5 0 0 1 .5-.5Z" clip-rule="evenodd"/>
</svg>
