<svg xmlns="http://www.w3.org/2000/svg" width="28" height="28" fill="none" viewBox="0 0 28 28">
  <path fill="#383838" fill-rule="evenodd" d="M13.37 5.557a.75.75 0 0 1 1.26 0l4.043 6.287a.75.75 0 0 1-.63 1.156H9.957a.75.75 0 0 1-.631-1.155l4.042-6.288Zm.63.868L10.416 12h7.168L14 6.425ZM15 16.5a1.5 1.5 0 0 1 1.5-1.5h5a1.5 1.5 0 0 1 1.5 1.5v5a1.5 1.5 0 0 1-1.5 1.5h-5a1.5 1.5 0 0 1-1.5-1.5v-5Zm1.5-.5a.5.5 0 0 0-.5.5v5a.5.5 0 0 0 .5.5h5a.5.5 0 0 0 .5-.5v-5a.5.5 0 0 0-.5-.5h-5Z" clip-rule="evenodd"/>
  <path fill="#446ECA" fill-rule="evenodd" d="M8.996 15.996a3 3 0 1 0 0 6 3 3 0 0 0 0-6Zm-4 3a4 4 0 1 1 8 0 4 4 0 0 1-8 0Z" clip-rule="evenodd"/>
</svg>
