<svg xmlns="http://www.w3.org/2000/svg" width="28" height="28" viewBox="0 0 28 28" stroke="currentColor" stroke-linecap="round" stroke-linejoin="round" fill="none">
    <path d="M18.5 20.5h-12a1 1 0 0 1-1-1v-11a1 1 0 0 1 1-1h12a1 1 0 0 1 1 1v11a1 1 0 0 1-1 1Z" class="icon-stroke-gray-primary"/>
    <path d="m19.5 16.5 3.68 2.76a.2.2 0 0 0 .32-.16V8.9a.2.2 0 0 0-.32-.16L19.5 11.5" class="icon-stroke-gray-primary"/>
    <path d="M16.5 12a1.5 1.5 0 1 1-3 0 1.5 1.5 0 0 1 3 0Z" class="icon-stroke-blue-primary"/>
</svg>
