<svg xmlns="http://www.w3.org/2000/svg" width="28" height="28" fill="none" viewBox="0 0 28 28">
  <path fill="#383838" fill-rule="evenodd" d="M14 7c-3.432 0-5.929 1.72-7.548 3.403a14.513 14.513 0 0 0-1.805 2.315 12.551 12.551 0 0 0-.56.987 5.674 5.674 0 0 0-.03.06l-.007.018-.003.005v.002L4.5 14l-.454-.21a.5.5 0 0 0 0 .42L4.5 14l-.454.21.001.002.003.005.008.017a5.674 5.674 0 0 0 .142.28c.1.188.249.452.447.768.396.63.995 1.472 1.805 2.315C8.072 19.28 10.568 21 14 21c3.432 0 5.929-1.72 7.548-3.403a14.514 14.514 0 0 0 1.805-2.315 12.518 12.518 0 0 0 .59-1.048l.007-.017.003-.005v-.002L23.5 14l.454.21a.5.5 0 0 0 0-.42L23.5 14l.454-.21-.001-.002-.003-.005-.008-.017a8.062 8.062 0 0 0-.142-.28c-.1-.188-.248-.452-.447-.768a14.514 14.514 0 0 0-1.805-2.315C19.928 8.72 17.432 7 14 7Zm-8.506 7.75a11.575 11.575 0 0 1-.411-.706L5.059 14l.024-.044c.09-.169.226-.412.41-.706.37-.588.928-1.371 1.68-2.153C8.679 9.53 10.932 8 14 8s5.321 1.53 6.827 3.097a13.51 13.51 0 0 1 1.68 2.153c.184.294.32.537.41.706l.023.044-.023.044c-.09.169-.226.412-.41.706a13.51 13.51 0 0 1-1.68 2.153C19.321 18.47 17.068 20 14 20s-5.321-1.53-6.827-3.097a13.507 13.507 0 0 1-1.68-2.153Zm7.015-2.083a2 2 0 1 1 2.982 2.666 2 2 0 0 1-2.982-2.666ZM14 11c-.889 0-1.687.387-2.236 1A3 3 0 1 0 14 11Z" clip-rule="evenodd"/>
</svg>
