<svg xmlns="http://www.w3.org/2000/svg" width="28" height="28" fill="none" viewBox="0 0 28 28">
  <path fill="#383838" fill-rule="evenodd" d="M16.284 6.705a3.644 3.644 0 0 1 5.056 5.248l-2.693 2.693a.914.914 0 0 1-1.293 0 .5.5 0 1 0-.707.707 1.913 1.913 0 0 0 2.707 0l2.693-2.693a4.645 4.645 0 0 0-6.444-6.688l-2.907 2.7a1.863 1.863 0 0 0-.05 2.681.5.5 0 1 0 .708-.707.863.863 0 0 1 .023-1.242l2.907-2.699Zm1.57 3.442a.5.5 0 0 1 0 .707l-7 7a.5.5 0 0 1-.707-.707l7-7a.5.5 0 0 1 .707 0Zm-9.207 2.499a1.913 1.913 0 0 1 2.706 0 .5.5 0 0 1-.708.707.913.913 0 0 0-1.29 0l-2.501 2.5a3.743 3.743 0 0 0 5.292 5.293l2.5-2.5a.914.914 0 0 0 0-1.293.5.5 0 1 1 .708-.707c.747.748.747 1.96 0 2.707l-2.5 2.5a4.743 4.743 0 1 1-6.708-6.707l2.5-2.5Z" clip-rule="evenodd"/>
</svg>
