<svg xmlns="http://www.w3.org/2000/svg" width="28" height="28" fill="none" viewBox="0 0 28 28">
  <path fill="#383838" fill-rule="evenodd" d="M4.5 5a.5.5 0 0 0-.5.5v2a.5.5 0 0 0 .5.5H5v12h-.5a.5.5 0 0 0-.5.5v2a.5.5 0 0 0 .5.5h2a.5.5 0 0 0 .5-.5V22h14v.5a.5.5 0 0 0 .5.5h2a.5.5 0 0 0 .5-.5v-2a.5.5 0 0 0-.5-.5H23V8h.5a.5.5 0 0 0 .5-.5v-2a.5.5 0 0 0-.5-.5h-2a.5.5 0 0 0-.5.5V6H7v-.5a.5.5 0 0 0-.5-.5h-2ZM7 7v.5a.5.5 0 0 1-.5.5H6v12h.5a.5.5 0 0 1 .5.5v.5h14v-.5a.5.5 0 0 1 .5-.5h.5V8h-.5a.5.5 0 0 1-.5-.5V7H7ZM5 7V6h1v1H5Zm17 0V6h1v1h-1ZM5 22v-1h1v1H5Zm17 0v-1h1v1h-1Z" clip-rule="evenodd"/>
  <path fill="#446ECA" fill-rule="evenodd" d="M9.5 9a.5.5 0 0 0-.5.5v5a.5.5 0 0 0 .5.5H13v3.5a.5.5 0 0 0 .5.5h5a.5.5 0 0 0 .5-.5v-5a.5.5 0 0 0-.5-.5H15V9.5a.5.5 0 0 0-.5-.5h-5Zm4.5 4.5V10h-4v4h4v-.5Zm0 1.5h.5a.5.5 0 0 0 .5-.5V14h3v4h-4v-3Z" clip-rule="evenodd"/>
</svg>
