<svg xmlns="http://www.w3.org/2000/svg" width="28" height="28" viewBox="0 0 28 28" stroke="currentColor" stroke-linecap="round" stroke-linejoin="round" fill="none">
    <path d="M14.5 21.084V6.916a.2.2 0 0 0-.325-.156L9.5 10.5h-3a2 2 0 0 0-2 2v3a2 2 0 0 0 2 2h3l4.675 3.74a.2.2 0 0 0 .325-.156Z" class="icon-stroke-gray-primary"/>
    <path d="M17.187 17.175A4.485 4.485 0 0 0 18.499 14c0-1.24-.501-2.362-1.312-3.176m3.11-2.135A7.477 7.477 0 0 1 22.5 14a7.477 7.477 0 0 1-2.204 5.31" class="icon-stroke-blue-primary"/>
</svg>
