<svg xmlns="http://www.w3.org/2000/svg" width="28" height="28" viewBox="0 0 28 28" stroke="none" stroke-linecap="round" stroke-linejoin="round" fill="currentColor">
    <path d="m11.88 5.148.474.158-.475-.158Zm-.734 2.2.267.423a.5.5 0 0 0 .207-.264l-.474-.158Zm-1.482.938-.12.485a.5.5 0 0 0 .387-.063l-.267-.422Zm-2.425-.6.12-.485-.12.485Zm-1.045.437.43.255-.43-.255Zm-1.296 2.18-.43-.255.43.255Zm.189 1.2.33-.376-.33.375Zm1.7 1.496h.5a.5.5 0 0 0-.17-.375l-.33.375Zm0 2 .33.376a.5.5 0 0 0 .17-.375h-.5Zm-1.7 1.498.33.375-.33-.375Zm-.189 1.199.43-.256-.43.256Zm1.296 2.18.43-.255-.43.255Zm1.045.437-.12-.485.12.485Zm2.425-.6.245-.436a.5.5 0 0 0-.365-.05l.12.486Zm1.405.788.48-.14a.5.5 0 0 0-.236-.296l-.245.436Zm.67 2.314.48-.139-.48.14Zm4.516 0-.48-.139.48.14Zm.67-2.314-.245-.436a.5.5 0 0 0-.235.297l.48.139Zm1.403-.788.12-.485a.5.5 0 0 0-.364.05l.244.435Zm2.425.6.12-.485-.12.485Zm1.045-.437-.43-.255.43.255Zm1.32-2.222-.429-.255.43.255Zm-.145-1.158.352-.355-.352.355Zm-1.717-1.709h-.5a.5.5 0 0 0 .148.354l.352-.354Zm.001-1.575-.353-.354a.5.5 0 0 0-.147.354h.5Zm1.716-1.708-.353-.355.353.355Zm.147-1.16-.43.256.43-.255Zm-1.321-2.221-.43.255.43-.255Zm-1.045-.437-.12-.485.12.485Zm-2.425.6-.267.422a.5.5 0 0 0 .387.063l-.12-.485Zm-1.482-.937-.475.158a.5.5 0 0 0 .207.264l.268-.422Zm-.734-2.201-.474.158.474-.158Zm1.388 8.856h-.5a3 3 0 0 1-3 3v1a4 4 0 0 0 4-4h-.5Zm-3.5 3.5v-.5a3 3 0 0 1-3-3h-1a4 4 0 0 0 4 4v-.5Zm-3.5-3.5h.5a3 3 0 0 1 3-3v-1a4 4 0 0 0-4 4h.5Zm3.5-3.5v.5a3 3 0 0 1 3 3h1a4 4 0 0 0-4-4v.5Zm-2.122-5.356-.474-.158-.733 2.2.474.159.474.158.734-2.201-.475-.158Zm-.733 2.2-.267-.422-1.483.937.268.423.267.422 1.482-.937-.267-.422Zm-1.482.938.12-.485-2.425-.6-.12.485-.12.485 2.425.6.12-.485Zm-2.425-.6.12-.485a1.45 1.45 0 0 0-1.595.666l.43.256.43.255a.45.45 0 0 1 .495-.207l.12-.485Zm-1.045.437-.43-.256-1.296 2.181.43.255.43.256 1.296-2.18-.43-.256Zm-1.296 2.18-.43-.255a1.45 1.45 0 0 0 .288 1.83l.33-.376.33-.375a.45.45 0 0 1-.089-.568l-.43-.256Zm.189 1.2-.33.374 1.7 1.498.33-.376.33-.375-1.7-1.497-.33.375Zm1.7 1.496h-.5v2h1v-2h-.5Zm0 2-.33-.375-1.7 1.498.33.375.33.375 1.7-1.497-.33-.375Zm-1.7 1.498-.33-.375a1.45 1.45 0 0 0-.289 1.83l.43-.256.43-.256a.45.45 0 0 1 .09-.568l-.33-.375Zm-.189 1.199-.43.255 1.297 2.18.43-.255.43-.255-1.297-2.18-.43.255Zm1.296 2.18-.43.256c.327.55.975.82 1.596.667l-.12-.486-.12-.485a.45.45 0 0 1-.496-.207l-.43.255Zm1.045.437.12.486 2.426-.6-.12-.486-.12-.485-2.426.6.12.485Zm2.425-.6-.244.436 1.404.788.245-.436.244-.436-1.404-.788-.245.436Zm1.405.788-.48.139.67 2.314.48-.139.48-.139-.67-2.314-.48.139Zm.67 2.314-.48.14A1.45 1.45 0 0 0 12.65 24v-1a.45.45 0 0 1-.432-.325l-.48.14Zm.912.686v.5h2.691v-1h-2.69v.5Zm2.691 0v.5a1.45 1.45 0 0 0 1.393-1.047l-.48-.139-.48-.139a.45.45 0 0 1-.433.325v.5Zm.913-.686.48.14.67-2.315-.48-.14-.48-.138-.67 2.314.48.14Zm.67-2.314.245.436 1.403-.788-.245-.436-.244-.436-1.404.788.245.436Zm1.403-.788-.12.486 2.425.6.12-.486.12-.485-2.425-.6-.12.485Zm2.425.6-.12.486a1.45 1.45 0 0 0 1.595-.667l-.43-.256-.43-.255a.45.45 0 0 1-.495.207l-.12.485Zm1.045-.437.43.256 1.32-2.222-.43-.256-.429-.255-1.32 2.222.43.255Zm1.32-2.222.43.256a1.45 1.45 0 0 0-.223-1.769l-.352.355-.353.354a.45.45 0 0 1 .07.549l.429.255Zm-.145-1.158.352-.355-1.716-1.708-.353.354-.352.354 1.716 1.709.352-.354Zm-1.717-1.709h.5l.001-1.575h-1v1.575h.5Zm.001-1.575.353.354 1.716-1.708-.353-.354-.353-.355-1.716 1.709.353.354Zm1.716-1.708.353.354a1.45 1.45 0 0 0 .223-1.769l-.43.256-.43.255a.45.45 0 0 1-.069.55l.353.354Zm.147-1.16.43-.255-1.321-2.222-.43.256-.43.255 1.32 2.222.43-.255Zm-1.321-2.221.43-.256a1.45 1.45 0 0 0-1.595-.666l.12.485.12.485a.45.45 0 0 1 .495.207l.43-.255Zm-1.045-.437-.12-.485-2.425.6.12.485.12.485 2.425-.6-.12-.485Zm-2.425.6.267-.423-1.482-.937-.267.423-.268.422 1.483.937.267-.422Zm-1.482-.937.474-.159-.734-2.2-.474.158-.474.158.733 2.2.475-.157Zm-.734-2.201.474-.158a1.45 1.45 0 0 0-1.375-.992v1a.45.45 0 0 1 .427.308l.474-.158Zm-.901-.65v-.5H12.78v1h2.43v-.5Zm-2.431 0v-.5c-.624 0-1.179.4-1.376.992l.474.158.475.158a.45.45 0 0 1 .427-.308v-.5Z" class="icon-fill-gray-primary"/>
</svg>
