<svg xmlns="http://www.w3.org/2000/svg" width="28" height="28" viewBox="0 0 28 28">
    <path d="M9.5 18.5h-4a1 1 0 0 1-1-1v-11m0 0v-1a1 1 0 0 1 1-1h12a1 1 0 0 1 1 1v1m-14 0h14m0 2.5V6.5m-11 3h8m-8 3h2m-2 3h2" class="icon-stroke-gray-primary" stroke="currentColor" stroke-linecap="round" stroke-linejoin="round" fill="none"/>
    <path d="M23.5 15.5v.5a.5.5 0 0 0 .5-.5h-.5Zm-14 5V20a.5.5 0 0 0-.5.5h.5Zm8 0h.5V20h-.5v.5Zm-5 0h.5v-6h-1v6h.5Zm11-6.5H23v1.5h1V14h-.5Zm0 1.5V15h-3v1h3v-.5Zm-14 6h.5v-1H9v1h.5Zm0-1v.5h3v-1h-3v.5Zm3 0v.5h5v-1h-5v.5Zm8-5H20V22h1v-6.5h-.5Zm0 0h.5V14h-1v1.5h.5Zm-6-3v.5H22v-1h-7.5v.5Zm3 9.5h.5v-1.5h-1V22h.5Zm-6 1.5v.5H19v-1h-7.5v.5Zm6-1.5H17a2 2 0 0 0 2 2v-1a1 1 0 0 1-1-1h-.5Zm3-8h.5a1 1 0 0 1 1-1v-1a2 2 0 0 0-2 2h.5Zm0 8H20a1 1 0 0 1-1 1v1a2 2 0 0 0 2-2h-.5Zm3-8h.5a2 2 0 0 0-2-2v1a1 1 0 0 1 1 1h.5Zm-14 7.5H9a2.5 2.5 0 0 0 2.5 2.5v-1a1.5 1.5 0 0 1-1.5-1.5h-.5Zm3-7h.5a1.5 1.5 0 0 1 1.5-1.5v-1a2.5 2.5 0 0 0-2.5 2.5h.5Z" class="icon-fill-blue-primary" fill="currentColor"/>
</svg>
