<svg xmlns="http://www.w3.org/2000/svg" width="28" height="28" fill="none" viewBox="0 0 28 28">
  <path fill="#383838" fill-rule="evenodd" d="M14 4a.5.5 0 0 1 .46.305l3.808 9 1.692 4a.5.5 0 0 1-.92.39L17.476 14h-6.952L8.96 17.695a.5.5 0 0 1-.92-.39l1.692-4 3.808-9A.5.5 0 0 1 14 4Zm-3.053 9h6.106L14 5.783 10.947 13Z" clip-rule="evenodd"/>
  <path fill="#446ECA" fill-rule="evenodd" d="M8.436 20.563C9.828 19.79 11.789 19 14 19s4.172.79 5.564 1.563c.7.388 1.263.776 1.653 1.068a11.255 11.255 0 0 1 .573.458l.033.029.009.008.002.002.001.001-.335.371.336-.37a.5.5 0 0 1-.672.74l-.006-.005-.024-.021a10.33 10.33 0 0 0-.516-.412c-.361-.27-.887-.633-1.539-.995C17.769 20.71 15.979 20 14 20c-1.98 0-3.77.71-5.079 1.437-.652.362-1.178.724-1.539.994a10.377 10.377 0 0 0-.516.413l-.024.021-.006.005a.5.5 0 0 1-.672-.74l.336.37-.336-.37v-.001h.002l.002-.003.01-.008.032-.029.12-.102c.105-.087.258-.21.453-.356.39-.292.954-.68 1.653-1.068Z" clip-rule="evenodd"/>
</svg>
