<svg xmlns="http://www.w3.org/2000/svg" width="28" height="28" fill="none" viewBox="0 0 28 28">
  <path fill="#383838" fill-rule="evenodd" d="M7 5.5a.5.5 0 0 1 .5-.5h7a.5.5 0 0 1 .5.5v1a.5.5 0 0 0 1 0v-1A1.5 1.5 0 0 0 14.5 4h-7A1.5 1.5 0 0 0 6 5.5v9A1.5 1.5 0 0 0 7.5 16H12v1.5a.5.5 0 0 0 1 0v-4a.5.5 0 0 1 .5-.5h7a.5.5 0 0 1 .5.5v9a.5.5 0 0 1-.5.5h-7a.5.5 0 0 1-.5-.5v-1a.5.5 0 0 0-1 0v1a1.5 1.5 0 0 0 1.5 1.5h7a1.5 1.5 0 0 0 1.5-1.5v-9a1.5 1.5 0 0 0-1.5-1.5H16v-1.5a.5.5 0 0 0-1 0V12h-1.5a1.5 1.5 0 0 0-1.5 1.5V15H7.5a.5.5 0 0 1-.5-.5v-9Z" clip-rule="evenodd"/>
  <path fill="#446ECA" fill-rule="evenodd" d="M11.854 6.854a.5.5 0 0 0-.708-.708l-2 2a.5.5 0 0 0 0 .708l2 2a.5.5 0 0 0 .708-.708L10.707 9H16.5a1.5 1.5 0 0 1 1.5 1.5.5.5 0 0 0 1 0A2.5 2.5 0 0 0 16.5 8h-5.793l1.147-1.146Zm4.292 14.292a.5.5 0 0 0 .708.708l2-2a.5.5 0 0 0 0-.708l-2-2a.5.5 0 0 0-.708.708L17.293 19H11.5a1.5 1.5 0 0 1-1.5-1.5.5.5 0 0 0-1 0 2.5 2.5 0 0 0 2.5 2.5h5.793l-1.147 1.146Z" clip-rule="evenodd"/>
</svg>
