<svg xmlns="http://www.w3.org/2000/svg" width="28" height="28" fill="none" viewBox="0 0 28 28">
  <path fill="#383838" fill-rule="evenodd" d="M9.5 4a.5.5 0 0 1 .5.5V6h8V4.5a.5.5 0 0 1 1 0V6h1.25c.966 0 1.75.784 1.75 1.75v5.75a.5.5 0 0 1-1 0V12H7v8.25c0 .414.336.75.75.75h5.75a.5.5 0 0 1 0 1H7.75A1.75 1.75 0 0 1 6 20.25V7.75C6 6.784 6.784 6 7.75 6H9V4.5a.5.5 0 0 1 .5-.5ZM7 11h14V7.75a.75.75 0 0 0-.75-.75H19v1.5a.5.5 0 0 1-1 0V7h-8v1.5a.5.5 0 0 1-1 0V7H7.75a.75.75 0 0 0-.75.75V11Z" clip-rule="evenodd"/>
  <path fill="#446ECA" fill-rule="evenodd" d="M16 19.502a3.502 3.502 0 1 1 7.004 0 3.502 3.502 0 0 1-7.004 0ZM19.502 15a4.502 4.502 0 1 0 0 9.004 4.502 4.502 0 0 0 0-9.004ZM20 17.5a.5.5 0 0 0-1 0v2a.5.5 0 0 0 .146.354l1 1a.5.5 0 0 0 .708-.708L20 19.293V17.5Z" clip-rule="evenodd"/>
</svg>
