<svg xmlns="http://www.w3.org/2000/svg" width="28" height="28" fill="none" viewBox="0 0 28 28">
  <path fill="#383838" d="m10.858 6.55-.479-.144.48.144Zm-.332-.31-.204-.457.204.456Zm10.924 10.9-.144-.478.144.478Zm.311.332.456.205-.456-.205Zm-.455-.81a8 8 0 0 1-2.305.337v1a9 9 0 0 0 2.593-.38l-.288-.957ZM19 17a8 8 0 0 1-8-8h-1a9 9 0 0 0 9 9v-1Zm-8-8c0-.803.118-1.576.337-2.306l-.958-.288A9.002 9.002 0 0 0 10 9h1Zm-5 5a8.002 8.002 0 0 1 4.73-7.304l-.408-.913A9.002 9.002 0 0 0 5 14h1Zm8 8a8 8 0 0 1-8-8H5a9 9 0 0 0 9 9v-1Zm7.304-4.731A8.002 8.002 0 0 1 14 21.999v1a9.002 9.002 0 0 0 8.216-5.321l-.912-.41ZM11.337 6.694c.166-.553-.371-1.2-1.015-.91l.409.912a.266.266 0 0 1-.287-.049.24.24 0 0 1-.065-.24l.958.287ZM21.593 17.62a.24.24 0 0 1-.24-.064.266.266 0 0 1-.05-.287l.913.409c.29-.644-.357-1.182-.91-1.015l.287.957Z"/>
</svg>
