<svg xmlns="http://www.w3.org/2000/svg" width="28" height="28" fill="none" viewBox="0 0 28 28">
  <path fill="#446ECA" fill-rule="evenodd" d="m9.5 14.793.354.354 4 4 .353.353-.354.354-1.816 1.817c-.211.21-.498.33-.796.33H5.01c-1.002 0-1.504-1.213-.796-1.921l4.933-4.933.354-.354Zm0 1.414-4.58 4.58a.125.125 0 0 0 .09.213h6.232a.125.125 0 0 0 .088-.037l1.464-1.463L9.5 16.207Z" clip-rule="evenodd"/>
  <path fill="#383838" fill-rule="evenodd" d="M12.854 6.146a.5.5 0 0 1 0 .708l-.233.232a2 2 0 0 0 0 2.828l.232.232 6 6 .233.233a2 2 0 0 0 2.828 0l1.232-1.233a.5.5 0 0 1 .707.708l-1.232 1.232a3 3 0 0 1-4.118.118l-2.766 2.766a1.75 1.75 0 0 1-2.474 0l-.117-.116-4-4-.116-.117a1.75 1.75 0 0 1 0-2.474l2.766-2.766a3 3 0 0 1 .118-4.118l.232-.233a.5.5 0 0 1 .707 0Zm-.354 5.061L9.737 13.97a.75.75 0 0 0 0 1.06l.117.116 4 4 .116.117a.75.75 0 0 0 1.06 0l2.763-2.763-5.293-5.293Z" clip-rule="evenodd"/>
</svg>
