<svg xmlns="http://www.w3.org/2000/svg" width="28" height="28" viewBox="0 0 28 28" stroke="currentColor" stroke-linecap="round" stroke-linejoin="round" fill="none">
    <path d="M10.5 21.25v-9.5c0-.69.56-1.25 1.25-1.25h9.5c.69 0 1.25.56 1.25 1.25v9.5c0 .69-.56 1.25-1.25 1.25h-9.5c-.69 0-1.25-.56-1.25-1.25Z" class="icon-stroke-gray-secondary"/>
    <path d="M5.5 16.25v-9.5c0-.69.56-1.25 1.25-1.25h9.5c.69 0 1.25.56 1.25 1.25v9.5c0 .69-.56 1.25-1.25 1.25h-9.5c-.69 0-1.25-.56-1.25-1.25Z" fill="currentColor" stroke="none" class="icon-fill-blue-secondary"/>
    <path d="M5.5 16.25v-9.5c0-.69.56-1.25 1.25-1.25h9.5c.69 0 1.25.56 1.25 1.25v9.5c0 .69-.56 1.25-1.25 1.25h-9.5c-.69 0-1.25-.56-1.25-1.25Z" class="icon-stroke-blue-primary"/>
</svg>
