<svg xmlns="http://www.w3.org/2000/svg" width="28" height="28" viewBox="0 0 28 28" stroke="currentColor" stroke-linecap="round" stroke-linejoin="round" fill="none">
    <path d="M21.5 22.5V5.496a1 1 0 0 0-1-1h-13a1 1 0 0 0-1 1V22.5a1 1 0 0 0 1 1h13a1 1 0 0 0 1-1Z" class="icon-stroke-gray-primary"/>
    <path d="M18.5 21.5h-9a1 1 0 0 1-1-1v-1a1 1 0 0 1 1-1h9a1 1 0 0 1 1 1v1a1 1 0 0 1-1 1Zm0-12h-9a1 1 0 0 1-1-1v-1a1 1 0 0 1 1-1h9a1 1 0 0 1 1 1v1a1 1 0 0 1-1 1Z" class="icon-stroke-blue-primary"/>
</svg>
