<svg width="64" height="64" viewBox="0 0 64 64" xmlns="http://www.w3.org/2000/svg">
<g clip-path="url(#clip0_0_310)">
<path d="M0 0H2.37037V61.6296H64V64H0V0Z" fill="#555555"/>
<path d="M17.109 52.581C18.2169 46.6392 20.3694 39.3892 23.8036 33.3559C24.9553 31.3327 26.2357 29.47 27.6531 27.8449C28.2183 28.2236 28.8982 28.4444 29.6296 28.4444C31.5933 28.4444 33.1852 26.8526 33.1852 24.8889C33.1852 24.3681 33.0732 23.8734 32.872 23.4277C35.4024 21.9582 38.2448 21.1793 41.4246 21.332C46.9158 21.5956 50.5189 24.6911 53.1755 29.5C52.5403 30.1422 52.1481 31.0253 52.1481 32C52.1481 33.9637 53.74 35.5556 55.7037 35.5556L55.7358 35.5554C56.8546 39.1446 57.6705 43.4108 58.2356 47.1405C58.5429 49.169 58.7732 51.0182 58.937 52.4826C57.727 53.0499 56.8889 54.2789 56.8889 55.7037C56.8889 57.6674 58.4808 59.2593 60.4444 59.2593C62.4081 59.2593 64 57.6674 64 55.7037C64 54.0336 62.8486 52.6325 61.2963 52.2509C61.1295 50.757 60.8942 48.8646 60.5792 46.7854C60.0077 43.0136 59.1638 38.5565 57.9651 34.7438C58.7555 34.0917 59.2593 33.1047 59.2593 32C59.2593 30.0363 57.6674 28.4444 55.7037 28.4444C55.5706 28.4444 55.4391 28.4518 55.3098 28.466C52.4046 23.1647 48.201 19.2842 41.5383 18.9643C37.5944 18.775 34.1525 19.8222 31.1696 21.6832C30.7037 21.459 30.1813 21.3333 29.6296 21.3333C27.666 21.3333 26.0741 22.9252 26.0741 24.8889C26.0741 25.2386 26.1246 25.5766 26.2187 25.8958C24.5226 27.7701 23.0357 29.9133 21.7436 32.1833C18.136 38.5213 15.9081 46.0624 14.7679 52.2055C13.1094 52.5067 11.8519 53.9583 11.8519 55.7037C11.8519 57.6674 13.4437 59.2593 15.4074 59.2593C17.3711 59.2593 18.963 57.6674 18.963 55.7037C18.963 54.3565 18.2136 53.1842 17.109 52.581Z" fill="#555555"/>
<path opacity="0.6" d="M57.2002 8.80205C58.2758 8.1731 59 6.99386 59 5.64286C59 3.63096 57.3941 2 55.413 2C53.432 2 51.8261 3.63096 51.8261 5.64286C51.8261 7.45936 53.1352 8.96534 54.8476 9.24071C54.9991 10.2042 55.1617 11.3444 55.3134 12.6189C55.7959 16.672 56.1638 22.0472 55.7262 27.3995C55.2869 32.774 54.0456 37.9902 51.4161 41.8339C49.3247 44.891 46.3186 47.1389 41.9535 47.8795C41.3954 46.6039 40.137 45.7143 38.6739 45.7143C37.2128 45.7143 35.9558 46.6015 35.3966 47.8743C25.9712 46.3013 19.4995 38.0525 15.2325 29.3855C12.8831 24.6135 11.2627 19.8296 10.2294 16.2314C9.9467 15.2472 9.70843 14.3534 9.51151 13.5747C10.511 12.9281 11.1739 11.7927 11.1739 10.5C11.1739 8.48811 9.56798 6.85714 7.58696 6.85714C5.60594 6.85714 4 8.48811 4 10.5C4 12.3723 5.39083 13.9147 7.18047 14.1197C7.38623 14.9359 7.63619 15.8755 7.9337 16.9114C8.99272 20.5989 10.6604 25.5294 13.0936 30.4716C17.46 39.3405 24.4948 48.6336 35.2099 50.306C35.6209 51.8578 37.0161 53 38.6739 53C40.3307 53 41.725 51.8593 42.1372 50.3091C47.2455 49.4989 50.8829 46.8698 53.3799 43.2196C56.3576 38.8669 57.6553 33.1546 58.1093 27.6005C58.5652 22.0242 58.1807 16.4708 57.6874 12.3275C57.5288 10.9951 57.3585 9.8048 57.2002 8.80205Z" fill="#555555"/>
</g>
<defs>
<clipPath id="clip0_0_310">
<rect width="64" height="64" fill="white"/>
</clipPath>
</defs>
</svg>
