<svg width="64" height="64" viewBox="0 0 64 64" xmlns="http://www.w3.org/2000/svg">
<path d="M14.9999 37L6.99989 39V49L48.9999 63L56.9999 61V51L56.9963 50.9988L14.9999 37Z" fill="#555555"/>
<path d="M45 47L37 49L49 53L57 51L45 47Z" fill="white" fill-opacity="0.65"/>
<path d="M15 36.9961L7 38.9961L49 53L57 51L15 36.9961Z" fill="white" fill-opacity="0.35"/>
<path d="M49 63V53L57 51V61L49 63Z" fill="white" fill-opacity="0.35"/>
<path d="M37 59V49L49 53V63L37 59Z" fill="white" fill-opacity="0.65"/>
<path d="M14.9999 25L6.99989 27V37L48.9999 51L56.9999 49V39L56.9963 38.9988L14.9999 25Z" fill="#555555"/>
<path d="M15 24.9961L7 26.9961L49 41L57 39L15 24.9961Z" fill="white" fill-opacity="0.35"/>
<path d="M42 34L34 36L49 41L57 39L42 34Z" fill="white" fill-opacity="0.65"/>
<path d="M49 51V41L57 39V49L49 51Z" fill="white" fill-opacity="0.35"/>
<path d="M34 46V36L49 41V51L34 46Z" fill="white" fill-opacity="0.65"/>
<path d="M14.9999 13L6.99989 15V25L48.9999 39L56.9999 37V27L56.9963 26.9988L48.9994 28.998L56.9999 27L14.9999 13Z" fill="#555555"/>
<path d="M15 12.9961L7 14.9961L49 29L57 27L15 12.9961Z" fill="white" fill-opacity="0.35"/>
<path d="M36 20L28 22L49 29L57 27L36 20Z" fill="white" fill-opacity="0.65"/>
<path d="M49 39V29L57 27V37L49 39Z" fill="white" fill-opacity="0.35"/>
<path d="M28 32V22L49 29V39L28 32Z" fill="white" fill-opacity="0.65"/>
<path d="M14.9999 1L6.99989 3V13L48.9999 27L56.9999 25V15L56.9963 14.9988L48.9994 16.998L56.9999 15L29.9963 5.99881L14.9999 1Z" fill="#555555"/>
<path d="M30 6L22 8L49 17L57 15L30 6Z" fill="white" fill-opacity="0.65"/>
<path d="M49 27V17L57 15V25L49 27Z" fill="white" fill-opacity="0.35"/>
<path d="M22 18V8L49 17V27L22 18Z" fill="white" fill-opacity="0.65"/>
<path d="M15 0.998047L7 2.99805L49 17L57 15L15 0.998047Z" fill="white" fill-opacity="0.35"/>
</svg>
