<svg xmlns="http://www.w3.org/2000/svg" width="28" height="28" viewBox="0 0 28 28" stroke="currentColor" stroke-linecap="round" stroke-linejoin="round" fill="none">
    <path d="M4.5 16.5v4a1 1 0 0 0 1 1h4a1 1 0 0 0 1-1v-4m-6 0v-5m0 5h6m-6-5v-4a1 1 0 0 1 1-1h5m-6 5h6m0-5v5m0-5h7m-7 10v-5m0 5h4m-4-5h7m0 0h5a1 1 0 0 0 1-1v-3a1 1 0 0 0-1-1h-5m0 5v-5m0 5v2" class="icon-stroke-gray-primary"/>
    <path d="m19.5 15.5-5 5v2h2l5-5m-2-2 1.293-1.293a1 1 0 0 1 1.414 0l.586.586a1 1 0 0 1 0 1.414L21.5 17.5m-2-2 2 2" class="icon-stroke-blue-primary"/>
</svg>
