<svg xmlns="http://www.w3.org/2000/svg" width="28" height="28" viewBox="0 0 28 28" stroke="currentColor" stroke-linecap="round" stroke-linejoin="round" fill="none">
    <path d="M6.5 21.5h-1a1 1 0 0 1-1-1v-11m0 0v-2a1 1 0 0 1 1-1h17a1 1 0 0 1 1 1v2m-19 0h19m0 0v4" class="icon-stroke-gray-primary"/>
    <path d="M8.5 18.5h5a1 1 0 0 1 1 1m-6-1v2a3 3 0 1 0 6 0v-1m-6-1v-.586a1 1 0 0 1 .293-.707L12.5 13.5m2 6h3m0 0v1a3 3 0 1 0 6 0v-2m-6 1a1 1 0 0 1 1-1h5m0 0v-.586a1 1 0 0 0-.293-.707L19.5 13.5" class="icon-stroke-blue-primary"/>
</svg>
