<svg xmlns="http://www.w3.org/2000/svg" width="28" height="28" viewBox="0 0 28 28" stroke="currentColor" stroke-linecap="round" stroke-linejoin="round" fill="none">
    <path d="M4.5 13.5v2a1 1 0 0 0 1 1h3m-4-3h4m-4 0v-3m4 3h1m-1 0v-3m0 3v3m-4-6h4m-4 0v-3m4 3h1m-1 0v-3m-4 0v-2a1 1 0 0 1 1-1h3m-4 3h4m8 0v-2a1 1 0 0 0-1-1h-3m4 3v2m0-2h-4m-4 0h4m-4 0v-3m4 3v-3m0 3v2m0-5h-4m0 12h1m2 4v2a1 1 0 0 0 1 1h3m-4-3h4m-4 0v-3m4 3h4m-4 0v-3m0 3v3m4-3h4m-4 0v-3m0 3v3m4-3v-3m0 3v2a1 1 0 0 1-1 1h-3m-8-6h4m-4 0v-3m4 3h4m-4 0v-3m4 3h4m-4 0v-3m4 3v-3m-12 0v-2a1 1 0 0 1 1-1h3m-4 3h4m8 0v-2a1 1 0 0 0-1-1h-3m4 3h-4m-4 0h4m-4 0v-3m4 3v-3m0 0h-4m4 12h-4" class="icon-stroke-gray-secondary"/>
    <path d="M12.5 4.5h3a1 1 0 0 1 1 1v2h-4m0-3v3m0-3h-4m4 3h-4m0-3h-3a1 1 0 0 0-1 1v2h4m0-3v3m11 4h3a1 1 0 0 1 1 1v2h-4m0-3v3m0-3h-4m4 3h-4m0-3h-3a1 1 0 0 0-1 1v2h4m0-3v3" class="icon-stroke-blue-primary"/>
</svg>
