<svg xmlns="http://www.w3.org/2000/svg" width="28" height="28" viewBox="0 0 28 28" stroke="currentColor" stroke-linecap="round" stroke-linejoin="round" fill="none">
    <path d="M22.5 6.5v2a1 1 0 0 1-1 1h-8a1 1 0 0 1-1-1v-2a1 1 0 0 1 1-1h8a1 1 0 0 1 1 1Zm-13 0v2a1 1 0 0 1-1 1h-2a1 1 0 0 1-1-1v-2a1 1 0 0 1 1-1h2a1 1 0 0 1 1 1Zm-3 6h2a1 1 0 0 1 1 1v8a1 1 0 0 1-1 1h-2a1 1 0 0 1-1-1v-8a1 1 0 0 1 1-1Z" class="icon-gray-primary"/>
    <path d="m16.364 16.5.924-4.064a1.203 1.203 0 1 1 2.339.558l-.127.506m-3.136 3-1.151 5.064a1.202 1.202 0 1 1-2.34-.558L13 20.5m3.364-4H18.5m-2.136 0H14.5m6 4-.553 1.106a1.618 1.618 0 0 1-1.447.894m2-2 .553-1.106A1.618 1.618 0 0 1 22.5 18.5m-2 2-.553-1.106A1.618 1.618 0 0 0 18.5 18.5m2 2 .553 1.106c.274.548.834.894 1.447.894" class="icon-blue-primary"/>
</svg>
