<svg xmlns="http://www.w3.org/2000/svg" width="28" height="28" viewBox="0 0 28 28" stroke="currentColor" stroke-linecap="round" stroke-linejoin="round" fill="none">
    <path d="m12 24 .207.207a1 1 0 0 0 .707.293h.197a1.5 1.5 0 0 0 1.495-1.385l.787-10.23A1.5 1.5 0 0 1 16.89 11.5h.197a1 1 0 0 1 .707.293L18 12m-1 3.5h-3m4.5 6 1.5-2m0 0 1.5-2m-1.5 2 1.5 2m-1.5-2-1.5-2m4-9v-2a1 1 0 0 0-1-1h-8a1 1 0 0 0-1 1v2a1 1 0 0 0 1 1h8a1 1 0 0 0 1-1Zm-13 0v-2a1 1 0 0 0-1-1h-2a1 1 0 0 0-1 1v2a1 1 0 0 0 1 1h2a1 1 0 0 0 1-1Zm-1 4h-2a1 1 0 0 0-1 1v8a1 1 0 0 0 1 1h2a1 1 0 0 0 1-1v-8a1 1 0 0 0-1-1Z" class="icon-stroke-gray-primary"/>
</svg>
