<svg xmlns="http://www.w3.org/2000/svg" width="28" height="28" viewBox="0 0 28 28" stroke="currentColor" stroke-linecap="round" stroke-linejoin="round" fill="none">
    <path d="M15.5 11.5v-5a1 1 0 0 0-1-1h-9a1 1 0 0 0-1 1v10a1 1 0 0 0 1 1h3m-1-9h5m-5 3h5m-5 3h1m3 3h6m-6 0v3m0-3v-2a1 1 0 0 1 1-1h5m0 3h6m-6 0v-3m0 3v3m6-3v3m0-3v-2a1 1 0 0 0-1-1h-5m-6 6v2a1 1 0 0 0 1 1h5m-6-3h6m6 0v2a1 1 0 0 1-1 1h-5m6-3h-6m0 0v3" class="icon-stroke-gray-primary"/>
    <path d="M18.5 6.5h2a1 1 0 0 1 1 1v4m0 0 2-2m-2 2-2-2" class="icon-stroke-blue-primary"/>
</svg>
