<svg xmlns="http://www.w3.org/2000/svg" width="28" height="28" viewBox="0 0 28 28" stroke="currentColor" stroke-linecap="round" stroke-linejoin="round" fill="none">
    <path d="M11.5 18.5h-1a1 1 0 0 1-1-1v-5a1 1 0 0 1 1-1h1a1 1 0 0 1 1 1v5a1 1 0 0 1-1 1Zm5 0h-1a1 1 0 0 1-1-1v-3a1 1 0 0 1 1-1h1a1 1 0 0 1 1 1v3a1 1 0 0 1-1 1Zm5 0h-1a1 1 0 0 1-1-1v-7a1 1 0 0 1 1-1h1a1 1 0 0 1 1 1v7a1 1 0 0 1-1 1Z" class="icon-stroke-blue-primary"/>
    <path d="M4.5 21.5h2m0 0h17m-17 0v-15m0 15v2m0-19v2m0 0h-2m2 0h17" class="icon-stroke-gray-secondary"/>
</svg>
