<svg xmlns="http://www.w3.org/2000/svg" width="28" height="28" viewBox="0 0 28 28" stroke="currentColor" stroke-linecap="round" stroke-linejoin="round" fill="none">
    <path d="M19.5 11.5V5.75c0-.69-.56-1.25-1.25-1.25h-9.5c-.69 0-1.25.56-1.25 1.25v12.5c0 .69.56 1.25 1.25 1.25h5.75m-1-5h10l-3.634 3.634a1.25 1.25 0 0 0-.366.884V23.5l-1.309-.654a1.25 1.25 0 0 1-.691-1.119v-2.71c0-.33-.132-.649-.366-.883L13.5 14.5Z" class="icon-stroke-gray-primary"/>
    <path d="M17.125 12.5H9.5v2h2m-2-7h8v2h-8v-2Z" class="icon-stroke-blue-primary"/>
</svg>
