<svg xmlns="http://www.w3.org/2000/svg" width="28" height="28" viewBox="0 0 28 28" stroke="currentColor" stroke-linecap="round" stroke-linejoin="round" fill="none">
    <path d="M13.5 10.5v-4a1 1 0 0 1 1-1h7a1 1 0 0 1 1 1v4m-9 0h9m-9 0v6m9-6v6m-11-11h-3v2m3 14h-3v-2m5-3v4a1 1 0 0 0 1 1h7a1 1 0 0 0 1-1v-4m-9 0h9" class="icon-stroke-gray-primary"/>
    <path d="M8.5 12.5v1m0 0v1m0-1h1m-1 0h-1m-2-2v4a1 1 0 0 0 1 1h4a1 1 0 0 0 1-1v-4a1 1 0 0 0-1-1h-4a1 1 0 0 0-1 1Z" class="icon-stroke-blue-primary"/>
</svg>
