<svg xmlns="http://www.w3.org/2000/svg" width="28" height="28" viewBox="0 0 28 28" stroke="currentColor" stroke-linecap="round" stroke-linejoin="round" fill="none">
    <path d="M5 7h18v4H5V7Zm0 4h4v10H5V11Z" class="icon-blue-secondary" fill="currentColor"/>
    <path d="M9.5 6.5h-4a1 1 0 0 0-1 1v4m5-5v5m0-5h13a1 1 0 0 1 1 1v4m-14 10h-4a1 1 0 0 1-1-1v-9m5 10v-10m0 10h4m10-10h-14m14 0v2m-14-2h-5" class="icon-gray-primary"/>
    <path d="M18.5 14v3.5m0 0V21m0-3.5 3-2m-3 2-3 2m3-2 3 2m-3-2-3-2" class="icon-blue-primary"/>
</svg>
