<svg xmlns="http://www.w3.org/2000/svg" width="28" height="28" viewBox="0 0 28 28" stroke="currentColor" stroke-linecap="round" stroke-linejoin="round" fill="none">
    <path d="M19.5 17.5V16a1.5 1.5 0 0 1 3 0v1.5m-3 0h3m-3 0a1 1 0 0 0-1 1v2a1 1 0 0 0 1 1h3a1 1 0 0 0 1-1v-2a1 1 0 0 0-1-1" class="icon-blue-primary"/>
    <path d="M5 19h5v2H5v-2Z" class="icon-blue-secondary"/>
    <path d="M4.5 18.5v-11a1 1 0 0 1 1-1h16a1 1 0 0 1 1 1v5m-18 6h12m-12 0v2a1 1 0 0 0 1 1h4a1 1 0 0 0 1-1v-2h-6Z" class="icon-gray-primary"/>
</svg>
