<svg xmlns="http://www.w3.org/2000/svg" width="28" height="28" viewBox="0 0 28 28" stroke="currentColor" stroke-linecap="round" stroke-linejoin="round" fill="none">
    <path d="M21.5 11.5v-3m0-3v-1a1 1 0 0 0-1-1h-1m-4 0h-3m-4 0h-1a1 1 0 0 0-1 1v1m0 3v3m0 3v3m0 3v1a1 1 0 0 0 1 1h1" class="icon-stroke-blue-primary"/>
    <path d="M14.5 22.502v-1.848a.15.15 0 0 1 .15-.15h6.7a.15.15 0 0 1 .15.15v1.848m-7 0v.998a1 1 0 0 0 1 1h5a1 1 0 0 0 1-1v-.998m-7 0h-1a1 1 0 0 1-1-1V18.5a1 1 0 0 1 1-1h1m7 5.002h1a1 1 0 0 0 1-1V18.5a1 1 0 0 0-1-1h-1m0 0v-1a1 1 0 0 0-1-1h-5a1 1 0 0 0-1 1v1m7 0h-7" class="icon-stroke-gray-primary"/>
</svg>
