<svg xmlns="http://www.w3.org/2000/svg" width="28" height="28" viewBox="0 0 28 28" stroke="currentColor" stroke-linecap="round" stroke-linejoin="round" fill="none">
    <path d="M22.5 6.5v2a1 1 0 0 1-1 1h-8a1 1 0 0 1-1-1v-2a1 1 0 0 1 1-1h8a1 1 0 0 1 1 1Zm-13 0v2a1 1 0 0 1-1 1h-2a1 1 0 0 1-1-1v-2a1 1 0 0 1 1-1h2a1 1 0 0 1 1 1Zm-3 6h2a1 1 0 0 1 1 1v8a1 1 0 0 1-1 1h-2a1 1 0 0 1-1-1v-8a1 1 0 0 1 1-1Z" class="icon-stroke-gray-primary"/>
    <path d="M20.5 12.5v6a2 2 0 0 1-2 2h-6m8-8-2 2m2-2 2 2m-10 6 2-2m-2 2 2 2" class="icon-stroke-blue-primary"/>
</svg>
