<svg xmlns="http://www.w3.org/2000/svg" width="28" height="28" viewBox="0 0 28 28" stroke="currentColor" stroke-linecap="round" stroke-linejoin="round" fill="none">
    <path d="M15.5 21.5h-10a1 1 0 0 1-1-1v-13a1 1 0 0 1 1-1h16a1 1 0 0 1 1 1v4" class="icon-stroke-gray-secondary"/>
    <path d="M9.5 6.5h-4a1 1 0 0 0-1 1v3m5-4h4a1 1 0 0 1 1 1v3m-5-4v4m0 4h-4a1 1 0 0 1-1-1v-3m5 4h4a1 1 0 0 0 1-1v-3m-5 4v-4m-5 0h5m5 0h-5m9 7V16a2.5 2.5 0 0 1 5 0v1.5m-5 0h5m-5 0a1 1 0 0 0-1 1v4a1 1 0 0 0 1 1h5a1 1 0 0 0 1-1v-4a1 1 0 0 0-1-1" class="icon-stroke-blue-primary"/>
</svg>
