<svg xmlns="http://www.w3.org/2000/svg" width="28" height="28" viewBox="0 0 28 28" stroke="currentColor" stroke-linecap="round" stroke-linejoin="round" fill="none">
    <path d="M14.5 21.5h-9a1 1 0 0 1-1-1v-13a1 1 0 0 1 1-1h16a1 1 0 0 1 1 1v5" class="icon-gray-secondary"/>
    <path d="M18.5 17.5V16a1.5 1.5 0 0 1 3 0v1.5m-3 0h3m-3 0a1 1 0 0 0-1 1v2a1 1 0 0 0 1 1h3a1 1 0 0 0 1-1v-2a1 1 0 0 0-1-1m-12-11h-4a1 1 0 0 0-1 1v3m5-4h5v4m-5-4v4m0 4h-5v-4m5 4h5v-4m-5 4v-4m-5 0h5m5 0h-5" class="icon-blue-primary"/>
</svg>
