<svg xmlns="http://www.w3.org/2000/svg" width="28" height="28" viewBox="0 0 28 28" stroke="currentColor" stroke-linecap="round" stroke-linejoin="round" fill="none">
    <path d="M5.5 16.75v3.5c0 .69.56 1.25 1.25 1.25h1.5c.69 0 1.25-.56 1.25-1.25v-3.5c0-.69-.56-1.25-1.25-1.25h-1.5c-.69 0-1.25.56-1.25 1.25Zm8.75 4.75h-1.5c-.69 0-1.25-.56-1.25-1.25v-7.5c0-.69.56-1.25 1.25-1.25h1.5c.69 0 1.25.56 1.25 1.25v7.5c0 .69-.56 1.25-1.25 1.25Zm6 0h-1.5c-.69 0-1.25-.56-1.25-1.25V7.75c0-.69.56-1.25 1.25-1.25h1.5c.69 0 1.25.56 1.25 1.25v12.5c0 .69-.56 1.25-1.25 1.25Z" class="icon-stroke-gray-primary"/>
    <path d="m8.5 6 .884 1.616L11 8.5l-1.616.884L8.5 11l-.884-1.616L6 8.5l1.616-.884L8.5 6Z" class="icon-stroke-blue-primary"/>
</svg>
