<svg xmlns="http://www.w3.org/2000/svg" width="28" height="28" viewBox="0 0 28 28" stroke="currentColor" stroke-linecap="round" stroke-linejoin="round" fill="none">
    <path d="m21.5 13.5.354-.353a.5.5 0 0 0-.708 0l.354.353Zm-2.354 1.647a.5.5 0 0 0 .708.707L19.5 15.5l-.354-.353Zm4 .707a.5.5 0 0 0 .708-.707l-.354.353-.354.354ZM13.5 21.5l-.354-.353a.5.5 0 0 0 0 .707l.354-.354Zm2.354-1.646a.5.5 0 0 0-.708-.707l.354.353.354.354Zm-.708 4a.5.5 0 0 0 .708-.707l-.354.353-.354.354ZM21.5 19.5h.5v-6h-1v6h.5Zm0-6-.354-.353-2 2 .354.353.354.354 2-2-.354-.354Zm0 0-.354.354 2 2 .354-.354.354-.353-2-2-.354.353Zm-2 8V21h-6v1h6v-.5Zm-6 0 .354.354 2-2-.354-.354-.354-.353-2 2 .354.353Zm0 0-.354.354 2 2 .354-.354.354-.353-2-2-.354.353Zm8-2H21a1.5 1.5 0 0 1-1.5 1.5v1a2.5 2.5 0 0 0 2.5-2.5h-.5ZM9.496 22.496v-.5H6.5v1h2.996v-.5Zm1-11.996h-.5v10.996h1V10.5h-.5ZM5.5 9.5H5v11.996h1V9.5h-.5Zm1 12.996v-.5a.5.5 0 0 1-.5-.5H5a1.5 1.5 0 0 0 1.5 1.5v-.5Zm2.996 0v.5a1.5 1.5 0 0 0 1.5-1.5h-1a.5.5 0 0 1-.5.5v.5Z" class="icon-fill-blue-primary" stroke="none" fill="currentColor" />
    <path d="M10.5 10.496h10.997a1 1 0 0 0 1-1V6.5a1 1 0 0 0-1-1H10.5m0 4.996H6.504a1 1 0 0 1-1-1V6.5a1 1 0 0 1 1-1H10.5m0 4.996v.004m0-.004V5.5" class="icon-stroke-gray-primary"/>
</svg>
