<svg width="40" height="40" viewBox="0 0 40 40" fill="none" xmlns="http://www.w3.org/2000/svg">
<path fill-rule="evenodd" clip-rule="evenodd" d="M36 4H4V5H36V4ZM4 7H36V8H4V7ZM29 28H36V29H29V28ZM36 31H4V32H36V31ZM36 34H4V35H36V34ZM11 28H4V29H11V28ZM28.9763 12.0177C28.9763 12.0177 28.5415 16.7257 27.382 18.0708C26.6658 18.9017 25.4579 18.8201 24.6492 18.7655C24.476 18.7538 24.3212 18.7434 24.1934 18.7434C24.9181 18.9115 27.0921 19.9204 27.0921 22.7788C27.0921 25.9735 25.7877 29 24.4833 29C23.1788 29 20.8598 24.9646 20.8598 21.0974C20.8598 20.7776 20.8016 20.5929 20.7589 20.4578C20.7381 20.3918 20.721 20.3377 20.7162 20.2854C20.7288 20.5744 20.8068 22.9469 19.9902 22.9469C19.1592 22.9469 19.2546 20.4906 19.2647 20.2721C19.2583 20.3406 19.2116 20.4331 19.1575 20.5402C19.0751 20.7034 18.9756 20.9004 18.9756 21.0974C18.9756 24.9646 16.6566 29 15.3522 29C14.1927 29 12.7433 25.9734 12.7433 22.6106C12.7433 20.0248 14.5225 19.0902 15.291 18.6865C15.372 18.6439 15.4418 18.6073 15.4971 18.5752C15.0623 18.7434 13.468 19.0796 12.5983 18.0708C11.5838 16.7257 11.004 12.0177 11.004 12.0177C11.004 11.9943 11.0033 11.9652 11.0025 11.9313C10.9916 11.4781 10.96 10.1682 12.3085 10.1682C16.8015 10.1682 19.4104 16.7257 19.4104 17.5664C19.4104 17.5664 19.4104 16.2212 20.1351 16.2212C20.8598 16.2212 20.8598 17.5664 20.8598 17.5664C20.8598 16.7257 23.4687 10 27.8168 10C29.0875 10 29.0214 11.1631 28.9858 11.7898C28.9807 11.878 28.9763 11.9555 28.9763 12.0177Z" fill="black"/>
</svg>
