<svg width="40" height="40" viewBox="0 0 40 40" fill="none" xmlns="http://www.w3.org/2000/svg">
<path opacity="0.4" fill-rule="evenodd" clip-rule="evenodd" d="M4 4H36V5H4V4ZM36 7H4V8H36V7ZM4 10H36V11H4V10ZM36 13H4V14H36V13ZM4 16H36V17H4V16ZM36 19H4V20H36V19ZM4 22H36V23H4V22ZM36 25H4V26H36V25ZM4 28H36V29H4V28ZM36 31H4V32H36V31ZM36 34H4V35H36V34Z" fill="black"/>
<path d="M27.382 18.0708C28.5415 16.7257 28.9763 12.0177 28.9763 12.0177C28.9763 11.5133 29.2662 10 27.8168 10C23.4687 10 20.8598 16.7257 20.8598 17.5664C20.8598 17.5664 20.8598 16.2212 20.1351 16.2212C19.4104 16.2212 19.4104 17.5664 19.4104 17.5664C19.4104 16.7257 16.8015 10.1682 12.3085 10.1682C10.8591 10.1682 11.004 11.6814 11.004 12.0177C11.004 12.0177 11.5838 16.7257 12.5983 18.0708C13.468 19.0796 15.0623 18.7434 15.4971 18.5752C14.9174 18.9115 12.7433 19.7522 12.7433 22.6106C12.7433 25.9734 14.1927 29 15.3522 29C16.6566 29 18.9756 24.9646 18.9756 21.0974C18.9756 20.7611 19.2655 20.4248 19.2655 20.2566C19.2655 20.2566 19.1206 22.9469 19.9902 22.9469C20.8598 22.9469 20.7149 20.2566 20.7149 20.2566C20.7149 20.4248 20.8598 20.5929 20.8598 21.0974C20.8598 24.9646 23.1788 29 24.4833 29C25.7877 29 27.0921 25.9735 27.0921 22.7788C27.0921 19.9204 24.9181 18.9115 24.1934 18.7434C24.9181 18.7434 26.5124 19.0796 27.382 18.0708Z" fill="black"/>
</svg>
