<svg width="40" height="40" viewBox="0 0 40 40" fill="none" xmlns="http://www.w3.org/2000/svg">
<path opacity="0.4" fill-rule="evenodd" clip-rule="evenodd" d="M4 4H36V5H4V4ZM36 7H4V8H36V7ZM4 10H36V11H4V10ZM36 13H4V14H36V13ZM4 16H36V17H4V16ZM36 19H4V20H36V19ZM4 22H36V23H4V22ZM36 25H4V26H36V25ZM4 28H36V29H4V28ZM36 31H4V32H36V31ZM36 34H4V35H36V34Z" fill="black"/>
<path fill-rule="evenodd" clip-rule="evenodd" d="M11.1017 11C10.9885 11.3525 10.9976 11.728 11.0025 11.9313C11.0033 11.9652 11.004 11.9943 11.004 12.0177C11.004 12.0177 11.0523 12.4098 11.1454 13H17.1375C16.5372 12.2321 15.825 11.5187 15.009 11H11.1017ZM24.982 11C24.2408 11.539 23.5892 12.2471 23.0358 13H28.8607C28.9401 12.4098 28.9763 12.0177 28.9763 12.0177C28.9763 11.9555 28.9807 11.878 28.9858 11.7898C28.9983 11.5685 29.0147 11.2803 28.9747 11H24.982ZM28.71 14H22.3688C21.9399 14.7068 21.5974 15.4058 21.3477 16H28.285C28.4637 15.3397 28.604 14.6325 28.71 14ZM27.9646 17H20.9804C20.9006 17.2643 20.8598 17.4613 20.8598 17.5664C20.8598 17.5664 20.8598 17.2974 20.795 17H19.4752C19.4104 17.2974 19.4104 17.5664 19.4104 17.5664C19.4104 17.4603 19.3689 17.2633 19.2874 17H12.0699C12.2298 17.441 12.4063 17.8161 12.5983 18.0708C13.468 19.0796 15.0623 18.7434 15.4971 18.5752C15.4418 18.6073 15.372 18.6439 15.291 18.6865C15.1379 18.767 14.9446 18.8685 14.7332 19H24.8693C24.5975 18.8632 24.358 18.7816 24.1934 18.7434C24.3212 18.7434 24.476 18.7538 24.6492 18.7655C25.4579 18.8201 26.6658 18.9017 27.382 18.0708C27.6015 17.8161 27.7951 17.441 27.9646 17ZM26.1432 20H13.5863C13.1985 20.4893 12.8813 21.1367 12.7785 22H18.9352C18.9616 21.6994 18.9756 21.3979 18.9756 21.0974C18.9756 20.9004 19.0751 20.7034 19.1575 20.5402C19.2116 20.4331 19.2583 20.3406 19.2647 20.2721C19.2588 20.3991 19.2241 21.2826 19.3594 22H20.6209C20.7522 21.3039 20.7234 20.4513 20.7162 20.2854C20.721 20.3377 20.7381 20.3919 20.7589 20.4578C20.8016 20.5929 20.8598 20.7776 20.8598 21.0974C20.8598 21.3979 20.8738 21.6994 20.9003 22H27.0344C26.9021 21.1421 26.5568 20.4888 26.1432 20ZM27.0901 23H21.0331C21.1553 23.6924 21.3361 24.3674 21.5553 25H26.8867C27.0051 24.3634 27.0772 23.6871 27.0901 23ZM26.6544 26H21.9483C22.2997 26.7953 22.7032 27.4838 23.1065 28H25.8036C26.1371 27.4817 26.4315 26.7914 26.6544 26ZM16.7289 28C17.1322 27.4838 17.5357 26.7953 17.8871 26H13.2297C13.466 26.7965 13.7701 27.4845 14.1007 28H16.7289ZM12.9823 25H18.2801C18.4993 24.3674 18.6801 23.6924 18.8023 23H12.7497C12.7726 23.6939 12.8553 24.3686 12.9823 25ZM11.7598 16H18.9085C18.6492 15.404 18.292 14.7041 17.8428 14H11.3164C11.4334 14.6325 11.5819 15.3397 11.7598 16Z" fill="black"/>
</svg>
