<svg xmlns="http://www.w3.org/2000/svg" width="28" height="28" viewBox="0 0 28 28" stroke="currentColor" stroke-linecap="round" stroke-linejoin="round" fill="none">
    <path d="M23.5 13.5v-6a1 1 0 0 0-1-1h-17a1 1 0 0 0-1 1v11a1 1 0 0 0 1 1h7" class="icon-gray-primary"/>
    <path d="M19.502 14.998a4.502 4.502 0 1 1 0 9.004 4.502 4.502 0 0 1 0-9.004Zm.273 2.084a.5.5 0 0 0-.693.693l.064.079L20.293 19H17.5a.5.5 0 0 0 0 1h2.793l-1.146 1.146a.5.5 0 1 0 .707.707l2-2a.5.5 0 0 0 .064-.628l-.064-.079-2-2-.079-.064Z" fill="currentColor" stroke="none" class="icon-blue-primary"/>
    <path d="M8.5 10v6m0-6 .5-.5h.5m-1 .5L8 9.5h-.5m1 6.5.5.5h.5m-1-.5-.5.5h-.5" class="icon-blue-primary"/>
</svg>
