<svg xmlns="http://www.w3.org/2000/svg" width="28" height="28" viewBox="0 0 28 28" stroke="currentColor" stroke-linecap="round" stroke-linejoin="round" fill="none">
    <path d="M10.5 18.5h6m-6 0 2-2m-2 2 2 2" class="icon-stroke-blue-primary"/>
    <path d="M19.444 14.5H16.5a1 1 0 0 0-1 1v1m3.944-2 3.056 3m-3.056-3V17a.5.5 0 0 0 .5.5H22.5m0 0v6a1 1 0 0 1-1 1h-5a1 1 0 0 1-1-1v-3m-3 2h-6a1 1 0 0 1-1-1v-17a1 1 0 0 1 1-1h8m0 0 5 5m-5-5V8a.5.5 0 0 0 .5.5h4.5m0 0v3m-11-1h8m-8-3h3m-3 6h4" class="icon-stroke-gray-primary"/>
</svg>
