<svg xmlns="http://www.w3.org/2000/svg" width="28" height="28" viewBox="0 0 28 28" stroke="currentColor" stroke-linecap="round" stroke-linejoin="round" fill="none">
    <path d="M12.5 22.5h-4a1 1 0 0 1-1-1v-15a1 1 0 0 1 1-1h11a1 1 0 0 1 1 1v7" class="icon-gray-primary"/>
    <path d="M18.5 15a4.5 4.5 0 1 1 0 9 4.5 4.5 0 0 1 0-9Zm0 2a.5.5 0 0 0-.5.5V19h-1.5a.5.5 0 0 0 0 1H18v1.5a.5.5 0 0 0 1 0V20h1.5a.5.5 0 0 0 0-1H19v-1.5a.5.5 0 0 0-.5-.5Z" fill="currentColor" stroke="none" class="icon-blue-primary"/>
</svg>
