<svg xmlns="http://www.w3.org/2000/svg" width="28" height="28" viewBox="0 0 28 28" stroke="currentColor" stroke-linecap="round" stroke-linejoin="round" fill="none">
    <path d="M12.133 10.678 10.07 6.555a.102.102 0 0 0-.106-.054c-5.936 1.757-3.108 8.828.074 12.01 3.89 3.89 10.253 6.01 12.01.074a.102.102 0 0 0-.054-.106l-4.123-2.062a.1.1 0 0 0-.104.01l-2.31 1.733c-.29.217-.681.278-1.01.128-1.126-.512-3.674-3.06-4.186-4.185-.15-.33-.089-.72.128-1.01l1.733-2.31a.1.1 0 0 0 .01-.105Z" class="icon-stroke-gray-primary"/>
    <path d="M15.696 10.026c.825.117 2.545.848 2.828 2.828m-2.121-4.95c1.178.236 3.677 1.415 4.243 4.243" class="icon-stroke-blue-primary"/>
</svg>
