<svg xmlns="http://www.w3.org/2000/svg" width="28" height="28" viewBox="0 0 28 28" stroke="currentColor" stroke-linecap="round" stroke-linejoin="round" fill="none">
    <path d="M15.5 4.5h-8a1 1 0 0 0-1 1v16.996a1 1 0 0 0 1 1h6m2-18.996 5 5m-5-5v4a1 1 0 0 0 1 1h4m0 0v2.998" class="icon-gray-primary"/>
    <path d="M19.502 15a4.502 4.502 0 1 1 0 9.004 4.502 4.502 0 0 1 0-9.004Zm2.14 2.323a.5.5 0 0 0-.686.172l-2.033 3.394-1.062-1.592-.064-.078a.5.5 0 0 0-.816.543l.048.09 1.062 1.591.082.108a1 1 0 0 0 1.607-.149l2.034-3.393a.5.5 0 0 0-.172-.686Z" fill="currentColor" stroke="none" class="icon-blue-primary"/>
</svg>
