<svg aria-hidden="true" style="position: absolute; width: 0; height: 0; overflow: hidden;" version="1.1" xmlns="http://www.w3.org/2000/svg" xmlns:xlink="http://www.w3.org/1999/xlink">
    <symbol viewbox="0 0 20 20" id="chartcategory-stock-normal">
        <path fill-rule="evenodd" clip-rule="evenodd" d="M3 2H2v16h16v-1H3V2Z"/>
        <path fill-rule="evenodd" clip-rule="evenodd" d="M12 7h-1v2h-1v2h1v2h1v-2h1V9h-1V7Zm-6 7H5v-4h1V8h1v2h1v4H7v2H6v-2Zm10-9h-1v4h1v2h1V9h1V5h-1V3h-1v2Z"/>
    </symbol>
    <symbol viewbox="0 0 20 20" id="chartcategory-surface-normal">
        <path opacity=".4" d="m6 8 5-3.5L16 9l-4 2.5-3.5 1L5 10l1-2Z"/>
        <path d="M8 5.49V3H7v3.19l-1.39.973L1.69 15h1.602l-1.146 1.146.707.708L4.708 15h3.184l5.878 2.672L16.04 12H18v-1h-1.56l.648-1.62-6.03-6.03L8 5.49ZM7.62 14H3.31l1.645-3.289.179.196c.295.319.697.724 1.073.997.397.289.936.556 1.354.744.14.064.27.12.382.167L7.619 14Zm1.322-1.05.051-.007a20.4 20.4 0 0 0 1.066-.175c.603-.116 1.328-.285 1.98-.524l2.019 2.02-.826 2.064-4.636-2.107.346-1.271Zm5.52.303L13 11.793c.659-.39 1.332-.961 1.848-1.438a20.49 20.49 0 0 0 .905-.894l.16.16-1.453 3.632Zm-2.195-2.195-2.194-2.194 1.265-3.82 3.71 3.71-.183.19c-.17.174-.412.415-.695.677-.575.532-1.284 1.118-1.898 1.435l-.005.002ZM9.115 8.573l-3.479.774.755-1.51 3.864-2.705-1.14 3.441Zm-3.178 1.731L8.8 9.668l-.593 2.173a14.064 14.064 0 0 1-.236-.104c-.406-.184-.867-.416-1.176-.641-.27-.196-.585-.503-.858-.792Zm5.31 1.15c-.452.136-.934.246-1.378.332-.231.044-.449.081-.64.111l.527-1.934 1.49 1.49Z"/>
    </symbol>
    <symbol viewbox="0 0 20 20" id="chartcategory-area-normal">
        <path opacity=".4" d="M10.25 11 8 7 3 17l4.75-5 2 2.5 3.383-3.5H10.25Z"/>
        <path d="m7.75 12 2 2.5L17 7v10H3l4.75-5Z"/>
    </symbol>
    <symbol viewbox="0 0 20 20" id="chartcategory-bar-normal">
        <path d="M7.5 3H3v3h4.5V3ZM3 15v3h14v-3H3Zm0-8h7v3H3V7Zm10 4H3v3h10v-3Z"/>
    </symbol>
    <symbol viewbox="0 0 20 20" id="chartcategory-column-normal">
        <path d="M18 3h-3v14h3V3Zm-7 4h3v10h-3V7Zm-1 3H7v7h3v-7Zm-4 3H3v4h3v-4Z"/>
    </symbol>
    <symbol viewbox="0 0 20 20" id="chartcategory-combo-bar-line">
        <path d="M11 5h3v12h-3V5Zm-1 2H7v10h3V7Zm-4 6H3v4h3v-4Zm12-2h-3v6h3v-6Z" opacity=".4"/>
        <path d="M3 2H2v16h16v-1H3v-3.76l4.463-3.57 4.037 4.037 6.353-6.353-.707-.708-5.646 5.647L7.537 8.33 3 11.96V2Z"/>
    </symbol>
    <symbol viewbox="0 0 20 20" id="chartcategory-line-normal">
        <path opacity=".6" d="m11.49 6.282 5.364 5.365-.707.707-4.635-4.636-7.647 8.125-.728-.685 8.353-8.876Z"/>
        <path d="M4 3H3v15h14v-1H4v-4.811l3.45-3.881 4.564 6.593 4.905-7.63-.84-.541-4.096 6.37-4.435-6.408L4 10.684V3Z"/>
    </symbol>
    <symbol viewbox="0 0 20 20" id="chartcategory-pie-normal">
        <path opacity=".4" d="M10.5 3A7.5 7.5 0 0 0 3 10.5h7.5V3Z"/>
        <path d="M3 10.5A7.5 7.5 0 1 0 10.5 3v7.5H3Z"/>
    </symbol>
    <symbol viewbox="0 0 20 20" id="chartcategory-radar">
        <path opacity=".6" d="m13.445 8.75-.818 4.905-5.94 1.188-2.017-6.45 5.604-4.003 3.17 4.36Zm.055 5.75 1-6-4-5.5-7 5L6 16l7.5-1.5Z"/>
        <path d="m9.223 10.267-1.18 1.77-.404-2.298 1.584.528Zm.779.634 2.657 3.986-4.142-1.758 1.485-2.228Zm3.835 3.95-3.049-4.573 4.963-1.55-1.914 6.123Zm-.168 1.55.917 1.376.832-.554-.868-1.302 2.362-7.557 1.239-.387-.298-.954-1.403.438-5.68-1.748.23-3.682-.997-.062-.222 3.544-2.914 2.915L2.66 7.026l-.316.948L6.56 9.38l.678 3.863-2.653 3.98.832.554 2.534-3.802 5.717 2.427Zm-5.742-7.62 1.76-1.76-.144 2.3-1.616-.54Zm2.78-2.041 4.056 1.248-4.217 1.318.16-2.566Z"/>
    </symbol>
    <symbol viewbox="0 0 20 20" id="chartcategory-recommended">
        <path d="m9.5 2 .318 1.182L11 3.5l-1.182.318L9.5 5l-.318-1.182L8 3.5l1.182-.318L9.5 2ZM3.424 4.576 3 3l-.424 1.576L1 5l1.576.424L3 7l.424-1.576L5 5l-1.576-.424Zm4.212 2.788L7 5l-.636 2.364L4 8l2.364.636L7 11l.636-2.364L10 8l-2.364-.636ZM18 8h-4v10h4V8Zm-6 4v6H8v-6h4Zm-6 6v-3H2v3h4Z"/>
    </symbol>
    <symbol viewbox="0 0 20 20" id="chartcategory-point-normal">
        <path d="M7 6a1 1 0 1 1-2 0 1 1 0 0 1 2 0Zm0 6a1 1 0 1 0 0-2 1 1 0 0 0 0 2Zm4 2a1 1 0 1 0 0-2 1 1 0 0 0 0 2Zm3-6a1 1 0 1 0 0-2 1 1 0 0 0 0 2Z" opacity=".6"/>
        <path d="M3 3H2v15h15v-1H3V3Z"/>
        <path d="M11 9a1 1 0 1 1-2 0 1 1 0 0 1 2 0Zm3 3a1 1 0 1 0 0-2 1 1 0 0 0 0 2Zm3 3a1 1 0 1 1-2 0 1 1 0 0 1 2 0ZM6 16a1 1 0 1 0 0-2 1 1 0 0 0 0 2Z"/>
    </symbol>
</svg>
