<svg width="64" height="64" viewBox="0 0 64 64" xmlns="http://www.w3.org/2000/svg">
<g clip-path="url(#clip0_0_273)">
<path d="M0 0H2.37037V61.6296H64V64H0V0Z" fill="#555555"/>
<path d="M35.0705 26.6828C35.3788 26.1562 35.5556 25.5432 35.5556 24.8889C35.5556 22.9252 33.9637 21.3333 32 21.3333C30.0363 21.3333 28.4444 22.9252 28.4444 24.8889C28.4444 25.7262 28.7339 26.496 29.2182 27.1035L16.4342 47.5579C16.1091 47.46 15.7644 47.4074 15.4074 47.4074C13.4437 47.4074 11.8519 48.9993 11.8519 50.963C11.8519 52.9266 13.4437 54.5185 15.4074 54.5185C17.3711 54.5185 18.963 52.9266 18.963 50.963C18.963 50.2226 18.7367 49.5351 18.3495 48.9658L31.2279 28.3604C31.4765 28.4154 31.7349 28.4444 32 28.4444C32.4441 28.4444 32.8693 28.363 33.2612 28.2143L59.7446 59.5128L57.2956 39.9209C58.46 39.3368 59.2593 38.1321 59.2593 36.7407C59.2593 34.7771 57.6674 33.1852 55.7037 33.1852C53.74 33.1852 52.1481 34.7771 52.1481 36.7407C52.1481 38.4435 53.3451 39.8667 54.9436 40.2149L56.4035 51.8946L35.0705 26.6828Z" fill="#555555"/>
<path opacity="0.6" d="M11.0974 11.0507C11.7125 10.4084 12.0909 9.53442 12.0909 8.57143C12.0909 6.59898 10.5036 5 8.54545 5C6.58735 5 5 6.59898 5 8.57143C5 10.5439 6.58735 12.1429 8.54545 12.1429C8.69376 12.1429 8.83995 12.1337 8.98348 12.1159L26.0608 46.5208L51.1419 13.5666L43.5715 47.883C41.8155 48.096 40.4545 49.6022 40.4545 51.4286C40.4545 53.401 42.0419 55 44 55C45.9581 55 47.5455 53.401 47.5455 51.4286C47.5455 50.1513 46.8798 49.0306 45.8789 48.3993L53.883 12.117C55.6391 11.904 57 10.3978 57 8.57143C57 6.59898 55.4126 5 53.4545 5C51.4964 5 49.9091 6.59898 49.9091 8.57143C49.9091 9.2902 50.1199 9.95939 50.4826 10.5197L26.4846 42.0507L11.0974 11.0507Z" fill="#555555"/>
</g>
<defs>
<clipPath id="clip0_0_273">
<rect width="64" height="64" fill="white"/>
</clipPath>
</defs>
</svg>
