<svg xmlns="http://www.w3.org/2000/svg" width="28" height="28" fill="none" viewBox="0 0 28 28">
    <path fill="#000" d="M18 7H5.5a.5.5 0 0 0-.5.5v14a.5.5 0 0 0 .5.5H18v1H5.5A1.5 1.5 0 0 1 4 21.5v-14A1.5 1.5 0 0 1 5.5 6H18z"/>
    <path fill="#000" d="M14 19H7v-1h7zm0-4H7v-1h7zm0-4H7v-1h7zm8.207 7.5L20 20.707 17.793 18.5l.707-.707 1.5 1.5 1.5-1.5zm0-8-.707.707-1.5-1.5-1.5 1.5-.707-.707L20 8.293z"/>
    <path fill="#000" d="M22.653 6.008A1.5 1.5 0 0 1 24 7.5v14a1.5 1.5 0 0 1-1.5 1.5H16V6h6.5zM17 22h5.5a.5.5 0 0 0 .5-.5v-14a.5.5 0 0 0-.4-.49L22.5 7H17z"/>
</svg>
