<svg xmlns="http://www.w3.org/2000/svg" width="28" height="28" fill="none" viewBox="0 0 28 28">
    <path fill="#000" d="M22.854 15.854 19.207 19.5l.793.793v.207c0 .38-.178.818-.387 1.21-.22.415-.517.86-.841 1.282a11 11 0 0 1-1.032 1.17c-.338.33-.696.625-1.016.785l-.106.053H16.5c-.296 0-.592-.123-.839-.26a5 5 0 0 1-.775-.55c-.5-.423-.99-.956-1.3-1.408-.35-.512-.617-1.186-.796-1.78-.177-.585-.29-1.166-.29-1.502V19h.5c1.703 0 2.768-.243 3.392-.47.311-.113.514-.223.63-.297q.087-.056.116-.08l.016-.014.346-.346 1 1 3.646-3.646.707.707Zm-5.414 3.294a4.5 4.5 0 0 1-.707.322c-.67.243-1.683.472-3.168.52.041.205.1.454.182.723.136.45.318.91.526 1.276a2.9 2.9 0 0 0 1.873-.843l.707.707a3.85 3.85 0 0 1-1.88 1.04c.174.185.363.369.557.533.22.185.432.337.618.44.109.06.193.094.253.113.17-.11.39-.288.64-.532a10 10 0 0 0 .938-1.064c.3-.39.565-.79.752-1.14.127-.241.2-.432.237-.568zM13 16v1H9v-1zm5-3v1H9v-1zm-5-3v1H9v-1zm3-1h3.293L16 5.707zm5 4.998h-1V10h-5V5H7v17.996L12 23v1l-6-.004V4h9.707L21 9.293z"/>
</svg>
