<svg width="28" height="28" viewBox="0 0 28 28" fill="none" xmlns="http://www.w3.org/2000/svg">
    <path d="M13.07 4.183a.2.2 0 0 0 .114-.112l.63-1.6a.2.2 0 0 1 .372 0l.63 1.6a.2.2 0 0 0 .114.112l1.599.631a.2.2 0 0 1 0 .372l-1.6.63a.2.2 0 0 0-.112.113l-.63 1.6a.2.2 0 0 1-.373 0l-.63-1.6a.2.2 0 0 0-.113-.112l-1.599-.63a.2.2 0 0 1 0-.373zm.587.817a1.2 1.2 0 0 1 .343.344A1.2 1.2 0 0 1 14.344 5 1.2 1.2 0 0 1 14 4.657a1.2 1.2 0 0 1-.343.343M7.272 23.385 22.12 8.535a1 1 0 0 0 0-1.414l-1.414-1.414a1 1 0 0 0-1.415 0L4.444 20.557a1 1 0 0 0 0 1.414l1.415 1.414a1 1 0 0 0 1.414 0M20 6.415l1.414 1.413-3.536 3.536-1.414-1.414zM5.15 21.263l10.607-10.607 1.414 1.414L6.565 22.678zM6.9 7.788a.2.2 0 0 1-.112.113l-2.316.913a.2.2 0 0 0 0 .372l2.316.914a.2.2 0 0 1 .113.112l.913 2.316a.2.2 0 0 0 .372 0l.914-2.316a.2.2 0 0 1 .112-.112l2.316-.914a.2.2 0 0 0 0-.372l-2.316-.913a.2.2 0 0 1-.112-.113l-.914-2.316a.2.2 0 0 0-.372 0zM8 7.726l.17.429a1.2 1.2 0 0 0 .675.676l.43.17-.43.168a1.2 1.2 0 0 0-.676.676l-.169.43-.169-.43a1.2 1.2 0 0 0-.676-.676L6.725 9l.43-.17a1.2 1.2 0 0 0 .676-.675zm11.505 10.892a.2.2 0 0 0 .113-.113l1.196-3.033a.2.2 0 0 1 .372 0l1.197 3.033a.2.2 0 0 0 .112.113l3.034 1.196a.2.2 0 0 1 0 .372l-3.034 1.196a.2.2 0 0 0-.112.113l-1.197 3.033a.2.2 0 0 1-.372 0l-1.196-3.033a.2.2 0 0 0-.113-.113l-3.033-1.196a.2.2 0 0 1 0-.372zm1.043.254a1.2 1.2 0 0 1-.676.676L18.726 20l1.146.452a1.2 1.2 0 0 1 .676.676L21 22.274l.452-1.146a1.2 1.2 0 0 1 .676-.676L23.275 20l-1.147-.452a1.2 1.2 0 0 1-.676-.676L21 17.726z" fill="#000"/>
</svg>
