<svg width="20" height="20" viewBox="0 0 20 20" fill="none" xmlns="http://www.w3.org/2000/svg"><path d="M9 3.5a1.5 1.5 0 0 1 2.947-.395A1.5 1.5 0 0 1 14 4.5v1.585a1.506 1.506 0 0 1 2.004 1.412c0 .13 0 .26.002.39.008 1.241.016 2.44-.041 3.541-.063 1.214-.206 2.344-.53 3.31-.327.975-.846 1.806-1.67 2.388-.824.58-1.897.874-3.266.874-1.676 0-3.065-1.152-4.147-2.499-1.096-1.365-1.973-3.05-2.608-4.35C3.259 10.158 3.994 9 5.092 9c.394 0 .771.156 1.05.435l.858.858V5.5a1.5 1.5 0 0 1 2-1.415V3.5Zm1 0V10a.5.5 0 0 1-1 0V5.5a.5.5 0 1 0-1 0v6a.5.5 0 0 1-.854.354l-1.712-1.712A.484.484 0 0 0 5.092 10a.5.5 0 0 0-.45.712c.632 1.293 1.469 2.892 2.49 4.163C8.167 16.164 9.298 17 10.499 17c1.228 0 2.082-.263 2.689-.691.605-.427 1.02-1.056 1.299-1.888.281-.84.418-1.864.48-3.044.054-1.07.047-2.24.039-3.487l-.003-.386A.506.506 0 0 0 14.5 7a.5.5 0 0 0-.5.5V10a.5.5 0 1 1-1 0V4.5a.5.5 0 1 0-1 0V10a.5.5 0 1 1-1 0V3.5a.5.5 0 1 0-1 0Z" fill="#000"/></svg>