<svg width="28" height="28" viewBox="0 0 28 28" fill="none" xmlns="http://www.w3.org/2000/svg">
<path fill-rule="evenodd" clip-rule="evenodd" d="M9.21452 3.12493C9.15599 2.68436 9.39646 2.33502 9.72812 2.17635C10.0598 2.01767 10.4827 2.04963 10.789 2.37165L10.8465 2.4345C13.0821 4.8758 14.7163 6.65464 16.1884 8.23865L22.3946 5.26864C23.1965 4.88501 24.0207 5.75157 23.5975 6.53323C22.4306 8.68844 21.3233 10.7282 20.302 12.6057C21.672 14.0418 23.2378 15.6691 25.2978 17.8052C25.9105 18.4492 25.341 19.5009 24.4669 19.34C24.4669 19.34 21.7484 18.8587 17.3282 18.0617C15.1751 22.0036 13.8441 24.4222 13.8441 24.4222C13.4209 25.2039 12.2447 24.9873 12.1276 24.1062C11.757 21.1619 11.4724 18.9216 11.2139 16.9537C9.11114 16.5708 6.82811 16.1532 4.4178 15.7094C3.54362 15.5484 3.38611 14.3629 4.18794 13.9793L10.3947 11.0105C10.0851 8.87035 9.72546 6.48172 9.22735 3.20916L9.21452 3.12493ZM4.80036 14.8001C7.10036 15.2001 9.30036 15.6001 11.3004 16.0001L12.0004 16.1001L12.1004 16.8001C12.2619 17.8232 12.3944 18.9333 12.5448 20.1928C12.6737 21.2723 12.8157 22.4617 13.0004 23.8001C13.1229 23.5959 13.3957 23.0912 13.805 22.3338C14.3977 21.2373 15.2766 19.6111 16.4004 17.6001L16.7004 17.0001L17.4004 17.1001C21.0004 17.8001 23.5004 18.2001 24.3004 18.3001C22.3004 16.3001 20.8004 14.7001 19.5004 13.3001L19.0004 12.8001L19.3004 12.2001C20.3004 10.4001 21.4004 8.40014 22.5004 6.40014L16.0004 9.50014L15.5004 9.00014C14.5168 7.87605 13.4345 6.70261 12.1148 5.27176C11.5561 4.66598 10.9547 4.01398 10.3004 3.30014C10.6645 5.63083 10.9226 7.48409 11.1519 9.13038C11.2373 9.74423 11.3189 10.3298 11.4004 10.9001L11.5004 11.6001L4.80036 14.8001Z" fill="#FF8E00"/>
<path fill-rule="evenodd" clip-rule="evenodd" d="M8.97298 19.8403L10.9502 25.7044L10.0026 26.0239L8.02539 20.1598L8.97298 19.8403Z" fill="#FF8E00"/>
<path fill-rule="evenodd" clip-rule="evenodd" d="M18.2998 23.4005L14.7934 26.0174L14.1953 25.216L17.7017 22.5991L18.2998 23.4005Z" fill="#FF8E00"/>
<path opacity="0.5" d="M11.3008 15.9998C9.30078 15.5998 7.10078 15.1998 4.80078 14.7998L11.5008 11.5998L11.4008 10.8998C11.3193 10.3293 11.2378 9.74408 11.1523 9.13005C10.923 7.48376 10.665 5.6305 10.3008 3.2998C10.9551 4.01365 11.5564 4.66557 12.1151 5.27135C13.4349 6.70224 14.5172 7.8757 15.5008 8.9998L16.0008 9.4998L22.5008 6.3998C21.4008 8.3998 20.3008 10.3998 19.3008 12.1998L19.0008 12.7998L19.5008 13.2998C20.8008 14.6998 22.3008 16.2998 24.3008 18.2998C23.5008 18.1998 21.0008 17.7998 17.4008 17.0998L16.7008 16.9998L16.4008 17.5998C15.277 19.6108 14.3981 21.237 13.8054 22.3335C13.3961 23.0909 13.1233 23.5955 13.0008 23.7998C12.8162 22.4613 12.6742 21.272 12.5453 20.1924C12.3949 18.9329 12.2623 17.8229 12.1008 16.7998L12.0008 16.0998L11.3008 15.9998Z" fill="#FF8E00"/>
</svg>
