<svg width="28" height="28" viewBox="0 0 28 28" fill="none" xmlns="http://www.w3.org/2000/svg">
<path fill-rule="evenodd" clip-rule="evenodd" d="M12 2.5C12.9751 11.6265 11.3754 13.2334 2 11.5C3.65385 15.2005 4.95362 15.7956 9 17.5C8.6181 21.3411 8.22372 23.5319 6.5 26C10.0593 25.0528 10.9817 24.3272 14.5 20.5C14.7743 20.6689 15.0372 20.8284 15.2921 20.983C17.3102 22.2071 18.8251 23.1259 21.5 26C22.0262 21.9785 22.2021 20.2223 19 16C21.4502 12.4606 23.0165 11.5543 26 11C22.8437 8.83407 20.6237 9.05658 17 9.5C16.6511 7.19826 15.2563 5.6088 12 2.5ZM3.7998 12.8C4.92932 14.5884 6.14743 15.1364 8.87183 16.3622L8.87398 16.3631C9.04332 16.4393 9.21848 16.5181 9.39981 16.6L10.0998 16.9L9.99981 17.6L9.94958 18.0376C9.67487 20.4379 9.44876 22.4134 8.59981 24.3C10.1998 23.6 11.2998 22.5 13.6998 19.9L14.2998 19.3L15.7998 20.2C15.9397 20.2874 16.078 20.3733 16.2153 20.4585L16.2163 20.4591C17.649 21.3486 18.9663 22.1665 20.6998 23.9C20.8998 21.4 20.5998 19.9 18.1998 16.7L17.7998 16L18.1998 15.4C19.9998 12.8 21.3998 11.5 23.3998 10.7C21.6216 10.0085 19.941 10.1953 17.2974 10.4892L17.1998 10.5L16.1998 10.6L16.0998 9.6C15.8998 8.1 15.0998 6.9 13.2998 5.1C13.4998 8.2 13.0998 10.5 11.6998 11.8C9.99981 13.3 7.39981 13.4 3.7998 12.8Z" fill="#FF8E00"/>
<path opacity="0.03" d="M8.87281 16.3623C6.14841 15.1365 4.9303 14.5885 3.80078 12.8001C7.40078 13.4001 10.0008 13.3001 11.7008 11.8001C13.1008 10.5001 13.5008 8.2001 13.3008 5.1001C15.1008 6.9001 15.9008 8.1001 16.1008 9.6001L16.2008 10.6001L17.2008 10.5001L17.2984 10.4893C19.9419 10.1954 21.6226 10.0086 23.4008 10.7001C21.4008 11.5001 20.0008 12.8001 18.2008 15.4001L17.8008 16.0001L18.2008 16.7001C20.6008 19.9001 20.9008 21.4001 20.7008 23.9001C18.9673 22.1666 17.65 21.3487 16.2173 20.4592C16.0797 20.3738 15.941 20.2877 15.8008 20.2001L14.3008 19.3001L13.7008 19.9001C11.3008 22.5001 10.2008 23.6001 8.60078 24.3001C9.44974 22.4135 9.67585 20.438 9.95056 18.0377C9.96708 17.8934 9.98377 17.7476 10.0008 17.6001L10.1008 16.9001L9.40078 16.6001C9.2187 16.5179 9.04282 16.4387 8.87281 16.3623Z" fill="#FF8E00"/>
<path fill-rule="evenodd" clip-rule="evenodd" d="M17 18L14.5 11H13.5L11 18H12L12.7143 16H15.2857L16 18H17ZM14.9286 15L14 12.4L13.0714 15H14.9286Z" fill="black" fill-opacity="0.8"/>
</svg>
