<svg width="28" height="28" viewBox="0 0 28 28" fill="none" xmlns="http://www.w3.org/2000/svg">
<g id="Animation/1x/Light/multiple/Multiple">
<path id="Subtract" fill-rule="evenodd" clip-rule="evenodd" d="M15 4C14.6327 4 14.2654 4.21113 14.1282 4.6334C13.381 7.09068 12.6334 9.5479 11.8694 12C12.1303 12 6.96739 12.0002 4.91842 12C4.03043 12 3.66122 13.1363 4.37962 13.6583C5.65947 14.5881 7.29106 15.9098 9.03131 17.3195C9.33028 17.5617 9.63247 17.8065 9.93663 18.0523C9.32835 19.9143 8.62702 22.0311 7.70717 24.7974C7.43277 25.6419 8.39938 26.3442 9.11778 25.8222C9.11778 25.8222 11.3602 24.6241 15 22C18.6398 24.6241 20.8821 25.8222 20.8821 25.8222C21.6005 26.3442 22.5671 25.6419 22.2927 24.7974C21.3728 22.0312 20.6715 19.9144 20.0632 18.0524C20.3673 17.8067 20.6693 17.562 20.9682 17.3199C22.7086 15.91 24.3404 14.5882 25.6204 13.6583C26.3388 13.1363 25.9696 12 25.0816 12C23.0326 12.0002 17.8697 12.0001 18.1306 12C17.3665 9.5479 16.619 7.09068 15.8718 4.6334C15.7346 4.21113 15.3673 4 15 4ZM15 5.49986L12.5 13L5.19995 13C6.73608 14.0635 8.19332 15.2534 9.64619 16.4398C10.1635 16.8623 10.6803 17.2843 11.2 17.7L8.79995 25C10.1363 23.9977 11.566 23.0819 12.9892 22.1702L13.0066 22.1591C13.676 21.7302 14.3439 21.3024 15 20.8666C15.6617 21.3061 16.3357 21.7379 17.0109 22.1704C18.4341 23.0821 19.8637 23.9979 21.2 25.0001L18.8 17.7001C19.3197 17.2844 19.8365 16.8624 20.3538 16.44C21.8067 15.2536 23.2639 14.0636 24.8 13.0001L17.5 13.0001L15 5.49986Z" fill="#4E80F5"/>
<path id="Union" opacity="0.5" d="M12.5 13L15 5.49986L17.5 13.0001L24.8 13.0001C23.2639 14.0636 21.8067 15.2536 20.3538 16.44C19.8365 16.8624 19.3197 17.2844 18.8 17.7001L21.2 25.0001C19.8637 23.9979 18.4341 23.0821 17.0109 22.1704C16.3357 21.7379 15.6617 21.3061 15 20.8666C14.3383 21.3062 13.6645 21.7377 12.9892 22.1702C11.566 23.0819 10.1363 23.9977 8.79995 25L11.2 17.7C10.6803 17.2843 10.1635 16.8623 9.64619 16.4398C8.19332 15.2534 6.73608 14.0635 5.19995 13L12.5 13Z" fill="#4E80F5"/>
<g id="Subtract_2">
<path d="M11.3772 8.52631C11.1112 9.39309 10.8518 10.2337 10.613 11L2.00297 11C1.96323 10.5075 2.32504 10 2.91846 10H9.86939C10.6336 7.5479 11.3811 5.09068 12.1282 2.63341C12.2654 2.21114 12.6328 2 13 2C13.1167 2 13.2334 2.02131 13.3427 2.06394C12.6874 4.21831 12.0302 6.37216 11.3604 8.52211L11.3772 8.52631Z" fill="#4E80F5"/>
<path d="M18.5576 10.0001C18.6604 10.3335 18.7637 10.6669 18.867 11.0001L23.9971 11C24.0369 10.5075 23.6751 10 23.0816 10L18.5576 10.0001Z" fill="#4E80F5"/>
<path d="M7.89324 19.3824C7.89119 19.3807 7.88914 19.3791 7.88709 19.3774C7.44705 20.7157 6.95246 22.2087 6.36573 23.9747C5.88984 23.856 5.52518 23.358 5.70728 22.7974C6.41724 20.6618 6.99708 18.9133 7.5044 17.3703C7.77711 17.5907 8.05445 17.8152 8.33521 18.0427C8.18813 18.4893 8.04079 18.9359 7.89324 19.3824Z" fill="#4E80F5"/>
</g>
</g>
</svg>
