<svg width="28" height="28" viewBox="0 0 28 28" fill="none" xmlns="http://www.w3.org/2000/svg">
<path opacity="0.5" d="M14 3.00049L13.9787 3.07059C12.9291 6.5224 12.1582 9.04287 11.4548 11.2963L11.2357 11.9984L3.00195 11.9976C5.16225 13.5671 7.20974 15.0511 9.09637 16.4163L9.68709 16.8437L9.46078 17.5368C8.78897 19.5943 8.01489 21.931 6.9954 24.9969L7.00091 24.9929L7.44463 24.6748C7.73581 24.466 8.16546 24.1577 8.71919 23.76C9.82665 22.9645 11.4304 21.8113 13.4152 20.3803L14 19.9588V3.00049Z" fill="#FF8E00"/>
<path d="M13.0489 2.69098C13.1986 2.23032 13.5993 2 14 2V3.00064L13.9787 3.07074C12.9291 6.52256 12.1582 9.04302 11.4548 11.2965L11.2357 11.9986L3.00195 11.9977C5.16225 13.5673 7.20974 15.0513 9.09637 16.4164L9.68709 16.8438L9.46078 17.537C8.78897 19.5945 8.01489 21.9311 6.9954 24.997L7.00091 24.993L7.44463 24.675C7.73581 24.4662 8.16546 24.1579 8.71919 23.7602C9.82665 22.9647 11.4304 21.8114 13.4152 20.3805L14 19.9589V21.1917C10.0293 24.0543 7.58312 25.8061 7.58312 25.8061C6.79941 26.3755 5.74493 25.6093 6.04428 24.688C7.06479 21.6191 7.83875 19.2828 8.51013 17.2266C6.62303 15.8611 4.575 14.3767 2.41413 12.8067C1.63042 12.2373 2.03319 10.9977 3.00192 10.9977L10.5002 10.9985C11.2024 8.74883 11.9724 6.23139 13.0219 2.77983L13.0489 2.69098Z" fill="#FF8E00"/>
<path d="M20.4169 25.8061C20.4169 25.8061 17.9707 24.0543 14 21.1917V19.9589L14.5848 20.3805C16.5696 21.8114 18.1734 22.9647 19.2808 23.7602C19.8346 24.1579 20.2642 24.4662 20.5554 24.675L21.0046 24.997C19.9851 21.9311 19.2111 19.5945 18.5393 17.537L18.3129 16.8438L18.9037 16.4164C20.7903 15.0513 22.8378 13.5673 24.9981 11.9977L16.7644 11.9986L16.5452 11.2965C15.8418 9.04303 15.071 6.52257 14.0214 3.07075L14 3.00052V2C14.4007 2 14.8014 2.23032 14.9511 2.69098L14.9781 2.77983C16.0276 6.23139 16.7976 8.74883 17.4998 10.9985L24.9981 10.9977C25.9668 10.9977 26.3696 12.2373 25.5859 12.8067C23.425 14.3767 21.377 15.8611 19.4899 17.2266C20.1612 19.2828 20.9352 21.6191 21.9557 24.688C22.2551 25.6093 21.2006 26.3755 20.4169 25.8061Z" fill="black" fill-opacity="0.8"/>
<path opacity="0.5" d="M14 19.9587L14.5848 20.3803C16.5696 21.8112 18.1734 22.9645 19.2808 23.7599C19.8346 24.1577 20.2642 24.4659 20.5554 24.6748L21.0046 24.9968C19.9851 21.9309 19.2111 19.5943 18.5393 17.5367L18.3129 16.8436L18.9037 16.4162C20.7903 15.0511 22.8378 13.567 24.9981 11.9975L16.7644 11.9983L16.5452 11.2962C15.8418 9.0428 15.071 6.52235 14.0214 3.07053L14 3.0003V19.9587Z" fill="black" fill-opacity="0.8"/>
</svg>
