<svg width="28" height="28" viewBox="0 0 28 28" fill="none" xmlns="http://www.w3.org/2000/svg">
<path fill-rule="evenodd" clip-rule="evenodd" d="M13.0489 2.69098C13.1986 2.23032 13.5993 2 14 2C14.4007 2 14.8014 2.23032 14.9511 2.69098L14.9781 2.77983C16.0276 6.23139 16.7976 8.74883 17.4998 10.9985L24.9981 10.9977C25.9668 10.9977 26.3696 12.2373 25.5859 12.8067C23.425 14.3767 21.377 15.8611 19.4899 17.2266C20.1612 19.2828 20.9352 21.6191 21.9557 24.688C22.2551 25.6093 21.2006 26.3755 20.4169 25.8061C20.4169 25.8061 17.9707 24.0543 14 21.1917C10.0293 24.0543 7.58312 25.8061 7.58312 25.8061C6.79941 26.3755 5.74493 25.6093 6.04428 24.688C7.06479 21.6191 7.83875 19.2828 8.51013 17.2266C6.62303 15.8611 4.575 14.3767 2.41413 12.8067C1.63042 12.2373 2.03319 10.9977 3.00192 10.9977L10.5002 10.9985C11.2024 8.74883 11.9724 6.23139 13.0219 2.77983L13.0489 2.69098ZM14 3.00052L13.9787 3.07074C13.073 6.04935 12.1633 9.02671 11.2357 11.9986L3.00195 11.9977C5.2286 13.6155 7.45729 15.2304 9.68709 16.8438C8.79876 19.5645 7.89848 22.2812 6.9954 24.997L7.00091 24.993C9.33674 23.3188 11.6689 21.6395 14 19.9589C16.3311 21.6394 18.6631 23.3186 20.9987 24.9927L21.0047 24.997C20.1016 22.2812 19.2013 19.5645 18.313 16.8438C20.5428 15.2304 22.7715 13.6155 24.9981 11.9977L16.7644 11.9986C15.8368 9.02672 14.9271 6.04935 14.0214 3.07075L14 3.00052Z" fill="#F23D3D"/>
<path opacity="0.5" d="M13.9787 3.07052L14 3.0003L14.0214 3.07053C14.9271 6.04913 15.8368 9.0265 16.7644 11.9983L24.9981 11.9975C22.7715 13.6153 20.5428 15.2302 18.313 16.8436C19.2013 19.5643 20.1016 22.281 21.0047 24.9968L20.9987 24.9925C18.6631 23.3183 16.3311 21.6392 14 19.9587C11.6689 21.6393 9.33674 23.3186 7.00091 24.9928L6.9954 24.9968C7.89848 22.281 8.79876 19.5643 9.68709 16.8436C7.45729 15.2302 5.2286 13.6153 3.00195 11.9975L11.2357 11.9983C12.1633 9.02649 13.073 6.04912 13.9787 3.07052Z" fill="#F23D3D"/>
<path fill-rule="evenodd" clip-rule="evenodd" d="M21.9557 24.688C22.2551 25.6093 21.2006 26.3755 20.4169 25.8061C20.4169 25.8061 17.9707 24.0543 14 21.1917C10.0293 24.0543 7.58312 25.8061 7.58312 25.8061C6.79941 26.3755 5.74493 25.6093 6.04428 24.688C7.06479 21.6191 7.83875 19.2828 8.51013 17.2266C6.62303 15.8611 4.575 14.3767 2.41413 12.8067C1.63042 12.2373 2.03319 10.9977 3.00192 10.9977L10.5002 10.9985C11.2024 8.74883 11.9724 6.23139 13.0219 2.77983L13.0489 2.69098C13.1986 2.23032 13.5993 2 14 2C14.4007 2 14.8014 2.23032 14.9511 2.69098L14.9781 2.77983C16.0276 6.23139 16.7976 8.74883 17.4998 10.9985L24.9981 10.9977C25.9668 10.9977 26.3696 12.2373 25.5859 12.8067C23.425 14.3767 21.377 15.8611 19.4899 17.2266C20.1612 19.2828 20.9352 21.6191 21.9557 24.688ZM14 3.00052C14.9128 6.00252 15.8294 9.00338 16.7644 11.9986L24.9981 11.9977C22.7714 13.6155 20.5427 15.2304 18.3129 16.8438C19.2013 19.5645 20.1015 22.2812 21.0046 24.997C20.4298 24.585 19.8552 24.1727 19.2808 23.7602C17.5193 22.4949 15.7594 21.2273 14 19.9589C11.6688 21.6395 9.3367 23.3188 7.00088 24.993L6.99537 24.997C7.89844 22.2812 8.79873 19.5645 9.68706 16.8438C7.45725 15.2304 5.22857 13.6155 3.00192 11.9977L11.2356 11.9986C12.1706 9.00338 13.0872 6.00252 14 3.00052Z" fill="#F23D3D"/>
<path d="M20.4246 2.20007C20.2589 1.97914 19.9455 1.93434 19.7246 2.1L17.8215 3.52702C17.7111 3.60985 17.6446 3.72962 17.6265 3.85629C17.6084 3.98297 17.6386 4.11655 17.7215 4.22701L19.1485 6.13009C19.3142 6.35102 19.6276 6.39582 19.8485 6.23016C20.0694 6.06449 20.1142 5.7511 19.9485 5.53017L19.2457 4.59284C19.5295 4.66589 19.7975 4.74389 20.0477 4.8273C20.8038 5.07933 21.3436 5.3574 21.6738 5.61761C21.8359 5.74541 21.9225 5.84936 21.9649 5.9185C21.9852 5.95148 21.9935 5.9735 21.9969 5.98464C22 5.99472 22 5.99987 22 5.99987C22 5.99987 22 6.00515 21.9969 6.01523C21.9935 6.02637 21.9852 6.04839 21.9649 6.08137C21.9225 6.15051 21.8359 6.25446 21.6738 6.38226C21.3436 6.64247 20.8038 6.92054 20.0477 7.17257C18.546 7.67316 16.4077 7.99993 14 7.99993C11.5923 7.99993 9.45402 7.67316 7.95227 7.17257C7.19616 6.92054 6.65642 6.64247 6.32624 6.38226C6.16408 6.25446 6.07752 6.15051 6.03507 6.08137C6.01483 6.04839 6.00645 6.02637 6.00305 6.01523C5.99998 6.00515 6 6 6 6C6 6 5.99998 5.99472 6.00305 5.98464C6.00645 5.9735 6.01483 5.95148 6.03507 5.9185C6.07752 5.84936 6.16408 5.74541 6.32624 5.61761C6.65642 5.3574 7.19616 5.07933 7.95227 4.8273C8.54362 4.63018 9.23367 4.46001 10 4.32614V3.31177C7.03656 3.80268 5 4.82203 5 5.99993C5 7.65679 9.02944 8.99993 14 8.99993C18.9706 8.99993 23 7.65679 23 5.99993C23 5.01749 21.5832 4.14534 19.3936 3.59811L20.3245 2.90006C20.5455 2.73439 20.5903 2.421 20.4246 2.20007Z" fill="#F23D3D"/>
</svg>
