<svg width="28" height="28" viewBox="0 0 28 28" fill="none" xmlns="http://www.w3.org/2000/svg">
<path fill-rule="evenodd" clip-rule="evenodd" d="M13.0489 2.69098C13.1986 2.23032 13.5993 2 14 2C14.4007 2 14.8014 2.23032 14.9511 2.69098L14.9781 2.77983C16.0276 6.23139 16.7976 8.74883 17.4998 10.9985L24.9981 10.9977C25.9668 10.9977 26.3696 12.2373 25.5859 12.8067C23.425 14.3767 21.377 15.8611 19.4899 17.2266C20.1612 19.2828 20.9352 21.6191 21.9557 24.688C22.2551 25.6093 21.2006 26.3755 20.4169 25.8061C20.4169 25.8061 17.9707 24.0543 14 21.1917C10.0293 24.0543 7.58312 25.8061 7.58312 25.8061C6.79941 26.3755 5.74493 25.6093 6.04428 24.688C7.06479 21.6191 7.83875 19.2828 8.51013 17.2266C6.62303 15.8611 4.575 14.3767 2.41413 12.8067C1.63042 12.2373 2.03319 10.9977 3.00192 10.9977L10.5002 10.9985C11.2024 8.74883 11.9724 6.23139 13.0219 2.77983L13.0489 2.69098ZM16.7644 11.9986C15.8295 9.0034 14.9128 6.00254 14 3.00054C13.0872 6.00254 12.1706 9.0034 11.2357 11.9986L3.00195 11.9977C5.2286 13.6155 7.45729 15.2304 9.68709 16.8438C8.79876 19.5645 7.89848 22.2812 6.9954 24.997L7.00091 24.993C9.33674 23.3189 11.6689 21.6395 14 19.9589C16.3311 21.6394 18.6631 23.3186 20.9987 24.9927L21.0047 24.997C20.1016 22.2812 19.2013 19.5645 18.313 16.8438C20.5428 15.2304 22.7715 13.6155 24.9981 11.9977L16.7644 11.9986Z" fill="#FF8E00"/>
<path opacity="0.03" d="M14 3.0003C14.9128 6.0023 15.8295 9.00316 16.7644 11.9983L24.9981 11.9975C22.7715 13.6153 20.5428 15.2302 18.313 16.8436C19.2013 19.5643 20.1016 22.281 21.0047 24.9968L20.9987 24.9925C18.6631 23.3183 16.3311 21.6392 14 19.9587C11.6689 21.6393 9.33674 23.3186 7.00091 24.9928L6.9954 24.9968C7.89848 22.281 8.79876 19.5643 9.68709 16.8436C7.45729 15.2302 5.2286 13.6153 3.00195 11.9975L11.2357 11.9983C12.1706 9.00316 13.0872 6.0023 14 3.0003Z" fill="#FF8E00"/>
<path fill-rule="evenodd" clip-rule="evenodd" d="M12 11V19H14.5C15.8807 19 17 17.8807 17 16.5C17 15.638 16.5637 14.8778 15.8999 14.4284C16.2702 14.0654 16.5 13.5595 16.5 13C16.5 11.8954 15.6046 11 14.5 11H12ZM14.5 14C15.0523 14 15.5 13.5523 15.5 13C15.5 12.4477 15.0523 12 14.5 12H13V14H14.5ZM14.5 18C15.3284 18 16 17.3284 16 16.5C16 15.6716 15.3284 15 14.5 15H13V18H14.5Z" fill="black" fill-opacity="0.8"/>
<path d="M9 9.7071L4.75002 5.45711L5.45712 4.75L9.7071 8.99998L9 9.7071Z" fill="#FF8E00"/>
<path d="M18.289 8.99992L22.539 4.74994L23.2461 5.45705L18.9961 9.70703L18.289 8.99992Z" fill="#FF8E00"/>
<path d="M6.66275 18.5261L6.00659 17.7715L2 21.2422L2.65475 21.998L6.66275 18.5261Z" fill="#FF8E00"/>
<path d="M21.3373 18.5261L21.9934 17.7715L26 21.2422L25.3453 21.998L21.3373 18.5261Z" fill="#FF8E00"/>
</svg>
