<svg width="28" height="28" viewBox="0 0 28 28" fill="none" xmlns="http://www.w3.org/2000/svg">
<path fill-rule="evenodd" clip-rule="evenodd" d="M12.9055 4.56087C12.9442 4.13165 13.2462 3.85254 13.5938 3.77324C13.9413 3.69393 14.3345 3.81441 14.5555 4.18437L14.5966 4.25609C16.1901 7.04237 17.3563 9.0737 18.4107 10.8861L24.9148 9.40136C25.7551 9.20962 26.3498 10.2052 25.7827 10.8542C24.219 12.6438 22.7363 14.3368 21.3696 15.8947C22.359 17.5455 23.4928 19.4189 24.9854 21.879C25.4274 22.6189 24.6644 23.4922 23.8719 23.1534C23.8719 23.1534 21.4033 22.118 17.3923 20.4208C14.5146 23.6898 12.7394 25.6935 12.7394 25.6935C12.1723 26.3426 11.106 25.8867 11.1833 25.0283C11.4611 22.1642 11.67 19.9844 11.8454 18.0679C9.93822 17.257 7.86789 16.3747 5.68273 15.4405C4.89021 15.1017 4.99424 13.9467 5.83454 13.755L12.339 12.2716C12.5028 10.1811 12.6724 7.84502 12.8997 4.64328L12.9055 4.56087ZM7.9703 15.3711L7.97226 15.372C9.46461 16.0089 10.8604 16.6046 12.2006 17.2002L12.9006 17.5002L12.8006 18.2002C12.6006 20.0002 12.4006 22.1002 12.2006 24.8002C12.5419 24.459 13.1742 23.7296 14.0793 22.6857C14.7656 21.894 15.6087 20.9215 16.6006 19.8002L17.1006 19.3002L17.8006 19.6002C19.6085 20.3347 21.0972 20.9734 22.1946 21.4442C23.0396 21.8067 23.6526 22.0697 24.0006 22.2002L23.7796 21.8372C22.4841 19.7092 21.4527 18.0151 20.6006 16.5002L20.2006 15.9002L20.7006 15.4002C22.0006 13.9002 23.4006 12.3002 24.9006 10.6002L17.9006 12.0002L17.5006 11.4002C17.0511 10.5911 16.5612 9.76186 16.0218 8.8488C15.3612 7.73056 14.6264 6.48658 13.8006 5.00023C13.7129 6.35942 13.6252 7.5456 13.546 8.61776C13.4445 9.99096 13.3568 11.1771 13.3006 12.3002L13.2006 13.0002L6.40061 14.7002C6.9363 14.9298 7.45898 15.1529 7.9703 15.3711Z" fill="#FF8E00"/>
<path d="M8.17167 2.96432L11.3536 6.1463C11.5489 6.34156 11.5489 6.65814 11.3536 6.8534L8.17167 10.0354C7.97641 10.2306 7.65982 10.2306 7.46456 10.0354C7.42678 9.9976 7.3963 9.95527 7.37314 9.91016L7.39957 9.40812C7.41808 9.37988 7.43974 9.3531 7.46456 9.32828L9.79299 6.99985L7 6.99988C4.79087 6.99989 3 8.79075 3 10.9999V11.9999C3 12.6625 3.16114 13.2876 3.44637 13.8379L2.67054 14.5027C2.24411 13.7666 2 12.9118 2 11.9999V10.9999C2 8.23846 4.23859 5.99989 7 5.99988L9.79299 5.99985L7.46456 3.67142C7.2693 3.47616 7.2693 3.15958 7.46456 2.96432C7.65982 2.76906 7.97641 2.76906 8.17167 2.96432Z" fill="#FF8E00"/>
<path opacity="0.5" d="M7.97204 15.3717C7.46009 15.1532 6.93677 14.9299 6.40039 14.7L13.2004 13L13.3004 12.3C13.3565 11.1769 13.4442 9.99073 13.5458 8.61753C13.625 7.54537 13.7127 6.35919 13.8004 5C14.6262 6.48638 15.361 7.7303 16.0216 8.84857C16.561 9.76163 17.0509 10.5909 17.5004 11.4L17.9004 12L24.9004 10.6C23.4004 12.3 22.0004 13.9 20.7004 15.4L20.2004 15.9L20.6004 16.5C21.4525 18.0148 22.4839 19.709 23.7794 21.837C23.8522 21.9566 23.9259 22.0776 24.0004 22.2C23.6524 22.0695 23.0394 21.8065 22.1944 21.444C21.097 20.9731 19.6083 20.3345 17.8004 19.6L17.1004 19.3L16.6004 19.8C15.6085 20.9213 14.7653 21.8938 14.079 22.6854C13.174 23.7294 12.5416 24.4588 12.2004 24.8C12.4004 22.1 12.6004 20 12.8004 18.2L12.9004 17.5L12.2004 17.2C10.8601 16.6043 9.46445 16.0087 7.97204 15.3717Z" fill="#FF8E00"/>
</svg>
