<svg xmlns="http://www.w3.org/2000/svg" width="28" height="28" viewBox="0 0 28 28" fill="currentColor">
    <path d="M13.117 6.135c.392-.753 1.551-.7 1.833.16l1.546 4.723 4.968.01.175.015c.781.13 1.1 1.115.545 1.68l-.132.114-1.536 1.12-.087.052a.501.501 0 0 1-.503-.86l1.536-1.12-4.968-.011a1.005 1.005 0 0 1-.887-.542l-.061-.147L14 6.607l-1.546 4.722a1.002 1.002 0 0 1-.789.676l-.16.013-4.967.01 4.013 2.93.12.104a.999.999 0 0 1 .278.855l-.036.155-1.524 4.729 1.54-1.114a.5.5 0 0 1 .586.81l-1.54 1.114c-.783.566-1.834-.198-1.538-1.117l1.524-4.728-4.013-2.93c-.78-.569-.378-1.805.588-1.808l4.968-.01 1.546-4.722.067-.161Z" class="icon-gray-primary"/>
    <path d="M17.502 14.998a4.502 4.502 0 1 1 0 9.004 4.502 4.502 0 0 1 0-9.004ZM17.5 17a.5.5 0 0 0-.5.5V19h-1.5a.5.5 0 0 0 0 1H17v1.5a.5.5 0 0 0 1 0V20h1.5a.5.5 0 0 0 0-1H18v-1.5a.5.5 0 0 0-.5-.5Z" class="icon-blue-primary"/>
</svg>
