<svg xmlns="http://www.w3.org/2000/svg" width="28" height="28" fill="none" viewBox="0 0 28 28">
    <path fill="currentColor" d="M22.75 7a.25.25 0 0 1 .25.25v13.5a.25.25 0 0 1-.25.25H5.25a.25.25 0 0 1-.25-.25V7.25A.25.25 0 0 1 5.25 7h17.5Zm-8.303 3.336a1.5 1.5 0 0 0-1.893 0l-.114.104-3 3-.067.072-.062.076-.059.08-.057.094a1.5 1.5 0 0 0-.19.627L9 14.5c0 .26.068.515.195.738l.057.094a.997.997 0 0 0 .059.08l.062.076a.77.77 0 0 0 .067.072l3 3 .07.065.078.064.086.064a1.501 1.501 0 0 0 1.787-.102l.1-.09a1.5 1.5 0 0 0 .192-1.887l-.063-.086-.065-.078-.064-.07-.44-.44h4.38a1.5 1.5 0 0 0 1.491-1.347L20 14.5l-.008-.153A1.5 1.5 0 0 0 18.5 13h-4.379l.44-.44a1.5 1.5 0 0 0 0-2.12l-.114-.104Z" class="icon-blue-secondary"/>
    <path fill="currentColor" d="M22.75 7a.25.25 0 0 1 .25.25v13.5a.25.25 0 0 1-.25.25h-10.5a.25.25 0 0 1-.25-.25v-2.629l.44.44.07.064.078.064.086.064a1.501 1.501 0 0 0 1.787-.102l.1-.09a1.5 1.5 0 0 0 .192-1.887l-.063-.086-.065-.078-.064-.07-.44-.44h4.38a1.5 1.5 0 0 0 1.491-1.347L20 14.5l-.008-.153A1.5 1.5 0 0 0 18.5 13h-4.379l.44-.44a1.5 1.5 0 0 0 0-2.12l-.114-.104a1.5 1.5 0 0 0-1.893 0l-.114.104-.44.439V7.25a.25.25 0 0 1 .25-.25h10.5Z" class="icon-blue-primary" opacity=".3"/>
    <path fill="currentColor" d="M22.75 7a.25.25 0 0 1 .25.25v13.5a.25.25 0 0 1-.25.25h-4.5a.25.25 0 0 1-.25-.25V16h.5a1.5 1.5 0 0 0 1.492-1.347L20 14.5l-.008-.153A1.5 1.5 0 0 0 18.5 13H18V7.25a.25.25 0 0 1 .25-.25h4.5Z" class="icon-blue-primary" opacity=".5"/>
    <path stroke="currentColor" d="M24.5 21.5v-15a1 1 0 0 0-1-1h-19a1 1 0 0 0-1 1v15a1 1 0 0 0 1 1h19a1 1 0 0 0 1-1Z" class="icon-blue-primary"/>
    <path fill="currentColor" d="M13.854 11.146a.5.5 0 0 0-.707 0l-3 3-.063.077a.5.5 0 0 0 0 .554l.063.077 3 3 .078.064a.5.5 0 0 0 .693-.693l-.064-.079L11.707 15H18.5a.5.5 0 0 0 0-1h-6.793l2.146-2.146a.5.5 0 0 0 0-.708Z" class="icon-blue-primary"/>
</svg>
