<svg xmlns="http://www.w3.org/2000/svg" width="28" height="28" fill="none" viewBox="0 0 28 28">
    <path fill="currentColor" d="M22.75 7a.25.25 0 0 1 .25.25v13.5a.25.25 0 0 1-.25.25H5.25a.25.25 0 0 1-.25-.25V7.25A.25.25 0 0 1 5.25 7h17.5ZM9.56 11.44a1.5 1.5 0 0 0-2.006-.104l-.114.104-1.824 1.823-.12.133a1.75 1.75 0 0 0 0 2.208l.12.133 1.824 1.824A1.5 1.5 0 0 0 9.912 16H12.5l.154-.008A1.5 1.5 0 0 0 12.5 13H9.912a1.498 1.498 0 0 0-.351-1.56Zm11 0A1.5 1.5 0 0 0 18.089 13H15.5l-.153.008A1.5 1.5 0 0 0 15.5 16h2.588a1.498 1.498 0 0 0 2.359 1.664l.114-.104 1.823-1.823.12-.133a1.75 1.75 0 0 0 0-2.208l-.12-.133-1.823-1.823Z" class="icon-blue-secondary"/>
    <path fill="currentColor" d="M19.75 7a.25.25 0 0 1 .25.25v3.837A1.499 1.499 0 0 0 18.088 13H15.5l-.153.008A1.5 1.5 0 0 0 15.5 16h2.588A1.498 1.498 0 0 0 20 17.913v2.837a.25.25 0 0 1-.25.25H8.25a.25.25 0 0 1-.25-.25v-2.838A1.498 1.498 0 0 0 9.912 16H12.5l.154-.008A1.5 1.5 0 0 0 12.5 13H9.912A1.498 1.498 0 0 0 8 11.086V7.25A.25.25 0 0 1 8.25 7h11.5Z" class="icon-blue-primary" opacity=".3"/>
    <path fill="currentColor" d="M15.75 7a.25.25 0 0 1 .25.25V13h-.5l-.153.008A1.5 1.5 0 0 0 15.5 16h.5v4.75a.25.25 0 0 1-.25.25h-3.5a.25.25 0 0 1-.25-.25V16h.5l.154-.008A1.5 1.5 0 0 0 12.5 13H12V7.25a.25.25 0 0 1 .25-.25h3.5Z" class="icon-blue-primary" opacity=".5"/>
    <path stroke="currentColor" d="M24.5 21.5v-15a1 1 0 0 0-1-1h-19a1 1 0 0 0-1 1v15a1 1 0 0 0 1 1h19a1 1 0 0 0 1-1Z" class="icon-blue-primary"/>
    <path fill="currentColor" d="M19.776 16.918a.501.501 0 0 1-.694-.693l.064-.078L20.293 15H15.5a.5.5 0 0 1 0-1h4.793l-1.146-1.146a.5.5 0 0 1 .707-.707l1.823 1.823.052.056a.751.751 0 0 1 0 .948l-.052.056-1.823 1.824-.078.064Zm-10.922-.064a.5.5 0 0 1-.707 0L6.323 15.03l-.051-.056a.75.75 0 0 1 0-.947l.051-.057 1.824-1.823.078-.065a.5.5 0 0 1 .693.693l-.064.079L7.707 14H12.5a.5.5 0 0 1 0 1H7.707l1.147 1.147a.5.5 0 0 1 0 .707Z" class="icon-blue-primary"/>
</svg>
