<svg xmlns="http://www.w3.org/2000/svg" width="28" height="28" viewBox="0 0 28 28" stroke="currentColor" stroke-linecap="round" stroke-linejoin="round" fill="none">
    <path d="M7.5 4.5h-3v3m3 12h-3v-3m12-12h3v3m-15 6v-3m6-6h3" class="icon-stroke-gray-secondary"/>
    <path d="M18.5 22.5h3a1 1 0 0 0 1-1v-3m-4 4v-4m0 4h-5m5-9v5m0 0h-5m5 0h4m0 0v-5" class="icon-stroke-gray-primary"/>
    <path d="M18.5 9.5h3a1 1 0 0 1 1 1v3h-4m0-4h-5m5 0v4m-9 0v-3a1 1 0 0 1 1-1h3m-4 4v5m0-5h4m0-4v4m0 0h5m-5 0v5m0 0v4h-3a1 1 0 0 1-1-1v-3m4 0h-4" class="icon-stroke-blue-primary"/>
</svg>
