<svg xmlns="http://www.w3.org/2000/svg" width="28" height="28" viewBox="0 0 28 28">
    <path d="M12 15v3.5a1.5 1.5 0 0 0 3 0V15h7.75a.25.25 0 0 1 .25.25v5.5a.25.25 0 0 1-.25.25H5.25a.25.25 0 0 1-.25-.25v-5.5a.25.25 0 0 1 .25-.25H12Z" class="icon-fill-blue-secondary" fill="currentColor"/>
    <g class="icon-fill-gray-primary" fill="currentColor">
      <path d="M23.5 5A1.5 1.5 0 0 1 25 6.5v15a1.5 1.5 0 0 1-1.5 1.5h-19A1.5 1.5 0 0 1 3 21.5v-15A1.5 1.5 0 0 1 4.5 5h19Zm-19 1a.5.5 0 0 0-.5.5V13h5.088a1.502 1.502 0 0 0 0 1H4v7.5a.5.5 0 0 0 .5.5h19a.5.5 0 0 0 .5-.5V14h-6.086a1.505 1.505 0 0 0 0-1H24V6.5a.5.5 0 0 0-.5-.5h-19Z"/>
      <path d="M13.026 10.272a.751.751 0 0 1 .948 0l.056.051 2.824 2.824.064.078a.5.5 0 0 1-.693.693l-.079-.064L14 11.707V18.5a.5.5 0 1 1-1 0v-6.793l-2.146 2.147a.5.5 0 0 1-.708-.707l2.824-2.824.056-.051Z"/>
    </g>
</svg>
