<svg xmlns="http://www.w3.org/2000/svg" width="28" height="28" fill="none" viewBox="0 0 28 28">
      <path fill="currentColor" d="M22.75 7a.25.25 0 0 1 .25.25v13.5a.25.25 0 0 1-.25.25H5.25a.25.25 0 0 1-.25-.25V7.25A.25.25 0 0 1 5.25 7h17.5Zm-8.724 1.336c-1.637 0-3.19 1.224-3.19 3.175l.008.153a1.5 1.5 0 0 0 2.54.918 8.312 8.312 0 0 0-.182.255l-.188.293c-.212.35-.511.925-.511 1.586v.534c0 .534.281 1.002.703 1.268a1.832 1.832 0 0 0-1.042 1.652l.01.187a1.833 1.833 0 0 0 1.823 1.646h.008l.046-.001.085-.004.055-.004.171-.025a1.835 1.835 0 0 0 .436-3.45c.422-.266.704-.734.705-1.269v-.425c.015-.031.04-.079.078-.143l.102-.16a8.328 8.328 0 0 1 .462-.597l.221-.277.019-.024.162-.229c.056-.083.113-.174.168-.27l.08-.148c.164-.315.327-.731.37-1.217l.01-.25c0-1.642-1.296-3.082-2.984-3.17l-.165-.004Z" class="icon-blue-secondary"/>
    <path stroke="currentColor" stroke-linejoin="round" d="M23.5 5.5h-19a1 1 0 0 0-1 1v15a1 1 0 0 0 1 1h19a1 1 0 0 0 1-1v-15a1 1 0 0 0-1-1Z" class="icon-blue-primary"/>
    <path fill="currentColor" d="M14.09 17.34a.834.834 0 0 1 0 1.659l-.085.004h-.008a.833.833 0 0 1 0-1.666h.008l.085.004Zm-.064-8.004c1.193 0 2.15 1.008 2.15 2.175 0 .436-.161.823-.33 1.117a3.919 3.919 0 0 1-.262.396l-.22.278a7.523 7.523 0 0 0-.638.862c-.17.28-.223.46-.223.552v.533a.5.5 0 0 1-1 0v-.533c0-.377.176-.754.366-1.068a8.49 8.49 0 0 1 .725-.985l.19-.238a3.19 3.19 0 0 0 .195-.294c.123-.215.197-.427.197-.62 0-.636-.53-1.175-1.15-1.175-.66 0-1.19.451-1.19 1.175a.5.5 0 0 1-1 0c0-1.335 1.039-2.175 2.19-2.175Z" class="icon-blue-primary"/>
</svg>
