<svg xmlns="http://www.w3.org/2000/svg" width="28" height="28" viewBox="0 0 28 28" stroke="currentColor" stroke-linecap="round" stroke-linejoin="round" fill="none">
    <path d="M21.5 13.5v-4a1 1 0 0 0-1-1h-13a1 1 0 0 0-1 1v11a1 1 0 0 0 1 1h6m6-15h-13a2 2 0 0 0-2 2v11" class="icon-stroke-gray-primary"/>
    <path d="M8.5 13.5v-2a1 1 0 0 1 1-1h9a1 1 0 0 1 1 1v2h-11Zm0 0v5a1 1 0 0 0 1 1h4" class="icon-stroke-gray-secondary"/>
    <path d="M19.502 15a4.502 4.502 0 1 1 0 9.004 4.502 4.502 0 0 1 0-9.004Zm-.002 1.879a.5.5 0 0 0-.5.5V19h-1.621a.5.5 0 0 0 0 1H19v1.621a.5.5 0 0 0 1 0V20h1.621l.102-.01a.5.5 0 0 0 0-.98L21.62 19H20v-1.621a.5.5 0 0 0-.5-.5Z" fill="currentColor" stroke="none" class="icon-fill-blue-primary"/>
</svg>
