<svg xmlns="http://www.w3.org/2000/svg" width="28" height="28" viewBox="0 0 28 28" stroke="currentColor" stroke-linecap="round" stroke-linejoin="round" fill="none">
    <path d="M7.5 4.5h-3v3m3 12h-3v-3m12-12h3v3m-15 6v-3m6-6h3" class="icon-stroke-gray-secondary"/>
    <path d="M21.5 14.5v8m-5-8v8m-5-8v8" class="icon-stroke-gray-primary"/>
    <path d="M10 10.5a1.5 1.5 0 1 1 3 0 1.5 1.5 0 0 1-3 0Zm5 0a1.5 1.5 0 1 1 3 0 1.5 1.5 0 0 1-3 0Zm5 0a1.5 1.5 0 1 1 3 0 1.5 1.5 0 0 1-3 0Z" fill="currentColor" stroke="none" class="icon-fill-blue-primary"/>
</svg>
