<svg xmlns="http://www.w3.org/2000/svg" width="28" height="28" fill="none" viewBox="0 0 28 28">
    <path stroke="currentColor" d="M23.5 5.5h-19a1 1 0 0 0-1 1v15a1 1 0 0 0 1 1h19a1 1 0 0 0 1-1v-15a1 1 0 0 0-1-1Z" class="icon-stroke-gray-primary"/>
    <path fill="currentColor" d="M14.843 9.966a1 1 0 0 1 1.224-.707l6.533 1.75a1 1 0 0 1 .707 1.224l-1.75 6.533a1 1 0 0 1-1.226.707l-6.531-1.75a.998.998 0 0 1-.682-.63H11c-.234 0-.458-.042-.667-.116A3 3 0 1 1 9 12.267v-.173a2 2 0 0 1 2-2h3c.272 0 .53.054.767.152l.076-.28Z" class="icon-fill-blue-secondary"/>
    <path fill="currentColor" d="M14.843 9.966a1 1 0 0 1 1.225-.707l6.532 1.75.097.03a1 1 0 0 1 .61 1.194l-1.75 6.532c-.134.5-.625.81-1.125.729l-.1-.021-6.531-1.75-.098-.033a.998.998 0 0 1-.585-.596H11l-.204-.011a1.984 1.984 0 0 1-.465-.107 2.99 2.99 0 0 1-2.177 1.114L8 18.094a3 3 0 0 1-2.996-2.846L5 15.094a3 3 0 0 1 2.846-2.996L8 12.094c.351 0 .687.063 1 .173v-.173a2 2 0 0 1 2-2h3c.271 0 .53.054.767.152l-.263.984a.996.996 0 0 0-.504-.136h-3l-.102.005a1 1 0 0 0-.898.995v3a1 1 0 0 0 1 1h2.201l1.642-6.128Zm-.783 6.79 6.53 1.75 1.75-6.531-6.53-1.75-1.75 6.53ZM8 13.094a2 2 0 0 0 0 4c.598 0 1.133-.265 1.499-.681A1.99 1.99 0 0 1 9 15.093v-1.73a1.99 1.99 0 0 0-1-.27Zm5.075 3.836.005.029-.005-.03Zm-.015-.134c0 .009 0 .018.002.027l-.002-.027Zm.007-.16c0 .01-.003.02-.004.029l.004-.028Z" class="icon-fill-blue-primary"/>
</svg>
