<svg xmlns="http://www.w3.org/2000/svg" width="28" height="28" fill="none" viewBox="0 0 28 28">
  <g fill="currentColor" class="icon-fill-blue-primary">
    <path d="M22.75 7a.25.25 0 0 1 .25.25v13.5a.25.25 0 0 1-.25.25h-2.5a.25.25 0 0 1-.25-.25v-2.837a1.49 1.49 0 0 0 .447-.249l.114-.103 1.823-1.823c.64-.641.68-1.655.12-2.342l-.12-.133-1.823-1.823a1.492 1.492 0 0 0-.56-.353V7.25a.25.25 0 0 1 .25-.25h2.5Zm-15 0a.25.25 0 0 1 .25.25v3.836c-.158.056-.31.139-.446.25l-.114.104-1.823 1.823a1.75 1.75 0 0 0-.12 2.342l.12.132 1.823 1.824c.163.163.356.279.56.351v2.838a.25.25 0 0 1-.25.25h-2.5a.25.25 0 0 1-.25-.25V7.25A.25.25 0 0 1 5.25 7h2.5Z" opacity=".2"/>
    <path d="M18.088 16A1.498 1.498 0 0 0 20 17.913v2.837a.25.25 0 0 1-.25.25h-3.5a.25.25 0 0 1-.25-.25V16h2.088Zm1.662-9a.25.25 0 0 1 .25.25v3.837A1.498 1.498 0 0 0 18.088 13H16V7.25a.25.25 0 0 1 .25-.25h3.5ZM12 20.75a.25.25 0 0 1-.25.25h-3.5a.25.25 0 0 1-.25-.25v-2.838A1.498 1.498 0 0 0 9.912 16H12v4.75ZM11.75 7a.25.25 0 0 1 .25.25V13H9.912A1.498 1.498 0 0 0 8 11.086V7.25A.25.25 0 0 1 8.25 7h3.5Z" opacity=".4"/>
    <path d="M15.75 7a.25.25 0 0 1 .25.25V13h-.5a1.5 1.5 0 0 0 0 3h.5v4.75a.25.25 0 0 1-.25.25h-3.5a.25.25 0 0 1-.25-.25V16h.5a1.5 1.5 0 0 0 0-3H12V7.25a.25.25 0 0 1 .25-.25h3.5Z" opacity=".8"/>
  </g>
    <path stroke="currentColor" stroke-linecap="round" stroke-linejoin="round" d="m8.5 12.5-2 2m0 0 2 2m-2-2h6m3 0h6m0 0-2 2m2-2-2-2m5-6v15a1 1 0 0 1-1 1h-19a1 1 0 0 1-1-1v-15a1 1 0 0 1 1-1h19a1 1 0 0 1 1 1Z" class="icon-stroke-gray-primary"/>
</svg>
