<svg xmlns="http://www.w3.org/2000/svg" width="28" height="28" fill="none" viewBox="0 0 28 28">
    <g fill="currentColor" class="icon-fill-blue-primary">
      <path opacity=".2" d="M11.75 7a.25.25 0 0 1 .25.25v3.629l-2.56 2.56-.067.073-.062.076-.059.08-.057.094a1.5 1.5 0 0 0-.19.627L9 14.5c0 .26.068.515.195.738l.057.094a1 1 0 0 0 .059.08l.062.076a1 1 0 0 0 .067.072L12 18.121v2.629a.25.25 0 0 1-.25.25h-6.5a.25.25 0 0 1-.25-.25V7.25A.25.25 0 0 1 5.25 7z"/>
      <path d="M18 20.75a.25.25 0 0 1-.25.25h-5.5a.25.25 0 0 1-.25-.25v-2.629l.44.44.07.064.078.064.086.064a1.5 1.5 0 0 0 1.787-.102l.1-.09a1.5 1.5 0 0 0 .192-1.887l-.063-.086-.065-.078-.064-.07-.44-.44h3.88zM17.75 7a.25.25 0 0 1 .25.25V13h-3.879l.44-.44a1.5 1.5 0 0 0 0-2.12l-.114-.104a1.5 1.5 0 0 0-1.893 0l-.114.104-.44.439V7.25a.25.25 0 0 1 .25-.25z" opacity=".4"/>
      <path d="M22.75 7a.25.25 0 0 1 .25.25v13.5a.25.25 0 0 1-.25.25h-4.5a.25.25 0 0 1-.25-.25V16h.5a1.5 1.5 0 0 0 1.492-1.347L20 14.5l-.008-.153A1.5 1.5 0 0 0 18.5 13H18V7.25a.25.25 0 0 1 .25-.25z" opacity=".8"/>
    </g>
    <path stroke="currentColor" stroke-linecap="round" stroke-linejoin="round" d="M18.5 14.5h-8m0 0 3-3m-3 3 3 3m11-11v15a1 1 0 0 1-1 1h-19a1 1 0 0 1-1-1v-15a1 1 0 0 1 1-1h19a1 1 0 0 1 1 1" class="icon-stroke-gray-primary"/>
</svg>
