<svg xmlns="http://www.w3.org/2000/svg" width="28" height="28" viewBox="0 0 28 28" stroke="currentColor" stroke-linecap="round" stroke-linejoin="round" fill="none">
    <path d="M7.5 4.5h-3v3m3 12h-3v-3m12-12h3v3m-15 6v-3m6-6h3" class="icon-stroke-gray-secondary"/>
    <path d="M19.5 22V10.004a.5.5 0 0 1 .5-.5h2a.5.5 0 0 1 .5.5V22a.5.5 0 0 1-.5.5h-2a.5.5 0 0 1-.5-.5ZM15 14.5h2a.5.5 0 0 1 .5.5v7a.5.5 0 0 1-.5.5h-2a.5.5 0 0 1-.5-.5v-7a.5.5 0 0 1 .5-.5ZM12.5 19v3a.5.5 0 0 1-.5.5h-2a.5.5 0 0 1-.5-.5v-3a.5.5 0 0 1 .5-.5h2a.5.5 0 0 1 .5.5Z" class="icon-stroke-gray-primary"/>
</svg>
