<svg xmlns="http://www.w3.org/2000/svg" width="28" height="28" viewBox="0 0 28 28" stroke="currentColor" stroke-linecap="round" stroke-linejoin="round" fill="none">
    <path d="M15.5 4.5h-8a1 1 0 0 0-1 1v16.996a1 1 0 0 0 1 1h12a1 1 0 0 0 1-1V9.5m-5-5 5 5m-5-5v4a1 1 0 0 0 1 1h4" class="icon-stroke-gray-primary"/>
    <path d="M8.5 16.5h1.714m0 0h3m-3 0-.428 3m.428-3 .286-2m2.714 2H14.5m-1.286 0-.428 3m.428-3 .286-2m-5 5h1.286m0 0h3m-3 0-.286 2m3.286-2H14.5m-1.714 0-.286 2" class="icon-stroke-blue-primary"/>
</svg>
