<svg xmlns="http://www.w3.org/2000/svg" width="28" height="28" viewBox="0 0 28 28" stroke="currentColor" stroke-linecap="round" stroke-linejoin="round" fill="none">
    <path d="M8.5 13.5v-2a1 1 0 0 1 1-1h10a1 1 0 0 1 1 1v2h-12Zm0 0v5a1 1 0 0 0 1 1h4" class="icon-gray-secondary"/>
    <path d="M22.5 13.5v-4a1 1 0 0 0-1-1h-14a1 1 0 0 0-1 1v11a1 1 0 0 0 1 1h6m7-15h-14a2 2 0 0 0-2 2v11" class="icon-gray-primary"/>
    <path d="M19.502 14.998a4.502 4.502 0 1 1 0 9.004 4.502 4.502 0 0 1 0-9.004ZM19.5 17a.5.5 0 0 0-.5.5V19h-1.5a.5.5 0 0 0 0 1H19v1.5a.5.5 0 0 0 1 0V20h1.5a.5.5 0 0 0 0-1H20v-1.5a.5.5 0 0 0-.5-.5Z" fill="currentColor" stroke="none" class="icon-blue-primary"/>
</svg>
