<svg xmlns="http://www.w3.org/2000/svg" width="28" height="28" fill="none" viewBox="0 0 28 28">
    <path fill="currentColor" d="M14 7H5v14h18V7l-9 7V7Z" class="icon-blue-secondary"/>
    <path fill="currentColor" d="M14 7H5v14h18V11l-9 3V7Z" class="icon-blue-primary" opacity=".3"/>
    <path fill="currentColor" d="M14 7H5v14h18v-7h-9V7Z" class="icon-blue-primary" opacity=".5"/>
    <path stroke="currentColor" d="M23.5 5.5h-19a1 1 0 0 0-1 1v15a1 1 0 0 0 1 1h19a1 1 0 0 0 1-1v-15a1 1 0 0 0-1-1Z" class="icon-blue-primary"/>
</svg>
