<svg xmlns="http://www.w3.org/2000/svg" width="28" height="28" fill="none" viewBox="0 0 28 28">
    <path fill="currentColor" d="M22.75 7a.25.25 0 0 1 .25.25v13.5a.25.25 0 0 1-.25.25h-3.5a.25.25 0 0 1-.25-.25V7.25a.25.25 0 0 1 .25-.25h3.5Z" class="icon-blue-secondary"/>
    <path fill="currentColor" d="M23.653 5.008A1.5 1.5 0 0 1 25 6.5v15a1.5 1.5 0 0 1-1.5 1.5h-19A1.5 1.5 0 0 1 3 21.5v-15A1.5 1.5 0 0 1 4.5 5h19l.153.008ZM4.5 6a.5.5 0 0 0-.5.5v15a.5.5 0 0 0 .5.5H17V6H4.5ZM18 22h5.5a.5.5 0 0 0 .5-.5v-15a.5.5 0 0 0-.4-.49L23.5 6H18v16Z" class="icon-blue-primary"/>
    <path fill="currentColor" d="M9.853 11.146a.5.5 0 0 0-.707 0l-3 3-.062.077a.5.5 0 0 0 0 .554l.062.077 3 3 .078.064a.5.5 0 0 0 .694-.693l-.065-.079L7.707 15H14.5a.5.5 0 0 0 0-1H7.707l2.146-2.146a.5.5 0 0 0 0-.708Z" class="icon-blue-primary"/>
</svg>
