<svg xmlns="http://www.w3.org/2000/svg" width="28" height="28" viewBox="0 0 28 28" stroke="currentColor" stroke-linecap="round" stroke-linejoin="round" fill="none">
    <path d="M14.5 17.5h4m0 0a1 1 0 1 0 2 0 1 1 0 0 0-2 0Zm2 3h-4m0 0a1 1 0 1 1-2 0 1 1 0 0 1 2 0Z" class="icon-stroke-blue-primary"/>
    <path d="m11.222 20.091-1.54 1.114a.5.5 0 0 1-.77-.558l1.525-4.728a.5.5 0 0 0-.181-.558l-4.013-2.929a.5.5 0 0 1 .294-.904l4.968-.011a.5.5 0 0 0 .474-.344l1.546-4.722a.5.5 0 0 1 .95 0l1.546 4.722a.5.5 0 0 0 .474.344l4.968.011a.5.5 0 0 1 .293.904l-1.535 1.121" class="icon-stroke-gray-primary"/>
</svg>
