<svg xmlns="http://www.w3.org/2000/svg" width="28" height="28" fill="none" viewBox="0 0 28 28">
    <g class="icon-fill-blue-secondary" fill="currentColor">
      <path d="M14.062 11.345a.176.176 0 0 1 .057.04c.037.038.052.08.055.116l-.001.004-.062.129a1.72 1.72 0 0 1-.119.178l-.168.212-.184.224c.1-.176.166-.373.188-.584l.008-.153c0-.058.01-.09.016-.105a.077.077 0 0 1 .018-.027c.01-.01.054-.043.156-.043l.036.009Z"/>
      <path d="M22.75 7a.25.25 0 0 1 .25.25v13.5a.25.25 0 0 1-.25.25H5.25a.25.25 0 0 1-.25-.25V7.25A.25.25 0 0 1 5.25 7h17.5Zm-8.724 1.336c-1.637 0-3.19 1.224-3.19 3.175l.008.153a1.5 1.5 0 0 0 2.54.918 8.312 8.312 0 0 0-.182.255l-.188.293c-.212.35-.511.925-.511 1.586v.534c0 .534.281 1.002.703 1.268a1.832 1.832 0 0 0-1.042 1.652l.01.187a1.833 1.833 0 0 0 1.823 1.646h.008l.046-.001.085-.004.055-.004.171-.025a1.835 1.835 0 0 0 .436-3.45c.422-.266.704-.734.705-1.269v-.425c.015-.031.04-.079.078-.143l.102-.16a8.328 8.328 0 0 1 .462-.597l.221-.277.019-.024.162-.229c.056-.083.113-.174.168-.27l.08-.148c.164-.315.327-.731.37-1.217l.01-.25c0-1.642-1.296-3.082-2.984-3.17l-.165-.004Z"/>
    </g>
    <g stroke="currentColor" stroke-linecap="round" stroke-linejoin="round">
      <path stroke-width="1.667" d="M13.997 18.17h.008" class="icon-stroke-gray-primary"/>
      <path d="M12.336 11.512c0-1.03.784-1.675 1.69-1.675.906 0 1.65.773 1.65 1.675 0 .63-.469 1.195-.698 1.47-.515.623-.975 1.264-.975 1.734v.534M4.5 5.5h19a1 1 0 0 1 1 1v15a1 1 0 0 1-1 1h-19a1 1 0 0 1-1-1v-15a1 1 0 0 1 1-1Z" class="icon-stroke-gray-primary"/>
    </g>
</svg>
