<svg xmlns="http://www.w3.org/2000/svg" width="28" height="28" fill="none" viewBox="0 0 28 28">
    <path fill="currentColor" d="M22.75 7a.25.25 0 0 1 .25.25v13.5a.25.25 0 0 1-.25.25h-12.5a.25.25 0 0 1-.25-.25V7.25a.25.25 0 0 1 .25-.25h12.5Zm-6.303 3.336a1.501 1.501 0 0 0-1.893 0l-.114.104-3 3-.067.072-.062.076-.059.08-.057.094a1.5 1.5 0 0 0-.19.627L11 14.5c0 .26.068.515.195.738l.057.094a.915.915 0 0 0 .059.08l.062.076a.77.77 0 0 0 .067.072l3 3 .07.065.078.064.086.064a1.501 1.501 0 0 0 1.787-.102l.1-.09a1.501 1.501 0 0 0 .192-1.887l-.063-.086-.065-.078-.064-.07-.44-.44h4.38a1.5 1.5 0 0 0 1.491-1.347L22 14.5l-.008-.153A1.5 1.5 0 0 0 20.5 13h-4.379l.44-.44a1.5 1.5 0 0 0 0-2.12l-.114-.104Z" class="icon-fill-blue-secondary"/>
    <path stroke="currentColor" stroke-linecap="round" stroke-linejoin="round" d="M8.5 5.5h-4a1 1 0 0 0-1 1v15a1 1 0 0 0 1 1h4m0-17h15a1 1 0 0 1 1 1v15a1 1 0 0 1-1 1h-15m0-17v17m12-8h-8m0 0 3-3m-3 3 3 3" class="icon-stroke-gray-primary"/>
</svg>
