<svg xmlns="http://www.w3.org/2000/svg" width="28" height="28" fill="none" viewBox="0 0 28 28">
    <path stroke="currentColor" d="M23.5 5.5h-19a1 1 0 0 0-1 1v15a1 1 0 0 0 1 1h19a1 1 0 0 0 1-1v-15a1 1 0 0 0-1-1Z" class="icon-blue-primary"/>
    <path fill="currentColor" d="M11 15.094a3 3 0 1 0-6 0 3 3 0 0 0 6 0Z" class="icon-blue-secondary"/>
    <path fill="currentColor" d="M10 15.094a2 2 0 1 0-2 2v1l-.154-.004a3 3 0 0 1-2.842-2.842L5 15.094a3 3 0 0 1 3-3l.154.004A3 3 0 0 1 11 15.094l-.004.154A3 3 0 0 1 8 18.094v-1a2 2 0 0 0 2-2Z" class="icon-blue-primary"/>
    <path fill="currentColor" d="M16 12.094a2 2 0 0 0-2-2h-3a2 2 0 0 0-2 2v3a2 2 0 0 0 2 2h3a2 2 0 0 0 2-2v-3Z" class="icon-blue-secondary"/>
    <path fill="currentColor" d="M14 16.094v1h-3v-1h3Zm1-1v-3a1 1 0 0 0-1-1h-3a1 1 0 0 0-1 1v3a1 1 0 0 0 1 1v1a2 2 0 0 1-2-2v-3a2 2 0 0 1 1.796-1.99l.204-.01h3a2 2 0 0 1 2 2v3a2 2 0 0 1-2 2v-1a1 1 0 0 0 1-1Z" class="icon-blue-primary"/>
    <path fill="currentColor" d="M23.306 12.234a1 1 0 0 0-.707-1.225l-6.531-1.75a1 1 0 0 0-1.225.707l-1.75 6.532a1 1 0 0 0 .707 1.224l6.532 1.75a1 1 0 0 0 1.224-.707l1.75-6.531Z" class="icon-blue-secondary"/>
    <path fill="currentColor" d="M14.843 9.966a1 1 0 0 1 1.224-.707l6.532 1.75a1 1 0 0 1 .708 1.224l-1.75 6.532-.032.098a1 1 0 0 1-1.093.631l-.1-.021-6.532-1.75a1 1 0 0 1-.729-1.125l.022-.1 1.75-6.532Zm-.784 6.79 6.532 1.75 1.75-6.531-6.532-1.75-1.75 6.532Z" class="icon-blue-primary"/>
</svg>
