<svg xmlns="http://www.w3.org/2000/svg" width="24" height="24" fill="none" viewBox="0 0 24 24">
  <path fill="#383838" fill-rule="evenodd" d="M7 5a1 1 0 0 1 1-1h8a1 1 0 0 1 1 1v8.5a1.5 1.5 0 0 1-1.5 1.5H14v3.5a1.5 1.5 0 0 1-1.5 1.5h-1a1.5 1.5 0 0 1-1.5-1.5V15H8.5A1.5 1.5 0 0 1 7 13.5V5Zm5 0H8v6.004h8V5h-1v2.5a.5.5 0 0 1-1 0V5h-1v1.5a.5.5 0 0 1-1 0V5Zm4 7.004H8V13.5a.5.5 0 0 0 .5.5H10a1 1 0 0 1 1 1v3.5a.5.5 0 0 0 .5.5h1a.5.5 0 0 0 .5-.5V15a1 1 0 0 1 1-1h1.5a.5.5 0 0 0 .5-.5v-1.496Z" clip-rule="evenodd"/>
</svg>
