<svg xmlns="http://www.w3.org/2000/svg" width="24" height="24" fill="none" viewBox="0 0 24 24">
  <path fill="#383838" fill-rule="evenodd" d="M11.486 5.386a.6.6 0 0 1 1.028 0l2.824 4.705a.6.6 0 0 1-.515.909H9.177a.6.6 0 0 1-.515-.909l2.823-4.705ZM9.883 10h4.234L12 6.472 9.883 10Zm-1.881 4a1.998 1.998 0 1 0 0 3.996 1.998 1.998 0 0 0 0-3.996Zm-2.998 1.998a2.998 2.998 0 1 1 5.996 0 2.998 2.998 0 0 1-5.996 0ZM13 14.004a1 1 0 0 1 1-1h4a1 1 0 0 1 1 1V18a1 1 0 0 1-1 1h-4a1 1 0 0 1-1-1v-3.996Zm5 0h-4V18h4v-3.996Z" clip-rule="evenodd"/>
</svg>
