<svg xmlns="http://www.w3.org/2000/svg" width="24" height="24" fill="none" viewBox="0 0 24 24">
  <path fill="#383838" fill-rule="evenodd" d="M10 6.5a.5.5 0 0 1 .5-.5h3a.5.5 0 0 1 .5.5V8h-4V6.5ZM9 8V6.5A1.5 1.5 0 0 1 10.5 5h3A1.5 1.5 0 0 1 15 6.5V8h2.5a.5.5 0 0 1 0 1H17v8.5a1.5 1.5 0 0 1-1.5 1.5h-7A1.5 1.5 0 0 1 7 17.5V9h-.5a.5.5 0 0 1 0-1H9Zm5.5 1H8v8.5a.5.5 0 0 0 .5.5h7a.5.5 0 0 0 .5-.5V9h-1.5Zm-1 2a.5.5 0 0 1 .5.5v4a.5.5 0 0 1-1 0v-4a.5.5 0 0 1 .5-.5Zm-2.5.5a.5.5 0 0 0-1 0v4a.5.5 0 0 0 1 0v-4Z" clip-rule="evenodd"/>
</svg>
