<svg xmlns="http://www.w3.org/2000/svg" width="24" height="24" fill="none" viewBox="0 0 24 24">
  <path fill="#383838" fill-rule="evenodd" d="M5 7.5a.5.5 0 0 1 .5-.5h6a.5.5 0 0 1 .5.5V9h4.5a.5.5 0 0 1 .5.5v.5H7.254a1.5 1.5 0 0 0-1.442 1.088L5 13.93V7.5Zm.826 9.5h11.42a.5.5 0 0 0 .48-.363l1.429-5a.5.5 0 0 0-.48-.637H7.253a.5.5 0 0 0-.48.363l-1.429 5a.5.5 0 0 0 .48.637ZM18 10v-.5A1.5 1.5 0 0 0 16.5 8H13v-.5A1.5 1.5 0 0 0 11.5 6h-6A1.5 1.5 0 0 0 4 7.5v9A1.5 1.5 0 0 0 5.5 18h11.746a1.5 1.5 0 0 0 1.442-1.088l1.429-5A1.5 1.5 0 0 0 18.674 10H18Z" clip-rule="evenodd"/>
</svg>
