<svg xmlns="http://www.w3.org/2000/svg" width="24" height="24" fill="none" viewBox="0 0 24 24">
  <path fill="#383838" fill-rule="evenodd" d="M8.5 5a.5.5 0 0 1 .5.5V6h6v-.5a.5.5 0 0 1 1 0V6h1.5A1.5 1.5 0 0 1 19 7.5v10a1.5 1.5 0 0 1-1.5 1.5h-11A1.5 1.5 0 0 1 5 17.5v-10A1.5 1.5 0 0 1 6.5 6H8v-.5a.5.5 0 0 1 .5-.5ZM6 11v6.5a.5.5 0 0 0 .5.5h11a.5.5 0 0 0 .5-.5V11H6Zm12-1H6V7.5a.5.5 0 0 1 .5-.5H8v.5a.5.5 0 0 0 1 0V7h6v.5a.5.5 0 0 0 1 0V7h1.5a.5.5 0 0 1 .5.5V10Z" clip-rule="evenodd"/>
  <path fill="#446ECA" fill-rule="evenodd" d="M8 13.5a.5.5 0 0 1 .5-.5h7a.5.5 0 0 1 0 1h-7a.5.5 0 0 1-.5-.5Zm0 2a.5.5 0 0 1 .5-.5h5a.5.5 0 0 1 0 1h-5a.5.5 0 0 1-.5-.5Z" clip-rule="evenodd"/>
</svg>
