<svg xmlns="http://www.w3.org/2000/svg" width="24" height="24" fill="none" viewBox="0 0 24 24">
  <path fill="#383838" fill-rule="evenodd" d="M15 6.92a.92.92 0 0 1 .92-.92h.58A1.5 1.5 0 0 1 18 7.5v9a1.5 1.5 0 0 1-1.5 1.5h-.58a.92.92 0 0 1-.92-.92.338.338 0 0 0-.22-.316l-2.997-1.124-.567 1.417A1.5 1.5 0 0 1 9.823 18H9.5A1.5 1.5 0 0 1 8 16.5v-2.278l-.027-.01a1.498 1.498 0 0 1-.391-.219A.503.503 0 0 1 7.5 14H6a2 2 0 1 1 0-4h1.5c.028 0 .055.002.082.007.117-.09.248-.165.391-.218l6.808-2.553A.338.338 0 0 0 15 6.919Zm-6 7.677V16.5a.5.5 0 0 0 .5.5h.323a.5.5 0 0 0 .464-.314l.559-1.397L9 14.597Zm2.674-.066.003.001 3.455 1.296c.497.186.834.647.866 1.172h.502a.5.5 0 0 0 .5-.5v-9a.5.5 0 0 0-.5-.5h-.502a1.338 1.338 0 0 1-.866 1.172l-6.808 2.553a.5.5 0 0 0-.324.468v1.614a.5.5 0 0 0 .324.468l3.35 1.256ZM7 11v2H6a1 1 0 1 1 0-2h1Z" clip-rule="evenodd"/>
</svg>
