<svg xmlns="http://www.w3.org/2000/svg" width="24" height="24" fill="none" viewBox="0 0 24 24">
  <path fill="#383838" fill-rule="evenodd" d="M6.097 8.204c2.87-3.914 8.501-4.315 11.903-1V5.5a.5.5 0 0 1 1 0v3a.5.5 0 0 1-.5.5h-3a.5.5 0 0 1 0-1h1.883c-2.963-2.98-7.95-2.655-10.48.796a.5.5 0 0 1-.806-.592Zm12.806 8.592c-2.87 3.914-8.501 4.315-11.903 1V19.5a.5.5 0 1 1-1 0v-3a.5.5 0 0 1 .5-.5h3a.5.5 0 0 1 0 1H7.617c2.963 2.98 7.95 2.655 10.48-.796a.5.5 0 1 1 .806.592Z" clip-rule="evenodd"/>
  <path fill="#446ECA" fill-rule="evenodd" d="M5.5 11a.5.5 0 0 0-.5.5v2a.5.5 0 0 0 .5.5h2a.5.5 0 0 0 .5-.5v-2a.5.5 0 0 0-.5-.5h-2Zm.5 2v-1h1v1H6Zm11.5-2a.5.5 0 0 0-.5.5v2a.5.5 0 0 0 .5.5h2a.5.5 0 0 0 .5-.5v-2a.5.5 0 0 0-.5-.5h-2Zm.5 2v-1h1v1h-1Z" clip-rule="evenodd"/>
</svg>
