<svg xmlns="http://www.w3.org/2000/svg" width="24" height="24" fill="none" viewBox="0 0 24 24">
  <path fill="#383838" fill-rule="evenodd" d="M10.5 6a.5.5 0 0 1 .47.33l2.909 8 1.09 3a.5.5 0 0 1-.939.34L13.06 15H7.94l-.971 2.67a.5.5 0 1 1-.94-.34l1.091-3 2.91-8A.5.5 0 0 1 10.5 6Zm-2.195 8h4.39L10.5 7.963 8.305 14Z" clip-rule="evenodd"/>
  <path fill="#446ECA" fill-rule="evenodd" d="M17.691 5.038A.5.5 0 0 1 18 5.5v5a.5.5 0 1 1-1 0V6.707l-1.146 1.147a.5.5 0 0 1-.708-.708l2-2a.5.5 0 0 1 .545-.108Z" clip-rule="evenodd"/>
</svg>
