<svg xmlns="http://www.w3.org/2000/svg" width="24" height="24" fill="none" viewBox="0 0 24 24">
  <path fill="#383838" fill-rule="evenodd" d="M11.854 4.146a.5.5 0 0 1 0 .708l-1.586 1.585a1.5 1.5 0 0 0 0 2.122l.085.085 5 5 .086.086a1.5 1.5 0 0 0 2.122 0l1.585-1.586a.5.5 0 0 1 .707.708l-1.585 1.585a2.5 2.5 0 0 1-3.248.248l-1.96 1.96a1.5 1.5 0 0 1-2.058.058l-1.46 1.46a1 1 0 0 1-.902.273l-3.822-.764a1 1 0 0 1-.51-1.688l2.987-2.988a1.5 1.5 0 0 1 .059-2.059l1.959-1.96a2.5 2.5 0 0 1 .248-3.247l1.585-1.586a.5.5 0 0 1 .707 0ZM10 9.707l-1.94 1.94a.5.5 0 0 0 0 .707l.294.292 3 3 .292.293a.5.5 0 0 0 .707 0L14.293 14 10 9.707Zm-2 4-2.986 2.986 3.822.764L10.293 16 8 13.707Z" clip-rule="evenodd"/>
</svg>
