<svg xmlns="http://www.w3.org/2000/svg" width="24" height="24" fill="none" viewBox="0 0 24 24">
  <path fill="#383838" fill-rule="evenodd" d="M12 5.5a.5.5 0 0 0-1 0V7H9.5A1.5 1.5 0 0 0 8 8.5v1A1.5 1.5 0 0 0 9.5 11H11v2H6.5A1.5 1.5 0 0 0 5 14.5v1A1.5 1.5 0 0 0 6.5 17H11v1.5a.5.5 0 0 0 1 0V17h4.5a1.5 1.5 0 0 0 1.5-1.5v-1a1.5 1.5 0 0 0-1.5-1.5H12v-2h1.5A1.5 1.5 0 0 0 15 9.5v-1A1.5 1.5 0 0 0 13.5 7H12V5.5ZM11.5 16h5a.5.5 0 0 0 .5-.5v-1a.5.5 0 0 0-.5-.5h-10a.5.5 0 0 0-.5.5v1a.5.5 0 0 0 .5.5h5Zm0-6h2a.5.5 0 0 0 .5-.5v-1a.5.5 0 0 0-.5-.5h-4a.5.5 0 0 0-.5.5v1a.5.5 0 0 0 .5.5h2Z" clip-rule="evenodd"/>
</svg>
