<svg xmlns="http://www.w3.org/2000/svg" width="24" height="24" fill="none" viewBox="0 0 24 24">
  <path fill="#383838" fill-rule="evenodd" d="M8.5 6a.5.5 0 0 1 .47.33l2.909 8 1.09 3a.5.5 0 0 1-.939.34L11.06 15H5.94l-.971 2.67a.5.5 0 1 1-.94-.34l1.091-3 2.91-8A.5.5 0 0 1 8.5 6Zm-2.195 8h4.39L8.5 7.963 6.305 14Z" clip-rule="evenodd"/>
  <path fill="#446ECA" fill-rule="evenodd" d="M17 10.5a.5.5 0 0 1 .467.32l1.73 4.5.77 2a.5.5 0 1 1-.934.36L18.387 16h-2.774l-.646 1.68a.5.5 0 0 1-.934-.36l.77-2 1.73-4.5A.5.5 0 0 1 17 10.5ZM15.997 15h2.006L17 12.393 15.997 15Z" clip-rule="evenodd"/>
</svg>
