<svg xmlns="http://www.w3.org/2000/svg" width="24" height="24" fill="none" viewBox="0 0 24 24">
  <path fill="#383838" fill-rule="evenodd" d="M10 5.5a.5.5 0 0 1 .5-.5H14v2.4a.6.6 0 0 0 .6.6H17v7.5a.5.5 0 0 1-.5.5h-6a.5.5 0 0 1-.5-.5v-10ZM16.293 7 15 5.707V7h1.293ZM10.5 4A1.5 1.5 0 0 0 9 5.5v10a1.5 1.5 0 0 0 1.5 1.5h6a1.5 1.5 0 0 0 1.5-1.5v-8a.5.5 0 0 0-.146-.354l-3-3A.5.5 0 0 0 14.5 4h-4Zm-3 2A1.5 1.5 0 0 0 6 7.5v11A1.5 1.5 0 0 0 7.5 20h6a1.5 1.5 0 0 0 1.5-1.5.5.5 0 0 0-1 0 .5.5 0 0 1-.5.5h-6a.5.5 0 0 1-.5-.5v-11a.5.5 0 0 1 .5-.5.5.5 0 0 0 0-1Z" clip-rule="evenodd"/>
</svg>
