<svg xmlns="http://www.w3.org/2000/svg" width="24" height="24" fill="none" viewBox="0 0 24 24">
  <path fill="#383838" fill-rule="evenodd" d="M5.5 5a.5.5 0 0 0 0 1h13a.5.5 0 0 0 0-1h-13ZM7 9.5A1.5 1.5 0 0 1 8.5 8h1A1.5 1.5 0 0 1 11 9.5v8A1.5 1.5 0 0 1 9.5 19h-1A1.5 1.5 0 0 1 7 17.5v-8ZM8.5 9a.5.5 0 0 0-.5.5v8a.5.5 0 0 0 .5.5h1a.5.5 0 0 0 .5-.5v-8a.5.5 0 0 0-.5-.5h-1Zm4.5.5A1.5 1.5 0 0 1 14.5 8h1A1.5 1.5 0 0 1 17 9.5v3a1.5 1.5 0 0 1-1.5 1.5h-1a1.5 1.5 0 0 1-1.5-1.5v-3Zm1.5-.5a.5.5 0 0 0-.5.5v3a.5.5 0 0 0 .5.5h1a.5.5 0 0 0 .5-.5v-3a.5.5 0 0 0-.5-.5h-1Z" clip-rule="evenodd"/>
</svg>
