<svg xmlns="http://www.w3.org/2000/svg" width="24" height="24" fill="none" viewBox="0 0 24 24">
  <path fill="#383838" fill-rule="evenodd" d="M4 8.5A1.5 1.5 0 0 1 5.5 7h13A1.5 1.5 0 0 1 20 8.5v7a1.5 1.5 0 0 1-1.5 1.5h-13A1.5 1.5 0 0 1 4 15.5v-7ZM5.5 8a.5.5 0 0 0-.5.5v7a.5.5 0 0 0 .5.5h13a.5.5 0 0 0 .5-.5v-7a.5.5 0 0 0-.5-.5h-13Z" clip-rule="evenodd"/>
  <path fill="#446ECA" fill-rule="evenodd" d="M6 9.5a.5.5 0 0 1 .5-.5h2a.5.5 0 0 1 0 1H8v4h.5a.5.5 0 0 1 0 1h-2a.5.5 0 0 1 0-1H7v-4h-.5a.5.5 0 0 1-.5-.5Z" clip-rule="evenodd"/>
</svg>
