<svg xmlns="http://www.w3.org/2000/svg" width="24" height="24" fill="none" viewBox="0 0 24 24">
  <path fill="#383838" fill-rule="evenodd" d="M14.44 4.854a1.5 1.5 0 0 1 2.12 0l1.586 1.585a1.5 1.5 0 0 1 0 2.122l-2.292 2.293-7 7A.5.5 0 0 1 8.5 18h-3a.5.5 0 0 1-.5-.5v-3a.5.5 0 0 1 .146-.354l7-7 2.293-2.292Zm1.414.707a.5.5 0 0 0-.708 0L13.207 7.5 15.5 9.793l1.94-1.94a.5.5 0 0 0 0-.707l-1.586-1.585ZM14.793 10.5 12.5 8.207l-6.5 6.5V17h2.293l6.5-6.5Zm4.207 7a.5.5 0 0 1-.5.5h-6a.5.5 0 0 1 0-1h6a.5.5 0 0 1 .5.5Z" clip-rule="evenodd"/>
</svg>
