<svg xmlns="http://www.w3.org/2000/svg" width="24" height="24" fill="none" viewBox="0 0 24 24">
  <path fill="#383838" fill-rule="evenodd" d="M11.816 11.65a1.5 1.5 0 0 1 1.236-.65h.448a.5.5 0 0 0 0-1h-.448a2.5 2.5 0 0 0-2.06 1.084l-1.591 2.314-1.39-2.223A2.5 2.5 0 0 0 5.891 10H5.5a.5.5 0 0 0 0 1h.391a1.5 1.5 0 0 1 1.272.705l1.62 2.591-2.128 3.097c-.262.38-.694.607-1.155.607a.5.5 0 0 0 0 1 2.4 2.4 0 0 0 1.979-1.04l1.881-2.74 1.627 2.604A2.5 2.5 0 0 0 13.108 19h.392a.5.5 0 0 0 0-1h-.392a1.5 1.5 0 0 1-1.272-.705L9.98 14.323l1.837-2.673Z" clip-rule="evenodd"/>
  <path fill="#446ECA" fill-rule="evenodd" d="M15 7a2 2 0 0 1 2-2h.138a1.862 1.862 0 0 1 1.192 3.293L16.281 10H18.5a.5.5 0 0 1 0 1h-2.66a.84.84 0 0 1-.538-1.486l2.388-1.99A.862.862 0 0 0 17.138 6H17a1 1 0 0 0-1 1 .5.5 0 0 1-1 0Z" clip-rule="evenodd"/>
</svg>
