<svg xmlns="http://www.w3.org/2000/svg" width="24" height="24" fill="none" viewBox="0 0 24 24">
  <path fill="#383838" fill-rule="evenodd" d="M5.5 7a.5.5 0 0 0-.5.5v9a.5.5 0 0 0 .5.5H11v-1a.5.5 0 0 1 1 0v1h5.5a.5.5 0 0 0 .5-.5v-9a.5.5 0 0 0-.5-.5H12v1a.5.5 0 0 1-1 0V7H5.5ZM4 7.5A1.5 1.5 0 0 1 5.5 6h12A1.5 1.5 0 0 1 19 7.5v9a1.5 1.5 0 0 1-1.5 1.5h-12A1.5 1.5 0 0 1 4 16.5v-9Z" clip-rule="evenodd"/>
  <path fill="#446ECA" fill-rule="evenodd" d="M5 8h13v1H5V8Zm13 8H5v-1h13v1Z" clip-rule="evenodd"/>
</svg>
