<svg xmlns="http://www.w3.org/2000/svg" width="24" height="24" fill="none" viewBox="0 0 24 24">
  <path fill="#383838" fill-rule="evenodd" d="M6.504 6.004a.5.5 0 0 0-.5.5v11a.5.5 0 0 0 .5.5h1.498v-4.5a1.5 1.5 0 0 1 1.5-1.5H11.5a.5.5 0 1 1 0 1H9.502a.5.5 0 0 0-.5.5v4.5H10.5a.5.5 0 0 1 0 1H6.504a1.5 1.5 0 0 1-1.5-1.5v-11a1.5 1.5 0 0 1 1.5-1.5h8.582a1.5 1.5 0 0 1 1.06.438l2.417 2.413a1.5 1.5 0 0 1 .44 1.061v1.588a.5.5 0 0 1-1 0V8.916a.5.5 0 0 0-.146-.353L15.44 6.15a.5.5 0 0 0-.354-.146h-1.082v1.498a1.5 1.5 0 0 1-1.5 1.5H9.503a1.5 1.5 0 0 1-1.5-1.5V6.004H6.504Zm2.498 0v1.498a.5.5 0 0 0 .5.5h3.002a.5.5 0 0 0 .5-.5V6.004H9.003Z" clip-rule="evenodd"/>
  <path fill="#446ECA" fill-rule="evenodd" d="M16 13a3 3 0 0 0-1.187 5.756.5.5 0 1 1-.397.918A4.003 4.003 0 0 1 12 16a4 4 0 1 1 6.646 3h.854a.5.5 0 0 1 0 1h-1.75a.75.75 0 0 1-.75-.75V17.5a.5.5 0 0 1 1 0v.736A3 3 0 0 0 16 13Z" clip-rule="evenodd"/>
</svg>
