<svg xmlns="http://www.w3.org/2000/svg" width="24" height="24" fill="none" viewBox="0 0 24 24">
  <path fill="#383838" fill-rule="evenodd" d="M6.5 5A1.5 1.5 0 0 0 5 6.5v11A1.5 1.5 0 0 0 6.5 19h11a1.5 1.5 0 0 0 1.5-1.5v-2a1.5 1.5 0 0 0-1.5-1.5h-3.793l3.44-3.44a1.5 1.5 0 0 0 0-2.12L15.56 6.853a1.5 1.5 0 0 0-2.122 0L10 10.293V6.5A1.5 1.5 0 0 0 8.5 5h-2Zm3.483 12.724L12 15.707V18H9.915c.031-.089.054-.181.068-.276Zm6.456-7.87L10 16.293v-4.586l4.146-4.146a.5.5 0 0 1 .708 0l1.585 1.585a.5.5 0 0 1 0 .708ZM9 12v5.5a.5.5 0 0 1-.5.5h-2a.5.5 0 0 1-.5-.5V12h3ZM6 6.5a.5.5 0 0 1 .5-.5h2a.5.5 0 0 1 .5.5V8H6V6.5ZM6 9h3v2H6V9Zm7 9v-3h2v3h-2Zm3 0v-3h1.5a.5.5 0 0 1 .5.5v2a.5.5 0 0 1-.5.5H16Zm-8.496-2.336a.833.833 0 0 0 0 1.666h.008a.833.833 0 1 0 0-1.666h-.008Z" clip-rule="evenodd"/>
</svg>
