<svg xmlns="http://www.w3.org/2000/svg" width="24" height="24" fill="none" viewBox="0 0 24 24">
  <path fill="#383838" fill-rule="evenodd" d="M7 6.5A1.5 1.5 0 0 1 8.5 5h1A1.5 1.5 0 0 1 11 6.5V11h2V9.5A1.5 1.5 0 0 1 14.5 8h1A1.5 1.5 0 0 1 17 9.5V11h1.5a.5.5 0 0 1 0 1H17v1.5a1.5 1.5 0 0 1-1.5 1.5h-1a1.5 1.5 0 0 1-1.5-1.5V12h-2v4.5A1.5 1.5 0 0 1 9.5 18h-1A1.5 1.5 0 0 1 7 16.5V12H5.5a.5.5 0 0 1 0-1H7V6.5Zm1 5v5a.5.5 0 0 0 .5.5h1a.5.5 0 0 0 .5-.5v-10a.5.5 0 0 0-.5-.5h-1a.5.5 0 0 0-.5.5v5Zm6 0v2a.5.5 0 0 0 .5.5h1a.5.5 0 0 0 .5-.5v-4a.5.5 0 0 0-.5-.5h-1a.5.5 0 0 0-.5.5v2Z" clip-rule="evenodd"/>
</svg>
