<svg xmlns="http://www.w3.org/2000/svg" width="24" height="24" fill="none" viewBox="0 0 24 24">
  <path fill="#383838" fill-rule="evenodd" d="M6.504 6.004a.5.5 0 0 0-.5.5v11a.5.5 0 0 0 .5.5h1.498v-4.5a1.5 1.5 0 0 1 1.5-1.5H14.5a1.5 1.5 0 0 1 1.5 1.5v4.5h1.504a.5.5 0 0 0 .5-.5V8.916a.5.5 0 0 0-.147-.353L15.44 6.15a.5.5 0 0 0-.354-.146h-1.082v1.498a1.5 1.5 0 0 1-1.5 1.5H9.503a1.5 1.5 0 0 1-1.5-1.5V6.004H6.504Zm2.498 0v1.498a.5.5 0 0 0 .5.5h3.002a.5.5 0 0 0 .5-.5V6.004H9.003Zm5.998 12v-4.5a.5.5 0 0 0-.5-.5H9.502a.5.5 0 0 0-.5.5v4.5H15Zm-9.996-11.5a1.5 1.5 0 0 1 1.5-1.5h8.582a1.5 1.5 0 0 1 1.06.438l2.417 2.413a1.5 1.5 0 0 1 .44 1.061v8.588a1.5 1.5 0 0 1-1.5 1.5H6.505a1.5 1.5 0 0 1-1.5-1.5v-11Z" clip-rule="evenodd"/>
</svg>
