<svg xmlns="http://www.w3.org/2000/svg" width="24" height="24" fill="none" viewBox="0 0 24 24">
  <path fill="#383838" fill-rule="evenodd" d="M6.5 6a.5.5 0 0 0-.5.5V9h3V6H6.5ZM10 6v3h3V6h-3Zm4 0v3h2.5a.5.5 0 0 0 .5-.5v-2a.5.5 0 0 0-.5-.5H14Zm-4 4h6.5A1.5 1.5 0 0 0 18 8.5v-2A1.5 1.5 0 0 0 16.5 5h-10A1.5 1.5 0 0 0 5 6.5v10A1.5 1.5 0 0 0 6.5 18h2a1.5 1.5 0 0 0 1.5-1.5V10Zm-1 0H6v3h3v-3Zm0 4H6v2.5a.5.5 0 0 0 .5.5h2a.5.5 0 0 0 .5-.5V14Z" clip-rule="evenodd"/>
  <path fill="#EF4444" fill-rule="evenodd" d="M12.004 15.502a3.498 3.498 0 1 1 6.996 0 3.498 3.498 0 0 1-6.996 0Zm3.498-4.498a4.498 4.498 0 1 0 0 8.996 4.498 4.498 0 0 0 0-8.996Zm-1.148 2.642a.5.5 0 0 0-.708.708l1.147 1.146-1.146 1.146a.5.5 0 0 0 .707.708l1.146-1.147 1.146 1.147a.5.5 0 0 0 .708-.708L16.207 15.5l1.147-1.146a.5.5 0 0 0-.708-.708L15.5 14.793l-1.146-1.147Z" clip-rule="evenodd"/>
</svg>
