<svg xmlns="http://www.w3.org/2000/svg" width="24" height="24" viewBox="0 0 24 24"  stroke="currentColor" stroke-linecap="round" stroke-linejoin="round" fill="none">
    <path d="M15.5 7.5a1 1 0 0 1 1 1V13h-2a1.5 1.5 0 0 0-1.5 1.5v2H8.5a1 1 0 0 1-1-1V11h2A1.5 1.5 0 0 0 11 9.5v-2h4.5Z" fill="currentColor" stroke="none" class="icon-fill-blue-secondary"/>
    <path d="M10.5 7.5h5a1 1 0 0 1 1 1v5m-3 3h-5a1 1 0 0 1-1-1v-5" class="icon-stroke-blue-primary"/>
    <path d="M4.5 9.5V5.504a1 1 0 0 1 1-1h4a1 1 0 0 1 1 1V9.5a1 1 0 0 1-1 1h-4a1 1 0 0 1-1-1Zm9 9v-3.996a1 1 0 0 1 1-1h4a1 1 0 0 1 1 1V18.5a1 1 0 0 1-1 1h-4a1 1 0 0 1-1-1Z" class="icon-stroke-gray-secondary"/>
</svg>
