<svg xmlns="http://www.w3.org/2000/svg" width="24" height="24" viewBox="0 0 24 24" stroke="currentColor" stroke-linecap="round" stroke-linejoin="round" fill="none">
    <path d="M14.5 9.5a5 5 0 0 1-5 5m5-5a5 5 0 1 0-5 5m5-5a5 5 0 0 0-5 5m5-5a5 5 0 1 1-5 5" class="icon-stroke-gray-secondary"/>
    <path d="M14.5 9.5a5 5 0 0 1-5 5 5 5 0 0 1 5-5Z" fill="currentColor" stroke="none" opacity=".5" class="icon-fill-gray-secondary"/>
    <path d="M14.5 9.5a5 5 0 0 1-5 5 5 5 0 0 1 5-5Z" class="icon-stroke-gray-primary"/>
</svg>
