<svg xmlns="http://www.w3.org/2000/svg" width="24" height="24" viewBox="0 0 24 24"  stroke="currentColor" stroke-linecap="round" stroke-linejoin="round" fill="none">
    <path d="M4.5 9.5V5.504a1 1 0 0 1 1-1h4a1 1 0 0 1 1 1V9.5a1 1 0 0 1-1 1h-4a1 1 0 0 1-1-1Zm9 9v-3.996a1 1 0 0 1 1-1h4a1 1 0 0 1 1 1V18.5a1 1 0 0 1-1 1h-4a1 1 0 0 1-1-1Z" class="icon-stroke-gray-secondary"/>
    <path d="M16.5 8.5v7a1 1 0 0 1-1 1h-7a1 1 0 0 1-1-1v-7a1 1 0 0 1 1-1h7a1 1 0 0 1 1 1Z" fill="currentColor" stroke="none" class="icon-fill-blue-secondary"/>
    <path d="M16.5 8.5v7a1 1 0 0 1-1 1h-7a1 1 0 0 1-1-1v-7a1 1 0 0 1 1-1h7a1 1 0 0 1 1 1Z" class="icon-stroke-blue-primary"/>
</svg>
