<svg xmlns="http://www.w3.org/2000/svg" width="24" height="24" fill="none" viewBox="0 0 24 24">
  <path fill="#383838" fill-rule="evenodd" d="M5 14.5a3.5 3.5 0 0 1 5.833-2.609A4.479 4.479 0 0 0 10 14.5c0 .973.309 1.873.833 2.609A3.5 3.5 0 0 1 5 14.5Zm6.5 3.354a4.5 4.5 0 1 1 0-6.708 4.5 4.5 0 1 1 0 6.708Zm.667-5.963a3.5 3.5 0 1 1 0 5.218A4.479 4.479 0 0 0 13 14.5c0-.973-.309-1.873-.833-2.609Zm-.667.805c.317.527.5 1.144.5 1.804 0 .66-.183 1.277-.5 1.804A3.484 3.484 0 0 1 11 14.5c0-.66.183-1.277.5-1.804Z" clip-rule="evenodd"/>
  <path fill="#446ECA" fill-rule="evenodd" d="M11.5 6.002a3.5 3.5 0 1 0 0 7 3.5 3.5 0 0 0 0-7ZM7 9.502a4.5 4.5 0 1 1 9 0 4.5 4.5 0 0 1-9 0Z" clip-rule="evenodd"/>
</svg>
