<svg width="60" height="60" viewBox="0 0 60 60" fill="none" xmlns="http://www.w3.org/2000/svg">
<mask id="mask0_696_1410" style="mask-type:alpha" maskUnits="userSpaceOnUse" x="0" y="0" width="60" height="60">
<rect width="60" height="60" fill="#D9D9D9"/>
</mask>
<g mask="url(#mask0_696_1410)">
<path d="M20 42L28.3814 29.4671L20.6898 18H23.2642L29.9384 28.0621H29.9845L36.7629 18H39.3488L31.5299 29.4671L40 42H37.4141L29.9845 30.9283H29.9384L22.5859 42H20Z" fill="#1C1B1F"/>
<path d="M42 46.0001L42.0001 41.615C42.0001 41.151 42.1534 40.7658 42.4601 40.4595C42.7664 40.1532 43.1516 40 43.6156 40H46L45.9999 38H41.9999L42 36H46.3845C46.8485 36 47.2338 36.1532 47.5405 36.4595C47.8468 36.7658 48 37.1512 48 37.6155V40.385C48 40.849 47.8468 41.2342 47.5405 41.5405C47.2338 41.8468 46.8485 42 46.3845 42H43.9999V44H47.9999L48 46.0001H42Z" fill="#5C89FF"/>
</g>
</svg>
