<svg xmlns="http://www.w3.org/2000/svg" width="24" height="24" fill="none" viewBox="0 0 24 24">
  <path fill="#383838" fill-rule="evenodd" d="M8 9a2 2 0 1 1 4 0 2 2 0 0 1-4 0Zm2-3a3 3 0 1 0 0 6 3 3 0 0 0 0-6Zm-1.5 7A3.5 3.5 0 0 0 5 16.5v1a.5.5 0 0 0 .5.5h9a.5.5 0 0 0 .5-.5v-1a3.5 3.5 0 0 0-3.5-3.5h-3ZM6 16.5A2.5 2.5 0 0 1 8.5 14h3a2.5 2.5 0 0 1 2.5 2.5v.5H6v-.5Zm8.5-3a.5.5 0 0 1 .5-.5h.5a3.5 3.5 0 0 1 3.5 3.5v1a.5.5 0 0 1-.5.5H16a.5.5 0 0 1 0-1h2v-.5a2.5 2.5 0 0 0-2.5-2.5H15a.5.5 0 0 1-.5-.5ZM14 6a.5.5 0 0 0 0 1 2 2 0 1 1 0 4 .5.5 0 0 0 0 1 3 3 0 1 0 0-6Z" clip-rule="evenodd"/>
</svg>
