<svg xmlns="http://www.w3.org/2000/svg" width="24" height="24" viewBox="0 0 24 24"  stroke="currentColor" stroke-linecap="round" stroke-linejoin="round" fill="none">
    <path d="M7.5 15.502v-2.848a.15.15 0 0 1 .15-.15l5.85-.004m-6 3.002v1.997a1 1 0 0 0 1.001 1l2.999-.003m-4-2.994h-2a1 1 0 0 1-1-1V9.5a1 1 0 0 1 1-1h2m9 0h2a1 1 0 0 1 1 1v2m-3-3v-2a1 1 0 0 0-1-1h-7a1 1 0 0 0-1 1v2m9 0h-9" class="icon-stroke-gray-primary"/>
    <path d="M17.498 13a4.498 4.498 0 1 1 0 8.996 4.498 4.498 0 0 1 0-8.996Zm2.322 3.116a.5.5 0 0 0-.631-.007l-.073.07-2.096 2.515L15.9 17.2l-.069-.075a.5.5 0 0 0-.783.588l.052.087 1.31 1.747.058.068a.75.75 0 0 0 1.119-.038l2.297-2.757.056-.084a.5.5 0 0 0-.12-.62Z" fill="currentColor" stroke="none" class="icon-fill-success"/>
</svg>
