<svg xmlns="http://www.w3.org/2000/svg" width="24" height="24" fill="none" viewBox="0 0 24 24">
  <path fill="#383838" fill-rule="evenodd" d="M7 5.496a.5.5 0 0 1 .5-.5h9a.5.5 0 0 1 .5.5V18.5a.5.5 0 0 1-.5.5h-9a.5.5 0 0 1-.5-.5V5.496Zm.5-1.5a1.5 1.5 0 0 0-1.5 1.5V18.5A1.5 1.5 0 0 0 7.5 20h9a1.5 1.5 0 0 0 1.5-1.5V5.496a1.5 1.5 0 0 0-1.5-1.5h-9ZM9.5 6a1.5 1.5 0 1 0 0 3h5a1.5 1.5 0 0 0 0-3h-5ZM9 7.5a.5.5 0 0 1 .5-.5h5a.5.5 0 0 1 0 1h-5a.5.5 0 0 1-.5-.5Zm.5 7.5a1.5 1.5 0 0 0 0 3h5a1.5 1.5 0 0 0 0-3h-5ZM9 16.5a.5.5 0 0 1 .5-.5h5a.5.5 0 0 1 0 1h-5a.5.5 0 0 1-.5-.5Z" clip-rule="evenodd"/>
</svg>
