<svg width="60" height="60" viewBox="0 0 60 60" fill="none" xmlns="http://www.w3.org/2000/svg">
<mask id="mask0_696_1341" style="mask-type:alpha" maskUnits="userSpaceOnUse" x="0" y="0" width="60" height="60">
<rect width="60" height="60" fill="#D9D9D9"/>
</mask>
<g mask="url(#mask0_696_1341)">
<path d="M44.969 46.3076L32.446 33.7846C31.446 34.6359 30.296 35.2949 28.996 35.7616C27.696 36.2282 26.3896 36.4616 25.077 36.4616C21.8736 36.4616 19.1625 35.3527 16.9435 33.1351C14.7248 30.9174 13.6155 28.2079 13.6155 25.0066C13.6155 21.8049 14.7243 19.0931 16.942 16.8711C19.1596 14.6494 21.8691 13.5386 25.0705 13.5386C28.2721 13.5386 30.984 14.6479 33.206 16.8666C35.4276 19.0856 36.5385 21.7967 36.5385 25.0001C36.5385 26.3897 36.2923 27.7346 35.8 29.0346C35.3076 30.3346 34.6615 31.4461 33.8615 32.3691L46.3845 44.8926L44.969 46.3076ZM25.077 34.4616C27.7306 34.4616 29.971 33.5481 31.798 31.7211C33.625 29.8944 34.5385 27.6541 34.5385 25.0001C34.5385 22.3461 33.625 20.1057 31.798 18.2791C29.971 16.4521 27.7306 15.5386 25.077 15.5386C22.423 15.5386 20.1826 16.4521 18.356 18.2791C16.529 20.1057 15.6155 22.3461 15.6155 25.0001C15.6155 27.6541 16.529 29.8944 18.356 31.7211C20.1826 33.5481 22.423 34.4616 25.077 34.4616Z" fill="#1C1B1F"/>
</g>
</svg>
