<svg xmlns="http://www.w3.org/2000/svg" width="24" height="24" viewBox="0 0 24 24" stroke="currentColor" stroke-linecap="round" stroke-linejoin="round" fill="none">
    <path d="M18.5 9.504a1 1 0 0 1 1 1V18.5a1 1 0 0 1-1 1h-8a1 1 0 0 1-1-1V16h5a1.5 1.5 0 0 0 1.5-1.5V9.504z" fill="currentColor" class="icon-fill-blue-secondary" stroke="none"/>
    <path d="M15.5 9.5h3a1 1 0 0 1 1 1v8a1 1 0 0 1-1 1h-8a1 1 0 0 1-1-1v-3" class="icon-stroke-blue-primary"/>
    <path d="M5.5 14.5V6.504a1 1 0 0 1 1-1h8a1 1 0 0 1 1 1V14.5a1 1 0 0 1-1 1h-8a1 1 0 0 1-1-1" class="icon-stroke-gray-secondary"/>
</svg>
