<svg width="60" height="60" viewBox="0 0 60 60" fill="none" xmlns="http://www.w3.org/2000/svg">
<mask id="mask0_696_1355" style="mask-type:alpha" maskUnits="userSpaceOnUse" x="0" y="0" width="60" height="60">
<rect width="60" height="60" fill="#D9D9D9"/>
</mask>
<g mask="url(#mask0_696_1355)">
<path d="M19.231 48C18.3103 48 17.5417 47.6917 16.925 47.075C16.3083 46.4583 16 45.6897 16 44.769V15.231C16 14.3103 16.3083 13.5417 16.925 12.925C17.5417 12.3083 18.3103 12 19.231 12H35L44 21V44.769C44 45.6897 43.6917 46.4583 43.075 47.075C42.4583 47.6917 41.6897 48 40.769 48H19.231ZM34 22V14H19.231C18.923 14 18.6408 14.1282 18.3845 14.3845C18.1282 14.6408 18 14.923 18 15.231V44.769C18 45.077 18.1282 45.3592 18.3845 45.6155C18.6408 45.8718 18.923 46 19.231 46H40.769C41.077 46 41.3592 45.8718 41.6155 45.6155C41.8718 45.3592 42 45.077 42 44.769V22H34Z" fill="#1C1B1F"/>
</g>
</svg>
