<svg width="60" height="60" viewBox="0 0 60 60" fill="none" xmlns="http://www.w3.org/2000/svg">
<mask id="mask0_695_1248" style="mask-type:alpha" maskUnits="userSpaceOnUse" x="0" y="0" width="60" height="60">
<rect width="60" height="60" fill="#D9D9D9"/>
</mask>
<g mask="url(#mask0_695_1248)">
<path d="M14 46.4529V19.17C14 18.2919 14.3147 17.544 14.944 16.9262C15.5737 16.3087 16.336 16 17.231 16H42.769C43.664 16 44.4263 16.3087 45.056 16.9262C45.6853 17.544 46 18.2919 46 19.17V28H44V19.17C44 18.8178 43.8847 18.5284 43.654 18.3017C43.423 18.0754 43.128 17.9623 42.769 17.9623H17.231C16.872 17.9623 16.577 18.0754 16.346 18.3017C16.1153 18.5284 16 18.8178 16 19.17V40H30V41.9623H18.577L14 46.4529Z" fill="#1C1B1F"/>
<path d="M40 46V40H34V38H40V32H42V38H48V40H42V46H40Z" fill="#5C89FF"/>
</g>
</svg>
