<svg xmlns="http://www.w3.org/2000/svg" viewBox="0 0 24 24" width="24" height="24" stroke="currentColor" stroke-linecap="round" stroke-linejoin="round" fill="none">
    <path d="M8.5 14v2.5a1 1 0 0 0 1 1h.323a1 1 0 0 0 .928-.629L11.5 15m6 1.5v-9a1 1 0 0 0-1-1h-.58a.42.42 0 0 0-.42.42.838.838 0 0 1-.544.784L8.15 10.257a1 1 0 0 0-.649.936v1.614a1 1 0 0 0 .649.936l6.807 2.553a.838.838 0 0 1 .544.785.42.42 0 0 0 .42.419h.58a1 1 0 0 0 1-1Zm-10-6H6a1.5 1.5 0 0 0 0 3h1.5v-3Z" class="icon-gray-primary"/>
</svg>
