<svg width="60" height="60" viewBox="0 0 60 60" fill="none" xmlns="http://www.w3.org/2000/svg">
<mask id="mask0_696_1401" style="mask-type:alpha" maskUnits="userSpaceOnUse" x="0" y="0" width="60" height="60">
<rect width="60" height="60" fill="#D9D9D9"/>
</mask>
<g mask="url(#mask0_696_1401)">
<path d="M21.0045 19.0005C20.4502 19.0005 19.9775 19.1945 19.5865 19.5825C19.1955 19.9705 19 20.4415 19 20.9955C19 21.5498 19.194 22.0225 19.582 22.4135C19.97 22.8048 20.4412 23.0005 20.9955 23.0005C21.5498 23.0005 22.0225 22.8065 22.4135 22.4185C22.8045 22.0302 23 21.559 23 21.005C23 20.4507 22.806 19.978 22.418 19.587C22.03 19.196 21.5588 19.0005 21.0045 19.0005ZM21.0045 37C20.4502 37 19.9775 37.194 19.5865 37.582C19.1955 37.9703 19 38.4415 19 38.9955C19 39.5498 19.194 40.0225 19.582 40.4135C19.97 40.8045 20.4412 41 20.9955 41C21.5498 41 22.0225 40.806 22.4135 40.418C22.8045 40.03 23 39.559 23 39.005C23 38.4507 22.806 37.978 22.418 37.587C22.03 37.1957 21.5588 37 21.0045 37ZM15.5385 14H44.4615C44.8975 14 45.2628 14.1467 45.5575 14.44C45.8525 14.733 46 15.096 46 15.529V26.231C46 26.7463 45.8525 27.17 45.5575 27.502C45.2628 27.8343 44.8975 28.0005 44.4615 28.0005H15.5385C15.1025 28.0005 14.7372 27.8343 14.4425 27.502C14.1475 27.17 14 26.7463 14 26.231V15.529C14 15.096 14.1475 14.733 14.4425 14.44C14.7372 14.1467 15.1025 14 15.5385 14ZM16 16.0005V26.0005H44V16.0005H16ZM15.5385 32H44.3845C44.8742 32 45.2658 32.1623 45.5595 32.487C45.8532 32.8113 46 33.2132 46 33.6925V44.154C46 44.7207 45.8532 45.17 45.5595 45.502C45.2658 45.8343 44.8742 46.0005 44.3845 46.0005H15.6155C15.1258 46.0005 14.7342 45.8343 14.4405 45.502C14.1468 45.17 14 44.7207 14 44.154V33.6925C14 33.2132 14.134 32.8113 14.402 32.487C14.67 32.1623 15.0488 32 15.5385 32ZM16 34V44H44V34H16Z" fill="#1C1B1F"/>
</g>
</svg>
