<svg xmlns="http://www.w3.org/2000/svg" width="24" height="24" viewBox="0 0 24 24" stroke="currentColor" stroke-linecap="round" stroke-linejoin="round" fill="none">
    <path d="M9.5 5.5v4m0-4h4m-4 0h-3a1 1 0 0 0-1 1v3m4 0h-4m4 0h4m-4 0v4m-4-4v4m8-8v4m0-4h3a1 1 0 0 1 1 1v2a1 1 0 0 1-1 1h-3m-8 4h4m-4 0v3a1 1 0 0 0 1 1h2a1 1 0 0 0 1-1v-3" class="icon-gray-primary"/>
    <path d="M15.498 11a4.498 4.498 0 1 1 0 8.996 4.498 4.498 0 0 1 0-8.996Zm.002 2a.5.5 0 0 0-.5.5V15h-1.5a.5.5 0 0 0 0 1H15v1.5a.5.5 0 0 0 1 0V16h1.5a.5.5 0 0 0 0-1H16v-1.5a.5.5 0 0 0-.5-.5Z" stroke="none" fill="currentColor" class="icon-blue-primary"/>
</svg>
