<svg xmlns="http://www.w3.org/2000/svg" width="24" height="24" fill="none" viewBox="0 0 24 24">
  <path fill="#383838" fill-rule="evenodd" d="M11.5 6a.5.5 0 0 1 .5.5v2a.5.5 0 0 1-1 0v-2a.5.5 0 0 1 .5-.5Zm0 5a.5.5 0 0 1 .5.5v2a.5.5 0 0 1-1 0v-2a.5.5 0 0 1 .5-.5Zm0 5a.5.5 0 0 1 .5.5v2a.5.5 0 0 1-1 0v-2a.5.5 0 0 1 .5-.5Z" clip-rule="evenodd"/>
  <path fill="#446ECA" fill-rule="evenodd" d="M4 8.983a.7.7 0 0 1 1.195-.495l3.659 3.658a.5.5 0 0 1 0 .707l-3.659 3.659A.7.7 0 0 1 4 16.017V8.983Zm1 .724v5.586L7.793 12.5 5 9.707Zm13 0L15.207 12.5 18 15.293V9.707Zm-.195-1.22A.7.7 0 0 1 19 8.984v7.034a.7.7 0 0 1-1.195.495l-3.659-3.659a.5.5 0 0 1 0-.707l3.659-3.658Z" clip-rule="evenodd"/>
</svg>
