<svg xmlns="http://www.w3.org/2000/svg" width="24" height="24" viewBox="0 0 24 24" stroke="currentColor" stroke-linecap="round" stroke-linejoin="round" fill="none">
    <path d="M9.5 5.5v4m0-4h-3a1 1 0 0 0-1 1v3m4-4h7a1 1 0 0 1 1 1v2a1 1 0 0 1-1 1h-7m0 0h-4m4 0v7a1 1 0 0 1-1 1h-2a1 1 0 0 1-1-1v-7" class="icon-stroke-gray-primary"/>
    <path d="M15.498 11a4.498 4.498 0 1 1 0 8.996 4.498 4.498 0 0 1 0-8.996Zm.002 2a.5.5 0 0 0-.5.5V15h-1.5a.5.5 0 0 0 0 1H15v1.5a.5.5 0 0 0 1 0V16h1.5a.5.5 0 0 0 0-1H16v-1.5a.5.5 0 0 0-.5-.5Z" fill="currentColor" stroke="none" class="icon-fill-blue-primary"/>
</svg>
