<svg xmlns="http://www.w3.org/2000/svg" width="24" height="24" fill="none" viewBox="0 0 24 24">
  <path fill="#383838" fill-rule="evenodd" d="M4 5.5a.5.5 0 0 1 .5-.5h2a.5.5 0 0 1 .5.5v2a.5.5 0 0 1-.5.5h-2a.5.5 0 0 1-.5-.5v-2ZM5 6v1h1V6H5Zm12-.5a.5.5 0 0 1 .5-.5h2a.5.5 0 0 1 .5.5v2a.5.5 0 0 1-.5.5h-2a.5.5 0 0 1-.5-.5v-2Zm1 .5v1h1V6h-1ZM4 16.5a.5.5 0 0 1 .5-.5h2a.5.5 0 0 1 .5.5v2a.5.5 0 0 1-.5.5h-2a.5.5 0 0 1-.5-.5v-2Zm1 .5v1h1v-1H5Zm12-.5a.5.5 0 0 1 .5-.5h2a.5.5 0 0 1 .5.5v2a.5.5 0 0 1-.5.5h-2a.5.5 0 0 1-.5-.5v-2Zm1 .5v1h1v-1h-1Z" clip-rule="evenodd"/>
  <path fill="#446ECA" fill-rule="evenodd" d="M8.5 8a.5.5 0 0 0-.5.5v4a.5.5 0 0 0 .5.5H11v2.5a.5.5 0 0 0 .5.5h4a.5.5 0 0 0 .5-.5v-4a.5.5 0 0 0-.5-.5H13V8.5a.5.5 0 0 0-.5-.5h-4Zm3.5 3.5V9H9v3h3v-.5Zm0 1.5h.5a.5.5 0 0 0 .5-.5V12h2v3h-3v-2Z" clip-rule="evenodd"/>
</svg>
