<svg width="60" height="60" viewBox="0 0 60 60" fill="none" xmlns="http://www.w3.org/2000/svg">
<mask id="mask0_696_1398" style="mask-type:alpha" maskUnits="userSpaceOnUse" x="0" y="0" width="60" height="60">
<rect width="60" height="60" fill="#D9D9D9"/>
</mask>
<g mask="url(#mask0_696_1398)">
<path d="M30 41.4611C26.436 41.4611 23.234 40.4509 20.394 38.4306C17.5544 36.4099 15.4102 33.5996 13.9615 29.9996C15.4102 26.3996 17.5544 23.5893 20.394 21.5686C23.234 19.5483 26.436 18.5381 30 18.5381C33.564 18.5381 36.766 19.5483 39.606 21.5686C42.4457 23.5893 44.5899 26.3996 46.0386 29.9996C44.5899 33.5996 42.4457 36.4099 39.606 38.4306C36.766 40.4509 33.564 41.4611 30 41.4611ZM30 39.4611C33.036 39.4611 35.7579 38.6354 38.1655 36.9841C40.5732 35.3328 42.4655 33.0046 43.8425 29.9996C42.4655 26.9946 40.5732 24.6664 38.1655 23.0151C35.7579 21.3638 33.036 20.5381 30 20.5381C26.964 20.5381 24.2422 21.3638 21.8345 23.0151C19.4269 24.6664 17.5345 26.9946 16.1575 29.9996C17.5345 33.0046 19.4269 35.3328 21.8345 36.9841C24.2422 38.6354 26.964 39.4611 30 39.4611ZM30 35.7306C31.6 35.7306 32.9552 35.1754 34.0655 34.0651C35.1759 32.9548 35.731 31.5996 35.731 29.9996C35.731 28.3996 35.1759 27.0444 34.0655 25.9341C32.9552 24.8238 31.6 24.2686 30 24.2686C28.4 24.2686 27.0449 24.8238 25.9345 25.9341C24.8242 27.0444 24.269 28.3996 24.269 29.9996C24.269 31.5996 24.8242 32.9548 25.9345 34.0651C27.0449 35.1754 28.4 35.7306 30 35.7306ZM30 33.7306C28.9617 33.7306 28.0804 33.3683 27.356 32.6436C26.6314 31.9193 26.269 31.0379 26.269 29.9996C26.269 28.9613 26.6314 28.0799 27.356 27.3556C28.0804 26.6309 28.9617 26.2686 30 26.2686C31.0384 26.2686 31.9197 26.6309 32.644 27.3556C33.3687 28.0799 33.731 28.9613 33.731 29.9996C33.731 31.0379 33.3687 31.9193 32.644 32.6436C31.9197 33.3683 31.0384 33.7306 30 33.7306Z" fill="#1C1B1F"/>
</g>
</svg>
