<svg xmlns="http://www.w3.org/2000/svg" viewBox="0 0 24 24" width="24" height="24" stroke="currentColor" stroke-linecap="round" stroke-linejoin="round" fill="none">
    <path d="M5.5 8.5v-2a1 1 0 0 1 1-1h2a1 1 0 0 1 1 1v2m-4 0h4m-4 0v3m4-3v3m0 0h-4m4 0v6m0-6 4.293-4.293a1 1 0 0 1 1.414 0l1.586 1.586a1 1 0 0 1 0 1.414L12.5 14.5m-7-3v6a1 1 0 0 0 1 1h2m1-1 3-3m-3 3a1 1 0 0 1-1 1m4-4h3m-3 0v4m-4 0h4m3 0h2a1 1 0 0 0 1-1v-2a1 1 0 0 0-1-1h-2m0 4v-4m0 4h-3m-4.996-2.003h.008" class="icon-stroke-gray-primary"/>
</svg>
