<svg xmlns="http://www.w3.org/2000/svg" width="24" height="24" fill="none" viewBox="0 0 24 24">
  <path fill="#383838" fill-rule="evenodd" d="M5.032 5.325a.5.5 0 0 1 .644-.293l2 .75 6 2.25a.5.5 0 0 1 0 .936l-6 2.25-2 .75a.5.5 0 1 1-.352-.936L7 10.404V6.597l-1.676-.629a.5.5 0 0 1-.292-.643ZM8 6.972v3.057L12.076 8.5 8 6.972Z" clip-rule="evenodd"/>
  <path fill="#446ECA" fill-rule="evenodd" d="M17 5.5a.5.5 0 0 0-1 0v11.793l-1.146-1.147a.5.5 0 0 0-.708.708l2 2a.5.5 0 0 0 .708 0l2-2a.5.5 0 0 0-.708-.708L17 17.293V5.5Zm-7 7a.5.5 0 0 0-1 0v4.793l-1.146-1.147a.5.5 0 0 0-.708.708l2 2a.5.5 0 0 0 .708 0l2-2a.5.5 0 0 0-.708-.708L10 17.293V12.5Z" clip-rule="evenodd"/>
</svg>
