<svg xmlns="http://www.w3.org/2000/svg" width="24" height="24" fill="none" viewBox="0 0 24 24">
  <path fill="#383838" fill-rule="evenodd" d="M5 6.5A1.5 1.5 0 0 1 6.5 5h11A1.5 1.5 0 0 1 19 6.5v12a1.5 1.5 0 0 1-1.5 1.5h-11A1.5 1.5 0 0 1 5 18.5v-12ZM6.5 6a.5.5 0 0 0-.5.5v12a.5.5 0 0 0 .5.5h11a.5.5 0 0 0 .5-.5v-12a.5.5 0 0 0-.5-.5h-11Z" clip-rule="evenodd"/>
  <path fill="#446ECA" fill-rule="evenodd" d="M8 7.5a.5.5 0 0 1 .5-.5h7a.5.5 0 0 1 0 1h-7a.5.5 0 0 1-.5-.5Zm1 2a.5.5 0 0 1 .5-.5h5a.5.5 0 0 1 0 1h-5a.5.5 0 0 1-.5-.5Z" clip-rule="evenodd"/>
</svg>
