<svg xmlns="http://www.w3.org/2000/svg" width="24" height="24" fill="none" viewBox="0 0 24 24">
  <path fill="#383838" fill-rule="evenodd" d="M19 5.5a.5.5 0 0 0-1 0v13a.5.5 0 0 0 1 0v-13Zm-9 3A1.5 1.5 0 0 1 11.5 7h3A1.5 1.5 0 0 1 16 8.5v1a1.5 1.5 0 0 1-1.5 1.5h-3A1.5 1.5 0 0 1 10 9.5v-1Zm1.5-.5a.5.5 0 0 0-.5.5v1a.5.5 0 0 0 .5.5h3a.5.5 0 0 0 .5-.5v-1a.5.5 0 0 0-.5-.5h-3ZM5 14.5A1.5 1.5 0 0 1 6.5 13h8a1.5 1.5 0 0 1 1.5 1.5v1a1.5 1.5 0 0 1-1.5 1.5h-8A1.5 1.5 0 0 1 5 15.5v-1Zm1.5-.5a.5.5 0 0 0-.5.5v1a.5.5 0 0 0 .5.5h8a.5.5 0 0 0 .5-.5v-1a.5.5 0 0 0-.5-.5h-8Z" clip-rule="evenodd"/>
</svg>
