<svg xmlns="http://www.w3.org/2000/svg" width="24" height="24" fill="none" viewBox="0 0 24 24">
  <path fill="#383838" fill-rule="evenodd" d="M9.5 6a.5.5 0 0 1 .47.33l2.909 8 1.09 3a.5.5 0 0 1-.939.34L12.06 15H6.94l-.971 2.67a.5.5 0 1 1-.94-.34l1.091-3 2.91-8A.5.5 0 0 1 9.5 6Zm-2.195 8h4.39L9.5 7.963 7.305 14Z" clip-rule="evenodd"/>
  <path fill="#446ECA" fill-rule="evenodd" d="M18.691 13.038A.5.5 0 0 1 19 13.5v5a.5.5 0 1 1-1 0v-3.793l-1.146 1.147a.5.5 0 0 1-.708-.707l2-2a.5.5 0 0 1 .545-.109Z" clip-rule="evenodd"/>
</svg>
