<svg xmlns="http://www.w3.org/2000/svg" width="24" height="24" viewBox="0 0 24 24" stroke="currentColor" stroke-linejoin="round" fill="none">
    <path d="m5.365 15.5.442-.234zM8.5 18.635l.234-.442zm-4 .865-.469-.173a.5.5 0 0 0 .639.643zm15-7.5H19a7 7 0 0 1-7 7v1a8 8 0 0 0 8-8zm-15 0H5a7 7 0 0 1 7-7V4a8 8 0 0 0-8 8zM12 4.5V5a7 7 0 0 1 7 7h1a8 8 0 0 0-8-8zm-6.635 11 .442-.234A7 7 0 0 1 5 12H4c0 1.348.334 2.618.923 3.734zm6.635 4V19a7 7 0 0 1-3.266-.807l-.234.442-.234.442A8 8 0 0 0 12 20zm-3.5-.865.234-.442c-.194-.102-.42-.12-.593-.12-.191 0-.404.023-.62.058-.434.07-.935.194-1.401.326a29 29 0 0 0-1.75.558l-.03.01-.007.004h-.002l.169.471.17.47h.002l.006-.003.027-.01a19 19 0 0 1 .486-.166c.32-.107.751-.245 1.2-.372.452-.127.91-.24 1.288-.3q.286-.046.462-.046c.134 0 .156.02.125.004zm-4 .865.47.173.003-.01.01-.03a18 18 0 0 0 .176-.501c.111-.327.256-.771.39-1.239.132-.465.258-.966.327-1.402a4 4 0 0 0 .055-.627c0-.179-.021-.404-.124-.598l-.442.234-.442.234c-.012-.024.008.004.008.137a3 3 0 0 1-.043.464c-.06.377-.173.834-.301 1.283a26 26 0 0 1-.543 1.674l-.01.026-.002.007v.002H4.03z" class="icon-fill-gray-primary" stroke="none" fill="currentColor"/>
    <path d="M12.5 12a.5.5 0 1 1-1 0 .5.5 0 0 1 1 0Zm-4 0a.5.5 0 1 1-1 0 .5.5 0 0 1 1 0Zm8 0a.5.5 0 1 1-1 0 .5.5 0 0 1 1 0Z" class="icon-stroke-gray-primary"/>
</svg>
