<svg xmlns="http://www.w3.org/2000/svg" width="24" height="24" fill="none" viewBox="0 0 24 24">
  <path fill="#383838" fill-rule="evenodd" d="M11.724 6.053a.5.5 0 0 0-.448 0l-6 3a.5.5 0 0 0 0 .894l3 1.5a.5.5 0 1 0 .448-.894L6.618 9.5 11.5 7.059 16.382 9.5l-2.106 1.053a.5.5 0 1 0 .448.894l3-1.5a.5.5 0 0 0 0-.894l-6-3Zm-4.5 7.144a.5.5 0 1 0-.448-.894l-1.5.75a.5.5 0 0 0 0 .894l3 1.5a.5.5 0 1 0 .448-.894L6.618 13.5l.606-.303Zm9-.894a.5.5 0 1 0-.448.894l.606.303-2.106 1.053a.5.5 0 1 0 .448.894l3-1.5a.5.5 0 0 0 0-.894l-1.5-.75Z" clip-rule="evenodd"/>
  <path fill="#446ECA" fill-rule="evenodd" d="M11.5 9a.5.5 0 0 1 .5.5v8.793l1.146-1.147a.5.5 0 0 1 .708.708l-2 2a.5.5 0 0 1-.708 0l-2-2a.5.5 0 0 1 .708-.708L11 18.293V9.5a.5.5 0 0 1 .5-.5Z" clip-rule="evenodd"/>
</svg>
