<svg xmlns="http://www.w3.org/2000/svg" width="24" height="24" fill="none" viewBox="0 0 24 24">
  <path fill="#383838" fill-rule="evenodd" d="M7.5 5a.5.5 0 0 0-.5.5v13a.5.5 0 0 0 .5.5h9a.5.5 0 0 0 .5-.5v-13a.5.5 0 0 0-.5-.5h-9ZM6 5.5A1.5 1.5 0 0 1 7.5 4h9A1.5 1.5 0 0 1 18 5.5v13a1.5 1.5 0 0 1-1.5 1.5h-9A1.5 1.5 0 0 1 6 18.5v-13Z" clip-rule="evenodd"/>
  <path fill="#446ECA" fill-rule="evenodd" d="M9 7V5h1v2h4V5h1v2h2v1h-2v8h2v1h-2v2h-1v-2h-4v2H9v-2H7v-1h2V8H7V7h2Zm1 1v8h4V8h-4Z" clip-rule="evenodd"/>
</svg>
