<svg width="60" height="60" viewBox="0 0 60 60" fill="none" xmlns="http://www.w3.org/2000/svg">
<mask id="mask0_695_1291" style="mask-type:alpha" maskUnits="userSpaceOnUse" x="0" y="0" width="60" height="60">
<rect width="60" height="60" fill="#D9D9D9"/>
</mask>
<g mask="url(#mask0_695_1291)">
<rect x="18" y="16" width="24" height="6" fill="#5C89FF"/>
<path fill-rule="evenodd" clip-rule="evenodd" d="M26.579 45.421C26.965 45.807 27.4387 46 28 46H32.0385C32.6002 46 33.0738 45.807 33.4595 45.421C33.8455 45.0353 34.0385 44.5617 34.0385 44V34H40.6925C41.6128 34 42.3942 33.6917 43.0365 33.075C43.6788 32.4583 44 31.7025 44 30.8075V14H21.269C19.8127 14 18.5705 14.5077 17.5425 15.523C16.5142 16.5383 16 17.7615 16 19.1925V30.8075C16 31.7025 16.3147 32.4583 16.944 33.075C17.5737 33.6917 18.3487 34 19.269 34H26V44C26 44.5617 26.193 45.0353 26.579 45.421ZM42 26H18V19.1925C18 18.2718 18.3147 17.5097 18.944 16.906C19.5737 16.302 20.3487 16 21.269 16H31.0385H33.0385H36.731H38.731H42V26ZM40.6925 32H19.269C18.9103 32 18.6092 31.8847 18.3655 31.654C18.1218 31.423 18 31.1408 18 30.8075V28H42V30.8075C42 31.1408 41.8718 31.423 41.6155 31.654C41.3592 31.8847 41.0515 32 40.6925 32ZM32 44L32.0385 34H28V44H32Z" fill="#1C1B1F"/>
</g>
</svg>
