<svg xmlns="http://www.w3.org/2000/svg" width="24" height="24" fill="none" viewBox="0 0 24 24">
  <path fill="#383838" fill-rule="evenodd" d="M18.968 12.325a.5.5 0 0 1-.292.643L17 13.597v3.807l1.676.628a.5.5 0 0 1-.352.936l-2-.75-6-2.25a.5.5 0 0 1 0-.936l6-2.25 2-.75a.5.5 0 0 1 .644.293ZM16 17.029v-3.057L11.924 15.5 16 17.03Z" clip-rule="evenodd"/>
  <path fill="#446ECA" fill-rule="evenodd" d="M7.854 5.146a.5.5 0 0 0-.708 0l-2 2a.5.5 0 1 0 .708.708L7 6.707V18.5a.5.5 0 0 0 1 0V6.707l1.146 1.147a.5.5 0 1 0 .708-.708l-2-2Zm7 0a.5.5 0 0 0-.708 0l-2 2a.5.5 0 0 0 .708.708L14 6.707V11.5a.5.5 0 0 0 1 0V6.707l1.146 1.147a.5.5 0 0 0 .708-.708l-2-2Z" clip-rule="evenodd"/>
</svg>
