<svg xmlns="http://www.w3.org/2000/svg" width="24" height="24" fill="none" viewBox="0 0 24 24">
  <path fill="#383838" fill-rule="evenodd" d="M13 6.5a.5.5 0 0 1 .5-.5h5a.5.5 0 0 1 0 1h-5a.5.5 0 0 1-.5-.5Zm2 4a.5.5 0 0 1 .5-.5h3a.5.5 0 0 1 0 1h-3a.5.5 0 0 1-.5-.5Zm-1 4a.5.5 0 0 1 .5-.5h4a.5.5 0 0 1 0 1h-4a.5.5 0 0 1-.5-.5Zm1 4a.5.5 0 0 1 .5-.5h3a.5.5 0 0 1 0 1h-3a.5.5 0 0 1-.5-.5Z" clip-rule="evenodd"/>
  <path fill="#446ECA" fill-rule="evenodd" d="M8.854 6.146a.5.5 0 0 0-.708 0l-3 3a.5.5 0 1 0 .708.708L8.5 7.207l2.646 2.647a.5.5 0 0 0 .708-.708l-3-3Zm-3 9a.5.5 0 0 0-.708.708l3 3a.5.5 0 0 0 .708 0l3-3a.5.5 0 0 0-.708-.708L8.5 17.793l-2.646-2.647Z" clip-rule="evenodd"/>
</svg>
