<svg xmlns="http://www.w3.org/2000/svg" width="24" height="24" fill="none" viewBox="0 0 24 24">
  <path fill="#383838" fill-rule="evenodd" d="M6.146 6.146a.5.5 0 0 1 .708 0l11 11a.5.5 0 0 1-.708.708l-1.008-1.009C15.034 17.525 13.664 18 12 18c-2.938 0-4.94-1.476-6.19-2.923a10.816 10.816 0 0 1-1.672-2.641 6.272 6.272 0 0 1-.1-.243l-.005-.015-.002-.005v-.001L4.5 12l-.47-.171v-.001l.002-.003.002-.007.01-.025.034-.087c.03-.074.076-.18.136-.312.121-.262.305-.626.559-1.043.478-.787 1.214-1.775 2.26-2.611l-.887-.886a.5.5 0 0 1 0-.708ZM4.5 12l-.47.17a.5.5 0 0 1 0-.34l.47.17Zm8.879 2.086 2.03 2.03A6.777 6.777 0 0 1 12 17c-2.562 0-4.31-1.274-5.434-2.577a9.814 9.814 0 0 1-1.51-2.386L5.038 12a9.502 9.502 0 0 1 .588-1.13c.453-.744 1.145-1.663 2.117-2.418l2.17 2.17a2.5 2.5 0 0 0 3.464 3.464Zm-.732-.732-2-2a1.5 1.5 0 0 0 2 2ZM9.867 6.28A8.032 8.032 0 0 1 12 6c2.938 0 4.94 1.476 6.19 2.923a10.813 10.813 0 0 1 1.672 2.641 6.293 6.293 0 0 1 .1.243l.005.015.002.005v.001L19.5 12l.47.171-.001.002-.002.005-.005.013-.018.048-.071.171a9.34 9.34 0 0 1-.284.597 10.882 10.882 0 0 1-1.2 1.834.5.5 0 1 1-.777-.63 9.883 9.883 0 0 0 1.343-2.196L18.96 12l-.016-.037a9.812 9.812 0 0 0-1.51-2.386C16.308 8.274 14.561 7 12 7c-.682 0-1.303.09-1.868.245a.5.5 0 1 1-.264-.965ZM19.5 12l.47-.17a.5.5 0 0 1 0 .34L19.5 12Z" clip-rule="evenodd"/>
</svg>
