<svg width="60" height="60" viewBox="0 0 60 60" fill="none" xmlns="http://www.w3.org/2000/svg">
<mask id="mask0_695_1317" style="mask-type:alpha" maskUnits="userSpaceOnUse" x="0" y="0" width="60" height="60">
<rect width="60" height="60" fill="#D9D9D9"/>
</mask>
<g mask="url(#mask0_695_1317)">
<path d="M30 48C27.523 48 25.1897 47.5263 23 46.579C20.8103 45.6313 18.9033 44.3453 17.279 42.721C15.6547 41.0967 14.3687 39.1897 13.421 37C12.4737 34.8103 12 32.477 12 30C12 27.5153 12.4737 25.18 13.421 22.994C14.3687 20.8083 15.6547 18.9033 17.279 17.279C18.9033 15.6547 20.8103 14.3687 23 13.421C25.1897 12.4737 27.523 12 30 12C32.4847 12 34.82 12.4737 37.006 13.421C39.1917 14.3687 41.0967 15.6547 42.721 17.279C44.3453 18.9033 45.6313 20.8083 46.579 22.994C47.5263 25.18 48 27.5153 48 30C48 32.477 47.5263 34.8103 46.579 37C45.6313 39.1897 44.3453 41.0967 42.721 42.721C41.0967 44.3453 39.1917 45.6313 37.006 46.579C34.82 47.5263 32.4847 48 30 48ZM30 46.0155C31.1743 44.5078 32.1423 43.027 32.904 41.573C33.6653 40.1193 34.2845 37.8 34.7615 36H25.2385C25.7668 37.9023 26.3988 40.273 27.1345 41.727C27.8705 43.1807 28.8257 44.6102 30 46.0155ZM27.454 45.7155C26.5207 44.6155 25.6687 43.2558 24.898 41.6365C24.1277 40.0172 23.554 37.6767 23.177 36H15.5075C16.6538 38.487 18.2788 41.2192 20.3825 42.8115C22.4865 44.4038 24.8437 45.3718 27.454 45.7155ZM32.546 45.7155C35.1563 45.3718 37.5135 44.4038 39.6175 42.8115C41.7212 41.2192 43.3462 38.487 44.4925 36H36.823C36.318 37.7023 35.6802 40.0557 34.9095 41.675C34.1392 43.2943 33.3513 44.6412 32.546 45.7155ZM14.6925 34H22.7615C22.6102 33.1793 22.5032 33.0723 22.4405 32.294C22.3775 31.516 22.346 30.7513 22.346 30C22.346 29.2487 22.3775 28.484 22.4405 27.706C22.5032 26.9277 22.6102 26.8207 22.7615 26H14.6925C14.4745 26.6923 14.3045 26.7543 14.1825 27.571C14.0608 28.3877 14 29.1973 14 30C14 30.8027 14.0608 31.6123 14.1825 32.429C14.3045 33.2457 14.4745 33.3077 14.6925 34ZM24.7615 34H35.2385C35.3898 33.1793 35.4968 33.0852 35.5595 32.3325C35.6225 31.5802 35.654 30.8027 35.654 30C35.654 29.1973 35.6225 28.4198 35.5595 27.6675C35.4968 26.9148 35.3898 26.8207 35.2385 26H24.7615C24.6102 26.8207 24.5032 26.9148 24.4405 27.6675C24.3775 28.4198 24.346 29.1973 24.346 30C24.346 30.8027 24.3775 31.5802 24.4405 32.3325C24.5032 33.0852 24.6102 33.1793 24.7615 34ZM37.2385 34H45.3075C45.5255 33.3077 45.6955 33.2457 45.8175 32.429C45.9392 31.6123 46 30.8027 46 30C46 29.1973 45.9392 28.3877 45.8175 27.571C45.6955 26.7543 45.5255 26.6923 45.3075 26H37.2385C37.3898 26.8207 37.4968 26.9277 37.5595 27.706C37.6225 28.484 37.654 29.2487 37.654 30C37.654 30.7513 37.6225 31.516 37.5595 32.294C37.4968 33.0723 37.3898 33.1793 37.2385 34ZM36.823 24H44.4925C43.3205 21.4617 41.7147 18.7295 39.675 17.1885C37.6353 15.6475 35.259 14.6667 32.546 14.246C33.4793 15.4743 34.3185 16.8788 35.0635 18.4595C35.8085 20.0405 36.395 22.349 36.823 24ZM25.2385 24H34.7615C34.2332 22.1233 33.5818 19.7335 32.8075 18.2155C32.0332 16.6975 31.0973 15.2872 30 13.9845C28.9027 15.2872 27.9668 16.6975 27.1925 18.2155C26.4182 19.7335 25.7668 22.1233 25.2385 24ZM15.5075 24H23.177C23.605 22.349 24.1915 20.0405 24.9365 18.4595C25.6815 16.8788 26.5207 15.4743 27.454 14.246C24.7153 14.6667 22.3327 15.6538 20.306 17.2075C18.279 18.7615 16.6795 21.4873 15.5075 24Z" fill="#1C1B1F"/>
</g>
</svg>
