<svg xmlns="http://www.w3.org/2000/svg" width="24" height="24" fill="none" viewBox="0 0 24 24">
  <path fill="#383838" fill-rule="evenodd" d="M14 8.502a1.502 1.502 0 1 1 3.004 0 1.502 1.502 0 0 1-3.004 0ZM15.502 6a2.502 2.502 0 0 0-2.418 3.149L9.47 10.956a2.502 2.502 0 1 0 .002 3.089l3.614 1.807a2.502 2.502 0 1 0 .448-.894L9.92 13.15a2.505 2.505 0 0 0 0-1.301l3.612-1.807A2.502 2.502 0 1 0 15.501 6ZM6 12.502a1.502 1.502 0 1 1 3.004 0 1.502 1.502 0 0 1-3.004 0ZM15.502 15a1.502 1.502 0 1 0 0 3.004 1.502 1.502 0 0 0 0-3.004Z" clip-rule="evenodd"/>
</svg>
