<svg width="60" height="60" viewBox="0 0 60 60" fill="none" xmlns="http://www.w3.org/2000/svg">
<mask id="mask0_696_1376" style="mask-type:alpha" maskUnits="userSpaceOnUse" x="0" y="0" width="60" height="60">
<rect width="60" height="60" transform="matrix(1.19249e-08 -1 -1 -1.19249e-08 60 60)" fill="#D9D9D9"/>
</mask>
<g mask="url(#mask0_696_1376)">
<path d="M20 21.9996C23.8566 22.0226 27.1317 23.3808 29.8251 26.0743C32.5418 28.791 33.9001 32.0993 33.9001 35.9993L33.9001 37.5533L29.7001 33.3533L28.2846 34.7683L34.9001 41.3838L41.5156 34.7683L40.0771 33.3533L35.9001 37.5303L35.9001 35.9993C35.9001 33.7813 35.4828 31.7025 34.6481 29.7628C33.8135 27.8231 32.6711 26.1283 31.2211 24.6783C29.7711 23.2283 28.0763 22.086 26.1366 21.2513C24.2261 20.4292 22.1806 20.0119 20 19.9996L20 21.9996Z" fill="#1C1B1F"/>
</g>
</svg>
