<svg xmlns="http://www.w3.org/2000/svg" width="24" height="24" fill="none" viewBox="0 0 24 24">
  <path fill="#383838" fill-rule="evenodd" d="M6 5.5A1.5 1.5 0 0 1 7.5 4h8.996a1.5 1.5 0 0 1 1.5 1.5v12.996a1.5 1.5 0 0 1-1.5 1.5H7.5a1.5 1.5 0 0 1-1.5-1.5V5.5ZM7.5 5a.5.5 0 0 0-.5.5v12.996a.5.5 0 0 0 .5.5h8.996a.5.5 0 0 0 .5-.5V5.5a.5.5 0 0 0-.5-.5H7.5Z" clip-rule="evenodd"/>
  <path fill="#446ECA" fill-rule="evenodd" d="M8 6.5a.5.5 0 0 1 .5-.5h2a.5.5 0 0 1 0 1H9v1.5a.5.5 0 0 1-1 0v-2Zm5 0a.5.5 0 0 1 .5-.5h2a.5.5 0 0 1 .5.5v2a.5.5 0 0 1-1 0V7h-1.5a.5.5 0 0 1-.5-.5ZM8.5 15a.5.5 0 0 1 .5.5V17h1.5a.5.5 0 0 1 0 1h-2a.5.5 0 0 1-.5-.5v-2a.5.5 0 0 1 .5-.5Zm7 0a.5.5 0 0 1 .5.5v2a.5.5 0 0 1-.5.5h-2a.5.5 0 0 1 0-1H15v-1.5a.5.5 0 0 1 .5-.5Z" clip-rule="evenodd"/>
</svg>
