<svg xmlns="http://www.w3.org/2000/svg" width="24" height="24" fill="none" viewBox="0 0 24 24">
  <path fill="#383838" fill-rule="evenodd" d="M12 6C9.062 6 7.06 7.476 5.81 8.923a10.815 10.815 0 0 0-1.672 2.641 6.272 6.272 0 0 0-.1.243l-.005.015-.002.005v.001L4.5 12l-.47-.17a.5.5 0 0 0 0 .34L4.5 12l-.47.171.001.003.002.004.005.015.021.053a9.54 9.54 0 0 0 .398.847c.286.54.728 1.261 1.352 1.984C7.06 16.524 9.062 18 12 18c2.938 0 4.94-1.476 6.19-2.923a10.813 10.813 0 0 0 1.672-2.641 6.293 6.293 0 0 0 .1-.243l.005-.015.002-.005v-.001L19.5 12l.47.17a.5.5 0 0 0 0-.34l-.47.17.47-.171-.001-.003-.002-.004-.005-.015a9.533 9.533 0 0 0-.418-.9 10.874 10.874 0 0 0-1.353-1.984C16.94 7.476 14.939 6 12 6Zm-6.66 6.625a8.535 8.535 0 0 1-.285-.588L5.04 12l.016-.037a9.814 9.814 0 0 1 1.51-2.386C7.692 8.274 9.439 7 12 7c2.562 0 4.31 1.274 5.434 2.577a9.812 9.812 0 0 1 1.51 2.386l.017.037-.016.037a9.813 9.813 0 0 1-1.51 2.386C16.308 15.726 14.561 17 12 17c-2.562 0-4.31-1.274-5.434-2.577a9.814 9.814 0 0 1-1.226-1.798ZM10.882 11a1.5 1.5 0 1 1 2.236 2 1.5 1.5 0 0 1-2.236-2ZM12 9.5c-.74 0-1.406.323-1.863.833A2.5 2.5 0 1 0 12 9.5Z" clip-rule="evenodd"/>
</svg>
