<svg xmlns="http://www.w3.org/2000/svg" width="24" height="24" viewBox="0 0 24 24"  stroke="currentColor" stroke-linecap="round" stroke-linejoin="round" fill="none">
    <path d="m10.5 5.501 6 6-5.586 5.586a2 2 0 0 1-2.828 0l-3.172-3.172a2 2 0 0 1 0-2.828L10.5 5.5Zm0 0-2-2" class="icon-stroke-gray-primary"/>
    <path d="M16.936 13.456a.752.752 0 0 1 1.128 0l.06.08 1.085 1.626.095.156a2.056 2.056 0 0 1-3.1 2.577l-.156-.14a2.056 2.056 0 0 1-.257-2.593l1.085-1.627.06-.079ZM14.154 11.5a.346.346 0 0 1 .232.604l-4.18 3.761a1 1 0 0 1-1.377-.036l-2.536-2.536A1 1 0 0 1 6 12.586V12.5a1 1 0 0 1 1-1h7.154Z" fill="currentColor" stroke="none" class="icon-fill-gray-secondary"/>
</svg>
