<svg xmlns="http://www.w3.org/2000/svg" width="24" height="24" viewBox="0 0 24 24"  stroke="currentColor" stroke-linecap="round" stroke-linejoin="round" fill="none">
    <path d="M5.5 17.5v-3a1 1 0 0 1 1-1h3a1 1 0 0 1 1 1v3a1 1 0 0 1-1 1h-3a1 1 0 0 1-1-1Zm8 0v-3a1 1 0 0 1 1-1h3a1 1 0 0 1 1 1v3a1 1 0 0 1-1 1h-3a1 1 0 0 1-1-1Zm-8-8v-3a1 1 0 0 1 1-1h3a1 1 0 0 1 1 1v3a1 1 0 0 1-1 1h-3a1 1 0 0 1-1-1Z" class="icon-stroke-gray-primary"/>
    <path d="m15.758 10.329-2.122-2.122a1 1 0 0 1 0-1.414l2.122-2.121a1 1 0 0 1 1.414 0l2.121 2.121a1 1 0 0 1 0 1.414l-2.121 2.122a1 1 0 0 1-1.415 0Z" class="icon-stroke-blue-primary"/>
</svg>
