<svg xmlns="http://www.w3.org/2000/svg" width="24" height="24" viewBox="0 0 24 24" stroke="currentColor" stroke-linecap="round" stroke-linejoin="round" fill="none">
    <path d="M15.5 9.5 11 5 6.5 9.5v9h3" class="icon-gray-primary"/>
    <path d="M15.498 11a4.498 4.498 0 1 1 0 8.996 4.498 4.498 0 0 1 0-8.996Zm2.057 2.446a.5.5 0 0 0-.63-.064l-.077.064-1.348 1.347-1.348-1.348-.078-.063a.5.5 0 0 0-.629.77l1.348 1.348-1.348 1.348a.501.501 0 0 0 .707.708l1.348-1.349 1.348 1.348a.5.5 0 0 0 .707-.707L16.208 15.5l1.347-1.347.063-.079a.5.5 0 0 0-.063-.628Z" stroke="none" fill="currentColor" class="icon-red"/>
</svg>
