<svg xmlns="http://www.w3.org/2000/svg" width="24" height="24" fill="none" viewBox="0 0 24 24">
  <path fill="#383838" fill-rule="evenodd" d="M8.947 12.777a.5.5 0 0 1-.223.67L6.618 14.5l4.882 2.441 4.882-2.44-2.106-1.054a.5.5 0 1 1 .448-.894l3 1.5a.5.5 0 0 1 0 .894l-6 3a.5.5 0 0 1-.448 0l-6-3a.5.5 0 0 1 0-.894l3-1.5a.5.5 0 0 1 .671.223Z" clip-rule="evenodd"/>
  <path fill="#446ECA" fill-rule="evenodd" d="M11.146 6.146a.5.5 0 0 1 .708 0l2 2a.5.5 0 0 1-.708.708L12 7.707V13.5a.5.5 0 0 1-1 0V7.707L9.854 8.854a.5.5 0 1 1-.708-.708l2-2Z" clip-rule="evenodd"/>
</svg>
