<svg width="60" height="60" viewBox="0 0 60 60" fill="none" xmlns="http://www.w3.org/2000/svg">
<mask id="mask0_696_1358" style="mask-type:alpha" maskUnits="userSpaceOnUse" x="0" y="0" width="60" height="60">
<rect width="60" height="60" fill="#D9D9D9"/>
</mask>
<g mask="url(#mask0_696_1358)">
<path d="M19.231 46C18.336 46 17.5737 45.6853 16.944 45.056C16.3147 44.4263 16 43.664 16 42.769V17.231C16 16.336 16.3147 15.5736 16.944 14.944C17.5737 14.3146 18.336 14 19.231 14H26.504C26.691 13.218 27.1063 12.561 27.75 12.029C28.3937 11.4966 29.1437 11.2305 30 11.2305C30.8717 11.2305 31.6275 11.4966 32.2675 12.029C32.9072 12.561 33.3205 13.218 33.5075 14H40.769C41.664 14 42.4263 14.3146 43.056 14.944C43.6853 15.5736 44 16.336 44 17.231V42.769C44 43.664 43.6853 44.4263 43.056 45.056C42.4263 45.6853 41.664 46 40.769 46H19.231ZM19.231 44H40.769C41.077 44 41.3592 43.8718 41.6155 43.6155C41.8718 43.3591 42 43.077 42 42.769V17.231C42 16.923 41.8718 16.6408 41.6155 16.3845C41.3592 16.1281 41.077 16 40.769 16H38V20H22V16H19.231C18.923 16 18.6408 16.1281 18.3845 16.3845C18.1282 16.6408 18 16.923 18 17.231V42.769C18 43.077 18.1282 43.3591 18.3845 43.6155C18.6408 43.8718 18.923 44 19.231 44ZM30 16.4615C30.464 16.4615 30.8493 16.3083 31.156 16.002C31.4623 15.6956 31.6155 15.3103 31.6155 14.846C31.6155 14.382 31.4623 13.9968 31.156 13.6905C30.8493 13.3841 30.464 13.231 30 13.231C29.536 13.231 29.1507 13.3841 28.844 13.6905C28.5377 13.9968 28.3845 14.382 28.3845 14.846C28.3845 15.3103 28.5377 15.6956 28.844 16.002C29.1507 16.3083 29.536 16.4615 30 16.4615Z" fill="#1C1B1F"/>
</g>
</svg>
