<svg xmlns="http://www.w3.org/2000/svg" width="24" height="24" fill="none" viewBox="0 0 24 24">
  <path fill="#383838" fill-rule="evenodd" d="M4.996 12a7.004 7.004 0 1 1 14.008 0 7.004 7.004 0 0 1-14.008 0ZM12 3.996a8.004 8.004 0 1 0 0 16.008 8.004 8.004 0 0 0 0-16.008Zm-1.168 5.512c0-.724.53-1.175 1.19-1.175.62 0 1.15.538 1.15 1.175 0 .194-.074.404-.197.62-.122.213-.27.393-.385.532a8.48 8.48 0 0 0-.724.984c-.19.315-.367.691-.367 1.068v.534a.5.5 0 1 0 1 0v-.534c0-.092.054-.271.222-.55.16-.265.385-.558.638-.864l.005-.005c.114-.138.311-.376.479-.669.168-.294.329-.68.329-1.116 0-1.167-.957-2.175-2.15-2.175-1.151 0-2.19.84-2.19 2.175a.5.5 0 1 0 1 0Zm1.161 5.825a.833.833 0 0 0 0 1.667h.008a.833.833 0 1 0 0-1.667h-.008Z" clip-rule="evenodd"/>
</svg>
