<svg width="60" height="60" viewBox="0 0 60 60" fill="none" xmlns="http://www.w3.org/2000/svg">
<mask id="mask0_696_1375" style="mask-type:alpha" maskUnits="userSpaceOnUse" x="0" y="0" width="60" height="60">
<rect width="60" height="60" transform="matrix(-4.37114e-08 1 1 4.37114e-08 0 0)" fill="#D9D9D9"/>
</mask>
<g mask="url(#mask0_696_1375)">
<path d="M40 38.0004C36.1434 37.9774 32.8683 36.6192 30.1749 33.9257C27.4582 31.209 26.0999 27.9007 26.0999 24.0007L26.0999 22.4467L30.2999 26.6467L31.7154 25.2317L25.0999 18.6162L18.4844 25.2317L19.9229 26.6467L24.0999 22.4697L24.0999 24.0007C24.0999 26.2187 24.5172 28.2975 25.3519 30.2372C26.1865 32.1769 27.3289 33.8717 28.7789 35.3217C30.2289 36.7717 31.9237 37.914 33.8634 38.7487C35.7739 39.5708 37.8194 39.9881 40 40.0004L40 38.0004Z" fill="#1C1B1F"/>
</g>
</svg>
