<svg xmlns="http://www.w3.org/2000/svg" width="24" height="24" fill="none" viewBox="0 0 24 24">
  <path fill="#383838" fill-rule="evenodd" d="M16 14.5c0 2.201-1.957 3.5-4 3.5-1.404 0-2.288-.57-2.814-1.17a3.363 3.363 0 0 1-.633-1.083 2.124 2.124 0 0 1-.034-.11l-.003-.01v-.005L9 15.5l-.485.121a.5.5 0 0 1 .97-.246l.001.008.014.042a2.363 2.363 0 0 0 .439.745c.35.4.965.83 2.061.83 1.695 0 3-1.035 3-2.5 0-.306-.05-.582-.14-.828a.5.5 0 1 1 .94-.345c.133.365.2.758.2 1.173Zm-2.5-3a.5.5 0 0 1-.5.5c-1.953 0-3.509-.588-4.174-1.752A2.488 2.488 0 0 1 8.5 9c0-.932.47-1.693 1.13-2.207A3.91 3.91 0 0 1 12 6c1.412 0 2.299.599 2.823 1.222a3.517 3.517 0 0 1 .631 1.12 2.086 2.086 0 0 1 .034.113l.003.01v.004s.001.001-.485.119l.486-.118a.5.5 0 0 1-.972.236m0 0v.002V8.7a2.085 2.085 0 0 0-.088-.236 2.518 2.518 0 0 0-.373-.598C13.704 7.446 13.088 7 12 7a2.91 2.91 0 0 0-1.755.582C9.78 7.943 9.5 8.432 9.5 9c0 .281.068.531.194.752C10.089 10.443 11.17 11 13 11a.5.5 0 0 1 .5.5" clip-rule="evenodd"/>
  <path fill="#446ECA" fill-rule="evenodd" d="M6 11.5a.5.5 0 0 1 .5-.5h11a.5.5 0 0 1 0 1h-11a.5.5 0 0 1-.5-.5Z" clip-rule="evenodd"/>
</svg>
