<svg width="60" height="60" viewBox="0 0 60 60" fill="none" xmlns="http://www.w3.org/2000/svg">
<mask id="mask0_696_1411" style="mask-type:alpha" maskUnits="userSpaceOnUse" x="0" y="0" width="60" height="60">
<rect width="60" height="60" fill="#D9D9D9"/>
</mask>
<g mask="url(#mask0_696_1411)">
<path d="M20 42L28.3814 29.4671L20.6898 18H23.2642L29.9384 28.0621H29.9845L36.7629 18H39.3488L31.5299 29.4671L40 42H37.4141L29.9845 30.9283H29.9384L22.5859 42H20Z" fill="#1C1B1F"/>
<path d="M42.0001 24.0001L42.0001 19.615C42.0001 19.151 42.1534 18.7658 42.4601 18.4595C42.7664 18.1532 43.1516 18 43.6156 18H46L46 16H42L42.0001 14H46.3846C46.8486 14 47.2339 14.1532 47.5406 14.4595C47.8469 14.7658 48.0001 15.1512 48.0001 15.6155V18.385C48.0001 18.849 47.8469 19.2342 47.5406 19.5405C47.2339 19.8468 46.8486 20 46.3846 20H44V22H48L48.0001 24.0001H42.0001Z" fill="#5C89FF"/>
</g>
</svg>
