<svg width="60" height="60" viewBox="0 0 60 60" fill="none" xmlns="http://www.w3.org/2000/svg">
<mask id="mask0_696_1399" style="mask-type:alpha" maskUnits="userSpaceOnUse" x="0" y="0" width="60" height="60">
<rect width="60" height="60" fill="#D9D9D9"/>
</mask>
<g mask="url(#mask0_696_1399)">
<path d="M27 47.7459C24.8257 47.3512 22.8198 46.6212 20.9825 45.5559C19.1455 44.4902 17.5597 43.1747 16.225 41.6094C14.8903 40.0441 13.8525 38.2717 13.1115 36.2924C12.3705 34.3127 12 32.2152 12 29.9999C12 27.1206 12.6212 24.4424 13.8635 21.9654C15.1058 19.4884 16.9693 17.3204 19.454 15.4614H13.5V13.4614H23V22.9614H21V16.8189C18.654 18.4396 16.9008 20.3954 15.7405 22.6864C14.5802 24.9774 14 27.4152 14 29.9999C14 33.8179 15.1942 37.1929 17.5825 40.1249C19.9712 43.0569 23.1103 44.9139 27 45.6959V47.7459ZM27.15 37.8154L20.0845 30.7384L21.5 29.3229L27.15 34.9729L38.5 23.6229L39.9155 25.0499L27.15 37.8154ZM37 46.5769V37.0769H39V43.2189C41.3207 41.5652 43.0675 39.5947 44.2405 37.3074C45.4135 35.0204 46 32.5846 46 29.9999C46 26.1819 44.8058 22.8069 42.4175 19.8749C40.0288 16.9429 36.8897 15.0859 33 14.3039V12.2539C37.3743 13.0359 40.968 15.0731 43.781 18.3654C46.5937 21.6577 48 25.5359 48 29.9999C48 32.8792 47.3788 35.5639 46.1365 38.0539C44.8942 40.5436 43.0307 42.7179 40.546 44.5769H46.5V46.5769H37Z" fill="#1C1B1F"/>
</g>
</svg>
