<svg xmlns="http://www.w3.org/2000/svg" width="24" height="24" fill="none" viewBox="0 0 24 24">
  <path fill="#383838" fill-rule="evenodd" d="M8.99 6.28c-.782-.476-1.57-.32-2.08.104-.383.32-.6.786-.543 1.312.058.53.407 1.21 1.333 1.904a.5.5 0 1 1-.6.8c-1.074-.805-1.63-1.71-1.727-2.596a2.471 2.471 0 0 1 .897-2.188c.817-.68 2.07-.903 3.24-.189.92.562 1.73 1.665 2.27 3.445a7.53 7.53 0 0 1 1.536-.837c.294-.116.586-.177.862-.143.295.037.536.176.71.39.162.2.248.44.297.67.048.23.065.483.065.734 0 .498-.067 1.06-.129 1.557l-.006.05c.48-.38.972-.72 1.373-.97.332-.207.643-.38.846-.45a.794.794 0 0 1 .233-.05.544.544 0 0 1 .276.063.517.517 0 0 1 .271.404.545.545 0 0 1-.047.28.691.691 0 0 1-.071.121 1.388 1.388 0 0 1-.142.163c-.327.327-.3.74-.104 1.05.1.159.218.242.294.267.047.016.065.013.102-.024a.5.5 0 0 1 .708.707 1.071 1.071 0 0 1-1.126.266c-.347-.116-.632-.38-.822-.68a1.942 1.942 0 0 1-.3-1c-.577.392-1.244.905-1.752 1.414A.5.5 0 0 1 14 12.5c0-.353.058-.814.114-1.262l.015-.119c.063-.506.121-1.006.121-1.433 0-.213-.015-.39-.044-.529a.594.594 0 0 0-.093-.244c-.014-.016-.023-.024-.057-.028-.051-.007-.166-.001-.372.08a6.809 6.809 0 0 0-1.637.95c.028.134.056.27.082.41.537 2.885.396 4.949-.088 6.348-.482 1.393-1.334 2.185-2.227 2.345-.913.164-1.65-.338-2.091-1.028-.438-.686-.635-1.615-.512-2.53.06-.443.266-1.04.57-1.685a13.79 13.79 0 0 1 1.258-2.12 12.702 12.702 0 0 1 1.89-2.114c-.495-1.875-1.248-2.838-1.94-3.26Zm2.187 4.398c-.49.483-.935 1.016-1.326 1.56a12.79 12.79 0 0 0-1.166 1.964c-.286.608-.443 1.097-.483 1.392-.094.702.064 1.389.363 1.857.297.464.678.654 1.073.583.416-.075 1.048-.502 1.458-1.688.4-1.155.562-2.977.08-5.668Zm6.5.134Z" clip-rule="evenodd"/>
</svg>
