<svg width="60" height="60" viewBox="0 0 60 60" fill="none" xmlns="http://www.w3.org/2000/svg">
<mask id="mask0_696_1331" style="mask-type:alpha" maskUnits="userSpaceOnUse" x="6" y="6" width="48" height="48">
<rect x="6" y="6" width="48" height="48" fill="#D9D9D9"/>
</mask>
<g mask="url(#mask0_696_1331)">
<path d="M35.077 44V42H38.9615C39.8102 42 40.5288 41.7122 41.1175 41.1365C41.7058 40.5608 42 39.8743 42 39.077V34.846C42 33.7333 42.341 32.75 43.023 31.896C43.705 31.0423 44.582 30.4628 45.654 30.1575V29.8425C44.582 29.5372 43.705 28.9577 43.023 28.104C42.341 27.25 42 26.2667 42 25.154V20.923C42 20.1257 41.7058 19.4392 41.1175 18.8635C40.5288 18.2878 39.8102 18 38.9615 18H35.077V16H38.9615C40.3718 16 41.5642 16.4808 42.5385 17.4425C43.5128 18.4038 44 19.564 44 20.923V25.154C44 26.0027 44.307 26.7148 44.921 27.2905C45.5353 27.8662 46.2797 28.154 47.154 28.154H48V31.846H47.154C46.2797 31.846 45.5353 32.1338 44.921 32.7095C44.307 33.2852 44 33.9973 44 34.846V39.077C44 40.436 43.5128 41.5962 42.5385 42.5575C41.5642 43.5192 40.3718 44 38.9615 44H35.077ZM21.0385 44C19.6538 44 18.468 43.5192 17.481 42.5575C16.4937 41.5962 16 40.436 16 39.077V34.846C16 33.9973 15.693 33.2852 15.079 32.7095C14.4647 32.1338 13.7203 31.846 12.846 31.846H12V28.154H12.846C13.7203 28.154 14.4647 27.8662 15.079 27.2905C15.693 26.7148 16 26.0027 16 25.154V20.923C16 19.564 16.4937 18.4038 17.481 17.4425C18.468 16.4808 19.6538 16 21.0385 16H24.9615V18H21.0385C20.2155 18 19.5033 18.2878 18.902 18.8635C18.3007 19.4392 18 20.1257 18 20.923V25.154C18 26.2667 17.6653 27.25 16.996 28.104C16.327 28.9577 15.4437 29.5372 14.346 29.8425V30.1575C15.4437 30.4628 16.327 31.0423 16.996 31.896C17.6653 32.75 18 33.7333 18 34.846V39.077C18 39.8743 18.3007 40.5608 18.902 41.1365C19.5033 41.7122 20.2155 42 21.0385 42H24.9615V44H21.0385Z" fill="#1C1B1F"/>
</g>
</svg>
