<svg xmlns="http://www.w3.org/2000/svg" width="24" height="24" fill="none" viewBox="0 0 24 24">
  <path fill="#383838" fill-rule="evenodd" d="M8.5 5a.5.5 0 0 1 .468.324l2.25 6 .75 2a.5.5 0 0 1-.936.352L10.403 12H6.597l-.629 1.676a.5.5 0 0 1-.936-.352l.75-2 2.25-6A.5.5 0 0 1 8.5 5Zm-1.528 6h3.056L8.5 6.924 6.972 11Z" clip-rule="evenodd"/>
  <path fill="#446ECA" fill-rule="evenodd" d="M16.854 7.146a.5.5 0 0 0-.708.708L17.293 9H12.5a.5.5 0 0 0 0 1h4.793l-1.147 1.146a.5.5 0 0 0 .708.708l2-2a.5.5 0 0 0 0-.708l-2-2Zm0 7a.5.5 0 0 0-.708.708L17.293 16H5.5a.5.5 0 0 0 0 1h11.793l-1.147 1.146a.5.5 0 0 0 .708.708l2-2a.5.5 0 0 0 0-.708l-2-2Z" clip-rule="evenodd"/>
</svg>
