<svg xmlns="http://www.w3.org/2000/svg" width="24" height="24" fill="none" viewBox="0 0 24 24">
  <path fill="#383838" fill-rule="evenodd" d="M19 12a7 7 0 0 1-10.18 6.238 2.072 2.072 0 0 0-1.479-.167l-1.972.528.51-2.108c.121-.496.04-.99-.163-1.403A7 7 0 1 1 19 12Zm1 0a8 8 0 0 1-11.636 7.128 1.073 1.073 0 0 0-.764-.091l-2.786.745a.5.5 0 0 1-.616-.6l.71-2.926c.06-.244.022-.5-.09-.726A8 8 0 1 1 20 12ZM7.5 12a.5.5 0 1 1 1 0 .5.5 0 0 1-1 0Zm.5-1.5a1.5 1.5 0 1 0 0 3 1.5 1.5 0 0 0 0-3Zm3.5 1.5a.5.5 0 1 1 1 0 .5.5 0 0 1-1 0Zm.5-1.5a1.5 1.5 0 1 0 0 3 1.5 1.5 0 0 0 0-3Zm3.5 1.5a.5.5 0 1 1 1 0 .5.5 0 0 1-1 0Zm.5-1.5a1.5 1.5 0 1 0 0 3 1.5 1.5 0 0 0 0-3Z" clip-rule="evenodd"/>
</svg>
