<svg xmlns="http://www.w3.org/2000/svg" width="24" height="24" fill="none" viewBox="0 0 24 24">
  <path fill="#383838" fill-rule="evenodd" d="M8.5 6a.5.5 0 0 1 .47.33l1.818 5a.5.5 0 0 1-.94.34L8.5 7.964 6.305 14H8.5a.5.5 0 0 1 0 1H5.941l-.971 2.67a.5.5 0 1 1-.94-.34l1.091-3 2.91-8A.5.5 0 0 1 8.5 6Z" clip-rule="evenodd"/>
  <path fill="#446ECA" fill-rule="evenodd" d="m18.614 9.426.099.098-3.94 4.545-.71-.71 4.551-3.933Zm-5.264 3.229.004-.004 4.607-3.982a1 1 0 0 1 1.36.05l.099.098a1 1 0 0 1 .048 1.362l-3.987 4.599v.001c-.01.068-.252 1.607-2.207 2.585-1.106.553-2.518.341-3.558.042a10.076 10.076 0 0 1-.998-.347c-.1-.04-.07-.25.032-.287a2.453 2.453 0 0 0 .782-.474c.36-.315.753-.804 1.11-1.565.992-2.108 2.568-2.085 2.708-2.078Zm-.354 1.052a1.626 1.626 0 0 0-.2.074c-.327.144-.83.488-1.248 1.377a6.294 6.294 0 0 1-.913 1.443c.091.018.183.034.276.048.742.111 1.414.071 1.915-.18.812-.405 1.224-.908 1.436-1.275.029-.05.054-.098.077-.144l-.223-.223-.811-.812-.309-.308Z" clip-rule="evenodd"/>
</svg>
