<svg xmlns="http://www.w3.org/2000/svg" width="24" height="24" fill="none" viewBox="0 0 24 24">
  <path fill="#DCE7FA" d="M11.62 5.16a.4.4 0 0 1 .76 0l1.336 4.08a.4.4 0 0 0 .379.275l4.292.01a.4.4 0 0 1 .235.723l-3.467 2.53a.4.4 0 0 0-.145.446l1.317 4.085a.4.4 0 0 1-.615.447l-3.478-2.515a.4.4 0 0 0-.468 0l-3.478 2.515a.4.4 0 0 1-.615-.447l1.317-4.085a.4.4 0 0 0-.145-.446l-3.467-2.53a.4.4 0 0 1 .235-.724l4.292-.01a.4.4 0 0 0 .38-.275L11.62 5.16Z"/>
  <path fill="#446ECA" fill-rule="evenodd" d="M11.145 5.006c.27-.827 1.44-.827 1.71 0l1.313 4.01 4.22.01c.87.001 1.231 1.114.529 1.626l-3.409 2.488 1.295 4.016c.267.828-.679 1.515-1.384 1.006L12 15.689l-3.42 2.473c-.704.51-1.65-.178-1.383-1.006l1.295-4.016-3.409-2.488c-.702-.512-.34-1.625.529-1.627l4.22-.01 1.313-4.01Zm.855.601-1.24 3.789a.9.9 0 0 1-.854.62l-3.986.009 3.22 2.35a.9.9 0 0 1 .325 1.003l-1.223 3.794 3.23-2.335a.9.9 0 0 1 1.055 0l3.23 2.335-1.223-3.794a.9.9 0 0 1 .326-1.003l3.22-2.35-3.986-.01a.9.9 0 0 1-.853-.62L12 5.608Z" clip-rule="evenodd"/>
</svg>
