<svg width="60" height="60" viewBox="0 0 60 60" fill="none" xmlns="http://www.w3.org/2000/svg">
<mask id="mask0_696_1422" style="mask-type:alpha" maskUnits="userSpaceOnUse" x="0" y="0" width="60" height="60">
<rect width="60" height="60" fill="#D9D9D9"/>
</mask>
<g mask="url(#mask0_696_1422)">
<path d="M18.3925 40.969C20.0925 39.746 21.8963 38.7788 23.804 38.0675C25.7117 37.3558 27.777 37 30 37C32.223 37 34.2883 37.3558 36.196 38.0675C38.1037 38.7788 39.9075 39.746 41.6075 40.969C42.9282 39.6023 43.9903 37.9883 44.794 36.127C45.598 34.2653 46 32.223 46 30C46 25.5667 44.4417 21.7917 41.325 18.675C38.2083 15.5583 34.4333 14 30 14C25.5667 14 21.7917 15.5583 18.675 18.675C15.5583 21.7917 14 25.5667 14 30C14 32.223 14.402 34.2653 15.206 36.127C16.0097 37.9883 17.0718 39.6023 18.3925 40.969ZM30.001 31C28.3157 31 26.8942 30.4215 25.7365 29.2645C24.5788 28.1075 24 26.6863 24 25.001C24 23.3157 24.5785 21.8942 25.7355 20.7365C26.8925 19.5788 28.3137 19 29.999 19C31.6843 19 33.1058 19.5785 34.2635 20.7355C35.4212 21.8925 36 23.3137 36 24.999C36 26.6843 35.4215 28.1058 34.2645 29.2635C33.1075 30.4212 31.6863 31 30.001 31ZM30 48C27.4897 48 25.1397 47.5327 22.95 46.598C20.7603 45.6633 18.8552 44.3858 17.2345 42.7655C15.6142 41.1448 14.3367 39.2397 13.402 37.05C12.4673 34.8603 12 32.5103 12 30C12 27.4897 12.4673 25.1397 13.402 22.95C14.3367 20.7603 15.6142 18.8552 17.2345 17.2345C18.8552 15.6142 20.7603 14.3367 22.95 13.402C25.1397 12.4673 27.4897 12 30 12C32.5103 12 34.8603 12.4673 37.05 13.402C39.2397 14.3367 41.1448 15.6142 42.7655 17.2345C44.3858 18.8552 45.6633 20.7603 46.598 22.95C47.5327 25.1397 48 27.4897 48 30C48 32.5103 47.5327 34.8603 46.598 37.05C45.6633 39.2397 44.3858 41.1448 42.7655 42.7655C41.1448 44.3858 39.2397 45.6633 37.05 46.598C34.8603 47.5327 32.5103 48 30 48ZM30 46C31.8437 46 33.6578 45.6775 35.4425 45.0325C37.2268 44.3878 38.769 43.5052 40.069 42.3845C38.769 41.3408 37.2652 40.5158 35.5575 39.9095C33.8498 39.3032 31.9973 39 30 39C28.0027 39 26.1437 39.2968 24.423 39.8905C22.7027 40.4842 21.2053 41.3155 19.931 42.3845C21.231 43.5052 22.7732 44.3878 24.5575 45.0325C26.3422 45.6775 28.1563 46 30 46ZM30 29C31.123 29 32.0705 28.6142 32.8425 27.8425C33.6142 27.0705 34 26.123 34 25C34 23.877 33.6142 22.9295 32.8425 22.1575C32.0705 21.3858 31.123 21 30 21C28.877 21 27.9295 21.3858 27.1575 22.1575C26.3858 22.9295 26 23.877 26 25C26 26.123 26.3858 27.0705 27.1575 27.8425C27.9295 28.6142 28.877 29 30 29Z" fill="#1C1B1F"/>
</g>
</svg>
