<svg width="60" height="60" viewBox="0 0 60 60" fill="none" xmlns="http://www.w3.org/2000/svg">
<mask id="mask0_695_1281" style="mask-type:alpha" maskUnits="userSpaceOnUse" x="0" y="0" width="60" height="60">
<rect width="60" height="60" fill="#D9D9D9"/>
</mask>
<g mask="url(#mask0_695_1281)">
<path d="M21.231 46C20.336 46 19.5737 45.6853 18.944 45.056C18.3147 44.4263 18 43.664 18 42.769V18H16V16H24V14H36V16H44V18H42V42.769C42 43.6897 41.6917 44.4583 41.075 45.075C40.4583 45.6917 39.6897 46 38.769 46H21.231ZM40 18H20V42.769C20 43.128 20.1153 43.423 20.346 43.654C20.577 43.8847 20.872 44 21.231 44H38.769C39.077 44 39.3592 43.8718 39.6155 43.6155C39.8718 43.3592 40 43.077 40 42.769V18ZM26 40H28V22H26V40ZM32 40H34V22H32V40Z" fill="#1C1B1F"/>
</g>
</svg>
