<svg xmlns="http://www.w3.org/2000/svg" width="24" height="24" fill="none" viewBox="0 0 24 24">
  <path fill="#383838" fill-rule="evenodd" d="M10 7.5a.5.5 0 0 1 .5-.5h8a.5.5 0 0 1 0 1h-8a.5.5 0 0 1-.5-.5Zm0 5a.5.5 0 0 1 .5-.5h8a.5.5 0 0 1 0 1h-8a.5.5 0 0 1-.5-.5Zm0 5a.5.5 0 0 1 .5-.5h8a.5.5 0 0 1 0 1h-8a.5.5 0 0 1-.5-.5Z" clip-rule="evenodd"/>
  <path fill="#446ECA" fill-rule="evenodd" d="M6.691 6.038A.5.5 0 0 1 7 6.5v4a.5.5 0 1 1-1 0V7.707l-.646.647a.5.5 0 1 1-.708-.708l1.5-1.5a.5.5 0 0 1 .545-.108ZM5 15.5a1.5 1.5 0 0 1 3 0v.086a1.5 1.5 0 0 1-.44 1.06L6.208 18H7.5a.5.5 0 0 1 0 1H5.854a.854.854 0 0 1-.604-1.457l.347.347-.347-.347 1.604-1.604A.5.5 0 0 0 7 15.586V15.5a.5.5 0 0 0-1 0 .5.5 0 1 1-1 0Z" clip-rule="evenodd"/>
</svg>
