<svg xmlns="http://www.w3.org/2000/svg" width="24" height="24" fill="none" viewBox="0 0 24 24">
  <mask id="a" fill="#fff">
    <path fill-rule="evenodd" d="M9.02 14.98a5.5 5.5 0 1 1 5.96-5.96 5.5 5.5 0 1 1-5.96 5.96Z" clip-rule="evenodd"/>
  </mask>
  <path fill="#DCE7FA" fill-rule="evenodd" d="M9.02 14.98a5.5 5.5 0 1 1 5.96-5.96 5.5 5.5 0 1 1-5.96 5.96Z" clip-rule="evenodd"/>
  <path fill="#383838" d="m9.02 14.98.997-.087-.072-.838-.838-.072-.086.996Zm5.96-5.96-.997.087.072.838.838.072.086-.996Zm-5.873 4.963A4.5 4.5 0 0 1 5 9.5H3a6.5 6.5 0 0 0 5.935 6.476l.172-1.993ZM5 9.5A4.5 4.5 0 0 1 9.5 5V3A6.5 6.5 0 0 0 3 9.5h2ZM9.5 5a4.5 4.5 0 0 1 4.483 4.107l1.993-.172A6.5 6.5 0 0 0 9.5 3v2Zm5.393 5.017A4.5 4.5 0 0 1 19 14.5h2a6.5 6.5 0 0 0-5.935-6.476l-.172 1.993ZM19 14.5a4.5 4.5 0 0 1-4.5 4.5v2a6.5 6.5 0 0 0 6.5-6.5h-2ZM14.5 19a4.5 4.5 0 0 1-4.483-4.107l-1.993.172A6.5 6.5 0 0 0 14.5 21v-2Z" mask="url(#a)"/>
</svg>
