<svg xmlns="http://www.w3.org/2000/svg" width="24" height="24" fill="none" viewBox="0 0 24 24">
  <path fill="#383838" fill-rule="evenodd" d="M10 15.5a.5.5 0 0 1-.5.5H9a4 4 0 0 1 0-8h1.293L9.146 6.854a.5.5 0 1 1 .708-.708l2 2a.5.5 0 0 1 0 .708l-2 2a.5.5 0 0 1-.708-.708L10.293 9H9a3 3 0 1 0 0 6h.5a.5.5 0 0 1 .5.5Zm9-5.5a1 1 0 0 1-1 1h-3a1 1 0 0 1-1-1V7a1 1 0 0 1 1-1h3a1 1 0 0 1 1 1v3Zm-4 0h3V7h-3v3Z" clip-rule="evenodd"/>
  <path fill="#446ECA" fill-rule="evenodd" d="M12 15.5a2.5 2.5 0 1 0 5 0 2.5 2.5 0 0 0-5 0Zm2.5 1.5a1.5 1.5 0 1 1 0-3 1.5 1.5 0 0 1 0 3Z" clip-rule="evenodd"/>
</svg>
