<svg xmlns="http://www.w3.org/2000/svg" width="24" height="24" fill="none" viewBox="0 0 24 24">
  <path fill="#383838" fill-rule="evenodd" d="M5 12.5a.5.5 0 0 1 .5-.5h2a.5.5 0 0 1 0 1h-2a.5.5 0 0 1-.5-.5Zm5 0a.5.5 0 0 1 .5-.5h2a.5.5 0 0 1 0 1h-2a.5.5 0 0 1-.5-.5Zm5 0a.5.5 0 0 1 .5-.5h2a.5.5 0 0 1 0 1h-2a.5.5 0 0 1-.5-.5Z" clip-rule="evenodd"/>
  <path fill="#446ECA" fill-rule="evenodd" d="M7.038 5.309A.5.5 0 0 1 7.5 5h8a.5.5 0 0 1 .354.854l-4 4a.5.5 0 0 1-.707 0l-4-4a.5.5 0 0 1-.109-.545ZM8.708 6 11.5 8.793 14.293 6H8.707ZM7.145 19.146l4-4a.5.5 0 0 1 .708 0l4 4A.5.5 0 0 1 15.5 20h-8a.5.5 0 0 1-.354-.854ZM8.707 19h5.586L11.5 16.207 8.707 19Z" clip-rule="evenodd"/>
</svg>
