<svg xmlns="http://www.w3.org/2000/svg" width="24" height="24" fill="none" viewBox="0 0 24 24">
  <circle cx="9.5" cy="9.5" r="5" fill="#DCE7FA" stroke="#383838"/>
  <circle cx="14.5" cy="14.5" r="5" fill="#DCE7FA" stroke="#383838"/>
  <mask id="a" fill="#fff">
    <path fill-rule="evenodd" d="M9.5 15a5.5 5.5 0 0 0 5.48-5.98 5.5 5.5 0 0 0-5.96 5.96c.158.014.317.021.479.021Z" clip-rule="evenodd"/>
  </mask>
  <path fill="#fff" fill-rule="evenodd" d="M9.5 15a5.5 5.5 0 0 0 5.48-5.98 5.5 5.5 0 0 0-5.96 5.96c.158.014.317.021.479.021Z" clip-rule="evenodd"/>
  <path fill="#383838" d="m14.98 9.02.996-.085-.073-.838-.838-.073-.086.997Zm-5.96 5.96-.996.085.073.838.838.073.086-.997ZM14 9.5A4.5 4.5 0 0 1 9.5 14v2A6.5 6.5 0 0 0 16 9.5h-2Zm-.017-.393c.011.129.017.26.017.393h2c0-.19-.008-.379-.024-.565l-1.993.172ZM14.5 10c.133 0 .264.006.393.017l.172-1.993A6.57 6.57 0 0 0 14.5 8v2ZM10 14.5a4.5 4.5 0 0 1 4.5-4.5V8A6.5 6.5 0 0 0 8 14.5h2Zm.017.393A4.561 4.561 0 0 1 10 14.5H8c0 .19.008.379.024.565l1.993-.172ZM9.5 14c-.133 0-.264-.006-.393-.017l-.172 1.993c.186.016.375.024.565.024v-2Z" mask="url(#a)"/>
</svg>
