<svg xmlns="http://www.w3.org/2000/svg" width="24" height="24" fill="none" viewBox="0 0 24 24">
  <path fill="#383838" fill-rule="evenodd" d="M7.332 6.03a.5.5 0 0 1 .555.153l4.5 5.5a.5.5 0 0 1 0 .634l-4.5 5.5A.5.5 0 0 1 7 17.5V15H4.5a.5.5 0 0 1-.5-.5v-5a.5.5 0 0 1 .5-.5H7V6.5a.5.5 0 0 1 .332-.47ZM8 7.9v1.6a.5.5 0 0 1-.5.5H5v4h2.5a.5.5 0 0 1 .5.5v1.6l3.354-4.1L8 7.9Z" clip-rule="evenodd"/>
  <path fill="#446ECA" fill-rule="evenodd" d="M14.332 6.03a.5.5 0 0 1 .555.153l4.5 5.5a.5.5 0 0 1 0 .634l-4.5 5.5A.5.5 0 0 1 14 17.5V15h-1.5a.5.5 0 1 1 0-1h2a.5.5 0 0 1 .5.5v1.6l3.354-4.1L15 7.9v1.6a.5.5 0 0 1-.5.5h-2a.5.5 0 0 1 0-1H14V6.5a.5.5 0 0 1 .332-.47Z" clip-rule="evenodd"/>
</svg>
