<svg xmlns="http://www.w3.org/2000/svg" width="24" height="24" fill="none" viewBox="0 0 24 24">
  <path fill="#383838" fill-rule="evenodd" d="M15.47 6.33a.5.5 0 0 1-.3.64l-5.5 2a.5.5 0 0 1-.34-.94l5.5-2a.5.5 0 0 1 .64.3ZM5 7.5a.5.5 0 0 1 .5-.5h2a.5.5 0 0 1 .5.5v2a.5.5 0 0 1-.5.5h-2a.5.5 0 0 1-.5-.5v-2ZM6 8v1h1V8H6Zm11.582.007a.5.5 0 0 1 .411.575l-1 6a.5.5 0 1 1-.986-.164l1-6a.5.5 0 0 1 .575-.411ZM6.5 11a.5.5 0 0 1 .5.5v3a.5.5 0 1 1-1 0v-3a.5.5 0 0 1 .5-.5ZM5 16.5a.5.5 0 0 1 .5-.5h2a.5.5 0 0 1 .5.5v2a.5.5 0 0 1-.5.5h-2a.5.5 0 0 1-.5-.5v-2Zm1 .5v1h1v-1H6Zm9-.5a.5.5 0 0 1 .5-.5h2a.5.5 0 0 1 .5.5v2a.5.5 0 0 1-.5.5h-2a.5.5 0 0 1-.5-.5v-2Zm1 .5v1h1v-1h-1Zm-7.5.5A.5.5 0 0 1 9 17h5a.5.5 0 0 1 0 1H9a.5.5 0 0 1-.5-.5Z" clip-rule="evenodd"/>
  <path fill="#446ECA" fill-rule="evenodd" d="M15 5.5A1.5 1.5 0 0 1 16.5 4h2A1.5 1.5 0 0 1 20 5.5v2A1.5 1.5 0 0 1 18.5 9h-2A1.5 1.5 0 0 1 15 7.5v-2Zm1.5-.5a.5.5 0 0 0-.5.5v2a.5.5 0 0 0 .5.5h2a.5.5 0 0 0 .5-.5v-2a.5.5 0 0 0-.5-.5h-2Z" clip-rule="evenodd"/>
</svg>
