<svg xmlns="http://www.w3.org/2000/svg" width="24" height="24" viewBox="0 0 24 24" stroke="currentColor" stroke-linecap="round" stroke-linejoin="round" fill="none">
    <path d="M9.5 15.5v2.996a1 1 0 0 0 1 1h8a1 1 0 0 0 1-1V10.5a1 1 0 0 0-1-1h-3" class="icon-stroke-gray-secondary"/>
    <path d="M15.5 6.504V14.5a1 1 0 0 1-1 1h-8a1 1 0 0 1-1-1V6.504a1 1 0 0 1 1-1h8a1 1 0 0 1 1 1" fill="currentColor" class="icon-fill-blue-secondary" stroke="none"/>
    <path d="M14.5 5.5h-8a1 1 0 0 0-1 1v8a1 1 0 0 0 1 1h8a1 1 0 0 0 1-1v-8a1 1 0 0 0-1-1" class="icon-stroke-blue-primary"/>
</svg>
