<svg xmlns="http://www.w3.org/2000/svg" width="24" height="24" fill="none" viewBox="0 0 24 24">
  <path fill="#969696" fill-rule="evenodd" d="M5.5 5a.5.5 0 0 0-.5.5V7a.5.5 0 1 1-1 0V5.5A1.5 1.5 0 0 1 5.5 4H7a.5.5 0 1 1 0 1H5.5Zm4-.5A.5.5 0 0 1 10 4h3a.5.5 0 0 1 0 1h-3a.5.5 0 0 1-.5-.5Zm6 0A.5.5 0 0 1 16 4h1.5A1.5 1.5 0 0 1 19 5.5V7a.5.5 0 0 1-1 0V5.5a.5.5 0 0 0-.5-.5H16a.5.5 0 0 1-.5-.5Zm-11 5a.5.5 0 0 1 .5.5v3a.5.5 0 1 1-1 0v-3a.5.5 0 0 1 .5-.5Zm14 0a.5.5 0 0 1 .5.5v3a.5.5 0 1 1-1 0v-3a.5.5 0 0 1 .5-.5Zm-14 6a.5.5 0 0 1 .5.5v1.5a.5.5 0 0 0 .5.5H7a.5.5 0 1 1 0 1H5.5A1.5 1.5 0 0 1 4 17.5V16a.5.5 0 0 1 .5-.5Zm14 0a.5.5 0 0 1 .5.5v1.5a1.5 1.5 0 0 1-1.5 1.5H16a.5.5 0 0 1 0-1h1.5a.5.5 0 0 0 .5-.5V16a.5.5 0 0 1 .5-.5Zm-9 3a.5.5 0 0 1 .5-.5h3a.5.5 0 1 1 0 1h-3a.5.5 0 0 1-.5-.5Z" clip-rule="evenodd"/>
  <path fill="#446ECA" fill-rule="evenodd" d="M11.469 6a.5.5 0 0 1 .5.5V11h4.5a.5.5 0 0 1 0 1h-4.5v4.5a.5.5 0 0 1-1 0V12h-4.5a.5.5 0 0 1 0-1h4.5V6.5a.5.5 0 0 1 .5-.5Z" clip-rule="evenodd"/>
</svg>
