<svg xmlns="http://www.w3.org/2000/svg" width="24" height="24" fill="none" viewBox="0 0 24 24">
  <path fill="#383838" fill-rule="evenodd" d="M8 7.5A1.5 1.5 0 0 1 9.5 6h9a1.5 1.5 0 0 1 0 3h-9A1.5 1.5 0 0 1 8 7.5ZM9.5 7a.5.5 0 0 0 0 1h9a.5.5 0 0 0 0-1h-9Zm.5 5.5a1.5 1.5 0 0 1 1.5-1.5h7a1.5 1.5 0 0 1 0 3h-7a1.5 1.5 0 0 1-1.5-1.5Zm1.5-.5a.5.5 0 0 0 0 1h7a.5.5 0 0 0 0-1h-7Zm.5 5.5a1.5 1.5 0 0 1 1.5-1.5h5a1.5 1.5 0 0 1 0 3h-5a1.5 1.5 0 0 1-1.5-1.5Zm1.5-.5a.5.5 0 0 0 0 1h5a.5.5 0 0 0 0-1h-5Z" clip-rule="evenodd"/>
  <path fill="#446ECA" fill-rule="evenodd" d="M4 7.5a1.5 1.5 0 1 1 3 0 1.5 1.5 0 0 1-3 0ZM5.5 7a.5.5 0 1 0 0 1 .5.5 0 0 0 0-1Zm.5 5.5a1.5 1.5 0 1 1 3 0 1.5 1.5 0 0 1-3 0Zm1.5-.5a.5.5 0 1 0 0 1 .5.5 0 0 0 0-1Zm.5 5.5a1.5 1.5 0 1 1 3 0 1.5 1.5 0 0 1-3 0Zm1.5-.5a.5.5 0 1 0 0 1 .5.5 0 0 0 0-1Z" clip-rule="evenodd"/>
</svg>
