<svg xmlns="http://www.w3.org/2000/svg" width="24" height="24" fill="none" viewBox="0 0 24 24">
  <path fill="#383838" fill-rule="evenodd" d="M13.354 6.354a3.036 3.036 0 0 1 4.293 4.293l-1.793 1.793a.5.5 0 0 1-.707 0l-.293-.293a.5.5 0 0 0-.707.707l.292.293a1.5 1.5 0 0 0 2.122 0l1.793-1.793a4.036 4.036 0 0 0-5.707-5.707L10.854 7.44a1.5 1.5 0 0 0 0 2.121l.293.293a.5.5 0 1 0 .707-.707l-.293-.293a.5.5 0 0 1 0-.707l1.793-1.793Zm1.5 2.793a.5.5 0 0 1 0 .707l-5 5a.5.5 0 1 1-.708-.707l5-5a.5.5 0 0 1 .708 0Zm-7.415 1.707a1.5 1.5 0 0 1 2.122 0l.293.293a.5.5 0 0 1-.708.707l-.292-.293a.5.5 0 0 0-.708 0l-1.792 1.793a3.036 3.036 0 1 0 4.292 4.293l1.793-1.793a.5.5 0 0 0 0-.707l-.293-.293a.5.5 0 1 1 .708-.707l.293.293a1.5 1.5 0 0 1 0 2.121l-1.793 1.793a4.036 4.036 0 1 1-5.708-5.707l1.793-1.793Z" clip-rule="evenodd"/>
</svg>
