<svg width="60" height="60" viewBox="0 0 60 60" fill="none" xmlns="http://www.w3.org/2000/svg">
<mask id="mask0_696_1415" style="mask-type:alpha" maskUnits="userSpaceOnUse" x="0" y="0" width="60" height="60">
<rect x="60" width="60" height="60" transform="rotate(90 60 0)" fill="#D9D9D9"/>
</mask>
<g mask="url(#mask0_696_1415)">
<path d="M11 11L19 11L19 13.9996L41 13.9996L41 11L49 11L49 19L46 19L46 41L49 41L49 49L41 49L41 45.9996L19 45.9996L19 49L11 49L11 41L14 41L14 19L11 19L11 11ZM16 19L16 41L19 41L19.2309 43.9996L41 43.9996L41 41L44 41L44 19L41 19L41 15.9996L19 15.9996L19 19L16 19ZM21.9999 22.3306L40 29.3611L40 30.6381L21.9999 37.7456L21.9999 35.7996L27 33.7381L27 26.2841L21.9999 24.2226L21.9999 22.3306ZM29 26.8766L29 33.1226L36.854 30.0611L36.854 29.8611L29 26.8766ZM43 13L43 17L47 17L47 13L43 13ZM43 43L43 47L47 47L47 43L43 43ZM13 43L13 47L17 47L17 43L13 43ZM13 13L13 17L17 17L17 13L13 13Z" fill="#1C1B1F"/>
</g>
</svg>
