<svg xmlns="http://www.w3.org/2000/svg" width="24" height="24" fill="none" viewBox="0 0 24 24">
  <path fill="#383838" fill-rule="evenodd" d="M17.496 6.004H6.504a.5.5 0 0 0-.5.5v10.815l5.658-5.187a.5.5 0 0 1 .676 0l5.658 5.187V6.504a.5.5 0 0 0-.5-.5Zm-.24 11.993L12 13.178l-5.256 4.819h10.512ZM6.504 5.004h10.992a1.5 1.5 0 0 1 1.5 1.5v10.993a1.5 1.5 0 0 1-1.5 1.5H6.504a1.5 1.5 0 0 1-1.5-1.5V6.504a1.5 1.5 0 0 1 1.5-1.5ZM14.5 9a.5.5 0 1 0 0 1 .5.5 0 0 0 0-1Zm-1.5.5a1.5 1.5 0 1 1 3 0 1.5 1.5 0 0 1-3 0Z" clip-rule="evenodd"/>
</svg>
