<svg width="60" height="60" viewBox="0 0 60 60" fill="none" xmlns="http://www.w3.org/2000/svg">
<mask id="mask0_696_1424" style="mask-type:alpha" maskUnits="userSpaceOnUse" x="0" y="0" width="60" height="60">
<rect width="60" height="60" fill="#D9D9D9"/>
</mask>
<g mask="url(#mask0_696_1424)">
<path d="M29.923 46C25.8617 46 22.3214 44.6737 19.302 42.021C16.2827 39.3687 14.5359 36.0283 14.0615 32H16.0845C16.6282 35.441 18.1955 38.3013 20.7865 40.581C23.3775 42.8603 26.423 44 29.923 44C33.823 44 37.1314 42.6417 39.848 39.925C42.5647 37.2083 43.923 33.9 43.923 30C43.923 26.1 42.5647 22.7917 39.848 20.075C37.1314 17.3583 33.823 16 29.923 16C27.8537 16 25.9089 16.4372 24.0885 17.3115C22.2679 18.1858 20.6614 19.3897 19.269 20.923H24.231V22.923H15.923V14.6155H17.923V19.3925C19.4694 17.6948 21.2815 16.3717 23.3595 15.423C25.4379 14.4743 27.6257 14 29.923 14C32.141 14 34.2199 14.4173 36.1595 15.252C38.0992 16.0867 39.794 17.229 41.244 18.679C42.694 20.129 43.8364 21.8238 44.671 23.7635C45.5057 25.7032 45.923 27.782 45.923 30C45.923 32.218 45.5057 34.2968 44.671 36.2365C43.8364 38.1762 42.694 39.871 41.244 41.321C39.794 42.771 38.0992 43.9133 36.1595 44.748C34.2199 45.5827 32.141 46 29.923 46ZM36.331 37.7075L27.923 30.4905V20.075H29.923V29.6595L37.746 36.2925L36.331 37.7075Z" fill="#1C1B1F"/>
</g>
</svg>
