<svg xmlns="http://www.w3.org/2000/svg" width="24" height="24" viewBox="0 0 24 24"  stroke="currentColor" stroke-linecap="round" stroke-linejoin="round" fill="none">
    <path d="M18.5 9.5v-3a1 1 0 0 0-1-1h-12a1 1 0 0 0-1 1v9a1 1 0 0 0 1 1h1.9a.1.1 0 0 1 .1.1v2.659a.1.1 0 0 0 .17.07l2.537-2.536a1 1 0 0 1 .707-.293h.586m-4-4h4m-4-3h8" class="icon-stroke-gray-primary"/>
    <path d="M17.498 11a4.498 4.498 0 1 1 0 8.996 4.498 4.498 0 0 1 0-8.996Zm.002 2a.5.5 0 0 0-.5.5V15h-1.5a.5.5 0 0 0 0 1H17v1.5a.5.5 0 0 0 1 0V16h1.5a.5.5 0 0 0 0-1H18v-1.5a.5.5 0 0 0-.5-.5Z" fill="currentColor" stroke="none" class="icon-fill-blue-primary"/>
</svg>
