<svg xmlns="http://www.w3.org/2000/svg" width="24" height="24" fill="none" viewBox="0 0 24 24">
  <path fill="#383838" fill-rule="evenodd" d="M7 6.5A1.5 1.5 0 0 1 8.5 5h7A1.5 1.5 0 0 1 17 6.5V8h1.5A1.5 1.5 0 0 1 20 9.5v1a.5.5 0 0 1-1 0v-1a.5.5 0 0 0-.5-.5h-13a.5.5 0 0 0-.5.5v5.002a.5.5 0 0 0 .5.5H7v-2.348a.65.65 0 0 1 .65-.65H9.5a.5.5 0 0 1 0 1H8V17.5a.5.5 0 0 0 .5.5h1a.5.5 0 0 1 0 1h-1A1.5 1.5 0 0 1 7 17.5v-1.498H5.5a1.5 1.5 0 0 1-1.5-1.5V9.5A1.5 1.5 0 0 1 5.5 8H7V6.5ZM8 8h8V6.5a.5.5 0 0 0-.5-.5h-7a.5.5 0 0 0-.5.5V8Z" clip-rule="evenodd"/>
  <path fill="#446ECA" fill-rule="evenodd" d="M15.502 12a3.502 3.502 0 1 0 0 7.004 3.502 3.502 0 0 0 0-7.004ZM11 15.502a4.502 4.502 0 1 1 9.004 0 4.502 4.502 0 0 1-9.004 0Zm6.87-2.013a.5.5 0 0 1 .155.69l-1.915 3.028a.75.75 0 0 1-1.23.053l-1.176-1.546a.5.5 0 1 1 .796-.605l.957 1.26 1.723-2.724a.5.5 0 0 1 .69-.156Z" clip-rule="evenodd"/>
</svg>
