<svg width="60" height="60" viewBox="0 0 60 60" fill="none" xmlns="http://www.w3.org/2000/svg">
<mask id="mask0_695_1315" style="mask-type:alpha" maskUnits="userSpaceOnUse" x="0" y="0" width="60" height="60">
<rect width="60" height="60" fill="#D9D9D9"/>
</mask>
<g mask="url(#mask0_695_1315)">
<path d="M33.2 33.3844L28 28.1844L18.231 37.9539C18 38.1846 17.8845 38.4666 17.8845 38.7999C17.8845 39.1333 18 39.4153 18.231 39.6459L21.7385 43.1539C21.9691 43.3846 22.2511 43.4999 22.5845 43.4999C22.9178 43.4999 23.2 43.3846 23.431 43.1539L33.2 33.3844ZM29.427 26.7574L34.627 31.9574L44.5 22.0844C44.7306 21.8538 44.846 21.5589 44.846 21.1999C44.846 20.8409 44.7306 20.5461 44.5 20.3154L41.069 16.8844C40.8383 16.6538 40.5435 16.5384 40.1845 16.5384C39.8255 16.5384 39.5306 16.6538 39.3 16.8844L29.427 26.7574ZM27.304 26.0499L35.3345 34.0809L24.846 44.5689C24.2 45.2153 23.4461 45.5384 22.5845 45.5384C21.7231 45.5384 20.9693 45.2153 20.323 44.5689L19.9155 44.1614L18.0768 46H12.5383L17.146 41.3924L16.8155 41.0614C16.1691 40.4154 15.846 39.6616 15.846 38.7999C15.846 37.9383 16.1691 37.1844 16.8155 36.5384L27.304 26.0499ZM27.304 26.0499L37.923 15.4309C38.5693 14.7846 39.3231 14.4614 40.1845 14.4614C41.0461 14.4614 41.8 14.7846 42.446 15.4309L45.954 18.9384C46.6 19.5844 46.923 20.3383 46.923 21.1999C46.923 22.0616 46.6 22.8154 45.954 23.4614L35.3345 34.0809L27.304 26.0499Z" fill="#1C1B1F"/>
</g>
</svg>
