<svg xmlns="http://www.w3.org/2000/svg" width="24" height="24" fill="none" viewBox="0 0 24 24">
  <path fill="#383838" fill-rule="evenodd" d="M7.5 5a.5.5 0 0 0-.5.5v12a.5.5 0 0 0 .5.5h1a.5.5 0 0 1 0 1h-1A1.5 1.5 0 0 1 6 17.5v-12A1.5 1.5 0 0 1 7.5 4h6a.5.5 0 0 1 .354.146l4 4A.5.5 0 0 1 18 8.5v1a.5.5 0 0 1-1 0V9h-3.4a.6.6 0 0 1-.6-.6V5H7.5Zm6.5.707L16.293 8H14V5.707Z" clip-rule="evenodd"/>
  <path fill="#446ECA" fill-rule="evenodd" d="M11.004 15.502a3.498 3.498 0 1 1 6.996 0 3.498 3.498 0 0 1-6.996 0Zm3.498-4.498a4.498 4.498 0 1 0 0 8.996 4.498 4.498 0 0 0 0-8.996ZM15 13.5a.5.5 0 0 0-1 0V15h-1.5a.5.5 0 0 0 0 1H14v1.5a.5.5 0 0 0 1 0V16h1.5a.5.5 0 0 0 0-1H15v-1.5Z" clip-rule="evenodd"/>
</svg>
