<svg xmlns="http://www.w3.org/2000/svg" width="24" height="24" fill="none" viewBox="0 0 24 24">
  <path fill="#383838" fill-rule="evenodd" d="M8.5 6A1.5 1.5 0 0 0 7 7.5v2A1.5 1.5 0 0 0 8.5 11h6A1.5 1.5 0 0 0 16 9.5v-2A1.5 1.5 0 0 0 14.5 6h-6ZM8 7.5a.5.5 0 0 1 .5-.5h6a.5.5 0 0 1 .5.5v2a.5.5 0 0 1-.5.5h-6a.5.5 0 0 1-.5-.5v-2ZM5.5 16a.5.5 0 0 0-.5.5v2a.5.5 0 0 0 .5.5h2a.5.5 0 0 0 .5-.5v-2a.5.5 0 0 0-.5-.5h-2Zm.5 2v-1h1v1H6Zm4-1.5a.5.5 0 0 1 .5-.5h2a.5.5 0 0 1 .5.5v2a.5.5 0 0 1-.5.5h-2a.5.5 0 0 1-.5-.5v-2Zm1 .5v1h1v-1h-1Zm4.5-1a.5.5 0 0 0-.5.5v2a.5.5 0 0 0 .5.5h2a.5.5 0 0 0 .5-.5v-2a.5.5 0 0 0-.5-.5h-2Zm.5 2v-1h1v1h-1Z" clip-rule="evenodd"/>
  <path fill="#446ECA" fill-rule="evenodd" d="M11 14v2h1v-2h3.5a.5.5 0 0 1 .5.5V16h1v-1.5a1.5 1.5 0 0 0-1.5-1.5H12v-2h-1v2H7.5A1.5 1.5 0 0 0 6 14.5V16h1v-1.5a.5.5 0 0 1 .5-.5H11Z" clip-rule="evenodd"/>
</svg>
