<svg width="60" height="60" viewBox="0 0 60 60" fill="none" xmlns="http://www.w3.org/2000/svg">
<mask id="mask0_696_1366" style="mask-type:alpha" maskUnits="userSpaceOnUse" x="0" y="0" width="60" height="60">
<rect width="60" height="60" transform="matrix(-1 0 0 1 60 0)" fill="#D9D9D9"/>
</mask>
<g mask="url(#mask0_696_1366)">
<path d="M39.9374 42.0003V40.0003H25.2259C23.2097 40.0003 21.4919 39.2888 20.0725 37.8658C18.6534 36.4428 17.8749 35.1139 17.8749 33.0626C17.8749 31.0113 18.6404 29.5546 20.0595 28.1442C21.4789 26.7339 23.1967 26.0287 25.2129 26.0287L40.9013 26.0286L35.137 31.9596L36.5128 33.3751L44.6249 25.0286L36.5128 16.6826L35.137 18.0981L40.9013 24.0286L25.2129 24.0287C22.6683 24.0287 20.4944 24.9314 18.6914 26.7367C16.8884 28.5417 15.9309 30.4676 15.9309 33.0626C15.9309 35.6573 16.9015 37.4553 18.7045 39.2733C20.5075 41.0913 22.6813 42.0003 25.2259 42.0003H39.9374Z" fill="#1C1B1F"/>
</g>
</svg>
