<svg xmlns="http://www.w3.org/2000/svg" width="24" height="24" viewBox="0 0 24 24" fill="currentColor">
    <g class="icon-blue-secondary">
      <path d="M16.117 9.244a5.481 5.481 0 0 1 1.78.933A5.487 5.487 0 0 1 20 14.5a5.49 5.49 0 0 1-.542 2.385 5.51 5.51 0 0 1-3.85 3.004 5.529 5.529 0 0 1-2.837-.167l-.116-.04a5.485 5.485 0 0 1-1.489-.808 5.535 5.535 0 0 1-1.922-2.757l-.038-.125c.098.004.195.008.294.008a6.5 6.5 0 0 0 6.492-6.794l.125.038Z"/>
      <path d="M14.5 9c.16 0 .32.008.477.021a5.5 5.5 0 0 1-5.956 5.956A5.5 5.5 0 0 1 14.5 9Z"/>
      <path d="M9.5 4c.593 0 1.164.095 1.7.269l.102.033a5.488 5.488 0 0 1 2.166 1.392 5.493 5.493 0 0 1 1.324 2.312 6.5 6.5 0 0 0-6.786 6.786 5.493 5.493 0 0 1-2.784-1.839A5.5 5.5 0 0 1 9.5 4Z"/>
    </g>
    <g class="icon-blue-primary">
      <path d="M15.992 9.206A5.501 5.501 0 0 1 14.5 20a5.501 5.501 0 0 1-5.294-4.008c.098.004.195.008.294.008.251 0 .499-.016.742-.044a4.5 4.5 0 1 0 5.714-5.714 6.565 6.565 0 0 0 .036-1.036Z"/>
      <path d="M14.5 9c.16 0 .32.008.477.021a5.5 5.5 0 0 1-5.956 5.956 5.5 5.5 0 0 1 4.953-5.952h.013c.17-.016.34-.025.513-.025Zm-.533 1.032a4.5 4.5 0 0 0-3.935 3.935 4.498 4.498 0 0 0 3.935-3.935Z"/>
      <path d="M9.5 4a5.5 5.5 0 0 1 5.293 4.007 6.61 6.61 0 0 0-1.036.036 4.5 4.5 0 1 0-5.714 5.714 6.569 6.569 0 0 0-.036 1.036A5.5 5.5 0 0 1 9.5 4Z"/>
    </g>
</svg>
