<svg xmlns="http://www.w3.org/2000/svg" viewBox="0 0 24 24" width="24" height="24" stroke="currentColor" stroke-linecap="round" stroke-linejoin="round" fill="none">
    <path d="M12 4.5a7.5 7.5 0 1 1-3.019 14.368l-.39-.185a1.589 1.589 0 0 0-.975-.16l-.145.03-2.786.746.709-2.926a1.556 1.556 0 0 0-.073-.941l-.053-.122A7.5 7.5 0 0 1 12 4.5Z" class="icon-gray-primary"/>
    <path d="M9 12a1 1 0 1 1-2 0 1 1 0 0 1 2 0Zm4 0a1 1 0 1 1-2 0 1 1 0 0 1 2 0Zm4 0a1 1 0 1 1-2 0 1 1 0 0 1 2 0Z" class="icon-gray-primary"/>
</svg>
