<svg xmlns="http://www.w3.org/2000/svg" width="24" height="24" viewBox="0 0 24 24" stroke="currentColor" stroke-linecap="round" stroke-linejoin="round" fill="none">
    <path d="M15.498 11a4.498 4.498 0 1 1 0 8.996 4.498 4.498 0 0 1 0-8.996Zm.002 2a.5.5 0 0 0-.5.5V15h-1.5a.5.5 0 0 0 0 1H15v1.5a.5.5 0 0 0 1 0V16h1.5a.5.5 0 0 0 0-1H16v-1.5a.5.5 0 0 0-.5-.5Z" stroke="none" fill="currentColor" class="icon-blue-primary"/>
    <path d="m9.5 17.5-1.83 1.83a.1.1 0 0 1-.17-.071V16.6a.1.1 0 0 0-.1-.1H5.5a1 1 0 0 1-1-1v-9a1 1 0 0 1 1-1h13a1 1 0 0 1 1 1v4m-12 2h2m-2-3h8" class="icon-gray-primary"/>
</svg>
