<svg xmlns="http://www.w3.org/2000/svg" width="24" height="24" viewBox="0 0 24 24" fill="none">
    <path stroke="currentColor" d="M14.5 9.5a5 5 0 0 1-5 5m5-5a5 5 0 1 0-5 5m5-5a5 5 0 0 0-5 5m5-5a5 5 0 1 1-5 5" class="icon-gray-secondary"/>
    <path d="M14.5 9c.16 0 .32.008.477.021a5.5 5.5 0 0 1-5.956 5.956A5.5 5.5 0 0 1 14.5 9Z" fill="currentColor" class="icon-blue-secondary"/>
    <path d="M14.5 9c.16 0 .32.008.477.021a5.5 5.5 0 0 1-5.956 5.956 5.5 5.5 0 0 1 4.953-5.952h.013c.17-.016.34-.025.513-.025Zm-.533 1.032a4.5 4.5 0 0 0-3.935 3.935 4.498 4.498 0 0 0 3.935-3.935Z" fill="currentColor" class="icon-blue-primary"/>
</svg>
