<svg xmlns="http://www.w3.org/2000/svg" width="24" height="24" fill="none" viewBox="0 0 24 24">
  <path fill="#383838" fill-rule="evenodd" d="M18.496 7.004H5.504a.5.5 0 0 0-.5.5v9.993a.5.5 0 0 0 .5.5h12.992a.5.5 0 0 0 .5-.5V7.504a.5.5 0 0 0-.5-.5Zm-12.992-1h12.992a1.5 1.5 0 0 1 1.5 1.5v9.993a1.5 1.5 0 0 1-1.5 1.5H5.504a1.5 1.5 0 0 1-1.5-1.5V7.504a1.5 1.5 0 0 1 1.5-1.5Z" clip-rule="evenodd"/>
  <path fill="#446ECA" fill-rule="evenodd" d="M10 15v3H9v-3H5v-1h4v-3H5v-1h4V7h1v3h4V7h1v3h4v1h-4v3h4v1h-4v3h-1v-3h-4Zm0-1h4v-3h-4v3Z" clip-rule="evenodd"/>
</svg>
