<svg xmlns="http://www.w3.org/2000/svg" width="24" height="24" fill="none" viewBox="0 0 24 24">
  <path fill="#383838" fill-rule="evenodd" d="M10.646 4.646a.5.5 0 0 1 .708 0l4.5 4.5a.5.5 0 0 1-.708.708L11 5.707l-4 4V18h2.5a.5.5 0 0 1 0 1h-3a.5.5 0 0 1-.5-.5v-9a.5.5 0 0 1 .146-.354l4.5-4.5Z" clip-rule="evenodd"/>
  <path fill="#EF4444" fill-rule="evenodd" d="M12.004 15.502a3.498 3.498 0 1 1 6.996 0 3.498 3.498 0 0 1-6.996 0Zm3.498-4.498a4.498 4.498 0 1 0 0 8.996 4.498 4.498 0 0 0 0-8.996Zm-1.148 2.642a.5.5 0 0 0-.708.708l1.147 1.146-1.146 1.146a.5.5 0 0 0 .707.708l1.146-1.147 1.146 1.147a.5.5 0 0 0 .708-.708L16.207 15.5l1.147-1.146a.5.5 0 0 0-.708-.708L15.5 14.793l-1.146-1.147Z" clip-rule="evenodd"/>
</svg>
