<svg width="60" height="60" viewBox="0 0 60 60" fill="none" xmlns="http://www.w3.org/2000/svg">
<mask id="mask0_695_1294" style="mask-type:alpha" maskUnits="userSpaceOnUse" x="0" y="0" width="60" height="60">
<rect width="60" height="60" fill="#D9D9D9"/>
</mask>
<g mask="url(#mask0_695_1294)">
<path d="M17.231 48C16.3103 48 15.5417 47.6916 14.925 47.075C14.3083 46.4583 14 45.6896 14 44.769V19.231C14 18.3103 14.3083 17.5416 14.925 16.925C15.5417 16.3083 16.3103 16 17.231 16L20 16V12H22V16H38V12H40V16H42.769C43.6897 16 44.4583 16.3083 45.075 16.925C45.6917 17.5416 46 18.3103 46 19.231V44.769C46 45.6896 45.6917 46.4583 45.075 47.075C44.4583 47.6916 43.6897 48 42.769 48H17.231ZM17.231 46H42.769C43.077 46 43.3592 45.8718 43.6155 45.6155C43.8718 45.3591 44 45.077 44 44.769V26H16V44.769C16 45.077 16.1282 45.3591 16.3845 45.6155C16.6408 45.8718 16.923 46 17.231 46ZM16 24H44V19.231C44 18.923 43.8718 18.6408 43.6155 18.3845C43.3592 18.1281 43.077 18 42.769 18H17.231C16.923 18 16.6408 18.1281 16.3845 18.3845C16.1282 18.6408 16 18.923 16 19.231V24Z" fill="#1C1B1F"/>
<path d="M20 30H24V34H20V30Z" fill="#1C1B1F"/>
<path d="M28 30H32V34H28V30Z" fill="#1C1B1F"/>
<path d="M36 30H40V34H36V30Z" fill="#1C1B1F"/>
<path d="M20 38H24V42H20V38Z" fill="#1C1B1F"/>
<path d="M28 38H32V42H28V38Z" fill="#1C1B1F"/>
<path d="M36 38H40V42H36V38Z" fill="#1C1B1F"/>
</g>
</svg>
