<svg width="60" height="60" viewBox="0 0 60 60" fill="none" xmlns="http://www.w3.org/2000/svg">
<mask id="mask0_696_1409" style="mask-type:alpha" maskUnits="userSpaceOnUse" x="0" y="0" width="60" height="60">
<rect width="60" height="60" fill="#D9D9D9"/>
</mask>
<g mask="url(#mask0_696_1409)">
<path fill-rule="evenodd" clip-rule="evenodd" d="M25.8729 16L16 42H18.2615L21.061 34H32.891L34.346 38.2816C34.3865 38.1757 34.4305 38.0709 34.4781 37.967C34.7968 37.2709 35.2209 36.6462 35.7505 36.0931L35.7686 36.0757L28.2069 16H25.8729ZM32.2576 32H21.7987L27.012 18.646L32.2576 32Z" fill="#1C1B1F"/>
<path d="M41.0938 47.0312C39.4245 47.0312 38.0072 46.4717 36.8419 45.3526C35.6765 44.2335 35.0938 42.8551 35.0938 41.2174C35.0938 40.4342 35.2531 39.6945 35.5718 38.9982C35.8905 38.3021 36.3147 37.6775 36.8443 37.1243L41.0938 33.0312L45.3433 37.1243C45.8728 37.6775 46.297 38.3021 46.6157 38.9982C46.9344 39.6945 47.0938 40.4342 47.0938 41.2174C47.0938 42.8551 46.511 44.2335 45.3456 45.3526C44.1803 46.4717 42.763 47.0312 41.0938 47.0312ZM36.0103 41.9757H46.1674C46.3388 40.9646 46.2396 40.0956 45.8698 39.3686C45.5 38.6415 45.1223 38.0955 44.7366 37.7304L41.0938 34.1915L37.4509 37.7304C37.0652 38.0955 36.6893 38.6415 36.3233 39.3686C35.9575 40.0956 35.8531 40.9646 36.0103 41.9757Z" fill="#5C89FF"/>
</g>
</svg>
