<svg xmlns="http://www.w3.org/2000/svg" width="24" height="24" fill="none" viewBox="0 0 24 24">
  <path fill="#383838" fill-rule="evenodd" d="M15 6.004V9h2.996V6.504a.5.5 0 0 0-.5-.5H15ZM17.996 10H15v4h2.996v-4Zm0 5H15v2.997h2.496a.5.5 0 0 0 .5-.5V15ZM14 17.997V15h-4v2.997h4Zm-5 0V15H6.004v2.497a.5.5 0 0 0 .5.5H9ZM6.004 14H9v-4H6.004v4Zm0-5H9V6.004H6.504a.5.5 0 0 0-.5.5V9ZM10 6.004V9h4V6.004h-4ZM14 10h-4v4h4v-4Zm.5-4.996h2.996a1.5 1.5 0 0 1 1.5 1.5v10.993a1.5 1.5 0 0 1-1.5 1.5H6.504a1.5 1.5 0 0 1-1.5-1.5V6.504a1.5 1.5 0 0 1 1.5-1.5H14.5Z" clip-rule="evenodd"/>
</svg>
