<svg xmlns="http://www.w3.org/2000/svg" width="24" height="24" fill="none" viewBox="0 0 24 24">
  <path fill="#383838" fill-rule="evenodd" d="M5 5.5a.5.5 0 0 1 .5-.5h2a.5.5 0 0 1 0 1H6v1.5a.5.5 0 0 1-1 0v-2Zm5 0a.5.5 0 0 1 .5-.5h3a.5.5 0 0 1 0 1h-3a.5.5 0 0 1-.5-.5Zm6 0a.5.5 0 0 1 .5-.5h2a.5.5 0 0 1 .5.5v2a.5.5 0 0 1-1 0V6h-1.5a.5.5 0 0 1-.5-.5ZM5.5 10a.5.5 0 0 1 .5.5v3a.5.5 0 0 1-1 0v-3a.5.5 0 0 1 .5-.5Zm0 6a.5.5 0 0 1 .5.5V18h1.5a.5.5 0 0 1 0 1h-2a.5.5 0 0 1-.5-.5v-2a.5.5 0 0 1 .5-.5Z" clip-rule="evenodd"/>
  <path fill="#446ECA" fill-rule="evenodd" d="M10.164 10.13a.5.5 0 0 1 .54-.087l9 4a.5.5 0 0 1-.028.925l-3.831 1.437-1.91 3.343a.5.5 0 0 1-.91-.09l-3-9a.5.5 0 0 1 .139-.528Zm1.169 1.287 2.288 6.864 1.445-2.53a.5.5 0 0 1 .258-.22l2.857-1.07-6.848-3.044Z" clip-rule="evenodd"/>
</svg>
