<svg xmlns="http://www.w3.org/2000/svg" width="24" height="24" fill="none" viewBox="0 0 24 24">
  <path fill="#383838" fill-rule="evenodd" d="M6.5 6.004a.5.5 0 0 0-.5.5V12.5a.5.5 0 0 0 .5.5h1a.5.5 0 0 1 0 1h-1A1.5 1.5 0 0 1 5 12.5V6.504a1.5 1.5 0 0 1 1.5-1.5h6a1.5 1.5 0 0 1 1.5 1.5V7.5a.5.5 0 0 1-1 0v-.996a.5.5 0 0 0-.5-.5h-6Zm5 5a.5.5 0 0 0-.5.5V17.5a.5.5 0 0 0 .5.5h6a.5.5 0 0 0 .5-.5v-5.996a.5.5 0 0 0-.5-.5h-6Zm-1.5.5a1.5 1.5 0 0 1 1.5-1.5h6a1.5 1.5 0 0 1 1.5 1.5V17.5a1.5 1.5 0 0 1-1.5 1.5h-6a1.5 1.5 0 0 1-1.5-1.5v-5.996Z" clip-rule="evenodd"/>
</svg>
