<svg xmlns="http://www.w3.org/2000/svg" width="24" height="24" fill="none" viewBox="0 0 24 24">
  <path fill="#383838" fill-rule="evenodd" d="M8.724 10.447a.5.5 0 1 0-.448-.894l-3 1.5a.5.5 0 0 0 0 .894l6 3a.5.5 0 0 0 .448 0l6-3a.5.5 0 0 0 0-.894l-3-1.5a.5.5 0 1 0-.448.894l2.106 1.053-4.882 2.441-4.882-2.44 2.106-1.054Zm-1.5 4.75a.5.5 0 1 0-.448-.894l-1.5.75a.5.5 0 0 0 0 .894l6 3a.5.5 0 0 0 .448 0l6-3a.5.5 0 0 0 0-.894l-1.5-.75a.5.5 0 1 0-.448.894l.606.303-4.882 2.441-4.882-2.44.606-.304Z" clip-rule="evenodd"/>
  <path fill="#446ECA" fill-rule="evenodd" d="M11.146 5.146a.5.5 0 0 1 .708 0l2 2a.5.5 0 0 1-.708.708L12 6.707V11.5a.5.5 0 0 1-1 0V6.707L9.854 7.854a.5.5 0 1 1-.708-.708l2-2Z" clip-rule="evenodd"/>
</svg>
