<svg xmlns="http://www.w3.org/2000/svg" width="24" height="24" fill="none" viewBox="0 0 24 24">
  <path fill="#383838" fill-rule="evenodd" d="M12 4a.5.5 0 0 1 .464.314l2.8 7 1.2 3a.5.5 0 0 1-.928.372L14.46 12H9.54l-1.075 2.686a.5.5 0 1 1-.928-.372l1.2-3 2.8-7A.5.5 0 0 1 12 4Zm-2.061 7h4.123L12 5.846 9.939 11ZM6.5 18.5l-.32-.384a.5.5 0 0 0 .64.768l.003-.002.017-.014.072-.056c.066-.05.165-.123.294-.212a9.82 9.82 0 0 1 1.108-.654C9.259 17.467 10.555 17 12 17c1.445 0 2.74.467 3.686.946.471.238.849.476 1.108.654a7.225 7.225 0 0 1 .366.268l.017.014.003.002a.5.5 0 0 0 .64-.768l-.32.384.32-.384-.001-.001-.003-.002-.007-.006-.025-.02a8.196 8.196 0 0 0-.425-.312c-.288-.197-.704-.46-1.221-.721C15.108 16.533 13.654 16 12 16s-3.108.533-4.138 1.054a10.83 10.83 0 0 0-1.221.721 8.17 8.17 0 0 0-.425.312l-.025.02-.007.006-.003.002.319.385Z" clip-rule="evenodd"/>
</svg>
