<svg xmlns="http://www.w3.org/2000/svg" width="24" height="24" fill="none" viewBox="0 0 24 24">
  <path fill="#383838" fill-rule="evenodd" d="M6.5 6a.5.5 0 0 0-.5.5v3a.5.5 0 0 0 .5.5h3a.5.5 0 0 0 .5-.5v-3a.5.5 0 0 0-.5-.5h-3ZM5 6.5A1.5 1.5 0 0 1 6.5 5h3A1.5 1.5 0 0 1 11 6.5v3A1.5 1.5 0 0 1 9.5 11h-3A1.5 1.5 0 0 1 5 9.5v-3ZM6.5 14a.5.5 0 0 0-.5.5v3a.5.5 0 0 0 .5.5h3a.5.5 0 0 0 .5-.5v-3a.5.5 0 0 0-.5-.5h-3Zm-1.5.5A1.5 1.5 0 0 1 6.5 13h3a1.5 1.5 0 0 1 1.5 1.5v3A1.5 1.5 0 0 1 9.5 19h-3A1.5 1.5 0 0 1 5 17.5v-3Zm9.5-.5a.5.5 0 0 0-.5.5v3a.5.5 0 0 0 .5.5h3a.5.5 0 0 0 .5-.5v-3a.5.5 0 0 0-.5-.5h-3Zm-1.5.5a1.5 1.5 0 0 1 1.5-1.5h3a1.5 1.5 0 0 1 1.5 1.5v3a1.5 1.5 0 0 1-1.5 1.5h-3a1.5 1.5 0 0 1-1.5-1.5v-3Z" clip-rule="evenodd"/>
  <path fill="#446ECA" fill-rule="evenodd" d="M12.99 8.147a.5.5 0 0 0 0 .707l2.12 2.121a.5.5 0 0 0 .708 0l2.121-2.121a.5.5 0 0 0 0-.707l-2.121-2.122a.5.5 0 0 0-.707 0L12.99 8.147Zm-.707 1.414a1.5 1.5 0 0 1 0-2.121l2.12-2.122a1.5 1.5 0 0 1 2.122 0l2.121 2.122a1.5 1.5 0 0 1 0 2.12l-2.12 2.122a1.5 1.5 0 0 1-2.122 0l-2.121-2.121Z" clip-rule="evenodd"/>
</svg>
