<svg width="60" height="60" viewBox="0 0 60 60" fill="none" xmlns="http://www.w3.org/2000/svg">
<mask id="mask0_695_1304" style="mask-type:alpha" maskUnits="userSpaceOnUse" x="0" y="0" width="60" height="60">
<rect width="60" height="60" fill="#D9D9D9"/>
</mask>
<g mask="url(#mask0_695_1304)">
<path d="M36.3176 33.3942C35.511 34.3961 34.7927 35.2816 34.1626 36.0505C33.5325 36.7961 32.9401 37.4835 32.3856 38.1126C31.8311 38.7417 31.2388 39.3709 30.6087 40L28 38.3223C29.6131 37.2971 31.0498 36.2951 32.31 35.3165C33.5703 34.3379 34.7423 33.3476 35.8261 32.3456L36.9225 31.332L34.2004 24.9709C33.9231 24.2718 33.6963 23.8641 33.5198 23.7476C33.3686 23.6078 33.104 23.5146 32.7259 23.468L31 23.2932L30.9868 22H36.242L39.1531 29.235L39.6446 28.6058C40.4512 27.6039 41.1695 26.7301 41.7996 25.9845C42.4297 25.2388 43.0221 24.5515 43.5766 23.9223C44.1563 23.2699 44.7612 22.6291 45.3913 22L48 23.7126C46.3869 24.7379 44.9376 25.7398 43.6522 26.7184C42.3919 27.6738 41.2199 28.6641 40.1361 29.6893L39.569 30.2136L42.4802 37.0291C42.7574 37.7282 42.9716 38.1476 43.1229 38.2874C43.2993 38.4039 43.5766 38.4854 43.9546 38.532L45.845 38.7417L46 40H40.4386L37.2628 32.1709L36.3176 33.3942Z" fill="#1C1B1F"/>
<path d="M28.0973 23.9615H23.3405L18.8084 48H16L20.1658 25.0422C20.3028 24.2419 20.4864 24.2925 20.3028 23.63C20.2571 23.4652 19.515 24.0085 19.1725 23.9615H16.6809L18.5837 22H20.4864L20.7264 20.4611C20.9319 19.3077 21.2743 18.2485 21.7538 17.2835C22.2333 16.2949 22.9069 15.5064 23.7745 14.918C24.665 14.306 25.8181 14 27.2337 14C28.558 14 29.5969 14.2589 30.3503 14.7767C31.1266 15.271 31.629 15.9301 31.8573 16.7539C32.0856 17.5777 32.04 18.4839 31.7203 19.4725L28.9119 20.0374C29.9165 16.7657 29.3571 15.1298 27.2337 15.1298C26.64 15.1298 26.1149 15.271 25.6582 15.5535C25.2016 15.8124 24.802 16.2949 24.4595 17.001C24.117 17.6836 23.8316 18.6722 23.6033 19.9668L23.3405 22H30L28.0973 23.9615Z" fill="#1C1B1F"/>
</g>
</svg>
