<svg xmlns="http://www.w3.org/2000/svg" width="24" height="24" fill="none" viewBox="0 0 24 24">
  <path fill="#383838" fill-rule="evenodd" d="M10.5 8a.5.5 0 0 1 .468.324l2.25 6 .75 2a.5.5 0 0 1-.936.352L12.403 15H8.598l-.629 1.676a.5.5 0 0 1-.936-.352l.75-2 2.25-6A.5.5 0 0 1 10.5 8Zm-1.528 6h3.056L10.5 9.924 8.972 14Z" clip-rule="evenodd"/>
  <path fill="#446ECA" fill-rule="evenodd" d="M17.854 6.146a.5.5 0 0 0-.708 0L15.5 7.793l-1.646-1.647a.5.5 0 0 0-.708.708l2 2a.5.5 0 0 0 .708 0l2-2a.5.5 0 0 0 0-.708Z" clip-rule="evenodd"/>
</svg>
