<svg width="60" height="60" viewBox="0 0 60 60" fill="none" xmlns="http://www.w3.org/2000/svg">
<mask id="mask0_696_1351" style="mask-type:alpha" maskUnits="userSpaceOnUse" x="0" y="0" width="60" height="60">
<rect width="60" height="60" transform="matrix(-1 0 0 1 60 0)" fill="#D9D9D9"/>
</mask>
<g mask="url(#mask0_696_1351)">
<path d="M34 40V38H14V40H34ZM34 22V20H14V22H34Z" fill="#1C1B1F"/>
<path d="M39.9999 46V39.4135C39.9999 39.0129 40.1175 38.6772 40.3527 38.4063C40.5879 38.1354 40.8793 38 41.2271 38H44V34H40V32H44.7727C45.1205 32 45.412 32.1354 45.6472 32.4063C45.8824 32.6772 46 33.0129 46 33.4135L45.9999 38.5865C45.9999 38.9871 45.8823 39.3228 45.6471 39.5937C45.4119 39.8646 45.1204 40 44.7727 40H41.9999V44H45.9999V46H39.9999ZM44 28V16H40V14H46V28H44Z" fill="#5C89FF"/>
</g>
</svg>
