<svg width="24" height="24" viewBox="0 0 24 24" fill="none" xmlns="http://www.w3.org/2000/svg">
<path d="M11.5 3.5C15.0899 3.5 18 6.41015 18 10C18 11.9578 17.134 13.7143 15.7656 14.9053C15.2951 15.3149 15.0001 15.8284 15 16.3506V19.5C15 20.3284 14.3284 21 13.5 21H9.5C8.67157 21 8 20.3284 8 19.5V16.3506C7.99989 15.8284 7.70494 15.3149 7.23438 14.9053C5.86602 13.7143 5 11.9578 5 10C5 6.41015 7.91015 3.5 11.5 3.5ZM9 19.5C9 19.7761 9.22386 20 9.5 20H13.5C13.7761 20 14 19.7761 14 19.5V19H9V19.5ZM9 18H14V17H9V18ZM11.5 4.5C8.46243 4.5 6 6.96243 6 10C6 11.6563 6.73136 13.1413 7.89062 14.1504C8.41697 14.6085 8.86553 15.2471 8.97461 16H11V11.707L9.14648 9.85352L9.08203 9.77539C8.95387 9.58131 8.97562 9.31735 9.14648 9.14648C9.31735 8.97562 9.58131 8.95387 9.77539 9.08203L9.85352 9.14648L11.5 10.793L13.1465 9.14648C13.3417 8.95122 13.6583 8.95122 13.8535 9.14648C14.0488 9.34175 14.0488 9.65825 13.8535 9.85352L12 11.707V16H14.0254C14.1345 15.2471 14.583 14.6085 15.1094 14.1504C16.2686 13.1413 17 11.6563 17 10C17 6.96243 14.5376 4.5 11.5 4.5Z" fill="#383838"/>
</svg>
