<svg xmlns="http://www.w3.org/2000/svg" width="24" height="24" fill="none" viewBox="0 0 24 24">
  <path fill="#383838" fill-rule="evenodd" d="M17.393 10A2.393 2.393 0 0 0 15 12.393a.5.5 0 1 0 1 0c0-.77.623-1.393 1.393-1.393h.288a1.32 1.32 0 0 1 .889 2.294l-3.244 2.958a1 1 0 0 0-.326.74V17a1 1 0 0 0 1 1h3.5a.5.5 0 0 0 0-1H16v-.009l3.244-2.958A2.32 2.32 0 0 0 17.68 10h-.288ZM10.5 12c-.458 0-.885.229-1.139.61l-1.26 1.89 1.26 1.89c.254.381.681.61 1.139.61a.5.5 0 1 1 0 1 2.369 2.369 0 0 1-1.97-1.055L7.5 15.401l-1.03 1.544A2.369 2.369 0 0 1 4.5 18a.5.5 0 0 1 0-1c.458 0 .885-.229 1.139-.61l1.26-1.89-1.26-1.89A1.368 1.368 0 0 0 4.5 12a.5.5 0 0 1 0-1c.792 0 1.531.396 1.97 1.055l1.03 1.544 1.03-1.544A2.368 2.368 0 0 1 10.5 11a.5.5 0 1 1 0 1Z" clip-rule="evenodd"/>
  <path fill="#446ECA" fill-rule="evenodd" d="M13.5 6a.5.5 0 0 1 .416.223l2 3a.5.5 0 1 1-.832.554L13.5 7.401l-1.584 2.376a.5.5 0 1 1-.832-.554l2-3A.5.5 0 0 1 13.5 6Z" clip-rule="evenodd"/>
</svg>
