<svg width="60" height="60" viewBox="0 0 60 60" fill="none" xmlns="http://www.w3.org/2000/svg">
<mask id="mask0_696_1385" style="mask-type:alpha" maskUnits="userSpaceOnUse" x="0" y="0" width="60" height="60">
<rect width="60" height="60" fill="#D9D9D9"/>
</mask>
<g mask="url(#mask0_696_1385)">
<path d="M27.3724 48L26.6694 42.2155C26.0488 42.0232 25.3776 41.7205 24.6558 41.3075C23.934 40.8948 23.3202 40.4527 22.8143 39.981L17.6271 42.25L14 35.75L18.4837 32.273C18.4263 31.9117 18.379 31.5393 18.3418 31.156C18.3042 30.7727 18.2854 30.4002 18.2854 30.0385C18.2854 29.7025 18.3042 29.3493 18.3418 28.979C18.379 28.6083 18.4263 28.191 18.4837 27.727L14 24.25L17.6271 17.827L22.7769 20.0575C23.3576 19.5602 23.9859 19.1115 24.6616 18.7115C25.3371 18.3115 25.9938 18.0025 26.632 17.7845L27.3724 12H34.6276L35.3306 17.823C36.076 18.0923 36.7347 18.4013 37.3068 18.75C37.8788 19.0987 38.4678 19.5345 39.0739 20.0575L44.3729 17.827L48 24.25L43.3666 27.8425C43.4738 28.2552 43.5338 28.634 43.5464 28.979C43.5587 29.3237 43.5649 29.664 43.5649 30C43.5649 30.3103 43.5524 30.6378 43.5275 30.9825C43.5025 31.3275 43.4451 31.7448 43.3554 32.2345L47.914 35.75L44.2868 42.25L39.0739 39.9425C38.4678 40.4655 37.8582 40.9142 37.245 41.2885C36.6318 41.6628 35.9937 41.959 35.3306 42.177L34.6276 48H27.3724ZM29.0554 46H32.8585L33.5766 40.5845C34.5563 40.3178 35.4382 39.9518 36.2222 39.4865C37.0065 39.0212 37.8049 38.3833 38.6174 37.573L43.4677 39.7L45.4011 36.3L41.1454 33.0115C41.3074 32.4422 41.4147 31.9185 41.4672 31.4405C41.5194 30.9622 41.5455 30.482 41.5455 30C41.5455 29.4923 41.5194 29.0122 41.4672 28.5595C41.4147 28.1072 41.3074 27.6092 41.1454 27.0655L45.4759 23.7L43.5425 20.3L38.58 22.4385C37.9917 21.7745 37.2183 21.152 36.2596 20.571C35.3012 19.9903 34.3944 19.6052 33.5391 19.4155L32.9446 14H29.0666L28.4609 19.377C27.4811 19.5923 26.5805 19.9392 25.7589 20.4175C24.9376 20.8955 24.1206 21.5525 23.3077 22.3885L18.4575 20.3L16.5241 23.7L20.7423 26.9385C20.5803 27.3872 20.4669 27.8743 20.402 28.4C20.3372 28.9257 20.3048 29.4718 20.3048 30.0385C20.3048 30.5462 20.3372 31.05 20.402 31.55C20.4669 32.05 20.5678 32.5372 20.7049 33.0115L16.5241 36.3L18.4575 39.7L23.2703 37.6C24.0332 38.3923 24.8253 39.0277 25.6466 39.506C26.4682 39.984 27.3938 40.3563 28.4234 40.623L29.0554 46ZM30.9475 35C32.3038 35 33.4532 34.5153 34.3957 33.546C35.3379 32.577 35.8089 31.395 35.8089 30C35.8089 28.605 35.3379 27.423 34.3957 26.454C33.4532 25.4847 32.3038 25 30.9475 25C29.584 25 28.4328 25.4847 27.4939 26.454C26.5553 27.423 26.086 28.605 26.086 30C26.086 31.395 26.5553 32.577 27.4939 33.546C28.4328 34.5153 29.584 35 30.9475 35Z" fill="#1C1B1F"/>
</g>
</svg>
