<svg xmlns="http://www.w3.org/2000/svg" width="24" height="24" fill="none" viewBox="0 0 24 24">
  <path fill="#383838" fill-rule="evenodd" d="M7.5 5a.5.5 0 0 0-.5.5v13a.5.5 0 0 0 .5.5h1a.5.5 0 0 1 0 1h-1A1.5 1.5 0 0 1 6 18.5v-13A1.5 1.5 0 0 1 7.5 4h6a.5.5 0 0 1 .354.146l4 4A.5.5 0 0 1 18 8.5v2a.5.5 0 0 1-1 0V9h-3.4a.6.6 0 0 1-.6-.6V5H7.5Zm6.5.707L16.293 8H14V5.707Z" clip-rule="evenodd"/>
  <path fill="#446ECA" fill-rule="evenodd" d="M12 13.5a1.5 1.5 0 0 1 1.5-1.5h3a1.5 1.5 0 0 1 1.5 1.5v.5h.5a1.5 1.5 0 0 1 1.5 1.5v2.002a1.5 1.5 0 0 1-1.5 1.5h-.585a1.499 1.499 0 0 1-1.413.998h-3.004a1.499 1.499 0 0 1-1.412-.998H11.5a1.5 1.5 0 0 1-1.5-1.5V15.5a1.5 1.5 0 0 1 1.5-1.5h.5v-.5Zm1 .5h4v-.5a.5.5 0 0 0-.5-.5h-3a.5.5 0 0 0-.5.5v.5Zm-1 4.002v-1.348a.65.65 0 0 1 .65-.65h4.7a.65.65 0 0 1 .65.65v1.348h.5a.5.5 0 0 0 .5-.5V15.5a.5.5 0 0 0-.5-.5h-7a.5.5 0 0 0-.5.5v2.002a.5.5 0 0 0 .5.5h.5Zm1-.998v1.498c0 .275.223.498.498.498h3.004a.498.498 0 0 0 .498-.498v-1.498h-4Z" clip-rule="evenodd"/>
</svg>
