<svg xmlns="http://www.w3.org/2000/svg" width="24" height="24" fill="none" viewBox="0 0 24 24">
  <path fill="#383838" fill-rule="evenodd" d="M5 6.5A1.5 1.5 0 0 1 6.5 5h11A1.5 1.5 0 0 1 19 6.5v11a1.5 1.5 0 0 1-1.5 1.5h-11A1.5 1.5 0 0 1 5 17.5v-11ZM6.5 6a.5.5 0 0 0-.5.5v11a.5.5 0 0 0 .5.5h11a.5.5 0 0 0 .5-.5v-11a.5.5 0 0 0-.5-.5h-11Z" clip-rule="evenodd"/>
  <path fill="#446ECA" fill-rule="evenodd" d="M15 8.5a1 1 0 1 0 0 2 1 1 0 0 0 0-2Zm0 3a2 2 0 0 1-1.937-1.5H8.5a.5.5 0 0 1 0-1h4.563A2 2 0 1 1 15 11.5ZM11.937 14a2 2 0 1 0 0 1H15.5a.5.5 0 0 0 0-1h-3.563Zm-.937.5a1 1 0 1 0-2 0 1 1 0 0 0 2 0Z" clip-rule="evenodd"/>
</svg>
