<svg width="60" height="60" viewBox="0 0 60 60" fill="none" xmlns="http://www.w3.org/2000/svg">
<mask id="mask0_696_1362" style="mask-type:alpha" maskUnits="userSpaceOnUse" x="0" y="0" width="60" height="60">
<rect width="60" height="60" fill="#D9D9D9"/>
</mask>
<g mask="url(#mask0_696_1362)">
<path d="M40 24V18H20V24H18V16H42V24H40ZM40 44.05V36H20V44L40 44.05ZM42 46H18V38H12V27.9C12 26.795 12.388 25.8687 13.164 25.1212C13.9404 24.3737 14.8979 24 16.0366 24H44C45.1437 24 46.1024 24.3737 46.8761 25.1212C47.6497 25.8687 48.0366 26.795 48.0366 27.9L48 38H42V46ZM45.9817 36L46.0183 27.9C46.0183 27.3475 45.8249 26.8843 45.438 26.5106C45.0512 26.1369 44.5718 25.95 44 25.95H16.0366C15.4647 25.95 14.9854 26.1369 14.5985 26.5106C14.2117 26.8843 14.0183 27.3475 14.0183 27.9V36H18V34H42V36H45.9817Z" fill="#1C1B1F"/>
<rect x="40" y="28" width="4" height="4" fill="#1C1B1F"/>
</g>
</svg>
