<svg xmlns="http://www.w3.org/2000/svg" width="24" height="24" fill="none" viewBox="0 0 24 24">
  <path fill="#383838" fill-rule="evenodd" d="M5.673 9h2.605c.185-.94.454-1.792.792-2.515.186-.399.4-.772.642-1.103A7.022 7.022 0 0 0 5.673 9ZM12 4a8.003 8.003 0 0 0-7.545 5.333A7.988 7.988 0 0 0 4 12c0 .934.16 1.832.455 2.667a8.003 8.003 0 0 0 15.09 0A7.989 7.989 0 0 0 20 12c0-.934-.16-1.832-.455-2.667A8.003 8.003 0 0 0 12 4Zm0 1c-.658 0-1.409.59-2.024 1.908A9.798 9.798 0 0 0 9.299 9h5.402a9.8 9.8 0 0 0-.677-2.092C13.41 5.59 12.658 5 12 5Zm3.722 4c-.185-.94-.454-1.792-.792-2.515a6.622 6.622 0 0 0-.642-1.103A7.022 7.022 0 0 1 18.327 9h-2.605Zm-.85 1H9.128a15.23 15.23 0 0 0-.13 2c0 .697.046 1.367.13 2h5.746c.084-.633.13-1.303.13-2 0-.697-.046-1.367-.13-2Zm1.01 4a16.367 16.367 0 0 0-.001-4h2.83a7.013 7.013 0 0 1 0 4h-2.83ZM14.7 15H9.299c.168.79.4 1.497.677 2.092C10.59 18.41 11.342 19 12 19c.658 0 1.409-.59 2.024-1.908A9.8 9.8 0 0 0 14.701 15Zm-.413 3.618c.241-.33.456-.704.642-1.103.338-.723.607-1.575.792-2.515h2.605a7.022 7.022 0 0 1-4.04 3.618Zm-4.576 0a6.629 6.629 0 0 1-.642-1.103c-.338-.723-.607-1.575-.792-2.515H5.673a7.022 7.022 0 0 0 4.04 3.618ZM5.29 14h2.83c-.08-.64-.122-1.311-.122-2 0-.689.042-1.36.122-2H5.29A7.002 7.002 0 0 0 5 12c0 .696.102 1.367.29 2Z" clip-rule="evenodd"/>
</svg>
