<svg width="60" height="60" viewBox="0 0 60 60" fill="none" xmlns="http://www.w3.org/2000/svg">
<mask id="mask0_695_1283" style="mask-type:alpha" maskUnits="userSpaceOnUse" x="0" y="0" width="60" height="60">
<rect width="60" height="60" fill="#D9D9D9"/>
</mask>
<g mask="url(#mask0_695_1283)">
<path d="M15.1156 44.0001L12.2886 41.1731C11.6502 40.5348 11.3227 39.7771 11.3061 38.9001C11.2894 38.0231 11.6002 37.2488 12.2386 36.5771L32.5461 15.4691C33.1847 14.7974 33.9406 14.4681 34.8136 14.4811C35.6866 14.4937 36.4424 14.8193 37.0811 15.4576L45.2616 23.6386C45.9002 24.2769 46.2259 25.0411 46.2386 25.9311C46.2512 26.8208 45.9384 27.5848 45.3001 28.2231L29.9231 44.0001H15.1156ZM29.0691 42.0001L43.8846 26.7846C44.0899 26.5796 44.1926 26.2848 44.1926 25.9001C44.1926 25.5154 44.0899 25.2206 43.8846 25.0156L35.7156 16.8461C35.5102 16.6411 35.2217 16.5386 34.8501 16.5386C34.4784 16.5386 34.1899 16.6539 33.9846 16.8846L13.6541 37.9156C13.4487 38.1463 13.3461 38.4474 13.3461 38.8191C13.3461 39.1911 13.4487 39.4796 13.6541 39.6846L15.9691 42.0001H29.0691Z" fill="#1C1B1F"/>
<path d="M38 42H50V44H38V42Z" fill="#5C89FF"/>
</g>
</svg>
