<svg xmlns="http://www.w3.org/2000/svg" width="24" height="24" fill="none" viewBox="0 0 24 24">
  <path fill="#383838" fill-rule="evenodd" d="M8 6a1 1 0 0 1 1-1h6a1 1 0 0 1 1 1v.001l.503.001A1.5 1.5 0 0 1 18 7.502V17.5a1.5 1.5 0 0 1-1.5 1.5h-9A1.5 1.5 0 0 1 6 17.5V7.504a1.5 1.5 0 0 1 1.5-1.5H8V6Zm0 1.004h-.5a.5.5 0 0 0-.5.5V17.5a.5.5 0 0 0 .5.5h9a.5.5 0 0 0 .5-.5V7.502a.5.5 0 0 0-.499-.5L16 7.001A1 1 0 0 1 15 8H9a1 1 0 0 1-1-.996Zm7-.504V7H9V6h6v.5Zm-6 5a.5.5 0 0 1 .5-.5h5a.5.5 0 0 1 0 1h-5a.5.5 0 0 1-.5-.5Zm0 3a.5.5 0 0 1 .5-.5h4a.5.5 0 0 1 0 1h-4a.5.5 0 0 1-.5-.5Z" clip-rule="evenodd"/>
</svg>
