<svg xmlns="http://www.w3.org/2000/svg" width="24" height="24" fill="none" viewBox="0 0 24 24">
  <path fill="#383838" fill-rule="evenodd" d="M18 5.5a.5.5 0 0 0-.5-.5H9a3 3 0 0 0 0 6h2v3.5a.5.5 0 0 0 1 0V6h2v8.5a.5.5 0 0 0 1 0V6h2.5a.5.5 0 0 0 .5-.5ZM11 6v4H9a2 2 0 1 1 0-4h2Z" clip-rule="evenodd"/>
  <path fill="#446ECA" fill-rule="evenodd" d="M17.146 15.146a.5.5 0 0 0 0 .708L18.293 17H5.707l1.147-1.146a.5.5 0 0 0-.708-.708l-2 2a.5.5 0 0 0 0 .708l2 2a.5.5 0 0 0 .708-.708L5.707 18h12.586l-1.147 1.146a.5.5 0 0 0 .708.708l2-2a.5.5 0 0 0 0-.708l-2-2a.5.5 0 0 0-.708 0Z" clip-rule="evenodd"/>
</svg>
