<svg xmlns="http://www.w3.org/2000/svg" width="24" height="24" viewBox="0 0 24 24">
    <path d="M16 17a.5.5 0 0 0 0 1v-1Zm-1-4a.5.5 0 0 0 0 1v-1Zm-1-2a.5.5 0 0 0 0 1v-1Zm0-5a.5.5 0 0 0 0 1V6ZM6.5 17.5v.5h7v-1h-7v.5Zm5-4V13h-3v1h3v-.5Zm-3 0V13A3.5 3.5 0 0 0 5 16.5h1A2.5 2.5 0 0 1 8.5 14v-.5Zm6 3h.5a3.5 3.5 0 0 0-3.5-3.5v1a2.5 2.5 0 0 1 2.5 2.5h.5Zm-1 1v.5a1.5 1.5 0 0 0 1.5-1.5h-1a.5.5 0 0 1-.5.5v.5Zm-7 0V17a.5.5 0 0 1-.5-.5H5A1.5 1.5 0 0 0 6.5 18v-.5Zm6-8.5H12a2 2 0 0 1-2 2v1a3 3 0 0 0 3-3h-.5ZM10 11.5V11a2 2 0 0 1-2-2H7a3 3 0 0 0 3 3v-.5ZM7.5 9H8a2 2 0 0 1 2-2V6a3 3 0 0 0-3 3h.5ZM10 6.5V7a2 2 0 0 1 2 2h1a3 3 0 0 0-3-3v.5Zm6 11v.5h1.5v-1H16v.5Zm-.5-4V13H15v1h.5v-.5Zm3 3h.5a3.5 3.5 0 0 0-3.5-3.5v1a2.5 2.5 0 0 1 2.5 2.5h.5Zm-1 1v.5a1.5 1.5 0 0 0 1.5-1.5h-1a.5.5 0 0 1-.5.5v.5Zm-1-8.5H16a2 2 0 0 1-2 2v1a3 3 0 0 0 3-3h-.5ZM14 6.5V7a2 2 0 0 1 2 2h1a3 3 0 0 0-3-3v.5Z" fill="currentColor" stroke="none" class="icon-fill-gray-primary"/>
</svg>
