<svg xmlns="http://www.w3.org/2000/svg" width="24" height="24" viewBox="0 0 24 24" stroke="currentColor" stroke-linecap="round" stroke-linejoin="round" fill="none">
    <path d="M9.5 5.5v4m0-4h-3a1 1 0 0 0-1 1v3m4-4h7a1 1 0 0 1 1 1v2a1 1 0 0 1-1 1h-7m0 0h-4m4 0v7a1 1 0 0 1-1 1h-2a1 1 0 0 1-1-1v-7" class="icon-stroke-gray-primary"/>
    <path d="M15.498 11a4.498 4.498 0 1 1 0 8.996 4.498 4.498 0 0 1 0-8.996Zm1.77 2.732a.5.5 0 0 0-.707 0L15.5 14.793l-1.06-1.06-.079-.065a.5.5 0 0 0-.693.693l.064.079 1.061 1.06-1.06 1.06a.5.5 0 0 0 .707.708l1.06-1.061 1.06 1.06.08.065a.5.5 0 0 0 .692-.692l-.064-.08-1.061-1.06 1.06-1.06a.5.5 0 0 0 0-.708Z" fill="currentColor" stroke="none" class="icon-fill-red"/>
</svg>
