<svg xmlns="http://www.w3.org/2000/svg" width="24" height="24" fill="none" viewBox="0 0 24 24">
  <path fill="#383838" fill-rule="evenodd" d="M10.5 10a.5.5 0 0 0-.5.5v4a.5.5 0 0 0 .5.5h4a.5.5 0 0 0 .5-.5v-4a.5.5 0 0 0-.5-.5h-4Zm-1.5.5A1.5 1.5 0 0 1 10.5 9h4a1.5 1.5 0 0 1 1.5 1.5v4a1.5 1.5 0 0 1-1.5 1.5h-4A1.5 1.5 0 0 1 9 14.5v-4Z" clip-rule="evenodd"/>
  <path fill="#446ECA" fill-rule="evenodd" d="M5 6.5A1.5 1.5 0 0 1 6.5 5h12A1.5 1.5 0 0 1 20 6.5v12a1.5 1.5 0 0 1-1.5 1.5h-12A1.5 1.5 0 0 1 5 18.5v-12ZM6.5 6a.5.5 0 0 0-.5.5V12h3v1H6v5.5a.5.5 0 0 0 .5.5H12v-3h1v3h5.5a.5.5 0 0 0 .5-.5V13h-3v-1h3V6.5a.5.5 0 0 0-.5-.5H13v3h-1V6H6.5Z" clip-rule="evenodd"/>
</svg>
