<svg xmlns="http://www.w3.org/2000/svg" width="24" height="24" viewBox="0 0 24 24" stroke="currentColor" stroke-linecap="round" stroke-linejoin="round" fill="none">
    <g  fill="currentColor" stroke="none" opacity=".5" class="icon-fill-gray-secondary">
      <path d="M14.977 9.021a5.5 5.5 0 1 1-5.956 5.956 5.5 5.5 0 0 0 5.956-5.956Z"/>
      <path d="M9.5 4a5.499 5.499 0 0 1 5.477 5.021 5.5 5.5 0 0 0-5.956 5.956A5.499 5.499 0 0 1 9.5 4Z"/>
    </g>
    <path d="M14.5 9.5a5 5 0 0 1-5 5m5-5a5 5 0 1 0-5 5m5-5a5 5 0 0 0-5 5m5-5a5 5 0 1 1-5 5" class="icon-stroke-gray-primary"/>
</svg>
