<svg width="60" height="60" viewBox="0 0 60 60" fill="none" xmlns="http://www.w3.org/2000/svg">
<mask id="mask0_696_1423" style="mask-type:alpha" maskUnits="userSpaceOnUse" x="0" y="0" width="60" height="60">
<rect width="60" height="60" fill="#D9D9D9"/>
</mask>
<g mask="url(#mask0_696_1423)">
<path d="M12 43.9998V41C12 40.0177 12.2403 39.1732 12.721 38.4663C13.2017 37.7599 13.8477 37.1952 14.659 36.7723C16.394 35.8983 18.1165 35.2015 19.8265 34.682C21.5368 34.1624 23.5947 33.9027 26 33.9027C28.405 33.9027 30.4627 34.1624 32.173 34.682C33.8833 35.2015 35.6058 35.8983 37.3405 36.7723C38.1518 37.1952 38.7978 37.7599 39.2785 38.4663C39.7595 39.1732 40 40.0177 40 41V43.9998H12ZM14 41.9998H38L38 41C38 40.5034 37.8827 40.0692 37.648 39.6975C37.4133 39.3261 36.9922 38.9707 36.3845 38.6314C34.8922 37.7877 33.319 37.1414 31.665 36.6924C30.0113 36.2434 28.123 36.0189 26 36.0189C23.8767 36.0189 21.9882 36.2434 20.3345 36.6924C18.6805 37.1414 17.1073 37.7877 15.615 38.6314C15.0073 38.9707 14.5862 39.3261 14.3515 39.6975C14.1172 40.0692 14 40.5034 14 41L14 41.9998Z" fill="#1C1B1F"/>
<path d="M26 30C24.35 30 22.9375 29.3146 21.7625 27.9438C20.5875 26.5729 20 24.925 20 23C20 21.075 20.5875 19.4271 21.7625 18.0563C22.9375 16.6854 24.35 16 26 16C27.65 16 29.0625 16.6854 30.2375 18.0563C31.4125 19.4271 32 21.075 32 23C32 24.925 31.4125 26.5729 30.2375 27.9438C29.0625 29.3146 27.65 30 26 30ZM26 27.6667C27.1 27.6667 28.0417 27.2097 28.825 26.2958C29.6083 25.3819 30 24.2833 30 23C30 21.7167 29.6083 20.6181 28.825 19.7042C28.0417 18.7903 27.1 18.3333 26 18.3333C24.9 18.3333 23.9583 18.7903 23.175 19.7042C22.3917 20.6181 22 21.7167 22 23C22 24.2833 22.3917 25.3819 23.175 26.2958C23.9583 27.2097 24.9 27.6667 26 27.6667Z" fill="#1C1B1F"/>
<path d="M42.5977 44V40.3663C42.5977 39.1221 42.3719 37.9477 41.9204 36.8431C41.4692 35.7385 40.829 34.7908 40 34C40.9448 34.2147 41.8551 34.5126 42.731 34.8937C43.6065 35.2751 44.4724 35.7038 45.3287 36.1797C46.1625 36.6477 46.8163 37.2466 47.29 37.9762C47.7633 38.7061 48 39.5028 48 40.3663V44H42.5977Z" fill="#1C1B1F"/>
<path d="M40 23C40 24.925 39.2929 26.5729 37.8786 27.9438C36.4643 29.3146 34.7642 30 32.7782 30C32.6762 30 32.5465 29.9889 32.3888 29.9668C32.2315 29.9442 32.1019 29.9195 32 29.8927C32.8157 28.9243 33.4424 27.8502 33.8801 26.6703C34.3182 25.4904 34.5373 24.2652 34.5373 22.9947C34.5373 21.7242 34.308 20.5101 33.8494 19.3524C33.3912 18.1947 32.7747 17.1132 32 16.1079C32.1296 16.0632 32.2592 16.034 32.3888 16.0204C32.5184 16.0068 32.6482 16 32.7782 16C34.7642 16 36.4643 16.6854 37.8786 18.0563C39.2929 19.4271 40 21.075 40 23Z" fill="#1C1B1F"/>
</g>
</svg>
