<svg xmlns="http://www.w3.org/2000/svg" width="24" height="24" viewBox="0 0 24 24" stroke-linecap="round" stroke-linejoin="round" stroke="currentColor" fill="none">
    <path d="M16.41 4.694a.1.1 0 0 1 .18 0l.85 1.818a.1.1 0 0 0 .048.049l1.818.848a.1.1 0 0 1 0 .181l-1.818.849a.1.1 0 0 0-.049.048l-.848 1.819a.1.1 0 0 1-.182 0l-.848-1.819a.1.1 0 0 0-.049-.048l-1.818-.849a.1.1 0 0 1 0-.18l1.818-.85a.1.1 0 0 0 .049-.048zm-6 3a.1.1 0 0 1 .18 0l1.804 3.864a.1.1 0 0 0 .048.048l3.864 1.803a.1.1 0 0 1 0 .181l-3.864 1.804a.1.1 0 0 0-.048.048l-1.803 3.864a.1.1 0 0 1-.182 0l-1.803-3.864a.1.1 0 0 0-.048-.048L4.694 13.59a.1.1 0 0 1 0-.18l3.864-1.804a.1.1 0 0 0 .048-.048l1.803-3.864Z" class="icon-stroke-gray-primary"/>
</svg>
