<svg xmlns="http://www.w3.org/2000/svg" viewBox="0 0 24 24" width="24" height="24" stroke="currentColor" stroke-linecap="round" stroke-linejoin="round" fill="none">
    <path d="M7 4.5H5.5a1 1 0 0 0-1 1V7M10 4.5h3m3 0h1.5a1 1 0 0 1 1 1V7m0 3v3m0 3v1.5a1 1 0 0 1-1 1H16m-3 0h-3m-3 0H5.5a1 1 0 0 1-1-1V16m0-3v-3m7-.5v2m0 0v2m0-2h2m-2 0h-2m-3 0h-2m14 0h-2m-5-5v-2m0 14v-2" class="icon-stroke-gray-secondary"/>
    <path d="M18.5 7V5.5a1 1 0 0 0-1-1h-12a1 1 0 0 0-1 1V7" class="icon-stroke-blue-primary"/>
</svg>
