<svg xmlns="http://www.w3.org/2000/svg" width="24" height="24" fill="none" viewBox="0 0 24 24">
  <path fill="#383838" fill-rule="evenodd" d="M8.146 3.146a.5.5 0 0 1 .708 0l2 2 6 6a.5.5 0 0 1 0 .708l-5.586 5.585a2.5 2.5 0 0 1-3.536 0l-3.171-3.171a2.5 2.5 0 0 1 0-3.536L9.793 5.5 8.146 3.854a.5.5 0 0 1 0-.708ZM10.5 6.207 5.707 11h9.586L10.5 6.207ZM15.293 12H5a.502.502 0 0 1-.084-.007 1.5 1.5 0 0 0 .352 1.568l3.171 3.171a1.5 1.5 0 0 0 2.122 0L15.293 12Z" clip-rule="evenodd"/>
  <path fill="#446ECA" fill-rule="evenodd" d="m17.5 12.599.416.624 1.293 1.94a2.054 2.054 0 1 1-3.418 0l1.293-1.94.416-.624Zm0 1.802-.877 1.316a1.054 1.054 0 1 0 1.754 0l-.877-1.316Z" clip-rule="evenodd"/>
</svg>
