<svg width="60" height="60" viewBox="0 0 60 60" fill="none" xmlns="http://www.w3.org/2000/svg">
<mask id="mask0_696_1363" style="mask-type:alpha" maskUnits="userSpaceOnUse" x="0" y="0" width="60" height="60">
<rect width="60" height="60" fill="#D9D9D9"/>
</mask>
<g mask="url(#mask0_696_1363)">
<path d="M32.9758 40.2958C31.8558 42.2478 30.4478 43.6078 28.7518 44.3758C27.0558 45.1118 25.3758 45.4798 23.7118 45.4798C21.5038 45.4798 19.6638 44.9518 18.1918 43.8958C16.7518 42.8398 15.7438 41.3678 15.1678 39.4798C14.6238 37.5598 14.5758 35.3358 15.0238 32.8078L15.2158 31.7518C15.5998 29.5758 16.3358 27.6718 17.4238 26.0398C18.5438 24.3758 19.9358 23.0798 21.5998 22.1518C23.2958 21.2238 25.1998 20.7598 27.3118 20.7598C28.9438 20.7598 30.3198 21.0318 31.4398 21.5758C32.5598 22.1198 33.4078 22.8398 33.9838 23.7358C34.5598 24.5998 34.8478 25.5278 34.8478 26.5198C34.8478 28.1198 34.2718 29.4958 33.1198 30.6478C31.9998 31.7998 30.4318 32.7118 28.4158 33.3838C26.4318 34.0238 24.1278 34.4398 21.5038 34.6318L19.0078 34.8238C18.5918 37.8638 18.7998 40.1518 19.6318 41.6878C20.4958 43.1918 21.9038 43.9438 23.8558 43.9438C24.6238 43.9438 25.4558 43.7998 26.3518 43.5118C27.2478 43.2238 28.0958 42.7278 28.8958 42.0238C29.6958 41.3198 30.3038 40.3438 30.7198 39.0958L32.9758 40.2958ZM19.5838 31.1278L19.2478 33.2878L21.4558 33.1438C24.0798 32.9838 26.0958 32.5518 27.5038 31.8478C28.9118 31.1438 29.8878 30.2958 30.4318 29.3038C30.9758 28.3118 31.2478 27.3198 31.2478 26.3278C31.2478 25.0798 30.8798 24.1038 30.1438 23.3998C29.4398 22.6638 28.4478 22.2958 27.1678 22.2958C25.4718 22.2958 23.9198 22.9998 22.5118 24.4078C21.1038 25.7838 20.1278 28.0238 19.5838 31.1278Z" fill="#1C1B1F"/>
<path d="M39.0996 18.4199C38.6729 18.9932 38.2929 19.4999 37.9596 19.9399C37.6263 20.3666 37.3129 20.7599 37.0196 21.1199C36.7263 21.4799 36.4129 21.8399 36.0796 22.1999L34.6996 21.2399C35.5529 20.6532 36.3129 20.0799 36.9796 19.5199C37.6463 18.9599 38.2663 18.3932 38.8396 17.8199L39.4196 17.2399L37.9796 13.5999C37.8329 13.1999 37.7129 12.9666 37.6196 12.8999C37.5396 12.8199 37.3996 12.7666 37.1996 12.7399L36.1796 12.6399L36.2796 12.0999H39.0596L40.5996 16.0399L40.8596 15.6799C41.2863 15.1066 41.6663 14.6066 41.9996 14.1799C42.3329 13.7532 42.6463 13.3599 42.9396 12.9999C43.2463 12.6266 43.5663 12.2599 43.8996 11.8999L45.2796 12.8799C44.4263 13.4666 43.6596 14.0399 42.9796 14.5999C42.3129 15.1466 41.6929 15.7132 41.1196 16.2999L40.8196 16.5999L42.3596 20.4999C42.5063 20.8999 42.6196 21.1399 42.6996 21.2199C42.7929 21.2866 42.9396 21.3332 43.1396 21.3599L44.1396 21.4799L44.0596 21.9999H41.2796L39.5996 17.7199L39.0996 18.4199Z" fill="#1C1B1F"/>
</g>
</svg>
