<svg xmlns="http://www.w3.org/2000/svg" width="24" height="24" fill="none" viewBox="0 0 24 24">
  <path fill="#383838" fill-rule="evenodd" d="M4.5 5a.5.5 0 0 0-.5.5v2a.5.5 0 0 0 .5.5H5v9h-.5a.5.5 0 0 0-.5.5v2a.5.5 0 0 0 .5.5h2a.5.5 0 0 0 .5-.5V19h9v.5a.5.5 0 0 0 .5.5h2a.5.5 0 0 0 .5-.5v-2a.5.5 0 0 0-.5-.5H18V8h.5a.5.5 0 0 0 .5-.5v-2a.5.5 0 0 0-.5-.5h-2a.5.5 0 0 0-.5.5V6H7v-.5a.5.5 0 0 0-.5-.5h-2ZM7 7v.5a.5.5 0 0 1-.5.5H6v9h.5a.5.5 0 0 1 .5.5v.5h9v-.5a.5.5 0 0 1 .5-.5h.5V8h-.5a.5.5 0 0 1-.5-.5V7H7ZM5 7V6h1v1H5Zm12 0V6h1v1h-1ZM5 19v-1h1v1H5Zm12 0v-1h1v1h-1Z" clip-rule="evenodd"/>
  <path fill="#446ECA" fill-rule="evenodd" d="M13 9.5a.5.5 0 0 1 .5-.5h1a.5.5 0 0 1 .5.5v6a.5.5 0 0 1-.5.5h-1a.5.5 0 0 1 0-1h.5v-2H9v.5a.5.5 0 0 1-1 0v-2a.5.5 0 0 1 1 0v.5h5v-2h-.5a.5.5 0 0 1-.5-.5Z" clip-rule="evenodd"/>
</svg>
