<svg width="60" height="60" viewBox="0 0 60 60" fill="none" xmlns="http://www.w3.org/2000/svg">
<mask id="mask0_695_1321" style="mask-type:alpha" maskUnits="userSpaceOnUse" x="0" y="0" width="60" height="60">
<rect width="60" height="60" fill="#D9D9D9"/>
</mask>
<g mask="url(#mask0_695_1321)">
<path d="M14 34V32H30V34H14ZM14 26V24H40V26H14ZM14 18V16H40V18H14ZM32.4615 44V39.581L43.127 28.9655C43.3243 28.7678 43.528 28.6345 43.738 28.5655C43.948 28.4962 44.158 28.4615 44.368 28.4615C44.597 28.4615 44.822 28.5045 45.043 28.5905C45.2643 28.6762 45.4653 28.805 45.646 28.977L47.496 30.8655C47.6603 31.0628 47.7853 31.268 47.871 31.481C47.957 31.6937 48 31.9063 48 32.119C48 32.332 47.959 32.5468 47.877 32.7635C47.795 32.9802 47.668 33.1872 47.496 33.3845L36.881 44H32.4615ZM34.231 42.231H36.131L43.0655 35.2845L42.127 34.3345L41.2155 33.3575L34.231 40.331V42.231ZM42.127 34.3345L41.2155 33.3575L43.0655 35.2845L42.127 34.3345Z" fill="#1C1B1F"/>
</g>
</svg>
