<svg width="60" height="60" viewBox="0 0 60 60" fill="none" xmlns="http://www.w3.org/2000/svg">
<mask id="mask0_695_1249" style="mask-type:alpha" maskUnits="userSpaceOnUse" x="0" y="0" width="60" height="60">
<rect width="60" height="60" fill="#D9D9D9"/>
</mask>
<g mask="url(#mask0_695_1249)">
<path d="M17.231 46C16.3103 46 15.5417 45.6917 14.925 45.075C14.3083 44.4583 14 43.6897 14 42.769V17.231C14 16.3103 14.3083 15.5417 14.925 14.925C15.5417 14.3083 16.3103 14 17.231 14H30V16H17.231C16.872 16 16.577 16.1153 16.346 16.346C16.1153 16.577 16 16.872 16 17.231V42.769C16 43.128 16.1153 43.423 16.346 43.654C16.577 43.8847 16.872 44 17.231 44H40.769C41.128 44 41.423 43.8847 41.654 43.654C41.8847 43.423 42 43.128 42 42.769V29H44V42.769C44 43.6897 43.6917 44.4583 43.075 45.075C42.4583 45.6917 41.6897 46 40.769 46H17.231Z" fill="#1C1B1F"/>
<path d="M28 16H30V34H44V36H30V44H28V36H14V34H28V26L14 26V24H28V16Z" fill="#1C1B1F"/>
<path d="M40 24V18H34V16H40V10H42V16H48V18H42V24H40Z" fill="#5C89FF"/>
</g>
</svg>
