<svg width="60" height="60" viewBox="0 0 60 60" fill="none" xmlns="http://www.w3.org/2000/svg">
<mask id="mask0_696_1354" style="mask-type:alpha" maskUnits="userSpaceOnUse" x="0" y="0" width="60" height="60">
<rect width="60" height="60" transform="matrix(-4.37114e-08 -1 -1 4.37114e-08 60 60)" fill="#D9D9D9"/>
</mask>
<g mask="url(#mask0_696_1354)">
<path d="M12 40.769C12 41.6897 12.3083 42.4583 12.925 43.075C13.5417 43.6917 14.3103 44 15.231 44L44.769 44C45.6897 44 46.4583 43.6917 47.075 43.075C47.6917 42.4583 48 41.6897 48 40.769L48 25L39 16L15.231 16C14.3103 16 13.5417 16.3083 12.925 16.925C12.3083 17.5417 12 18.3103 12 19.231L12 40.769ZM38 26L46 26L46 40.769C46 41.077 45.8718 41.3592 45.6155 41.6155C45.3592 41.8718 45.077 42 44.769 42L15.231 42C14.923 42 14.6408 41.8718 14.3845 41.6155C14.1282 41.3592 14 41.077 14 40.769L14 19.231C14 18.923 14.1282 18.6408 14.3845 18.3845C14.6408 18.1282 14.923 18 15.231 18L38 18L38 26Z" fill="#1C1B1F"/>
</g>
</svg>
