<svg xmlns="http://www.w3.org/2000/svg" width="24" height="24" fill="none" viewBox="0 0 24 24">
  <path fill="#383838" fill-rule="evenodd" d="M12.44 6.854a1.5 1.5 0 0 1 2.12 0l3.586 3.586a1.5 1.5 0 0 1 0 2.12l-2.292 2.293-.001.001L12.707 18H17.5a.5.5 0 1 1 0 1H7.562a.65.65 0 0 1-.46-.19l-2.248-2.25a1.5 1.5 0 0 1 0-2.12l5.286-5.287a.18.18 0 0 1 .013-.013l2.286-2.286Zm-1.94 3.353-4.94 4.94a.5.5 0 0 0 0 .707L7.708 18h3.586l3.5-3.5-4.293-4.293Zm5 3.586L11.207 9.5l1.94-1.94a.5.5 0 0 1 .707 0l3.585 3.587a.5.5 0 0 1 0 .707l-1.939 1.94Z" clip-rule="evenodd"/>
</svg>
