<svg xmlns="http://www.w3.org/2000/svg" width="24" height="24" fill="none" viewBox="0 0 24 24">
  <path fill="#383838" fill-rule="evenodd" d="M7 6.5A1.5 1.5 0 0 1 8.5 5h7A1.5 1.5 0 0 1 17 6.5V8h1.5A1.5 1.5 0 0 1 20 9.5v5.002a1.5 1.5 0 0 1-1.5 1.5H17V17.5a1.5 1.5 0 0 1-1.5 1.5h-7A1.5 1.5 0 0 1 7 17.5v-1.498H5.5a1.5 1.5 0 0 1-1.5-1.5V9.5A1.5 1.5 0 0 1 5.5 8H7V6.5ZM8 8h8V6.5a.5.5 0 0 0-.5-.5h-7a.5.5 0 0 0-.5.5V8Zm-1 7.002v-2.348a.65.65 0 0 1 .65-.65h8.7a.65.65 0 0 1 .65.65v2.348h1.5a.5.5 0 0 0 .5-.5V9.5a.5.5 0 0 0-.5-.5h-13a.5.5 0 0 0-.5.5v5.002a.5.5 0 0 0 .5.5H7Zm1-1.998V17.5a.5.5 0 0 0 .5.5h7a.5.5 0 0 0 .5-.5v-4.496H8Z" clip-rule="evenodd"/>
</svg>
