<svg width="60" height="60" viewBox="0 0 60 60" fill="none" xmlns="http://www.w3.org/2000/svg">
<mask id="mask0_696_1371" style="mask-type:alpha" maskUnits="userSpaceOnUse" x="0" y="0" width="60" height="60">
<rect width="60" height="60" fill="#D9D9D9"/>
</mask>
<g mask="url(#mask0_696_1371)">
<path d="M37.9997 42C37.9767 38.1434 36.6184 34.8683 33.925 32.1749C31.2083 29.4582 27.9 28.0999 24 28.0999H22.446L26.646 32.2999L25.231 33.7154L18.6155 27.0999L25.231 20.4844L26.646 21.9229L22.469 26.0999H24C26.218 26.0999 28.2968 26.5172 30.2365 27.3519C32.1761 28.1865 33.871 29.3289 35.321 30.7789C36.771 32.2289 37.9133 33.9237 38.748 35.8634C39.5701 37.7739 39.9873 39.8194 39.9997 42H37.9997Z" fill="#1C1B1F"/>
</g>
</svg>
