<svg xmlns="http://www.w3.org/2000/svg" viewBox="0 0 24 24" width="24" height="24" stroke="currentColor" stroke-linecap="round" stroke-linejoin="round" fill="none">
    <path d="M7.4 10c-2-1.5-1.81-3.167-.81-4 1.264-1.053 3.828-.786 4.9 3.72m0 0c.053.222.102.454.147.696 1.056 5.67-.602 7.875-1.91 8.11-1.31.234-2.238-1.383-2.02-2.999.155-1.154 1.594-3.997 3.783-5.807Zm0 0c.615-.508 1.289-.935 2.01-1.22 2-.79 1 2.618 1 4 1.344-1.344 3.664-2.664 3-2-1.06 1.06.268 2.732 1 2" class="icon-stroke-gray-primary"/>
</svg>
