<svg xmlns="http://www.w3.org/2000/svg" width="24" height="24" viewBox="0 0 24 24"  stroke="currentColor" stroke-linecap="round" stroke-linejoin="round" fill="none">
    <path d="m17.5 8.5-4-4m4 4h-3.9a.1.1 0 0 1-.1-.1V4.5m4 4v2m-4-6h-6a1 1 0 0 0-1 1v12a1 1 0 0 0 1 1h1" class="icon-stroke-gray-secondary"/>
    <path d="M12.5 18.502v-1.848a.15.15 0 0 1 .15-.15h4.7a.15.15 0 0 1 .15.15v1.848m-5 0h-1a1 1 0 0 1-1-1V15.5a1 1 0 0 1 1-1h1m0 4.002c0 .551.447.998.998.998h3.004a.998.998 0 0 0 .998-.998m0 0h1a1 1 0 0 0 1-1V15.5a1 1 0 0 0-1-1h-1m0 0v-1a1 1 0 0 0-1-1h-3a1 1 0 0 0-1 1v1m5 0h-5" class="icon-stroke-gray-primary"/>
</svg>
