<svg xmlns="http://www.w3.org/2000/svg" width="24" height="24" fill="none" viewBox="0 0 24 24">
  <path fill="#383838" fill-rule="evenodd" d="M5.5 6A1.5 1.5 0 0 0 4 7.5v7A1.5 1.5 0 0 0 5.5 16H7v3.259a.6.6 0 0 0 1.024.424l3.537-3.537a.5.5 0 0 1 .353-.146H18.5a1.5 1.5 0 0 0 1.5-1.5v-7A1.5 1.5 0 0 0 18.5 6h-13ZM5 7.5a.5.5 0 0 1 .5-.5h13a.5.5 0 0 1 .5.5v7a.5.5 0 0 1-.5.5h-6.586a1.5 1.5 0 0 0-1.06.44L8 18.292V15.6a.6.6 0 0 0-.6-.6H5.5a.5.5 0 0 1-.5-.5v-7ZM7.5 9a.5.5 0 0 0 0 1h8a.5.5 0 0 0 0-1h-8Zm0 3a.5.5 0 0 0 0 1h4a.5.5 0 0 0 0-1h-4Z" clip-rule="evenodd"/>
</svg>
