<svg xmlns="http://www.w3.org/2000/svg" width="24" height="24" fill="none" viewBox="0 0 24 24">
  <path fill="#383838" fill-rule="evenodd" d="M10.5 7a.5.5 0 0 0-.488.392l-1.695 7.625-1.37-2.74a.5.5 0 0 0-.8-.13l-1 1a.5.5 0 0 0 .707.707l.509-.51 1.69 3.38a.5.5 0 0 0 .935-.116L10.901 8H17.5a.5.5 0 0 0 0-1h-7Zm2.28 4.073a.5.5 0 0 0-.707.707l1.72 1.72-1.72 1.72a.5.5 0 1 0 .707.707l1.72-1.72 1.72 1.72a.5.5 0 1 0 .707-.707l-1.72-1.72 1.72-1.72a.5.5 0 0 0-.707-.707l-1.72 1.72-1.72-1.72Z" clip-rule="evenodd"/>
</svg>
