<svg xmlns="http://www.w3.org/2000/svg" width="24" height="24" fill="none" viewBox="0 0 24 24">
  <path fill="#383838" fill-rule="evenodd" d="M12.354 8.646a.5.5 0 0 1 0 .708l-4.941 4.94a.78.78 0 0 0-.189.798 1.78 1.78 0 0 1-.43 1.82l-.44.442a.207.207 0 1 0 .292.292l.441-.44a1.779 1.779 0 0 1 1.821-.43.78.78 0 0 0 .797-.189l4.941-4.94a.5.5 0 0 1 .708.707l-4.941 4.94a1.779 1.779 0 0 1-1.821.43.78.78 0 0 0-.797.189l-.441.44a1.207 1.207 0 1 1-1.708-1.707l.441-.44a.78.78 0 0 0 .189-.798 1.78 1.78 0 0 1 .43-1.82l4.94-4.942a.5.5 0 0 1 .708 0Z" clip-rule="evenodd"/>
  <path fill="#446ECA" fill-rule="evenodd" d="M14.646 5.647a2.621 2.621 0 0 1 3.708 3.707L15.707 12l1.147 1.147a.5.5 0 0 1-.708.707l-1.5-1.5-3-3-1.5-1.5a.5.5 0 0 1 .708-.707L12 8.293l2.646-2.646ZM12.707 9 15 11.293l2.646-2.646a1.621 1.621 0 1 0-2.292-2.293L12.707 9Z" clip-rule="evenodd"/>
</svg>
