<svg xmlns="http://www.w3.org/2000/svg" width="24" height="24" fill="none" viewBox="0 0 24 24">
  <path fill="#383838" fill-rule="evenodd" d="M5 6.5A1.5 1.5 0 0 1 6.5 5h11A1.5 1.5 0 0 1 19 6.5v7a.5.5 0 0 1-1 0v-7a.5.5 0 0 0-.5-.5h-11a.5.5 0 0 0-.5.5v11a.5.5 0 0 0 .5.5H10a.5.5 0 0 1 0 1H6.5A1.5 1.5 0 0 1 5 17.5v-11ZM12 8a.5.5 0 0 1 .47.332l1.787 5 .714 2a.5.5 0 0 1-.942.336L13.433 14h-2.866l-.596 1.668a.5.5 0 0 1-.942-.336l.714-2 1.786-5A.5.5 0 0 1 12 8Zm-1.076 5h2.152L12 9.987 10.924 13Z" clip-rule="evenodd"/>
  <path fill="#446ECA" fill-rule="evenodd" d="M20.834 15.128a.5.5 0 0 1 .038.707l-4.5 5a.5.5 0 0 1-.726.019l-2.5-2.5a.5.5 0 0 1 .708-.707l2.127 2.127 4.147-4.609a.5.5 0 0 1 .706-.037Z" clip-rule="evenodd"/>
</svg>
