<svg xmlns="http://www.w3.org/2000/svg" viewBox="0 0 24 24" width="24" height="24" stroke="currentColor" stroke-linecap="round" stroke-linejoin="round" fill="none">
    <path fill="currentColor" d="M11.62 5.16a.4.4 0 0 1 .76 0l1.336 4.079a.4.4 0 0 0 .379.275l4.292.01a.4.4 0 0 1 .235.723l-3.467 2.53a.4.4 0 0 0-.144.446l1.317 4.085a.4.4 0 0 1-.616.447l-3.478-2.515a.4.4 0 0 0-.468 0l-3.478 2.515a.4.4 0 0 1-.615-.447l1.317-4.085a.4.4 0 0 0-.145-.445l-3.467-2.531a.4.4 0 0 1 .235-.723l4.292-.01a.4.4 0 0 0 .38-.275l1.335-4.08Z" class="icon-fill-blue-secondary"/>
    <path d="M11.62 5.16a.4.4 0 0 1 .76 0l1.336 4.08a.4.4 0 0 0 .379.275l4.292.01a.4.4 0 0 1 .235.723l-3.467 2.53a.4.4 0 0 0-.144.446l1.317 4.085a.4.4 0 0 1-.616.447l-3.478-2.515a.4.4 0 0 0-.468 0l-3.478 2.515a.4.4 0 0 1-.615-.447l1.317-4.085a.4.4 0 0 0-.145-.445l-3.467-2.531a.4.4 0 0 1 .235-.723l4.292-.01a.4.4 0 0 0 .38-.275l1.335-4.08Z" class="icon-stroke-blue-primary"/>
</svg>
