<svg width="60" height="60" viewBox="0 0 60 60" fill="none" xmlns="http://www.w3.org/2000/svg">
<mask id="mask0_696_1369" style="mask-type:alpha" maskUnits="userSpaceOnUse" x="0" y="0" width="60" height="60">
<rect width="60" height="60" fill="#D9D9D9"/>
</mask>
<g mask="url(#mask0_696_1369)">
<path d="M45.9616 28C45.9616 28 45.9616 28 45.9616 28L43.9386 28C43.9386 28 43.9386 28 43.9386 28L45.9616 28Z" fill="#1C1B1F"/>
<path d="M16.2258 28H14.2177C14.1393 28.6536 14.1001 29.3203 14.1001 30C14.1001 32.218 14.5174 34.2968 15.3521 36.2365C16.1868 38.1762 17.3291 39.871 18.7791 41.321C20.2291 42.771 21.9239 43.9133 23.8636 44.748C25.8033 45.5827 27.8821 46 30.1001 46C32.3974 46 34.5853 45.5257 36.6636 44.577C38.7416 43.6283 40.5538 42.3052 42.1001 40.6075L42.1001 45.3845L44.1001 45.3845V37.077L35.7926 37.077L35.7926 39.077L40.7541 39.077C39.3618 40.6103 37.7553 41.8142 35.9346 42.6885C34.1143 43.5628 32.1694 44 30.1001 44C26.2001 44 22.8918 42.6417 20.1751 39.925C17.4584 37.2083 16.1001 33.9 16.1001 30C16.1001 29.3151 16.142 28.6484 16.2258 28Z" fill="#1C1B1F"/>
<path d="M14 32C14 32 14 32 14 32L16.023 32C16.023 32 16.023 32 16.023 32L14 32Z" fill="#1C1B1F"/>
<path d="M43.7358 32L45.7439 32C45.8223 31.3464 45.8615 30.6797 45.8615 30C45.8615 27.782 45.4441 25.7032 44.6095 23.7635C43.7748 21.8238 42.6325 20.129 41.1825 18.679C39.7325 17.229 38.0376 16.0867 36.098 15.252C34.1583 14.4173 32.0795 14 29.8615 14C27.5641 14 25.3763 14.4743 23.298 15.423C21.22 16.3717 19.4078 17.6948 17.8615 19.3925L17.8615 14.6155L15.8615 14.6155L15.8615 22.923L24.169 22.923L24.169 20.923L19.2075 20.923C20.5998 19.3897 22.2063 18.1858 24.027 17.3115C25.8473 16.4372 27.7921 16 29.8615 16C33.7615 16 37.0698 17.3583 39.7865 20.075C42.5031 22.7917 43.8615 26.1 43.8615 30C43.8615 30.6849 43.8196 31.3516 43.7358 32Z" fill="#1C1B1F"/>
</g>
</svg>
