<?xml version="1.0" encoding="utf-8"?>
<!-- Generator: Adobe Illustrator 19.0.0, SVG Export Plug-In . SVG Version: 6.00 Build 0)  -->
<svg version="1.1" id="Layer_1" xmlns="http://www.w3.org/2000/svg" xmlns:xlink="http://www.w3.org/1999/xlink" x="0px" y="0px"
	 viewBox="88 -11 242 44" style="enable-background:new 88 -11 242 44;" xml:space="preserve">
<style type="text/css">
	.st0{fill:#fff;}
	.st2{fill-rule:evenodd;clip-rule:evenodd;}
</style>
<g id="XMLID_7_">
	<path id="XMLID_9_" d="M128,6h-14c-0.6,0-1,0.4-1,1s0.4,1,1,1h14c0.6,0,1-0.4,1-1S128.6,6,128,6z"/>
	<path id="XMLID_8_" d="M120.1,3.6c0.1,0.1,0.2,0.2,0.4,0.2c0.1,0.1,0.3,0.1,0.5,0.1s0.3-0.1,0.5-0.1
		c0.1,0,0.3-0.1,0.4-0.2l3.5-3.5c0.4-0.4,0.4-1,0-1.4s-1-0.4-1.4,0l-2,2V-7c0-0.6-0.4-1-1-1s-1,0.4-1,1v7.7l-2-2
		c-0.4-0.4-1-0.4-1.4,0s-0.4,1,0,1.4L120.1,3.6z"/>
</g>
<path id="XMLID_14_" d="M147.3,3c-0.8,0-1.5,0.3-2.1,0.8l-4.7-2.7c0.1-0.3,0.2-0.7,0.2-1.1s-0.1-0.8-0.2-1.1l4.7-2.7
	c0.6,0.5,1.3,0.8,2.1,0.8c1.7,0,3.1-1.4,3.1-3.1s-1.4-3.1-3.1-3.1s-3.1,1.4-3.1,3.1c0,0.3,0,0.5,0.1,0.8l-4.9,2.8
	c-0.5-0.4-1.1-0.6-1.8-0.6c-1.7,0-3.1,1.4-3.1,3.1s1.4,3.1,3.1,3.1c0.7,0,1.3-0.2,1.8-0.6l4.8,2.8c-0.1,0.3-0.1,0.5-0.1,0.8
	c0,1.7,1.4,3.1,3.1,3.1c1.7,0,3.1-1.4,3.1-3.1C150.4,4.4,149,3,147.3,3z"/>
<g>
	<path d="M159.3,0l4-4c0.5-0.5,0.5-1.2,0-1.7s-1.2-0.5-1.7,0l-4.4,4.4c-0.2,0-0.4,0.1-0.6,0.3c-0.3,0.3-0.4,0.7-0.3,1
		c0,0.3,0.1,0.7,0.3,1c0.2,0.2,0.4,0.3,0.6,0.3l4.4,4.4c0.5,0.5,1.2,0.5,1.7,0s0.5-1.2,0-1.7L159.3,0z"/>
	<path d="M173.4-1c-0.2-0.2-0.4-0.3-0.6-0.3l-4.4-4.4c-0.5-0.5-1.2-0.5-1.7,0s-0.5,1.2,0,1.7l4,4l-4,4c-0.5,0.5-0.5,1.2,0,1.7
		s1.2,0.5,1.7,0l4.4-4.4c0.2,0,0.4-0.1,0.6-0.3c0.3-0.3,0.4-0.7,0.3-1C173.8-0.3,173.7-0.7,173.4-1z"/>
	<g id="XMLID_4_">
		<path id="XMLID_21_" d="M194.9-7.3c0-0.1-0.1-0.2-0.2-0.3c-0.1-0.1-0.2-0.2-0.3-0.2C194.2-8,194.1-8,194-8h-4.2
			c-0.5,0-0.8,0.4-0.8,0.8c0,0.5,1,1.2,1,1.2l0.8,0.8l-2.6,2.6c-0.4,0.4-0.4,1,0,1.4s1,0.4,1.4,0l2.6-2.6l1.3,1.4
			c0.1,0.2,0.4,0.4,0.7,0.4c0.5,0,0.8-0.4,0.8-0.8V-7C195-7.1,195-7.2,194.9-7.3z"/>
		<path id="XMLID_22_" d="M184.4,1.2l-2.6,2.6l-1.3-1.4c-0.1-0.2-0.4-0.4-0.7-0.4c-0.5,0-0.8,0.4-0.8,0.8V7c0,0.1,0,0.3,0.1,0.4
			c0,0.1,0.1,0.2,0.2,0.3c0.1,0.1,0.2,0.2,0.3,0.2C179.8,8,179.9,8,180,8h4.2c0.5,0,0.8-0.4,0.8-0.8S184,6,184,6l-0.8-0.8l2.6-2.6
			c0.4-0.4,0.4-1,0-1.4C185.4,0.8,184.8,0.8,184.4,1.2z"/>
	</g>
</g>
	<path id="imgtools" d="M90-6v2h18v-2H90z M90,1h18v-2H90V1z M90,6h18V4H90V6z"/>
	<path id="imgplus" d="M210-8h-2v7h-7v2h7v7h2V1h7v-2h-7V-8z"/>
	<rect id="imgminus" x="223" y="-1" width="16" height="2"/>
	<path id="play" d="M305,0l-16-7V6.9L305,0z"/>
	<polygon id="rmove" class="st2" points="279.9,-0.2 272.1,-8 270,-5.9 275.8,-0.1 270,5.8 272.1,7.9 279.9,0.1 280,-0.1"/>
	<polygon id="lmove" class="st2" points="258,-5.8 255.9,-7.9 248.1,-0.1 248,0.1 248.1,0.2 255.9,8 258,5.9 252.2,0.1 	"/>
<g id="pause">
	<rect x="313" y="-7" width="4" height="14"/>
	<rect x="321" y="-7" width="4" height="14"/>
</g>
	<use xlink:href="#imgtools" class="st0" y="22"></use>
	<use xlink:href="#imgplus" class="st0" y="22"></use>
	<use xlink:href="#imgminus" class="st0" y="22"></use>
	<use xlink:href="#play" class="st0" y="22" x="2"></use>
	<use xlink:href="#pause" class="st0" y="22"></use>
	<use xlink:href="#rmove" class="st0" x="1" y="22"></use>
	<use xlink:href="#lmove" class="st0" x="-1" y="22"></use>
</svg>
