<?xml version="1.0" encoding="utf-8"?>
<!-- Generator: Adobe Illustrator 19.0.0, SVG Export Plug-In . SVG Version: 6.00 Build 0)  -->
<svg version="1.1" id="Layer_1" xmlns="http://www.w3.org/2000/svg" xmlns:xlink="http://www.w3.org/1999/xlink" x="0px" y="0px"
	 viewBox="0 0 152 76" style="enable-background:new 0 0 152 76;" xml:space="preserve">
	<defs>
			<path id="sc-net" d="M144.9,0h-23.8c-3.9,0-7.1,3.2-7.1,7.1v23.7c0,3.9,3.2,7.1,7.1,7.1h23.8c3.9,0,7.1-3.2,7.1-7.1V7.1
				C152,3.2,148.8,0,144.9,0z M146.7,28.3c0,1.3-1.1,2.4-2.4,2.4h-22.4c-1.3,0-2.4-1.1-2.4-2.4V9.7c0-1.3,1.1-2.4,2.4-2.4h22.4
				c1.3,0,2.4,1.1,2.4,2.4V28.3z M68.9,0H45.1C41.2,0,38,3.2,38,7.1v23.7c0,3.9,3.2,7.1,7.1,7.1h23.7c3.9,0,7.1-3.2,7.1-7.1V7.1
				C76,3.2,72.8,0,68.9,0z M67.1,14.6c0,0.2,0,0.4,0,0.7c0,6.9-5.2,14.8-14.8,14.8c-2.9,0-5.7-0.9-8-2.3c0.4,0,0.8,0.1,1.2,0.1
				c2.4,0,4.7-0.8,6.5-2.2c-2.3,0-4.2-1.6-4.8-3.6c0.3,0,0.6,0.1,1,0.1c0.5,0,0.8-0.1,1.3-0.2c-2.4-0.5-4.3-2.6-4.3-5.1c0,0,0,0,0,0
				c0.8,0.4,1.6,0.6,2.5,0.6c-1.4-0.9-2.3-2.5-2.3-4.3c0-0.9,0.3-1.9,0.7-2.6c2.6,3.2,6.4,5.2,10.7,5.4c-0.1-0.4-0.1-0.8-0.1-1.2
				c0-2.9,2.3-5.2,5.2-5.2c1.5,0,2.8,0.6,3.8,1.6c1.2-0.2,2.3-0.7,3.3-1.3c-0.4,1.2-1.2,2.3-2.3,2.9c1.1-0.1,2.1-0.4,3-0.8
				C69,13,68.1,13.9,67.1,14.6z M30.9,0H7.1C3.2,0,0,3.2,0,7.1v23.7C0,34.8,3.2,38,7.1,38h11.7V26.8h-5.3v-5.7h5.3V17
				c0-4.8,3.2-7.5,7.9-7.5c2.2,0,4.2,0.1,4.7,0.2v5.1l-3.2,0c-2.6,0-3.1,1.1-3.1,2.7v3.6h6.1l-0.8,5.7h-5.3V38h5.7
				c3.9,0,7.1-3.2,7.1-7.1V7.1C38,3.2,34.8,0,30.9,0z M136.8,20.6c-1.1,0.9-2.4,2-3.8,2h0h0c-1.5,0-2.8-1.1-3.8-2c-2-1.6-4-3.2-6-4.8
				c-0.4-0.3-0.7-0.6-1-0.9v12.6c0,0.2,0.2,0.5,0.4,0.5h20.7c0.2,0,0.4-0.2,0.4-0.5V14.9c-0.3,0.3-0.6,0.6-1,0.9
				C140.8,17.4,138.8,19,136.8,20.6z M106.9,0H83.1C79.2,0,76,3.2,76,7.1v23.7c0,3.9,3.2,7.1,7.1,7.1h23.8c3.9,0,7.1-3.2,7.1-7.1V7.1
				C114,3.2,110.8,0,106.9,0z M89.6,28.5c-5.3,0-9.5-4.3-9.5-9.5c0-5.2,4.2-9.5,9.5-9.5c2.5,0,4.7,0.9,6.4,2.5l-2.6,2.5
				c-0.7-0.7-2-1.5-3.8-1.5c-3.3,0-5.9,2.7-5.9,6s2.6,6,5.9,6c3.8,0,5.2-2.7,5.4-4.1h-5.4v-3.3h9c0.1,0.5,0.1,1,0.1,1.6
				C98.7,24.6,95,28.5,89.6,28.5z M109.9,20.4h-2.7v2.7h-2.7v-2.7h-2.7v-2.7h2.7v-2.7h2.7v2.7h2.7V20.4z M143.3,10h-20.7
				c-0.2,0-0.4,0.2-0.4,0.5c0,1.6,0.8,3,2.1,4c1.9,1.5,3.8,3,5.6,4.5c0.7,0.6,2.1,1.9,3.1,1.9h0h0c1,0,2.3-1.3,3.1-1.9
				c1.9-1.5,3.7-3,5.6-4.5c0.9-0.7,2.1-2.3,2.1-3.5C143.8,10.6,143.9,10,143.3,10z"/>
	</defs>
	<use xlink:href="#sc-net" fill="#999"></use>
	<use xlink:href="#sc-net" fill="#666666" y="38"></use>
</svg>
