<svg width="620" height="40" viewBox="0 0 620 40" fill="none" xmlns="http://www.w3.org/2000/svg">
    <g id="icon-menu-sprite Embedded Viewer">
        <g id="view-settings">
            <path d="M17 26H3V27H17V26Z" fill="white"/>
            <path d="M17 30H3V31H17V30Z" fill="white"/>
            <path d="M3 34H17V35H3V34Z" fill="white"/>
        </g>
        <g id="download">
            <path d="M30 22H31V33.2929L35.6465 28.6464L36.3536 29.3536L30.5 35.2071L24.6465 29.3536L25.3536 28.6464L30 33.2929V22Z" fill="white"/>
            <path d="M24 36H37V37H24V36Z" fill="white"/>
        </g>
        <g id="share">
            <path d="M56 25C56 26.1046 55.1046 27 54 27C53.4663 27 52.9815 26.791 52.6229 26.4503L47.9076 29.3974C47.9676 29.5875 48 29.79 48 30C48 30.21 47.9676 30.4125 47.9076 30.6026L52.6229 33.5497C52.9815 33.209 53.4663 33 54 33C55.1046 33 56 33.8954 56 35C56 36.1046 55.1046 37 54 37C52.8954 37 52 36.1046 52 35C52 34.79 52.0324 34.5875 52.0924 34.3974L47.3771 31.4503C47.0185 31.791 46.5337 32 46 32C44.8954 32 44 31.1046 44 30C44 28.8954 44.8954 28 46 28C46.5337 28 47.0185 28.209 47.3771 28.5497L52.0924 25.6026C52.0324 25.4125 52 25.21 52 25C52 23.8954 52.8954 23 54 23C55.1046 23 56 23.8954 56 25Z" fill="white"/>
        </g>
        <g id="embed">
            <path d="M67.1465 24.6465L67.8536 25.3536L63.7072 29.5L67.8536 33.6465L67.1465 34.3536L62.293 29.5L67.1465 24.6465Z" fill="white"/>
            <path d="M72.8536 24.6465L72.1465 25.3536L76.293 29.5L72.1465 33.6465L72.8536 34.3536L77.7072 29.5L72.8536 24.6465Z" fill="white"/>
        </g>
        <g id="full-screen">
            <path d="M86 23H83V26H84V24H86V23Z" fill="white"/>
            <path d="M86 26V34H94V26H86ZM93 27V33H87V27H93Z" fill="white"/>
            <path d="M97 23V26H96V24H94V23H97Z" fill="white"/>
            <path d="M94 37H97V34H96V36H94V37Z" fill="white"/>
            <path d="M83 37V34H84V36H86V37H83Z" fill="white"/>
        </g>
        <g id="zoom-in">
            <path d="M111 25H110V30H105V31H110V36H111V31H116V30H111V25Z" fill="white"/>
        </g>
        <g id="zoom-out">
            <path d="M135 31V30H125V31H135Z" fill="white"/>
        </g>
        <g id="scroll-to-first-sheet">
            <path d="M146 25H145V35H146V25Z" fill="white"/>
            <path d="M147 30L155 25V35L147 30Z" fill="white"/>
        </g>
        <g id="scroll-to-last-sheet">
            <path d="M173 30L165 35V25L173 30Z" fill="white"/>
            <path d="M175 35H174V25H175V35Z" fill="white"/>
        </g>
        <g id="play">
            <path d="M185 23L198 30L185 37V23Z" fill="white"/>
        </g>
        <g id="pause">
            <path d="M205 35V25H209V35H205Z" fill="white"/>
            <path d="M211 35V25H215V35H211Z" fill="white"/>
        </g>
        <g id="print">
            <path d="M226 24V26H234V24H226ZM225 26V24C225 23.4477 225.448 23 226 23H234C234.552 23 235 23.4477 235 24V26H237C237.552 26 238 26.4477 238 27V33C238 33.5523 237.552 34 237 34H235V36C235 36.5523 234.552 37 234 37H226C225.448 37 225 36.5523 225 36V34H223C222.448 34 222 33.5523 222 33V27C222 26.4477 222.448 26 223 26H225ZM225 33V31C225 30.4477 225.448 30 226 30H234C234.552 30 235 30.4477 235 31V33H237V27H234H226H223V33H225ZM225 28H224V29H225V28ZM234 31H226V36H234V31ZM227 32H233V33H227V32ZM233 34H227V35H233V34Z" fill="white"/>
        </g>
        <g id="clear-style">
            <path d="M253.268 24.5608C252.291 23.5845 250.708 23.5845 249.732 24.5608L243.561 30.7324C242.584 31.7087 242.584 33.2916 243.561 34.268L245.146 35.8537L245.293 36.0002H245.5H249.5H249.707H255V35.0002H250.707L255.439 30.268C256.416 29.2916 256.416 27.7087 255.439 26.7324L253.268 24.5608ZM249.293 35.0002H245.707L244.268 33.5609C243.682 32.9751 243.682 32.0253 244.268 31.4395L248.5 27.2073L252.793 31.5002L249.293 35.0002ZM249.207 26.5002L250.439 25.268C251.025 24.6822 251.975 24.6822 252.561 25.268L254.732 27.4395C255.318 28.0253 255.318 28.9751 254.732 29.5608L253.5 30.7931L249.207 26.5002Z" fill="white"/>
        </g>
        <g id="view-settings_2">
            <path d="M17 6H3V7H17V6Z" fill="black"/>
            <path d="M17 10H3V11H17V10Z" fill="black"/>
            <path d="M3 14H17V15H3V14Z" fill="black"/>
        </g>
        <g id="download_2">
            <path d="M30 2H31V13.2929L35.6465 8.64645L36.3536 9.35355L30.5 15.2071L24.6465 9.35355L25.3536 8.64645L30 13.2929V2Z" fill="black"/>
            <path d="M24 16H37V17H24V16Z" fill="black"/>
        </g>
        <g id="share_3">
            <path d="M56 5C56 6.10457 55.1046 7 54 7C53.4663 7 52.9815 6.79098 52.6229 6.45034L47.9076 9.39737C47.9676 9.58754 48 9.78999 48 10C48 10.21 47.9676 10.4125 47.9076 10.6026L52.6229 13.5497C52.9815 13.209 53.4663 13 54 13C55.1046 13 56 13.8954 56 15C56 16.1046 55.1046 17 54 17C52.8954 17 52 16.1046 52 15C52 14.79 52.0324 14.5875 52.0924 14.3974L47.3771 11.4503C47.0185 11.791 46.5337 12 46 12C44.8954 12 44 11.1046 44 10C44 8.89543 44.8954 8 46 8C46.5337 8 47.0185 8.20902 47.3771 8.54966L52.0924 5.60264C52.0324 5.41246 52 5.21001 52 5C52 3.89543 52.8954 3 54 3C55.1046 3 56 3.89543 56 5Z" fill="black"/>
        </g>
        <g id="embed _3">
            <path d="M67.1465 4.64648L67.8536 5.35359L63.7072 9.50004L67.8536 13.6465L67.1465 14.3536L62.293 9.50004L67.1465 4.64648Z" fill="black"/>
            <path d="M72.8536 4.64648L72.1465 5.35359L76.293 9.50004L72.1465 13.6465L72.8536 14.3536L77.7072 9.50004L72.8536 4.64648Z" fill="black"/>
        </g>
        <g id="full-screen_2">
            <path d="M86 3H83V6H84V4H86V3Z" fill="black"/>
            <path d="M86 6V14H94V6H86ZM93 7V13H87V7H93Z" fill="black"/>
            <path d="M97 3V6H96V4H94V3H97Z" fill="black"/>
            <path d="M94 17H97V14H96V16H94V17Z" fill="black"/>
            <path d="M83 17V14H84V16H86V17H83Z" fill="black"/>
        </g>
        <g id="zoom-in_2">
            <path d="M111 5H110V10H105V11H110V16H111V11H116V10H111V5Z" fill="black"/>
        </g>
        <g id="zoom-out_2">
            <path d="M135 11V10H125V11H135Z" fill="black"/>
        </g>
        <g id="scroll-to-first-sheet_2">
            <path d="M146 5H145V15H146V5Z" fill="black"/>
            <path d="M147 10L155 5V15L147 10Z" fill="black"/>
        </g>
        <g id="scroll-to-last-sheet_2">
            <path d="M173 10L165 15V5L173 10Z" fill="black"/>
            <path d="M175 15H174V5H175V15Z" fill="black"/>
        </g>
        <g id="play_2">
            <path d="M185 3L198 10L185 17V3Z" fill="black"/>
        </g>
        <g id="pause_2">
            <path d="M205 15V5H209V15H205Z" fill="black"/>
            <path d="M211 15V5H215V15H211Z" fill="black"/>
        </g>
        <g id="print_2">
            <path d="M226 4V6H234V4H226ZM225 6V4C225 3.44772 225.448 3 226 3H234C234.552 3 235 3.44772 235 4V6H237C237.552 6 238 6.44772 238 7V13C238 13.5523 237.552 14 237 14H235V16C235 16.5523 234.552 17 234 17H226C225.448 17 225 16.5523 225 16V14H223C222.448 14 222 13.5523 222 13V7C222 6.44772 222.448 6 223 6H225ZM225 13V11C225 10.4477 225.448 10 226 10H234C234.552 10 235 10.4477 235 11V13H237V7H234H226H223V13H225ZM225 8H224V9H225V8ZM234 11H226V16H234V11ZM227 12H233V13H227V12ZM233 14H227V15H233V14Z" fill="black"/>
        </g>
        <g id="clear-style_2">
            <path d="M253.268 4.56085C252.291 3.58454 250.708 3.58453 249.732 4.56085L243.561 10.7324C242.584 11.7087 242.584 13.2916 243.561 14.268L245.146 15.8537L245.293 16.0002H245.5H249.5H249.707H255V15.0002H250.707L255.439 10.268C256.416 9.29164 256.416 7.70873 255.439 6.73242L253.268 4.56085ZM249.293 15.0002H245.707L244.268 13.5609C243.682 12.9751 243.682 12.0253 244.268 11.4395L248.5 7.20729L252.793 11.5002L249.293 15.0002ZM249.207 6.50019L250.439 5.26795C251.025 4.68217 251.975 4.68217 252.561 5.26795L254.732 7.43953C255.318 8.02531 255.318 8.97506 254.732 9.56085L253.5 10.7931L249.207 6.50019Z" fill="black"/>
        </g>
        <g id="edit">
            <path d="M272 25L275 28L277 26V25L275 23H274L272 25Z" fill="white"/>
            <path d="M263 37V34L271 26L274 29L266 37H263Z" fill="white"/>
        </g>
        <g id="more-vertical">
            <path d="M289 26C289 26.5523 289.448 27 290 27C290.552 27 291 26.5523 291 26C291 25.4477 290.552 25 290 25C289.448 25 289 25.4477 289 26Z" fill="white"/>
            <path d="M289 30C289 30.5523 289.448 31 290 31C290.552 31 291 30.5523 291 30C291 29.4477 290.552 29 290 29C289.448 29 289 29.4477 289 30Z" fill="white"/>
            <path d="M290 35C289.448 35 289 34.5523 289 34C289 33.4477 289.448 33 290 33C290.552 33 291 33.4477 291 34C291 34.5523 290.552 35 290 35Z" fill="white"/>
        </g>
        <g id="go-to-location">
            <path d="M313.207 31.5L310.354 34.3536L309.646 33.6465L311.318 31.9747H306V30.9747H311.268L309.646 29.3536L310.354 28.6465L313.207 31.5Z" fill="white"/>
            <path d="M311 26H317C317.55 26 318 26.45 318 27V36C318 36.55 317.55 37 317 37H303C302.45 37 302 36.55 302 36V25C302 24.45 302.45 24 303 24H310C310.55 24 311 24.45 311 25V26ZM303 25V36H317V27H310V25H303Z" fill="white"/>
        </g>
        <g id="arrow-down">
            <path d="M331 23H330V34.2929L325.354 29.6464L324.646 30.3536L330.146 35.8536L330.5 36.2071L330.854 35.8536L336.354 30.3536L335.646 29.6464L331 34.2929V23Z" fill="white"/>
        </g>
        <g id="edit_2">
            <path d="M272 5L275 8L277 6V5L275 3H274L272 5Z" fill="black"/>
            <path d="M263 17V14L271 6L274 9L266 17H263Z" fill="black"/>
        </g>
        <g id="more-vertical_2">
            <path d="M289 6C289 6.55228 289.448 7 290 7C290.552 7 291 6.55228 291 6C291 5.44772 290.552 5 290 5C289.448 5 289 5.44772 289 6Z" fill="black"/>
            <path d="M289 10C289 10.5523 289.448 11 290 11C290.552 11 291 10.5523 291 10C291 9.44772 290.552 9 290 9C289.448 9 289 9.44772 289 10Z" fill="black"/>
            <path d="M290 15C289.448 15 289 14.5523 289 14C289 13.4477 289.448 13 290 13C290.552 13 291 13.4477 291 14C291 14.5523 290.552 15 290 15Z" fill="black"/>
        </g>
        <g id="go-to-location_2">
            <path d="M313.207 11.5L310.354 14.3536L309.646 13.6465L311.318 11.9747H306V10.9747H311.268L309.646 9.35359L310.354 8.64648L313.207 11.5Z" fill="black"/>
            <path d="M311 6H317C317.55 6 318 6.45 318 7V16C318 16.55 317.55 17 317 17H303C302.45 17 302 16.55 302 16V5C302 4.45 302.45 4 303 4H310C310.55 4 311 4.45 311 5V6ZM303 5V16H317V7H310V5H303Z" fill="black"/>
        </g>
        <g id="arrow-down_2">
            <path d="M331 3H330V14.2929L325.354 9.64645L324.646 10.3536L330.146 15.8536L330.5 16.2071L330.854 15.8536L336.354 10.3536L335.646 9.64645L331 14.2929V3Z" fill="black"/>
        </g>
        <g id="arrow-up">
            <path d="M350 36.207H351V24.9141L355.646 29.5606L356.354 28.8535L350.854 23.3535L350.5 22.9999L350.146 23.3535L344.646 28.8535L345.354 29.5606L350 24.9141V36.207Z" fill="white"/>
        </g>
        <g id="arrow-up_2">
            <path d="M350 16.207H351V4.91413L355.646 9.56058L356.354 8.85347L350.854 3.35347L350.5 2.99992L350.146 3.35347L344.646 8.85347L345.354 9.56058L350 4.91413V16.207Z" fill="black"/>
        </g>
        <g id="close">
            <path d="M369.438 29.5L365.469 25.5303L366.529 24.4697L370.499 28.4393L374.469 24.4697L375.529 25.5303L371.56 29.5L375.529 33.4697L374.469 34.5303L370.499 30.5607L366.529 34.5303L365.469 33.4697L369.438 29.5Z" fill="white"/>
        </g>
        <g id="close_2">
            <path d="M369.438 9.5L365.469 5.53033L366.529 4.46967L370.499 8.43934L374.469 4.46967L375.529 5.53033L371.56 9.5L375.529 13.4697L374.469 14.5303L370.499 10.5607L366.529 14.5303L365.469 13.4697L369.438 9.5Z" fill="black"/>
        </g>
        <g id="сut">
            <path d="M385.5 4C384.119 4 383 5.11929 383 6.5C383 7.88071 384.119 9 385.5 9C386.024 9 386.511 8.83865 386.913 8.56292L389.402 9.99991L386.913 11.437C386.511 11.1613 386.024 11 385.5 11C384.119 11 383 12.1193 383 13.5C383 14.8807 384.119 16 385.5 16C386.881 16 388 14.8807 388 13.5C388 13.0158 387.862 12.5638 387.624 12.1809L390.401 10.5773L397.079 14.4329C397.558 14.7091 398.17 14.5452 398.446 14.0669L391.401 9.9999L398.446 5.93292C398.17 5.45463 397.557 5.29075 397.079 5.56689L390.402 9.42255L387.624 7.81899C387.862 7.43613 388 6.98413 388 6.5C388 5.11929 386.881 4 385.5 4ZM384 6.5C384 5.67157 384.672 5 385.5 5C386.328 5 387 5.67157 387 6.5C387 7.32843 386.328 8 385.5 8C384.672 8 384 7.32843 384 6.5ZM384 13.5C384 12.6716 384.672 12 385.5 12C386.328 12 387 12.6716 387 13.5C387 14.3284 386.328 15 385.5 15C384.672 15 384 14.3284 384 13.5Z" fill="black"/>
        </g>
        <g id="сut_2">
            <path d="M385.5 24C384.119 24 383 25.1193 383 26.5C383 27.8807 384.119 29 385.5 29C386.024 29 386.511 28.8386 386.913 28.5629L389.402 29.9999L386.913 31.437C386.511 31.1613 386.024 31 385.5 31C384.119 31 383 32.1193 383 33.5C383 34.8807 384.119 36 385.5 36C386.881 36 388 34.8807 388 33.5C388 33.0158 387.862 32.5638 387.624 32.1809L390.402 30.5772L397.079 34.4329C397.558 34.7091 398.17 34.5452 398.446 34.0669L391.401 29.9999L398.446 25.9329C398.17 25.4546 397.557 25.2908 397.079 25.5669L390.402 29.4226L387.624 27.819C387.862 27.4361 388 26.9841 388 26.5C388 25.1193 386.881 24 385.5 24ZM384 26.5C384 25.6716 384.672 25 385.5 25C386.328 25 387 25.6716 387 26.5C387 27.3284 386.328 28 385.5 28C384.672 28 384 27.3284 384 26.5ZM384 33.5C384 32.6716 384.672 32 385.5 32C386.328 32 387 32.6716 387 33.5C387 34.3284 386.328 35 385.5 35C384.672 35 384 34.3284 384 33.5Z" fill="white"/>
        </g>
        <g id="copy">
            <path d="M404 5H412V7H413V5C413 4.44772 412.552 4 412 4H404C403.448 4 403 4.44772 403 5V12C403 12.5523 403.448 13 404 13H406V12H404V5ZM411 6H405V7H411V6ZM408 9H416V16H408V9ZM408 8C407.448 8 407 8.44772 407 9V16C407 16.5523 407.448 17 408 17H416C416.552 17 417 16.5523 417 16V9C417 8.44772 416.552 8 416 8H408ZM406 8H405V9H406V8ZM405 10H406V11H405V10ZM415 11V10H409V11H415ZM415 12V13H409V12H415ZM415 15V14H409V15H415Z" fill="black"/>
        </g>
        <g id="copy_2">
            <path d="M404 25H412V27H413V25C413 24.4477 412.552 24 412 24H404C403.448 24 403 24.4477 403 25V32C403 32.5523 403.448 33 404 33H406V32H404V25ZM411 26H405V27H411V26ZM408 29H416V36H408V29ZM408 28C407.448 28 407 28.4477 407 29V36C407 36.5523 407.448 37 408 37H416C416.552 37 417 36.5523 417 36V29C417 28.4477 416.552 28 416 28H408ZM406 28H405V29H406V28ZM405 30H406V31H405V30ZM415 31V30H409V31H415ZM415 32V33H409V32H415ZM415 35V34H409V35H415Z" fill="white"/>
        </g>
        <g id="paste">
            <path d="M426 3H432V4H434C434.552 4 435 4.44772 435 5V7H434V5H432V6H426V5H424V12H426V13H424C423.448 13 423 12.5523 423 12V5C423 4.44772 423.448 4 424 4H426V3ZM436 16H428V9H436V16ZM428 8C427.448 8 427 8.44772 427 9V16C427 16.5523 427.448 17 428 17H436C436.552 17 437 16.5523 437 16V9C437 8.44772 436.552 8 436 8H428ZM429 11V10H435V11H429ZM435 12H429V13H435V12ZM429 15V14H435V15H429Z" fill="black"/>
        </g>
        <g id="paste_2">
            <path d="M426 23H432V24H434C434.552 24 435 24.4477 435 25V27H434V25H432V26H426V25H424V32H426V33H424C423.448 33 423 32.5523 423 32V25C423 24.4477 423.448 24 424 24H426V23ZM436 36H428V29H436V36ZM428 28C427.448 28 427 28.4477 427 29V36C427 36.5523 427.448 37 428 37H436C436.552 37 437 36.5523 437 36V29C437 28.4477 436.552 28 436 28H428ZM429 31V30H435V31H429ZM435 32H429V33H435V32ZM429 35V34H435V35H429Z" fill="white"/>
        </g>
        <g id="redo">
            <path d="M474.293 8.00021L470.846 11.4472L471.553 12.1543L476.207 7.50021L471.553 2.84665L470.846 3.55376L474.293 7.00021L468 7.00022C466.5 7.00022 465.24 7.35274 464.349 8.12815C463.447 8.91371 463 10.0667 463 11.5002C463 12.9337 463.447 14.0867 464.349 14.8723C465.24 15.6477 466.5 16.0002 468 16.0002H470V15.0002H468C466.64 15.0002 465.65 14.6794 465.006 14.1181C464.373 13.567 464 12.72 464 11.5002C464 10.2804 464.373 9.43342 465.006 8.8823C465.65 8.32105 466.64 8.00022 468 8.00022L474.293 8.00021Z" fill="black"/>
        </g>
        <g id="redo_2">
            <path d="M474.293 28.0002L470.846 31.4472L471.553 32.1543L476.207 27.5002L471.553 22.8466L470.846 23.5538L474.293 27.0002L468 27.0002C466.5 27.0002 465.24 27.3527 464.349 28.1282C463.447 28.9137 463 30.0667 463 31.5002C463 32.9337 463.447 34.0867 464.349 34.8723C465.24 35.6477 466.5 36.0002 468 36.0002H470V35.0002H468C466.64 35.0002 465.65 34.6794 465.006 34.1181C464.373 33.567 464 32.72 464 31.5002C464 30.2804 464.373 29.4334 465.006 28.8823C465.65 28.321 466.64 28.0002 468 28.0002L474.293 28.0002Z" fill="white"/>
        </g>
        <g id="undo">
            <path d="M445.707 8.00021L449.154 11.4472L448.447 12.1543L443.793 7.50021L448.447 2.84665L449.154 3.55376L445.707 7.00021L452 7.00022C453.5 7.00022 454.76 7.35274 455.651 8.12815C456.553 8.91371 457 10.0667 457 11.5002C457 12.9337 456.553 14.0867 455.651 14.8723C454.76 15.6477 453.5 16.0002 452 16.0002H450V15.0002H452C453.36 15.0002 454.35 14.6794 454.994 14.1181C455.627 13.567 456 12.72 456 11.5002C456 10.2804 455.627 9.43342 454.994 8.8823C454.35 8.32105 453.36 8.00022 452 8.00022L445.707 8.00021Z" fill="black"/>
        </g>
        <g id="undo_2">
            <path d="M445.707 28.0002L449.154 31.4472L448.447 32.1543L443.793 27.5002L448.447 22.8466L449.154 23.5538L445.707 27.0002L452 27.0002C453.5 27.0002 454.76 27.3527 455.651 28.1282C456.553 28.9137 457 30.0667 457 31.5002C457 32.9337 456.553 34.0867 455.651 34.8723C454.76 35.6477 453.5 36.0002 452 36.0002H450V35.0002H452C453.36 35.0002 454.35 34.6794 454.994 34.1181C455.627 33.567 456 32.72 456 31.5002C456 30.2804 455.627 29.4334 454.994 28.8823C454.35 28.321 453.36 28.0002 452 28.0002L445.707 28.0002Z" fill="white"/>
        </g>
        <g id="search">
            <path d="M493 8.5C493 6.01472 490.985 4 488.5 4C486.015 4 484 6.01472 484 8.5C484 10.9853 486.015 13 488.5 13C490.985 13 493 10.9853 493 8.5ZM492.02 12.7266C491.066 13.5217 489.839 14 488.5 14C485.462 14 483 11.5376 483 8.5C483 5.46243 485.462 3 488.5 3C491.538 3 494 5.46243 494 8.5C494 9.83875 493.522 11.0658 492.727 12.0195L496.854 16.1465L496.146 16.8536L492.02 12.7266Z" fill="black"/>
        </g>
        <g id="search_2">
            <path d="M493 28.5C493 26.0147 490.985 24 488.5 24C486.015 24 484 26.0147 484 28.5C484 30.9853 486.015 33 488.5 33C490.985 33 493 30.9853 493 28.5ZM492.02 32.7266C491.066 33.5217 489.839 34 488.5 34C485.462 34 483 31.5376 483 28.5C483 25.4624 485.462 23 488.5 23C491.538 23 494 25.4624 494 28.5C494 29.8387 493.522 31.0658 492.727 32.0195L496.854 36.1465L496.146 36.8536L492.02 32.7266Z" fill="white"/>
        </g>
        <g id="btn-sheet-view">
            <path d="M509.93 13C512.307 13 514.409 11.8151 515.675 10C514.409 8.18486 512.307 7 509.93 7C507.552 7 505.45 8.18485 504.184 10C505.45 11.8151 507.552 13 509.93 13ZM509.93 6C512.891 6 515.476 7.6088 516.859 10C515.476 12.3912 512.891 14 509.93 14C506.969 14 504.383 12.3912 503 10C504.383 7.60879 506.969 6 509.93 6ZM509.93 12C511.034 12 511.93 11.1046 511.93 10C511.93 8.89543 511.034 8 509.93 8C508.825 8 507.93 8.89543 507.93 10C507.93 11.1046 508.825 12 509.93 12Z" fill="black"/>
        </g>
        <g id="btn-sheet-view_2">
            <path d="M509.93 33C512.307 33 514.409 31.8151 515.675 30C514.409 28.1849 512.307 27 509.93 27C507.552 27 505.45 28.1849 504.184 30C505.45 31.8151 507.552 33 509.93 33ZM509.93 26C512.891 26 515.476 27.6088 516.859 30C515.476 32.3912 512.891 34 509.93 34C506.969 34 504.383 32.3912 503 30C504.383 27.6088 506.969 26 509.93 26ZM509.93 32C511.034 32 511.93 31.1046 511.93 30C511.93 28.8954 511.034 28 509.93 28C508.825 28 507.93 28.8954 507.93 30C507.93 31.1046 508.825 32 509.93 32Z" fill="white"/>
        </g>
        <g id="hide-password">
            <path d="M525.354 15.3536L535.354 5.35356L534.646 4.64645L524.646 14.6465L525.354 15.3536Z" fill="black"/>
            <path d="M530 6.00001C530.321 6.00001 530.638 6.01767 530.948 6.05197L530 7.00001C527.473 7.00001 525.311 8.23093 524.158 10C524.519 10.5539 524.979 11.055 525.518 11.4821L524.807 12.1935C524.056 11.5801 523.439 10.8356 523 10C524.243 7.63506 526.91 6.00001 530 6.00001Z" fill="black"/>
            <path d="M535.842 10C534.689 11.769 532.527 12.9999 530 13L529.052 13.9481C529.363 13.9824 529.679 14 530 14C533.09 14 535.757 12.3649 537 10C536.561 9.16456 535.944 8.4202 535.194 7.80683L534.482 8.51822C535.021 8.94526 535.481 9.44627 535.842 10Z" fill="black"/>
        </g>
        <g id="hide-password_2">
            <path d="M525.354 35.3536L535.354 25.3536L534.646 24.6465L524.646 34.6465L525.354 35.3536Z" fill="white"/>
            <path d="M530 26C530.321 26 530.638 26.0177 530.948 26.052L530 27C527.473 27 525.311 28.2309 524.158 30C524.519 30.5539 524.979 31.055 525.518 31.4821L524.807 32.1935C524.056 31.5801 523.439 30.8356 523 30C524.243 27.6351 526.91 26 530 26Z" fill="white"/>
            <path d="M535.842 30C534.689 31.769 532.527 32.9999 530 33L529.052 33.9481C529.363 33.9824 529.679 34 530 34C533.09 34 535.757 32.3649 537 30C536.561 29.1646 535.944 28.4202 535.194 27.8068L534.482 28.5182C535.021 28.9453 535.481 29.4463 535.842 30Z" fill="white"/>
        </g>
        <g id="arrow-up">
            <path d="M550 6.29297L550.354 6.64652L555.854 12.1465L555.146 12.8536L550 7.70718L544.854 12.8536L544.146 12.1465L549.646 6.64652L550 6.29297Z" fill="black"/>
        </g>
        <g id="arrow-up_2">
            <path d="M550 26.293L550.354 26.6465L555.854 32.1465L555.146 32.8536L550 27.7072L544.854 32.8536L544.146 32.1465L549.646 26.6465L550 26.293Z" fill="white"/>
        </g>
        <g id="arrow-down">
            <path d="M570 13.7071L570.354 13.3536L575.854 7.85359L575.146 7.14648L570 12.2929L564.854 7.14648L564.146 7.85359L569.646 13.3536L570 13.7071Z" fill="black"/>
        </g>
        <g id="arrow-down_2">
            <path d="M570 33.7071L570.354 33.3536L575.854 27.8536L575.146 27.1465L570 32.2929L564.854 27.1465L564.146 27.8536L569.646 33.3536L570 33.7071Z" fill="white"/>
        </g>
        <g id="arrow-left">
            <path d="M586.293 10L592.147 4.14647L592.854 4.85358L587.707 10L592.854 15.1465L592.147 15.8536L586.293 10Z" fill="black"/>
        </g>
        <g id="arrow-right">
            <path d="M613.707 10L607.854 4.14647L607.146 4.85358L612.293 10L607.146 15.1465L607.854 15.8536L613.707 10Z" fill="black"/>
        </g>
        <g id="arrow-left_2">
            <path d="M586.293 30L592.147 24.1465L592.854 24.8536L587.707 30L592.854 35.1465L592.147 35.8536L586.293 30Z" fill="white"/>
        </g>
        <g id="arrow-right_2">
            <path d="M613.707 30L607.854 24.1465L607.146 24.8536L612.293 30L607.146 35.1465L607.854 35.8536L613.707 30Z" fill="white"/>
        </g>
    </g>
</svg>
