<svg width="260" height="40" viewBox="0 0 260 40" fill="none" xmlns="http://www.w3.org/2000/svg">
<g id="icon-menu-sprite">
<g id="view-settings">
<path d="M17 26H3V27H17V26Z" fill="white"/>
<path d="M17 30H3V31H17V30Z" fill="white"/>
<path d="M3 34H17V35H3V34Z" fill="white"/>
</g>
<g id="download">
<path d="M30 22H31V33.2929L35.6464 28.6464L36.3535 29.3536L30.5 35.2071L24.6464 29.3536L25.3535 28.6464L30 33.2929V22Z" fill="white"/>
<path d="M37 36H24V37H37V36Z" fill="white"/>
</g>
<path id="share" d="M56 25C56 26.1046 55.1046 27 54 27C53.4663 27 52.9815 26.791 52.6229 26.4503L47.9076 29.3974C47.9676 29.5875 48 29.79 48 30C48 30.21 47.9676 30.4125 47.9076 30.6026L52.6229 33.5497C52.9815 33.209 53.4663 33 54 33C55.1046 33 56 33.8954 56 35C56 36.1046 55.1046 37 54 37C52.8954 37 52 36.1046 52 35C52 34.79 52.0324 34.5875 52.0924 34.3974L47.3771 31.4503C47.0185 31.791 46.5337 32 46 32C44.8954 32 44 31.1046 44 30C44 28.8954 44.8954 28 46 28C46.5337 28 47.0185 28.209 47.3771 28.5497L52.0924 25.6026C52.0324 25.4125 52 25.21 52 25C52 23.8954 52.8954 23 54 23C55.1046 23 56 23.8954 56 25Z" fill="white"/>
<g id="embed ">
<path d="M67.8536 25.3536L67.1465 24.6465L62.2929 29.5L67.1465 34.3536L67.8536 33.6465L63.7071 29.5L67.8536 25.3536Z" fill="white"/>
<path d="M72.1465 25.3536L72.8536 24.6465L77.7071 29.5L72.8536 34.3536L72.1465 33.6465L76.2929 29.5L72.1465 25.3536Z" fill="white"/>
</g>
<g id="full-screen">
<path d="M97 23V26H96V24L94 24V23L97 23Z" fill="white"/>
<path d="M86 23H83V26H84V24H86V23Z" fill="white"/>
<path fill-rule="evenodd" clip-rule="evenodd" d="M86 26V34H94V26H86ZM93 27H87V33H93V27Z" fill="white"/>
<path d="M94 37H97V34H96V36H94V37Z" fill="white"/>
<path d="M83 37L83 34H84L84 36H86V37H83Z" fill="white"/>
</g>
<path id="zoom-in" fill-rule="evenodd" clip-rule="evenodd" d="M111 25H110V30H105V31H110V36H111V31H116V30H111V25Z" fill="white"/>
<rect id="zoom-out" x="135" y="30" width="1" height="10" transform="rotate(90 135 30)" fill="white"/>
<g id="scroll-to-first-sheet">
<path d="M146 25H145V35H146V25Z" fill="white"/>
<path d="M147 30L155 25V35L147 30Z" fill="white"/>
</g>
<g id="scroll-to-last-sheet">
<path d="M173 30L165 35V25L173 30Z" fill="white"/>
<path d="M175 35H174V25H175V35Z" fill="white"/>
</g>
<path id="play" fill-rule="evenodd" clip-rule="evenodd" d="M185 23L198 30L185 37V23Z" fill="white"/>
<g id="pause">
<path d="M205 35V25H209V35H205Z" fill="white"/>
<path d="M211 35V25H215V35H211Z" fill="white"/>
</g>
<path id="print" fill-rule="evenodd" clip-rule="evenodd" d="M226 24H234V26H226V24ZM225 26V24C225 23.4477 225.448 23 226 23H234C234.552 23 235 23.4477 235 24V26H237C237.552 26 238 26.4477 238 27V33C238 33.5523 237.552 34 237 34H235V36C235 36.5523 234.552 37 234 37H226C225.448 37 225 36.5523 225 36V34H223C222.448 34 222 33.5523 222 33V27C222 26.4477 222.448 26 223 26H225ZM225 33V31C225 30.4477 225.448 30 226 30H234C234.552 30 235 30.4477 235 31V33H237V27H234H226H223V33H225ZM225 28H224V29H225V28ZM234 31H226V36H234V31ZM227 32H233V33H227V32ZM233 34H227V35H233V34Z" fill="white"/>
<path id="close" fill-rule="evenodd" clip-rule="evenodd" d="M249.439 29.5L245.47 25.5303L246.53 24.4697L250.5 28.4393L254.47 24.4697L255.53 25.5303L251.561 29.5L255.53 33.4697L254.47 34.5303L250.5 30.5607L246.53 34.5303L245.47 33.4697L249.439 29.5Z" fill="white"/>
<g id="view-settings_2">
<path d="M17 6H3V7H17V6Z" fill="black"/>
<path d="M17 10H3V11H17V10Z" fill="black"/>
<path d="M3 14H17V15H3V14Z" fill="black"/>
</g>
<g id="download_2">
<path d="M30 2H31V13.2929L35.6464 8.64645L36.3535 9.35355L30.5 15.2071L24.6464 9.35355L25.3535 8.64645L30 13.2929V2Z" fill="black"/>
<path d="M37 16H24V17H37V16Z" fill="black"/>
</g>
<path id="Union" d="M56 5C56 6.10457 55.1046 7 54 7C53.4663 7 52.9815 6.79098 52.6229 6.45034L47.9076 9.39737C47.9676 9.58754 48 9.78999 48 10C48 10.21 47.9676 10.4125 47.9076 10.6026L52.6229 13.5497C52.9815 13.209 53.4663 13 54 13C55.1046 13 56 13.8954 56 15C56 16.1046 55.1046 17 54 17C52.8954 17 52 16.1046 52 15C52 14.79 52.0324 14.5875 52.0924 14.3974L47.3771 11.4503C47.0185 11.791 46.5337 12 46 12C44.8954 12 44 11.1046 44 10C44 8.89543 44.8954 8 46 8C46.5337 8 47.0185 8.20902 47.3771 8.54966L52.0924 5.60264C52.0324 5.41246 52 5.21001 52 5C52 3.89543 52.8954 3 54 3C55.1046 3 56 3.89543 56 5Z" fill="black"/>
<g id="embed _2">
<path d="M67.8536 5.35359L67.1465 4.64648L62.2929 9.50004L67.1465 14.3536L67.8536 13.6465L63.7071 9.50004L67.8536 5.35359Z" fill="black"/>
<path d="M72.1465 5.35359L72.8536 4.64648L77.7071 9.50004L72.8536 14.3536L72.1465 13.6465L76.2929 9.50004L72.1465 5.35359Z" fill="black"/>
</g>
<g id="full-screen_2">
<path d="M97 3V6H96V4L94 4V3L97 3Z" fill="black"/>
<path d="M86 3H83V6H84V4H86V3Z" fill="black"/>
<path fill-rule="evenodd" clip-rule="evenodd" d="M86 6V14H94V6H86ZM93 7H87V13H93V7Z" fill="black"/>
<path d="M94 17H97V14H96V16H94V17Z" fill="black"/>
<path d="M83 17L83 14H84L84 16H86V17H83Z" fill="black"/>
</g>
<path id="zoom-in_2" fill-rule="evenodd" clip-rule="evenodd" d="M111 5H110V10H105V11H110V16H111V11H116V10H111V5Z" fill="black"/>
<rect id="zoom-out_2" x="135" y="10" width="1" height="10" transform="rotate(90 135 10)" fill="black"/>
<g id="scroll-to-first-sheet_2">
<path d="M146 5H145V15H146V5Z" fill="black"/>
<path d="M147 10L155 5V15L147 10Z" fill="black"/>
</g>
<g id="scroll-to-last-sheet_2">
<path d="M173 10L165 15V5L173 10Z" fill="black"/>
<path d="M175 15H174V5H175V15Z" fill="black"/>
</g>
<path id="play_2" fill-rule="evenodd" clip-rule="evenodd" d="M185 3L198 10L185 17V3Z" fill="black"/>
<g id="pause_2">
<path d="M205 15V5H209V15H205Z" fill="black"/>
<path d="M211 15V5H215V15H211Z" fill="black"/>
</g>
<path id="print_2" fill-rule="evenodd" clip-rule="evenodd" d="M226 4H234V6H226V4ZM225 6V4C225 3.44772 225.448 3 226 3H234C234.552 3 235 3.44772 235 4V6H237C237.552 6 238 6.44772 238 7V13C238 13.5523 237.552 14 237 14H235V16C235 16.5523 234.552 17 234 17H226C225.448 17 225 16.5523 225 16V14H223C222.448 14 222 13.5523 222 13V7C222 6.44772 222.448 6 223 6H225ZM225 13V11C225 10.4477 225.448 10 226 10H234C234.552 10 235 10.4477 235 11V13H237V7H234H226H223V13H225ZM225 8H224V9H225V8ZM234 11H226V16H234V11ZM227 12H233V13H227V12ZM233 14H227V15H233V14Z" fill="black"/>
<path id="close_2" fill-rule="evenodd" clip-rule="evenodd" d="M249.439 9.5L245.47 5.53033L246.53 4.46967L250.5 8.43934L254.47 4.46967L255.53 5.53033L251.561 9.5L255.53 13.4697L254.47 14.5303L250.5 10.5607L246.53 14.5303L245.47 13.4697L249.439 9.5Z" fill="black"/>
</g>
</svg>
