<?xml version="1.0" encoding="utf-8"?>
<!-- Generator: Adobe Illustrator 19.0.0, SVG Export Plug-In . SVG Version: 6.00 Build 0)  -->
<svg version="1.1" id="Layer_1" xmlns="http://www.w3.org/2000/svg" xmlns:xlink="http://www.w3.org/1999/xlink" x="0px" y="0px"
	 viewBox="44 0 198 44" style="enable-background:new 0 0 198 44;" xml:space="preserve">
	<defs>
			<path id="imgtools" class="_st0" d="M46,5v2h18V5H46z M46,12h18v-2H46V12z M46,17h18v-2H46V17z"/>
			<path id="imgplus" d="M166,3h-2v7h-7v2h7v7h2v-7h7v-2h-7V3z"/>
			<rect id="imgminus" x="179" y="10" width="16" height="2"/>
	</defs>
<style type="text/css">
	.st0{fill:#010202;}
	.st1{fill:#1E1E1C;}
</style>
<g id="XMLID_7_">
	<path id="XMLID_9_" class="st1" d="M84,17H70c-0.6,0-1,0.4-1,1s0.4,1,1,1h14c0.6,0,1-0.4,1-1S84.6,17,84,17z"/>
	<path id="XMLID_8_" class="st1" d="M76.1,14.6c0.1,0.1,0.2,0.2,0.4,0.2c0.1,0.1,0.3,0.1,0.5,0.1s0.3-0.1,0.5-0.1
		c0.1,0,0.3-0.1,0.4-0.2l3.5-3.5c0.4-0.4,0.4-1,0-1.4s-1-0.4-1.4,0l-2,2V4c0-0.6-0.4-1-1-1s-1,0.4-1,1v7.7l-2-2
		c-0.4-0.4-1-0.4-1.4,0s-0.4,1,0,1.4L76.1,14.6z"/>
</g>
<path id="XMLID_14_" d="M103.3,14c-0.8,0-1.5,0.3-2.1,0.8l-4.7-2.7c0.1-0.3,0.2-0.7,0.2-1.1s-0.1-0.8-0.2-1.1l4.7-2.7
	c0.6,0.5,1.3,0.8,2.1,0.8c1.7,0,3.1-1.4,3.1-3.1s-1.4-3.1-3.1-3.1c-1.7,0-3.1,1.4-3.1,3.1c0,0.3,0,0.5,0.1,0.8l-4.9,2.8
	c-0.5-0.4-1.1-0.6-1.8-0.6c-1.7,0-3.1,1.4-3.1,3.1s1.4,3.1,3.1,3.1c0.7,0,1.3-0.2,1.8-0.6l4.8,2.8c-0.1,0.3-0.1,0.5-0.1,0.8
	c0,1.7,1.4,3.1,3.1,3.1s3.1-1.4,3.1-3.1C106.4,15.4,105,14,103.3,14z"/>
<g>
	<path d="M112.6,10c0.5-0.5,1.2-0.5,1.7,0l5,5c0.5,0.5,0.5,1.2,0,1.7s-1.2,0.5-1.7,0l-5-5C112.1,11.2,112.1,10.5,112.6,10z"/>
	<path d="M112.6,12c0.5,0.5,1.2,0.5,1.7,0l5-5c0.5-0.5,0.5-1.2,0-1.7s-1.2-0.5-1.7,0l-5,5C112.1,10.8,112.1,11.5,112.6,12z"/>
	<path id="XMLID_13_" d="M129.4,12c-0.5,0.5-1.2,0.5-1.7,0l-5-5c-0.5-0.5-0.5-1.2,0-1.7s1.2-0.5,1.7,0l5,5
		C129.9,10.8,129.9,11.5,129.4,12z"/>
	<path d="M129.4,10c-0.5-0.5-1.2-0.5-1.7,0l-5,5c-0.5,0.5-0.5,1.2,0,1.7s1.2,0.5,1.7,0l5-5C129.9,11.2,129.9,10.5,129.4,10z"/>
	<g id="XMLID_4_">
		<path id="XMLID_21_" d="M150.9,3.7c0-0.1-0.1-0.2-0.2-0.3c-0.1-0.1-0.2-0.2-0.3-0.2C150.2,3,150.1,3,150,3h-4.2
			c-0.5,0-0.8,0.4-0.8,0.8c0,0.5,1,1.2,1,1.2l0.8,0.8l-2.6,2.6c-0.4,0.4-0.4,1,0,1.4c0.4,0.4,1,0.4,1.4,0l2.6-2.6l1.3,1.4
			c0.1,0.2,0.4,0.4,0.7,0.4c0.5,0,0.8-0.4,0.8-0.8V4C151,3.9,151,3.8,150.9,3.7z"/>
		<path id="XMLID_22_" d="M140.4,12.2l-2.6,2.6l-1.3-1.4c-0.1-0.2-0.4-0.4-0.7-0.4c-0.5,0-0.8,0.4-0.8,0.8V18c0,0.1,0,0.3,0.1,0.4
			c0,0.1,0.1,0.2,0.2,0.3c0.1,0.1,0.2,0.2,0.3,0.2c0.2,0.1,0.3,0.1,0.4,0.1h4.2c0.5,0,0.8-0.4,0.8-0.8s-1-1.2-1-1.2l-0.8-0.8
			l2.6-2.6c0.4-0.4,0.4-1,0-1.4C141.4,11.8,140.8,11.8,140.4,12.2z"/>
	</g>
</g>
<g>
	<path d="M237.9,11L224,3v16L237.9,11z"/>
</g>
<g>
	<path d="M216,19V3l-13.9,8L216,19z"/>
</g>
	<use xlink:href="#imgtools" fill="#010202"></use>
	<use xlink:href="#imgtools" fill="#fff" y="22"></use>
	<use xlink:href="#imgplus"></use>
	<use xlink:href="#imgplus" fill="#fff" y="22"></use>
	<use xlink:href="#imgminus"></use>
	<use xlink:href="#imgminus" fill="#fff" y="22"></use>
</svg>
