<?xml version="1.0" encoding="utf-8"?>
<!-- Generator: Adobe Illustrator 19.0.0, SVG Export Plug-In . SVG Version: 6.00 Build 0)  -->
<svg version="1.1" id="Layer_2" xmlns="http://www.w3.org/2000/svg" xmlns:xlink="http://www.w3.org/1999/xlink" x="0px" y="0px"
	 viewBox="-4 23 100 24" style="enable-background:new -4 23 100 24;" xml:space="preserve">
<style type="text/css">
	.st0{fill:#5B5B5B;}
	.st1{fill:#3A3A3A;}
	.st2{opacity:0.42;fill:#8C8C8C;enable-background:new    ;}
	.st3{opacity:0.72;fill:#9B9B9B;enable-background:new    ;}
	.st4{fill:#9B9B9B;}
</style>
<path class="st0" d="M21.3,35.5c0-1.5,0.4-2.7,1.3-3.5c0.9-0.8,1.9-1.2,3.1-1.2c1.2,0,2.2,0.4,3.1,1.2c0.9,0.8,1.3,1.9,1.3,3.5
	c0,1.5-0.4,2.7-1.3,3.5c-0.9,0.8-1.9,1.2-3.1,1.2c-1.2,0-2.2-0.4-3.1-1.2C21.8,38.2,21.3,37,21.3,35.5L21.3,35.5L21.3,35.5z
	 M23.2,35.5c0,1.1,0.2,1.8,0.6,2.3c0.4,0.5,0.8,0.8,1.3,0.9c0.1,0,0.2,0,0.3,0.1c0.1,0,0.2,0,0.3,0c0.1,0,0.2,0,0.3,0
	c0.1,0,0.2,0,0.3-0.1c0.5-0.1,0.9-0.4,1.3-0.9c0.4-0.5,0.6-1.3,0.6-2.3c0-1-0.2-1.8-0.6-2.3c-0.4-0.5-0.8-0.8-1.3-0.9
	c-0.1,0-0.2-0.1-0.3-0.1c-0.1,0-0.2,0-0.3,0c-0.1,0-0.2,0-0.3,0c-0.1,0-0.2,0-0.3,0.1c-0.5,0.1-0.9,0.4-1.3,0.9
	C23.4,33.7,23.2,34.4,23.2,35.5L23.2,35.5L23.2,35.5z"/>
<polygon class="st0" points="31,31.1 33.4,31.1 36.5,36.7 37,37.9 37,37.9 37,36.3 37,31.1 38.8,31.1 38.8,40 36.5,40 33.3,34.1 
	32.9,33.1 32.8,33.1 32.9,34.7 32.9,40 31,40 "/>
<polygon class="st0" points="40.3,31.1 42.2,31.1 42.2,38.5 45.8,38.5 45.8,40 40.3,40 "/>
<polygon class="st0" points="44.7,31.1 46.8,31.1 48.6,34.1 48.8,34.8 48.9,34.8 49.2,34.1 51,31.1 53,31.1 49.7,36.3 49.7,40 
	48,40 48,36.3 "/>
<path class="st1" d="M53.1,35.5c0-1.5,0.4-2.7,1.3-3.5c0.9-0.8,1.9-1.2,3.1-1.2s2.2,0.4,3.1,1.2c0.9,0.8,1.3,1.9,1.3,3.5
	c0,1.5-0.4,2.7-1.3,3.5c-0.9,0.8-1.9,1.2-3.1,1.2c-1.2,0-2.2-0.4-3.1-1.2C53.5,38.2,53.1,37,53.1,35.5L53.1,35.5L53.1,35.5z
	 M55,35.5c0,1.1,0.2,1.8,0.6,2.3c0.4,0.5,0.8,0.8,1.3,0.9c0.1,0,0.2,0,0.3,0.1c0.1,0,0.2,0,0.3,0c0.1,0,0.2,0,0.3,0
	c0.1,0,0.2,0,0.3-0.1c0.5-0.1,0.9-0.4,1.3-0.9c0.4-0.5,0.6-1.3,0.6-2.3c0-1-0.2-1.8-0.6-2.3s-0.8-0.8-1.3-0.9
	c-0.1,0-0.2-0.1-0.3-0.1c-0.1,0-0.2,0-0.3,0c-0.1,0-0.2,0-0.3,0s-0.2,0-0.3,0.1c-0.5,0.1-0.9,0.4-1.3,0.9C55.2,33.7,55,34.4,55,35.5
	L55,35.5L55,35.5z"/>
<polygon class="st1" points="62.8,31.1 67.8,31.1 67.8,32.6 64.6,32.6 64.6,34.7 67.7,34.7 67.7,36.2 64.6,36.2 64.6,40 62.8,40 "/>
<polygon class="st1" points="68.9,31.1 73.9,31.1 73.9,32.6 70.7,32.6 70.7,34.7 73.7,34.7 73.7,36.2 70.7,36.2 70.7,40 68.9,40 "/>
<polygon class="st1" points="74.9,40 74.9,31.1 76.8,31.1 76.8,40 "/>
<path class="st1" d="M85,31.3v1.6c-0.3-0.1-0.6-0.2-1-0.3s-0.7-0.1-1.1-0.1c-1,0-1.7,0.3-2.2,0.9c-0.5,0.6-0.8,1.3-0.8,2.2
	s0.2,1.6,0.7,2.2c0.5,0.6,1.2,0.9,2.1,0.9c0.3,0,0.7,0,1-0.1c0.4,0,0.8-0.2,1.2-0.3l0.1,1.5c-0.1,0-0.1,0.1-0.2,0.1
	s-0.2,0.1-0.4,0.1C84.2,40,84,40,83.6,40c-0.3,0-0.7,0.1-1.1,0.1c-0.1,0-0.1,0-0.2,0s-0.1,0-0.2,0c-1-0.1-2-0.5-2.9-1.2
	c-0.9-0.7-1.3-1.8-1.3-3.4c0-1.5,0.4-2.6,1.3-3.5c0.9-0.8,2-1.2,3.4-1.2c0.4,0,0.7,0,1,0c0.3,0,0.6,0.1,0.9,0.2c0.1,0,0.1,0,0.2,0.1
	C84.8,31.2,84.9,31.2,85,31.3L85,31.3L85,31.3z"/>
<polygon class="st1" points="86.1,31.1 91.6,31.1 91.6,32.5 88,32.5 88,34.6 91.2,34.6 91.2,36 88,36 88,38.6 91.6,38.6 91.6,40 
	86.1,40 "/>
<path class="st2" d="M7.4,43.1l-7.7-3.7c-0.7-0.3-0.7-0.8,0-1.1L2.3,37l5.1,2.4c0.7,0.3,1.7,0.3,2.4,0l5.1-2.4l2.7,1.3
	c0.7,0.3,0.7,0.8,0,1.1l-7.7,3.7C9.2,43.4,8.1,43.4,7.4,43.1L7.4,43.1z"/>
<path class="st3" d="M7.4,38.7L-0.3,35c-0.7-0.3-0.7-0.8,0-1.1l2.7-1.3L7.5,35c0.7,0.3,1.7,0.3,2.4,0l5.2-2.4l2.7,1.2
	c0.7,0.3,0.7,0.8,0,1.1L10,38.6C9.2,39,8.1,39,7.4,38.7L7.4,38.7z"/>
<path class="st4" d="M7.4,34.3l-7.7-3.7c-0.7-0.3-0.7-0.8,0-1.1l7.7-3.7c0.7-0.3,1.7-0.3,2.4,0l7.7,3.7c0.7,0.3,0.7,0.8,0,1.1
	l-7.7,3.7C9.2,34.6,8.1,34.6,7.4,34.3L7.4,34.3z"/>
</svg>
