<?xml version="1.0" encoding="utf-8"?>
<!-- Generator: Adobe Illustrator 19.0.0, SVG Export Plug-In . SVG Version: 6.00 Build 0)  -->
<svg version="1.1" id="Layer_2" xmlns="http://www.w3.org/2000/svg" xmlns:xlink="http://www.w3.org/1999/xlink" x="0px" y="0px"
	 viewBox="18 45 93 19" style="enable-background:new 18 45 93 19;" xml:space="preserve">
<style type="text/css">
	.st0{fill:#5B5B5B;}
	.st1{fill:#3A3A3A;}
	.st2{opacity:0.42;fill:#8C8C8C;enable-background:new    ;}
	.st3{opacity:0.72;fill:#9B9B9B;enable-background:new    ;}
	.st4{fill:#9B9B9B;}
</style>
<path class="st0" d="M40.1,55.4c0-1.5,0.4-2.7,1.3-3.5c0.9-0.8,1.9-1.2,3.1-1.2s2.2,0.4,3.1,1.2c0.9,0.8,1.3,1.9,1.3,3.5
	c0,1.5-0.4,2.7-1.3,3.5c-0.9,0.8-1.9,1.2-3.1,1.2s-2.2-0.4-3.1-1.2C40.6,58.1,40.1,56.9,40.1,55.4L40.1,55.4L40.1,55.4z M42,55.4
	c0,1.1,0.2,1.8,0.6,2.3c0.4,0.5,0.8,0.8,1.3,0.9c0.1,0,0.2,0,0.3,0.1c0.1,0,0.2,0,0.3,0s0.2,0,0.3,0s0.2,0,0.3-0.1
	c0.5-0.1,0.9-0.4,1.3-0.9c0.4-0.5,0.6-1.3,0.6-2.3s-0.2-1.8-0.6-2.3c-0.4-0.5-0.8-0.8-1.3-0.9c-0.1,0-0.2-0.1-0.3-0.1
	c-0.1,0-0.2,0-0.3,0c-0.1,0-0.2,0-0.3,0c-0.1,0-0.2,0-0.3,0.1c-0.5,0.1-0.9,0.4-1.3,0.9C42.2,53.6,42,54.3,42,55.4L42,55.4L42,55.4z
	"/>
<polygon class="st0" points="49.8,51 52.2,51 55.3,56.6 55.8,57.8 55.8,57.8 55.8,56.2 55.8,51 57.6,51 57.6,59.9 55.3,59.9 
	52.1,54 51.7,53 51.6,53 51.7,54.6 51.7,59.9 49.8,59.9 "/>
<polygon class="st0" points="59.1,51 61,51 61,58.4 64.6,58.4 64.6,59.9 59.1,59.9 "/>
<polygon class="st0" points="63.5,51 65.6,51 67.4,54 67.6,54.7 67.7,54.7 68,54 69.8,51 71.8,51 68.5,56.2 68.5,59.9 66.8,59.9 
	66.8,56.2 "/>
<path class="st1" d="M71.9,55.4c0-1.5,0.4-2.7,1.3-3.5s1.9-1.2,3.1-1.2s2.2,0.4,3.1,1.2c0.9,0.8,1.3,1.9,1.3,3.5
	c0,1.5-0.4,2.7-1.3,3.5c-0.9,0.8-1.9,1.2-3.1,1.2c-1.2,0-2.2-0.4-3.1-1.2C72.3,58.1,71.9,56.9,71.9,55.4L71.9,55.4L71.9,55.4z
	 M73.8,55.4c0,1.1,0.2,1.8,0.6,2.3c0.4,0.5,0.8,0.8,1.3,0.9c0.1,0,0.2,0,0.3,0.1c0.1,0,0.2,0,0.3,0s0.2,0,0.3,0s0.2,0,0.3-0.1
	c0.5-0.1,0.9-0.4,1.3-0.9c0.4-0.5,0.6-1.3,0.6-2.3s-0.2-1.8-0.6-2.3c-0.4-0.5-0.8-0.8-1.3-0.9c-0.1,0-0.2-0.1-0.3-0.1s-0.2,0-0.3,0
	s-0.2,0-0.3,0s-0.2,0-0.3,0.1c-0.5,0.1-0.9,0.4-1.3,0.9C74,53.6,73.8,54.3,73.8,55.4L73.8,55.4L73.8,55.4z"/>
<polygon class="st1" points="81.6,51 86.6,51 86.6,52.5 83.4,52.5 83.4,54.6 86.5,54.6 86.5,56.1 83.4,56.1 83.4,59.9 81.6,59.9 "/>
<polygon class="st1" points="87.7,51 92.7,51 92.7,52.5 89.5,52.5 89.5,54.6 92.5,54.6 92.5,56.1 89.5,56.1 89.5,59.9 87.7,59.9 "/>
<polygon class="st1" points="93.7,59.9 93.7,51 95.6,51 95.6,59.9 "/>
<path class="st1" d="M103.8,51.2v1.6c-0.3-0.1-0.6-0.2-1-0.3s-0.7-0.1-1.1-0.1c-1,0-1.7,0.3-2.2,0.9c-0.5,0.6-0.8,1.3-0.8,2.2
	s0.2,1.6,0.7,2.2c0.5,0.6,1.2,0.9,2.1,0.9c0.3,0,0.7,0,1-0.1c0.4,0,0.8-0.2,1.2-0.3l0.1,1.5c-0.1,0-0.1,0.1-0.2,0.1
	s-0.2,0.1-0.4,0.1c-0.2,0-0.4,0-0.8,0c-0.3,0-0.7,0.1-1.1,0.1c-0.1,0-0.1,0-0.2,0s-0.1,0-0.2,0c-1-0.1-2-0.5-2.9-1.2
	s-1.3-1.8-1.3-3.4c0-1.5,0.4-2.6,1.3-3.5c0.9-0.8,2-1.2,3.4-1.2c0.4,0,0.7,0,1,0s0.6,0.1,0.9,0.2c0.1,0,0.1,0,0.2,0.1
	C103.6,51.1,103.7,51.1,103.8,51.2L103.8,51.2L103.8,51.2z"/>
<polygon class="st1" points="104.9,51 110.4,51 110.4,52.4 106.8,52.4 106.8,54.5 110,54.5 110,55.9 106.8,55.9 106.8,58.5 
	110.4,58.5 110.4,59.9 104.9,59.9 "/>
<path class="st2" d="M26.2,63l-7.7-3.7c-0.7-0.3-0.7-0.8,0-1.1l2.6-1.3l5.1,2.4c0.7,0.3,1.7,0.3,2.4,0l5.1-2.4l2.7,1.3
	c0.7,0.3,0.7,0.8,0,1.1L28.7,63C28,63.3,26.9,63.3,26.2,63L26.2,63z"/>
<path class="st3" d="M26.2,58.6l-7.7-3.7c-0.7-0.3-0.7-0.8,0-1.1l2.7-1.3l5.1,2.4c0.7,0.3,1.7,0.3,2.4,0l5.2-2.4l2.7,1.2
	c0.7,0.3,0.7,0.8,0,1.1l-7.8,3.7C28,58.9,26.9,58.9,26.2,58.6L26.2,58.6z"/>
<path class="st4" d="M26.2,54.2l-7.7-3.7c-0.7-0.3-0.7-0.8,0-1.1l7.7-3.7c0.7-0.3,1.7-0.3,2.4,0l7.7,3.7c0.7,0.3,0.7,0.8,0,1.1
	l-7.7,3.7C28,54.5,26.9,54.5,26.2,54.2L26.2,54.2z"/>
</svg>
