<svg fill="none" height="96" viewBox="0 0 96 96" width="96" xmlns="http://www.w3.org/2000/svg">

        <path d="M94 9.5C94.8284 9.5 95.5 10.1716 95.5 11L95.5 85C95.5 85.8284 94.8284 86.5 94 86.5L2 86.5C1.17157 86.5 0.499997 85.8284 0.499997 85L0.5 11C0.5 10.1716 1.17158 9.5 2 9.5L94 9.5Z" fill="white" stroke="#BFBFBF"/>
        <rect opacity="0.4" x="15" y="29" width="12" height="4" rx="1" fill="#444444"/>
        <rect opacity="0.4" x="15" y="39" width="12" height="4" rx="1" fill="#444444"/>
        <rect opacity="0.4" x="15" y="47" width="12" height="4" rx="1" fill="#444444"/>
        <rect opacity="0.4" x="15" y="55" width="12" height="4" rx="1" fill="#444444"/>
        <rect opacity="0.4" x="15" y="63" width="12" height="4" rx="1" fill="#444444"/>
        <rect opacity="0.4" x="33" y="29" width="12" height="4" rx="1" fill="#444444"/>
        <rect opacity="0.2" x="33" y="39" width="12" height="4" rx="1" fill="#444444"/>
        <rect opacity="0.2" x="33" y="47" width="12" height="4" rx="1" fill="#444444"/>
        <rect opacity="0.2" x="33" y="55" width="12" height="4" rx="1" fill="#444444"/>
        <rect opacity="0.2" x="33" y="63" width="12" height="4" rx="1" fill="#444444"/>
        <rect opacity="0.4" x="51" y="29" width="12" height="4" rx="1" fill="#444444"/>
        <rect opacity="0.2" x="51" y="39" width="12" height="4" rx="1" fill="#444444"/>
        <rect opacity="0.2" x="51" y="47" width="12" height="4" rx="1" fill="#444444"/>
        <rect opacity="0.2" x="51" y="55" width="12" height="4" rx="1" fill="#444444"/>
        <rect opacity="0.2" x="51" y="63" width="12" height="4" rx="1" fill="#444444"/>
        <rect opacity="0.4" x="69" y="29" width="12" height="4" rx="1" fill="#444444"/>
        <rect opacity="0.2" x="69" y="39" width="12" height="4" rx="1" fill="#444444"/>
        <rect opacity="0.2" x="69" y="47" width="12" height="4" rx="1" fill="#444444"/>
        <rect opacity="0.2" x="69" y="55" width="12" height="4" rx="1" fill="#444444"/>
        <rect opacity="0.2" x="69" y="63" width="12" height="4" rx="1" fill="#444444"/>
        <path opacity="0.2" fill-rule="evenodd" clip-rule="evenodd" d="M67 27H83V35H67V27ZM65 27H49V35L65 35V27ZM47 27H31V35H47V27ZM29 27H13V35L29 35V27ZM13 37L13 69H29V37H13ZM31 69H83V37L67 37H65H49H47H31V69ZM11 27C11 25.8954 11.8954 25 13 25H83C84.1046 25 85 25.8954 85 27V69C85 70.1046 84.1046 71 83 71H13C11.8954 71 11 70.1046 11 69V27Z" fill="#444444"/>


</svg>