<svg width="24" height="24" viewBox="0 0 24 24" xmlns="http://www.w3.org/2000/svg">
<path d="M19.75 4.0459C19.75 3.63168 20.0858 3.2959 20.5 3.2959C20.9142 3.2959 21.25 3.63168 21.25 4.0459L21.25 21.0459C21.25 21.4601 20.9142 21.7959 20.5 21.7959C20.0858 21.7959 19.75 21.4601 19.75 21.0459L19.75 4.0459ZM4.25 15.5459C4.25 14.5794 5.0335 13.7959 6 13.7959L16 13.7959C16.9665 13.7959 17.75 14.5794 17.75 15.5459L17.75 17.5459C17.75 18.5124 16.9665 19.2959 16 19.2959L6 19.2959C5.0335 19.2959 4.25 18.5124 4.25 17.5459L4.25 15.5459ZM9.25 8.5459C9.25 7.5794 10.0335 6.7959 11 6.7959L16 6.7959C16.9665 6.7959 17.75 7.5794 17.75 8.5459L17.75 10.5459C17.75 11.5124 16.9665 12.2959 16 12.2959L11 12.2959C10.0335 12.2959 9.25 11.5124 9.25 10.5459L9.25 8.5459ZM5.75 17.5459C5.75 17.684 5.86193 17.7959 6 17.7959L16 17.7959C16.1381 17.7959 16.25 17.684 16.25 17.5459L16.25 15.5459C16.25 15.4078 16.1381 15.2959 16 15.2959L6 15.2959C5.86193 15.2959 5.75 15.4078 5.75 15.5459L5.75 17.5459ZM10.75 10.5459C10.75 10.684 10.8619 10.7959 11 10.7959L16 10.7959C16.1381 10.7959 16.25 10.684 16.25 10.5459L16.25 8.5459C16.25 8.40783 16.1381 8.2959 16 8.2959L11 8.2959C10.8619 8.2959 10.75 8.40783 10.75 8.5459L10.75 10.5459Z" fill="#444444"/>
</svg>
