<svg width="24" height="24" viewBox="0 0 24 24" xmlns="http://www.w3.org/2000/svg">
<path d="M9.75 4.5459C10.7165 4.5459 11.5 5.3294 11.5 6.2959V16.2959C11.5 17.2624 10.7165 18.0459 9.75 18.0459H7.75C6.7835 18.0459 6 17.2624 6 16.2959V6.2959C6 5.3294 6.7835 4.5459 7.75 4.5459H9.75ZM7.75 6.0459C7.61193 6.0459 7.5 6.15783 7.5 6.2959V16.2959C7.5 16.434 7.61193 16.5459 7.75 16.5459H9.75C9.88807 16.5459 10 16.434 10 16.2959V6.2959C10 6.15783 9.88807 6.0459 9.75 6.0459H7.75ZM16.75 4.5459C17.7165 4.5459 18.5 5.3294 18.5 6.2959V11.2959C18.5 12.2624 17.7165 13.0459 16.75 13.0459H14.75C13.7836 13.0458 13 12.2623 13 11.2959V6.2959C13 5.32946 13.7836 4.546 14.75 4.5459H16.75ZM14.75 6.0459C14.612 6.046 14.5 6.15789 14.5 6.2959V11.2959C14.5 11.4339 14.612 11.5458 14.75 11.5459H16.75C16.8881 11.5459 17 11.434 17 11.2959V6.2959C17 6.15783 16.8881 6.0459 16.75 6.0459H14.75ZM20.75 1.5459C21.1642 1.5459 21.5 1.88168 21.5 2.2959C21.5 2.71011 21.1642 3.0459 20.75 3.0459H3.75C3.33579 3.0459 3 2.71011 3 2.2959C3 1.88168 3.33579 1.5459 3.75 1.5459H20.75Z" fill="#444444"/>
</svg>
