<svg version="1.1" xmlns="http://www.w3.org/2000/svg" xmlns:xlink="http://www.w3.org/1999/xlink" x="0px" y="0px" viewBox="0 0 22 22"><g><path d="M4.0464363,2.9884553c0.006526,0.00296,0.0142345,0.006835,0.0231438,0.0119021 c0.5908604,0.3357637,12.7118397,7.2924433,13.8977489,8.0268402c-0.5831585,0.3417759-13.0137587,7.4879274-13.934659,7.9826727 L4.0464363,2.9884553 M3.9889357,2C3.4427795,2.0000577,3.000525,2.4533575,3.000525,3.015348	c0,0.573487,0,15.1632957,0,15.9945221C3.000525,19.622963,3.4796104,20,3.9940588,20 c0.1729372,0,0.3499191-0.0426311,0.5139763-0.1332226c0.8905602-0.491045,13.1880894-7.5583372,13.9407387-7.9994459 c0.6751213-0.3955202,0.6867313-1.337512,0-1.7326603C17.4031754,9.5333271,5.1523852,2.501852,4.5393953,2.1535165 C4.3526201,2.0472794,4.165401,1.9999813,3.9889357,2L3.9889357,2z"/></g></svg>