<svg width="24" height="24" viewBox="0 0 24 24" xmlns="http://www.w3.org/2000/svg">
<path d="M20.75 18.7959C21.1642 18.7959 21.5 19.1317 21.5 19.5459C21.5 19.9601 21.1642 20.2959 20.75 20.2959H3.75C3.33579 20.2959 3 19.9601 3 19.5459C3 19.1317 3.33579 18.7959 3.75 18.7959H20.75ZM15.75 8.7959C16.7165 8.7959 17.5 9.5794 17.5 10.5459V12.5459C17.5 13.5124 16.7165 14.2959 15.75 14.2959H8.75C7.7835 14.2959 7 13.5124 7 12.5459V10.5459C7 9.5794 7.7835 8.7959 8.75 8.7959H15.75ZM8.75 10.2959C8.61193 10.2959 8.5 10.4078 8.5 10.5459V12.5459C8.5 12.684 8.61193 12.7959 8.75 12.7959H15.75C15.8881 12.7959 16 12.684 16 12.5459V10.5459C16 10.4078 15.8881 10.2959 15.75 10.2959H8.75ZM20.75 2.7959C21.1642 2.7959 21.5 3.13168 21.5 3.5459C21.5 3.96011 21.1642 4.2959 20.75 4.2959H3.75C3.33579 4.2959 3 3.96011 3 3.5459C3 3.13168 3.33579 2.7959 3.75 2.7959H20.75Z" fill="#444444"/>
</svg>
