<svg width="24" height="24" viewBox="0 0 24 24" xmlns="http://www.w3.org/2000/svg">
<path d="M12 2.97363C12.414 2.97377 12.7498 3.3097 12.75 3.72363V11.25H20.2764C20.6902 11.2502 21.0261 11.5861 21.0264 12C21.0263 12.414 20.6903 12.7498 20.2764 12.75H12.75V20.2764C12.7498 20.6903 12.414 21.0262 12 21.0264C11.5859 21.0264 11.2502 20.6904 11.25 20.2764V12.75H3.72363C3.30948 12.75 2.97373 12.4141 2.97363 12C2.97386 11.586 3.30956 11.25 3.72363 11.25H11.25V3.72363C11.2502 3.30961 11.5859 2.97363 12 2.97363Z" fill="#444444"/>
</svg>
