<svg aria-hidden="true" style="position: absolute; width: 0; height: 0; overflow: hidden;" version="1.1" xmlns="http://www.w3.org/2000/svg" xmlns:xlink="http://www.w3.org/1999/xlink">
<symbol id="chart-column-normal" viewBox="0 0 40 40">
<path fill-rule="evenodd" clip-rule="evenodd" d="M33 6H27V34H33V6ZM20 14H26V34H20V14ZM19 20H13V34H19V20ZM12 26H6V34H12V26Z"/>
</symbol>
<symbol id="chart-column-stack" viewBox="0 0 40 40">
<path fill-rule="evenodd" clip-rule="evenodd" d="M33 17H27V34H33V17ZM20 22H26V34H20V22ZM19 26H13V34H19V26ZM12 29H6V34H12V29Z"/>
<path opacity="0.4" fill-rule="evenodd" clip-rule="evenodd" d="M33 6H27V17H33V6ZM20 14H26V22H20V14ZM19 20H13V26H19V20ZM12 25H6V29H12V25Z"/>
</symbol>
<symbol id="chart-column-pstack" viewBox="0 0 40 40">
<path fill-rule="evenodd" clip-rule="evenodd" d="M33 14H27V34H33V14ZM20 16H26V34H20V16ZM19 18H13V34H19V18ZM12 21H6V34H12V21Z"/>
<path opacity="0.4" fill-rule="evenodd" clip-rule="evenodd" d="M12 6H6V21H12V6ZM19 6H13V18H19V6ZM20 6H26V16H20V6ZM33 6H27V14H33V6Z"/>
</symbol>
<symbol id="chart-column-3d-normal" viewBox="0 0 40 40">
<path fill-rule="evenodd" clip-rule="evenodd" d="M23 34L27 35V8L23 7V34ZM22 33L18 32V11L22 12V33ZM13 30L17 31V17L13 16V30ZM8 28L12 29V21L8 20V28Z"/>
<path opacity="0.6" fill-rule="evenodd" clip-rule="evenodd" d="M31 7L27 6L23 7L27 8L31 7ZM22 10L23 10.25V11.75L22 12L18 11L22 10ZM18 15.25L17 15L13 16L17 17L18 16.75V15.25ZM12 19L13 19.25V20.75L12 21L8 20L12 19Z"/>
<path opacity="0.4" d="M31 7L27 8V35L31 34V7Z"/>
</symbol>
<symbol id="chart-column-3d-stack" viewBox="0 0 40 40">
<path opacity="0.2" d="M27 7L31 6V16L27 17V7Z"/>
<path opacity="0.6" fill-rule="evenodd" clip-rule="evenodd" d="M23 6L27 5L31 6L27 7L23 6ZM31 16L27 17V34L31 33V16ZM26 20H23V32H26V20ZM18 10L22 9L23 9.25V10.75L22 11L18 10ZM17 14L13 15L17 16L18 15.75V14.25L17 14ZM8 19L12 18L13 18.25V19.75L12 20L8 19Z"/>
<path opacity="0.4" fill-rule="evenodd" clip-rule="evenodd" d="M27 7L23 6V16L27 17V7ZM22 11L18 10V20L22 21V11ZM12 20L8 19V23L12 24V20ZM13 15L17 16V23L13 22V15Z"/>
<path fill-rule="evenodd" clip-rule="evenodd" d="M23 16L27 17V34L23 33V16ZM22 21L18 20V31L22 32V21ZM13 22L17 23V30L13 29V22ZM8 23L12 24V28L8 27V23Z"/>
</symbol>
<symbol id="chart-column-3d-pstack" viewBox="0 0 40 40">
<path fill-rule="evenodd" clip-rule="evenodd" d="M24 35L28 36V17L24 16V35ZM23 34L19 33V18L23 19V34ZM14 31L18 32V21L14 20V31ZM9 29L13 30V23L9 22V29Z"/>
<path opacity="0.4" fill-rule="evenodd" clip-rule="evenodd" d="M13 6L9 5V22L13 23V6ZM14 7L18 8V21L14 20V7ZM23 10L19 9V18L23 19V10ZM28 12L24 11V16L28 17V12Z"/>
<path opacity="0.6" fill-rule="evenodd" clip-rule="evenodd" d="M9 5L13 6L17 5L13 4L9 5ZM18 8L14 7L18 6L22 7L18 8ZM19 9L23 10L27 9L23 8L19 9ZM28 12L24 11L28 10L32 11L28 12ZM28 17L32 16V35L28 36V17Z"/>
<path opacity="0.2" d="M28 12L32 11V16L28 17V12Z"/>
</symbol>
<symbol id="chart-column-3d-normal-per" viewBox="0 0 40 40">
<path d="M24.0002 6L28.0002 7V31L25 30V18V17.5V17L24.0002 16.7617V6Z"/>
<path d="M19 10L23 11V16.5L21 16L19 16.5V10Z"/>
<path d="M14 14L18 15V16.7617L17 17V20.25L16 20L14 20.5V14Z"/>
<path opacity="0.2" d="M21 18L25 17V35L21 36V18Z"/>
<path opacity="0.4" fill-rule="evenodd" clip-rule="evenodd" d="M32 6L28 7V31L32 30V6ZM17.0002 17L21.0002 18V36L17.0002 35V17ZM12.0002 21L16.0002 22V34L12.0002 33V21ZM11 26L7 25V31L11 32V26Z"/>
<path id="lighter max_2" opacity="0.2" fill-rule="evenodd" clip-rule="evenodd" d="M23.9999 6L27.9999 5L31.9999 6L27.9999 7L23.9999 6ZM19.0001 10L23.0001 9L27.0001 10L23.0001 11L19.0001 10ZM18 13L14 14L18 15L22 14L18 13ZM25 17L21 16L17 17L21 18L25 17ZM16 20L17 20.25V21.75L16 22L12 21L16 20ZM11 24L12 24.25V25.75L11 26L7 25L11 24Z"/>
</symbol>
<symbol id="chart-line-normal" viewBox="0 0 40 40">
<path d="M7 7H8V23.2929L16.4586 14.8343L25.4345 21.8156L32.1237 14.1707L32.8763 14.8293L25.5655 23.1844L16.5415 16.1657L8 24.7071V33H34V34H7V7Z"/>
<path opacity="0.6" d="M32.8536 20.1464L24.5 11.7929L8 28.2929V29.7071L24.5 13.2071L32.1465 20.8536L32.8536 20.1464Z"/>
</symbol>
<symbol id="chart-line-stack" viewBox="0 0 40 40">
<path d="M7 7H8V28.3866L16.4732 20.8549L24.3941 26.7956L32.0956 16.2059L32.9044 16.7941L24.6059 28.2044L16.5268 22.1451L8 29.7245V33H34V34H7V7Z"/>
<path opacity="0.6" d="M23.5427 18.1002L32.807 10.8947L32.193 10.1053L23.4573 16.8997L16.4165 12.8764L8 21.2929V22.7071L16.5835 14.1236L23.5427 18.1002Z"/>
</symbol>
<symbol id="chart-line-pstack" viewBox="0 0 40 40">
<path d="M7 7H8V28.2929L15.4363 20.8566L24.378 26.8177L32.0956 16.2059L32.9044 16.7941L24.622 28.1823L15.5637 22.1434L8 29.7071V33H34V34H7V7Z"/>
<path opacity="0.6" fill-rule="evenodd" clip-rule="evenodd" d="M33 10H8V9H33V10Z"/>
</symbol>
<symbol id="chart-line-normal-marker" viewBox="0 0 40 40">
<path opacity="0.6" d="M23 11H26V13.2929L31.7071 19H34V22H31V19.7071L25.2929 14H23.7071L9 28.7071V31H6V28H8.29289L23 13.2929V11Z"/>
<g>
<path d="M8 7H7V23H6V26H7V28H8V26H9V23.7071L15.7071 17H17.6142L24 21.9668V24H27V21.545L31.8519 16H34V13H31V15.455L26.1481 21H24.3858L18 16.0332V14H15V16.2929L8.29289 23H8V7Z"/>
<path d="M7 34V31H8V33H34V34H7Z"/>
</g>
</symbol>
<symbol id="chart-line-stack-marker" viewBox="0 0 40 40">
<path opacity="0.6" d="M34 9H31V11.0332L24.6142 16H22V16.067L18 13.7813V12H15V14.2929L8.29289 21H6V24H9V21.7071L15.7071 15H18V14.933L22 17.2187V19H25V16.9668L31.3858 12H34V9Z"/>
<g>
<path d="M8 7H7V21H8V7Z"/>
<path d="M7 28V24H8V28H8.4349L15 22.1644V20H18V22L23.3333 26H24.9727L31 17.7124V15H34V18H32.0273L26 26.2876V29H23V27L17.6667 23H15.5651L9 28.8356V31H8V33H34V34H7V31H6V28H7Z"/>
</g>
</symbol>
<symbol id="chart-line-pstack-marker" viewBox="0 0 40 40">
<g>
<path d="M8 7H7V8H8V7Z"/>
<path d="M7 28V11H8V28H8.2929L14 22.2929V20H17V21.8991L23.1514 26H24.9727L31 17.7124V15H34V18H32.0273L26 26.2876V29H23V27.1009L16.8486 23H14.7071L9 28.7071V31H8V33H34V34H7V31H6V28H7Z"/>
</g>
<path opacity="0.6" d="M9 8H6V11H9V10H14V11H17V10H23V11H26V10H31V11H34V8H31V9H26V8H23V9H17V8H14V9H9V8Z"/>
</symbol>
<symbol id="chart-line-3d" viewBox="0 0 40 40">
<path d="M8 5V28H39V29H7.70711L1.85355 34.8536L1.14645 34.1465L7 28.2929V5H8Z"/>
<path d="M12 19L2 24.5L10 24L21.5 38L32 26L24 30.5L12 19Z"/>
<path opacity="0.6" d="M24 7C20 10.5 12.4 16.6 12 17L23.0277 12.0132L29.0277 22.0132H35.0277L38 18L32 17L24 7Z"/>
</symbol>
<symbol id="chart-pie-normal" viewBox="0 0 40 40">
<path d="M5 20C5 22.9667 5.87973 25.8668 7.52796 28.3336C9.17618 30.8003 11.5189 32.7229 14.2597 33.8582C17.0006 34.9935 20.0166 35.2906 22.9264 34.7118C25.8361 34.133 28.5088 32.7044 30.6066 30.6066C32.7044 28.5088 34.133 25.8361 34.7118 22.9264C35.2906 20.0166 34.9935 17.0006 33.8582 14.2597C32.7229 11.5189 30.8003 9.17618 28.3336 7.52796C25.8668 5.87973 22.9667 5 20 5L20 20L5 20Z"/>
<path opacity="0.4" d="M20 5C18.0302 5 16.0796 5.38799 14.2597 6.14181C12.4399 6.89563 10.7863 8.00052 9.3934 9.3934C8.00052 10.7863 6.89563 12.4399 6.14181 14.2598C5.38799 16.0796 5 18.0302 5 20L20 20V5Z"/>
</symbol>
<symbol id="chart-pie-doughnut" viewBox="0 0 40 40">
<path d="M5 20C5 22.9667 5.87973 25.8668 7.52796 28.3336C9.17618 30.8003 11.5189 32.7229 14.2597 33.8582C17.0006 34.9935 20.0166 35.2906 22.9264 34.7118C25.8361 34.133 28.5088 32.7044 30.6066 30.6066C32.7044 28.5088 34.133 25.8361 34.7118 22.9264C35.2906 20.0166 34.9935 17.0006 33.8582 14.2597C32.7229 11.5189 30.8003 9.17618 28.3336 7.52796C25.8668 5.87973 22.9667 5 20 5L20 11C21.78 11 23.5201 11.5278 25.0001 12.5168C26.4802 13.5057 27.6337 14.9113 28.3149 16.5558C28.9961 18.2004 29.1743 20.01 28.8271 21.7558C28.4798 23.5016 27.6226 25.1053 26.364 26.364C25.1053 27.6226 23.5016 28.4798 21.7558 28.8271C20.01 29.1743 18.2004 28.9961 16.5558 28.3149C14.9113 27.6337 13.5057 26.4802 12.5168 25.0001C11.5278 23.5201 11 21.78 11 20L5 20Z"/>
<path opacity="0.4" d="M20 5C18.0302 5 16.0796 5.38799 14.2597 6.14181C12.4399 6.89563 10.7863 8.00052 9.3934 9.3934C8.00052 10.7863 6.89563 12.4399 6.14181 14.2598C5.38799 16.0796 5 18.0302 5 20L11 20C11 18.8181 11.2328 17.6478 11.6851 16.5559C12.1374 15.4639 12.8003 14.4718 13.636 13.636C14.4718 12.8003 15.4639 12.1374 16.5558 11.6851C17.6478 11.2328 18.8181 11 20 11V5Z"/>
</symbol>
<symbol id="chart-pie-3d-normal" viewBox="0 0 40 40">
<path opacity="0.4" fill-rule="evenodd" clip-rule="evenodd" d="M31.3137 9.22183C34.3143 11.2847 36 14.0826 36 17L36 22C36 24.9174 34.3143 27.7153 31.3137 29.7782C28.3131 31.8411 24.2435 33 20 33C15.7565 33 11.6869 31.8411 8.68629 29.7782C5.68571 27.7153 4 24.9174 4 22V17C4 14.0826 5.68571 11.2847 8.68629 9.22182C11.6869 7.15892 15.7565 6 20 6C24.2435 6 28.3131 7.15893 31.3137 9.22183Z"/>
<path d="M4 17C4 19.1756 4.93838 21.3023 6.69649 23.1113C8.45459 24.9202 10.9534 26.3301 13.8771 27.1627C16.8007 27.9952 20.0177 28.2131 23.1214 27.7886C26.2251 27.3642 29.0761 26.3166 31.3137 24.7782C33.5513 23.2398 35.0752 21.2798 35.6926 19.146C36.3099 17.0122 35.9931 14.8005 34.7821 12.7905C33.5711 10.7805 31.5203 9.06253 28.8891 7.85383C26.2579 6.64514 23.1645 6 20 6L20 17L4 17Z"/>
</symbol>
<symbol id="chart-bar-normal" viewBox="0 0 40 40">
<path fill-rule="evenodd" clip-rule="evenodd" d="M15 6H6V12H15V6ZM6 27V33H34V27H6ZM6 13H20V19H6V13ZM26 20H6V26H26V20Z"/>
</symbol>
<symbol id="chart-bar-stack" viewBox="0 0 40 40">
<path fill-rule="evenodd" clip-rule="evenodd" d="M11 6H6V12H11V6ZM14 13H6V19H14V13ZM6 20H18V26H6V20ZM23 27H6V33H23V27Z"/>
<path opacity="0.4" fill-rule="evenodd" clip-rule="evenodd" d="M15 6H11V12H15V6ZM20 13H14V19H20V13ZM18 20H26V26H18V20ZM34 27H23V33H34V27Z"/>
</symbol>
<symbol id="chart-bar-pstack" viewBox="0 0 40 40">
<path fill-rule="evenodd" clip-rule="evenodd" d="M20 6H6V12H20V6ZM22 13H6V19H22V13ZM6 20H24V26H6V20ZM26 27H6V33H26V27Z"/>
<path opacity="0.4" fill-rule="evenodd" clip-rule="evenodd" d="M34 6H20V12H34V6ZM34 13H22V19H34V13ZM24 20H34V26H24V20ZM34 27H26V33H34V27Z"/>
</symbol>
<symbol id="chart-bar-3d-normal" viewBox="0 0 40 40">
<path fill-rule="evenodd" clip-rule="evenodd" d="M20 9L8 5V10L20 14V9ZM8 11L23 16V21L8 16V11ZM26 23L8 17L8 22L26 28V23ZM29 30L8 23V28L29 35L29 30Z"/>
<path opacity="0.6" fill-rule="evenodd" clip-rule="evenodd" d="M24 8L20 9V14L24 13V8ZM23 16L27 15V20L23 21V16ZM30 22L26 23V28L30 27V22ZM33 29L29 30V35L33 34V29Z"/>
<path opacity="0.4" d="M12 4L24 8L20 9L8 5L12 4Z"/>
</symbol>
<symbol id="chart-bar-3d-stack" viewBox="0 0 40 40">
<path fill-rule="evenodd" clip-rule="evenodd" d="M11 6L8 5V10L11 11V6ZM8 16V11L14 13V18L8 16ZM17 20L8 17L8 22L17 25V20ZM8 23V28L20 32V27L8 23Z"/>
<path opacity="0.6" fill-rule="evenodd" clip-rule="evenodd" d="M15 5L12 4L8 5L11 6L15 5ZM20 9L24 8V13L20 14V9ZM27 15L23 16V21L27 20V15ZM26 23L30 22V27L26 28V23ZM29 30L33 29V34L29 35L29 30Z"/>
<path opacity="0.4" fill-rule="evenodd" clip-rule="evenodd" d="M20 9L11 6V11L20 14V9ZM14 13L23 16V21L14 18V13ZM26 23L17 20V25L26 28V23ZM29 30L20 27V32L29 35V30Z"/>
<path opacity="0.2" d="M15 5L24 8L20 9L11 6L15 5Z"/>
</symbol>
<symbol id="chart-bar-3d-pstack" viewBox="0 0 40 40">
<path fill-rule="evenodd" clip-rule="evenodd" d="M14 7L8 5V10L14 12V7ZM8 11L17 14V19L8 16V11ZM20 26V21L8 17V22L20 26ZM23 28L8 23V28L23 33V28Z"/>
<path opacity="0.4" fill-rule="evenodd" clip-rule="evenodd" d="M29 12L14 7V12L29 17V12ZM17 14L29 18V23L17 19V14ZM29 24L20 21V26L29 29V24ZM29 30L23 28V33L29 35V30Z"/>
<path opacity="0.6" fill-rule="evenodd" clip-rule="evenodd" d="M18 6L12 4L8 5L14 7L18 6ZM29 12L33 11V16L29 17V12ZM33 17L29 18V23L33 22V17ZM29 24L33 23V28L29 29V24ZM29 30L33 29V34L29 35V30Z"/>
<path opacity="0.2" d="M18 6L33 11L29 12L14 7L18 6Z"/>
</symbol>
<symbol id="chart-area-normal" viewBox="0 0 40 40">
<path d="M15.5 24L19.5 29L34 14V34H6L15.5 24Z"/>
<path opacity="0.4" fill-rule="evenodd" clip-rule="evenodd" d="M19.5 29L15.5 24L6 34L15.5 15L20.5 22H26.2667L19.5 29Z"/>
</symbol>
<symbol id="chart-area-stack" viewBox="0 0 40 40">
<path d="M15.5 24L19.5 29L34 14V34H6L15.5 24Z"/>
<path opacity="0.4" d="M15.5 17L19.5 22L34 7V14L19.5 29L15.5 24L6 34V27L15.5 17Z"/>
</symbol>
<symbol id="chart-area-pstack" viewBox="0 0 40 40">
<path d="M15.5 24L19.5 29L34 14V34H6L15.5 24Z"/>
<path opacity="0.4" d="M6 6H34V14L19.5 29L15.5 24L6 34V6Z"/>
</symbol>
<symbol id="chart-point-normal" viewBox="0 0 40 40">
<path d="M8 7H7V34H34V33H8V7Z"/>
<circle opacity="0.6" cx="11.5" cy="11.5" r="1.5"/>
<circle opacity="0.6" cx="23.5" cy="26.5" r="1.5"/>
<circle opacity="0.6" cx="17.5" cy="23.5" r="1.5"/>
<circle opacity="0.6" cx="29.5" cy="15.5" r="1.5"/>
<circle cx="19.5" cy="17.5" r="1.5"/>
<circle cx="26.5" cy="21.5" r="1.5"/>
<circle cx="32.5" cy="29.5" r="1.5"/>
<circle cx="13.5" cy="29.5" r="1.5"/>
</symbol>
<symbol id="chart-point-smooth-marker">
<path d="M8 7H7V34H34V33H8V7Z"/>
<path d="M17.0422 21.072C15.5933 23.6173 14.6852 26.6759 14.2179 29.1826C14.6839 29.4371 15 29.9316 15 30.5C15 31.3284 14.3284 32 13.5 32C12.6716 32 12 31.3284 12 30.5C12 29.7637 12.5305 29.1513 13.2302 29.0242C13.7112 26.4326 14.6511 23.2512 16.1731 20.5773C16.7182 19.6197 17.3455 18.7155 18.061 17.9248C18.0213 17.7901 18 17.6475 18 17.5C18 16.6716 18.6716 16 19.5 16C19.7327 16 19.9531 16.053 20.1497 16.1476C21.4081 15.3625 22.8602 14.9207 24.524 15.0006C27.3348 15.1355 29.1082 16.7726 30.3338 19.0091C30.3884 19.0031 30.4438 19 30.5 19C31.3284 19 32 19.6716 32 20.5C32 20.966 31.7875 21.3824 31.454 21.6575C31.9597 23.266 32.3158 25.1464 32.5569 26.7376C32.6898 27.6148 32.789 28.4131 32.8594 29.0433C33.5142 29.2043 34 29.7954 34 30.5C34 31.3284 33.3284 32 32.5 32C31.6716 32 31 31.3284 31 30.5C31 29.8989 31.3536 29.3804 31.8641 29.1411C31.7949 28.5233 31.6978 27.7432 31.5681 26.8874C31.3297 25.3139 30.9855 23.5141 30.5135 21.9999C30.509 22 30.5045 22 30.5 22C29.6716 22 29 21.3284 29 20.5C29 20.0888 29.1655 19.7163 29.4334 19.4453C28.3127 17.4165 26.7926 16.1107 24.476 15.9994C23.1345 15.935 21.9354 16.2636 20.8679 16.8835C20.9528 17.0716 21 17.2803 21 17.5C21 18.3284 20.3284 19 19.5 19C19.1914 19 18.9046 18.9068 18.6662 18.7471C18.0682 19.4327 17.528 20.2185 17.0422 21.072Z"/>
<path opacity="0.6" d="M31.2474 10.8008C31.6972 10.5419 32 10.0563 32 9.5C32 8.67157 31.3284 8 30.5 8C29.6716 8 29 8.67157 29 9.5C29 10.248 29.5475 10.8681 30.2635 10.9815C30.3269 11.3782 30.3949 11.8477 30.4583 12.3725C30.6601 14.0414 30.8139 16.2547 30.631 18.4586C30.4473 20.6716 29.9281 22.8195 28.8285 24.4022C27.954 25.661 26.6969 26.5866 24.8715 26.8916C24.6381 26.3663 24.1118 26 23.5 26C22.889 26 22.3633 26.3653 22.1295 26.8894C18.188 26.2417 15.4816 22.8452 13.6972 19.2764C12.7147 17.3114 12.0371 15.3416 11.605 13.86C11.4868 13.4547 11.3872 13.0867 11.3048 12.766C11.7228 12.4998 12 12.0323 12 11.5C12 10.6716 11.3284 10 10.5 10C9.67157 10 9 10.6716 9 11.5C9 12.271 9.58162 12.9061 10.33 12.9905C10.4161 13.3266 10.5206 13.7134 10.645 14.14C11.0879 15.6584 11.7853 17.6886 12.8028 19.7236C14.6287 23.3755 17.5706 27.2021 22.0514 27.8907C22.2233 28.5297 22.8067 29 23.5 29C24.1928 29 24.7759 28.5303 24.9483 27.892C27.0845 27.5584 28.6056 26.4758 29.6498 24.9728C30.895 23.1805 31.4377 20.8284 31.6275 18.5414C31.8182 16.2452 31.6574 13.9586 31.4511 12.2525C31.3848 11.7038 31.3136 11.2137 31.2474 10.8008Z"/>
</symbol>
<symbol id="chart-point-smooth">
<path d="M8 7H7V34H34V33H8V7Z"/>
<path opacity="0.6" fill-rule="evenodd" clip-rule="evenodd" d="M29.6498 24.9728C28.3834 26.7956 26.4157 28 23.5 28C18.1946 28 14.8187 23.7553 12.8028 19.7236C11.7853 17.6886 11.0879 15.6584 10.645 14.14C10.4233 13.3799 10.2647 12.7458 10.1614 12.3006C10.1097 12.0779 10.0718 11.9023 10.0466 11.7817C10.0341 11.7213 10.0247 11.6747 10.0184 11.6428L10.0112 11.6061L10.0093 11.5962L10.0088 11.5935C10.0088 11.5932 10.0086 11.5921 10.5 11.5C10.9914 11.4079 10.9914 11.4078 10.9914 11.4078L10.9918 11.4096L10.9932 11.4171L10.9994 11.449C11.0051 11.4776 11.0138 11.5209 11.0256 11.5777C11.0493 11.6914 11.0856 11.8596 11.1355 12.0744C11.2353 12.5042 11.3892 13.1201 11.605 13.86C12.0371 15.3416 12.7147 17.3114 13.6972 19.2764C15.6813 23.2447 18.8054 27 23.5 27C26.09 27 27.7501 25.9544 28.8285 24.4022C29.9281 22.8195 30.4473 20.6716 30.631 18.4586C30.8139 16.2548 30.6601 14.0414 30.4583 12.3725C30.3576 11.5397 30.2455 10.846 30.1587 10.3616C30.1153 10.1195 30.0783 9.92981 30.0523 9.80137C30.0393 9.73716 30.0291 9.68827 30.0221 9.6558L30.0143 9.61955L30.0125 9.61092L30.012 9.60903L30.5 9.5C30.988 9.39124 30.9881 9.39145 30.9881 9.39173L30.989 9.39564L30.9914 9.40655L31.0002 9.44748C31.0078 9.48313 31.0187 9.53531 31.0324 9.60293C31.0598 9.73817 31.0982 9.93522 31.143 10.1853C31.2326 10.6852 31.3478 11.3978 31.4511 12.2525C31.6574 13.9586 31.8182 16.2453 31.6275 18.5414C31.4377 20.8284 30.895 23.1805 29.6498 24.9728Z"/>
<path fill-rule="evenodd" clip-rule="evenodd" d="M17.0422 21.072C15.3134 24.1091 14.3545 27.877 13.9956 30.5661L13.0044 30.4338C13.3742 27.6634 14.3611 23.7607 16.1731 20.5773C17.98 17.4029 20.6896 14.8165 24.524 15.0006C27.8536 15.1604 29.7275 17.4281 30.9596 20.303C31.7366 22.1161 32.2437 24.6707 32.5569 26.7376C32.7145 27.7779 32.8248 28.7075 32.8957 29.377C32.9311 29.7119 32.9568 29.9822 32.9736 30.1691C32.982 30.2625 32.9882 30.3352 32.9923 30.3847L32.9969 30.4414L32.9981 30.4562L32.9984 30.4601L32.9985 30.4612C32.9985 30.4613 32.9985 30.4616 32.5 30.5L32.0015 30.5384L32.0001 30.5211L31.9957 30.4676C31.9918 30.4202 31.9858 30.3498 31.9776 30.2587C31.9612 30.0764 31.9361 29.8115 31.9012 29.4823C31.8315 28.8238 31.723 27.9095 31.5681 26.8874C31.2563 24.8293 30.7634 22.3839 30.0404 20.697C28.8696 17.9649 27.2396 16.1321 24.476 15.9994C21.202 15.8422 18.776 18.0259 17.0422 21.072Z"/>
</symbol>
<symbol id="chart-point-line-marker">
<path d="M8 7H7V34H34V33H8V7Z"/>
<path d="M22 17.5C22 17.776 21.9254 18.0347 21.7954 18.2568L30.7952 28.893L30.1793 23.9656C29.505 23.8188 29 23.2184 29 22.5C29 21.6716 29.6716 21 30.5 21C31.3284 21 32 21.6716 32 22.5C32 23.087 31.6628 23.5952 31.1716 23.8416L32.2048 32.107L21.0321 18.9029C20.8667 18.9656 20.6874 19 20.5 19C20.3881 19 20.2792 18.9878 20.1743 18.9645L14.7412 27.6575C14.9045 27.8976 15 28.1877 15 28.5C15 29.3284 14.3284 30 13.5 30C12.6716 30 12 29.3284 12 28.5C12 27.6716 12.6716 27 13.5 27C13.6506 27 13.796 27.0222 13.9332 27.0635L19.3264 18.4343C19.1221 18.178 19 17.8533 19 17.5C19 16.6716 19.6716 16 20.5 16C21.3284 16 22 16.6716 22 17.5Z"/>
<path opacity="0.6" d="M11.5797 11.5413C11.8399 11.2715 12 10.9045 12 10.5C12 9.67157 11.3284 9 10.5 9C9.67157 9 9 9.67157 9 10.5C9 11.3284 9.67157 12 10.5 12C10.5627 12 10.6246 11.9961 10.6853 11.9887L17.9103 26.4387L28.5216 12.598L25.3187 27.0108C24.5758 27.1003 24 27.7329 24 28.5C24 29.3284 24.6716 30 25.5 30C26.3284 30 27 29.3284 27 28.5C27 27.9635 26.7184 27.4929 26.2949 27.2277L29.6813 11.9892C30.4242 11.8997 31 11.2671 31 10.5C31 9.67157 30.3284 9 29.5 9C28.6716 9 28 9.67157 28 10.5C28 10.8019 28.0892 11.0829 28.2426 11.3183L18.0897 24.5613L11.5797 11.5413Z"/>
</symbol>
<symbol id="chart-point-line">
<path d="M8 7H7V34H34V33H8V7Z"/>
<path opacity="0.6" fill-rule="evenodd" clip-rule="evenodd" d="M28.5216 12.598L17.9103 26.4387L10.0528 10.7236L10.9472 10.2764L18.0897 24.5613L29.1032 10.1958L29.9881 10.6085L25.9881 28.6085L25.0119 28.3915L28.5216 12.598Z"/>
<path fill-rule="evenodd" clip-rule="evenodd" d="M20.4391 16.654L30.7952 28.893L30.0039 22.562L30.9961 22.438L32.2048 32.107L20.5609 18.346L13.424 29.765L12.576 29.235L20.4391 16.654Z"/>
</symbol>
<symbol id="chart-stock-normal" viewBox="0 0 40 40">
<path fill-rule="evenodd" clip-rule="evenodd" d="M8 7H7V20.5V34H34V33H8V7ZM23 12H22V16H20V20H22V24H23V20H25V16H23V12ZM13 27H11V20H13V16H14V20H16V27H14V31H13V27ZM31 11H29V18H31V22H32V18H34V11H32V7H31V11Z"/>
</symbol>
<symbol id="chart-combo-bar-line" viewBox="0 0 40 40">
<path opacity="0.4" fill-rule="evenodd" clip-rule="evenodd" d="M20 10H26V34H20V10ZM19 14H13V34H19V14ZM12 26H6V34H12V26ZM33 21H27V34H33V21Z"/>
<path d="M5 26.5L15.5 16L23.5 24L32.5 15L33.5 16L23.5 26L15.5 18L6 27.5L5 26.5Z"/>
<path d="M5 5H6V34H35V35H5V20.5V5Z"/>
</symbol>
<symbol id="chart-combo-bar-line-sec" viewBox="0 0 40 40">
<path opacity="0.4" fill-rule="evenodd" clip-rule="evenodd" d="M20 10H26V34H20V10ZM19 14H13V34H19V14ZM12 26H6V34H12V26ZM33 21H27V34H33V21Z"/>
<path d="M5 26.5L15.5 16L23.5 24L32.5 15L33.5 16L23.5 26L15.5 18L6 27.5L5 26.5Z"/>
<path d="M5 5H6V34H35V35H5V20.5V5Z"/>
<rect x="34" y="32" width="1" height="1"/>
<rect x="34" y="30" width="1" height="1"/>
<rect x="34" y="28" width="1" height="1"/>
<rect x="34" y="26" width="1" height="1"/>
<rect x="34" y="24" width="1" height="1"/>
<rect x="34" y="22" width="1" height="1"/>
<rect x="34" y="20" width="1" height="1"/>
<rect x="34" y="18" width="1" height="1"/>
<rect x="34" y="16" width="1" height="1"/>
<rect x="34" y="14" width="1" height="1"/>
<rect x="34" y="12" width="1" height="1"/>
<rect x="34" y="10" width="1" height="1"/>
<rect x="34" y="8" width="1" height="1"/>
<rect x="34" y="6" width="1" height="1"/>
</symbol>
<symbol id="chart-combo-area-bar" viewBox="0 0 40 40">
<path d="M5 5H6V34H35V35H5V20.5V5Z"/>
<path opacity="0.4" d="M6 20.5L15.5 11L23.5 19L33 9.5V34H6V20.5Z"/>
<path fill-rule="evenodd" clip-rule="evenodd" d="M19 19H13V34H19V19ZM12 27H6V34H12V27ZM20 23H26V34H20V23ZM33 26H27V34H33V26Z"/>
</symbol>
<symbol id="chart-combo-custom" viewBox="0 0 40 40">
<path opacity="0.4" fill-rule="evenodd" clip-rule="evenodd" d="M26 10H20V34H24V33.5L26 31.5V10ZM33 24.5V21H27V30.5L33 24.5ZM13 14H19V34H13V14ZM6 26H12V34H6V26Z"/>
<path d="M5 26.5L15.5 16L23.5 24L32.5 15L33.5 16L23.5 26L15.5 18L6 27.5L5 26.5Z"/>
<path d="M5 5H6V34H24V35H5V20.5V5Z"/>
<path fill-rule="evenodd" clip-rule="evenodd" d="M34 25L37 28L39 26V25L37 23H36L34 25ZM25 37V34L33 26L36 29L28 37H25Z"/>
</symbol>
<symbol id="chart-spark-line" viewBox="0 0 40 40">
<path fill-rule="evenodd" clip-rule="evenodd" d="M9.86358 21.8725L15.7636 27.7725L20.7636 16.7725L25.682 21.691L31.6394 5.65181L33.5143 6.34819L26.4717 25.309L21.3901 20.2275L16.3901 31.2275L10.2901 25.1275L5.44232 33.5008L3.71148 32.4987L9.86358 21.8725Z"/>
</symbol>
<defs>
<clipPath id="clip0">
<path d="M0 0H40V40H0V0Z" fill="white"/>
</clipPath>
</defs>
<symbol id="chart-spark-column" viewBox="0 0 40 40">
<path fill-rule="evenodd" clip-rule="evenodd" d="M26 6H20V34H26V6ZM13 14H19V34H13V14ZM33 18H27V34H33V18ZM12 20H6V34H12V20Z"/>
</symbol>
<symbol id="chart-spark-win" viewBox="0 0 40 40">
<path fill-rule="evenodd" clip-rule="evenodd" d="M6 7H12V20H6V7ZM13 7H19V20H13V7ZM33 7H27V20H33V7Z"/>
<rect opacity="0.4" x="20" y="20" width="6" height="13"/>
</symbol>
<symbol id="chart-surface-normal" viewBox="0 0 40 40">
<path fill-rule="evenodd" clip-rule="evenodd" d="M12 6V15.0117L6 28.0117H8.29308L4.64648 31.6581L5.35357 32.3652L9.70733 28.0117H16.5L27 34.0117L30.7242 25.0116L36 25.0116L36 24.0116L31.138 24.0116L33 19.5117L22.5 8.01172L13 14.3451V6H12ZM17.837 24.3331L19.1385 18.5263L23.5873 23.1301C22.7174 23.5372 21.8181 23.8456 20.906 24.0206C19.7223 24.2476 18.7595 24.3698 17.837 24.3331ZM16.617 25.2036L16.2117 27.0117H7.56291L10.2783 21.1283C10.5037 21.3862 10.7771 21.6877 11.0846 22.0044C11.9473 22.8927 13.1287 23.9536 14.2985 24.4692C15.1229 24.8325 15.8764 25.0699 16.617 25.2036ZM16.8359 24.2269C16.1677 24.1101 15.4773 23.8959 14.7018 23.5541C13.72 23.1214 12.6514 22.1823 11.802 21.3077C11.4314 20.9262 11.1121 20.5669 10.8714 20.2852L18.1822 18.2208L16.8359 24.2269ZM17.615 25.3232C17.6295 25.3241 17.644 25.3249 17.6585 25.3257C18.7407 25.3857 19.8305 25.2451 21.0943 25.0027C22.1885 24.7928 23.2713 24.4012 24.3136 23.8817L28.3718 28.0812L26.5102 32.5801L17.1831 27.2503L17.615 25.3232ZM25.2274 23.3883L28.7887 27.0736L31.833 19.7166L30.7961 18.581C30.6237 18.79 30.4188 19.031 30.1871 19.2902C28.8262 20.8126 27.1112 22.2931 25.2274 23.3883ZM30.1147 17.8347L22.7292 9.74581L19.4441 17.4034L24.5166 22.6527C26.3887 21.6052 28.0891 20.1367 29.4415 18.6238C29.7055 18.3285 29.933 18.058 30.1147 17.8347ZM21.6168 9.80239L18.4881 17.0954L11.1883 19.1566L12.7896 15.6871L21.6168 9.80239Z"/>
<g opacity="0.4">
    <path d="M19.1385 18.5263L17.837 24.3331C18.7595 24.3698 19.7223 24.2476 20.906 24.0206C21.8181 23.8456 22.7174 23.5372 23.5873 23.1301L19.1385 18.5263Z"/>
    <path d="M14.7018 23.5541C15.4773 23.8959 16.1677 24.1101 16.8359 24.2269L18.1822 18.2208L10.8714 20.2852C11.1121 20.5669 11.4314 20.9262 11.802 21.3077C12.6514 22.1823 13.72 23.1214 14.7018 23.5541Z"/>
    <path d="M22.7292 9.74581L30.1147 17.8347C29.933 18.058 29.7055 18.3285 29.4415 18.6238C28.0891 20.1367 26.3887 21.6052 24.5166 22.6527L19.4441 17.4034L22.7292 9.74581Z"/>
    <path d="M18.4881 17.0954L21.6168 9.80239L12.7896 15.6871L11.1883 19.1566L18.4881 17.0954Z"/>
</g>
</symbol>
<symbol id="chart-surface-wireframe" viewBox="0 0 40 40">
<g opacity="0.4">
    <path d="M24.4393 24.0117H17.909L17.6848 25.0117H25.4056L24.4393 24.0117Z"/>
    <path d="M29.6419 25.0117H26.7962L25.8299 24.0117H30.0557L29.6419 25.0117Z"/>
    <path d="M16.66 25.0117L16.8842 24.0117H13.0004L13.0005 19.684L12.0005 19.9664L12.0004 24.3042L9.29291 27.0117H10.7071L12.7071 25.0117H16.66Z"/>
    <path d="M12.0005 18.9273L13.0005 18.6449L13.0005 15.5466L12.7896 15.6871L12.0005 17.397L12.0005 18.9273Z"/>
</g>
<path fill-rule="evenodd" clip-rule="evenodd" d="M12 15.0117V6H13V14.3451L22.5 8.01172L33 19.5117L31.138 24.0116L36 24.0116L36 25.0116L30.7242 25.0116L27 34.0117L16.5 28.0117H9.70733L5.35357 32.3652L4.64648 31.6581L8.29308 28.0117H6L12 15.0117ZM19.1385 18.5263L17.1831 27.2503L26.5102 32.5801L28.3718 28.0812L19.1385 18.5263ZM18.4881 17.0954L21.6168 9.80239L12.7896 15.6871L11.1883 19.1566L18.4881 17.0954ZM22.7292 9.74581L19.4441 17.4034L28.7887 27.0736L31.833 19.7166L22.7292 9.74581ZM7.56291 27.0117L10.6369 20.3514L18.1822 18.2208L16.2117 27.0117H7.56291Z"/>
</symbol>
<symbol id="chart-contour-normal" viewBox="0 0 40 40">
    <path fill-rule="evenodd" clip-rule="evenodd" d="M7 7V34H34V7H7ZM19.9994 8H8V20H19.9994V8ZM20.9994 8V20H25.9058C26.221 19.4031 26.5232 18.7899 26.8155 18.1718C27.1967 17.366 27.5639 16.5451 27.9217 15.7452C28.5259 14.3941 29.1035 13.1029 29.6756 12.047C30.1349 11.1992 30.6145 10.4552 31.137 9.91811C31.66 9.38042 32.2762 8.99994 32.9999 8.99993L33 8H20.9994ZM25.355 21H20.9994V25.8163C21.7839 25.398 22.5013 24.8046 23.1681 24.0797C23.9739 23.2036 24.6942 22.147 25.355 21ZM20.9994 26.9284C22.0933 26.4431 23.0537 25.6812 23.9041 24.7567C24.8901 23.6847 25.7426 22.3795 26.5028 21H33V33H20.9994V26.9284ZM19.9994 26.2398V21H8V21.875L8.31595 22.112L8.36241 22.1465C8.40379 22.1771 8.46567 22.2224 8.54631 22.2805C8.70763 22.3967 8.94385 22.5636 9.24104 22.7648C9.83585 23.1676 10.6726 23.7061 11.6401 24.2494C13.5964 25.3479 16.0074 26.4194 18.02 26.5003C18.7238 26.5286 19.3815 26.4361 19.9994 26.2398ZM19.9994 27.2817V33H8V23.1193C8.16619 23.2385 8.3967 23.4008 8.68037 23.5929C9.29197 24.007 10.1529 24.5612 11.1505 25.1214C13.1245 26.2298 15.7135 27.4084 17.9798 27.4995C18.6961 27.5283 19.368 27.4498 19.9994 27.2817ZM33 20H27.0327C27.2702 19.5352 27.4986 19.0664 27.7195 18.5994C28.1239 17.7445 28.5003 16.9021 28.8609 16.0954C29.4506 14.7758 29.9978 13.5515 30.5548 12.5234C30.9997 11.7023 31.4275 11.0537 31.8538 10.6154C32.2796 10.1776 32.6537 9.99993 33 9.99993V20Z"/>
    <g opacity="0.4">
        <path d="M19.9994 20H8V8H19.9994V20Z"/>
        <path d="M20.9994 8V20H25.9058C26.221 19.4031 26.5232 18.7899 26.8155 18.1718C27.1967 17.366 27.5639 16.5451 27.9217 15.7452C28.5259 14.3941 29.1035 13.1029 29.6756 12.047C30.1349 11.1992 30.6145 10.4552 31.137 9.91811C31.66 9.38042 32.2762 8.99994 32.9999 8.99993L33 8H20.9994Z"/>
        <path d="M8 21.875L8.31595 22.112L8.36241 22.1465C8.40379 22.1771 8.46567 22.2224 8.54631 22.2805C8.70763 22.3967 8.94385 22.5636 9.24104 22.7648C9.83585 23.1676 10.6726 23.7061 11.6401 24.2494C13.5964 25.3479 16.0074 26.4194 18.02 26.5003C18.7238 26.5286 19.3815 26.4361 19.9994 26.2398V21H8V21.875Z"/>
        <path d="M20.9994 21H25.355C24.6942 22.147 23.9739 23.2036 23.1681 24.0797C22.5013 24.8046 21.7839 25.398 20.9994 25.8163V21Z"/>
    </g>
</symbol>
<symbol id="chart-contour-wireframe" viewBox="0 0 40 40">
    <path fill-rule="evenodd" clip-rule="evenodd" d="M7 7V34H34V7H7ZM19.9994 8H8V20H19.9994V8ZM20.9994 8V20H25.9058C26.221 19.4031 26.5232 18.7899 26.8155 18.1718C27.1967 17.366 27.5639 16.5451 27.9217 15.7452C28.5259 14.3941 29.1035 13.1029 29.6756 12.047C30.1349 11.1992 30.6145 10.4552 31.137 9.91811C31.66 9.38042 32.2762 8.99994 32.9999 8.99993L33 8H20.9994ZM25.355 21H20.9994V25.8163C21.7839 25.398 22.5013 24.8046 23.1681 24.0797C23.9739 23.2036 24.6942 22.147 25.355 21ZM20.9994 26.9284C22.0933 26.4431 23.0537 25.6812 23.9041 24.7567C24.8901 23.6847 25.7426 22.3795 26.5028 21H33V33H20.9994V26.9284ZM19.9994 26.2398V21H8V21.8716L8.30468 22.1035L8.31595 22.112L8.36241 22.1465C8.40379 22.1771 8.46567 22.2224 8.54631 22.2805C8.70763 22.3967 8.94385 22.5636 9.24104 22.7648C9.83585 23.1676 10.6726 23.7061 11.6401 24.2494C13.5964 25.3479 16.0074 26.4194 18.02 26.5003C18.7238 26.5286 19.3815 26.4361 19.9994 26.2398ZM19.9994 27.2817V33H8V23.1193C8.16619 23.2385 8.3967 23.4008 8.68037 23.5929C9.29197 24.007 10.1529 24.5612 11.1505 25.1214C13.1245 26.2298 15.7135 27.4084 17.9798 27.4995C18.6961 27.5283 19.368 27.4498 19.9994 27.2817ZM33 20H27.0327C27.2702 19.5352 27.4986 19.0664 27.7195 18.5994C28.1239 17.7445 28.5003 16.9021 28.8609 16.0954C29.4506 14.7758 29.9978 13.5515 30.5548 12.5234C30.9997 11.7023 31.4275 11.0537 31.8538 10.6154C32.2796 10.1776 32.6537 9.99993 33 9.99993V20Z"/>
</symbol>
</svg>