<svg aria-hidden="true" style="position: absolute; width: 0; height: 0; overflow: hidden;" version="1.1" xmlns="http://www.w3.org/2000/svg" xmlns:xlink="http://www.w3.org/1999/xlink" stroke="currentColor" stroke-linecap="round" stroke-linejoin="round" fill="none">
    <symbol id="svg-icon-accent" viewBox="0 0 24 24">
        <path d="M10.5 6.5a1 1 0 1 1-2 0 1 1 0 0 1 2 0Zm4 0a1 1 0 1 1-2 0 1 1 0 0 1 2 0Z" stroke="none" fill="currentColor" class="icon-gray-primary"/>
        <path d="M9.5 10.5h-2v2m0 3v2h2m4 0h2v-2m0-3v-2h-2" class="icon-gray-secondary"/>
    </symbol>
    <symbol id="svg-icon-bracket" viewBox="0 0 24 24">
        <path d="M7.5 18.5a2 2 0 0 1-2-2v-2.092a3 3 0 0 0-.504-1.664l-.404-.605a.25.25 0 0 1 0-.278l.404-.605A3 3 0 0 0 5.5 9.592V7.5a2 2 0 0 1 2-2m9 13a2 2 0 0 0 2-2v-2.092a3 3 0 0 1 .504-1.664l.403-.605a.25.25 0 0 0 0-.278l-.403-.605a3 3 0 0 1-.504-1.664V7.5a2 2 0 0 0-2-2" class="icon-gray-primary"/>
        <path d="M10.5 8.5h-1v2m0 3v2h1m3 0h1v-2m0-3v-2h-1" class="icon-gray-secondary"/>
    </symbol>
    <symbol id="svg-icon-fraction" viewBox="0 0 24 24">
        <path d="M9.5 4.5h-1v1m0 3v1h1m4 0h1v-1m0-3v-1h-1m-4 11h-1v1m0 3v1h1m4 0h1v-1m0-3v-1h-1" class="icon-gray-secondary"/>
        <path d="M6.5 12.5h10" class="icon-gray-primary"/>
    </symbol>
    <symbol id="svg-icon-function" viewBox="0 0 24 24">
        <path d="M8.684 9.818a3 3 0 0 0-.74-.344 2.7 2.7 0 0 0-.82-.132q-.688 0-1.07.315-.372.316-.373.835 0 .213.066.388.073.177.205.337.14.154.344.3.213.147.484.316.82.476 1.179.981.366.498.366 1.128 0 .424-.16.835a1.9 1.9 0 0 1-.499.718q-.344.307-.894.498-.541.19-1.325.19a5.3 5.3 0 0 1-1.53-.256 2.5 2.5 0 0 1-.426-.198l.242-1.143q.146.103.359.205a4 4 0 0 0 .996.315q.278.052.55.052.731 0 1.09-.293.367-.294.367-.813 0-.19-.059-.352a.9.9 0 0 0-.19-.322 2 2 0 0 0-.367-.322 7 7 0 0 0-.57-.374q-.748-.454-1.107-.945a1.9 1.9 0 0 1-.351-1.12q0-.454.168-.865.168-.417.498-.732a2.45 2.45 0 0 1 .842-.513q.505-.19 1.18-.19.527 0 .996.102.476.104.805.264zm3.67 6.153q-.184.058-.418.095a3 3 0 0 1-.454.037q-.74 0-1.106-.367-.366-.373-.366-.996 0-.183.036-.432.037-.249.118-.615l1.09-5.193h1.217l-1.099 5.222q-.066.308-.095.476a2 2 0 0 0-.022.286q0 .3.161.461.168.154.527.154.19 0 .33-.022.147-.022.27-.066l-.19.96Zm.856-10.144a.78.78 0 0 1-.227.564.72.72 0 0 1-.549.234.8.8 0 0 1-.564-.227.78.78 0 0 1-.234-.571.71.71 0 0 1 .234-.55.83.83 0 0 1 .564-.212q.322 0 .55.22a.7.7 0 0 1 .226.542m7.64 4.548q0 .11-.03.3a5 5 0 0 1-.066.41 14 14 0 0 1-.08.44 6 6 0 0 1-.073.366L19.729 16h-1.216l.916-4.395a7 7 0 0 0 .146-.857q.015-.131.015-.205 0-.556-.271-.878-.264-.323-.791-.323-.483 0-.96.286-.475.285-.879.725-.402.44-.695.967-.285.526-.389 1.018L14.822 16h-1.216l1.157-5.354a44 44 0 0 0 .227-1.194 20 20 0 0 0 .147-.952h1.172q-.037.285-.088.6-.052.309-.088.572-.044.308-.095.6h.029q.256-.402.564-.754.315-.36.674-.622.366-.272.769-.425a2.4 2.4 0 0 1 .857-.154q.498 0 .857.154.359.146.593.417.241.27.351.652a2.8 2.8 0 0 1 .118.835" fill="currentColor" stroke="none" class="icon-gray-primary"/>
    </symbol>
    <symbol id="svg-icon-integral" viewBox="0 0 24 24">
        <path d="M6.5 19.5a2 2 0 0 0 2-2v-11a2 2 0 0 1 2-2" class="icon-gray-primary"/>
        <path d="M12.5 8.5h-1v2m0 3v2h1m3 0h1v-2m0-3v-2h-1" class="icon-gray-secondary"/>
    </symbol>
    <symbol id="svg-icon-largeOperator" viewBox="0 0 24 24">
        <path d="M12.5 5.5H5.039a.25.25 0 0 0-.19.411L10 12l-5.152 6.088a.25.25 0 0 0 .191.412H12.5" class="icon-gray-primary"/>
        <path d="M14.5 8.5h-1v2m0 3v2h1m3 0h1v-2m0-3v-2h-1" class="icon-gray-secondary"/>
    </symbol>
    <symbol id="svg-icon-limAndLog" viewBox="0 0 24 24">
        <path d="M4.727 15.97a3 3 0 0 1-.417.096 3 3 0 0 1-.455.037q-.74 0-1.105-.367-.367-.373-.367-.996 0-.183.037-.432.036-.249.117-.615l1.875-8.804h1.216l-1.882 8.833q-.066.308-.096.476a2 2 0 0 0-.022.286q0 .3.162.461.168.154.527.154.19 0 .33-.022.146-.022.27-.066zm3.882 0q-.183.06-.418.096a3 3 0 0 1-.454.037q-.74 0-1.106-.367-.366-.373-.366-.996 0-.183.037-.432.036-.249.117-.615L7.51 8.5h1.216l-1.099 5.222q-.065.308-.095.476a2 2 0 0 0-.022.286q0 .3.161.461.169.154.528.154.19 0 .33-.022.146-.022.27-.066zm.857-10.143q0 .33-.227.564a.72.72 0 0 1-.55.234.8.8 0 0 1-.564-.227.78.78 0 0 1-.234-.571.71.71 0 0 1 .234-.55.83.83 0 0 1 .564-.212q.322 0 .55.22a.71.71 0 0 1 .227.542M21.55 10.39q0 .094-.03.293a5 5 0 0 1-.065.41 18 18 0 0 1-.081.44q-.036.21-.066.358L20.423 16h-1.201l.915-4.395a7 7 0 0 0 .11-.578 4 4 0 0 0 .044-.278q.015-.132.015-.206 0-.577-.25-.886-.248-.315-.776-.315-.278 0-.578.132a2.7 2.7 0 0 0-.579.344 4.4 4.4 0 0 0-.542.513q-.256.292-.476.63a5 5 0 0 0-.366.681 3.5 3.5 0 0 0-.227.681L15.728 16h-1.216l.93-4.395a7 7 0 0 0 .11-.578 4 4 0 0 0 .044-.278q.015-.132.015-.206 0-.577-.257-.886-.255-.315-.769-.315-.285 0-.586.132-.3.124-.585.352-.285.22-.55.52-.256.292-.476.63-.212.33-.366.68-.146.345-.22.682L11.02 16H9.803l1.157-5.354a43 43 0 0 0 .227-1.194 20 20 0 0 0 .147-.952h1.171q-.036.285-.088.6-.051.309-.087.572-.044.308-.096.6h.03a6.4 6.4 0 0 1 .571-.783q.307-.36.652-.615.345-.264.718-.41.373-.147.776-.147.469 0 .806.139.337.14.556.396.227.249.345.607.117.36.139.799a7 7 0 0 1 .578-.762q.315-.36.667-.615.358-.264.754-.41a2.4 2.4 0 0 1 .85-.154q.938 0 1.406.55.47.54.469 1.523Z" fill="currentColor" class="icon-gray-primary" stroke="none"/>
    </symbol>
    <symbol id="svg-icon-matrix" viewBox="0 0 24 24">
        <path d="M7.5 5.5h-2v13h2m9-13h2v13h-2" class="icon-gray-secondary"/>
        <path d="M10.75 14a.25.25 0 0 1 .25.25v1.5a.25.25 0 0 1-.25.25h-1.5a.25.25 0 0 1-.25-.25v-1.5a.25.25 0 0 1 .25-.25h1.5Zm4 0a.25.25 0 0 1 .25.25v1.5a.25.25 0 0 1-.25.25h-1.5a.25.25 0 0 1-.25-.25v-1.5a.25.25 0 0 1 .25-.25h1.5Zm-4-6a.25.25 0 0 1 .25.25v1.5a.25.25 0 0 1-.25.25h-1.5A.25.25 0 0 1 9 9.75v-1.5A.25.25 0 0 1 9.25 8h1.5Zm4 0a.25.25 0 0 1 .25.25v1.5a.25.25 0 0 1-.25.25h-1.5a.25.25 0 0 1-.25-.25v-1.5a.25.25 0 0 1 .25-.25h1.5Z" fill="currentColor" class="icon-gray-primary" stroke="none"/>
    </symbol>
    <symbol id="svg-icon-operator" viewBox="0 0 24 24">
        <path d="M5.5 5.5h12m0 0-2 2m2-2-2-2" class="icon-gray-primary"/>
        <path d="M9.5 10.5h-2v2m0 3v2h2m4 0h2v-2m0-3v-2h-2" class="icon-gray-secondary"/>
    </symbol>
    <symbol id="svg-icon-radical" viewBox="0 0 24 24">
        <path d="M4.5 11.5h2l2 7 3-14h7" class="icon-gray-primary"/>
        <path d="M14.5 8.5h-1v2m0 3v2h1m3 0h1v-2m0-3v-2h-1" class="icon-gray-secondary"/>
    </symbol>
    <symbol id="svg-icon-script" viewBox="0 0 24 24">
        <path d="M15.5 4.5h-1v2m0 3v2h1m3 0h1v-2m0-3v-2h-1" class="icon-gray-primary"/>
        <path d="M6.5 11.5h-2v2m0 4v2h2m3 0h2v-2m0-4v-2h-2" class="icon-gray-secondary"/>
    </symbol>
    <symbol id="svg-icon-symbols" viewBox="0 0 24 24">
        <path d="M5.5 18.5h4V17C7.434 16.052 6 13.921 6 11.5c0-3.314 2.5-6 6-6s6 2.686 6 6c0 2.421-1.434 4.552-3.5 5.5v1.5h4" class="icon-gray-primary"/>
    </symbol>
</svg>