<svg xmlns="http://www.w3.org/2000/svg" width="28" height="28" fill="none" viewBox="0 0 28 28">
  <path fill="#383838" fill-rule="evenodd" d="M13.863 6.37A.7.7 0 0 1 15 6.916v14.168a.7.7 0 0 1-1.137.547L9.325 18H6.5A2.5 2.5 0 0 1 4 15.5v-3A2.5 2.5 0 0 1 6.5 10h2.825l4.538-3.63ZM14 7.54l-4.188 3.35A.5.5 0 0 1 9.5 11h-3A1.5 1.5 0 0 0 5 12.5v3A1.5 1.5 0 0 0 6.5 17h3a.5.5 0 0 1 .312.11L14 20.46V7.54Z" clip-rule="evenodd"/>
  <path fill="#446ECA" fill-rule="evenodd" d="M20.65 8.335a.5.5 0 1 0-.707.708A6.977 6.977 0 0 1 22 14a6.976 6.976 0 0 1-2.057 4.956.5.5 0 0 0 .706.708A7.977 7.977 0 0 0 23 14a7.977 7.977 0 0 0-2.35-5.665Zm-3.109 2.136a.5.5 0 0 0-.708.706A3.985 3.985 0 0 1 17.999 14a3.985 3.985 0 0 1-1.166 2.822.5.5 0 0 0 .708.706A4.985 4.985 0 0 0 18.999 14a4.985 4.985 0 0 0-1.458-3.529Z" clip-rule="evenodd"/>
</svg>
