<svg xmlns="http://www.w3.org/2000/svg" width="28" height="28" fill="none" viewBox="0 0 28 28">
  <path fill="#446ECA" fill-rule="evenodd" d="M9.102 17.51a.5.5 0 0 1 .387.592L9 18l.49.102v.001l-.001.004-.003.013-.011.053-.042.203a173.374 173.374 0 0 0-.563 2.877c-.073.393.337.675.692.398l2.631-2.046a.5.5 0 0 1 .614.79l-2.63 2.046c-1.041.809-2.54-.022-2.29-1.369a147.922 147.922 0 0 1 .566-2.897l.042-.204.012-.054.002-.014.001-.004.471.097-.47-.098a.5.5 0 0 1 .591-.387Z" clip-rule="evenodd"/>
  <path fill="#383838" fill-rule="evenodd" d="M13.751 4.068a.5.5 0 0 1 .181.683l-2.579 4.444 7.812 4.51 2.916-4.478a.5.5 0 0 1 .838.546l-3.175 4.875a.5.5 0 0 1-.06.074l-5.185 5.37a1.5 1.5 0 0 1-1.829.257l-.189-.11-3.464-2-.19-.11a1.5 1.5 0 0 1-.692-1.711l2.053-7.178a.499.499 0 0 1 .049-.114l2.83-4.877a.5.5 0 0 1 .684-.181Zm4.77 10.42-7.547-4.358-1.878 6.563a.5.5 0 0 0 .231.57l.19.11 3.464 2 .19.11a.5.5 0 0 0 .61-.086l4.74-4.91Z" clip-rule="evenodd"/>
</svg>
