<svg width="24" height="24" viewBox="0 0 24 24" xmlns="http://www.w3.org/2000/svg">
<path fill-rule="evenodd" clip-rule="evenodd" d="M8.44456 5.02734C8.75686 5.02746 9.03681 5.22138 9.14671 5.51367L12.6467 14.8477L13.8137 17.959C13.9587 18.3466 13.7618 18.7784 13.3742 18.9238C12.9864 19.0693 12.5539 18.8732 12.4084 18.4854L11.425 15.8604H5.46409L4.47972 18.4854C4.33423 18.8731 3.90169 19.0693 3.5139 18.9238C3.12652 18.7782 2.93029 18.3466 3.07542 17.959L4.24241 14.8477L7.74241 5.51367L7.79124 5.40918C7.92267 5.17617 8.17115 5.02734 8.44456 5.02734ZM18.05 7.90039C18.3813 7.65208 18.8513 7.71876 19.0998 8.0498C19.3481 8.38101 19.2813 8.85102 18.9504 9.09961C18.3856 9.52326 17.8574 9.78189 17.4026 9.97461C16.9058 10.1851 16.6298 10.2716 16.3557 10.4189C16.1367 10.5367 16.0204 10.6469 15.9367 10.8135C15.8522 10.982 15.7733 11.2632 15.7541 11.7588C16.2585 11.4369 16.8576 11.25 17.5002 11.25C19.2949 11.2502 20.7502 12.7052 20.7502 14.5V15.5C20.7502 17.2948 19.295 18.7499 17.5002 18.75C15.7053 18.75 14.2502 17.2949 14.2502 15.5V12C14.2502 11.2428 14.3487 10.6329 14.5949 10.1416C14.8549 9.62326 15.2392 9.31576 15.6448 9.09766C15.9954 8.90921 16.4699 8.74061 16.8166 8.59375C17.2053 8.42909 17.6153 8.22636 18.05 7.90039ZM17.5002 12.75C16.5338 12.75 15.7502 13.5336 15.7502 14.5V15.5C15.7502 16.4665 16.5337 17.25 17.5002 17.25C18.4666 17.2499 19.2502 16.4664 19.2502 15.5V14.5C19.2502 13.5337 18.4666 12.7502 17.5002 12.75ZM6.02659 14.3604H10.8625L8.44456 7.91309L6.02659 14.3604Z" fill="#444444"/>
<path fill-rule="evenodd" clip-rule="evenodd" d="M20.1199 2.21993C20.3343 2.00579 20.6572 1.94089 20.9373 2.05685C21.2172 2.17294 21.4 2.44711 21.4001 2.75021V7.81661C21.4001 8.23068 21.0642 8.56638 20.6501 8.56661C20.2359 8.56661 19.9001 8.23082 19.9001 7.81661V4.56075L19.28 5.18087C18.9872 5.4735 18.5123 5.4735 18.2195 5.18087C17.9268 4.88803 17.9268 4.41317 18.2195 4.12032L20.1199 2.21993Z" fill="#446ECA"/>
</svg>
