<svg width="24" height="24" viewBox="0 0 24 24" xmlns="http://www.w3.org/2000/svg"><path d="M12.1173 18.7983H10.109L9.36904 16.6471H4.74829L4.00837 18.7983H2L5.95633 7.58823H8.161L12.1173 18.7983ZM8.87072 14.916L7.05867 9.57143L5.24661 14.916H8.87072Z"/><path d="M14.7577 16.3613C14.9288 16.6639 15.1906 16.9216 15.5429 17.1345C15.9053 17.3361 16.2677 17.437 16.6301 17.437C17.2543 17.437 17.7526 17.1905 18.1251 16.6975C18.5076 16.1933 18.6989 15.5434 18.6989 14.7479C18.6989 13.9524 18.5076 13.3025 18.1251 12.7983C17.7526 12.2941 17.2543 12.042 16.6301 12.042C16.2677 12.042 15.9103 12.1485 15.558 12.3613C15.2057 12.5742 14.9389 12.8375 14.7577 13.1513V16.3613ZM14.7577 18.7983H13.1721V7.58823H14.7577V11.8067C15.3516 10.9216 16.1318 10.479 17.0982 10.479C18.0445 10.479 18.8197 10.8711 19.4237 11.6555C20.0277 12.4286 20.3298 13.4594 20.3298 14.7479C20.3298 16.0588 20.0277 17.0952 19.4237 17.8571C18.8197 18.619 18.0445 19 17.0982 19C16.1419 19 15.3617 18.563 14.7577 17.6891V18.7983Z"/><path d="M24 11.7227H22.7769V6.7479L21.7651 7.90756L21.0705 7.08403L22.943 5H24V11.7227Z"/></svg>