<svg width="24" height="24" viewBox="0 0 24 24" xmlns="http://www.w3.org/2000/svg">
<path d="M20 17.25C20.4142 17.25 20.75 17.5858 20.75 18C20.75 18.4142 20.4142 18.75 20 18.75H10C9.58579 18.75 9.25 18.4142 9.25 18C9.25 17.5858 9.58579 17.25 10 17.25H20ZM20 11.25C20.4142 11.25 20.75 11.5858 20.75 12C20.75 12.4142 20.4142 12.75 20 12.75H10C9.58579 12.75 9.25 12.4142 9.25 12C9.25 11.5858 9.58579 11.25 10 11.25H20ZM20 5.25C20.4142 5.25 20.75 5.58579 20.75 6C20.75 6.41421 20.4142 6.75 20 6.75H10C9.58579 6.75 9.25 6.41421 9.25 6C9.25 5.58579 9.58579 5.25 10 5.25H20Z" fill="#444444"/>
<path d="M5.1709 12.9097C6.33348 12.9097 7.36914 13.8002 7.36914 15.0084V15.1236C7.36911 15.6979 7.12338 16.2378 6.70605 16.6265L4.90527 18.3033H6.61914C7.0332 18.3035 7.36914 18.6392 7.36914 19.0533C7.36891 19.4672 7.03306 19.8031 6.61914 19.8033H4.23535C3.63005 19.803 3.05037 19.3633 2.98047 18.7095L2.97363 18.5767L2.98047 18.4488C3.0119 18.1552 3.15087 17.887 3.3623 17.69L5.68359 15.5289C5.80916 15.4119 5.86911 15.2643 5.86914 15.1236V15.0084C5.86914 14.7273 5.60728 14.4097 5.1709 14.4097C4.73496 14.4101 4.47363 14.7274 4.47363 15.0084C4.4735 15.4225 4.13777 15.7584 3.72363 15.7584C3.30969 15.7581 2.97376 15.4223 2.97363 15.0084C2.97363 13.8005 4.00862 12.9101 5.1709 12.9097ZM5.38379 3.95074C5.60215 3.74737 5.92069 3.69313 6.19434 3.81207C6.46798 3.93121 6.64453 4.20111 6.64453 4.49957V9.89215C6.64447 10.3063 6.30871 10.6422 5.89453 10.6422C5.48077 10.6417 5.1446 10.306 5.14453 9.89215V6.22321L4.23438 7.07086C3.93124 7.35263 3.45694 7.3357 3.1748 7.03278C2.89289 6.72975 2.91016 6.25545 3.21289 5.97321L5.38379 3.95074Z" fill="#446ECA"/>
</svg>
