<svg width="24" height="24" viewBox="0 0 24 24" xmlns="http://www.w3.org/2000/svg">
<path d="M12.5 1.74902C15.1233 1.74908 17.25 3.87571 17.25 6.49902V9.74902H18.5C19.4665 9.74902 20.25 10.5325 20.25 11.499V20.499C20.2498 21.4654 19.4664 22.249 18.5 22.249H5.5C4.53365 22.249 3.75016 21.4654 3.75 20.499V11.499C3.75 10.5326 4.53355 9.74908 5.5 9.74902H6.75V6.49902C6.75 3.87567 8.87665 1.74902 11.5 1.74902H12.5ZM5.5 11.249C5.36198 11.2491 5.25 11.361 5.25 11.499V20.499C5.25016 20.6369 5.36208 20.749 5.5 20.749H18.5C18.638 20.749 18.7498 20.637 18.75 20.499V11.499C18.75 11.361 18.6381 11.249 18.5 11.249H5.5ZM11.5 3.24902C9.70507 3.24902 8.25 4.7041 8.25 6.49902V9.74902H15.75V6.49902C15.75 4.70413 14.2949 3.24908 12.5 3.24902H11.5Z" fill="#444444"/>
<path d="M12 12.7168C13.5544 12.7168 14.8144 13.9769 14.8145 15.5312C14.8144 17.0856 13.5544 18.3457 12 18.3457C10.4456 18.3457 9.18556 17.0856 9.18555 15.5312C9.18558 13.9769 10.4456 12.7168 12 12.7168ZM12 14.2168C11.2741 14.2168 10.6856 14.8053 10.6855 15.5312C10.6856 16.2572 11.2741 16.8457 12 16.8457C12.7259 16.8457 13.3144 16.2572 13.3145 15.5312C13.3144 14.8053 12.7259 14.2168 12 14.2168Z" fill="#444444"/>
</svg>
