<svg width="24" height="24" viewBox="0 0 24 24" xmlns="http://www.w3.org/2000/svg">
<path d="M15.5 18.749C15.9142 18.749 16.25 19.0848 16.25 19.499C16.25 19.9132 15.9142 20.249 15.5 20.249H4.5C4.08579 20.249 3.75 19.9132 3.75 19.499C3.75 19.0848 4.08579 18.749 4.5 18.749H15.5ZM19.5 13.749C19.9142 13.749 20.25 14.0848 20.25 14.499C20.25 14.9132 19.9142 15.249 19.5 15.249H8.5C8.08579 15.249 7.75 14.9132 7.75 14.499C7.75 14.0848 8.08579 13.749 8.5 13.749H19.5ZM17.5 8.74902C17.9142 8.74902 18.25 9.08481 18.25 9.49902C18.25 9.91324 17.9142 10.249 17.5 10.249H6.5C6.08579 10.249 5.75 9.91324 5.75 9.49902C5.75 9.08481 6.08579 8.74902 6.5 8.74902H17.5ZM15.5 3.74902C15.9142 3.74902 16.25 4.08481 16.25 4.49902C16.25 4.91324 15.9142 5.24902 15.5 5.24902H4.5C4.08579 5.24902 3.75 4.91324 3.75 4.49902C3.75 4.08481 4.08579 3.74902 4.5 3.74902H15.5Z" fill="#444444"/>
</svg>
