<svg width="24" height="24" viewBox="0 0 24 24" xmlns="http://www.w3.org/2000/svg">
<path d="M12.4999 1.74902C15.1232 1.74908 17.2499 3.87571 17.2499 6.49902V9.74902H18.4999C19.4664 9.74902 20.2499 10.5325 20.2499 11.499V20.499C20.2497 21.4654 19.4663 22.249 18.4999 22.249H5.49988C4.53353 22.249 3.75004 21.4654 3.74988 20.499V11.499C3.74988 10.5326 4.53343 9.74908 5.49988 9.74902H6.74988V6.49902C6.74988 3.87567 8.87653 1.74902 11.4999 1.74902H12.4999ZM5.49988 11.249C5.36186 11.2491 5.24988 11.361 5.24988 11.499V20.499C5.25004 20.6369 5.36196 20.749 5.49988 20.749H18.4999C18.6379 20.749 18.7497 20.637 18.7499 20.499V11.499C18.7499 11.361 18.6379 11.249 18.4999 11.249H5.49988ZM11.4999 3.24902C9.70495 3.24902 8.24988 4.7041 8.24988 6.49902V9.74902H15.7499V6.49902C15.7499 4.70413 14.2948 3.24908 12.4999 3.24902H11.4999Z" fill="#444444"/>
</svg>
