<svg width="24" height="24" viewBox="0 0 24 24" xmlns="http://www.w3.org/2000/svg">
<path d="M5.82715 20.0039C6.20512 20.0425 6.5 20.3618 6.5 20.75V22.75C6.5 23.1642 6.16421 23.5 5.75 23.5C5.33579 23.5 5 23.1642 5 22.75V21.5H3.75C3.33579 21.5 3 21.1642 3 20.75C3 20.3358 3.33579 20 3.75 20H5.75L5.82715 20.0039ZM20.75 20C21.1642 20 21.5 20.3358 21.5 20.75C21.5 21.1642 21.1642 21.5 20.75 21.5H19.5V22.75C19.5 23.1642 19.1642 23.5 18.75 23.5C18.3358 23.5 18 23.1642 18 22.75V20.75C18 20.3358 18.3358 20 18.75 20H20.75ZM16.75 5C17.7165 5 18.5 5.7835 18.5 6.75V17.75C18.5 18.7165 17.7165 19.5 16.75 19.5H7.75C6.7835 19.5 6 18.7165 6 17.75V6.75C6 5.7835 6.7835 5 7.75 5H16.75ZM7.75 6.5C7.61193 6.5 7.5 6.61193 7.5 6.75V17.75C7.5 17.8881 7.61193 18 7.75 18H16.75C16.8881 18 17 17.8881 17 17.75V6.75C17 6.61193 16.8881 6.5 16.75 6.5H7.75ZM5.75 1C6.16421 1 6.5 1.33579 6.5 1.75V3.75L6.49609 3.82715C6.45747 4.20512 6.13817 4.5 5.75 4.5H3.75C3.33579 4.5 3 4.16421 3 3.75C3 3.33579 3.33579 3 3.75 3H5V1.75C5 1.33579 5.33579 1 5.75 1ZM18.75 1C19.1642 1 19.5 1.33579 19.5 1.75V3H20.75C21.1642 3 21.5 3.33579 21.5 3.75C21.5 4.16421 21.1642 4.5 20.75 4.5H18.75C18.3358 4.5 18 4.16421 18 3.75V1.75C18 1.33579 18.3358 1 18.75 1Z" fill="#444444"/>
<path d="M14.5 14.25C14.9142 14.25 15.25 14.5858 15.25 15C15.25 15.4142 14.9142 15.75 14.5 15.75H10C9.58579 15.75 9.25 15.4142 9.25 15C9.25 14.5858 9.58579 14.25 10 14.25H14.5ZM14.5 11.25C14.9142 11.25 15.25 11.5858 15.25 12C15.25 12.4142 14.9142 12.75 14.5 12.75H10C9.58579 12.75 9.25 12.4142 9.25 12C9.25 11.5858 9.58579 11.25 10 11.25H14.5ZM14.5 8.25C14.9142 8.25 15.25 8.58579 15.25 9C15.25 9.41421 14.9142 9.75 14.5 9.75H10C9.58579 9.75 9.25 9.41421 9.25 9C9.25 8.58579 9.58579 8.25 10 8.25H14.5Z" fill="#444444"/>
</svg>
