<svg width="24" height="24" viewBox="0 0 24 24" xmlns="http://www.w3.org/2000/svg">
<path d="M12.0001 2C17.5229 2.00007 22.0001 6.47719 22.0001 12C22.0001 17.5228 17.5229 21.9999 12.0001 22C6.47727 22 2.00012 17.5228 2.00012 12C2.00012 6.47715 6.47727 2 12.0001 2ZM12.0001 3.5C7.3057 3.5 3.50012 7.30558 3.50012 12C3.50012 16.6944 7.3057 20.5 12.0001 20.5C16.6945 20.4999 20.5001 16.6944 20.5001 12C20.5001 7.30562 16.6945 3.50007 12.0001 3.5ZM15.2198 10.2197C15.5127 9.92683 15.9875 9.92683 16.2804 10.2197C16.5732 10.5126 16.5732 10.9874 16.2804 11.2803L12.7804 14.7803C12.4875 15.0731 12.0127 15.073 11.7198 14.7803L8.21985 11.2803C7.92696 10.9874 7.92696 10.5126 8.21985 10.2197C8.51274 9.92683 8.9875 9.92683 9.2804 10.2197L12.2501 13.1895L15.2198 10.2197Z" fill="#444444"/>
</svg>
