<svg width="24" height="24" viewBox="0 0 24 24" xmlns="http://www.w3.org/2000/svg">
<path d="M13.45 1.74951C13.6473 1.74957 13.837 1.82753 13.9773 1.96631L19.0271 6.96631C19.1692 7.10714 19.2498 7.29944 19.2498 7.49951V20.4995C19.2496 21.4658 18.466 22.2494 17.4998 22.2495H5.49976C4.53337 22.2495 3.74993 21.4659 3.74976 20.4995V3.49951C3.74976 2.53301 4.53326 1.74951 5.49976 1.74951H13.45ZM5.49976 3.24951C5.36168 3.24951 5.24976 3.36144 5.24976 3.49951V20.4995C5.24993 20.6374 5.36179 20.7495 5.49976 20.7495H17.4998C17.6376 20.7494 17.7496 20.6374 17.7498 20.4995V8.24951H13.5984C13.1325 8.24931 12.7536 7.87356 12.7488 7.40771L12.7078 3.24951H5.49976ZM14.2419 6.74951H16.6765L14.2175 4.31494L14.2419 6.74951Z" fill="#444444"/>
</svg>
