<svg width="24" height="24" viewBox="0 0 24 24" xmlns="http://www.w3.org/2000/svg">
<path d="M12.0001 22C17.5229 21.9999 22.0001 17.5228 22.0001 12C22.0001 6.47719 17.5229 2.00007 12.0001 2C6.47727 2 2.00012 6.47715 2.00012 12C2.00012 17.5228 6.47727 22 12.0001 22ZM12.0001 20.5C7.3057 20.5 3.50012 16.6944 3.50012 12C3.50012 7.30558 7.3057 3.5 12.0001 3.5C16.6945 3.50007 20.5001 7.30562 20.5001 12C20.5001 16.6944 16.6945 20.4999 12.0001 20.5ZM15.2198 13.7803C15.5127 14.0732 15.9875 14.0732 16.2804 13.7803C16.5732 13.4874 16.5732 13.0126 16.2804 12.7197L12.7804 9.21973C12.4875 8.92688 12.0127 8.92697 11.7198 9.21973L8.21985 12.7197C7.92696 13.0126 7.92696 13.4874 8.21985 13.7803C8.51274 14.0732 8.9875 14.0732 9.2804 13.7803L12.2501 10.8105L15.2198 13.7803Z" fill="#444444"/>
</svg>
