<svg width="24" height="24" viewBox="0 0 24 24" xmlns="http://www.w3.org/2000/svg">
<path d="M8.5 18.749C8.08579 18.749 7.75 19.0848 7.75 19.499C7.75 19.9132 8.08579 20.249 8.5 20.249H19.5C19.9142 20.249 20.25 19.9132 20.25 19.499C20.25 19.0848 19.9142 18.749 19.5 18.749H8.5ZM4.5 13.749C4.08579 13.749 3.75 14.0848 3.75 14.499C3.75 14.9132 4.08579 15.249 4.5 15.249H15.5C15.9142 15.249 16.25 14.9132 16.25 14.499C16.25 14.0848 15.9142 13.749 15.5 13.749H4.5ZM6.5 8.74902C6.08579 8.74902 5.75 9.08481 5.75 9.49902C5.75 9.91324 6.08579 10.249 6.5 10.249H17.5C17.9142 10.249 18.25 9.91324 18.25 9.49902C18.25 9.08481 17.9142 8.74902 17.5 8.74902H6.5ZM8.5 3.74902C8.08579 3.74902 7.75 4.08481 7.75 4.49902C7.75 4.91324 8.08579 5.24902 8.5 5.24902H19.5C19.9142 5.24902 20.25 4.91324 20.25 4.49902C20.25 4.08481 19.9142 3.74902 19.5 3.74902H8.5Z" fill="#444444"/>
</svg>
