<svg width="24" height="30" viewBox="0 0 24 30" fill="none" xmlns="http://www.w3.org/2000/svg">
    <path d="M1 2a2 2 0 0 1 2-2h14l6 6v22a2 2 0 0 1-2 2H3a2 2 0 0 1-2-2z" fill="#E54D39"/>
    <path d="m17 0 6 6h-5a1 1 0 0 1-1-1z" fill="#000" fill-opacity=".25"/>
    <path d="M13.5 12a.5.5 0 0 0 0 1h5a.5.5 0 0 0 0-1zm-.5 4.5a.5.5 0 0 1 .5-.5h5a.5.5 0 0 1 0 1h-5a.5.5 0 0 1-.5-.5m-8 4a.5.5 0 0 1 .5-.5h13a.5.5 0 0 1 0 1h-13a.5.5 0 0 1-.5-.5m0-8a.5.5 0 0 1 .5-.5h4a.5.5 0 0 1 .5.5v4a.5.5 0 0 1-.5.5h-4a.5.5 0 0 1-.5-.5zM9 16v-3H6v3z" fill="#fff"/>
</svg>
