<svg width="64" height="64" viewBox="0 0 64 64" xmlns="http://www.w3.org/2000/svg">
<g clip-path="url(#clip0_0_960)">
<path d="M2 0H0V64H64V62H2V0Z" fill="#555555"/>
<path d="M55 15C55 17.2091 53.2092 19 51 19C48.7908 19 47 17.2091 47 15C47 12.7909 48.7908 11 51 11C53.2092 11 55 12.7909 55 15Z" fill="#555555"/>
<path d="M29 34C31.2092 34 33 32.2091 33 30C33 27.7909 31.2092 26 29 26C26.7908 26 25 27.7909 25 30C25 32.2091 26.7908 34 29 34Z" fill="#555555"/>
<path d="M20 37C20 39.2091 18.2092 41 16 41C13.7908 41 12 39.2091 12 37C12 34.7909 13.7908 33 16 33C18.2092 33 20 34.7909 20 37Z" fill="#555555"/>
<path d="M13 52C13 54.2091 11.2092 56 9 56C6.79077 56 5 54.2091 5 52C5 49.7909 6.79077 48 9 48C11.2092 48 13 49.7909 13 52Z" fill="#555555"/>
<path d="M40 45C40 47.2091 38.2092 49 36 49C33.7908 49 32 47.2091 32 45C32 42.7909 33.7908 41 36 41C38.2092 41 40 42.7909 40 45Z" fill="#555555"/>
<path d="M44 34C46.2092 34 48 32.2091 48 30C48 27.7909 46.2092 26 44 26C41.7908 26 40 27.7909 40 30C40 32.2091 41.7908 34 44 34Z" fill="#555555"/>
<path d="M58 34C60.2092 34 62 32.2091 62 30C62 27.7909 60.2092 26 58 26C55.7908 26 54 27.7909 54 30C54 32.2091 55.7908 34 58 34Z" fill="#555555"/>
</g>
<defs>
<clipPath id="clip0_0_960">
<rect width="64" height="64" fill="white"/>
</clipPath>
</defs>
</svg>
