<svg width="64" height="64" viewBox="0 0 64 64" xmlns="http://www.w3.org/2000/svg">
<path opacity="0.6" fill-rule="evenodd" clip-rule="evenodd" d="M15.6893 58.2471L3 25.9601L32.5387 3.24707L51 29.7746L39.5991 44.5898L15.6893 58.2471ZM32.0846 6.17829L48.4637 29.7138L38.2267 43.0165L16.7291 55.296L5.46851 26.644L32.0846 6.17829Z" fill="#555555"/>
<path d="M33.0176 16.9355L58.6846 25.1494L63.375 23.6289L64 25.5488L59.2812 27.085L49.0791 56.6689L52.4004 61.2461L50.7676 62.4346L47.9346 58.541L22.8945 49.1504L13.2324 62.4336L11.5977 61.2471L21.0332 48.2441L18.9668 31.7246L0 25.5488L0.623047 23.6279L19.2373 29.6641L30.9805 16.8525L30.9902 1.56641L33.0088 1.56543L33.0176 16.9355ZM24.127 47.4561L45.7773 55.5752L31.999 36.6348L24.127 47.4561ZM33.6631 35.4258L47.6309 54.6748L56.875 27.8682L33.6631 35.4258ZM22.7686 45.8525L30.335 35.4258L21.0889 32.415L22.7686 45.8525ZM21.3486 30.3486L30.9707 33.4697L30.9785 19.8428L21.3486 30.3486ZM33.0283 33.4697L55.3945 26.2158L33.0186 19.0566L33.0283 33.4697Z" fill="#555555"/>
</svg>
