<svg width="24" height="24" viewBox="0 0 24 24" xmlns="http://www.w3.org/2000/svg">
<path d="M14.5 16.75C14.9142 16.75 15.25 17.0858 15.25 17.5C15.25 17.9142 14.9142 18.25 14.5 18.25H3.5C3.08579 18.25 2.75 17.9142 2.75 17.5C2.75 17.0858 3.08579 16.75 3.5 16.75H14.5ZM20.5 16.75C20.9142 16.75 21.25 17.0858 21.25 17.5C21.25 17.9142 20.9142 18.25 20.5 18.25H18.5C18.0858 18.25 17.75 17.9142 17.75 17.5C17.75 17.0858 18.0858 16.75 18.5 16.75H20.5ZM9.5 12.75C9.91421 12.75 10.25 13.0858 10.25 13.5C10.25 13.9142 9.91421 14.25 9.5 14.25H3.5C3.08579 14.25 2.75 13.9142 2.75 13.5C2.75 13.0858 3.08579 12.75 3.5 12.75H9.5ZM20.5 12.75C20.9142 12.75 21.25 13.0858 21.25 13.5C21.25 13.9142 20.9142 14.25 20.5 14.25H18.5C18.0858 14.25 17.75 13.9142 17.75 13.5C17.75 13.0858 18.0858 12.75 18.5 12.75H20.5ZM14.5 8.75C14.9142 8.75 15.25 9.08579 15.25 9.5C15.25 9.91421 14.9142 10.25 14.5 10.25H3.5C3.08579 10.25 2.75 9.91421 2.75 9.5C2.75 9.08579 3.08579 8.75 3.5 8.75H14.5ZM20.5 8.75C20.9142 8.75 21.25 9.08579 21.25 9.5C21.25 9.91421 20.9142 10.25 20.5 10.25H18.5C18.0858 10.25 17.75 9.91421 17.75 9.5C17.75 9.08579 18.0858 8.75 18.5 8.75H20.5ZM9.5 4.75C9.91421 4.75 10.25 5.08579 10.25 5.5C10.25 5.91421 9.91421 6.25 9.5 6.25H3.5C3.08579 6.25 2.75 5.91421 2.75 5.5C2.75 5.08579 3.08579 4.75 3.5 4.75H9.5ZM20.5 4.75C20.9142 4.75 21.25 5.08579 21.25 5.5C21.25 5.91421 20.9142 6.25 20.5 6.25H18.5C18.0858 6.25 17.75 5.91421 17.75 5.5C17.75 5.08579 18.0858 4.75 18.5 4.75H20.5Z" fill="#444444"/>
</svg>
