<svg version="1.1" xmlns="http://www.w3.org/2000/svg" xmlns:xlink="http://www.w3.org/1999/xlink" viewBox="0 0 28 28"><g><rect y="1" width="26" height="1"/><rect y="4" width="26" height="1"/><rect y="25" width="26" height="1"/><rect y="22" width="26" height="1"/><rect y="7" width="5" height="1"/><rect y="10" width="5" height="1"/><rect y="13" width="5" height="1"/><rect y="16" width="5" height="1"/><rect y="19" width="5" height="1"/><rect x="21" y="19" width="5" height="1"/><rect x="21" y="16" width="5" height="1"/><rect x="21" y="13" width="5" height="1"/><rect x="21" y="10" width="5" height="1"/><rect x="21" y="7" width="5" height="1"/><path d="M16.08,8.33c-1.69,1-2.82,3.91-2.82,3.91s-0.19.06-.07-0.22a0.33,0.33,0,0,0,0-.45l0.78-1.9A0.45,0.45,0,0,0,14,9.5a0.26,0.26,0,0,0,0-.23,0.24,0.24,0,0,0-.14.18,0.49,0.49,0,0,0,0,.19l-0.78,1.9a0.17,0.17,0,0,0-.11,0,0.25,0.25,0,0,1-.11,0l-0.78-1.9a0.47,0.47,0,0,0,0-.19,0.24,0.24,0,0,0-.14-0.18,0.26,0.26,0,0,0,0,.23,0.45,0.45,0,0,0,.1.17l0.78,1.91a0.32,0.32,0,0,0-.05.44c0.12,0.29-.07.22-0.07,0.22S11.57,9.3,9.88,8.33s-3.55-2-3.8-.53,0.23,1.42.37,2,0.28,2.34.76,2.75A6.19,6.19,0,0,0,9.62,13s-2.17,1.24-2.14,2,0.62,4.86,1.83,4.92,2-1.87,2.34-2.78a26.9,26.9,0,0,1,.93-2.84,8.39,8.39,0,0,1,.14,1.51c0.11,0.3.25,0.26,0.25,0.26s0.14,0,.25-0.26a8.39,8.39,0,0,1,.14-1.51,26.73,26.73,0,0,1,.93,2.84c0.34,0.92,1.13,2.84,2.34,2.78s1.8-4.18,1.83-4.92-2.14-2-2.14-2a6.19,6.19,0,0,0,2.42-.44c0.48-.41.62-2.13,0.76-2.75s0.62-.62.37-2S17.77,7.35,16.08,8.33Z"/></g></svg>