<svg version="1.1" xmlns="http://www.w3.org/2000/svg" xmlns:xlink="http://www.w3.org/1999/xlink" viewBox="0 0 28 28"><g><path opacity="0.3" d="M16.07,8.34c-1.68,1-2.8,3.91-2.8,3.91s-0.19.06-.07-0.22a0.33,0.33,0,0,0,0-.45l0.77-1.9A0.45,0.45,0,0,0,14,9.51a0.26,0.26,0,0,0,0-.23,0.24,0.24,0,0,0-.14.18,0.49,0.49,0,0,0,0,.19l-0.77,1.89a0.17,0.17,0,0,0-.11,0,0.25,0.25,0,0,1-.11,0l-0.77-1.9a0.48,0.48,0,0,0,0-.19,0.24,0.24,0,0,0-.14-0.18,0.26,0.26,0,0,0,0,.23,0.45,0.45,0,0,0,.1.17l0.78,1.91a0.32,0.32,0,0,0-.05.44c0.12,0.29-.07.22-0.07,0.22S11.6,9.32,9.92,8.34s-3.52-2-3.78-.53,0.22,1.42.36,2,0.28,2.34.76,2.75A6.1,6.1,0,0,0,9.67,13s-2.15,1.24-2.13,2,0.62,4.85,1.82,4.91,2-1.86,2.32-2.78a27,27,0,0,1,.92-2.84,8.43,8.43,0,0,1,.14,1.51c0.11,0.3.25,0.26,0.25,0.26s0.14,0,.25-0.26a8.43,8.43,0,0,1,.14-1.51,26.83,26.83,0,0,1,.92,2.84c0.34,0.92,1.12,2.84,2.32,2.78s1.79-4.17,1.82-4.91-2.13-2-2.13-2a6.1,6.1,0,0,0,2.41-.44c0.48-.41.62-2.13,0.76-2.75s0.62-.62.36-2S17.75,7.36,16.07,8.34Z"/><rect y="1" width="26" height="1"/><rect y="4" width="26" height="1"/><rect y="25" width="26" height="1"/><rect y="22" width="26" height="1"/><rect y="7" width="26" height="1"/><rect y="10" width="26" height="1"/><rect y="13" width="26" height="1"/><rect y="16" width="26" height="1"/><rect y="19" width="26" height="1"/></g></svg>