<svg width="24" height="24" viewBox="0 0 24 24" xmlns="http://www.w3.org/2000/svg"><path d="M22 8.11133H20.9177V5.15361L20.9282 4.66765L20.9457 4.13624C20.7659 4.31571 20.641 4.43341 20.5709 4.48935L19.9825 4.96132L19.4606 4.31105L21.1103 3H22V8.11133Z"/><path d="M10.3363 18.8514L8.98161 15.3968H4.61996L3.28021 18.8514H2L6.3021 7.94526H7.36646L11.6462 18.8514H10.3363ZM8.58713 14.2601L7.3218 10.8947C7.15806 10.4687 6.98935 9.94621 6.81567 9.32711C6.70651 9.80258 6.5502 10.3251 6.34676 10.8947L5.06655 14.2601H8.58713Z"/><path d="M16.1425 10.5752C17.2143 10.5752 18.0454 10.9417 18.6359 11.6748C19.2313 12.4028 19.5291 13.4355 19.5291 14.7728C19.5291 16.11 19.2288 17.1501 18.6284 17.893C18.033 18.631 17.2043 19 16.1425 19C15.6115 19 15.1252 18.9034 14.6836 18.7103C14.2469 18.5121 13.8798 18.21 13.582 17.8039H13.4927L13.2322 18.8514H12.3465V7.29149H13.582V10.0997C13.582 10.7288 13.5622 11.2934 13.5225 11.7936H13.582C14.1576 10.9814 15.0111 10.5752 16.1425 10.5752ZM15.9638 11.6079C15.1203 11.6079 14.5124 11.8506 14.1403 12.336C13.7681 12.8164 13.582 13.6286 13.582 14.7728C13.582 15.9169 13.7731 16.7366 14.1551 17.2318C14.5372 17.7222 15.15 17.9673 15.9936 17.9673C16.7528 17.9673 17.3185 17.6925 17.6906 17.1427C18.0628 16.588 18.2488 15.793 18.2488 14.7579C18.2488 13.698 18.0628 12.908 17.6906 12.388C17.3185 11.8679 16.7429 11.6079 15.9638 11.6079Z"/></svg>