<svg version="1.1" xmlns="http://www.w3.org/2000/svg" xmlns:xlink="http://www.w3.org/1999/xlink" viewBox="0 0 28 28"><g><rect x="1" y="1" width="26" height="1"/><rect x="1" y="4" width="26" height="1"/><rect x="1" y="25" width="26" height="1"/><rect x="1" y="22" width="26" height="1"/><rect x="1" y="7" width="4" height="1"/><rect x="1" y="10" width="4" height="1"/><rect x="1" y="13" width="4" height="1"/><rect x="1" y="16" width="4" height="1"/><rect x="1" y="19" width="4" height="1"/><rect x="23" y="19" width="4" height="1"/><rect x="23" y="16" width="4" height="1"/><rect x="23" y="13" width="4" height="1"/><rect x="23" y="10" width="4" height="1"/><rect x="23" y="7" width="4" height="1"/><rect x="7" y="7" width="14" height="13"/></g></svg>