<svg version="1.1" xmlns="http://www.w3.org/2000/svg" xmlns:xlink="http://www.w3.org/1999/xlink" viewBox="0 0 28 28"><g><rect y="1" width="26" height="1"/><rect y="4" width="26" height="1"/><rect y="25" width="26" height="1"/><rect y="22" width="26" height="1"/><rect y="7" width="5" height="1"/><rect y="10" width="5" height="1"/><rect y="13" width="6" height="1"/><rect y="16" width="6" height="1"/><rect y="19" width="7" height="1"/><rect x="19" y="19" width="7" height="1"/><rect x="12" y="19" width="2" height="1"/><rect x="20" y="16" width="6" height="1"/><rect x="20" y="13" width="6" height="1"/><rect x="21" y="10" width="5" height="1"/><rect x="21" y="7" width="5" height="1"/><rect x="11" y="7" width="4" height="1"/><path d="M16.07,8.3c-1.69,1-2.82,3.91-2.82,3.91s-0.19.06-.07-0.22a0.33,0.33,0,0,0,0-.45l0.78-1.9A0.45,0.45,0,0,0,14,9.47a0.26,0.26,0,0,0,0-.23,0.24,0.24,0,0,0-.14.18,0.49,0.49,0,0,0,0,.19l-0.78,1.9a0.17,0.17,0,0,0-.11,0,0.25,0.25,0,0,1-.11,0L12.08,9.61a0.47,0.47,0,0,0,0-.19,0.24,0.24,0,0,0-.14-0.18,0.26,0.26,0,0,0,0,.23,0.45,0.45,0,0,0,.1.17l0.78,1.91a0.32,0.32,0,0,0-.05.44c0.12,0.29-.07.22-0.07,0.22S11.56,9.28,9.87,8.3s-3.55-2-3.8-.53,0.23,1.42.37,2,0.28,2.34.76,2.76A6.17,6.17,0,0,0,9.62,13s-2.17,1.25-2.14,2,0.62,4.86,1.83,4.92,2-1.87,2.34-2.79a27,27,0,0,1,.93-2.85,8.41,8.41,0,0,1,.14,1.51c0.11,0.3.25,0.26,0.25,0.26s0.14,0,.25-0.26a8.41,8.41,0,0,1,.14-1.51,26.81,26.81,0,0,1,.93,2.85c0.34,0.92,1.13,2.85,2.34,2.79s1.8-4.18,1.83-4.92-2.14-2-2.14-2a6.17,6.17,0,0,0,2.42-.44c0.48-.42.62-2.13,0.76-2.76s0.62-.62.37-2S17.76,7.32,16.07,8.3Z"/></g></svg>