<svg version="1.1" xmlns="http://www.w3.org/2000/svg" xmlns:xlink="http://www.w3.org/1999/xlink" viewBox="0 0 28 28"><g><rect y="1" width="26" height="1"/><rect y="4" width="26" height="1"/><rect y="25" width="26" height="1"/><rect y="22" width="26" height="1"/><path d="M16.08,8.3c-1.68,1-2.8,3.91-2.8,3.91s-0.19.06-.07-0.22a0.33,0.33,0,0,0,0-.45l0.77-1.9A0.45,0.45,0,0,0,14,9.47a0.26,0.26,0,0,0,0-.23,0.24,0.24,0,0,0-.14.18,0.49,0.49,0,0,0,0,.19l-0.77,1.9a0.17,0.17,0,0,0-.11,0,0.25,0.25,0,0,1-.11,0L12.12,9.61a0.48,0.48,0,0,0,0-.19,0.24,0.24,0,0,0-.14-0.18,0.26,0.26,0,0,0,0,.23,0.45,0.45,0,0,0,.1.17l0.78,1.91a0.32,0.32,0,0,0,0,.44c0.12,0.29-.07.22-0.07,0.22S11.6,9.28,9.92,8.3s-3.52-2-3.77-.53,0.22,1.42.36,2,0.28,2.34.76,2.76a6.08,6.08,0,0,0,2.4.44s-2.15,1.25-2.12,2,0.61,4.86,1.82,4.92,2-1.87,2.32-2.79a27.11,27.11,0,0,1,.92-2.85,8.47,8.47,0,0,1,.14,1.51c0.11,0.3.25,0.26,0.25,0.26s0.14,0,.25-0.26a8.47,8.47,0,0,1,.14-1.51,26.94,26.94,0,0,1,.92,2.85c0.34,0.92,1.12,2.85,2.32,2.79s1.79-4.18,1.82-4.92-2.12-2-2.12-2a6.08,6.08,0,0,0,2.4-.44c0.48-.42.62-2.13,0.76-2.76s0.61-.62.36-2S17.75,7.32,16.08,8.3Z"/></g></svg>