<svg width="24" height="24" viewBox="0 0 24 24" xmlns="http://www.w3.org/2000/svg">
<path d="M22.2832 21.3291C22.6973 21.3291 23.0331 21.665 23.0332 22.0791C23.0332 22.4933 22.6974 22.8291 22.2832 22.8291H1.75C1.33579 22.8291 1 22.4933 1 22.0791C1.00007 21.6649 1.33583 21.3291 1.75 21.3291H22.2832ZM22.2832 18.3955C22.6973 18.3955 23.033 18.7315 23.0332 19.1455C23.0332 19.5597 22.6974 19.8955 22.2832 19.8955H1.75C1.33579 19.8955 1 19.5597 1 19.1455C1.00021 18.7315 1.33592 18.3955 1.75 18.3955H22.2832ZM4.68359 15.4629C5.09766 15.4631 5.43359 15.7988 5.43359 16.2129C5.43342 16.6268 5.09755 16.9627 4.68359 16.9629H1.75C1.33589 16.9629 1.00018 16.627 1 16.2129C1 15.7987 1.33579 15.4629 1.75 15.4629H4.68359ZM22.2832 15.4629C22.6974 15.4629 23.0332 15.7987 23.0332 16.2129C23.033 16.6269 22.6973 16.9629 22.2832 16.9629H19.3496C18.9357 16.9627 18.5998 16.6268 18.5996 16.2129C18.5996 15.7988 18.9356 15.4631 19.3496 15.4629H22.2832ZM4.68359 12.5293C5.09766 12.5295 5.43359 12.8652 5.43359 13.2793C5.43356 13.6934 5.09764 14.0291 4.68359 14.0293H1.75C1.33581 14.0293 1.00004 13.6935 1 13.2793C1 12.8651 1.33579 12.5293 1.75 12.5293H4.68359ZM22.2832 12.5293C22.6974 12.5293 23.0332 12.8651 23.0332 13.2793C23.0332 13.6935 22.6974 14.0293 22.2832 14.0293H19.3496C18.9356 14.0291 18.5996 13.6934 18.5996 13.2793C18.5996 12.8652 18.9356 12.5295 19.3496 12.5293H22.2832ZM4.68359 9.5957C5.09759 9.59588 5.43349 9.93169 5.43359 10.3457C5.43359 10.7598 5.09766 11.0955 4.68359 11.0957H1.75C1.33579 11.0957 1 10.7599 1 10.3457C1.00011 9.93158 1.33585 9.5957 1.75 9.5957H4.68359ZM22.2832 9.5957C22.6973 9.59574 23.0331 9.9316 23.0332 10.3457C23.0332 10.7599 22.6974 11.0957 22.2832 11.0957H19.3496C18.9356 11.0955 18.5996 10.7598 18.5996 10.3457C18.5997 9.93171 18.9356 9.59591 19.3496 9.5957H22.2832ZM4.68359 6.66211C5.09751 6.66229 5.43335 6.99821 5.43359 7.41211C5.43359 7.82621 5.09766 8.16193 4.68359 8.16211H1.75C1.33579 8.16211 1 7.82632 1 7.41211C1.00025 6.99811 1.33594 6.66211 1.75 6.66211H4.68359ZM22.2832 6.66211C22.6972 6.66214 23.033 6.99813 23.0332 7.41211C23.0332 7.8263 22.6974 8.16207 22.2832 8.16211H19.3496C18.9356 8.1619 18.5996 7.82619 18.5996 7.41211C18.5999 6.99824 18.9357 6.66232 19.3496 6.66211H22.2832ZM22.2832 3.72949C22.6974 3.72953 23.0332 4.0653 23.0332 4.47949C23.0331 4.89356 22.6973 5.22946 22.2832 5.22949H1.75C1.33587 5.22949 1.00014 4.89359 1 4.47949C1 4.06528 1.33579 3.72949 1.75 3.72949H22.2832ZM22.2832 0.795898C22.6974 0.795934 23.0332 1.13171 23.0332 1.5459C23.0332 1.96009 22.6974 2.29586 22.2832 2.2959H1.75C1.33579 2.2959 1 1.96011 1 1.5459C1 1.13168 1.33579 0.795898 1.75 0.795898H22.2832Z" fill="#444444"/>
<path d="M16 6.7959C16.5523 6.7959 17 7.24361 17 7.7959V15.7959C17 16.3482 16.5523 16.7959 16 16.7959H8C7.44772 16.7959 7 16.3482 7 15.7959V7.7959C7 7.24361 7.44772 6.7959 8 6.7959H16Z" fill="#446ECA"/>
</svg>
