<svg version="1.1" xmlns="http://www.w3.org/2000/svg" xmlns:xlink="http://www.w3.org/1999/xlink" viewBox="0 0 28 28"><g><rect opacity="0.3" y="1" width="26" height="1"/><rect opacity="0.3" y="4" width="26" height="1"/><rect opacity="0.3" y="25" width="26" height="1"/><rect opacity="0.3" y="22" width="26" height="1"/><rect opacity="0.3" y="7" width="26" height="1"/><rect opacity="0.3" y="10" width="26" height="1"/><rect opacity="0.3" y="13" width="26" height="1"/><rect opacity="0.3" y="16" width="26" height="1"/><rect opacity="0.3" y="19" width="26" height="1"/><path d="M16.08,8.29c-1.69,1-2.82,3.93-2.82,3.93s-0.19.06-.07-0.22a0.33,0.33,0,0,0,0-.45l0.78-1.91A0.46,0.46,0,0,0,14,9.47a0.26,0.26,0,0,0,0-.23,0.25,0.25,0,0,0-.14.18,0.49,0.49,0,0,0,0,.2l-0.78,1.9a0.17,0.17,0,0,0-.11,0,0.25,0.25,0,0,1-.11,0L12.09,9.61a0.48,0.48,0,0,0,0-.2,0.24,0.24,0,0,0-.14-0.18,0.26,0.26,0,0,0,0,.23,0.46,0.46,0,0,0,.1.17l0.78,1.92a0.32,0.32,0,0,0-.05.44c0.12,0.29-.07.22-0.07,0.22S11.57,9.27,9.88,8.29s-3.55-2-3.8-.54,0.23,1.43.37,2.05,0.28,2.35.76,2.77A6.16,6.16,0,0,0,9.62,13s-2.17,1.25-2.14,2S8.1,19.89,9.31,20s2-1.87,2.34-2.8a27.1,27.1,0,0,1,.93-2.86,8.46,8.46,0,0,1,.14,1.52c0.11,0.3.25,0.26,0.25,0.26s0.14,0,.25-0.26a8.46,8.46,0,0,1,.14-1.52,26.92,26.92,0,0,1,.93,2.86c0.34,0.92,1.13,2.86,2.34,2.8s1.8-4.19,1.83-4.94-2.14-2-2.14-2a6.16,6.16,0,0,0,2.42-.45c0.48-.42.62-2.14,0.76-2.77s0.62-.62.37-2.05S17.77,7.31,16.08,8.29Z"/></g></svg>