<svg version="1.1" xmlns="http://www.w3.org/2000/svg" xmlns:xlink="http://www.w3.org/1999/xlink" viewBox="0 0 28 28"><g><rect y="1" width="26" height="1"/><rect y="4" width="26" height="1"/><rect y="25" width="26" height="1"/><rect y="22" width="26" height="1"/><rect y="7" width="5" height="1"/><rect y="10" width="5" height="1"/><rect y="13" width="6" height="1"/><rect y="16" width="6" height="1"/><rect y="19" width="7" height="1"/><rect x="19" y="19" width="7" height="1"/><rect x="20" y="16" width="6" height="1"/><rect x="20" y="13" width="6" height="1"/><rect x="21" y="10" width="5" height="1"/><rect x="21" y="7" width="5" height="1"/><path d="M16.09,8.31c-1.68,1-2.8,3.93-2.8,3.93s-0.19.06-.07-0.22a0.33,0.33,0,0,0,0-.45l0.77-1.91A0.46,0.46,0,0,0,14,9.49a0.26,0.26,0,0,0,0-.23,0.24,0.24,0,0,0-.14.18,0.49,0.49,0,0,0,0,.2l-0.77,1.91a0.17,0.17,0,0,0-.11,0,0.25,0.25,0,0,1-.11,0L12.12,9.64a0.48,0.48,0,0,0,0-.2,0.24,0.24,0,0,0-.14-0.18,0.26,0.26,0,0,0,0,.23,0.46,0.46,0,0,0,.1.17l0.78,1.92a0.32,0.32,0,0,0-.05.44c0.12,0.29-.07.22-0.07,0.22S11.61,9.3,9.93,8.31s-3.53-2-3.78-.54,0.22,1.43.36,2.05,0.28,2.35.76,2.77A6.08,6.08,0,0,0,9.68,13S7.52,14.3,7.55,15,8.17,19.92,9.37,20s2-1.88,2.32-2.8a27.27,27.27,0,0,1,.92-2.86,8.53,8.53,0,0,1,.14,1.52c0.11,0.3.25,0.26,0.25,0.26s0.14,0,.25-0.26a8.53,8.53,0,0,1,.14-1.52,27.09,27.09,0,0,1,.92,2.86c0.34,0.92,1.12,2.86,2.32,2.8s1.79-4.2,1.82-4.94-2.13-2-2.13-2a6.08,6.08,0,0,0,2.41-.45c0.48-.42.62-2.14,0.76-2.77s0.62-.62.36-2.05S17.77,7.33,16.09,8.31Z"/></g></svg>