<svg width="24" height="24" viewBox="0 0 24 24" xmlns="http://www.w3.org/2000/svg">
<path opacity="0.5" d="M14.6416 5.7959C14.8059 5.7959 14.96 5.87245 15.0586 6.00391L15.4287 6.49707H16.5703C16.8484 6.49713 17.1154 6.6087 17.3125 6.80566C17.5097 7.00285 17.707 7.64453 17.707 7.64453H18.4736C18.765 7.64453 18.9999 7.87859 19 8.16992V8.69629C18.9998 9.66438 18.2153 9.93847 17.2471 9.93848H16.4375C16.3001 9.93848 16.1884 10.0501 16.1875 10.1875L16.1797 11.4014V15.6748C16.1797 16.3084 15.6658 16.8223 15.0322 16.8223C14.3987 16.8222 13.8848 16.3084 13.8848 15.6748V14.1367L10.4434 13.3809V15.6748C10.4434 16.3084 9.9295 16.8223 9.2959 16.8223C8.66241 16.8221 8.14844 16.3083 8.14844 15.6748V11.0859C7.08492 10.336 7.00196 9.34128 7 8.21777C6.99954 7.90111 7.25852 7.64459 7.5752 7.64453C7.89197 7.64453 8.14385 7.901 8.14453 8.21777C8.14633 9.05882 8.24998 9.93834 9.2959 9.93848H13.501L14.1289 6.22949C14.1705 5.9799 14.3877 5.7961 14.6416 5.7959Z" fill="#444444"/>
<path d="M22.75 20.7959C23.1642 20.796 23.5 21.1317 23.5 21.5459C23.4999 21.96 23.1641 22.2958 22.75 22.2959H1.75C1.33582 22.2959 1.00006 21.9601 1 21.5459C1 21.1317 1.33579 20.7959 1.75 20.7959H22.75ZM22.75 16.7959C23.1642 16.796 23.5 17.1317 23.5 17.5459C23.4999 17.96 23.1641 18.2958 22.75 18.2959H1.75C1.33582 18.2959 1.00006 17.9601 1 17.5459C1 17.1317 1.33579 16.7959 1.75 16.7959H22.75ZM22.75 12.7959C23.1642 12.796 23.5 13.1317 23.5 13.5459C23.4999 13.96 23.1641 14.2958 22.75 14.2959H1.75C1.33582 14.2959 1.00006 13.9601 1 13.5459C1 13.1317 1.33579 12.7959 1.75 12.7959H22.75ZM22.75 8.7959C23.1642 8.79596 23.5 9.13172 23.5 9.5459C23.4999 9.96002 23.1641 10.2958 22.75 10.2959H1.75C1.33582 10.2959 1.00006 9.96006 1 9.5459C1 9.13169 1.33579 8.7959 1.75 8.7959H22.75ZM22.75 4.7959C23.1642 4.79596 23.5 5.13172 23.5 5.5459C23.4999 5.96002 23.1641 6.29584 22.75 6.2959H1.75C1.33582 6.2959 1.00006 5.96006 1 5.5459C1 5.13168 1.33579 4.7959 1.75 4.7959H22.75ZM22.75 0.795898C23.1642 0.795959 23.5 1.13172 23.5 1.5459C23.4999 1.96002 23.1641 2.29584 22.75 2.2959H1.75C1.33582 2.2959 1.00006 1.96006 1 1.5459C1 1.13168 1.33579 0.795898 1.75 0.795898H22.75Z" fill="#444444"/>
</svg>
