<svg width="24" height="24" viewBox="0 0 24 24" xmlns="http://www.w3.org/2000/svg">
<path d="M3.25879 0.996094C2.29236 0.996174 1.50879 1.77965 1.50879 2.74609V20.7461C1.50899 21.7124 2.29248 22.496 3.25879 22.4961H20.2588C21.2252 22.4961 22.0086 21.7124 22.0088 20.7461V2.74609C22.0088 1.7796 21.2253 0.996094 20.2588 0.996094H3.25879ZM20.2588 2.49609C20.3969 2.49609 20.5088 2.60802 20.5088 2.74609V20.7461C20.5086 20.884 20.3967 20.9961 20.2588 20.9961H3.25879C3.12091 20.996 3.00899 20.8839 3.00879 20.7461V2.74609C3.00879 2.60807 3.12079 2.49617 3.25879 2.49609H20.2588ZM12.2588 16.9961C11.8446 16.9962 11.5088 17.3319 11.5088 17.7461C11.509 18.1601 11.8448 18.496 12.2588 18.4961H17.2588C17.6729 18.4961 18.0086 18.1601 18.0088 17.7461C18.0088 17.3319 17.673 16.9961 17.2588 16.9961H12.2588ZM6.25879 12.9961C5.84464 12.9962 5.50879 13.3319 5.50879 13.7461C5.50899 14.1601 5.84476 14.496 6.25879 14.4961H17.2588C17.6729 14.4961 18.0086 14.1601 18.0088 13.7461C18.0088 13.3319 17.673 12.9961 17.2588 12.9961H6.25879ZM12.2588 8.99609C11.8446 8.99617 11.5088 9.33193 11.5088 9.74609C11.509 10.1601 11.8448 10.496 12.2588 10.4961H17.2588C17.6729 10.4961 18.0086 10.1601 18.0088 9.74609C18.0088 9.33188 17.673 8.99609 17.2588 8.99609H12.2588ZM6.25879 4.99609C5.84464 4.99617 5.50879 5.33193 5.50879 5.74609C5.50899 6.16009 5.84476 6.49601 6.25879 6.49609H17.2588C17.6729 6.49609 18.0086 6.16014 18.0088 5.74609C18.0088 5.33188 17.673 4.99609 17.2588 4.99609H6.25879Z" fill="#444444"/>
</svg>
