<svg width="24" height="24" viewBox="0 0 24 24" xmlns="http://www.w3.org/2000/svg">
<path d="M15.6629 3.9707C15.37 3.67781 14.8953 3.67781 14.6024 3.9707L6.60237 11.9707C6.3095 12.2636 6.30948 12.7384 6.60237 13.0312L12.1883 18.6172C13.2622 19.6905 15.0032 19.6908 16.077 18.6172L19.2489 15.4453C20.3224 14.3716 20.3222 12.6306 19.2489 11.5566L14.1932 6.50098L15.6629 5.03125C15.9557 4.7385 15.9554 4.26363 15.6629 3.9707ZM18.1883 12.6172C18.6758 13.1053 18.6761 13.8968 18.1883 14.3848L15.0164 17.5566C14.5285 18.0444 13.737 18.0441 13.2489 17.5566L8.19319 12.501L13.1326 7.56152L18.1883 12.6172Z" fill="#444444"/>
<path d="M6.34012 14.8125C6.24117 14.6641 6.02307 14.6641 5.9241 14.8125L4.83914 16.4404C4.42817 17.0569 4.5096 17.8775 5.03348 18.4014C5.64043 19.0081 6.62382 19.0082 7.23074 18.4014C7.75462 17.8775 7.83604 17.0569 7.42508 16.4404L6.34012 14.8125ZM10.1575 13C10.0056 13 9.8821 13.1235 9.88211 13.2754C9.88219 13.3547 9.91618 13.4302 9.97586 13.4824L13.3108 16.3975C13.7008 16.7384 14.2863 16.7253 14.6604 16.3672L16.9163 14.207C17.0541 14.0749 17.132 13.8921 17.1321 13.7012C17.1321 13.3141 16.818 13 16.4309 13H10.1575Z" fill="#8E8E93"/>
</svg>
