<svg width="24" height="24" viewBox="0 0 24 24" fill="none" xmlns="http://www.w3.org/2000/svg">
    <rect x="1" y="1" width="22" height="22" rx="3" fill="#444796"/>
    <path d="M10 4a1 1 0 0 0-1 1v4a1 1 0 0 0 1 1h1.3v1.25H6.25v2.25H5a1 1 0 0 0-1 1v4a1 1 0 0 0 1 1h4a1 1 0 0 0 1-1v-4a1 1 0 0 0-1-1H7.75v-.75h8.5v.75H15a1 1 0 0 0-1 1v4a1 1 0 0 0 1 1h4a1 1 0 0 0 1-1v-4a1 1 0 0 0-1-1h-1.25v-2.25H12.8V10H14a1 1 0 0 0 1-1V5a1 1 0 0 0-1-1zm.5 1.5h3v3h-3zM5.5 18v-3h3v3zm10 0v-3h3v3z" fill="#fff"/>
</svg>
