<svg width="24" height="24" viewBox="0 0 24 24" xmlns="http://www.w3.org/2000/svg">
<path d="M9.5 16.75C9.08579 16.75 8.75 17.0858 8.75 17.5C8.75 17.9142 9.08579 18.25 9.5 18.25H20.5C20.9142 18.25 21.25 17.9142 21.25 17.5C21.25 17.0858 20.9142 16.75 20.5 16.75H9.5ZM3.5 16.75C3.08579 16.75 2.75 17.0858 2.75 17.5C2.75 17.9142 3.08579 18.25 3.5 18.25H5.5C5.91421 18.25 6.25 17.9142 6.25 17.5C6.25 17.0858 5.91421 16.75 5.5 16.75H3.5ZM14.5 12.75C14.0858 12.75 13.75 13.0858 13.75 13.5C13.75 13.9142 14.0858 14.25 14.5 14.25H20.5C20.9142 14.25 21.25 13.9142 21.25 13.5C21.25 13.0858 20.9142 12.75 20.5 12.75H14.5ZM3.5 12.75C3.08579 12.75 2.75 13.0858 2.75 13.5C2.75 13.9142 3.08579 14.25 3.5 14.25H5.5C5.91421 14.25 6.25 13.9142 6.25 13.5C6.25 13.0858 5.91421 12.75 5.5 12.75H3.5ZM9.5 8.75C9.08579 8.75 8.75 9.08579 8.75 9.5C8.75 9.91421 9.08579 10.25 9.5 10.25H20.5C20.9142 10.25 21.25 9.91421 21.25 9.5C21.25 9.08579 20.9142 8.75 20.5 8.75H9.5ZM3.5 8.75C3.08579 8.75 2.75 9.08579 2.75 9.5C2.75 9.91421 3.08579 10.25 3.5 10.25H5.5C5.91421 10.25 6.25 9.91421 6.25 9.5C6.25 9.08579 5.91421 8.75 5.5 8.75H3.5ZM14.5 4.75C14.0858 4.75 13.75 5.08579 13.75 5.5C13.75 5.91421 14.0858 6.25 14.5 6.25H20.5C20.9142 6.25 21.25 5.91421 21.25 5.5C21.25 5.08579 20.9142 4.75 20.5 4.75H14.5ZM3.5 4.75C3.08579 4.75 2.75 5.08579 2.75 5.5C2.75 5.91421 3.08579 6.25 3.5 6.25H5.5C5.91421 6.25 6.25 5.91421 6.25 5.5C6.25 5.08579 5.91421 4.75 5.5 4.75H3.5Z" fill="#444444"/>
</svg>
