<svg xmlns="http://www.w3.org/2000/svg" width="24" height="24" fill="none" viewBox="0 0 24 24">
  <path stroke="#383838" d="M12 19.5c1.935 0 3.503-3.358 3.503-7.5 0-4.142-1.568-7.5-3.503-7.5m0 15c-1.935 0-3.503-3.358-3.503-7.5 0-4.142 1.568-7.5 3.503-7.5m0 15a7.503 7.503 0 0 0 7.073-5M12 19.5a7.503 7.503 0 0 1-7.073-5M12 4.5a7.503 7.503 0 0 1 7.073 5M12 4.5a7.503 7.503 0 0 0-7.073 5m14.146 5A7.487 7.487 0 0 0 19.5 12a7.47 7.47 0 0 0-.427-2.5m0 5H4.927m0 0A7.488 7.488 0 0 1 4.5 12c0-.877.15-1.718.427-2.5m14.146 0H4.927"/>
</svg>
