<svg xmlns="http://www.w3.org/2000/svg" width="20" height="20" fill="none" viewBox="0 0 20 20">
  <path fill="#000" fill-rule="evenodd" d="M8.5 4.793 6.354 2.646l-.708.708L7.793 5.5l-3.94 3.94a1.5 1.5 0 0 0 0 2.12l3.586 3.586a1.5 1.5 0 0 0 2.122 0l5.585-5.585a1.5 1.5 0 0 0 0-2.122l-3.585-3.585a1.5 1.5 0 0 0-2.122 0l-.939.939Zm0 1.414 2.146 2.147.707-.708L9.207 5.5l.94-.94a.5.5 0 0 1 .707 0l3.585 3.586a.5.5 0 0 1 0 .708l-5.585 5.585a.5.5 0 0 1-.708 0l-3.585-3.585a.5.5 0 0 1 0-.707L8.5 6.207ZM16 17H4v1h12v-1ZM3 16v3h14v-3H3Zm12.5-1a1.5 1.5 0 0 0 1.5-1.5c0-.828-1.5-2.5-1.5-2.5S14 12.672 14 13.5a1.5 1.5 0 0 0 1.5 1.5Z" clip-rule="evenodd"/>
</svg>
