<svg width="60" height="60" viewBox="0 0 60 60" fill="none" xmlns="http://www.w3.org/2000/svg">
<mask id="mask0_695_1286" style="mask-type:alpha" maskUnits="userSpaceOnUse" x="0" y="0" width="60" height="60">
<rect width="60" height="60" fill="#D9D9D9"/>
</mask>
<g mask="url(#mask0_695_1286)">
<path d="M29.923 48C27.4717 48 25.1577 47.5263 22.981 46.579C20.804 45.6313 18.9033 44.3453 17.279 42.721C15.6547 41.0967 14.3687 39.1897 13.421 37C12.4737 34.8103 12 32.477 12 30C12 27.4897 12.484 25.1397 13.452 22.95C14.42 20.7603 15.7392 18.8552 17.4095 17.2345C19.0802 15.6142 21.0398 14.3367 23.2885 13.402C25.5372 12.4673 27.9333 12 30.477 12C32.8103 12 35.0322 12.3942 37.1425 13.1825C39.2525 13.9712 41.1095 15.0648 42.7135 16.4635C44.3172 17.8622 45.5992 19.5288 46.5595 21.4635C47.5198 23.3982 48 25.5078 48 27.7925C48 30.8822 47.109 33.3558 45.327 35.2135C43.545 37.0712 41.1027 38 38 38H34.454C33.6153 38 32.9133 38.2885 32.348 38.8655C31.7827 39.4425 31.5 40.1387 31.5 40.954C31.5 41.7897 31.75 42.4992 32.25 43.0825C32.75 43.6658 33 44.3383 33 45.1C33 46.0743 32.7275 46.8013 32.1825 47.281C31.6378 47.7603 30.8847 48 29.923 48ZM19 31C19.559 31 20.032 30.8063 20.419 30.419C20.8063 30.032 21 29.559 21 29C21 28.441 20.8063 27.968 20.419 27.581C20.032 27.1937 19.559 27 19 27C18.441 27 17.968 27.1937 17.581 27.581C17.1937 27.968 17 28.441 17 29C17 29.559 17.1937 30.032 17.581 30.419C17.968 30.8063 18.441 31 19 31ZM25 23C25.559 23 26.032 22.8063 26.419 22.419C26.8063 22.032 27 21.559 27 21C27 20.441 26.8063 19.968 26.419 19.581C26.032 19.1937 25.559 19 25 19C24.441 19 23.968 19.1937 23.581 19.581C23.1937 19.968 23 20.441 23 21C23 21.559 23.1937 22.032 23.581 22.419C23.968 22.8063 24.441 23 25 23ZM35 23C35.559 23 36.032 22.8063 36.419 22.419C36.8063 22.032 37 21.559 37 21C37 20.441 36.8063 19.968 36.419 19.581C36.032 19.1937 35.559 19 35 19C34.441 19 33.968 19.1937 33.581 19.581C33.1937 19.968 33 20.441 33 21C33 21.559 33.1937 22.032 33.581 22.419C33.968 22.8063 34.441 23 35 23ZM41 31C41.559 31 42.032 30.8063 42.419 30.419C42.8063 30.032 43 29.559 43 29C43 28.441 42.8063 27.968 42.419 27.581C42.032 27.1937 41.559 27 41 27C40.441 27 39.968 27.1937 39.581 27.581C39.1937 27.968 39 28.441 39 29C39 29.559 39.1937 30.032 39.581 30.419C39.968 30.8063 40.441 31 41 31ZM29.923 46C30.2743 46 30.5417 45.923 30.725 45.769C30.9083 45.6153 31 45.3923 31 45.1C31 44.6333 30.75 44.1347 30.25 43.604C29.75 43.073 29.5 42.1998 29.5 40.9845C29.5 39.5332 29.9833 38.3397 30.95 37.404C31.9167 36.468 33.1 36 34.5 36H38C40.5077 36 42.468 35.2622 43.881 33.7865C45.2937 32.3108 46 30.3128 46 27.7925C46 23.7335 44.4392 20.42 41.3175 17.852C38.1955 15.284 34.582 14 30.477 14C25.8667 14 21.968 15.55 18.781 18.65C15.5937 21.75 14 25.5333 14 30C14 34.4333 15.5583 38.2083 18.675 41.325C21.7917 44.4417 25.541 46 29.923 46Z" fill="#1C1B1F"/>
</g>
</svg>
