<svg width="20" height="20" viewBox="0 0 20 20" fill="none" xmlns="http://www.w3.org/2000/svg">
    <path d="M8 13a5 5 0 0 0 4.916-5.916A5.002 5.002 0 0 1 12 17a5 5 0 0 1-4.916-4.084Q7.53 13 8 13m-.916-.084a5.001 5.001 0 1 1 5.832-5.832 5 5 0 0 0-5.832 5.832" fill="#000" opacity=".4"/>
    <path d="M12.916 7.084A5.002 5.002 0 0 1 12 17a5 5 0 0 1-4.916-4.084 5.001 5.001 0 1 1 5.832-5.832M8 12a4 4 0 0 0 4-4 4 4 0 0 0-4 4m3.874-4.998A4.002 4.002 0 0 0 4 8a4 4 0 0 0 3.002 3.874 5 5 0 0 1 4.872-4.872m1.124 1.124a5 5 0 0 1-4.872 4.873A4.002 4.002 0 0 0 16 12a4 4 0 0 0-3.001-3.874" fill="#000"/>
</svg>
