<svg width="60" height="60" viewBox="0 0 60 60" fill="none" xmlns="http://www.w3.org/2000/svg">
<mask id="mask0_695_1299" style="mask-type:alpha" maskUnits="userSpaceOnUse" x="0" y="0" width="60" height="60">
<rect width="60" height="60" fill="#D9D9D9"/>
</mask>
<g mask="url(#mask0_695_1299)">
<path d="M25.2 34.8157L26.6155 33.3887L22.227 29.0002L26.577 24.6502L25.1615 23.2232L19.3845 29.0002L25.2 34.8157ZM36.8 34.8157L42.6155 29.0002L36.8 23.1847L35.3845 24.6117L39.773 29.0002L35.3845 33.3887L36.8 34.8157ZM17.231 46C16.3103 46 15.5417 45.6917 14.925 45.075C14.3083 44.4583 14 43.6897 14 42.769V15.231C14 14.3103 14.3083 13.5417 14.925 12.925C15.5417 12.3083 16.3103 12 17.231 12H44.769C45.6897 12 46.4583 12.3083 47.075 12.925C47.6917 13.5417 48 14.3103 48 15.231V42.769C48 43.6897 47.6917 44.4583 47.075 45.075C46.4583 45.6917 45.6897 46 44.769 46H17.231ZM17.231 44H44.769C45.077 44 45.3592 43.8718 45.6155 43.6155C45.8718 43.3592 46 43.077 46 42.769V15.231C46 14.923 45.8718 14.6408 45.6155 14.3845C45.3592 14.1282 45.077 14 44.769 14H17.231C16.923 14 16.6408 14.1282 16.3845 14.3845C16.1282 14.6408 16 14.923 16 15.231V42.769C16 43.077 16.1282 43.3592 16.3845 43.6155C16.6408 43.8718 16.923 44 17.231 44Z" fill="#1C1B1F"/>
</g>
</svg>
