<svg width="24" height="24" viewBox="0 0 24 24" fill="none" xmlns="http://www.w3.org/2000/svg">
<mask id="mask0_615_3432" style="mask-type:alpha" maskUnits="userSpaceOnUse" x="0" y="0" width="24" height="24">
<rect width="24" height="24" fill="#D9D9D9"/>
</mask>
<g mask="url(#mask0_615_3432)">
<path d="M10.3245 15.0031C9.99785 15.5724 9.58718 15.9691 9.09252 16.1931C8.59785 16.4077 8.10785 16.5151 7.62252 16.5151C6.97852 16.5151 6.44185 16.3611 6.01252 16.0531C5.59252 15.7451 5.29852 15.3157 5.13052 14.7651C4.97185 14.2051 4.95785 13.5564 5.08852 12.8191L5.14452 12.5111C5.25652 11.8764 5.47118 11.3211 5.78852 10.8451C6.11518 10.3597 6.52118 9.98172 7.00652 9.71105C7.50118 9.44039 8.05652 9.30505 8.67252 9.30505C9.14852 9.30505 9.54985 9.38439 9.87652 9.54305C10.2032 9.70172 10.4505 9.91172 10.6185 10.1731C10.7865 10.4251 10.8705 10.6957 10.8705 10.9851C10.8705 11.4517 10.7025 11.8531 10.3665 12.1891C10.0398 12.5251 9.58252 12.7911 8.99452 12.9871C8.41585 13.1737 7.74385 13.2951 6.97852 13.3511L6.25052 13.4071C6.12918 14.2937 6.18985 14.9611 6.43252 15.4091C6.68452 15.8477 7.09518 16.0671 7.66452 16.0671C7.88852 16.0671 8.13118 16.0251 8.39252 15.9411C8.65385 15.8571 8.90118 15.7124 9.13452 15.5071C9.36785 15.3017 9.54518 15.0171 9.66652 14.6531L10.3245 15.0031ZM6.41852 12.3291L6.32052 12.9591L6.96452 12.9171C7.72985 12.8704 8.31785 12.7444 8.72852 12.5391C9.13918 12.3337 9.42385 12.0864 9.58252 11.7971C9.74118 11.5077 9.82052 11.2184 9.82052 10.9291C9.82052 10.5651 9.71318 10.2804 9.49852 10.0751C9.29318 9.86039 9.00385 9.75305 8.63052 9.75305C8.13585 9.75305 7.68318 9.95839 7.27252 10.3691C6.86185 10.7704 6.57718 11.4237 6.41852 12.3291Z" fill="black"/>
<path d="M12.422 5H11.422L8.422 7V8L11.422 6H12.422L15.422 8V7L12.422 5Z" fill="#1C1B1F"/>
<path d="M15.8339 13.8691C15.5352 14.2704 15.2692 14.6251 15.0359 14.9331C14.8026 15.2317 14.5832 15.5071 14.3779 15.7591C14.1726 16.0111 13.9532 16.2631 13.7199 16.5151L12.7539 15.8431C13.3512 15.4324 13.8832 15.0311 14.3499 14.6391C14.8166 14.2471 15.2506 13.8504 15.6519 13.4491L16.0579 13.0431L15.0499 10.4951C14.9472 10.2151 14.8632 10.0517 14.7979 10.0051C14.7419 9.94905 14.6439 9.91172 14.5039 9.89305L13.7899 9.82305L13.8599 9.44505H15.8059L16.8839 12.2031L17.0659 11.9511C17.3646 11.5497 17.6306 11.1997 17.8639 10.9011C18.0972 10.6024 18.3166 10.3271 18.5219 10.0751C18.7366 9.81372 18.9606 9.55705 19.1939 9.30505L20.1599 9.99105C19.5626 10.4017 19.0259 10.8031 18.5499 11.1951C18.0832 11.5777 17.6492 11.9744 17.2479 12.3851L17.0379 12.5951L18.1159 15.3251C18.2186 15.6051 18.2979 15.7731 18.3539 15.8291C18.4192 15.8757 18.5219 15.9084 18.6619 15.9271L19.3619 16.0111L19.3059 16.3751H17.3599L16.1839 13.3791L15.8339 13.8691Z" fill="black"/>
</g>
</svg>
