<svg xmlns="http://www.w3.org/2000/svg" width="20" height="20" fill="none" viewBox="0 0 20 20">
  <path fill="#000" fill-rule="evenodd" d="M4 5h1V4H4v1Zm0 2h1V6H4v1Zm1 2H4V8h1v1Zm-1 4h1v-1H4v1Zm1 2H4v-1h1v1Zm-1 2h1v-1H4v1ZM17 5h-1V4h1v1Zm-1 2h1V6h-1v1Zm1 2h-1V8h1v1Zm-1 4h1v-1h-1v1Zm1 2h-1v-1h1v1Zm-1 2h1v-1h-1v1ZM7 5H6V4h1v1Zm1 0h1V4H8v1Zm5 0h-1V4h1v1Zm1 0h1V4h-1v1ZM7 17H6v-1h1v1Zm1 0h1v-1H8v1Zm5 0h-1v-1h1v1Zm1 0h1v-1h-1v1Z" clip-rule="evenodd" opacity=".4"/>
  <path fill="#000" d="M17 11H4v-1h13v1Z"/>
  <path fill="#000" d="M11 17h-1V4h1v13Z"/>
</svg>
