<svg width="24" height="24" viewBox="0 0 24 24" fill="none" xmlns="http://www.w3.org/2000/svg">
<mask id="mask0_364_1583" style="mask-type:alpha" maskUnits="userSpaceOnUse" x="0" y="0" width="24" height="24">
<rect width="24" height="24" fill="#D9D9D9"/>
</mask>
<g mask="url(#mask0_364_1583)">
<path d="M16.5909 18C15.8095 18 15.1823 17.7752 14.7095 17.3257C14.2365 16.876 14 16.3097 14 15.6267C14 14.8803 14.2809 14.2802 14.8427 13.8265C15.4043 13.3729 16.1269 13.1462 17.0106 13.1462C17.3723 13.1462 17.7384 13.1847 18.109 13.2617C18.4796 13.3387 18.8061 13.4454 19.0886 13.582V12.9616C19.0886 12.276 18.9223 11.7546 18.5898 11.3976C18.2575 11.0405 17.7726 10.862 17.1352 10.862C16.7867 10.862 16.4621 10.9252 16.1614 11.0516C15.8607 11.178 15.5601 11.3724 15.2596 11.6349L14.6163 11.0366C14.9946 10.6755 15.3856 10.4124 15.7892 10.2473C16.1928 10.0824 16.6434 10 17.141 10C18.1089 10 18.8274 10.2586 19.2966 10.7758C19.7655 11.293 20 12.0689 20 13.1034V17.7566H19.0886V16.6797H18.9875C18.7258 17.1244 18.3959 17.4557 17.9981 17.6735C17.6004 17.8912 17.1313 18 16.5909 18ZM16.6609 17.144C17.4319 17.144 18.0302 16.8858 18.4559 16.3693C18.8816 15.8526 19.0944 15.2048 19.0944 14.4259C18.8586 14.2852 18.5602 14.1754 18.1992 14.0962C17.8384 14.0171 17.485 13.9776 17.139 13.9776C16.4704 13.9776 15.9391 14.1209 15.5451 14.4077C15.1513 14.6944 14.9544 15.1008 14.9544 15.6267C14.9544 16.0596 15.1118 16.4206 15.4266 16.71C15.7414 16.9994 16.1529 17.144 16.6609 17.144Z" fill="#5C89FF"/>
<path d="M2 18L6.93645 5H8.10344L13 18H11.8049L10.4455 14H4.53052L3.13076 18H2ZM4.89936 13H10.1288L7.506 6.323H7.44187L4.89936 13Z" fill="#1C1B1F"/>
</g>
</svg>
