<svg width="24" height="24" viewBox="0 0 24 24" fill="none" xmlns="http://www.w3.org/2000/svg">
<mask id="mask0_365_2033" style="mask-type:alpha" maskUnits="userSpaceOnUse" x="0" y="0" width="24" height="24">
<rect width="24" height="24" transform="matrix(-1 0 0 1 24 0)" fill="#D9D9D9"/>
</mask>
<g mask="url(#mask0_365_2033)">
<path d="M8.00016 18C8.01167 16.0717 8.69079 14.4342 10.0375 13.0874C11.3958 11.7291 13.05 11.0499 15 11.0499H15.777L13.677 13.1499L14.3845 13.8577L17.6923 10.5499L14.3845 7.24219L13.677 7.96144L15.7655 10.0499H15C13.891 10.0499 12.8516 10.2586 11.8818 10.6759C10.9119 11.0933 10.0645 11.6644 9.33951 12.3894C8.61451 13.1144 8.04334 13.9619 7.62601 14.9317C7.21495 15.887 7.00633 16.9097 7.00015 18H8.00016Z" fill="#1C1B1F"/>
</g>
</svg>
