<svg width="24" height="24" viewBox="0 0 24 24" fill="none" xmlns="http://www.w3.org/2000/svg">
<mask id="mask0_389_742" style="mask-type:alpha" maskUnits="userSpaceOnUse" x="0" y="0" width="24" height="24">
<rect width="24" height="24" fill="#D9D9D9"/>
</mask>
<g mask="url(#mask0_389_742)">
<path d="M11.9615 20C9.93084 20 8.16068 19.3368 6.65101 18.0105C5.14135 16.6843 4.26793 15.0142 4.03076 13H5.04226C5.3141 14.7205 6.09776 16.1507 7.39326 17.2905C8.68876 18.4302 10.2115 19 11.9615 19C13.9115 19 15.5657 18.3208 16.924 16.9625C18.2823 15.6042 18.9615 13.95 18.9615 12C18.9615 10.05 18.2823 8.39583 16.924 7.0375C15.5657 5.67917 13.9115 5 11.9615 5C10.9268 5 9.95443 5.21858 9.04426 5.65575C8.13393 6.09292 7.33068 6.69483 6.63451 7.4615H9.11551V8.4615H4.96151V4.30775H5.96151V6.69625C6.73468 5.84742 7.64076 5.18583 8.67976 4.7115C9.71893 4.23717 10.8128 4 11.9615 4C13.0705 4 14.1099 4.20867 15.0798 4.626C16.0496 5.04333 16.897 5.6145 17.622 6.3395C18.347 7.0645 18.9182 7.91192 19.3355 8.88175C19.7528 9.85158 19.9615 10.891 19.9615 12C19.9615 13.109 19.7528 14.1484 19.3355 15.1183C18.9182 16.0881 18.347 16.9355 17.622 17.6605C16.897 18.3855 16.0496 18.9567 15.0798 19.374C14.1099 19.7913 13.0705 20 11.9615 20ZM15.1655 15.8538L10.9615 12.2453V7.0375H11.9615V11.8298L15.873 15.1463L15.1655 15.8538Z" fill="#1C1B1F"/>
</g>
</svg>
