<svg xmlns="http://www.w3.org/2000/svg" width="20" height="20" fill="none" viewBox="0 0 20 20">
  <path fill="#000" fill-rule="evenodd" d="M4 3h10v2h1V3a1 1 0 0 0-1-1H4a1 1 0 0 0-1 1v14a1 1 0 0 0 1 1h10a1 1 0 0 0 1-1v-3h-1v3H4V3Zm8 3H5v1h7V6Zm-2 2H5v1h5V8Zm-5 2h3v1H5v-1Zm2 2H5v1h2v-1Zm9.354-6.354L16 5.293l-.354.353-6.5 6.5-.353.354.353.354.25.25L8 14.5h1.5l.862-.431.284.284.354.354.354-.354 6.5-6.5.353-.353-.353-.354-1.5-1.5ZM11 13.293l-.793-.793L14 8.707l.793.793L11 13.293Zm4.5-4.5L14.707 8 16 6.707l.793.793L15.5 8.793Z" clip-rule="evenodd"/>
</svg>
