<svg width="20" height="20" viewBox="0 0 20 20" fill="none" xmlns="http://www.w3.org/2000/svg">
    <path d="M11.146 3.146a.5.5 0 0 1 .708 0l5 5a.5.5 0 0 1-.708.708l-.646-.647-2.146 2.147a.5.5 0 0 1-.708-.708L14.793 7.5 12.5 5.207l-2.146 2.147a.5.5 0 0 1-.708-.708L11.793 4.5l-.647-.646a.5.5 0 0 1 0-.708m-7 1a.5.5 0 0 1 .708 0L8.1 7.393l.008.008 4.491 4.491.008.008 3.247 3.246a.5.5 0 0 1-.708.708l-2.542-2.543-.109.76a.5.5 0 0 1-.141.283l-1.5 1.5a.5.5 0 0 1-.708 0L7.5 13.207l-3.146 3.146a.5.5 0 1 1-.708-.707L6.793 12.5 4.146 9.854a.5.5 0 0 1 0-.708l1.5-1.5a.5.5 0 0 1 .283-.141l.76-.109-2.543-2.542a.5.5 0 0 1 0-.708M7.573 8.28l-1.337.191L5.207 9.5l5.293 5.293 1.029-1.029.19-1.337z" fill="#000"/>
</svg>
