<svg width="24" height="24" viewBox="0 0 24 24" fill="none" xmlns="http://www.w3.org/2000/svg">
<mask id="mask0_365_2021" style="mask-type:alpha" maskUnits="userSpaceOnUse" x="0" y="0" width="24" height="24">
<rect width="24" height="24" transform="matrix(-1 0 0 1 24 0)" fill="#D9D9D9"/>
</mask>
<g mask="url(#mask0_365_2021)">
<path d="M16.9688 18.0001V17.0001H9.61301C8.60491 17.0001 7.74602 16.6444 7.03632 15.9329C6.32678 15.2214 5.9375 14.557 5.9375 13.5313C5.9375 12.5056 6.32027 11.7773 7.02981 11.0721C7.73951 10.3669 8.5984 10.0144 9.6065 10.0144L17.4507 10.0143L14.5686 12.9798L15.2565 13.6876L19.3125 9.51431L15.2565 5.34131L14.5686 6.04906L17.4507 9.01431L9.6065 9.01436C8.33419 9.01436 7.24728 9.46569 6.34578 10.3684C5.44428 11.2709 4.96553 12.2338 4.96553 13.5313C4.96553 14.8286 5.45079 15.7276 6.35229 16.6366C7.25379 17.5456 8.3407 18.0001 9.61301 18.0001H16.9688Z" fill="#1C1B1F"/>
</g>
</svg>
