<svg width="24" height="24" viewBox="0 0 24 24" fill="none" xmlns="http://www.w3.org/2000/svg">
<mask id="mask0_365_2215" style="mask-type:alpha" maskUnits="userSpaceOnUse" x="0" y="0" width="24" height="24">
<rect x="24" width="24" height="24" transform="rotate(90 24 0)" fill="#D9D9D9"/>
</mask>
<g mask="url(#mask0_365_2215)">
<path d="M8 8.99998L12 8.99998L12 5.11523L21.423 12L12 18.8847L12 15L8 15L8 8.99998ZM9 9.99998L9 14L13 14L13 16.775L19.7537 12L13 7.22498L13 9.99998L9 9.99998Z" fill="#1C1B1F"/>
<path d="M2 9L6 9L6 5L15.2885 12L6 19L6 15L2 15L2 9Z" fill="#1C1B1F"/>
</g>
</svg>
