<svg width="20" height="20" viewBox="0 0 20 20" fill="none" xmlns="http://www.w3.org/2000/svg">
<path fill-rule="evenodd" clip-rule="evenodd" d="M14 14.2928L15.6464 12.6464L16.3535 13.3535L13.8535 15.8535L13.5 16.207L13.1464 15.8535L10.6464 13.3535L11.3535 12.6464L13 14.2928L13 13.9999C13 13.6652 12.9813 13.3313 12.9442 12.9999C12.8505 12.1613 12.6391 11.3384 12.3149 10.5558C11.8626 9.46384 11.1997 8.47169 10.3639 7.63596C10.2595 7.5315 10.1525 7.42973 10.0433 7.33074C9.2786 6.63779 8.39955 6.08076 7.44411 5.68501C6.66147 5.36082 5.83855 5.14941 4.99996 5.05565C4.66857 5.0186 4.33473 4.99992 3.99996 4.99992L3.99996 3.99992C4.33454 3.99992 4.66828 4.01671 4.99996 4.05005C5.97013 4.14755 6.92265 4.38662 7.8268 4.76113C9.04005 5.26368 10.1424 6.00027 11.071 6.92886C11.9996 7.85744 12.7362 8.95983 13.2388 10.1731C13.6133 11.0772 13.8523 12.0298 13.9498 12.9999C13.9832 13.3316 14 13.6653 14 13.9999L14 14.2928Z" fill="black"/>
</svg>
