<svg width="24" height="24" viewBox="0 0 24 24" fill="none" xmlns="http://www.w3.org/2000/svg">
<mask id="mask0_386_3173" style="mask-type:alpha" maskUnits="userSpaceOnUse" x="0" y="0" width="24" height="24">
<rect width="24" height="24" fill="#D9D9D9"/>
</mask>
<g mask="url(#mask0_386_3173)">
<path d="M12.5034 21C11.1898 21 9.9547 20.7507 8.79817 20.2521C7.64181 19.7536 6.63586 19.077 5.78033 18.2223C4.92481 17.3677 4.24758 16.3626 3.74865 15.2071C3.24955 14.0518 3 12.8172 3 11.5034C3 10.1898 3.24929 8.9547 3.74786 7.79817C4.24644 6.64181 4.92305 5.63586 5.77769 4.78033C6.63234 3.92481 7.63741 3.24758 8.79289 2.74865C9.94819 2.24955 11.1828 2 12.4966 2C13.8102 2 15.0453 2.24929 16.2018 2.74786C17.3582 3.24644 18.3641 3.92305 19.2197 4.77769C20.0752 5.63234 20.7524 6.63741 21.2513 7.79289C21.7505 8.94819 22 10.1828 22 11.4966C22 12.8102 21.7507 14.0453 21.2521 15.2018C20.7536 16.3582 20.077 17.3641 19.2223 18.2197C18.3677 19.0752 17.3626 19.7524 16.2071 20.2513C15.0518 20.7505 13.8172 21 12.5034 21ZM12.5 19.9444C14.8574 19.9444 16.8542 19.1264 18.4903 17.4903C20.1264 15.8542 20.9444 13.8574 20.9444 11.5C20.9444 9.14259 20.1264 7.14583 18.4903 5.50972C16.8542 3.87361 14.8574 3.05556 12.5 3.05556C10.1426 3.05556 8.14583 3.87361 6.50972 5.50972C4.87361 7.14583 4.05556 9.14259 4.05556 11.5C4.05556 13.8574 4.87361 15.8542 6.50972 17.4903C8.14583 19.1264 10.1426 19.9444 12.5 19.9444Z" fill="#1C1B1F"/>
<path d="M12.4975 17C12.6903 17 12.853 16.9268 12.9856 16.7803C13.1183 16.6338 13.1846 16.4546 13.1846 16.2425C13.1846 16.0304 13.118 15.8514 12.9848 15.7057C12.8516 15.5599 12.6885 15.487 12.4955 15.487C12.3027 15.487 12.14 15.5602 12.0074 15.7067C11.8749 15.8532 11.8087 16.0325 11.8087 16.2447C11.8087 16.4567 11.8753 16.6357 12.0085 16.7815C12.1417 16.9272 12.3047 17 12.4975 17ZM12.0469 13.8229H12.8892C12.9116 13.4059 12.9829 13.067 13.103 12.8061C13.2233 12.5455 13.4707 12.2128 13.8455 11.8081C14.2348 11.3801 14.5245 10.9966 14.7147 10.6578C14.9049 10.3189 15 9.9267 15 9.48105C15 8.72487 14.7584 8.12228 14.2752 7.67327C13.792 7.22442 13.2203 7 12.5603 7C11.9328 7 11.4001 7.18757 10.9621 7.5627C10.5243 7.93783 10.2036 8.36893 10 8.85599L10.8018 9.22129C10.9417 8.87206 11.1416 8.56337 11.4016 8.29521C11.6618 8.02706 12.0368 7.89298 12.5267 7.89298C13.0927 7.89298 13.506 8.06359 13.7667 8.40483C14.0273 8.74622 14.1576 9.12175 14.1576 9.53142C14.1576 9.86354 14.076 10.1602 13.9127 10.4215C13.7494 10.683 13.5368 10.9459 13.2751 11.2104C12.7695 11.7232 12.4384 12.158 12.2818 12.5147C12.1252 12.8715 12.0469 13.3075 12.0469 13.8229Z" fill="#1C1B1F"/>
</g>
</svg>
