<svg width="24" height="24" viewBox="0 0 24 24" fill="none" xmlns="http://www.w3.org/2000/svg">
<mask id="mask0_365_2069" style="mask-type:alpha" maskUnits="userSpaceOnUse" x="0" y="0" width="24" height="24">
<rect width="24" height="24" fill="#D9D9D9"/>
</mask>
<g mask="url(#mask0_365_2069)">
<path d="M11 20V11H20V12H13L20.5 19.5L19.5 20.5L12 13V20H11Z" fill="#1C1B1F"/>
<path d="M4 19H5V20H4V19Z" fill="#1C1B1F"/>
<path d="M4 16H5V17H4V16Z" fill="#1C1B1F"/>
<path d="M4 13H5V14H4V13Z" fill="#1C1B1F"/>
<path d="M4 10H5V11H4V10Z" fill="#1C1B1F"/>
<path d="M4 7H5V8H4V7Z" fill="#1C1B1F"/>
<path d="M4 4H5V5H4V4Z" fill="#1C1B1F"/>
<path d="M7 4H8V5H7V4Z" fill="#1C1B1F"/>
<path d="M10 4H11V5H10V4Z" fill="#1C1B1F"/>
<path d="M13 4H14V5H13V4Z" fill="#1C1B1F"/>
<path d="M16 4H17V5H16V4Z" fill="#1C1B1F"/>
<path d="M19 4H20V5H19V4Z" fill="#1C1B1F"/>
<path d="M19 7H20V8H19V7Z" fill="#1C1B1F"/>
<path d="M7 19H8V20H7V19Z" fill="#1C1B1F"/>
</g>
</svg>
