<svg width="24" height="24" viewBox="0 0 24 24" fill="none" xmlns="http://www.w3.org/2000/svg">
<mask id="mask0_372_2069" style="mask-type:alpha" maskUnits="userSpaceOnUse" x="0" y="0" width="24" height="24">
<rect width="24" height="24" fill="#D9D9D9"/>
</mask>
<g mask="url(#mask0_372_2069)">
<path d="M13.6 13.6922L11 11.0922L6.11548 15.977C5.99998 16.0923 5.94223 16.2333 5.94223 16.4C5.94223 16.5666 5.99998 16.7076 6.11548 16.823L7.86924 18.577C7.98457 18.6923 8.12557 18.75 8.29224 18.75C8.4589 18.75 8.59998 18.6923 8.71548 18.577L13.6 13.6922ZM11.7135 10.3787L14.3135 12.9787L19.25 8.04221C19.3653 7.92688 19.423 7.77946 19.423 7.59996C19.423 7.42046 19.3653 7.27305 19.25 7.15771L17.5345 5.44221C17.4192 5.32688 17.2717 5.26921 17.0922 5.26921C16.9127 5.26921 16.7653 5.32688 16.65 5.44221L11.7135 10.3787ZM10.652 10.025L14.6672 14.0405L9.42299 19.2845C9.09999 19.6076 8.72307 19.7692 8.29224 19.7692C7.86157 19.7692 7.48465 19.6076 7.16148 19.2845L6.95774 19.0807L6.03842 20H3.26917L5.57298 17.6962L5.40773 17.5307C5.08457 17.2077 4.92298 16.8308 4.92298 16.4C4.92298 15.9691 5.08457 15.5922 5.40773 15.2692L10.652 10.025ZM10.652 10.025L15.9615 4.71546C16.2847 4.3923 16.6616 4.23071 17.0922 4.23071C17.5231 4.23071 17.9 4.3923 18.223 4.71546L19.977 6.46921C20.3 6.79221 20.4615 7.16913 20.4615 7.59996C20.4615 8.0308 20.3 8.40771 19.977 8.73071L14.6672 14.0405L10.652 10.025Z" fill="#1C1B1F"/>
</g>
</svg>
