<svg width="24" height="24" viewBox="0 0 24 24" fill="none" xmlns="http://www.w3.org/2000/svg">
<mask id="mask0_615_3425" style="mask-type:alpha" maskUnits="userSpaceOnUse" x="0" y="0" width="24" height="24">
<rect width="24" height="24" fill="#D9D9D9"/>
</mask>
<g mask="url(#mask0_615_3425)">
<path d="M13.488 17.1479C12.928 18.1239 12.224 18.8039 11.376 19.1879C10.528 19.5559 9.68797 19.7399 8.85597 19.7399C7.75197 19.7399 6.83197 19.4759 6.09597 18.9479C5.37597 18.4199 4.87197 17.6839 4.58397 16.7399C4.31197 15.7799 4.28797 14.6679 4.51197 13.4039L4.60797 12.8759C4.79997 11.7879 5.16797 10.8359 5.71197 10.0199C6.27197 9.18788 6.96797 8.53988 7.79997 8.07588C8.64797 7.61188 9.59997 7.37988 10.656 7.37988C11.472 7.37988 12.16 7.51588 12.72 7.78788C13.28 8.05988 13.704 8.41988 13.992 8.86788C14.28 9.29988 14.424 9.76388 14.424 10.2599C14.424 11.0599 14.136 11.7479 13.56 12.3239C13 12.8999 12.216 13.3559 11.208 13.6919C10.216 14.0119 9.06397 14.2199 7.75197 14.3159L6.50397 14.4119C6.29597 15.9319 6.39997 17.0759 6.81597 17.8439C7.24797 18.5959 7.95197 18.9719 8.92797 18.9719C9.31197 18.9719 9.72797 18.8999 10.176 18.7559C10.624 18.6119 11.048 18.3639 11.448 18.0119C11.848 17.6599 12.152 17.1719 12.36 16.5479L13.488 17.1479ZM6.79197 12.5639L6.62397 13.6439L7.72797 13.5719C9.03997 13.4919 10.048 13.2759 10.752 12.9239C11.456 12.5719 11.944 12.1479 12.216 11.6519C12.488 11.1559 12.624 10.6599 12.624 10.1639C12.624 9.53988 12.44 9.05188 12.072 8.69988C11.72 8.33188 11.224 8.14788 10.584 8.14788C9.73597 8.14788 8.95997 8.49988 8.25597 9.20388C7.55197 9.89188 7.06397 11.0119 6.79197 12.5639Z" fill="#1C1B1F"/>
<path d="M16.5499 6.20995C16.3365 6.49662 16.1465 6.74995 15.9799 6.96995C15.8132 7.18328 15.6565 7.37995 15.5099 7.55995C15.3632 7.73995 15.2065 7.91995 15.0399 8.09995L14.3499 7.61995C14.7765 7.32662 15.1565 7.03995 15.4899 6.75995C15.8232 6.47995 16.1332 6.19662 16.4199 5.90995L16.7099 5.61995L15.9899 3.79995C15.9165 3.59995 15.8565 3.48328 15.8099 3.44995C15.7699 3.40995 15.6999 3.38328 15.5999 3.36995L15.0899 3.31995L15.1399 3.04995H16.5299L17.2999 5.01995L17.4299 4.83995C17.6432 4.55328 17.8332 4.30328 17.9999 4.08995C18.1665 3.87662 18.3232 3.67995 18.4699 3.49995C18.6232 3.31328 18.7832 3.12995 18.9499 2.94995L19.6399 3.43995C19.2132 3.73328 18.8299 4.01995 18.4899 4.29995C18.1565 4.57328 17.8465 4.85662 17.5599 5.14995L17.4099 5.29995L18.1799 7.24995C18.2532 7.44995 18.3099 7.56995 18.3499 7.60995C18.3965 7.64328 18.4699 7.66662 18.5699 7.67995L19.0699 7.73995L19.0299 7.99995H17.6399L16.7999 5.85995L16.5499 6.20995Z" fill="#1C1B1F"/>
</g>
</svg>
