<svg width="24" height="24" viewBox="0 0 24 24" fill="none" xmlns="http://www.w3.org/2000/svg">
<mask id="mask0_365_2045" style="mask-type:alpha" maskUnits="userSpaceOnUse" x="0" y="0" width="24" height="24">
<rect width="24" height="24" transform="matrix(-4.37114e-08 1 1 4.37114e-08 0 0)" fill="#D9D9D9"/>
</mask>
<g mask="url(#mask0_365_2045)">
<path d="M17 16C15.0717 15.9885 13.4342 15.3093 12.0874 13.9626C10.7291 12.6043 10.0499 10.9501 10.0499 9.00011L10.0499 8.22311L12.1499 10.3231L12.8577 9.61561L9.54994 6.30786L6.24219 9.61561L6.96144 10.3231L9.04994 8.23461L9.04994 9.00011C9.04994 10.1091 9.2586 11.1485 9.67594 12.1184C10.0933 13.0882 10.6644 13.9356 11.3894 14.6606C12.1144 15.3856 12.9619 15.9568 13.9317 16.3741C14.887 16.7852 15.9097 16.9938 17 17L17 16Z" fill="#1C1B1F"/>
</g>
</svg>
