<svg width="24" height="24" viewBox="0 0 24 24" fill="none" xmlns="http://www.w3.org/2000/svg">
<mask id="mask0_365_2293" style="mask-type:alpha" maskUnits="userSpaceOnUse" x="0" y="0" width="24" height="24">
<rect width="24" height="24" transform="matrix(-4.37114e-08 -1 -1 4.37114e-08 24 24)" fill="#D9D9D9"/>
</mask>
<g mask="url(#mask0_365_2293)">
<path d="M4.95594 19L6.04378 19L6.04378 4.93879L7.73008 6.50764L8.5 5.79129L5.49986 3L2.5 5.79129L3.26992 6.50764L4.95594 4.93879L4.95594 19Z" fill="#1C1B1F"/>
<path d="M21 16L10 11.9753L10 10.9454L21 7L21 8.04589L17.9711 9.10337L17.9711 13.8845L21 14.9541L21 16ZM17.0434 13.556L17.0434 9.44401L11.4079 11.4089L11.4079 11.5118L17.0434 13.556Z" fill="#1C1B1F"/>
</g>
</svg>
