<svg xmlns="http://www.w3.org/2000/svg" width="20" height="20" fill="none" viewBox="0 0 20 20">
  <path fill="#000" d="M6 5h3.11c1.418 0 2.445.203 3.083.608.643.401.964 1.042.964 1.921 0 .597-.141 1.087-.424 1.47a1.663 1.663 0 0 1-1.114.69v.069c.634.141 1.09.405 1.367.793.283.387.424.902.424 1.545 0 .911-.33 1.622-.991 2.133-.656.51-1.55.771-2.68.771H6V5Zm2 3.958h1.35c.574 0 .989-.089 1.244-.267.26-.177.39-.471.39-.881 0-.383-.142-.657-.424-.82-.278-.17-.72-.254-1.327-.254H8v2.222Zm0 1.682v2.604h1.5c.583 0 1.014-.111 1.292-.335.278-.223.417-.565.417-1.025 0-.83-.592-1.244-1.777-1.244H8Z"/>
</svg>
