<svg width="60" height="60" viewBox="0 0 60 60" fill="none" xmlns="http://www.w3.org/2000/svg">
<mask id="mask0_696_1347" style="mask-type:alpha" maskUnits="userSpaceOnUse" x="0" y="0" width="60" height="60">
<rect width="60" height="60" fill="#D9D9D9"/>
</mask>
<g mask="url(#mask0_696_1347)">
<path d="M42.769 46H17.231C16.3103 46 15.5417 45.6917 14.925 45.075C14.3083 44.4583 14 43.6897 14 42.769V17.231C14 16.3103 14.3083 15.5417 14.925 14.925C15.5417 14.3083 16.3103 14 17.231 14H42.769C43.6897 14 44.4583 14.3083 45.075 14.925C45.6917 15.5417 46 16.3103 46 17.231V42.769C46 43.6897 45.6917 44.4583 45.075 45.075C44.4583 45.6917 43.6897 46 42.769 46ZM16 24H44V17.231C44 16.923 43.8718 16.6408 43.6155 16.3845C43.3592 16.1282 43.077 16 42.769 16H17.231C16.923 16 16.6408 16.1282 16.3845 16.3845C16.1282 16.6408 16 16.923 16 17.231V24ZM22 26H16V42.769C16 43.077 16.1282 43.3592 16.3845 43.6155C16.6408 43.8718 16.923 44 17.231 44H22V26ZM38 26V44H42.769C43.077 44 43.3592 43.8718 43.6155 43.6155C43.8718 43.3592 44 43.077 44 42.769V26H38ZM36 26H24V44H36V26Z" fill="#1C1B1F"/>
</g>
</svg>
