<svg xmlns="http://www.w3.org/2000/svg" viewBox="0 0 24 24" width="24" height="24" stroke="currentColor" stroke-linecap="round" stroke-linejoin="round" fill="none">
    <path d="M9.5 5.5v4m0-4h4m-4 0h-3a1 1 0 0 0-1 1v3m4 0h-4m4 0h4m-4 0v4m-4-4v4m8-8v4m0-4h3a1 1 0 0 1 1 1v2a1 1 0 0 1-1 1h-3m-8 4h4m-4 0v3a1 1 0 0 0 1 1h2a1 1 0 0 0 1-1v-3" class="icon-gray-primary"/>
    <path d="M15.5 13.5v2m0 0v2m0-2h2m-2 0h-2m6 .002a3.998 3.998 0 1 1-7.996 0 3.998 3.998 0 0 1 7.996 0" class="icon-blue-primary"/>
</svg>
