<svg width="24" height="24" viewBox="0 0 24 24" fill="none" xmlns="http://www.w3.org/2000/svg">
<mask id="mask0_403_2118" style="mask-type:alpha" maskUnits="userSpaceOnUse" x="0" y="0" width="24" height="24">
<rect width="24" height="24" fill="#D9D9D9"/>
</mask>
<g mask="url(#mask0_403_2118)">
<path d="M19.9808 11C19.9808 11 19.9808 11 19.9808 11L18.9693 11C18.9693 11 18.9693 11 18.9693 11L19.9808 11Z" fill="#1C1B1F"/>
<path d="M5.11289 11H4.10884C4.06965 11.3268 4.05005 11.6601 4.05005 12C4.05005 13.109 4.25872 14.1484 4.67605 15.1182C5.09338 16.0881 5.66455 16.9355 6.38955 17.6605C7.11455 18.3855 7.96196 18.9567 8.9318 19.374C9.90163 19.7913 10.941 20 12.05 20C13.1987 20 14.2926 19.7628 15.3318 19.2885C16.3708 18.8142 17.2769 18.1526 18.05 17.3038L18.05 19.6923L19.05 19.6923V15.5385L14.8963 15.5385L14.8963 16.5385L17.377 16.5385C16.6809 17.3052 15.8776 17.9071 14.9673 18.3443C14.0571 18.7814 13.0847 19 12.05 19C10.1 19 8.44588 18.3208 7.08755 16.9625C5.72921 15.6042 5.05005 13.95 5.05005 12C5.05005 11.6575 5.071 11.3242 5.11289 11Z" fill="#1C1B1F"/>
<path d="M3.99991 13C3.99991 13 3.99991 13 3.99991 13L5.01141 13C5.01141 13 5.01141 13 5.01141 13L3.99991 13Z" fill="#1C1B1F"/>
<path d="M18.8678 13L19.8719 13C19.9111 12.6732 19.9307 12.3399 19.9307 12C19.9307 10.891 19.722 9.85158 19.3047 8.88175C18.8873 7.91192 18.3162 7.0645 17.5912 6.3395C16.8662 5.6145 16.0187 5.04333 15.0489 4.626C14.0791 4.20866 13.0397 4 11.9307 4C10.782 4 9.68808 4.23716 8.64892 4.7115C7.60992 5.18583 6.70383 5.84741 5.93066 6.69625L5.93067 4.30775L4.93066 4.30775L4.93066 8.4615L9.08441 8.4615L9.08442 7.4615L6.60367 7.4615C7.29983 6.69483 8.10308 6.09291 9.01342 5.65575C9.92358 5.21858 10.896 5 11.9307 5C13.8807 5 15.5348 5.67917 16.8932 7.0375C18.2515 8.39583 18.9307 10.05 18.9307 12C18.9307 12.3425 18.9097 12.6758 18.8678 13Z" fill="#1C1B1F"/>
</g>
</svg>
