<svg width="24" height="24" viewBox="0 0 24 24" fill="none" xmlns="http://www.w3.org/2000/svg">
<mask id="mask0_365_2199" style="mask-type:alpha" maskUnits="userSpaceOnUse" x="0" y="0" width="24" height="24">
<rect width="24" height="24" fill="#D9D9D9"/>
</mask>
<g mask="url(#mask0_365_2199)">
<path d="M12 17.7308C10.218 17.7308 8.61696 17.2257 7.19696 16.2155C5.77713 15.2052 4.70505 13.8 3.98071 12C4.70505 10.2 5.77713 8.79487 7.19696 7.78454C8.61696 6.77437 10.218 6.26929 12 6.26929C13.782 6.26929 15.383 6.77437 16.803 7.78454C18.2228 8.79487 19.2949 10.2 20.0192 12C19.2949 13.8 18.2228 15.2052 16.803 16.2155C15.383 17.2257 13.782 17.7308 12 17.7308ZM12 16.7308C13.518 16.7308 14.8789 16.318 16.0827 15.4923C17.2865 14.6666 18.2327 13.5025 18.9212 12C18.2327 10.4975 17.2865 9.33345 16.0827 8.50779C14.8789 7.68212 13.518 7.26929 12 7.26929C10.482 7.26929 9.12105 7.68212 7.91721 8.50779C6.71338 9.33345 5.76721 10.4975 5.07871 12C5.76721 13.5025 6.71338 14.6666 7.91721 15.4923C9.12105 16.318 10.482 16.7308 12 16.7308ZM12 14.8655C12.8 14.8655 13.4775 14.588 14.0327 14.0328C14.5879 13.4776 14.8655 12.8 14.8655 12C14.8655 11.2 14.5879 10.5225 14.0327 9.96729C13.4775 9.41212 12.8 9.13454 12 9.13454C11.2 9.13454 10.5224 9.41212 9.96721 9.96729C9.41205 10.5225 9.13446 11.2 9.13446 12C9.13446 12.8 9.41205 13.4776 9.96721 14.0328C10.5224 14.588 11.2 14.8655 12 14.8655ZM12 13.8655C11.4808 13.8655 11.0401 13.6844 10.678 13.322C10.3156 12.9599 10.1345 12.5192 10.1345 12C10.1345 11.4809 10.3156 11.0402 10.678 10.678C11.0401 10.3157 11.4808 10.1345 12 10.1345C12.5191 10.1345 12.9598 10.3157 13.322 10.678C13.6843 11.0402 13.8655 11.4809 13.8655 12C13.8655 12.5192 13.6843 12.9599 13.322 13.322C12.9598 13.6844 12.5191 13.8655 12 13.8655Z" fill="#1C1B1F"/>
</g>
</svg>
