<svg width="60" height="60" viewBox="0 0 60 60" fill="none" xmlns="http://www.w3.org/2000/svg">
<mask id="mask0_696_1407" style="mask-type:alpha" maskUnits="userSpaceOnUse" x="0" y="0" width="60" height="60">
<rect width="60" height="60" fill="#D9D9D9"/>
</mask>
<g mask="url(#mask0_696_1407)">
<path d="M31.0342 44C25.7985 44 22.308 40.9161 22 36H24C24.3422 39.3445 27.1331 42 31.0342 42C34.9011 42 38 39.3647 38 36C38 33.139 36.0646 31.448 32.2661 30.4406L29.5627 29.7354C24.7718 28.4661 22 26.0834 22 21.9531C22.0171 17.3393 26.1407 14 31.0342 14C35.7909 14 39.2404 17.2172 39.5312 21.9922H37.1953C36.836 18.5872 34.5247 16 31.0342 16C27.4753 16 24 18.8302 24 21.9531C24 24.6529 26.6026 26.1894 30.1787 27.1162L32.8821 27.8415C37.9467 29.1713 40 31.4882 40 35.7797V35.7999C40 40.7764 36.4582 44 31.0342 44Z" fill="#1C1B1F"/>
<path d="M14 28V30H48V28H14Z" fill="#5C89FF"/>
</g>
</svg>
