<svg width="24" height="24" viewBox="0 0 24 24" fill="none" xmlns="http://www.w3.org/2000/svg">
<mask id="mask0_365_2319" style="mask-type:alpha" maskUnits="userSpaceOnUse" x="0" y="0" width="24" height="24">
<rect width="24" height="24" fill="#D9D9D9"/>
</mask>
<g mask="url(#mask0_365_2319)">
<path d="M11.5 17.2812C10.0964 17.2812 8.99549 16.5262 8.1973 15.7035C7.3991 14.8808 7 13.7638 7 12.3524V5H8V12.3865C8 13.4532 8.29885 14.2978 8.89656 14.9205C9.49426 15.5431 10.4382 16.125 11.5 16.125C12.5618 16.125 13.5057 15.5431 14.1034 14.9205C14.7011 14.2978 15 13.4532 15 12.3865V5H16V12.3524C16 13.7638 15.6009 14.8808 14.8027 15.7035C14.0045 16.5262 12.9036 17.2812 11.5 17.2812Z" fill="#1C1B1F"/>
<path d="M5 20V19H18V20H5Z" fill="#1C1B1F"/>
</g>
</svg>
