<svg width="24" height="24" viewBox="0 0 24 24" fill="none" xmlns="http://www.w3.org/2000/svg">
<mask id="mask0_365_2029" style="mask-type:alpha" maskUnits="userSpaceOnUse" x="0" y="0" width="24" height="24">
<rect width="24" height="24" fill="#D9D9D9"/>
</mask>
<g mask="url(#mask0_365_2029)">
<path d="M15.9998 18C15.9883 16.0717 15.3092 14.4342 13.9625 13.0874C12.6042 11.7291 10.95 11.0499 8.99999 11.0499H8.22299L10.323 13.1499L9.61549 13.8577L6.30774 10.5499L9.61549 7.24219L10.323 7.96144L8.23449 10.0499H8.99999C10.109 10.0499 11.1484 10.2586 12.1182 10.6759C13.0881 11.0933 13.9355 11.6644 14.6605 12.3894C15.3855 13.1144 15.9567 13.9619 16.374 14.9317C16.7851 15.887 16.9937 16.9097 16.9998 18H15.9998Z" fill="#1C1B1F"/>
</g>
</svg>
