<svg xmlns="http://www.w3.org/2000/svg" width="20" height="20" fill="none" viewBox="0 0 20 20">
  <path fill="#000" fill-rule="evenodd" d="M13.012 7H16v-.701h-1.863V6.26l.55-.477c.367-.31.622-.548.766-.715a1.9 1.9 0 0 0 .322-.488c.07-.16.105-.331.105-.513a.946.946 0 0 0-.17-.556 1.108 1.108 0 0 0-.476-.377A1.745 1.745 0 0 0 14.526 3c-.202 0-.386.019-.55.057a1.979 1.979 0 0 0-.453.156 3.211 3.211 0 0 0-.523.35l.491.537c.17-.129.333-.229.489-.299a1.16 1.16 0 0 1 .482-.105c.158 0 .284.039.377.116.096.077.143.195.143.353a.765.765 0 0 1-.064.308 1.378 1.378 0 0 1-.21.323 9.815 9.815 0 0 1-.623.623L13.012 6.42V7Zm-2.498 4.832L11.778 15H13L9.007 5h-.993L4 15h1.194l1.25-3.168h4.07ZM8.965 7.704l1.18 3.086H6.862l1.195-3.086c.19-.522.335-1.001.437-1.437a16.3 16.3 0 0 0 .472 1.437Z" clip-rule="evenodd"/>
</svg>
