<svg width="24" height="24" viewBox="0 0 24 24" fill="none" xmlns="http://www.w3.org/2000/svg">
<mask id="mask0_365_1843" style="mask-type:alpha" maskUnits="userSpaceOnUse" x="0" y="0" width="24" height="24">
<rect width="24" height="24" fill="#D9D9D9"/>
</mask>
<g mask="url(#mask0_365_1843)">
<path d="M20 19L16.9643 15.9811H7.55362C7.1363 15.9811 6.77898 15.8332 6.48169 15.5376C6.1844 15.2421 6.03575 14.8868 6.03575 14.4716V14H16.4062C16.8444 14 17.2196 14.1466 17.5319 13.8363C17.844 13.5259 18 13.1528 18 12.7171V6H18.2277C18.645 6 19.2568 6.09121 19.5541 6.38686C19.8514 6.68234 20 7.03767 20 7.45285V19ZM3.98659 12.6244L5.62039 10.9999H14.4062C14.5833 10.9999 14.7287 10.9434 14.8425 10.8302C14.9564 10.717 15.0134 10.5724 15.0134 10.3963V4.58501C15.0134 4.4089 14.9564 4.26418 14.8425 4.15086C14.7287 4.03771 14.5833 3.98113 14.4062 3.98113H4.59384C4.41675 3.98113 4.27131 4.03771 4.15752 4.15086C4.04357 4.26418 3.98659 4.4089 3.98659 4.58501V12.6244ZM3 15V4.58501C3 4.14906 3.15613 3.77591 3.46839 3.46555C3.78048 3.15518 4.15563 3 4.59384 3H14.4062C14.8444 3 15.2196 3.15518 15.5319 3.46555C15.844 3.77591 16 4.14906 16 4.58501V10.3963C16 10.8321 15.844 11.2052 15.5319 11.5155C15.2196 11.8259 14.8444 11.9811 14.4062 11.9811H6.03575L3 15Z" fill="#1C1B1F"/>
</g>
</svg>
