<svg width="24" height="24" viewBox="0 0 24 24" fill="none" xmlns="http://www.w3.org/2000/svg">
<mask id="mask0_365_2178" style="mask-type:alpha" maskUnits="userSpaceOnUse" x="0" y="0" width="24" height="24">
<rect width="24" height="24" transform="matrix(1 0 0 -1 0 24)" fill="#D9D9D9"/>
</mask>
<g mask="url(#mask0_365_2178)">
<path d="M10 7V8H20V7H10ZM10 16V17H20V16H10Z" fill="#1C1B1F"/>
<path d="M5.50014 15C5.08752 15 4.73434 15.1469 4.4406 15.4406C4.14687 15.7345 4 16.0876 4 16.5C4 16.9124 4.14687 17.2655 4.4406 17.5594C4.73434 17.8531 5.08752 18 5.50014 18C5.91258 18 6.26566 17.8531 6.5594 17.5594C6.85313 17.2655 7 16.9124 7 16.5C7 16.0876 6.85313 15.7345 6.5594 15.4406C6.26566 15.1469 5.91258 15 5.50014 15Z" fill="#5C89FF"/>
<path d="M5.50014 6C5.08752 6 4.73434 6.14685 4.4406 6.44056C4.14687 6.73446 4 7.0876 4 7.5C4 7.9124 4.14687 8.26554 4.4406 8.55944C4.73434 8.85315 5.08752 9 5.50014 9C5.91258 9 6.26566 8.85315 6.5594 8.55944C6.85313 8.26554 7 7.9124 7 7.5C7 7.0876 6.85313 6.73446 6.5594 6.44056C6.26566 6.14685 5.91258 6 5.50014 6Z" fill="#5C89FF"/>
</g>
</svg>
