<svg xmlns="http://www.w3.org/2000/svg" width="20" height="20" fill="none" viewBox="0 0 20 20">
  <path fill="#000" fill-rule="evenodd" d="M10 17a6.98 6.98 0 0 0 5.05-2.152 9.805 9.805 0 0 0-.991-.667C13.044 13.584 11.632 13 10 13c-1.632 0-3.043.584-4.059 1.181-.399.235-.733.47-.99.667A6.98 6.98 0 0 0 10 17Zm4.566-3.681c.455.268.834.536 1.124.76a7 7 0 1 0-11.38 0c.29-.224.669-.492 1.124-.76C6.544 12.666 8.132 12 10 12c1.868 0 3.457.666 4.566 1.319ZM10 18a8 8 0 1 0 0-16 8 8 0 0 0 0 16Zm2-10a2 2 0 1 1-4 0 2 2 0 0 1 4 0Zm1 0a3 3 0 1 1-6 0 3 3 0 0 1 6 0Z" clip-rule="evenodd"/>
</svg>
