<svg width="60" height="60" viewBox="0 0 60 60" fill="none" xmlns="http://www.w3.org/2000/svg">
<mask id="mask0_696_1419" style="mask-type:alpha" maskUnits="userSpaceOnUse" x="0" y="0" width="60" height="60">
<rect width="60" height="60" fill="#D9D9D9"/>
</mask>
<g mask="url(#mask0_696_1419)">
<path d="M29 40.5625C26.1928 40.5625 23.991 39.0523 22.3946 37.407C20.7982 35.7616 20 33.5276 20 30.7048V16H22V30.773C22 32.9063 22.5977 34.5957 23.7931 35.8411C24.9885 37.0861 26.8764 38.25 29 38.25C31.1236 38.25 33.0115 37.0861 34.2069 35.8411C35.4023 34.5957 36 32.9063 36 30.773V16H38V30.7048C38 33.5276 37.2018 35.7616 35.6054 37.407C34.009 39.0523 31.8072 40.5625 29 40.5625Z" fill="#1C1B1F"/>
<path d="M16 46V44H42V46H16Z" fill="#1C1B1F"/>
</g>
</svg>
