<svg width="24" height="24" viewBox="0 0 24 24" fill="none" xmlns="http://www.w3.org/2000/svg">
<mask id="mask0_365_1938" style="mask-type:alpha" maskUnits="userSpaceOnUse" x="0" y="0" width="24" height="24">
<rect width="24" height="24" fill="#D9D9D9"/>
</mask>
<g mask="url(#mask0_365_1938)">
<path d="M19.9701 20C19.4068 20 18.9376 19.8251 18.5627 19.4752C18.1876 19.1252 18 18.6963 18 18.1885C18 17.8045 18.0922 17.4336 18.2767 17.0758C18.4612 16.7179 18.6996 16.3825 18.9919 16.0696L19.9701 15L21.0081 16.0696C21.2958 16.3825 21.533 16.7179 21.7197 17.0758C21.9066 17.4336 22 17.8045 22 18.1885C22 18.6963 21.8025 19.1252 21.4075 19.4752C21.0126 19.8251 20.5335 20 19.9701 20Z" fill="#5C89FF"/>
<path d="M9.4385 19.5385L4.2115 14.3115C4.05767 14.1561 3.94233 13.9852 3.8655 13.7987C3.7885 13.6124 3.75 13.4192 3.75 13.2192C3.75 13.0192 3.7885 12.8269 3.8655 12.6422C3.94233 12.4577 4.05767 12.2885 4.2115 12.1345L9.76925 6.58271L6.8885 3.77871L7.66925 2.98071L16.825 12.1552C16.9775 12.308 17.0913 12.4772 17.1663 12.6627C17.2413 12.848 17.2788 13.041 17.2788 13.2417C17.2788 13.4425 17.2413 13.6356 17.1663 13.821C17.0913 14.0063 16.9768 14.1762 16.823 14.3307L11.6155 19.5385C11.4615 19.6923 11.2923 19.8076 11.1077 19.8845C10.9231 19.9615 10.7308 20 10.5308 20C10.3308 20 10.1376 19.9615 9.95125 19.8845C9.76475 19.8076 9.59383 19.6923 9.4385 19.5385ZM10.5173 7.33071L5.052 12.7962C4.975 12.873 4.89844 12.9844 4.89844 12.9844H16.1484C16.1484 12.9844 16.0596 12.873 15.9827 12.7962L10.5173 7.33071Z" fill="#1C1B1F"/>
<path d="M4.2115 14.3115L9.4385 19.5385C9.59383 19.6923 9.76475 19.8076 9.95125 19.8845C10.1376 19.9615 10.3308 20 10.5308 20C10.7308 20 10.9231 19.9615 11.1077 19.8845C11.2923 19.8076 11.4615 19.6923 11.6155 19.5385L16.823 14.3307C16.9768 14.1762 17.0913 14.0063 17.1663 13.821C17.2413 13.6356 17.2788 13.4425 17.2788 13.2417C17.2788 13.1599 17.2725 13.0793 17.26 13H3.76587C3.75529 13.072 3.75 13.1451 3.75 13.2192C3.75 13.4192 3.7885 13.6124 3.8655 13.7987C3.94233 13.9852 4.05767 14.1561 4.2115 14.3115Z" fill="#5C89FF"/>
<path d="M7.6885 3L7.66925 2.98071L7.65038 3H7.6885Z" fill="#5C89FF"/>
</g>
</svg>
