<svg width="60" height="60" viewBox="0 0 60 60" fill="none" xmlns="http://www.w3.org/2000/svg">
<mask id="mask0_695_1312" style="mask-type:alpha" maskUnits="userSpaceOnUse" x="0" y="0" width="60" height="60">
<rect width="60" height="60" fill="#D9D9D9"/>
</mask>
<g mask="url(#mask0_695_1312)">
<path d="M32.7845 32L28.9575 35.827L30.373 37.2425L36.6155 31L30.373 24.7575L28.9575 26.173L32.7845 30H22V32H32.7845ZM15.231 44C14.3103 44 13.5417 43.6917 12.925 43.075C12.3083 42.4583 12 41.6897 12 40.769V17.231C12 16.3103 12.3083 15.5417 12.925 14.925C13.5417 14.3083 14.3103 14 15.231 14H25.1925L29.1925 18H44.769C45.6897 18 46.4583 18.3083 47.075 18.925C47.6917 19.5417 48 20.3103 48 21.231V40.769C48 41.6897 47.6917 42.4583 47.075 43.075C46.4583 43.6917 45.6897 44 44.769 44H15.231ZM15.231 42H44.769C45.128 42 45.423 41.8847 45.654 41.654C45.8847 41.423 46 41.128 46 40.769V21.231C46 20.872 45.8847 20.577 45.654 20.346C45.423 20.1153 45.128 20 44.769 20H28.3885L24.3885 16H15.231C14.872 16 14.577 16.1153 14.346 16.346C14.1153 16.577 14 16.872 14 17.231V40.769C14 41.128 14.1153 41.423 14.346 41.654C14.577 41.8847 14.872 42 15.231 42Z" fill="#1C1B1F"/>
</g>
</svg>
