<svg xmlns="http://www.w3.org/2000/svg" width="20" height="20" fill="none" viewBox="0 0 20 20">
  <path fill="#000" d="M9.51 12H5.44l-1.25 3H3L7 5h1l4 10h-1.22l-1.27-3Zm-3.65-1h3.29L7.5 6.5 5.86 11ZM17 15l-1-.006v-.495c-.5.5-1 .5-1.388.5-.505 0-.9-.15-1.187-.453-.283-.302-.425-.703-.425-1.203 0-1.242.5-1.844 1.671-2.103L16 11c0-.974-.438-1.228-.854-1.228-.61 0-1.652.228-1.652.228v-.463A2.87 2.87 0 0 1 15.215 9C16.405 9 17 9.712 17 11.138v3.861Zm-1-3-1.032.156c-.376.06-.66.166-.85.32-.136.108-.287.415-.287.8 0 .28.087.509.262.688.178.175.413.263.707.263.402 0 .733-.159.994-.476.263-.32.206-.692.206-1.18v-.572Z"/>
</svg>
