<svg width="24" height="24" viewBox="0 0 24 24" fill="none" xmlns="http://www.w3.org/2000/svg">
<mask id="mask0_365_2339" style="mask-type:alpha" maskUnits="userSpaceOnUse" x="0" y="0" width="24" height="24">
<rect width="24" height="24" fill="#D9D9D9"/>
</mask>
<g mask="url(#mask0_365_2339)">
<path d="M3 18.9999V17.5C3 17.0089 3.12017 16.5866 3.3605 16.2332C3.60083 15.8799 3.92383 15.5976 4.3295 15.3861C5.197 14.9491 6.05825 14.6007 6.91325 14.341C7.76842 14.0812 8.79733 13.9513 10 13.9513C11.2025 13.9513 12.2313 14.0812 13.0865 14.341C13.9417 14.6007 14.8029 14.9491 15.6702 15.3861C16.0759 15.5976 16.3989 15.8799 16.6393 16.2332C16.8798 16.5866 17 17.0089 17 17.5V18.9999H3ZM4 17.9999H16L16 17.5C16 17.2517 15.9413 17.0346 15.824 16.8487C15.7067 16.663 15.4961 16.4853 15.1922 16.3157C14.4461 15.8939 13.6595 15.5707 12.8325 15.3462C12.0057 15.1217 11.0615 15.0094 10 15.0094C8.93833 15.0094 7.99408 15.1217 7.16725 15.3462C6.34025 15.5707 5.55367 15.8939 4.8075 16.3157C4.50367 16.4853 4.29308 16.663 4.17575 16.8487C4.05858 17.0346 4 17.2517 4 17.5L4 17.9999Z" fill="#1C1B1F"/>
<path d="M10 12C9.175 12 8.46875 11.6573 7.88125 10.9719C7.29375 10.2865 7 9.4625 7 8.5C7 7.5375 7.29375 6.71354 7.88125 6.02813C8.46875 5.34271 9.175 5 10 5C10.825 5 11.5312 5.34271 12.1187 6.02813C12.7062 6.71354 13 7.5375 13 8.5C13 9.4625 12.7062 10.2865 12.1187 10.9719C11.5312 11.6573 10.825 12 10 12ZM10 10.8333C10.55 10.8333 11.0208 10.6049 11.4125 10.1479C11.8042 9.69097 12 9.14167 12 8.5C12 7.85833 11.8042 7.30903 11.4125 6.85208C11.0208 6.39514 10.55 6.16667 10 6.16667C9.45 6.16667 8.97917 6.39514 8.5875 6.85208C8.19583 7.30903 8 7.85833 8 8.5C8 9.14167 8.19583 9.69097 8.5875 10.1479C8.97917 10.6049 9.45 10.8333 10 10.8333Z" fill="#1C1B1F"/>
<path d="M18.2989 19V17.1831C18.2989 16.5611 18.186 15.9739 17.9602 15.4216C17.7346 14.8693 17.4145 14.3954 17 14C17.4724 14.1073 17.9276 14.2563 18.3655 14.4468C18.8032 14.6376 19.2362 14.8519 19.6643 15.0899C20.0813 15.3239 20.4081 15.6233 20.645 15.9881C20.8817 16.3531 21 16.7514 21 17.1831V19H18.2989Z" fill="#1C1B1F"/>
<path d="M17 8.5C17 9.4625 16.6464 10.2865 15.9393 10.9719C15.2322 11.6573 14.3821 12 13.3891 12C13.3381 12 13.2732 11.9945 13.1944 11.9834C13.1158 11.9721 13.051 11.9598 13 11.9463C13.4078 11.4622 13.7212 10.9251 13.94 10.3352C14.1591 9.74522 14.2686 9.13262 14.2686 8.49737C14.2686 7.86212 14.154 7.25507 13.9247 6.67621C13.6956 6.09735 13.3874 5.5566 13 5.05396C13.0648 5.0316 13.1296 5.01701 13.1944 5.01021C13.2592 5.0034 13.3241 5 13.3891 5C14.3821 5 15.2322 5.34271 15.9393 6.02813C16.6464 6.71354 17 7.5375 17 8.5Z" fill="#1C1B1F"/>
</g>
</svg>
