<svg width="24" height="24" viewBox="0 0 24 24" fill="none" xmlns="http://www.w3.org/2000/svg">
<mask id="mask0_364_1697" style="mask-type:alpha" maskUnits="userSpaceOnUse" x="0" y="0" width="24" height="24">
<rect width="24" height="24" fill="#D9D9D9"/>
</mask>
<g mask="url(#mask0_364_1697)">
<path d="M9 20L5.6245 20C5.171 20 4.78683 19.8419 4.472 19.5255C4.15733 19.2092 4 18.8289 4 18.3845V5.61552C4 5.17119 4.15817 4.79085 4.4745 4.47452C4.79083 4.15819 5.17117 4.00002 5.6155 4.00002L9 4V5L5.6155 5.00002C5.436 5.00002 5.2885 5.05769 5.173 5.17302C5.05767 5.28852 5 5.43602 5 5.61552V18.3845C5 18.564 5.05767 18.7115 5.173 18.827C5.2885 18.9424 5.436 19 5.6155 19L9 19V20ZM11 22V2H12V22H11Z" fill="#1C1B1F"/>
<path d="M18 19H19V20H18V19Z" fill="#1C1B1F"/>
<path d="M18 4H19V5H18V4Z" fill="#1C1B1F"/>
<path d="M14 19H15V20H14V19Z" fill="#1C1B1F"/>
<path d="M14 4H15V5H14V4Z" fill="#1C1B1F"/>
<path d="M18 7H19V8H18V7Z" fill="#1C1B1F"/>
<path d="M18 10H19V11H18V10Z" fill="#1C1B1F"/>
<path d="M18 13H19V14H18V13Z" fill="#1C1B1F"/>
<path d="M18 16H19V17H18V16Z" fill="#1C1B1F"/>
</g>
</svg>
