<svg width="20" height="20" viewBox="0 0 20 20" fill="none" xmlns="http://www.w3.org/2000/svg">
<path fill-rule="evenodd" clip-rule="evenodd" d="M15.9142 2.49985L16.5 3.08564C17.281 3.86669 17.281 5.13301 16.5 5.91406L9.91421 12.4998C9.29313 13.1209 8.36518 13.2481 7.6184 12.8815L6.5 13.9998H3.5L6.1184 11.3815C5.75171 10.6347 5.87891 9.70672 6.5 9.08564L13.0858 2.49985C13.8668 1.7188 15.1332 1.7188 15.9142 2.49985ZM15.2071 3.20696C14.8166 2.81643 14.1834 2.81643 13.7929 3.20696L13.3536 3.6463L15.3536 5.6463L15.7929 5.20696C16.1834 4.81643 16.1834 4.18327 15.7929 3.79274L15.2071 3.20696ZM7.20711 9.79274L12.6464 4.3534L14.6464 6.3534L9.20711 11.7927C8.81658 12.1833 8.18342 12.1833 7.79289 11.7927L7.20711 11.207C6.81658 10.8164 6.81658 10.1833 7.20711 9.79274Z" fill="black"/>
</svg>
