<svg width="60" height="60" viewBox="0 0 60 60" fill="none" xmlns="http://www.w3.org/2000/svg">
<mask id="mask0_696_1332" style="mask-type:alpha" maskUnits="userSpaceOnUse" x="0" y="0" width="60" height="60">
<rect width="60" height="60" fill="#D9D9D9"/>
</mask>
<g mask="url(#mask0_696_1332)">
<path d="M26.649 36.0064C25.9957 37.145 25.1744 37.9383 24.185 38.3863C23.1957 38.8157 22.2157 39.0303 21.245 39.0303C19.957 39.0303 18.8837 38.7223 18.025 38.1063C17.185 37.4903 16.597 36.6317 16.261 35.5304C15.9437 34.4104 15.9157 33.113 16.177 31.6384L16.289 31.0223C16.513 29.753 16.9424 28.6424 17.577 27.6904C18.2304 26.7197 19.0424 25.9637 20.013 25.4224C21.0024 24.881 22.113 24.6104 23.345 24.6104C24.297 24.6104 25.0997 24.769 25.753 25.0863C26.4064 25.4037 26.901 25.8237 27.237 26.3464C27.573 26.8504 27.741 27.3917 27.741 27.9703C27.741 28.9037 27.405 29.7063 26.733 30.3783C26.0797 31.0503 25.165 31.5823 23.989 31.9743C22.8317 32.3477 21.4877 32.5903 19.957 32.7023L18.501 32.8143C18.2584 34.5877 18.3797 35.9223 18.865 36.8183C19.369 37.6957 20.1904 38.1343 21.329 38.1343C21.777 38.1343 22.2624 38.0503 22.785 37.8823C23.3077 37.7143 23.8024 37.425 24.269 37.0143C24.7357 36.6037 25.0904 36.0343 25.333 35.3063L26.649 36.0064ZM18.837 30.6583L18.641 31.9183L19.929 31.8343C21.4597 31.741 22.6357 31.489 23.457 31.0783C24.2784 30.6677 24.8477 30.173 25.165 29.5944C25.4824 29.0157 25.641 28.437 25.641 27.8584C25.641 27.1304 25.4264 26.561 24.997 26.1504C24.5864 25.721 24.0077 25.5064 23.261 25.5064C22.2717 25.5064 21.3664 25.917 20.545 26.7383C19.7237 27.541 19.1544 28.8477 18.837 30.6583Z" fill="black"/>
<path d="M31 16H29L23 20V22L29 18H31L37 22V20L31 16Z" fill="#1C1B1F"/>
<path d="M37.6678 33.7383C37.0705 34.541 36.5385 35.2503 36.0718 35.8663C35.6051 36.4637 35.1665 37.0143 34.7558 37.5183C34.3451 38.0223 33.9065 38.5264 33.4398 39.0303L31.5078 37.6863C32.7025 36.865 33.7665 36.0623 34.6998 35.2783C35.6331 34.4943 36.5011 33.701 37.3038 32.8984L38.1158 32.0864L36.0998 26.9904C35.8945 26.4304 35.7265 26.1037 35.5958 26.0104C35.4838 25.8983 35.2878 25.8237 35.0078 25.7864L33.5798 25.6463L33.7198 24.8904H37.6118L39.7678 30.4064L40.1318 29.9024C40.7291 29.0997 41.2611 28.3997 41.7278 27.8023C42.1945 27.205 42.6331 26.6544 43.0438 26.1504C43.4731 25.6277 43.9211 25.1144 44.3878 24.6104L46.3198 25.9824C45.1251 26.8037 44.0518 27.6063 43.0998 28.3903C42.1665 29.1557 41.2985 29.949 40.4958 30.7703L40.0758 31.1904L42.2318 36.6503C42.4371 37.2103 42.5958 37.5463 42.7078 37.6583C42.8385 37.7517 43.0438 37.817 43.3238 37.8543L44.7238 38.0223L44.6118 38.7503H40.7198L38.3678 32.7583L37.6678 33.7383Z" fill="black"/>
</g>
</svg>
