<svg width="20" height="20" viewBox="0 0 20 20" fill="none" xmlns="http://www.w3.org/2000/svg">
<path d="M4.60728 13.6108L6.3042 3.5H18V4.5H7.15035L5.03856 17.0828L4.04966 17.0647L3.37921 11.9286H2V10.9286H4.25716L4.60728 13.6108Z" fill="black"/>
<path d="M12.3516 9.74219C12.2214 9.47135 12.0286 9.20052 11.7734 8.92969L9.6875 9.29688V9.57812C9.84375 9.56771 9.98177 9.5625 10.1016 9.5625C10.4766 9.5625 10.7604 9.63281 10.9531 9.77344C11.1458 9.91406 11.3021 10.1536 11.4219 10.4922C11.4479 10.5651 11.6224 11.2344 11.9453 12.5C11.8151 12.7917 11.5391 13.2656 11.1172 13.9219C10.6953 14.5781 10.362 15.0052 10.1172 15.2031C10.0182 15.2865 9.9375 15.3281 9.875 15.3281C9.80208 15.3281 9.69792 15.2682 9.5625 15.1484C9.375 14.9818 9.19792 14.8984 9.03125 14.8984C8.86458 14.8984 8.72396 14.9557 8.60938 15.0703C8.49479 15.1849 8.4375 15.3281 8.4375 15.5C8.4375 15.6927 8.5 15.8464 8.625 15.9609C8.79688 16.112 8.98698 16.1875 9.19531 16.1875C9.49219 16.1875 9.79948 16.0573 10.1172 15.7969C10.6068 15.3906 11.2578 14.4818 12.0703 13.0703C12.4141 14.6172 12.6406 15.4922 12.75 15.6953C12.9219 16.0234 13.1536 16.1875 13.4453 16.1875C13.6432 16.1875 13.8854 16.0729 14.1719 15.8438C14.6771 15.4375 15.0938 14.9271 15.4219 14.3125L15.1484 14.1719C14.9453 14.5573 14.7005 14.8698 14.4141 15.1094C14.2682 15.2292 14.1406 15.2891 14.0312 15.2891C13.9635 15.2891 13.8958 15.25 13.8281 15.1719C13.7604 15.0885 13.6771 14.8411 13.5781 14.4297L12.9375 11.7422C13.3854 10.9661 13.7708 10.4427 14.0938 10.1719C14.2656 10.026 14.4141 9.95312 14.5391 9.95312C14.6224 9.95312 14.7865 9.99479 15.0312 10.0781C15.1562 10.125 15.2734 10.1484 15.3828 10.1484C15.5703 10.1484 15.737 10.0833 15.8828 9.95312C15.9609 9.88021 16 9.74479 16 9.54688C16 9.375 15.9323 9.22917 15.7969 9.10938C15.6667 8.98958 15.4896 8.92969 15.2656 8.92969C15.1146 8.92969 14.9766 8.95573 14.8516 9.00781C14.6536 9.09115 14.4245 9.2474 14.1641 9.47656C13.9036 9.70052 13.6823 9.9375 13.5 10.1875L12.8125 11.2188C12.599 10.4219 12.4453 9.92969 12.3516 9.74219Z" fill="black"/>
</svg>
