<svg width="24" height="24" viewBox="0 0 24 24" fill="none" xmlns="http://www.w3.org/2000/svg">
<mask id="mask0_365_1868" style="mask-type:alpha" maskUnits="userSpaceOnUse" x="0" y="0" width="24" height="24">
<rect width="24" height="24" fill="#D9D9D9"/>
</mask>
<g mask="url(#mask0_365_1868)">
<path d="M9.00375 14.5C7.33325 14.5 5.915 13.9183 4.749 12.7548C3.583 11.5911 3 10.1741 3 8.50375C3 6.83325 3.58175 5.415 4.74525 4.249C5.90892 3.083 7.32592 2.5 8.99625 2.5C10.6667 2.5 12.085 3.08175 13.251 4.24525C14.417 5.40892 15 6.82592 15 8.49625C15 10.1667 14.4183 11.585 13.2548 12.751C12.0911 13.917 10.6741 14.5 9.00375 14.5ZM9 13.5C10.3833 13.5 11.5625 13.0125 12.5375 12.0375C13.5125 11.0625 14 9.88333 14 8.5C14 7.11667 13.5125 5.9375 12.5375 4.9625C11.5625 3.9875 10.3833 3.5 9 3.5C7.61667 3.5 6.4375 3.9875 5.4625 4.9625C4.4875 5.9375 4 7.11667 4 8.5C4 9.88333 4.4875 11.0625 5.4625 12.0375C6.4375 13.0125 7.61667 13.5 9 13.5Z" fill="#1C1B1F"/>
<path d="M9 18C9.07683 18.0038 9.15183 18.0067 9.225 18.0085C9.298 18.0105 9.37683 18.0115 9.4615 18.0115C9.56017 18.0115 9.65217 18.0105 9.7375 18.0085C9.82267 18.0067 9.91017 18.0038 10 18V19.3845C10 19.564 10.0577 19.7115 10.173 19.827C10.2885 19.9423 10.4359 20 10.6153 20H19.3845C19.564 20 19.7115 19.9423 19.827 19.827C19.9423 19.7115 20 19.564 20 19.3845V10.6152C20 10.4359 19.9423 10.2885 19.827 10.173C19.7115 10.0577 19.564 10 19.3845 10H17.9885C17.9923 9.91017 17.9952 9.82267 17.997 9.7375C17.999 9.65217 18 9.56017 18 9.4615C18 9.37683 17.999 9.298 17.997 9.225C17.9952 9.15183 17.9923 9.07683 17.9885 9H19.3845C19.8288 9 20.2092 9.15817 20.5255 9.4745C20.8418 9.79083 21 10.1711 21 10.6152V19.3845C21 19.8288 20.8418 20.2092 20.5255 20.5255C20.2092 20.8418 19.8288 21 19.3845 21H10.6153C10.1711 21 9.79083 20.8418 9.4745 20.5255C9.15817 20.2092 9 19.8288 9 19.3845V18Z" fill="#5C89FF"/>
</g>
</svg>
