<svg width="20" height="20" viewBox="0 0 20 20" fill="none" xmlns="http://www.w3.org/2000/svg">
<path fill-rule="evenodd" clip-rule="evenodd" d="M10 2C12.2091 2 14 3.34315 14 5V7C15.1046 7 16 7.89543 16 9V15C16 16.1046 15.1046 17 14 17H6C4.89543 17 4 16.1046 4 15V9C4 7.89543 4.89543 7 6 7V5C6 3.34315 7.79086 2 10 2ZM7 5V7H13V5C13 4.5569 12.7629 4.0795 12.2284 3.67868C11.6937 3.27762 10.9091 3 10 3C9.09088 3 8.30631 3.27762 7.77157 3.67868C7.23714 4.0795 7 4.5569 7 5ZM13 8H14C14.5523 8 15 8.44772 15 9V15C15 15.5523 14.5523 16 14 16H6C5.44772 16 5 15.5523 5 15V9C5 8.44772 5.44772 8 6 8H7H13ZM12 11C12 11.7403 11.5978 12.3866 11 12.7324V15H9V12.7324C8.4022 12.3866 8 11.7403 8 11C8 9.89543 8.89543 9 10 9C11.1046 9 12 9.89543 12 11Z" fill="black"/>
</svg>
