<svg xmlns="http://www.w3.org/2000/svg" width="20" height="20" fill="none" viewBox="0 0 20 20">
  <path fill="#000" fill-rule="evenodd" d="M5 7V6H4v1h1Zm0 1v1H4V8h1Zm2 2v1H6v-1h1Zm-2 7v-1H4v1h1Zm2 0v-1H6v1h1Zm2-1v1H8v-1h1Zm2 1v-1h-1v1h1Zm2-1v1h-1v-1h1Zm2 1v-1h-1v1h1Zm-6-6v-1H8v1h1Zm4-1v1h-1v-1h1Zm2 1v-1h-1v1h1Zm2 5v1h-1v-1h1ZM5 15v-1H4v1h1Zm0-3v1H4v-1h1Zm0-1v-1H4v1h1Zm12 3v1h-1v-1h1Zm0-1v-1h-1v1h1Zm0-3v1h-1v-1h1Zm0-1V8h-1v1h1Zm0-3v1h-1V6h1Zm-6 9v-1h-1v1h1Zm0-3v1h-1v-1h1Zm0-1v-1h-1v1h1Zm0-3v1h-1V8h1Zm0-1V6h-1v1h1Z" clip-rule="evenodd" opacity=".4"/>
  <path fill="#000" d="M17 4v1H4V4h13Z"/>
</svg>
