<svg width="20" height="20" viewBox="0 0 20 20" fill="none" xmlns="http://www.w3.org/2000/svg">
    <path d="M8.002 5.402a.602.602 0 0 1 .997 0l.045.082 1.74 3.73 3.733 1.743.081.045a.6.6 0 0 1 0 .997l-.08.045-3.733 1.741-1.741 3.733a.6.6 0 0 1-1.042.08l-.045-.08-1.744-3.734-3.73-1.74a.6.6 0 0 1 0-1.087l3.731-1.742 1.743-3.731zM7.059 9.77a.6.6 0 0 1-.2.237l-.09.053-3.088 1.44 3.088 1.442.09.051q.087.06.147.148l.053.09 1.44 3.087 1.442-3.087.052-.09a.6.6 0 0 1 .237-.2l3.087-1.44-3.087-1.441a.6.6 0 0 1-.237-.2l-.052-.09L8.5 6.682zm6.943-7.368a.602.602 0 0 1 .997 0l.044.082.788 1.686 1.686.787.081.045a.6.6 0 0 1 0 .997l-.08.045-1.688.786-.787 1.688a.6.6 0 0 1-1.041.08l-.045-.08-.788-1.687-1.686-.787a.6.6 0 0 1 0-1.087l1.685-.788.789-1.685zm.011 2.323a.6.6 0 0 1-.198.237l-.09.052-1.044.486 1.043.487.091.052a.6.6 0 0 1 .146.147l.052.09.487 1.043.486-1.042.053-.091a.6.6 0 0 1 .237-.2l1.042-.486-1.042-.486a.6.6 0 0 1-.237-.198l-.053-.091-.486-1.043z" fill="#000"/>
</svg>
