<svg width="60" height="60" viewBox="0 0 60 60" fill="none" xmlns="http://www.w3.org/2000/svg">
<mask id="mask0_696_1414" style="mask-type:alpha" maskUnits="userSpaceOnUse" x="0" y="0" width="60" height="60">
<rect width="60" height="60" transform="matrix(-4.37114e-08 -1 -1 4.37114e-08 60 60)" fill="#D9D9D9"/>
</mask>
<g mask="url(#mask0_696_1414)">
<path d="M16 48L18 48L18 19.8776L21.4602 23.0153L23 21.5826L16.9997 16L11 21.5826L12.5398 23.0153L16 19.8776L16 48Z" fill="#1C1B1F"/>
<path d="M48 22L26 30L26 32.0156L48 40L48 37.9082L42 35.7933L42 26.2309L48 24.0918L48 22ZM40 26.888L40 35.112L28.8281 31.1122L28.8281 30.9062L40 26.888Z" fill="#1C1B1F"/>
</g>
</svg>
