<svg width="24" height="24" viewBox="0 0 24 24" fill="none" xmlns="http://www.w3.org/2000/svg">
<mask id="mask0_364_1676" style="mask-type:alpha" maskUnits="userSpaceOnUse" x="0" y="0" width="24" height="24">
<rect width="24" height="24" fill="#D9D9D9"/>
</mask>
<g mask="url(#mask0_364_1676)">
<path d="M7.05269 19.7676L6.21563 18.9307L5.39411 19.7521C5.23099 19.9153 5.03854 19.998 4.81676 20C4.59498 20.0018 4.40437 19.9192 4.24493 19.7521C4.08164 19.5888 4 19.3973 4 19.1776C4 18.9577 4.08164 18.7661 4.24493 18.6029L5.06645 17.7815L4.22938 16.9333L16.9222 4.24288C17.0842 4.08096 17.2687 4 17.4758 4C17.6827 4 17.8671 4.08096 18.029 4.24288L19.7571 5.97033C19.919 6.13241 20 6.31689 20 6.52375C20 6.73078 19.919 6.91526 19.7571 7.07718L7.05269 19.7676ZM11.326 11.2687L5.64881 16.9333L7.06422 18.3485L12.7299 12.6723L11.326 11.2687Z" fill="#1C1B1F"/>
</g>
</svg>
