<svg width="24" height="24" viewBox="0 0 24 24" fill="none" xmlns="http://www.w3.org/2000/svg">
<mask id="mask0_364_1602" style="mask-type:alpha" maskUnits="userSpaceOnUse" x="0" y="0" width="24" height="24">
<rect width="24" height="24" fill="#D9D9D9"/>
</mask>
<g mask="url(#mask0_364_1602)">
<path d="M11.9615 21C10.7358 21 9.57883 20.7632 8.4905 20.2895C7.402 19.8157 6.45167 19.1727 5.6395 18.3605C4.82733 17.5483 4.18433 16.5948 3.7105 15.5C3.23683 14.4052 3 13.2385 3 12C3 10.7448 3.242 9.56983 3.726 8.475C4.21 7.38017 4.86958 6.42758 5.70475 5.61725C6.54008 4.80708 7.51992 4.16833 8.64425 3.701C9.76858 3.23367 10.9667 3 12.2385 3C13.4052 3 14.5161 3.19708 15.5712 3.59125C16.6263 3.98558 17.5548 4.53242 18.3568 5.23175C19.1586 5.93108 19.7996 6.76442 20.2798 7.73175C20.7599 8.69908 21 9.75392 21 10.8962C21 12.4411 20.5545 13.6779 19.6635 14.6067C18.7725 15.5356 17.5513 16 16 16H14.227C13.8077 16 13.4567 16.1442 13.174 16.4327C12.8913 16.7212 12.75 17.0693 12.75 17.477C12.75 17.8948 12.875 18.2496 13.125 18.5413C13.375 18.8329 13.5 19.1692 13.5 19.55C13.5 20.0372 13.3638 20.4007 13.0913 20.6405C12.8189 20.8802 12.4423 21 11.9615 21ZM6.5 12.5C6.7795 12.5 7.016 12.4032 7.2095 12.2095C7.40317 12.016 7.5 11.7795 7.5 11.5C7.5 11.2205 7.40317 10.984 7.2095 10.7905C7.016 10.5968 6.7795 10.5 6.5 10.5C6.2205 10.5 5.984 10.5968 5.7905 10.7905C5.59683 10.984 5.5 11.2205 5.5 11.5C5.5 11.7795 5.59683 12.016 5.7905 12.2095C5.984 12.4032 6.2205 12.5 6.5 12.5ZM9.5 8.5C9.7795 8.5 10.016 8.40317 10.2095 8.2095C10.4032 8.016 10.5 7.7795 10.5 7.5C10.5 7.2205 10.4032 6.984 10.2095 6.7905C10.016 6.59683 9.7795 6.5 9.5 6.5C9.2205 6.5 8.984 6.59683 8.7905 6.7905C8.59683 6.984 8.5 7.2205 8.5 7.5C8.5 7.7795 8.59683 8.016 8.7905 8.2095C8.984 8.40317 9.2205 8.5 9.5 8.5ZM14.5 8.5C14.7795 8.5 15.016 8.40317 15.2095 8.2095C15.4032 8.016 15.5 7.7795 15.5 7.5C15.5 7.2205 15.4032 6.984 15.2095 6.7905C15.016 6.59683 14.7795 6.5 14.5 6.5C14.2205 6.5 13.984 6.59683 13.7905 6.7905C13.5968 6.984 13.5 7.2205 13.5 7.5C13.5 7.7795 13.5968 8.016 13.7905 8.2095C13.984 8.40317 14.2205 8.5 14.5 8.5ZM17.5 12.5C17.7795 12.5 18.016 12.4032 18.2095 12.2095C18.4032 12.016 18.5 11.7795 18.5 11.5C18.5 11.2205 18.4032 10.984 18.2095 10.7905C18.016 10.5968 17.7795 10.5 17.5 10.5C17.2205 10.5 16.984 10.5968 16.7905 10.7905C16.5968 10.984 16.5 11.2205 16.5 11.5C16.5 11.7795 16.5968 12.016 16.7905 12.2095C16.984 12.4032 17.2205 12.5 17.5 12.5ZM11.9615 20C12.1372 20 12.2708 19.9615 12.3625 19.8845C12.4542 19.8077 12.5 19.6962 12.5 19.55C12.5 19.3167 12.375 19.0673 12.125 18.802C11.875 18.5365 11.75 18.0999 11.75 17.4923C11.75 16.7666 11.9917 16.1698 12.475 15.702C12.9583 15.234 13.55 15 14.25 15H16C17.2538 15 18.234 14.6311 18.9405 13.8933C19.6468 13.1554 20 12.1564 20 10.8962C20 8.86675 19.2196 7.21 17.6587 5.926C16.0977 4.642 14.291 4 12.2385 4C9.93333 4 7.984 4.775 6.3905 6.325C4.79683 7.875 4 9.76667 4 12C4 14.2167 4.77917 16.1042 6.3375 17.6625C7.89583 19.2208 9.7705 20 11.9615 20Z" fill="#1C1B1F"/>
</g>
</svg>
