<svg width="20" height="20" fill="none" xmlns="http://www.w3.org/2000/svg"><path fill-rule="evenodd" clip-rule="evenodd" d="M10.07 13a3 3 0 1 0 0-6 3 3 0 0 0 0 6zm2-3a2 2 0 1 1-4 0 2 2 0 0 1 4 0z" fill="#000"/><path fill-rule="evenodd" clip-rule="evenodd" d="m15.483 14.732 1.447-2.431c.112-.198.09-.351-.067-.46l-1.514-1.15a5.19 5.19 0 0 0 .034-.691c0-.307-.012-.537-.034-.69l1.514-1.15c.157-.11.18-.263.067-.46l-1.447-2.432c-.09-.154-.235-.198-.437-.132l-1.783.69a5.537 5.537 0 0 0-1.21-.69l-.27-1.84c-.045-.197-.157-.296-.336-.296H8.553c-.179 0-.291.099-.336.296l-.27 1.84c-.335.132-.74.362-1.21.69l-1.783-.69c-.202-.066-.348-.022-.437.132L3.07 7.7c-.112.197-.09.35.067.46l1.514 1.15a5.188 5.188 0 0 0-.033.69c0 .307.01.537.033.69l-1.514 1.15c-.157.11-.18.263-.067.46l1.447 2.432c.09.154.235.198.437.132l1.783-.69c.381.285.785.515 1.21.69l.27 1.84c.045.197.157.296.336.296h2.893c.18 0 .292-.099.337-.296l.27-1.84c.335-.132.74-.362 1.21-.69l1.783.69c.202.066.348.022.437-.132zm-1.124-4.187-.085.584 1.508 1.146-.871 1.464-1.784-.69-.436.305c-.44.306-.77.488-1.003.578l-.541.212L10.875 16h-1.75l-.27-1.844-.527-.217a4.54 4.54 0 0 1-.993-.566l-.443-.332-1.803.698-.87-1.464 1.507-1.146-.085-.584A4.377 4.377 0 0 1 5.618 10c0-.296.011-.466.023-.545l.085-.584-1.508-1.146.871-1.464 1.783.69.437-.305c.44-.306.77-.487 1.003-.578l.541-.212L9.125 4h1.75l.27 1.844.527.217c.346.142.676.33.993.566l.443.332 1.803-.698.87 1.464-1.507 1.146.085.584c.012.079.024.25.024.545 0 .296-.012.466-.024.545z" fill="#000"/></svg>