<svg width="24" height="24" viewBox="0 0 24 24" fill="none" xmlns="http://www.w3.org/2000/svg">
<mask id="mask0_365_2062" style="mask-type:alpha" maskUnits="userSpaceOnUse" x="0" y="0" width="24" height="24">
<rect width="24" height="24" fill="#D9D9D9"/>
</mask>
<g mask="url(#mask0_365_2062)">
<path d="M20 7.423V18.3845C20 18.8448 19.8458 19.2292 19.5375 19.5375C19.2292 19.8458 18.8448 20 18.3845 20H5.6155C5.15517 20 4.77083 19.8458 4.4625 19.5375C4.15417 19.2292 4 18.8448 4 18.3845V5.6155C4 5.15517 4.15417 4.77083 4.4625 4.4625C4.77083 4.15417 5.15517 4 5.6155 4H16.577L20 7.423ZM19 7.85L16.15 5H5.6155C5.436 5 5.2885 5.05767 5.173 5.173C5.05767 5.2885 5 5.436 5 5.6155V18.3845C5 18.564 5.05767 18.7115 5.173 18.827C5.2885 18.9423 5.436 19 5.6155 19H18.3845C18.564 19 18.7115 18.9423 18.827 18.827C18.9423 18.7115 19 18.564 19 18.3845V7.85ZM12 16.5385C12.5513 16.5385 13.0225 16.343 13.4135 15.952C13.8045 15.561 14 15.0898 14 14.5385C14 13.9872 13.8045 13.516 13.4135 13.125C13.0225 12.734 12.5513 12.5385 12 12.5385C11.4487 12.5385 10.9775 12.734 10.5865 13.125C10.1955 13.516 10 13.9872 10 14.5385C10 15.0898 10.1955 15.561 10.5865 15.952C10.9775 16.343 11.4487 16.5385 12 16.5385ZM7 10H14V7H7V10Z" fill="#1C1B1F"/>
</g>
</svg>
