<svg width="24" height="24" viewBox="0 0 24 24" fill="none" xmlns="http://www.w3.org/2000/svg">
<mask id="mask0_365_2327" style="mask-type:alpha" maskUnits="userSpaceOnUse" x="0" y="0" width="24" height="24">
<rect width="24" height="24" fill="#D9D9D9"/>
</mask>
<g mask="url(#mask0_365_2327)">
<path d="M7.03125 18.0001V17.0001H14.387C15.3951 17.0001 16.254 16.6444 16.9637 15.9329C17.6732 15.2214 18.0625 14.557 18.0625 13.5313C18.0625 12.5056 17.6797 11.7773 16.9702 11.0721C16.2605 10.3669 15.4016 10.0144 14.3935 10.0144L6.54931 10.0143L9.43144 12.9798L8.74353 13.6876L4.6875 9.51431L8.74353 5.34131L9.43144 6.04906L6.54931 9.01431L14.3935 9.01436C15.6658 9.01436 16.7527 9.46569 17.6542 10.3684C18.5557 11.2709 19.0345 12.2338 19.0345 13.5313C19.0345 14.8286 18.5492 15.7276 17.6477 16.6366C16.7462 17.5456 15.6593 18.0001 14.387 18.0001H7.03125Z" fill="#1C1B1F"/>
</g>
</svg>
