<svg width="60" height="60" viewBox="0 0 60 60" fill="none" xmlns="http://www.w3.org/2000/svg">
<mask id="mask0_696_1334" style="mask-type:alpha" maskUnits="userSpaceOnUse" x="0" y="0" width="60" height="60">
<rect width="60" height="60" fill="#D9D9D9"/>
</mask>
<g mask="url(#mask0_696_1334)">
<path d="M19.231 48C18.336 48 17.5737 47.6853 16.944 47.056C16.3147 46.4263 16 45.664 16 44.769V27.231C16 26.336 16.3147 25.5737 16.944 24.944C17.5737 24.3147 18.336 24 19.231 24H22V20C22 17.7717 22.7763 15.8813 24.329 14.329C25.8813 12.7763 27.7717 12 30 12C32.2283 12 34.1187 12.7763 35.671 14.329C37.2237 15.8813 38 17.7717 38 20V24H40.769C41.664 24 42.4263 24.3147 43.056 24.944C43.6853 25.5737 44 26.336 44 27.231V44.769C44 45.664 43.6853 46.4263 43.056 47.056C42.4263 47.6853 41.664 48 40.769 48H19.231ZM19.231 46H40.769C41.128 46 41.423 45.8847 41.654 45.654C41.8847 45.423 42 45.128 42 44.769V27.231C42 26.872 41.8847 26.577 41.654 26.346C41.423 26.1153 41.128 26 40.769 26H19.231C18.872 26 18.577 26.1153 18.346 26.346C18.1153 26.577 18 26.872 18 27.231V44.769C18 45.128 18.1153 45.423 18.346 45.654C18.577 45.8847 18.872 46 19.231 46ZM30 39C30.8437 39 31.5545 38.7108 32.1325 38.1325C32.7108 37.5545 33 36.8437 33 36C33 35.1563 32.7108 34.4455 32.1325 33.8675C31.5545 33.2892 30.8437 33 30 33C29.1563 33 28.4455 33.2892 27.8675 33.8675C27.2892 34.4455 27 35.1563 27 36C27 36.8437 27.2892 37.5545 27.8675 38.1325C28.4455 38.7108 29.1563 39 30 39ZM24 24H36V20C36 18.3333 35.4167 16.9167 34.25 15.75C33.0833 14.5833 31.6667 14 30 14C28.3333 14 26.9167 14.5833 25.75 15.75C24.5833 16.9167 24 18.3333 24 20V24Z" fill="#1C1B1F"/>
</g>
</svg>
