<svg width="20" height="20" viewBox="0 0 20 20" fill="none" xmlns="http://www.w3.org/2000/svg">
    <path d="m5.33 6.62.001.002-.707.707-2.022-2.022.707-.707 1.313 1.313 2.741-2.741.707.707L5.33 6.62Zm9.447.887a1 1 0 0 1 1.415 0l1.414 1.414a1 1 0 0 1 0 1.415L11.242 16.7l-2.065.413A1 1 0 0 1 8 15.936l.413-2.065 6.364-6.364Zm-.707 2.121 1.414 1.415L16.9 9.628l-1.415-1.414-1.414 1.414Zm.707 2.122-1.414-1.414-4.028 4.028-.354 1.768 1.768-.354 4.028-4.028ZM3 10h6v1H3v-1Zm0 3h4v1H3v-1Zm3 3H3v1h3v-1ZM9.908 3.2l-.707.707 1.596 1.596L9.221 7.08l.707.707 1.576-1.577L13.1 7.806l.707-.707-1.596-1.596 1.577-1.576-.707-.708-1.577 1.577L9.908 3.2Z" fill="#000"/>
</svg>
