<svg width="20" height="20" viewBox="0 0 20 20" fill="none" xmlns="http://www.w3.org/2000/svg">
<path fill-rule="evenodd" clip-rule="evenodd" d="M10 12C10.2915 12 10.5758 11.9688 10.8496 11.9096C10.6846 11.326 10.3905 10.7966 10 10.3542C9.60955 10.7966 9.31542 11.326 9.15043 11.9096C9.42423 11.9688 9.70848 12 10 12ZM8.20571 11.576C8.41495 10.8704 8.77568 10.2301 9.25021 9.69248C8.60911 9.25548 7.83439 9 7 9C6.70847 9 6.42423 9.03119 6.15043 9.09041C6.45787 10.1779 7.21375 11.0773 8.20571 11.576ZM10 8.99964C9.16434 8.37195 8.12561 8 7 8C6.65797 8 6.32395 8.03434 6.00122 8.09977C6.00041 8.06661 6 8.03335 6 8C6 5.79086 7.79086 4 10 4C12.2091 4 14 5.79086 14 8C14 8.03335 13.9996 8.06661 13.9988 8.09977C13.676 8.03434 13.342 8 13 8C11.8744 8 10.8357 8.37195 10 8.99964ZM14.9835 8.40888C14.9944 8.27403 15 8.13766 15 8C15 5.23858 12.7614 3 10 3C7.23858 3 5 5.23858 5 8C5 8.13766 5.00556 8.27403 5.01648 8.40888C3.24178 9.17665 2 10.9433 2 13C2 15.7614 4.23858 18 7 18C8.12561 18 9.16434 17.6281 10 17.0004C10.8357 17.6281 11.8744 18 13 18C15.7614 18 18 15.7614 18 13C18 10.9433 16.7582 9.17665 14.9835 8.40888ZM13.8496 9.09041C13.5758 9.03119 13.2915 9 13 9C12.1656 9 11.3909 9.25548 10.7498 9.69249C11.2243 10.2301 11.585 10.8704 11.7943 11.576C12.7862 11.0773 13.5421 10.178 13.8496 9.09041ZM14.7943 9.42404C16.1024 10.0817 17 11.436 17 13C17 15.2091 15.2091 17 13 17C12.1656 17 11.3909 16.7445 10.7498 16.3075C11.5279 15.4261 12 14.2682 12 13C12 12.8623 11.9944 12.726 11.9835 12.5911C13.3313 12.008 14.3717 10.8489 14.7943 9.42404ZM10 15.6458C10.6224 14.9407 11 14.0144 11 13C11 12.9666 10.9996 12.9334 10.9988 12.9002C10.676 12.9657 10.342 13 10 13C9.65797 13 9.32395 12.9657 9.00122 12.9002C9.00041 12.9334 9 12.9666 9 13C9 14.0144 9.37764 14.9407 10 15.6458ZM9.25021 16.3075C8.47213 15.4261 8 14.2682 8 13C8 12.8623 8.00556 12.726 8.01648 12.5911C6.66869 12.008 5.62828 10.8489 5.20571 9.42404C3.89758 10.0817 3 11.436 3 13C3 15.2091 4.79086 17 7 17C7.83439 17 8.60912 16.7445 9.25021 16.3075Z" fill="black"/>
</svg>
