<svg width="60" height="60" viewBox="0 0 60 60" fill="none" xmlns="http://www.w3.org/2000/svg">
<mask id="mask0_696_1378" style="mask-type:alpha" maskUnits="userSpaceOnUse" x="0" y="0" width="60" height="60">
<rect width="60" height="60" fill="#D9D9D9"/>
</mask>
<g mask="url(#mask0_696_1378)">
<path d="M46 20.846V42.769C46 43.6897 45.6917 44.4583 45.075 45.075C44.4583 45.6917 43.6897 46 42.769 46H17.231C16.3103 46 15.5417 45.6917 14.925 45.075C14.3083 44.4583 14 43.6897 14 42.769V17.231C14 16.3103 14.3083 15.5417 14.925 14.925C15.5417 14.3083 16.3103 14 17.231 14H39.154L46 20.846ZM44 21.7L38.3 16H17.231C16.872 16 16.577 16.1153 16.346 16.346C16.1153 16.577 16 16.872 16 17.231V42.769C16 43.128 16.1153 43.423 16.346 43.654C16.577 43.8847 16.872 44 17.231 44H42.769C43.128 44 43.423 43.8847 43.654 43.654C43.8847 43.423 44 43.128 44 42.769V21.7ZM30 39.077C31.1027 39.077 32.045 38.686 32.827 37.904C33.609 37.122 34 36.1797 34 35.077C34 33.9743 33.609 33.032 32.827 32.25C32.045 31.468 31.1027 31.077 30 31.077C28.8973 31.077 27.955 31.468 27.173 32.25C26.391 33.032 26 33.9743 26 35.077C26 36.1797 26.391 37.122 27.173 37.904C27.955 38.686 28.8973 39.077 30 39.077ZM20 26H34V20H20V26Z" fill="#1C1B1F"/>
</g>
</svg>
