<svg width="20" height="20" viewBox="0 0 20 20" fill="none" xmlns="http://www.w3.org/2000/svg">
<path fill-rule="evenodd" clip-rule="evenodd" d="M7.6463 6.35359L9.6463 8.35359L10.3534 7.64648L8.3534 5.64648L8.79274 5.20714C9.18327 4.81662 9.81643 4.81662 10.207 5.20714L12.7927 7.79293C13.1833 8.18346 13.1833 8.81662 12.7927 9.20714L8.20696 13.7929C7.81643 14.1835 7.18327 14.1835 6.79274 13.7929L4.20696 11.2071C3.81643 10.8166 3.81643 10.1835 4.20696 9.79293L7.6463 6.35359ZM6.93919 5.64648L3.49985 9.08582C2.7188 9.86687 2.7188 11.1332 3.49985 11.9143L6.08564 14.5C6.86668 15.2811 8.13301 15.2811 8.91406 14.5L13.4998 9.91425C14.2809 9.1332 14.2809 7.86687 13.4999 7.08582L10.9141 4.50004C10.133 3.71899 8.86668 3.71899 8.08564 4.50004L7.6463 4.93938L5.3534 2.64648L4.6463 3.35359L6.93919 5.64648ZM14.4998 15C15.3283 15 15.9998 14.3285 15.9998 13.5C15.9998 12.6716 14.4998 11 14.4998 11C14.4998 11 12.9998 12.6716 12.9998 13.5C12.9998 14.3285 13.6714 15 14.4998 15ZM4 17H16V18H4V17ZM3 16V19H17V16H3Z" fill="black"/>
</svg>
