<svg width="24" height="24" viewBox="0 0 24 24" fill="none" xmlns="http://www.w3.org/2000/svg">
<mask id="mask0_389_689" style="mask-type:alpha" maskUnits="userSpaceOnUse" x="0" y="0" width="24" height="24">
<rect width="24" height="24" fill="#D9D9D9"/>
</mask>
<g mask="url(#mask0_389_689)">
<path d="M17.3845 18H8.6155C8.15517 18 7.77083 17.8458 7.4625 17.5375C7.15417 17.2292 7 16.8448 7 16.3845V4.6155C7 4.15517 7.15417 3.77083 7.4625 3.4625C7.77083 3.15417 8.15517 3 8.6155 3H14.5L19 7.5V16.3845C19 16.8448 18.8458 17.2292 18.5375 17.5375C18.2292 17.8458 17.8448 18 17.3845 18ZM14 8V4H8.6155C8.4615 4 8.32042 4.06408 8.19225 4.19225C8.06408 4.32042 8 4.4615 8 4.6155V16.3845C8 16.5385 8.06408 16.6796 8.19225 16.8077C8.32042 16.9359 8.4615 17 8.6155 17H17.3845C17.5385 17 17.6796 16.9359 17.8077 16.8077C17.9359 16.6796 18 16.5385 18 16.3845V8H14ZM5.6155 21C5.15517 21 4.77083 20.8458 4.4625 20.5375C4.15417 20.2292 4 19.8448 4 19.3845V8H5V19.3845C5 19.5385 5.06408 19.6796 5.19225 19.8078C5.32042 19.9359 5.4615 20 5.6155 20H15V21H5.6155Z" fill="#1C1B1F"/>
</g>
</svg>
