<svg xmlns="http://www.w3.org/2000/svg" width="20" height="20" fill="none" viewBox="0 0 20 20">
  <path fill="#000" fill-rule="evenodd" d="m10.884 5.87 2.122-2.122a2 2 0 0 1 2.828 0l.707.707a2 2 0 0 1 0 2.829L14.42 9.405a2 2 0 0 1-1.932.518l-.776.776a3.001 3.001 0 0 0 3.415-.587l2.121-2.121a3 3 0 0 0 0-4.243l-.707-.707a3 3 0 0 0-4.242 0l-2.122 2.121a3.001 3.001 0 0 0-.586 3.415l.776-.775a2 2 0 0 1 .517-1.932Zm-7.07 7.07 2.12-2.12a2 2 0 0 1 1.933-.518l.775-.776a3.001 3.001 0 0 0-3.414.586l-2.122 2.122a3 3 0 0 0 0 4.242l.707.707a3 3 0 0 0 4.243 0l2.121-2.12c.924-.925 1.12-2.3.587-3.416l-.776.776a2 2 0 0 1-.518 1.932l-2.12 2.121a2 2 0 0 1-2.828 0l-.708-.707a2 2 0 0 1 0-2.828Zm2.822 1.41 7.778-7.779-.707-.707-7.778 7.778.707.708Z" clip-rule="evenodd"/>
</svg>
