<svg width="24" height="24" viewBox="0 0 24 24" fill="none" xmlns="http://www.w3.org/2000/svg">
<mask id="mask0_365_2301" style="mask-type:alpha" maskUnits="userSpaceOnUse" x="0" y="0" width="24" height="24">
<rect width="24" height="24" fill="#D9D9D9"/>
</mask>
<g mask="url(#mask0_365_2301)">
<path d="M2.38452 21.6155V17.3845H4.00002V6.61552H2.38452V2.38452H6.61552V4.00002H17.3845V2.38452H21.6155V6.61552H20V17.3845H21.6155V21.6155H17.3845V20H6.61552V21.6155H2.38452ZM6.61552 19H17.3845V17.3845H19V6.61552H17.3845V5.00002H6.61552V6.61552H5.00002V17.3845H6.61552V19ZM8.16552 16L11.6808 7.00002H12.3193L15.873 16H14.9L13.8693 13.3923H10.1423L9.11152 16H8.16552ZM10.4385 12.5923H13.5615L12.0308 8.57302H11.9308L10.4385 12.5923ZM3.38452 5.61552H5.61552V3.38452H3.38452V5.61552ZM18.3845 5.61552H20.6155V3.38452H18.3845V5.61552ZM18.3845 20.6155H20.6155V18.3845H18.3845V20.6155ZM3.38452 20.6155H5.61552V18.3845H3.38452V20.6155Z" fill="#1C1B1F"/>
</g>
</svg>
