<svg width="60" height="60" viewBox="0 0 60 60" fill="none" xmlns="http://www.w3.org/2000/svg">
<mask id="mask0_696_1365" style="mask-type:alpha" maskUnits="userSpaceOnUse" x="0" y="0" width="60" height="60">
<rect width="60" height="60" fill="#D9D9D9"/>
</mask>
<g mask="url(#mask0_696_1365)">
<path fill-rule="evenodd" clip-rule="evenodd" d="M40 18V24H20V18H40ZM18 16V24H16.0366C14.8979 24 13.9404 24.3737 13.164 25.1212C12.388 25.8687 12 26.795 12 27.9V38H18V46H34V44.035L20 44V36H34V34H18V36H14.0183V27.9C14.0183 27.3475 14.2117 26.8843 14.5985 26.5106C14.9854 26.1369 15.4647 25.95 16.0366 25.95H44C44.5718 25.95 45.0512 26.1369 45.438 26.5106C45.8249 26.8843 46.0183 27.3475 46.0183 27.9L45.9998 32H48V38L48.0366 27.9C48.0366 26.795 47.6497 25.8687 46.8761 25.1212C46.1024 24.3737 45.1437 24 44 24H42V16H18Z" fill="#1C1B1F"/>
<path d="M40.939 46.2963L34.8767 40.3709L36.297 38.8907L40.9373 43.4213L49.453 35.1251L50.8767 36.6053L40.939 46.2963Z" fill="#5C89FF"/>
</g>
</svg>
