<svg xmlns="http://www.w3.org/2000/svg" width="20" height="20" fill="none" viewBox="0 0 20 20">
  <path fill="#000" fill-rule="evenodd" d="M4.404 2.205a4.951 4.951 0 0 0-.535-.634c-.157-.152-.344-.297-.559-.36a.713.713 0 0 0-.742.193c-.16.17-.226.394-.26.57-.07.37-.056.88 0 1.444.056.578.163 1.262.302 2.004.133.712.299 1.484.484 2.279-.05.092-.1.184-.152.275a18.402 18.402 0 0 1-1.537 2.267 19.156 19.156 0 0 1-.717.857l-.042.046-.01.01-.002.004a.5.5 0 1 0 .733.68v-.001l.004-.004.013-.014.047-.052c.04-.045.099-.11.172-.195a20.351 20.351 0 0 0 1.83-2.47l.176.687c-.783 1.04-1.607 2.697-1.095 4.826l.002.01.003.01c.265.927.639 1.627 1.063 2.096.414.46.933.755 1.468.702.577-.058.959-.496 1.105-1.05.143-.54.087-1.24-.18-2.043a76.997 76.997 0 0 1-1.27-4.314c.146-.168.284-.312.403-.43.056.1.12.226.195.376l.015.03c.113.226.258.516.417.715a.919.919 0 0 0 .428.317.658.658 0 0 0 .386.003.722.722 0 0 0 .305-.185c.335-.335.492-.81.606-1.152l.014-.044c.04-.12.077-.227.112-.321l.045.118c.037.095.09.215.165.32.069.096.22.27.478.302.27.032.47-.114.58-.223l.975-.976.001-.001.015-.015.002-.002.002-.001v-.001l.003-.003.002-.001a.5.5 0 1 0-.708-.707l-.001.001-.004.004-.003.003-.67.67a5.536 5.536 0 0 0-.099-.28 1.508 1.508 0 0 0-.165-.32.695.695 0 0 0-.478-.301c-.27-.033-.47.113-.58.223-.335.335-.492.81-.606 1.151l-.014.044a5.68 5.68 0 0 1-.177.481 12.89 12.89 0 0 1-.152-.297l-.015-.03c-.113-.226-.258-.516-.417-.715a.917.917 0 0 0-.428-.317.657.657 0 0 0-.386-.003.723.723 0 0 0-.305.186l-.088.086-.15.147c-.088-.35-.174-.7-.256-1.048.39-.78.714-1.624.859-2.466.186-1.081.082-2.2-.605-3.157l-.002-.004ZM1 11.5l.367.34L1 11.5Zm3.025-6.304c-.054.317-.14.639-.25.962a45.063 45.063 0 0 1-.182-.92 22.976 22.976 0 0 1-.29-1.918c-.04-.398-.05-.71-.037-.936.092.1.202.235.329.41.482.671.587 1.492.43 2.402Zm-.541 9.177c-.318-1.333.002-2.441.472-3.286a73.224 73.224 0 0 0 1.07 3.571c.232.697.238 1.186.162 1.472-.072.275-.19.305-.238.31-.09.01-.32-.038-.626-.376-.293-.326-.605-.873-.84-1.691Zm14.198-9.402-2.865-1.654-6.06 10.496-1.048 5.124 3.913-3.47 4.021-6.965.466.269L14.244 12l.866.5 2.365-4.096-1.332-.77 1.539-2.664Zm-1.366.366-1.039 1.799-1.132-.654 1.038-1.799 1.133.654Zm-1.539 2.665-1.132-.654-3.731 6.462 1.132.654 3.731-6.462ZM9.29 16.198l.292-1.425.796.46-1.088.965Z" clip-rule="evenodd"/>
</svg>
