<svg width="60" height="60" viewBox="0 0 60 60" fill="none" xmlns="http://www.w3.org/2000/svg">
<mask id="mask0_696_1416" style="mask-type:alpha" maskUnits="userSpaceOnUse" x="0" y="0" width="60" height="60">
<rect width="60" height="60" fill="#D9D9D9"/>
</mask>
<g mask="url(#mask0_696_1416)">
<path d="M11 49L11 41L13.9996 41L13.9996 19L11 19L11 11L19 11L19 14L41 14L41 11L49 11L49 19L45.9996 19L45.9996 41L49 41L49 49L41 49L41 46L19 46L19 49L11 49ZM19 44L41 44L41 41L43.9996 40.7691L43.9996 19L41 19L41 16L19 16L19 19L15.9996 19L15.9996 41L19 41L19 44ZM22.3306 38.0001L29.3611 20L30.6381 20L37.7456 38.0001L35.7996 38.0001L33.7381 33L26.2841 33L24.2226 38.0001L22.3306 38.0001ZM26.8766 31L33.1226 31L30.0611 23.146L29.8611 23.146L26.8766 31ZM13 17L17 17L17 13L13 13L13 17ZM43 17L47 17L47 13L43 13L43 17ZM43 47L47 47L47 43L43 43L43 47ZM13 47L17 47L17 43L13 43L13 47Z" fill="#1C1B1F"/>
</g>
</svg>
