<svg width="60" height="60" viewBox="0 0 60 60" fill="none" xmlns="http://www.w3.org/2000/svg">
<mask id="mask0_695_1290" style="mask-type:alpha" maskUnits="userSpaceOnUse" x="0" y="0" width="60" height="60">
<rect width="60" height="60" fill="#D9D9D9"/>
</mask>
<g mask="url(#mask0_695_1290)">
<path d="M40.769 42H23.231C22.3103 42 21.5417 41.6917 20.925 41.075C20.3083 40.4583 20 39.6897 20 38.769V15.231C20 14.3103 20.3083 13.5417 20.925 12.925C21.5417 12.3083 22.3103 12 23.231 12H35L44 21V38.769C44 39.6897 43.6917 40.4583 43.075 41.075C42.4583 41.6917 41.6897 42 40.769 42ZM34 22V14H23.231C22.923 14 22.6408 14.1282 22.3845 14.3845C22.1282 14.6408 22 14.923 22 15.231V38.769C22 39.077 22.1282 39.3592 22.3845 39.6155C22.6408 39.8718 22.923 40 23.231 40H40.769C41.077 40 41.3592 39.8718 41.6155 39.6155C41.8718 39.3592 42 39.077 42 38.769V22H34ZM17.231 48C16.3103 48 15.5417 47.6917 14.925 47.075C14.3083 46.4583 14 45.6897 14 44.769V22H16V44.769C16 45.077 16.1282 45.3592 16.3845 45.6155C16.6408 45.8718 16.923 46 17.231 46H36V48H17.231Z" fill="#1C1B1F"/>
</g>
</svg>
