<svg xmlns="http://www.w3.org/2000/svg" width="20" height="20" fill="none" viewBox="0 0 20 20">
  <path fill="#000" fill-rule="evenodd" d="M16 10.707V17h-5.293l2.147-2.146-.707-.707L11 15.293V12h-1v3.293l-1.146-1.146-.708.707L10.293 17H5v-6.293l2.146 2.147.708-.707L6.707 11H9v-1H6.707l1.147-1.146-.708-.708L5 10.293V4h5.293L8.146 6.146l.708.708L10 5.707V9h1V5.707l1.146 1.147.707-.708L10.707 4H16v6.293l-2.146-2.147-.707.708L14.293 10H12v1h2.293l-1.146 1.146.707.707L16 10.707ZM16 3a1 1 0 0 1 1 1v13a1 1 0 0 1-1 1H5a1 1 0 0 1-1-1V4a1 1 0 0 1 1-1h11Z" clip-rule="evenodd"/>
</svg>
