<svg width="24" height="24" viewBox="0 0 24 24" fill="none" xmlns="http://www.w3.org/2000/svg">
<mask id="mask0_365_2058" style="mask-type:alpha" maskUnits="userSpaceOnUse" x="0" y="0" width="24" height="24">
<rect width="24" height="24" fill="#D9D9D9"/>
</mask>
<g mask="url(#mask0_365_2058)">
<rect x="9.5" y="3.5" width="5" height="17" fill="#BFBFBF"/>
<path d="M5.6155 21C5.15517 21 4.77083 20.8458 4.4625 20.5375C4.15417 20.2292 4 19.8448 4 19.3845V4.6155C4 4.15517 4.15417 3.77083 4.4625 3.4625C4.77083 3.15417 5.15517 3 5.6155 3H18.3845C18.8448 3 19.2292 3.15417 19.5375 3.4625C19.8458 3.77083 20 4.15517 20 4.6155V19.3845C20 19.8448 19.8458 20.2292 19.5375 20.5375C19.2292 20.8458 18.8448 21 18.3845 21H5.6155ZM5.6155 20H18.3845C18.5385 20 18.6796 19.9359 18.8077 19.8078C18.9359 19.6796 19 19.5385 19 19.3845V4.6155C19 4.4615 18.9359 4.32042 18.8077 4.19225C18.6796 4.06408 18.5385 4 18.3845 4H5.6155C5.4615 4 5.32042 4.06408 5.19225 4.19225C5.06408 4.32042 5 4.4615 5 4.6155V19.3845C5 19.5385 5.06408 19.6796 5.19225 19.8078C5.32042 19.9359 5.4615 20 5.6155 20Z" fill="#1C1B1F"/>
<rect x="9" y="3.5" width="1" height="17" fill="#1C1B1F"/>
<rect x="4" y="15" width="0.999999" height="16" transform="rotate(-90 4 15)" fill="#1C1B1F"/>
<rect x="14" y="3.5" width="1" height="17" fill="#1C1B1F"/>
<rect x="4" y="10" width="0.999999" height="16" transform="rotate(-90 4 10)" fill="#1C1B1F"/>
</g>
</svg>
