<svg width="60" height="60" viewBox="0 0 60 60" fill="none" xmlns="http://www.w3.org/2000/svg">
<mask id="mask0_696_1343" style="mask-type:alpha" maskUnits="userSpaceOnUse" x="0" y="0" width="60" height="60">
<rect width="60" height="60" fill="#D9D9D9"/>
</mask>
<g mask="url(#mask0_696_1343)">
<path d="M32.1115 32.104C35.0322 30.15 37.3425 27.989 39.0425 25.621C40.7425 23.253 41.5925 20.9127 41.5925 18.6C41.5925 17.2 41.3085 16.0833 40.7405 15.25C40.1725 14.4167 39.4218 14 38.4885 14C36.5372 14 34.9102 15.3378 33.6075 18.0135C32.3052 20.6892 31.654 24.0013 31.654 27.95C31.654 28.7757 31.6943 29.5315 31.775 30.2175C31.8557 30.9032 31.9678 31.532 32.1115 32.104ZM42 46V42H46V46H42ZM12.8 38L11.423 36.623L14.623 33.423L11.423 30.223L12.8 28.846L16 32.046L19.2 28.846L20.577 30.223L17.377 33.423L20.577 36.623L19.2 38L16 34.8L12.8 38ZM35.631 38C34.631 38 33.7463 37.7635 32.977 37.2905C32.2077 36.8175 31.5743 36.1092 31.077 35.1655C30.295 35.6322 29.4752 36.0617 28.6175 36.454C27.7598 36.8463 26.877 37.2258 25.969 37.5925L25.2615 35.727C26.1435 35.368 27.0095 34.984 27.8595 34.575C28.7095 34.166 29.5217 33.732 30.296 33.273C30.078 32.5397 29.9147 31.7205 29.806 30.8155C29.697 29.9102 29.6425 28.932 29.6425 27.881C29.6425 23.209 30.4707 19.3942 32.127 16.4365C33.7833 13.4788 35.9038 12 38.4885 12C40.0168 12 41.2477 12.6032 42.181 13.8095C43.1143 15.0158 43.581 16.628 43.581 18.646C43.581 21.3847 42.6148 24.109 40.6825 26.819C38.7505 29.5293 36.1293 31.95 32.819 34.081C33.155 34.7243 33.5633 35.207 34.044 35.529C34.525 35.8507 35.0655 36.0115 35.6655 36.0115C36.7372 36.0115 37.8737 35.5 39.075 34.477C40.2763 33.454 41.3565 32.0808 42.3155 30.3575L44.0425 31.173C43.8602 32.227 43.7922 33.154 43.8385 33.954C43.8845 34.754 44.1063 35.4412 44.504 36.0155C44.9397 35.7975 45.357 35.5462 45.756 35.2615C46.1547 34.9768 46.6385 34.496 47.2075 33.819L48.781 35.077C47.9143 36.0207 47.113 36.7437 46.377 37.246C45.641 37.7487 44.9435 38 44.2845 38C43.6872 38 43.1712 37.6635 42.7365 36.9905C42.3018 36.3175 42.0038 35.4707 41.8425 34.45C41.0372 35.5397 40.0615 36.4038 38.9155 37.0425C37.7692 37.6808 36.6743 38 35.631 38Z" fill="#1C1B1F"/>
<path d="M32 42V46H36V42H32Z" fill="#1C1B1F"/>
<path d="M22 42V46H26V42H22Z" fill="#1C1B1F"/>
<path d="M12 42V46H16V42H12Z" fill="#1C1B1F"/>
</g>
</svg>
