<svg width="60" height="60" viewBox="0 0 60 60" fill="none" xmlns="http://www.w3.org/2000/svg">
<mask id="mask0_695_1282" style="mask-type:alpha" maskUnits="userSpaceOnUse" x="0" y="0" width="60" height="60">
<rect width="60" height="60" fill="#D9D9D9"/>
</mask>
<g mask="url(#mask0_695_1282)">
<path d="M39.1818 42C37.619 42 36.3647 41.5505 35.419 40.6515C34.473 39.7521 34 38.6194 34 37.2535C34 35.7606 34.5618 34.5604 35.6853 33.653C36.8086 32.7459 38.2539 32.2923 40.0212 32.2923C40.7445 32.2923 41.4768 32.3693 42.218 32.5233C42.9592 32.6773 43.6122 32.8909 44.1772 33.1641V31.9231C44.1772 30.5519 43.8447 29.5093 43.1797 28.7952C42.515 28.0811 41.5452 27.724 40.2704 27.724C39.5733 27.724 38.9241 27.8504 38.3228 28.1032C37.7214 28.356 37.1202 28.7449 36.5192 29.2698L35.2325 28.0732C35.9892 27.351 36.7712 26.8248 37.5784 26.4947C38.3856 26.1649 39.2868 26 40.282 26C42.2178 26 43.6548 26.5172 44.5931 27.5516C45.531 28.586 46 30.1377 46 32.2069V41.5132H44.1772V39.3594H43.9751C43.4515 40.2489 42.7919 40.9115 41.9961 41.3471C41.2007 41.7824 40.2626 42 39.1818 42ZM39.3218 40.2881C40.8638 40.2881 42.0605 39.7716 42.9118 38.7386C43.7632 37.7053 44.1888 36.4097 44.1888 34.8517C43.7172 34.5705 43.1204 34.3507 42.3984 34.1925C41.6767 34.0343 40.9699 33.9552 40.2779 33.9552C38.9408 33.9552 37.8782 34.2419 37.0902 34.8153C36.3025 35.3888 35.9087 36.2015 35.9087 37.2535C35.9087 38.1191 36.2235 38.8413 36.8532 39.42C37.4829 39.9987 38.3057 40.2881 39.3218 40.2881Z" fill="#5C89FF"/>
<path d="M10 42L19.8729 16H22.2069L32 42H29.6097L26.891 34H15.061L12.2615 42H10ZM15.7987 32H26.2576L21.012 18.646L15.7987 32Z" fill="#1C1B1F"/>
</g>
</svg>
