<svg width="60" height="60" viewBox="0 0 60 60" fill="none" xmlns="http://www.w3.org/2000/svg">
<mask id="mask0_695_1302" style="mask-type:alpha" maskUnits="userSpaceOnUse" x="0" y="0" width="60" height="60">
<rect width="60" height="60" fill="#D9D9D9"/>
</mask>
<g mask="url(#mask0_695_1302)">
<path d="M16 44H18.196L39.5925 22.604L37.396 20.4075L16 41.804V44ZM14 46V40.9615L40.3615 14.573C40.5665 14.3903 40.7927 14.2492 41.04 14.1495C41.2877 14.0498 41.5458 14 41.8145 14C42.0832 14 42.3435 14.0423 42.5955 14.127C42.8472 14.2117 43.0795 14.3642 43.2925 14.5845L45.427 16.731C45.6473 16.9437 45.798 17.177 45.879 17.431C45.9597 17.6853 46 17.9395 46 18.1935C46 18.4645 45.9543 18.7238 45.863 18.9715C45.7717 19.2188 45.6263 19.445 45.427 19.65L19.0385 46H14ZM38.475 21.525L37.396 20.4075L39.5925 22.604L38.475 21.525Z" fill="#1C1B1F"/>
<rect x="26" y="44" width="14" height="2" fill="#1C1B1F"/>
</g>
</svg>
