<svg width="60" height="60" viewBox="0 0 60 60" fill="none" xmlns="http://www.w3.org/2000/svg">
<mask id="mask0_696_1342" style="mask-type:alpha" maskUnits="userSpaceOnUse" x="0" y="0" width="60" height="60">
<rect width="60" height="60" fill="#D9D9D9"/>
</mask>
<g mask="url(#mask0_696_1342)">
<path d="M24.0076 35C20.6666 35 17.8301 33.8365 15.4981 31.5095C13.1661 29.1822 12.0001 26.3482 12.0001 23.0075C12.0001 19.6665 13.1636 16.83 15.4906 14.498C17.818 12.166 20.652 11 23.9926 11C27.3336 11 30.1701 12.1635 32.5021 14.4905C34.8341 16.8178 36.0001 19.6518 36.0001 22.9925C36.0001 26.3335 34.8366 29.17 32.5096 31.502C30.1823 33.834 27.3483 35 24.0076 35ZM24.0001 33C26.7668 33 29.1251 32.025 31.0751 30.075C33.0251 28.125 34.0001 25.7667 34.0001 23C34.0001 20.2333 33.0251 17.875 31.0751 15.925C29.1251 13.975 26.7668 13 24.0001 13C21.2335 13 18.8751 13.975 16.9251 15.925C14.9751 17.875 14.0001 20.2333 14.0001 23C14.0001 25.7667 14.9751 28.125 16.9251 30.075C18.8751 32.025 21.2335 33 24.0001 33Z" fill="#1C1B1F"/>
<path d="M24 42C24.1537 42.0077 24.3037 42.0133 24.45 42.017C24.596 42.021 24.7537 42.023 24.923 42.023C25.1203 42.023 25.3043 42.021 25.475 42.017C25.6453 42.0133 25.8203 42.0077 26 42V44.769C26 45.128 26.1153 45.423 26.346 45.654C26.577 45.8847 26.8718 46 27.2305 46H44.769C45.128 46 45.423 45.8847 45.654 45.654C45.8847 45.423 46 45.128 46 44.769V27.2305C46 26.8718 45.8847 26.577 45.654 26.346C45.423 26.1153 45.128 26 44.769 26H41.977C41.9847 25.8203 41.9903 25.6453 41.994 25.475C41.998 25.3043 42 25.1203 42 24.923C42 24.7537 41.998 24.596 41.994 24.45C41.9903 24.3037 41.9847 24.1537 41.977 24H44.769C45.6577 24 46.4183 24.3163 47.051 24.949C47.6837 25.5817 48 26.3422 48 27.2305V44.769C48 45.6577 47.6837 46.4183 47.051 47.051C46.4183 47.6837 45.6577 48 44.769 48H27.2305C26.3422 48 25.5817 47.6837 24.949 47.051C24.3163 46.4183 24 45.6577 24 44.769V42Z" fill="#5C89FF"/>
</g>
</svg>
