<svg width="24" height="24" viewBox="0 0 24 24" fill="none" xmlns="http://www.w3.org/2000/svg">
<mask id="mask0_365_2284" style="mask-type:alpha" maskUnits="userSpaceOnUse" x="0" y="0" width="24" height="24">
<rect x="24" width="24" height="24" transform="rotate(90 24 0)" fill="#D9D9D9"/>
</mask>
<g mask="url(#mask0_365_2284)">
<path d="M4.95594 5L6.04378 5L6.04378 19.0612L7.73008 17.4924L8.5 18.2087L5.49986 21L2.5 18.2087L3.26992 17.4924L4.95594 19.0612L4.95594 5Z" fill="#1C1B1F"/>
<path d="M10 8L21 12.0247L21 13.0546L10 17L10 15.9541L13.0289 14.8966L13.0289 10.1155L10 9.04589L10 8ZM13.9566 10.444L13.9566 14.556L19.5921 12.5911L19.5921 12.4882L13.9566 10.444Z" fill="#1C1B1F"/>
</g>
</svg>
