<svg width="24" height="24" viewBox="0 0 24 24" fill="none" xmlns="http://www.w3.org/2000/svg">
<mask id="mask0_372_2086" style="mask-type:alpha" maskUnits="userSpaceOnUse" x="0" y="0" width="24" height="24">
<rect width="24" height="24" fill="#D9D9D9"/>
</mask>
<g mask="url(#mask0_372_2086)">
<path d="M4 14V13H12V14H4ZM4 10V9H17V10H4ZM4 6V5H17V6H4ZM13.2308 19V16.7905L18.5635 11.4827C18.6622 11.3839 18.764 11.3173 18.869 11.2828C18.974 11.2481 19.079 11.2308 19.184 11.2308C19.2985 11.2308 19.411 11.2522 19.5215 11.2952C19.6322 11.3381 19.7327 11.4025 19.823 11.4885L20.748 12.4328C20.8302 12.5314 20.8927 12.634 20.9355 12.7405C20.9785 12.8468 21 12.9532 21 13.0595C21 13.166 20.9795 13.2734 20.9385 13.3818C20.8975 13.4901 20.834 13.5936 20.748 13.6923L15.4405 19H13.2308ZM14.1155 18.1155H15.0655L18.5328 14.6423L18.0635 14.1673L17.6077 13.6788L14.1155 17.1655V18.1155ZM18.0635 14.1673L17.6077 13.6788L18.5328 14.6423L18.0635 14.1673Z" fill="#1C1B1F"/>
</g>
</svg>
