<svg width="60" height="60" viewBox="0 0 60 60" fill="none" xmlns="http://www.w3.org/2000/svg">
<mask id="mask0_696_1384" style="mask-type:alpha" maskUnits="userSpaceOnUse" x="0" y="0" width="60" height="60">
<rect width="60" height="60" transform="matrix(1 0 0 -1 0 60)" fill="#D9D9D9"/>
</mask>
<g mask="url(#mask0_696_1384)">
<path d="M26 20V22H46V20H26ZM26 38V40H46V38H26Z" fill="#1C1B1F"/>
<path d="M17.0003 36C16.175 36 15.4687 36.2937 14.8812 36.8811C14.2937 37.4689 14 38.1752 14 39C14 39.8248 14.2937 40.5311 14.8812 41.1189C15.4687 41.7063 16.175 42 17.0003 42C17.8252 42 18.5313 41.7063 19.1188 41.1189C19.7063 40.5311 20 39.8248 20 39C20 38.1752 19.7063 37.4689 19.1188 36.8811C18.5313 36.2937 17.8252 36 17.0003 36Z" fill="#5C89FF"/>
<path d="M17.0003 18C16.175 18 15.4687 18.2937 14.8812 18.8811C14.2937 19.4689 14 20.1752 14 21C14 21.8248 14.2937 22.5311 14.8812 23.1189C15.4687 23.7063 16.175 24 17.0003 24C17.8252 24 18.5313 23.7063 19.1188 23.1189C19.7063 22.5311 20 21.8248 20 21C20 20.1752 19.7063 19.4689 19.1188 18.8811C18.5313 18.2937 17.8252 18 17.0003 18Z" fill="#5C89FF"/>
</g>
</svg>
