<svg width="20" height="20" viewBox="0 0 20 20" fill="none" xmlns="http://www.w3.org/2000/svg">
<path fill-rule="evenodd" clip-rule="evenodd" d="M7 4C8.103 4 9 4.897 9 6C8.99946 7.08928 8.08928 7.99991 7 8.001C5.897 8.001 5 7.104 5 6C5 4.897 5.897 4 7 4ZM7 3C5.366 3 4 4.366 4 6C4 7.634 5.366 9 7 9C8.634 9 10 7.634 10 6C10 4.366 8.634 3 7 3ZM7 11C11.185 11 11.909 12.935 12 13.309V15.001H2V13.313C2.1 12.906 2.841 11 7 11ZM7 10C1.523 10 1 13.212 1 13.212V16.001H13V13.212C13 13.212 12.477 10 7 10ZM14.5 10C15.8807 10 17 8.88071 17 7.5C17 6.11929 15.8807 5 14.5 5C13.1193 5 12 6.11929 12 7.5C12 8.88071 13.1193 10 14.5 10ZM14 13C13.883 12.2128 13.5141 11.6271 13.01 11.0161C15 11.0161 19 11.0161 19 13.7381V16.0011H14V13Z" fill="black"/>
</svg>
