<svg width="20" height="20" viewBox="0 0 20 20" fill="none" xmlns="http://www.w3.org/2000/svg">
<path fill-rule="evenodd" clip-rule="evenodd" d="M6.00004 5.70718L4.35359 7.35363L3.64648 6.64652L6.14648 4.14652L6.50004 3.79297L6.85359 4.14652L9.35359 6.64652L8.64648 7.35363L7.00004 5.70718L7.00004 6.00008C7.00004 6.33484 7.01871 6.66868 7.05576 7.00008C7.14952 7.83866 7.36094 8.66158 7.68512 9.44423C8.13741 10.5362 8.80035 11.5283 9.63608 12.364C9.74054 12.4685 9.84745 12.5703 9.9567 12.6693C10.7214 13.3622 11.6004 13.9192 12.5559 14.315C13.3385 14.6392 14.1614 14.8506 15 14.9443C15.3314 14.9814 15.6653 15.0001 16 15.0001L16 16.0001C15.6655 16.0001 15.3317 15.9833 15 15.95C14.0299 15.8524 13.0773 15.6134 12.1732 15.2389C10.9599 14.7363 9.85755 13.9997 8.92897 13.0711C8.00038 12.1426 7.26379 11.0402 6.76124 9.82691C6.38673 8.92276 6.14767 7.97024 6.05016 7.00008C6.01683 6.6684 6.00004 6.33465 6.00004 6.00008L6.00004 5.70718Z" fill="black"/>
</svg>
