<svg width="60" height="60" viewBox="0 0 60 60" fill="none" xmlns="http://www.w3.org/2000/svg">
<mask id="mask0_696_1397" style="mask-type:alpha" maskUnits="userSpaceOnUse" x="0" y="0" width="60" height="60">
<rect width="60" height="60" fill="#D9D9D9"/>
</mask>
<g mask="url(#mask0_696_1397)">
<path d="M39.5 47.7809C38.173 47.7809 37.0478 47.3172 36.1245 46.3899C35.2015 45.4626 34.74 44.3366 34.74 43.0119C34.74 42.8119 34.8285 42.3067 35.0055 41.4964L20.0688 33.196C19.6378 33.696 19.1091 34.0877 18.4827 34.371C17.8561 34.6543 17.1848 34.796 16.4688 34.796C15.1544 34.796 14.0374 34.3282 13.1178 33.3925C12.1978 32.4565 11.7378 31.3347 11.7378 30.027C11.7378 28.7193 12.1978 27.5975 13.1178 26.6615C14.0374 25.7258 15.1544 25.258 16.4688 25.258C17.1848 25.258 17.8561 25.3997 18.4827 25.683C19.1091 25.9663 19.6378 26.358 20.0688 26.858L35.0055 18.5535C34.9131 18.2945 34.8458 18.0375 34.8035 17.7825C34.7611 17.5271 34.74 17.2661 34.74 16.9995C34.74 15.6748 35.2045 14.5488 36.1335 13.6215C37.0628 12.6941 38.1911 12.2305 39.5185 12.2305C40.8458 12.2305 41.971 12.695 42.894 13.624C43.817 14.5533 44.2785 15.6816 44.2785 17.009C44.2785 18.336 43.8148 19.4611 42.8875 20.3845C41.9601 21.3075 40.8341 21.769 39.5095 21.769C38.7861 21.769 38.1195 21.6208 37.5095 21.3245C36.8991 21.0285 36.3785 20.6305 35.9475 20.1305L21.0107 28.473C21.1031 28.732 21.1704 28.9892 21.2128 29.2445C21.2551 29.4995 21.2762 29.7603 21.2762 30.027C21.2762 30.2937 21.2551 30.5545 21.2128 30.8095C21.1704 31.0648 21.1031 31.322 21.0107 31.581L35.9475 39.8809C36.3785 39.3809 36.8991 38.9829 37.5095 38.6869C38.1195 38.3906 38.7861 38.2424 39.5095 38.2424C40.8341 38.2424 41.9601 38.7069 42.8875 39.6359C43.8148 40.5652 44.2785 41.6936 44.2785 43.0209C44.2785 44.3482 43.814 45.4734 42.885 46.3964C41.9556 47.3194 40.8273 47.7809 39.5 47.7809ZM39.5095 45.7809C40.2938 45.7809 40.9515 45.5156 41.4825 44.9849C42.0131 44.4539 42.2785 43.7962 42.2785 43.0119C42.2785 42.2272 42.0131 41.5694 41.4825 41.0384C40.9515 40.5077 40.2938 40.2424 39.5095 40.2424C38.7248 40.2424 38.067 40.5077 37.536 41.0384C37.0053 41.5694 36.74 42.2272 36.74 43.0119C36.74 43.7962 37.0053 44.4539 37.536 44.9849C38.067 45.5156 38.7248 45.7809 39.5095 45.7809ZM16.4688 32.796C17.2641 32.796 17.9307 32.5307 18.4688 32C19.0071 31.4693 19.2762 30.8117 19.2762 30.027C19.2762 29.2423 19.0071 28.5847 18.4688 28.054C17.9307 27.5233 17.2641 27.258 16.4688 27.258C15.6948 27.258 15.0461 27.5233 14.5227 28.054C13.9994 28.5847 13.7378 29.2423 13.7378 30.027C13.7378 30.8117 13.9994 31.4693 14.5227 32C15.0461 32.5307 15.6948 32.796 16.4688 32.796ZM39.5095 19.769C40.2938 19.769 40.9515 19.5036 41.4825 18.973C42.0131 18.442 42.2785 17.7841 42.2785 16.9995C42.2785 16.2151 42.0131 15.5575 41.4825 15.0265C40.9515 14.4958 40.2938 14.2305 39.5095 14.2305C38.7248 14.2305 38.067 14.4958 37.536 15.0265C37.0053 15.5575 36.74 16.2151 36.74 16.9995C36.74 17.7841 37.0053 18.442 37.536 18.973C38.067 19.5036 38.7248 19.769 39.5095 19.769Z" fill="#1C1B1F"/>
</g>
</svg>
