<svg xmlns="http://www.w3.org/2000/svg" width="20" height="20" fill="none" viewBox="0 0 20 20">
  <path fill="#000" fill-rule="evenodd" d="M7.927 9.01h1.1L7.022 4h-1.07L4 9.01h1.073l.414-1.137H7.49l.437 1.138ZM6.475 5.17l.69 1.86H5.798l.677-1.86ZM11.995 4H9.99v5.01h1.706c.645-.004 1.052-.015 1.22-.033.269-.03.495-.109.677-.236.184-.13.33-.302.434-.516a1.49 1.49 0 0 0 .16-.667c0-.29-.082-.541-.245-.755-.165-.214-.4-.366-.705-.455.217-.098.388-.245.513-.44a1.16 1.16 0 0 0 .192-.647 1.13 1.13 0 0 0-.154-.584 1.274 1.274 0 0 0-.387-.42 1.272 1.272 0 0 0-.522-.206A5.562 5.562 0 0 0 11.994 4Zm-.992 1.993V4.834h.581c.476 0 .764.006.865.017.168.02.295.08.38.178a.54.54 0 0 1 .13.376.532.532 0 0 1-.151.393.666.666 0 0 1-.407.178 9.13 9.13 0 0 1-.735.017h-.663Zm0 2.173v-1.34h.817c.46 0 .759.025.895.072a.618.618 0 0 1 .318.23.65.65 0 0 1 .11.382.62.62 0 0 1-.144.428.623.623 0 0 1-.366.198c-.098.02-.329.03-.693.03h-.937Zm4.151 4.698-2 2-.707-.707L13.604 13H4v-1h9.583l-1.136-1.136.707-.707L14.997 12H15v.003l.154.154.354.354-.354.353Z" clip-rule="evenodd"/>
</svg>
