<svg width="24" height="24" viewBox="0 0 24 24" fill="none" xmlns="http://www.w3.org/2000/svg">
<mask id="mask0_365_2246" style="mask-type:alpha" maskUnits="userSpaceOnUse" x="0" y="0" width="24" height="24">
<rect width="24" height="24" fill="#D9D9D9"/>
</mask>
<g mask="url(#mask0_365_2246)">
<path d="M12.5171 19C9.89923 19 8.15399 17.458 8 15H8.99999C9.17109 16.6723 10.5665 18 12.5171 18C14.4506 18 16 16.6823 16 15C16 13.5695 15.0323 12.724 13.1331 12.2203L11.7814 11.8677C9.38592 11.233 8 10.0417 8 7.97656C8.00856 5.66965 10.0703 4 12.5171 4C14.8954 4 16.6202 5.60859 16.7656 7.99609H15.5977C15.418 6.29361 14.2623 5 12.5171 5C10.7376 5 8.99999 6.41511 8.99999 7.97656C8.99999 9.32646 10.3013 10.0947 12.0893 10.5581L13.4411 10.9208C15.9734 11.5856 17 12.7441 17 14.8899V14.8999C17 17.3882 15.2291 19 12.5171 19Z" fill="#1C1B1F"/>
<path d="M4 11V12H21V11H4Z" fill="#5C89FF"/>
</g>
</svg>
