<svg width="24" height="24" viewBox="0 0 24 24" fill="none" xmlns="http://www.w3.org/2000/svg">
<mask id="mask0_365_1764" style="mask-type:alpha" maskUnits="userSpaceOnUse" x="0" y="0" width="24" height="24">
<rect width="24" height="24" fill="#D9D9D9"/>
</mask>
<g mask="url(#mask0_365_1764)">
<path d="M13.3923 13L11.4788 14.9135L12.1865 15.6213L15.3077 12.5L12.1865 9.37877L11.4788 10.0865L13.3923 12H8V13H13.3923ZM4.6155 19C4.15517 19 3.77083 18.8458 3.4625 18.5375C3.15417 18.2292 3 17.8448 3 17.3845V5.6155C3 5.15517 3.15417 4.77083 3.4625 4.4625C3.77083 4.15417 4.15517 4 4.6155 4H9.59625L11.5963 6H19.3845C19.8448 6 20.2292 6.15417 20.5375 6.4625C20.8458 6.77083 21 7.15517 21 7.6155V17.3845C21 17.8448 20.8458 18.2292 20.5375 18.5375C20.2292 18.8458 19.8448 19 19.3845 19H4.6155ZM4.6155 18H19.3845C19.564 18 19.7115 17.9423 19.827 17.827C19.9423 17.7115 20 17.564 20 17.3845V7.6155C20 7.436 19.9423 7.2885 19.827 7.173C19.7115 7.05767 19.564 7 19.3845 7H11.1943L9.19425 5H4.6155C4.436 5 4.2885 5.05767 4.173 5.173C4.05767 5.2885 4 5.436 4 5.6155V17.3845C4 17.564 4.05767 17.7115 4.173 17.827C4.2885 17.9423 4.436 18 4.6155 18Z" fill="#1C1B1F"/>
</g>
</svg>
