<svg width="24" height="24" viewBox="0 0 24 24" fill="none" xmlns="http://www.w3.org/2000/svg">
<mask id="mask0_364_1667" style="mask-type:alpha" maskUnits="userSpaceOnUse" x="0" y="0" width="24" height="24">
<rect width="24" height="24" fill="#D9D9D9"/>
</mask>
<g mask="url(#mask0_364_1667)">
<path d="M9.6 14.4078L10.3078 13.6943L8.1135 11.5001L10.2885 9.32509L9.58075 8.61159L6.69225 11.5001L9.6 14.4078ZM15.4 14.4078L18.3077 11.5001L15.4 8.59234L14.6923 9.30584L16.8865 11.5001L14.6923 13.6943L15.4 14.4078ZM5.6155 20C5.15517 20 4.77083 19.8458 4.4625 19.5375C4.15417 19.2292 4 18.8448 4 18.3845V4.6155C4 4.15517 4.15417 3.77083 4.4625 3.4625C4.77083 3.15417 5.15517 3 5.6155 3H19.3845C19.8448 3 20.2292 3.15417 20.5375 3.4625C20.8458 3.77083 21 4.15517 21 4.6155V18.3845C21 18.8448 20.8458 19.2292 20.5375 19.5375C20.2292 19.8458 19.8448 20 19.3845 20H5.6155ZM5.6155 19H19.3845C19.5385 19 19.6796 18.9359 19.8077 18.8077C19.9359 18.6796 20 18.5385 20 18.3845V4.6155C20 4.4615 19.9359 4.32042 19.8077 4.19225C19.6796 4.06408 19.5385 4 19.3845 4H5.6155C5.4615 4 5.32042 4.06408 5.19225 4.19225C5.06408 4.32042 5 4.4615 5 4.6155V18.3845C5 18.5385 5.06408 18.6796 5.19225 18.8077C5.32042 18.9359 5.4615 19 5.6155 19Z" fill="#1C1B1F"/>
</g>
</svg>
