<svg width="24" height="24" viewBox="0 0 24 24" fill="none" xmlns="http://www.w3.org/2000/svg">
<mask id="mask0_364_1641" style="mask-type:alpha" maskUnits="userSpaceOnUse" x="0" y="0" width="24" height="24">
<rect width="24" height="24" fill="#D9D9D9"/>
</mask>
<g mask="url(#mask0_364_1641)">
<path d="M5.6155 21C5.15517 21 4.77083 20.8458 4.4625 20.5375C4.15417 20.2291 4 19.8448 4 19.3845V6.61548C4 6.15514 4.15417 5.77081 4.4625 5.46248C4.77083 5.15414 5.15517 4.99998 5.6155 4.99998L7 5V3H8V4.99998H16V3H17V4.99998H18.3845C18.8448 4.99998 19.2292 5.15414 19.5375 5.46248C19.8458 5.77081 20 6.15514 20 6.61548V19.3845C20 19.8448 19.8458 20.2291 19.5375 20.5375C19.2292 20.8458 18.8448 21 18.3845 21H5.6155ZM5.6155 20H18.3845C18.5385 20 18.6796 19.9359 18.8077 19.8077C18.9359 19.6796 19 19.5385 19 19.3845V10H5V19.3845C5 19.5385 5.06408 19.6796 5.19225 19.8077C5.32042 19.9359 5.4615 20 5.6155 20ZM5 9H19V6.61548C19 6.46148 18.9359 6.32039 18.8077 6.19223C18.6796 6.06406 18.5385 5.99998 18.3845 5.99998H5.6155C5.4615 5.99998 5.32042 6.06406 5.19225 6.19223C5.06408 6.32039 5 6.46148 5 6.61548V9Z" fill="#1C1B1F"/>
<path d="M7 12H9V14H7V12Z" fill="#1C1B1F"/>
<path d="M11 12H13V14H11V12Z" fill="#1C1B1F"/>
<path d="M15 12H17V14H15V12Z" fill="#1C1B1F"/>
<path d="M7 16H9V18H7V16Z" fill="#1C1B1F"/>
<path d="M11 16H13V18H11V16Z" fill="#1C1B1F"/>
<path d="M15 16H17V18H15V16Z" fill="#1C1B1F"/>
</g>
</svg>
