<svg width="24" height="24" viewBox="0 0 24 24" fill="none" xmlns="http://www.w3.org/2000/svg">
<mask id="mask0_364_1637" style="mask-type:alpha" maskUnits="userSpaceOnUse" x="0" y="0" width="24" height="24">
<rect width="24" height="24" fill="#D9D9D9"/>
</mask>
<g mask="url(#mask0_364_1637)">
<path d="M17.5999 18.4215L12.0584 12.9256L9.69296 15.2715C9.8038 15.4595 9.88545 15.6577 9.9379 15.866C9.99035 16.0742 10.0166 16.2896 10.0166 16.5124C10.0166 17.1965 9.77113 17.7821 9.28023 18.2692C8.78934 18.7564 8.19923 19 7.5099 19C6.82057 19 6.22989 18.7566 5.73786 18.2697C5.24595 17.7828 5 17.1975 5 16.5139C5 15.8302 5.24557 15.2445 5.73672 14.7567C6.228 14.2687 6.81855 14.0247 7.50838 14.0247C7.73298 14.0247 7.95024 14.0508 8.16017 14.103C8.37023 14.155 8.57005 14.2359 8.75964 14.3459L11.1251 12L8.75964 9.65413C8.57005 9.76406 8.37023 9.84503 8.16017 9.89705C7.95024 9.94919 7.73298 9.97526 7.50838 9.97526C6.81855 9.97526 6.228 9.73184 5.73672 9.24501C5.24557 8.75805 5 8.17276 5 7.48914C5 6.80551 5.24545 6.21978 5.73634 5.73194C6.22724 5.24398 6.81741 5 7.50687 5C8.19619 5 8.78681 5.24361 9.27872 5.73082C9.77062 6.2179 10.0166 6.80351 10.0166 7.48763C10.0166 7.71037 9.99035 7.92583 9.9379 8.13403C9.88545 8.34235 9.8038 8.54052 9.69296 8.72853L19 17.9586V18.4215H17.5999ZM13.9834 11.0165L13.0499 10.0909L17.5999 5.57852H19V6.04142L13.9834 11.0165ZM7.50838 9.2232C7.98955 9.2232 8.40151 9.05324 8.74428 8.7133C9.08692 8.3735 9.25824 7.96494 9.25824 7.48763C9.25824 7.01032 9.08692 6.60177 8.74428 6.26196C8.40151 5.92203 7.98955 5.75206 7.50838 5.75206C7.02709 5.75206 6.61506 5.92203 6.2723 6.26196C5.92966 6.60177 5.75834 7.01032 5.75834 7.48763C5.75834 7.96494 5.92966 8.3735 6.2723 8.7133C6.61506 9.05324 7.02709 9.2232 7.50838 9.2232ZM7.50838 18.2479C7.98955 18.2479 8.40151 18.078 8.74428 17.738C9.08692 17.3982 9.25824 16.9897 9.25824 16.5124C9.25824 16.0351 9.08692 15.6265 8.74428 15.2867C8.40151 14.9468 7.98955 14.7768 7.50838 14.7768C7.02709 14.7768 6.61506 14.9468 6.2723 15.2867C5.92966 15.6265 5.75834 16.0351 5.75834 16.5124C5.75834 16.9897 5.92966 17.3982 6.2723 17.738C6.61506 18.078 7.02709 18.2479 7.50838 18.2479Z" fill="#1C1B1F"/>
</g>
</svg>
