<svg width="24" height="24" viewBox="0 0 24 24" fill="none" xmlns="http://www.w3.org/2000/svg">
<mask id="mask0_352_1398" style="mask-type:alpha" maskUnits="userSpaceOnUse" x="0" y="0" width="24" height="24">
<rect width="24" height="24" transform="matrix(1 0 0 -1 0 24)" fill="#D9D9D9"/>
</mask>
<g mask="url(#mask0_352_1398)">
<path d="M11 7H7.077C5.949 7 4.9875 7.43865 4.1925 8.31595C3.3975 9.19325 3 10.2542 3 11.4989C3 12.7436 3.3975 13.8049 4.1925 14.6829C4.9875 15.561 5.949 16 7.077 16H11V15H7C6.15383 15 5.42942 14.6674 4.82675 14.0022C4.22425 13.3372 4 12.434 4 11.5C4 10.566 4.30125 9.6628 4.90375 8.99779C5.50642 8.3326 6.23083 8 7.077 8H11V7ZM8 11V12H16V11H8ZM21 12H20C20 12.934 19.6988 13.3372 19.0963 14.0022C18.4936 14.6674 17.7692 15 16.923 15H13V16H16.923C18.051 16 19.0125 15.5613 19.8075 14.6838C20.6025 13.8063 21 13.245 21 12Z" fill="#1C1B1F"/>
<path d="M17 10V7H14V6H17V3H18V6H21V7H18V10H17Z" fill="#5C89FF"/>
</g>
</svg>
