<svg width="60" height="60" viewBox="0 0 60 60" fill="none" xmlns="http://www.w3.org/2000/svg">
<mask id="mask0_696_1338" style="mask-type:alpha" maskUnits="userSpaceOnUse" x="0" y="0" width="60" height="60">
<rect width="60" height="60" fill="#D9D9D9"/>
</mask>
<g mask="url(#mask0_696_1338)">
<path d="M18.154 32H34V30H18.154V32ZM18.154 22H42V20H18L18.154 22ZM12 46V15.2164C12 14.2999 12.3083 13.5347 12.925 12.9208C13.5417 12.3069 14.3103 12 15.231 12H44.769C45.6897 12 46.4583 12.3069 47.075 12.9208C47.6917 13.5347 48 14.2999 48 15.2164V36.7823C48 37.6988 47.6917 38.464 47.075 39.0779C46.4583 39.6918 45.6897 39.9987 44.769 39.9987H18.154L12 46ZM17.3 38.0078H44.769C45.077 38.0078 45.3592 37.8802 45.6155 37.625C45.8718 37.3698 46 37.0889 46 36.7823V15.2164C46 14.9098 45.8718 14.6289 45.6155 14.3737C45.3592 14.1186 45.077 13.991 44.769 13.991H15.231C14.923 13.991 14.6408 14.1186 14.3845 14.3737C14.1282 14.6289 14 14.9098 14 15.2164V41.2814L17.3 38.0078Z" fill="#1C1B1F"/>
</g>
</svg>
