<svg width="24" height="24" viewBox="0 0 24 24" fill="none" xmlns="http://www.w3.org/2000/svg">
<mask id="mask0_365_2025" style="mask-type:alpha" maskUnits="userSpaceOnUse" x="0" y="0" width="24" height="24">
<rect width="24" height="24" transform="matrix(-1 0 0 1 24 0)" fill="#D9D9D9"/>
</mask>
<g mask="url(#mask0_365_2025)">
<path d="M11.9807 20C13.0897 20 14.1291 19.7913 15.099 19.374C16.0688 18.9567 16.9162 18.3855 17.6412 17.6605C18.3662 16.9355 18.9374 16.0881 19.3547 15.1183C19.772 14.1484 19.9807 13.109 19.9807 12C19.9807 10.891 19.772 9.85158 19.3547 8.88175C18.9374 7.91192 18.3662 7.0645 17.6412 6.3395C16.9162 5.6145 16.0688 5.04333 15.099 4.626C14.1291 4.20867 13.0897 4 11.9807 4C10.832 4 9.73813 4.23717 8.69896 4.7115C7.65996 5.18583 6.75388 5.84742 5.98071 6.69625V4.30775H4.98071V8.4615H9.13446V7.4615H6.65371C7.34988 6.69483 8.15313 6.09292 9.06346 5.65575C9.97363 5.21858 10.946 5 11.9807 5C13.9307 5 15.5849 5.67917 16.9432 7.0375C18.3015 8.39583 18.9807 10.05 18.9807 12C18.9807 13.95 18.3015 15.6042 16.9432 16.9625C15.5849 18.3208 13.9307 19 11.9807 19C10.2307 19 8.70796 18.4302 7.41246 17.2905C6.11696 16.1507 5.3333 14.7205 5.06146 13H4.04996C4.28713 15.0142 5.16055 16.6843 6.67021 18.0105C8.17971 19.3368 9.94988 20 11.9807 20Z" fill="#1C1B1F"/>
</g>
</svg>
