<svg width="24" height="24" viewBox="0 0 24 24" fill="none" xmlns="http://www.w3.org/2000/svg">
<mask id="mask0_372_2158" style="mask-type:alpha" maskUnits="userSpaceOnUse" x="0" y="0" width="24" height="24">
<rect width="24" height="24" fill="#D9D9D9"/>
</mask>
<g mask="url(#mask0_372_2158)">
<path d="M15.1588 13.6971C14.7555 14.1981 14.3963 14.6408 14.0813 15.0252C13.7662 15.3981 13.4701 15.7417 13.1928 16.0563C12.9156 16.3709 12.6194 16.6854 12.3043 17L11 16.1612C11.8066 15.6485 12.5249 15.1476 13.155 14.6583C13.7851 14.1689 14.3711 13.6738 14.913 13.1728L15.4612 12.666L14.1002 9.48544C13.9616 9.13592 13.8481 8.93204 13.7599 8.87379C13.6843 8.80388 13.552 8.75728 13.3629 8.73398L12.3989 8.6466L12.4934 8.17476H15.121L16.5766 11.6175L16.8223 11.3029C17.2256 10.8019 17.5848 10.365 17.8998 9.99223C18.2149 9.61942 18.511 9.27573 18.7883 8.96116C19.0781 8.63495 19.3806 8.31456 19.6957 8L21 8.85631C20.1934 9.36893 19.4688 9.8699 18.8261 10.3592C18.196 10.8369 17.61 11.332 17.0681 11.8447L16.7845 12.1068L18.2401 15.5146C18.3787 15.8641 18.4858 16.0738 18.5614 16.1437C18.6497 16.2019 18.7883 16.2427 18.9773 16.266L19.9225 16.3709L19.8469 16.8252H17.2193L15.6314 13.0854L15.1588 13.6971Z" fill="#1C1B1F"/>
<path d="M11.0486 8.98073H8.67024L6.40421 21H5L7.08288 9.52111C7.15138 9.12097 7.24319 9.14623 7.15138 8.81498C7.12855 8.7326 6.75752 9.00427 6.58627 8.98073H5.34047L6.29183 8H7.24319L7.36318 7.23053C7.46593 6.65386 7.63717 6.12426 7.87692 5.64175C8.11666 5.14746 8.45344 4.7532 8.88726 4.45898C9.3325 4.15299 9.90903 4 10.6168 4C11.279 4 11.7984 4.12946 12.1752 4.38837C12.5633 4.63551 12.8145 4.96504 12.9286 5.37695C13.0428 5.78885 13.02 6.24195 12.8601 6.73624L11.4559 7.01869C11.9583 5.38283 11.6786 4.5649 10.6168 4.5649C10.32 4.5649 10.0574 4.63551 9.82911 4.77674C9.60078 4.9062 9.401 5.14746 9.22975 5.50052C9.05851 5.84181 8.9158 6.3361 8.80164 6.98339L8.67024 8H12L11.0486 8.98073Z" fill="#1C1B1F"/>
</g>
</svg>
