<svg width="24" height="24" viewBox="0 0 24 24" fill="none" xmlns="http://www.w3.org/2000/svg">
<mask id="mask0_389_699" style="mask-type:alpha" maskUnits="userSpaceOnUse" x="0" y="0" width="24" height="24">
<rect width="24" height="24" fill="#D9D9D9"/>
</mask>
<g mask="url(#mask0_389_699)">
<path fill-rule="evenodd" clip-rule="evenodd" d="M9.93645 5L5 18H6.13076L7.53052 14H13.4455L14.173 16.1408C14.1933 16.0879 14.2153 16.0354 14.239 15.9835C14.3984 15.6354 14.6105 15.3231 14.8752 15.0465L14.8843 15.0378L11.1034 5H9.93645ZM13.1288 13H7.89936L10.4419 6.323H10.506L13.1288 13Z" fill="#1C1B1F"/>
<path d="M17.5469 20.5156C16.7122 20.5156 16.0036 20.2359 15.4209 19.6763C14.8382 19.1168 14.5469 18.4276 14.5469 17.6087C14.5469 17.2171 14.6266 16.8472 14.7859 16.4991C14.9453 16.1511 15.1573 15.8387 15.4221 15.5622L17.5469 13.5156L19.6716 15.5622C19.9364 15.8387 20.1485 16.1511 20.3078 16.4991C20.4672 16.8472 20.5469 17.2171 20.5469 17.6087C20.5469 18.4276 20.2555 19.1168 19.6728 19.6763C19.0902 20.2359 18.3815 20.5156 17.5469 20.5156ZM15.0051 17.9879H20.0837C20.1694 17.4823 20.1198 17.0478 19.9349 16.6843C19.75 16.3208 19.5612 16.0477 19.3683 15.8652L17.5469 14.0957L15.7254 15.8652C15.5326 16.0477 15.3447 16.3208 15.1617 16.6843C14.9787 17.0478 14.9266 17.4823 15.0051 17.9879Z" fill="#5C89FF"/>
</g>
</svg>
