<svg xmlns="http://www.w3.org/2000/svg" width="20" height="20" fill="none" viewBox="0 0 20 20">
  <path fill="#000" d="M9.646 5.146a.5.5 0 0 1 .708 0l2 2a.5.5 0 0 1-.708.708L10 6.207 8.354 7.854a.5.5 0 1 1-.708-.708l2-2Z"/>
  <path fill="#000" fill-rule="evenodd" d="M7.485 13.696a5.245 5.245 0 0 1-.87.776 2.94 2.94 0 0 1-.833.407 3.28 3.28 0 0 1-.92.121c-.322 0-.6-.05-.833-.152a1.674 1.674 0 0 1-.582-.424 1.797 1.797 0 0 1-.337-.643 2.878 2.878 0 0 1-.11-.813c0-.433.078-.896.233-1.39a4.06 4.06 0 0 1 .717-1.334 3.26 3.26 0 0 1 1.146-.916A3.173 3.173 0 0 1 6.517 9c.494 0 .864.1 1.11.297.248.198.373.508.373.928 0 .688-.327 1.204-.98 1.548-.65.343-1.616.515-2.899.515a3.983 3.983 0 0 0-.073.789c0 .425.084.734.251.928.167.19.441.285.821.285.376 0 .717-.08 1.023-.242.307-.162.627-.411.962-.747l.38.395Zm-3.26-1.923a8.51 8.51 0 0 0 .987-.061c.286-.04.531-.093.735-.158.205-.069.374-.15.509-.243s.24-.194.319-.303a.987.987 0 0 0 .165-.352c.033-.125.049-.255.049-.388 0-.247-.06-.439-.178-.576-.114-.142-.286-.213-.514-.213-.286 0-.568.103-.846.31a2.86 2.86 0 0 0-.73.825c-.208.343-.373.73-.496 1.159Z" clip-rule="evenodd"/>
  <path fill="#000" d="M14.532 11.874c.86-.845 1.682-1.7 2.468-2.566L16.878 9h-1.732l-.067.308c.26.033.39.165.39.395a.99.99 0 0 1-.043.289 1.38 1.38 0 0 1-.152.313 3.903 3.903 0 0 1-.377.477 9.422 9.422 0 0 1-.566.584L13.523 9h-1.514l-.067.308a.955.955 0 0 1 .371.087.63.63 0 0 1 .231.189c.069.08.14.194.213.345.073.146.168.362.286.646l.577 1.4A54.491 54.491 0 0 0 11 14.693l.116.307h1.732l.067-.307c-.142-.026-.243-.07-.304-.132a.37.37 0 0 1-.085-.258c0-.083.008-.165.024-.244.02-.08.06-.174.122-.283.06-.109.166-.25.316-.427.15-.18.304-.347.462-.502.162-.159.292-.282.389-.37L14.684 15h1.514l.066-.307a1.303 1.303 0 0 1-.346-.082.861.861 0 0 1-.219-.17 1.813 1.813 0 0 1-.243-.376c-.09-.176-.209-.448-.359-.816l-.565-1.375Z"/>
</svg>
