<svg width="24" height="24" viewBox="0 0 24 24" fill="none" xmlns="http://www.w3.org/2000/svg">
<mask id="mask0_365_1835" style="mask-type:alpha" maskUnits="userSpaceOnUse" x="0" y="0" width="24" height="24">
<rect width="24" height="24" fill="#D9D9D9"/>
</mask>
<g mask="url(#mask0_365_1835)">
<path d="M12 17H12.9629L13.0278 10H11.9722L12 17ZM12.5034 21C11.1898 21 9.9547 20.7507 8.79817 20.2521C7.64181 19.7536 6.63586 19.077 5.78033 18.2223C4.92481 17.3677 4.24758 16.3626 3.74865 15.2071C3.24955 14.0518 3 12.8172 3 11.5034C3 10.1898 3.24929 8.9547 3.74786 7.79817C4.24644 6.64181 4.92305 5.63586 5.77769 4.78033C6.63234 3.92481 7.63741 3.24758 8.79289 2.74865C9.94819 2.24955 11.1828 2 12.4966 2C13.8102 2 15.0453 2.24929 16.2018 2.74786C17.3582 3.24644 18.3641 3.92305 19.2197 4.77769C20.0752 5.63234 20.7524 6.63741 21.2513 7.79289C21.7505 8.94819 22 10.1828 22 11.4966C22 12.8102 21.7507 14.0453 21.2521 15.2018C20.7536 16.3582 20.077 17.3641 19.2223 18.2197C18.3677 19.0752 17.3626 19.7524 16.2071 20.2513C15.0518 20.7505 13.8172 21 12.5034 21ZM12.5 19.9444C14.8574 19.9444 16.8542 19.1264 18.4903 17.4903C20.1264 15.8542 20.9444 13.8574 20.9444 11.5C20.9444 9.14259 20.1264 7.14583 18.4903 5.50972C16.8542 3.87361 14.8574 3.05556 12.5 3.05556C10.1426 3.05556 8.14583 3.87361 6.50972 5.50972C4.87361 7.14583 4.05556 9.14259 4.05556 11.5C4.05556 13.8574 4.87361 15.8542 6.50972 17.4903C8.14583 19.1264 10.1426 19.9444 12.5 19.9444Z" fill="#1C1B1F"/>
<path d="M12.9628 8H11.9999L11.9722 7H13.0277L12.9628 8Z" fill="#1C1B1F"/>
</g>
</svg>
