<svg width="28" height="28" viewBox="0 0 28 28" fill="none" xmlns="http://www.w3.org/2000/svg">
<path fill-rule="evenodd" clip-rule="evenodd" d="M10 3H22C22.6 3 23 3.4 23 4V9H22V4H10V3ZM12 6H20V7H12V6ZM8 16V15H16V16H8ZM20 9H13V10H20V9ZM14 12H18V13H14V12ZM14 18H8V19H14V18ZM8 21H13V22H8V21ZM22 24H6V9H5V24C5 24.6 5.4 25 6 25H22C22.6 25 23 24.6 23 24V18H22V24ZM17 22.0999H15.8L15.3 20.9999L19.7 13.8999L21.4 14.9999L17 22.0999ZM20.196 13.0703L21.2466 11.3685L22.9484 12.4191L21.8978 14.1209L20.196 13.0703ZM12.5 13.1999L11.9 14.1999H10.7L6.69995 6.8999L8.39995 5.8999L12.5 13.1999ZM5.21533 4.20312L6.96033 3.22572L7.93773 4.97073L6.19273 5.94812L5.21533 4.20312Z" fill="black"/>
</svg>
