<svg width="60" height="60" viewBox="0 0 60 60" fill="none" xmlns="http://www.w3.org/2000/svg">
<mask id="mask0_695_1322" style="mask-type:alpha" maskUnits="userSpaceOnUse" x="0" y="0" width="60" height="60">
<rect width="60" height="60" fill="#D9D9D9"/>
</mask>
<g mask="url(#mask0_695_1322)">
<path d="M34 32V30H42.21L38.9847 26.5398L40.4174 25L46 31.0003L40.4174 37L38.9847 35.4602L42.2105 32H34Z" fill="#1C1B1F"/>
<path d="M28 32V30H19.79L23.0153 26.5398L21.5826 25L16 31.0003L21.5826 37L23.0153 35.4602L19.7895 32H28Z" fill="#1C1B1F"/>
<path d="M30 26L32 26L32 17.79L35.4602 21.0153L37 19.5826L30.9997 14L25 19.5826L26.5398 21.0153L30 17.7895L30 26Z" fill="#1C1B1F"/>
<path d="M30 36L32 36L32 44.21L35.4602 40.9847L37 42.4174L30.9997 48L25 42.4174L26.5398 40.9847L30 44.2105L30 36Z" fill="#1C1B1F"/>
<path d="M17.231 50C16.3103 50 15.5417 49.6917 14.925 49.075C14.3083 48.4583 14 47.6897 14 46.769V15.231C14 14.3103 14.3083 13.5417 14.925 12.925C15.5417 12.3083 16.3103 12 17.231 12H44.769C45.6897 12 46.4583 12.3083 47.075 12.925C47.6917 13.5417 48 14.3103 48 15.231V46.769C48 47.6897 47.6917 48.4583 47.075 49.075C46.4583 49.6917 45.6897 50 44.769 50H17.231ZM17.231 48H44.769C45.077 48 45.3592 47.8718 45.6155 47.6155C45.8718 47.3592 46 47.077 46 46.769V15.231C46 14.923 45.8718 14.6408 45.6155 14.3845C45.3592 14.1282 45.077 14 44.769 14H17.231C16.923 14 16.6408 14.1282 16.3845 14.3845C16.1282 14.6408 16 14.923 16 15.231V46.769C16 47.077 16.1282 47.3592 16.3845 47.6155C16.6408 47.8718 16.923 48 17.231 48Z" fill="#1C1B1F"/>
</g>
</svg>
