<svg width="24" height="24" viewBox="0 0 24 24" fill="none" xmlns="http://www.w3.org/2000/svg">
<mask id="mask0_389_680" style="mask-type:alpha" maskUnits="userSpaceOnUse" x="0" y="0" width="24" height="24">
<rect width="24" height="24" fill="#D9D9D9"/>
</mask>
<g mask="url(#mask0_389_680)">
<path d="M1 21V17H3V7H1V3H5V5H19V3H23V7H21V17H23V21H19V19H5V21H1ZM5 18H19V17H20V7H19V6H5V7H4V17H5V18ZM2 6H4V4H2V6ZM20 6H22V4H20V6ZM20 20H22V18H20V20ZM2 20H4V18H2V20Z" fill="#1C1B1F"/>
<path fill-rule="evenodd" clip-rule="evenodd" d="M6 8H11V9H9V15H11V16H6V15H8V9H6V8Z" fill="#5C89FF"/>
</g>
</svg>
