<svg width="60" height="60" viewBox="0 0 60 60" fill="none" xmlns="http://www.w3.org/2000/svg">
<mask id="mask0_696_1361" style="mask-type:alpha" maskUnits="userSpaceOnUse" x="0" y="0" width="60" height="60">
<rect width="60" height="60" fill="#D9D9D9"/>
</mask>
<g mask="url(#mask0_696_1361)">
<path d="M17.231 48C16.3103 48 15.5417 47.6917 14.925 47.075C14.3083 46.4583 14 45.6897 14 44.769V15.231C14 14.3103 14.3083 13.5417 14.925 12.925C15.5417 12.3083 16.3103 12 17.231 12H33L42 21V28H40V22H32V14H17.231C16.923 14 16.6408 14.1282 16.3845 14.3845C16.1282 14.6408 16 14.923 16 15.231V44.769C16 45.077 16.1282 45.3592 16.3845 45.6155C16.6408 45.8718 16.923 46 17.231 46H24V48H17.231Z" fill="#1C1B1F"/>
<path d="M44 38V34H34V38H32V32H46V38H44ZM44 50V46H34V50H44ZM46 52H32V48H28V40.4662C28 39.7884 28.2293 39.2102 28.6879 38.7314C29.1464 38.2527 29.7078 38.0133 30.3719 38.0133H47.6281C48.2835 38.0133 48.8427 38.2527 49.3056 38.7314C49.7685 39.2102 50 39.7884 50 40.4662V48H46V52ZM48.0338 46V41.2407C48.0338 40.8896 47.909 40.5957 47.6593 40.359C47.4096 40.1223 47.1184 40.004 46.7855 40.004H31.1496C30.8136 40.004 30.5319 40.1228 30.3045 40.3603C30.0773 40.5978 29.9637 40.8922 29.9637 41.2433V46H32V44H46V46H48.0338Z" fill="#1C1B1F"/>
</g>
</svg>
