<svg width="20" height="20" viewBox="0 0 20 20" fill="none" xmlns="http://www.w3.org/2000/svg">
<path fill-rule="evenodd" clip-rule="evenodd" d="M6.41406 16.0001C5.88363 16.0001 5.37492 15.7894 4.99985 15.4143L3.49985 13.9143C2.7188 13.1333 2.7188 11.8669 3.49985 11.0859L10.0856 4.50009C10.8667 3.71904 12.133 3.71905 12.9141 4.50009L15.4998 7.08588C16.2809 7.86693 16.2809 9.13326 15.4998 9.91431L10.4141 15.0001H14.9998V16.0001H6.41406ZM8.99985 15.0001L13.0013 10.9987L9.00128 6.99867L4.20696 11.793C3.81643 12.1835 3.81643 12.8167 4.20696 13.2072L5.70696 14.7072C5.89449 14.8947 6.14885 15.0001 6.41406 15.0001L8.99985 15.0001ZM12.207 5.2072C11.8164 4.81668 11.1833 4.81668 10.7927 5.2072L9.70838 6.29156L13.7084 10.2916L14.7927 9.2072C15.1833 8.81668 15.1833 8.18351 14.7927 7.79299L12.207 5.2072Z" fill="black"/>
</svg>
