<svg width="60" height="60" viewBox="0 0 60 60" fill="none" xmlns="http://www.w3.org/2000/svg">
<mask id="mask0_696_1327" style="mask-type:alpha" maskUnits="userSpaceOnUse" x="0" y="0" width="60" height="60">
<rect width="60" height="60" transform="matrix(1 0 0 -1 0 60)" fill="#D9D9D9"/>
</mask>
<g mask="url(#mask0_696_1327)">
<path d="M28 20H20.154C17.898 20 15.975 20.8773 14.385 22.6319C12.795 24.3865 12 26.5085 12 28.9978C12 31.4871 12.795 33.6098 14.385 35.3659C15.975 37.122 17.898 38 20.154 38H28V36H20C18.3077 36 16.8588 35.3348 15.6535 34.0044C14.4485 32.6744 14 30.8679 14 29C14 27.1321 14.6025 25.3256 15.8075 23.9956C17.0128 22.6652 18.4617 22 20.154 22H28V20ZM22 28V30H38V28H22Z" fill="#1C1B1F"/>
<path d="M32 20H39.846C42.102 20 44.025 20.8773 45.615 22.6319C47.205 24.3865 48 26.5085 48 28.9978C48 31.4871 47.205 33.6098 45.615 35.3659C44.025 37.122 42.102 38 39.846 38H32V36H40C41.6923 36 43.1412 35.3348 44.3465 34.0044C45.5515 32.6744 46 30.8679 46 29C46 27.1321 45.3975 25.3256 44.1925 23.9956C42.9872 22.6652 41.5383 22 39.846 22H32V20Z" fill="#1C1B1F"/>
</g>
</svg>
