<svg width="20" height="20" viewBox="0 0 20 20" fill="none" xmlns="http://www.w3.org/2000/svg">
<path fill-rule="evenodd" clip-rule="evenodd" d="M6 15H5H4L4 3H9V4V5C9 5.55228 9.44772 6 10 6H11H12V8H13V5.41421C13 5.149 12.8946 4.89464 12.7071 4.70711L10.2929 2.29289C10.1054 2.10536 9.851 2 9.58579 2H4C3.44772 2 3 2.44772 3 3V15C3 15.5523 3.44772 16 4 16H5H6V15ZM11.5858 5L10 3.41421V4V5H11H11.5858ZM10 10H15V11H10V10ZM9 11V10C9 9.44772 9.44772 9 10 9H15C15.5523 9 16 9.44772 16 10V11H17C17.5523 11 18 11.4477 18 12V16C18 16.5523 17.5523 17 17 17H16V18C16 18.5523 15.5523 19 15 19H10C9.44772 19 9 18.5523 9 18V17H8C7.44771 17 7 16.5523 7 16V12C7 11.4477 7.44772 11 8 11H9ZM17 16H16C16 15.4477 15.5523 15 15 15H10C9.44772 15 9 15.4477 9 16H8L8 12H10H15H17V16ZM15 18V17V16H10V17V18H15ZM10 13H9V14H10V13Z" fill="black"/>
</svg>
