<svg width="60" height="60" viewBox="0 0 60 60" fill="none" xmlns="http://www.w3.org/2000/svg">
<mask id="mask0_695_1297" style="mask-type:alpha" maskUnits="userSpaceOnUse" x="0" y="0" width="60" height="60">
<rect width="60" height="60" fill="#D9D9D9"/>
</mask>
<g mask="url(#mask0_695_1297)">
<path fill-rule="evenodd" clip-rule="evenodd" d="M14.925 47.075C15.5417 47.6917 16.3103 48 17.231 48H42.769C43.6897 48 44.4583 47.6917 45.075 47.075C45.6917 46.4583 46 45.6897 46 44.769V19.231C46 18.3103 45.6917 17.5417 45.075 16.925C44.4583 16.3083 43.6897 16 42.769 16H24V18H42.769C43.077 18 43.3592 18.1282 43.6155 18.3845C43.8718 18.6408 44 18.923 44 19.231V44.769C44 45.077 43.8718 45.3592 43.6155 45.6155C43.3592 45.8718 43.077 46 42.769 46H17.231C16.923 46 16.6408 45.8718 16.3845 45.6155C16.1282 45.3592 16 45.077 16 44.769V26H14V44.769C14 45.6897 14.3083 46.4583 14.925 47.075Z" fill="#1C1B1F"/>
<rect x="24" y="16" width="2" height="32" fill="#1C1B1F"/>
<rect x="14" y="38" width="2" height="32" transform="rotate(-90 14 38)" fill="#1C1B1F"/>
<rect x="34" y="16" width="2" height="32" fill="#1C1B1F"/>
<rect x="14" y="28" width="2" height="32" transform="rotate(-90 14 28)" fill="#1C1B1F"/>
<path d="M22 16V14H8V16H22Z" fill="#5C89FF"/>
</g>
</svg>
