<svg width="60" height="60" viewBox="0 0 60 60" fill="none" xmlns="http://www.w3.org/2000/svg">
<mask id="mask0_696_1421" style="mask-type:alpha" maskUnits="userSpaceOnUse" x="0" y="0" width="60" height="60">
<rect width="60" height="60" fill="#D9D9D9"/>
</mask>
<g mask="url(#mask0_696_1421)">
<path d="M26.0951 47.8936C25.8584 47.8299 25.6793 47.6927 25.5576 47.482C25.436 47.2713 25.4044 47.0434 25.4628 46.7985L35.2025 10.6696C35.2743 10.4283 35.4156 10.2468 35.6263 10.1251C35.8371 10.0035 36.0608 9.97422 36.2975 10.0374C36.5342 10.1011 36.7133 10.2383 36.835 10.449C36.9566 10.6597 36.9882 10.8875 36.9298 11.1324L27.1901 47.2614C27.1183 47.5027 26.977 47.6842 26.7663 47.8058C26.5555 47.9275 26.3318 47.9568 26.0951 47.8936Z" fill="#1C1B1F"/>
</g>
</svg>
