<svg xmlns="http://www.w3.org/2000/svg" width="20" height="20" fill="none" viewBox="0 0 20 20">
  <path fill="#000" fill-rule="evenodd" d="M7 5H4.293L3 6.293V11h1V9h2v2h1V5ZM6 8V6H4.707L4 6.707V8h2Zm5.207-3H8v6h3.207l.793-.793V7.793l-.293-.293.293-.293V5.793L11.207 5ZM9 10V8h1.793l.207.207v1.586l-.207.207H9Zm1.793-3H9V6h1.793l.207.207v.586L10.793 7Z" clip-rule="evenodd"/>
  <path fill="#000" d="M13.793 5 13 5.793v4.414l.446.446c.275-.238.54-.455.793-.653h-.032L14 9.793V6.207L14.207 6h1.586l.207.207V7h1V5.793L16.207 5h-2.414Z"/>
  <path fill="#000" d="M8.5 12.5s2 2 3 4.5c2-4 6.5-8 6.5-8s-2.5.5-6.5 5c-1.5-1.5-3-1.5-3-1.5Z"/>
</svg>
