<svg width="60" height="60" viewBox="0 0 60 60" fill="none" xmlns="http://www.w3.org/2000/svg">
<mask id="mask0_695_1250" style="mask-type:alpha" maskUnits="userSpaceOnUse" x="0" y="0" width="60" height="60">
<rect width="60" height="60" transform="matrix(1 0 0 -1 0 60)" fill="#D9D9D9"/>
</mask>
<g mask="url(#mask0_695_1250)">
<path d="M28 20H20.154C17.898 20 15.975 20.8773 14.385 22.6319C12.795 24.3865 12 26.5085 12 28.9978C12 31.4871 12.795 33.6098 14.385 35.3659C15.975 37.122 17.898 38 20.154 38H28V36H20C18.3077 36 16.8588 35.3348 15.6535 34.0044C14.4485 32.6744 14 30.8679 14 29C14 27.1321 14.6025 25.3256 15.8075 23.9956C17.0128 22.6652 18.4617 22 20.154 22H28V20ZM22 28V30H38V28H22ZM48 30H46C46 31.8679 45.3975 32.6744 44.1925 34.0044C42.9872 35.3348 41.5383 36 39.846 36H32V38H39.846C42.102 38 44.025 37.1225 45.615 35.3675C47.205 33.6126 48 32.4901 48 30Z" fill="#1C1B1F"/>
<path d="M40 26V20H34V18H40V12H42V18H48V20H42V26H40Z" fill="#5C89FF"/>
</g>
</svg>
