<svg xmlns="http://www.w3.org/2000/svg" width="20" height="20" fill="none" viewBox="0 0 20 20">
  <path fill="#000" fill-rule="evenodd" d="M12.087 14.281c.609-.479.913-1.146.913-2.002 0-.495-.105-.921-.314-1.278H16v-1h-4.452a8.719 8.719 0 0 0-1.176-.517c-.596-.217-1.04-.414-1.33-.592-.288-.182-.492-.379-.614-.592-.121-.217-.182-.495-.182-.832 0-.456.165-.814.495-1.07.33-.258.79-.387 1.376-.387.744 0 1.51.169 2.296.506l.346-.985C11.963 5.177 11.09 5 10.143 5c-.908 0-1.639.222-2.19.665-.553.444-.83 1.04-.83 1.79 0 .714.19 1.293.568 1.737.256.296.624.566 1.105.809H4v1h7.076c.279.17.479.357.6.56.135.212.202.487.202.824 0 .51-.187.91-.56 1.198-.374.284-.931.426-1.67.426-.452 0-.909-.05-1.37-.147A6.773 6.773 0 0 1 7 13.463v1.091c.609.297 1.478.446 2.609.446 1.043 0 1.87-.24 2.478-.719Z" clip-rule="evenodd"/>
</svg>
