<svg width="60" height="60" viewBox="0 0 60 60" fill="none" xmlns="http://www.w3.org/2000/svg">
<mask id="mask0_696_1356" style="mask-type:alpha" maskUnits="userSpaceOnUse" x="0" y="0" width="60" height="60">
<rect width="60" height="60" fill="#D9D9D9"/>
</mask>
<g mask="url(#mask0_696_1356)">
<path d="M45.9403 46C44.8135 46 43.8752 45.6501 43.1254 44.9504C42.3751 44.2503 42 43.3925 42 42.377C42 41.6091 42.1845 40.8672 42.5534 40.1515C42.9224 39.4358 43.3992 38.765 43.9839 38.1392L45.9403 36L48.0161 38.1392C48.5916 38.765 49.0661 39.4358 49.4394 40.1515C49.8131 40.8672 50 41.6091 50 42.377C50 43.3925 49.605 44.2503 48.8149 44.9504C48.0253 45.6501 47.0671 46 45.9403 46Z" fill="#5C89FF"/>
<path d="M24.8771 45.0769L14.4231 34.6229C14.1155 34.3123 13.8848 33.9704 13.7311 33.5974C13.5771 33.2248 13.5001 32.8384 13.5001 32.4384C13.5001 32.0384 13.5771 31.6538 13.7311 31.2844C13.8848 30.9154 14.1155 30.5769 14.4231 30.2689L25.5386 19.1654L19.7771 13.5574L21.3386 11.9614L39.6501 30.3104C39.9551 30.6161 40.1826 30.9544 40.3326 31.3254C40.4826 31.6961 40.5576 32.0821 40.5576 32.4834C40.5576 32.8851 40.4826 33.2713 40.3326 33.6419C40.1826 34.0126 39.9538 34.3524 39.6461 34.6614L29.2311 45.0769C28.9231 45.3846 28.5846 45.6153 28.2156 45.7689C27.8463 45.9229 27.4616 45.9999 27.0616 45.9999C26.6616 45.9999 26.2753 45.9229 25.9026 45.7689C25.5296 45.6153 25.1878 45.3846 24.8771 45.0769ZM27.0346 20.6614L16.1041 31.5924C15.9501 31.7461 15.797 31.9688 15.797 31.9688H38.297C38.297 31.9688 38.1193 31.7461 37.9656 31.5924L27.0346 20.6614Z" fill="#1C1B1F"/>
<path d="M14.423 34.6229L24.877 45.0769C25.1877 45.3846 25.5295 45.6153 25.9025 45.7689C26.2752 45.9229 26.6615 45.9999 27.0615 45.9999C27.4615 45.9999 27.8462 45.9229 28.2155 45.7689C28.5845 45.6153 28.923 45.3846 29.231 45.0769L39.646 34.6614C39.9537 34.3524 40.1825 34.0126 40.3325 33.6419C40.4825 33.2713 40.5575 32.8851 40.5575 32.4834C40.5575 32.3197 40.545 32.1586 40.5201 32H13.5317C13.5106 32.144 13.5 32.2902 13.5 32.4384C13.5 32.8384 13.577 33.2248 13.731 33.5974C13.8847 33.9704 14.1153 34.3123 14.423 34.6229Z" fill="#5C89FF"/>
<path d="M21.377 12L21.3385 11.9614L21.3008 12H21.377Z" fill="#5C89FF"/>
</g>
</svg>
