<svg width="20" height="20" viewBox="0 0 20 20" fill="none" xmlns="http://www.w3.org/2000/svg">
<path d="M12.5 17.5H7.5V18C7.5 18.2761 7.72386 18.5 8 18.5H12C12.2761 18.5 12.5 18.2761 12.5 18V17.5ZM7.5 16.5H12.5V15.5H7.5V16.5ZM15.5 8C15.5 4.96243 13.0376 2.5 10 2.5C6.96243 2.5 4.5 4.96243 4.5 8C4.5 9.65629 5.23136 11.1413 6.39062 12.1504C6.99689 12.678 7.49989 13.4451 7.5 14.3506V14.5H9.5V10.207L7.64648 8.35352L7.58203 8.27539C7.45387 8.08131 7.47562 7.81735 7.64648 7.64648C7.81735 7.47562 8.08131 7.45387 8.27539 7.58203L8.35352 7.64648L10 9.29297L11.6465 7.64648C11.8417 7.45122 12.1583 7.45122 12.3535 7.64648C12.5488 7.84175 12.5488 8.15825 12.3535 8.35352L10.5 10.207V14.5H12.5V14.3506C12.5001 13.4451 13.0031 12.678 13.6094 12.1504C14.7686 11.1413 15.5 9.65629 15.5 8ZM16.5 8C16.5 9.9578 15.634 11.7143 14.2656 12.9053C13.7951 13.3149 13.5001 13.8284 13.5 14.3506V18C13.5 18.8284 12.8284 19.5 12 19.5H8C7.17157 19.5 6.5 18.8284 6.5 18V14.3506C6.49989 13.8284 6.20494 13.3149 5.73438 12.9053C4.36602 11.7143 3.5 9.9578 3.5 8C3.5 4.41015 6.41015 1.5 10 1.5C13.5899 1.5 16.5 4.41015 16.5 8Z" fill="black"/>
</svg>
