<svg width="24" height="24" viewBox="0 0 24 24" fill="none" xmlns="http://www.w3.org/2000/svg">
<mask id="mask0_365_2228" style="mask-type:alpha" maskUnits="userSpaceOnUse" x="0" y="0" width="24" height="24">
<rect width="24" height="24" fill="#D9D9D9"/>
</mask>
<g mask="url(#mask0_365_2228)">
<path d="M8.5 21C6.97467 21 5.67667 20.4647 4.606 19.394C3.53533 18.3233 3 17.0253 3 15.5C3 13.9745 3.53533 12.6764 4.606 11.6058C5.67667 10.5353 6.97467 10 8.5 10C10.0255 10 11.3236 10.5353 12.3942 11.6058C13.4647 12.6764 14 13.9745 14 15.5C14 17.0253 13.4647 18.3233 12.3942 19.394C11.3236 20.4647 10.0255 21 8.5 21ZM8.5 20.0833C9.76806 20.0833 10.849 19.6365 11.7427 18.7427C12.6365 17.849 13.0833 16.7681 13.0833 15.5C13.0833 14.2319 12.6365 13.151 11.7427 12.2573C10.849 11.3635 9.76806 10.9167 8.5 10.9167C7.23194 10.9167 6.15104 11.3635 5.25729 12.2573C4.36354 13.151 3.91667 14.2319 3.91667 15.5C3.91667 16.7681 4.36354 17.849 5.25729 18.7427C6.15104 19.6365 7.23194 20.0833 8.5 20.0833Z" fill="#1C1B1F"/>
<path d="M15.5 21C13.9747 21 12.6767 20.4647 11.606 19.394C10.5353 18.3233 10 17.0253 10 15.5C10 13.9745 10.5353 12.6764 11.606 11.6058C12.6767 10.5353 13.9747 10 15.5 10C17.0255 10 18.3236 10.5353 19.3942 11.6058C20.4647 12.6764 21 13.9745 21 15.5C21 17.0253 20.4647 18.3233 19.3942 19.394C18.3236 20.4647 17.0255 21 15.5 21ZM15.5 20.0833C16.7681 20.0833 17.849 19.6365 18.7427 18.7427C19.6365 17.849 20.0833 16.7681 20.0833 15.5C20.0833 14.2319 19.6365 13.151 18.7427 12.2573C17.849 11.3635 16.7681 10.9167 15.5 10.9167C14.2319 10.9167 13.151 11.3635 12.2573 12.2573C11.3635 13.151 10.9167 14.2319 10.9167 15.5C10.9167 16.7681 11.3635 17.849 12.2573 18.7427C13.151 19.6365 14.2319 20.0833 15.5 20.0833Z" fill="#1C1B1F"/>
<path d="M12.5 15C10.9747 15 9.67667 14.4647 8.606 13.394C7.53533 12.3233 7 11.0253 7 9.5C7 7.97451 7.53533 6.67644 8.606 5.60577C9.67667 4.53526 10.9747 4 12.5 4C14.0255 4 15.3236 4.53526 16.3942 5.60577C17.4647 6.67644 18 7.97451 18 9.5C18 11.0253 17.4647 12.3233 16.3942 13.394C15.3236 14.4647 14.0255 15 12.5 15ZM12.5 14.0833C13.7681 14.0833 14.849 13.6365 15.7427 12.7427C16.6365 11.849 17.0833 10.7681 17.0833 9.5C17.0833 8.23195 16.6365 7.15104 15.7427 6.25729C14.849 5.36354 13.7681 4.91667 12.5 4.91667C11.2319 4.91667 10.151 5.36354 9.25729 6.25729C8.36354 7.15104 7.91667 8.23195 7.91667 9.5C7.91667 10.7681 8.36354 11.849 9.25729 12.7427C10.151 13.6365 11.2319 14.0833 12.5 14.0833Z" fill="#1C1B1F"/>
</g>
</svg>
