<svg width="60" height="60" viewBox="0 0 60 60" fill="none" xmlns="http://www.w3.org/2000/svg">
<mask id="mask0_696_1367" style="mask-type:alpha" maskUnits="userSpaceOnUse" x="0" y="0" width="60" height="60">
<rect width="60" height="60" fill="#D9D9D9"/>
</mask>
<g mask="url(#mask0_696_1367)">
<path d="M28 44V42H35.654C35.859 42 36.0448 41.9615 36.2115 41.8845C36.3782 41.8075 36.5257 41.6922 36.654 41.5385L45.5 30L36.654 18.4615C36.5257 18.3078 36.3782 18.1925 36.2115 18.1155C36.0448 18.0385 35.859 18 35.654 18H15.231C14.872 18 14.577 18.1153 14.346 18.346C14.1153 18.577 14 18.872 14 19.231V28H12V19.2115C12 18.3295 12.3163 17.5737 12.949 16.944C13.5817 16.3147 14.3423 16 15.231 16H35.654C36.1653 16 36.6498 16.111 37.1075 16.333C37.5652 16.555 37.9422 16.862 38.2385 17.254L48 30L38.2385 42.746C37.9422 43.138 37.5652 43.445 37.1075 43.667C36.6498 43.889 36.1653 44 35.654 44H28Z" fill="#1C1B1F"/>
<path d="M22.6569 46.0711L17 40.4142L11.3432 46.0711L9.92895 44.6569L15.5858 39L9.92895 33.3431L11.3432 31.9289L17 37.5858L22.6569 31.9289L24.0711 33.3431L18.4142 39L24.0711 44.6569L22.6569 46.0711Z" fill="#5C89FF"/>
</g>
</svg>
