<svg xmlns="http://www.w3.org/2000/svg" width="24" height="24" fill="none" viewBox="0 0 24 24">
    <path fill="currentColor" d="M9.5 4a5.499 5.499 0 0 1 5.477 5.021 5.5 5.5 0 0 0-5.956 5.956A5.499 5.499 0 0 1 9.501 4Z" class="icon-blue-secondary"/>
    <path stroke="currentColor" d="M14.5 9.5a5 5 0 1 1 0 10 5 5 0 0 1 0-10Z" class="icon-gray-secondary"/>
    <path fill="currentColor" d="M9.5 4a5.499 5.499 0 0 1 5.477 5.021 5.568 5.568 0 0 0-1.002.004 4.5 4.5 0 1 0-4.95 4.95 5.569 5.569 0 0 0-.004 1.002A5.499 5.499 0 0 1 9.501 4Z" class="icon-gray-primary"/>
</svg>
