<svg width="24" height="24" viewBox="0 0 24 24" fill="none" xmlns="http://www.w3.org/2000/svg">
<mask id="mask0_365_1863" style="mask-type:alpha" maskUnits="userSpaceOnUse" x="0" y="0" width="24" height="24">
<rect width="24" height="24" fill="#D9D9D9"/>
</mask>
<g mask="url(#mask0_365_1863)">
<path d="M19.4845 20.1538L13.223 13.8923C12.723 14.318 12.148 14.6475 11.498 14.8808C10.848 15.1141 10.1948 15.2308 9.53849 15.2308C7.93682 15.2308 6.58124 14.6764 5.47174 13.5675C4.36241 12.4587 3.80774 11.104 3.80774 9.50329C3.80774 7.90245 4.36216 6.54654 5.47099 5.43554C6.57982 4.3247 7.93457 3.76929 9.53524 3.76929C11.1361 3.76929 12.492 4.32395 13.603 5.43329C14.7138 6.54279 15.2692 7.89837 15.2692 9.50004C15.2692 10.1949 15.1462 10.8673 14.9 11.5173C14.6538 12.1673 14.3307 12.723 13.9307 13.1845L20.1922 19.4463L19.4845 20.1538ZM9.53849 14.2308C10.8653 14.2308 11.9855 13.774 12.899 12.8605C13.8125 11.9472 14.2692 10.827 14.2692 9.50004C14.2692 8.17304 13.8125 7.05287 12.899 6.13954C11.9855 5.22604 10.8653 4.76929 9.53849 4.76929C8.21149 4.76929 7.09132 5.22604 6.17799 6.13954C5.26449 7.05287 4.80774 8.17304 4.80774 9.50004C4.80774 10.827 5.26449 11.9472 6.17799 12.8605C7.09132 13.774 8.21149 14.2308 9.53849 14.2308Z" fill="#1C1B1F"/>
</g>
</svg>
