<svg width="60" height="60" viewBox="0 0 60 60" fill="none" xmlns="http://www.w3.org/2000/svg">
<mask id="mask0_695_1314" style="mask-type:alpha" maskUnits="userSpaceOnUse" x="0" y="0" width="60" height="60">
<rect width="60" height="60" fill="#D9D9D9"/>
</mask>
<g mask="url(#mask0_695_1314)">
<path d="M9.89575 41.9999L9.99996 39.9999H48V41.9999H9.89575ZM27.1081 30.059L25.6125 29.1802L27.5088 26H24V24H27.5088L25.6125 20.8008L27.1081 19.922L29.0044 23.1841L30.9007 19.922L32.3963 20.8008L30.5 24H34V26H30.5L32.3963 29.1802L30.9007 30.059L29.0044 26.6976L27.1081 30.059Z" fill="#1C1B1F"/>
<path d="M11.6125 29.1801L13.1081 30.0589L15.0044 26.6974L16.9007 30.0589L18.3963 29.1801L16.5 25.9999H20V23.9999H16.5L18.3963 20.8007L16.9007 19.9219L15.0044 23.184L13.1081 19.9219L11.6125 20.8007L13.5088 23.9999H10V25.9999H13.5088L11.6125 29.1801Z" fill="#1C1B1F"/>
<path d="M39.6125 29.1801L41.1081 30.0589L43.0044 26.6974L44.9007 30.0589L46.3963 29.1801L44.5 25.9999H48V23.9999H44.5L46.3963 20.8007L44.9007 19.9219L43.0044 23.184L41.1081 19.9219L39.6125 20.8007L41.5088 23.9999H38V25.9999H41.5088L39.6125 29.1801Z" fill="#1C1B1F"/>
</g>
</svg>
