<svg xmlns="http://www.w3.org/2000/svg" width="24" height="24" fill="none" viewBox="0 0 24 24">
  <path stroke="#383838" stroke-linecap="round" d="M9.5 12.504H7.65a.15.15 0 0 0-.15.15v2.848m2 2.998h-1a1 1 0 0 1-1-1v-1.998m0 0h-2a1 1 0 0 1-1-1V9.5a1 1 0 0 1 1-1h2m12 2v-1a1 1 0 0 0-1-1h-2m0 0v-2a1 1 0 0 0-1-1h-7a1 1 0 0 0-1 1v2m9 0h-9"/>
  <path fill="#3D59AF" d="M14.5 15.11a.5.5 0 0 0-.796.604l.796-.605Zm.777 1.848-.398.302.398-.302Zm.41-.018-.422-.267.423.267Zm2.338-2.76a.5.5 0 0 0-.845-.535l.845.534Zm.979 1.322a3.502 3.502 0 0 1-3.502 3.502v1a4.502 4.502 0 0 0 4.502-4.502h-1Zm-3.502 3.502A3.502 3.502 0 0 1 12 15.502h-1a4.502 4.502 0 0 0 4.502 4.502v-1ZM12 15.502A3.502 3.502 0 0 1 15.502 12v-1A4.502 4.502 0 0 0 11 15.502h1ZM15.502 12a3.502 3.502 0 0 1 3.502 3.502h1A4.502 4.502 0 0 0 15.502 11v1Zm-1.798 3.714 1.175 1.546.796-.605L14.5 15.11l-.796.605Zm2.406 1.493 1.915-3.028-.845-.534-1.915 3.028.845.534Zm-1.23.053a.75.75 0 0 0 1.23-.053l-.845-.534a.25.25 0 0 1 .41-.018l-.796.605Z"/>
</svg>
