<svg width="60" height="60" viewBox="0 0 60 60" fill="none" xmlns="http://www.w3.org/2000/svg">
<mask id="mask0_695_1266" style="mask-type:alpha" maskUnits="userSpaceOnUse" x="0" y="0" width="60" height="60">
<rect width="60" height="60" fill="#D9D9D9"/>
</mask>
<g mask="url(#mask0_695_1266)">
<path d="M20 42V16H29.3861C31.3539 16 33.133 16.6227 34.7236 17.8681C36.3138 19.1131 37.109 20.7899 37.109 22.8983C37.109 24.3648 36.7605 25.5603 36.0635 26.4849C35.3668 27.4094 34.6163 28.0805 33.8118 28.4982C34.8019 28.8451 35.7475 29.5313 36.6485 30.5566C37.5495 31.5819 38 32.9623 38 34.6979C38 37.206 37.0903 39.0501 35.2709 40.23C33.4516 41.41 31.6187 42 29.7723 42H20ZM24 38H29.6164C31.1362 38 32.2104 37.6618 32.8392 36.8039C33.468 35.9461 33.7824 35.2875 33.7824 34.5C33.7824 33.7125 33.468 32.7257 32.8392 31.8678C32.2104 31.01 31.1064 31 29.5271 31H24V38ZM24 27H29.1598C30.333 27 31.2631 26.4515 31.9501 25.7696C32.6368 25.0881 32.9802 24.451 32.9802 23.5C32.9802 22.4888 32.617 21.4831 31.8908 20.8414C31.1642 20.2001 30.2736 20 29.2191 20H24V27Z" fill="#1C1B1F"/>
</g>
</svg>
