<svg width="24" height="24" viewBox="0 0 24 24" fill="none" xmlns="http://www.w3.org/2000/svg">
<mask id="mask0_364_1612" style="mask-type:alpha" maskUnits="userSpaceOnUse" x="0" y="0" width="24" height="24">
<rect width="24" height="24" fill="#D9D9D9"/>
</mask>
<g mask="url(#mask0_364_1612)">
<path d="M16 20V19H20V20H16ZM16 15V14H20V15H16ZM16 10V9H20V10H16ZM16 5V4H20V5H16Z" fill="#1C1B1F"/>
<path d="M10 20V19H14V20H10ZM10 15V14H14V15H10ZM10 10V9H14V10H10ZM10 5V4H14V5H10Z" fill="#1C1B1F"/>
<path d="M4 20V19H8V20H4ZM4 15V14H8V15H4ZM4 10V9H8V10H4ZM4 5V4H8V5H4Z" fill="#1C1B1F"/>
</g>
</svg>
