<svg width="60" height="60" viewBox="0 0 60 60" fill="none" xmlns="http://www.w3.org/2000/svg">
<mask id="mask0_696_1344" style="mask-type:alpha" maskUnits="userSpaceOnUse" x="0" y="0" width="60" height="60">
<rect width="60" height="60" fill="#D9D9D9"/>
</mask>
<g mask="url(#mask0_696_1344)">
<path d="M42 30V28H48V30H42ZM44 44L38 40L40 38L44 42V44ZM40 20L38 18L44 14V16L40 20ZM16 42V34C14 34 14 34 12 34C12 34 12 32.8947 12 32C12 31.1053 12 26.8947 12 26C12 25.1053 12 24 12 24C12 24 14.4379 24 16 24C18.3431 24 22 24 22 24L30 19V39L22 34H20V42H16ZM28 36V22L24 26C24 26 16.3025 26 16 26C15.6975 26 14 26 14 26V32H16H24L28 36ZM34 36V22L36 24C36 24 36 28.7873 36 30C36 31.2127 36 34 36 34L34 36Z" fill="#1C1B1F"/>
</g>
</svg>
