<svg xmlns="http://www.w3.org/2000/svg" width="20" height="20" fill="none" viewBox="0 0 20 20">
  <mask id="a" fill="#fff">
    <path fill-rule="evenodd" d="M7 12V7.62l3.5-4.083L14 7.62V15h-4v1h5V7.25l-3.841-4.482L10.5 2l-.659.768L6 7.25V12h1Zm-3 3h2v-2h1v2h2v1H7v2H6v-2H4v-1Zm4-1V8.297l2.5-3 2.5 3V14H8Z" clip-rule="evenodd"/>
  </mask>
  <path fill="#000" fill-rule="evenodd" d="M7 12V7.62l3.5-4.083L14 7.62V15h-4v1h5V7.25l-3.841-4.482L10.5 2l-.659.768L6 7.25V12h1Zm-3 3h2v-2h1v2h2v1H7v2H6v-2H4v-1Zm4-1V8.297l2.5-3 2.5 3V14H8Z" clip-rule="evenodd"/>
  <path fill="#000" d="m7 7.62-.76-.65-.24.28v.37h1ZM7 12v1h1v-1H7Zm3.5-8.463.76-.651L10.5 2l-.76.886.76.65ZM14 7.62h1v-.37l-.24-.28-.76.65ZM14 15v1h1v-1h-1Zm-4 0v-1H9v1h1Zm0 1H9v1h1v-1Zm5 0v1h1v-1h-1Zm0-8.75h1v-.37l-.24-.28-.76.65Zm-3.841-4.482-.76.651.76-.65ZM10.5 2l.76-.65-.76-.887-.76.886.76.651Zm-.659.768.76.651-.76-.65ZM6 7.25l-.76-.65-.24.28v.37h1ZM6 12H5v1h1v-1Zm0 3v1h1v-1H6Zm-2 0v-1H3v1h1Zm2-2v-1H5v1h1Zm1 0h1v-1H7v1Zm0 2H6v1h1v-1Zm2 0h1v-1H9v1Zm0 1v1h1v-1H9Zm-2 0v-1H6v1h1Zm0 2v1h1v-1H7Zm-1 0H5v1h1v-1Zm0-2h1v-1H6v1Zm-2 0H3v1h1v-1Zm4-7.703-.768-.64L7 7.935v.362h1ZM8 14H7v1h1v-1Zm2.5-8.703.768-.64-.768-.922-.768.922.768.64Zm2.5 3h1v-.362l-.232-.278-.768.64ZM13 14v1h1v-1h-1ZM6 7.62V12h2V7.62H6Zm3.74-4.734-3.5 4.083 1.52 1.302 3.5-4.084-1.52-1.301Zm5.02 4.083-3.5-4.083-1.52 1.301 3.5 4.084 1.52-1.302ZM15 15V7.62h-2V15h2Zm-5 1h4v-2h-4v2Zm1 0v-1H9v1h2Zm3-1h-4v2h4v-2Zm1 0h-1v2h1v-2Zm-1 0v1h2v-1h-2Zm0-7.75V15h2V7.25h-2Zm-3.6-3.83 3.84 4.48 1.52-1.3-3.842-4.482-1.519 1.301Zm-.66-.77.66.77 1.518-1.302-.659-.769-1.518 1.302Zm.86.77.66-.77-1.52-1.3-.658.768 1.519 1.301ZM6.76 7.9l3.84-4.48-1.518-1.302-3.841 4.481 1.518 1.302ZM7 12V7.25H5V12h2Zm0-1H6v2h1v-2Zm-1 3H4v2h2v-2Zm1 1v-2H5v2h2Zm-1-1h1v-2H6v2Zm0-1v2h2v-2H6Zm3 1H7v2h2v-2Zm1 2v-1H8v1h2Zm-3 1h2v-2H7v2Zm-1-1v2h2v-2H6Zm1 1H6v2h1v-2Zm0 1v-2H5v2h2Zm-3-1h2v-2H4v2Zm-1-2v1h2v-1H3Zm4-6.703V14h2V8.297H7Zm2.732-3.64-2.5 3 1.536 1.28 2.5-3-1.536-1.28Zm4.036 3-2.5-3-1.536 1.28 2.5 3 1.536-1.28ZM14 14V8.297h-2V14h2Zm-6 1h5v-2H8v2Z" mask="url(#a)"/>
</svg>
