<svg width="20" height="20" viewBox="0 0 20 20" fill="none" xmlns="http://www.w3.org/2000/svg">
<rect x="15.5" y="3.5" width="2" height="2" transform="rotate(90 15.5 3.5)" stroke="black"/>
<rect x="5.5" y="3.5" width="2" height="2" transform="rotate(90 5.5 3.5)" stroke="black"/>
<rect x="15.5" y="14.5" width="2" height="2" transform="rotate(90 15.5 14.5)" stroke="black"/>
<rect x="5.5" y="14.5" width="2" height="2" transform="rotate(90 5.5 14.5)" stroke="black"/>
<rect x="11" y="9" width="2" height="5" transform="rotate(90 11 9)" fill="black"/>
<rect x="13" y="13" width="2" height="6" transform="rotate(-180 13 13)" fill="black"/>
<rect x="6" y="4" width="7" height="1" fill="black"/>
<rect x="6" y="15" width="7" height="1" fill="black"/>
<rect x="5" y="6" width="8" height="1" transform="rotate(90 5 6)" fill="black"/>
<rect x="15" y="6" width="8" height="1" transform="rotate(90 15 6)" fill="black"/>
</svg>
