<svg width="60" height="60" viewBox="0 0 60 60" fill="none" xmlns="http://www.w3.org/2000/svg">
<mask id="mask0_695_1306" style="mask-type:alpha" maskUnits="userSpaceOnUse" x="0" y="0" width="60" height="60">
<rect width="60" height="60" fill="#D9D9D9"/>
</mask>
<g mask="url(#mask0_695_1306)">
<path d="M20.1054 45.5352L18.4313 43.8614L16.7882 45.5042C16.462 45.8307 16.0771 45.9959 15.6335 45.9999C15.19 46.0036 14.8087 45.8384 14.4899 45.5042C14.1633 45.1777 14 44.7947 14 44.3552C14 43.9154 14.1633 43.5322 14.4899 43.2057L16.1329 41.563L14.4588 39.8666L39.8445 14.4858C40.1684 14.1619 40.5374 14 40.9515 14C41.3653 14 41.7342 14.1619 42.0581 14.4858L45.5142 17.9407C45.8381 18.2648 46 18.6338 46 19.0475C46 19.4616 45.8381 19.8305 45.5142 20.1544L20.1054 45.5352ZM28.652 28.5375L17.2976 39.8666L20.1284 42.6969L31.4598 31.3447L28.652 28.5375Z" fill="#1C1B1F"/>
</g>
</svg>
