<svg xmlns="http://www.w3.org/2000/svg" width="20" height="20" fill="none" viewBox="0 0 20 20">
  <path fill="#000" fill-rule="evenodd" d="M10.948 6.052A8.647 8.647 0 0 0 10 6c-3.09 0-5.757 1.635-7 4a7.125 7.125 0 0 0 1.807 2.194l.711-.712A6.257 6.257 0 0 1 4.158 10C5.311 8.23 7.473 7 10 7l.948-.948ZM10 13c2.527 0 4.689-1.231 5.841-3a6.255 6.255 0 0 0-1.359-1.482l.712-.711A7.126 7.126 0 0 1 17 10c-1.243 2.365-3.91 4-7 4a8.73 8.73 0 0 1-.948-.052L10 13Z" clip-rule="evenodd"/>
  <path stroke="#000" d="M5 15 15 5"/>
</svg>
