<svg width="24" height="24" viewBox="0 0 24 24" fill="none" xmlns="http://www.w3.org/2000/svg">
<mask id="mask0_365_1947" style="mask-type:alpha" maskUnits="userSpaceOnUse" x="0" y="0" width="24" height="24">
<rect width="24" height="24" fill="#D9D9D9"/>
</mask>
<g mask="url(#mask0_365_1947)">
<path d="M6.6155 20C6.168 20 5.78683 19.8427 5.472 19.528C5.15733 19.2132 5 18.832 5 18.3845V5.61548C5 5.16798 5.15733 4.78682 5.472 4.47198C5.78683 4.15732 6.168 3.99998 6.6155 3.99998H10.252C10.3455 3.60898 10.5532 3.28049 10.875 3.01449C11.1968 2.74832 11.5718 2.61523 12 2.61523C12.4358 2.61523 12.8137 2.74832 13.1337 3.01449C13.4536 3.28049 13.6603 3.60898 13.7538 3.99998H17.3845C17.832 3.99998 18.2132 4.15732 18.528 4.47198C18.8427 4.78682 19 5.16798 19 5.61548V18.3845C19 18.832 18.8427 19.2132 18.528 19.528C18.2132 19.8427 17.832 20 17.3845 20H6.6155ZM6.6155 19H17.3845C17.5385 19 17.6796 18.9359 17.8077 18.8077C17.9359 18.6796 18 18.5385 18 18.3845V5.61548C18 5.46148 17.9359 5.3204 17.8077 5.19223C17.6796 5.06407 17.5385 4.99998 17.3845 4.99998H16V7H8V4.99998H6.6155C6.4615 4.99998 6.32042 5.06407 6.19225 5.19223C6.06408 5.3204 6 5.46148 6 5.61548V18.3845C6 18.5385 6.06408 18.6796 6.19225 18.8077C6.32042 18.9359 6.4615 19 6.6155 19ZM12 5.23073C12.232 5.23073 12.4247 5.15415 12.578 5.00098C12.7312 4.84782 12.8077 4.65515 12.8077 4.42298C12.8077 4.19098 12.7312 3.9984 12.578 3.84523C12.4247 3.69207 12.232 3.61548 12 3.61548C11.768 3.61548 11.5753 3.69207 11.422 3.84523C11.2688 3.9984 11.1923 4.19098 11.1923 4.42298C11.1923 4.65515 11.2688 4.84782 11.422 5.00098C11.5753 5.15415 11.768 5.23073 12 5.23073Z" fill="#1C1B1F"/>
</g>
</svg>
