<svg width="24" height="24" viewBox="0 0 24 24" fill="none" xmlns="http://www.w3.org/2000/svg">
<mask id="mask0_365_2207" style="mask-type:alpha" maskUnits="userSpaceOnUse" x="0" y="0" width="24" height="24">
<rect y="24" width="24" height="24" transform="rotate(-90 0 24)" fill="#D9D9D9"/>
</mask>
<g mask="url(#mask0_365_2207)">
<path d="M23 19H19V17H15V19H10V17L6 17V19H2L2 14H6V16L10 16V14H12V9L7 9L7 4L18 4V9H12V14H15V16H19V14H23V19ZM22 18V15H20V18H22ZM14 18V15H11V18H14ZM17 8V5L8 5V8L17 8ZM5 18L5 15H3L3 18H5Z" fill="#1C1B1F"/>
<path d="M12 9L13 9V14L12 14V9Z" fill="#1C1B1F"/>
</g>
</svg>
