<svg xmlns="http://www.w3.org/2000/svg" width="20" height="20" fill="none" viewBox="0 0 20 20">
  <path fill="#000" fill-rule="evenodd" d="M13.854 3.56a.5.5 0 0 0-.707 0l-.94.94L14.5 6.793l.94-.94a.5.5 0 0 0 0-.707l-1.586-1.585ZM6.56 10.147l4.94-4.94L13.793 7.5l-4.94 4.94a.5.5 0 0 1-.707 0l-1.585-1.587a.5.5 0 0 1 0-.707Zm5.878-7.293a1.5 1.5 0 0 1 2.122 0l1.585 1.586a1.5 1.5 0 0 1 0 2.122L9.56 13.147a1.5 1.5 0 0 1-2.06.06L6.708 14H3.293l2.502-2.502a1.5 1.5 0 0 1 .059-2.059l6.585-6.586ZM4 17h12v1H4v-1Zm-1 2v-3h14v3H3Z" clip-rule="evenodd"/>
</svg>
