<svg width="24" height="24" viewBox="0 0 24 24" fill="none" xmlns="http://www.w3.org/2000/svg">
<mask id="mask0_365_1826" style="mask-type:alpha" maskUnits="userSpaceOnUse" x="0" y="0" width="24" height="24">
<rect width="24" height="24" fill="#D9D9D9"/>
</mask>
<g mask="url(#mask0_365_1826)">
<path d="M14.5385 19V18H16.4808C16.9051 18 17.2644 17.8561 17.5587 17.5683C17.8529 17.2804 18 16.9372 18 16.5385V14.423C18 13.8667 18.1705 13.375 18.5115 12.948C18.8525 12.5212 19.291 12.2314 19.827 12.0788V11.9213C19.291 11.7686 18.8525 11.4788 18.5115 11.052C18.1705 10.625 18 10.1333 18 9.577V7.4615C18 7.06283 17.8529 6.71958 17.5587 6.43175C17.2644 6.14392 16.9051 6 16.4808 6H14.5385V5H16.4808C17.1859 5 17.7821 5.24042 18.2693 5.72125C18.7564 6.20192 19 6.782 19 7.4615V9.577C19 10.0013 19.1535 10.3574 19.4605 10.6452C19.7677 10.9331 20.1398 11.077 20.577 11.077H21V12.923H20.577C20.1398 12.923 19.7677 13.0669 19.4605 13.3548C19.1535 13.6426 19 13.9987 19 14.423V16.5385C19 17.218 18.7564 17.7981 18.2693 18.2788C17.7821 18.7596 17.1859 19 16.4808 19H14.5385ZM7.51925 19C6.82692 19 6.234 18.7596 5.7405 18.2788C5.24683 17.7981 5 17.218 5 16.5385V14.423C5 13.9987 4.8465 13.6426 4.5395 13.3548C4.23233 13.0669 3.86017 12.923 3.423 12.923H3V11.077H3.423C3.86017 11.077 4.23233 10.9331 4.5395 10.6452C4.8465 10.3574 5 10.0013 5 9.577V7.4615C5 6.782 5.24683 6.20192 5.7405 5.72125C6.234 5.24042 6.82692 5 7.51925 5H9.48075V6H7.51925C7.10775 6 6.75167 6.14392 6.451 6.43175C6.15033 6.71958 6 7.06283 6 7.4615V9.577C6 10.1333 5.83267 10.625 5.498 11.052C5.1635 11.4788 4.72183 11.7686 4.173 11.9213V12.0788C4.72183 12.2314 5.1635 12.5212 5.498 12.948C5.83267 13.375 6 13.8667 6 14.423V16.5385C6 16.9372 6.15033 17.2804 6.451 17.5683C6.75167 17.8561 7.10775 18 7.51925 18H9.48075V19H7.51925Z" fill="#1C1B1F"/>
</g>
</svg>
