<svg xmlns="http://www.w3.org/2000/svg" width="20" height="20" fill="none" viewBox="0 0 20 20">
  <path fill="#000" fill-rule="evenodd" d="M7 5v9.293l1.146-1.147.708.708-2 2-.354.353-.354-.353-2-2 .708-.708L6 14.293V5h1Zm3 3.927v1.1l5.01-2.006v-1.07L10 5v1.073l1.138.414V8.49L10 8.927Zm3.842-1.452-1.86.69V6.798l1.86.677Zm1.169 5.528V11H10v1.706c.004.644.015 1.051.033 1.22.03.269.108.494.236.676.13.185.302.33.516.435.217.107.439.16.667.16.29 0 .54-.082.755-.246.214-.164.366-.399.455-.704.098.216.245.387.44.513.197.127.412.191.647.191.216 0 .41-.051.584-.154a1.251 1.251 0 0 0 .626-.909 5.62 5.62 0 0 0 .05-.885Zm-1.993-.991h1.159v.58c0 .477-.006.765-.017.865-.02.17-.08.296-.178.38a.539.539 0 0 1-.376.13.531.531 0 0 1-.393-.15.666.666 0 0 1-.178-.407 8.916 8.916 0 0 1-.017-.735v-.663Zm-2.174 0h1.34v.817c0 .46-.024.758-.072.895a.618.618 0 0 1-.229.318.654.654 0 0 1-.382.11.617.617 0 0 1-.428-.144.623.623 0 0 1-.198-.366c-.02-.098-.03-.33-.03-.694v-.936Z" clip-rule="evenodd"/>
</svg>
