<svg width="24" height="24" viewBox="0 0 24 24" fill="none" xmlns="http://www.w3.org/2000/svg">
<mask id="mask0_365_2195" style="mask-type:alpha" maskUnits="userSpaceOnUse" x="0" y="0" width="24" height="24">
<rect width="24" height="24" fill="#D9D9D9"/>
</mask>
<g mask="url(#mask0_365_2195)">
<path d="M16.6108 21C15.9473 21 15.3847 20.7682 14.923 20.3045C14.4615 19.8408 14.2308 19.2778 14.2308 18.6155C14.2308 18.5155 14.275 18.2629 14.3635 17.8577L7.1655 13.5845C6.95 13.8345 6.68567 14.0303 6.3725 14.172C6.05917 14.3137 5.7235 14.3845 5.3655 14.3845C4.70833 14.3845 4.14983 14.1506 3.69 13.6827C3.23 13.2147 3 12.6538 3 12C3 11.3462 3.23 10.7853 3.69 10.3173C4.14983 9.84942 4.70833 9.6155 5.3655 9.6155C5.7235 9.6155 6.05917 9.68633 6.3725 9.828C6.68567 9.96967 6.95 10.1655 7.1655 10.4155L14.3635 6.1615C14.3173 6.032 14.2837 5.9035 14.2625 5.776C14.2413 5.64833 14.2308 5.51783 14.2308 5.3845C14.2308 4.72217 14.463 4.15917 14.9275 3.6955C15.3922 3.23183 15.9563 3 16.62 3C17.2837 3 17.8462 3.23225 18.3077 3.69675C18.7692 4.16142 19 4.72558 19 5.38925C19 6.05275 18.7682 6.61533 18.3045 7.077C17.8408 7.5385 17.2778 7.76925 16.6155 7.76925C16.2538 7.76925 15.9205 7.69517 15.6155 7.547C15.3103 7.399 15.05 7.2 14.8345 6.95L7.6365 11.223C7.68267 11.3525 7.71633 11.4811 7.7375 11.6088C7.75867 11.7362 7.76925 11.8667 7.76925 12C7.76925 12.1333 7.75867 12.2638 7.7375 12.3912C7.71633 12.5189 7.68267 12.6475 7.6365 12.777L14.8345 17.05C15.05 16.8 15.3103 16.601 15.6155 16.453C15.9205 16.3048 16.2538 16.2308 16.6155 16.2308C17.2778 16.2308 17.8408 16.463 18.3045 16.9275C18.7682 17.3922 19 17.9563 19 18.62C19 19.2837 18.7678 19.8463 18.3033 20.3078C17.8386 20.7693 17.2744 21 16.6108 21ZM16.6155 20C17.0077 20 17.3365 19.8673 17.602 19.602C17.8673 19.3365 18 19.0077 18 18.6155C18 18.2232 17.8673 17.8943 17.602 17.6288C17.3365 17.3634 17.0077 17.2308 16.6155 17.2308C16.2232 17.2308 15.8943 17.3634 15.6288 17.6288C15.3634 17.8943 15.2308 18.2232 15.2308 18.6155C15.2308 19.0077 15.3634 19.3365 15.6288 19.602C15.8943 19.8673 16.2232 20 16.6155 20ZM5.3655 13.3845C5.76317 13.3845 6.0965 13.2518 6.3655 12.9865C6.63467 12.7212 6.76925 12.3923 6.76925 12C6.76925 11.6077 6.63467 11.2788 6.3655 11.0135C6.0965 10.7482 5.76317 10.6155 5.3655 10.6155C4.9785 10.6155 4.65417 10.7482 4.3925 11.0135C4.13083 11.2788 4 11.6077 4 12C4 12.3923 4.13083 12.7212 4.3925 12.9865C4.65417 13.2518 4.9785 13.3845 5.3655 13.3845ZM16.6155 6.76925C17.0077 6.76925 17.3365 6.63658 17.602 6.37125C17.8673 6.10575 18 5.77683 18 5.3845C18 4.99233 17.8673 4.6635 17.602 4.398C17.3365 4.13267 17.0077 4 16.6155 4C16.2232 4 15.8943 4.13267 15.6288 4.398C15.3634 4.6635 15.2308 4.99233 15.2308 5.3845C15.2308 5.77683 15.3634 6.10575 15.6288 6.37125C15.8943 6.63658 16.2232 6.76925 16.6155 6.76925Z" fill="#1C1B1F"/>
</g>
</svg>
