<svg width="60" height="60" viewBox="0 0 60 60" fill="none" xmlns="http://www.w3.org/2000/svg">
<mask id="mask0_695_1310" style="mask-type:alpha" maskUnits="userSpaceOnUse" x="0" y="0" width="60" height="60">
<rect y="60" width="60" height="60" transform="rotate(-90 0 60)" fill="#D9D9D9"/>
</mask>
<g mask="url(#mask0_695_1310)">
<path d="M46 36L46 42.751C46 43.658 45.6837 44.4263 45.051 45.056C44.4184 45.6853 43.6577 46 42.769 46L17.231 46C16.3424 46 15.5817 45.6837 14.949 45.051C14.3164 44.4183 14 43.6577 14 42.769L14 36L16 36L16 42.769C16 43.128 16.1154 43.423 16.346 43.654C16.577 43.8847 16.872 44 17.231 44L42.769 44C43.128 44 43.423 43.8847 43.654 43.654C43.8847 43.423 44 43.128 44 42.769L44 36L46 36ZM50 32L10 32L10 30L50 30L50 32Z" fill="#1C1B1F"/>
<path d="M44 18L44 16L46 16L46 18L44 18Z" fill="#1C1B1F"/>
<path d="M14 18L14 16L16 16L16 18L14 18Z" fill="#1C1B1F"/>
<path d="M44 26L44 24L46 24L46 26L44 26Z" fill="#1C1B1F"/>
<path d="M14 26L14 24L16 24L16 26L14 26Z" fill="#1C1B1F"/>
<path d="M20 18L20 16L22 16L22 18L20 18Z" fill="#1C1B1F"/>
<path d="M26 18L26 16L28 16L28 18L26 18Z" fill="#1C1B1F"/>
<path d="M32 18L32 16L34 16L34 18L32 18Z" fill="#1C1B1F"/>
<path d="M38 18L38 16L40 16L40 18L38 18Z" fill="#1C1B1F"/>
</g>
</svg>
