<svg width="20" height="20" viewBox="0 0 20 20" fill="none" xmlns="http://www.w3.org/2000/svg">
    <path d="M3 5.902a.5.5 0 0 1 .765-.423l6.556 4.097a.5.5 0 0 1 0 .848l-6.556 4.098A.5.5 0 0 1 3 14.098zm1 7.293L9.113 10 4 6.804z" fill="#000"/>
    <path d="M17.004 10c0-3.576-2.822-6.5-6.333-6.5A6.2 6.2 0 0 0 6.68 4.952l.32.385.32.384A5.2 5.2 0 0 1 10.67 4.5c2.933 0 5.334 2.45 5.334 5.5s-2.4 5.5-5.333 5.5a5.2 5.2 0 0 1-3.35-1.22L7 14.662l-.32.385a6.2 6.2 0 0 0 3.99 1.452c3.512 0 6.334-2.924 6.334-6.5" fill="#000"/>
</svg>
