<svg width="60" height="60" viewBox="0 0 60 60" fill="none" xmlns="http://www.w3.org/2000/svg">
<mask id="mask0_696_1345" style="mask-type:alpha" maskUnits="userSpaceOnUse" x="0" y="0" width="60" height="60">
<rect width="60" height="60" fill="#D9D9D9"/>
</mask>
<g mask="url(#mask0_696_1345)">
<path d="M17.231 46C16.3103 46 15.5417 45.6917 14.925 45.075C14.3083 44.4583 14 43.6897 14 42.769V17.231C14 16.3103 14.3083 15.5417 14.925 14.925C15.5417 14.3083 16.3103 14 17.231 14H44.769C45.6897 14 46.4583 14.3083 47.075 14.925C47.6917 15.5417 48 16.3103 48 17.231V42.769C48 43.6897 47.6917 44.4583 47.075 45.075C46.4583 45.6917 45.6897 46 44.769 46H17.231ZM30 36H16V42.769C16 43.128 16.1153 43.423 16.346 43.654C16.577 43.8847 16.872 44 17.231 44H30V36ZM32 36V44H44.769C45.128 44 45.423 43.8847 45.654 43.654C45.8847 43.423 46 43.128 46 42.769V36H32ZM30 34V26H16V34H30ZM32 34H46V26H32V34ZM16 24H46V17.231C46 16.872 45.8847 16.577 45.654 16.346C45.423 16.1153 45.128 16 44.769 16H17.231C16.872 16 16.577 16.1153 16.346 16.346C16.1153 16.577 16 16.872 16 17.231V24Z" fill="#1C1B1F"/>
</g>
</svg>
