<svg width="24" height="24" viewBox="0 0 24 24" fill="none" xmlns="http://www.w3.org/2000/svg">
<mask id="mask0_365_2260" style="mask-type:alpha" maskUnits="userSpaceOnUse" x="0" y="0" width="24" height="24">
<rect width="24" height="24" fill="#D9D9D9"/>
</mask>
<g mask="url(#mask0_365_2260)">
<path d="M7 18L11.1907 11.7335L7.34491 6H8.6321L11.9692 11.031H11.9922L15.3814 6H16.6744L12.765 11.7335L17 18H15.707L11.9922 12.4641H11.9692L8.29296 18H7Z" fill="#1C1B1F"/>
<path d="M18 9.00005V6.846C18 6.614 18.0767 6.42142 18.23 6.26825C18.3832 6.11508 18.5758 6.0385 18.8078 6.0385H20V5H18L18 4H20.1923C20.4243 4 20.617 4.07658 20.7703 4.22975C20.9235 4.38292 21 4.57558 21 4.80775V6.1925C21 6.4245 20.9235 6.61708 20.7703 6.77025C20.617 6.92342 20.4243 7 20.1923 7H19V8H21L21 9.00005H18Z" fill="#5C89FF"/>
</g>
</svg>
