<svg width="24" height="24" viewBox="0 0 24 24" fill="none" xmlns="http://www.w3.org/2000/svg">
<mask id="mask0_372_2114" style="mask-type:alpha" maskUnits="userSpaceOnUse" x="0" y="0" width="24" height="24">
<rect width="24" height="24" fill="#D9D9D9"/>
</mask>
<g mask="url(#mask0_372_2114)">
<path d="M11 13.0441V11.9562H6.93879L8.50764 10.2699L7.79129 9.5L5 12.5001L7.79129 15.5L8.50764 14.7301L6.93879 13.0441H11Z" fill="#1C1B1F"/>
<path d="M14 13.0441V11.9562H18.0612L16.4924 10.2699L17.2087 9.5L20 12.5001L17.2087 15.5L16.4924 14.7301L18.0612 13.0441H14Z" fill="#1C1B1F"/>
<path d="M13.0441 9.96875L11.9562 9.96875L11.9562 5.90754L10.2699 7.47639L9.5 6.76004L12.5001 3.96875L15.5 6.76004L14.7301 7.47639L13.0441 5.90754L13.0441 9.96875Z" fill="#1C1B1F"/>
<path d="M13.0441 14.9688L11.9562 14.9688L11.9562 19.03L10.2699 17.4611L9.5 18.1775L12.5001 20.9688L15.5 18.1775L14.7301 17.4611L13.0441 19.03L13.0441 14.9688Z" fill="#1C1B1F"/>
<path d="M5.6155 22C5.15517 22 4.77083 21.8458 4.4625 21.5375C4.15417 21.2292 4 20.8448 4 20.3845V4.6155C4 4.15517 4.15417 3.77083 4.4625 3.4625C4.77083 3.15417 5.15517 3 5.6155 3H19.3845C19.8448 3 20.2292 3.15417 20.5375 3.4625C20.8458 3.77083 21 4.15517 21 4.6155V20.3845C21 20.8448 20.8458 21.2292 20.5375 21.5375C20.2292 21.8458 19.8448 22 19.3845 22H5.6155ZM5.6155 21H19.3845C19.5385 21 19.6796 20.9359 19.8077 20.8078C19.9359 20.6796 20 20.5385 20 20.3845V4.6155C20 4.4615 19.9359 4.32042 19.8077 4.19225C19.6796 4.06408 19.5385 4 19.3845 4H5.6155C5.4615 4 5.32042 4.06408 5.19225 4.19225C5.06408 4.32042 5 4.4615 5 4.6155V20.3845C5 20.5385 5.06408 20.6796 5.19225 20.8078C5.32042 20.9359 5.4615 21 5.6155 21Z" fill="#1C1B1F"/>
</g>
</svg>
