<svg width="60" height="60" viewBox="0 0 60 60" fill="none" xmlns="http://www.w3.org/2000/svg">
<mask id="mask0_696_1372" style="mask-type:alpha" maskUnits="userSpaceOnUse" x="0" y="0" width="60" height="60">
<rect width="60" height="60" transform="matrix(-1 0 0 1 60 0)" fill="#D9D9D9"/>
</mask>
<g mask="url(#mask0_696_1372)">
<path d="M22.0003 42C22.0233 38.1434 23.3816 34.8683 26.075 32.1749C28.7917 29.4582 32.1 28.0999 36 28.0999H37.554L33.354 32.2999L34.769 33.7154L41.3845 27.0999L34.769 20.4844L33.354 21.9229L37.531 26.0999H36C33.782 26.0999 31.7032 26.5172 29.7635 27.3519C27.8239 28.1865 26.129 29.3289 24.679 30.7789C23.229 32.2289 22.0867 33.9237 21.252 35.8634C20.4299 37.7739 20.0127 39.8194 20.0003 42H22.0003Z" fill="#1C1B1F"/>
</g>
</svg>
