<svg width="60" height="60" viewBox="0 0 60 60" fill="none" xmlns="http://www.w3.org/2000/svg">
<mask id="mask0_695_1313" style="mask-type:alpha" maskUnits="userSpaceOnUse" x="0" y="0" width="60" height="60">
<rect width="60" height="60" fill="#D9D9D9"/>
</mask>
<g mask="url(#mask0_695_1313)">
<path d="M31.0069 48C28.3796 48 25.9094 47.5014 23.5963 46.5043C21.2836 45.5071 19.2717 44.1539 17.5607 42.4446C15.8496 40.7353 14.4952 38.7252 13.4973 36.4142C12.4991 34.1036 12 31.6345 12 29.0069C12 26.3796 12.4986 23.9094 13.4957 21.5963C14.4929 19.2836 15.8461 17.2717 17.5554 15.5607C19.2647 13.8496 21.2748 12.4952 23.5858 11.4973C25.8964 10.4991 28.3655 10 30.9931 10C33.6204 10 36.0906 10.4986 38.4037 11.4957C40.7164 12.4929 42.7283 13.8461 44.4393 15.5554C46.1504 17.2647 47.5048 19.2748 48.5027 21.5858C49.5009 23.8964 50 26.3655 50 28.9931C50 31.6204 49.5014 34.0906 48.5043 36.4037C47.5071 38.7164 46.1539 40.7283 44.4446 42.4393C42.7353 44.1504 40.7252 45.5048 38.4142 46.5027C36.1036 47.5009 33.6345 48 31.0069 48ZM31 45.8889C35.7148 45.8889 39.7083 44.2528 42.9806 40.9806C46.2528 37.7083 47.8889 33.7148 47.8889 29C47.8889 24.2852 46.2528 20.2917 42.9806 17.0194C39.7083 13.7472 35.7148 12.1111 31 12.1111C26.2852 12.1111 22.2917 13.7472 19.0194 17.0194C15.7472 20.2917 14.1111 24.2852 14.1111 29C14.1111 33.7148 15.7472 37.7083 19.0194 40.9806C22.2917 44.2528 26.2852 45.8889 31 45.8889Z" fill="#1C1B1F"/>
<path d="M30.995 40C31.3806 40 31.7061 39.8535 31.9713 39.5606C32.2365 39.2676 32.3691 38.9091 32.3691 38.4851C32.3691 38.0607 32.2359 37.7028 31.9696 37.4115C31.7032 37.1198 31.377 36.974 30.9911 36.974C30.6054 36.974 30.28 37.1205 30.0147 37.4134C29.7498 37.7064 29.6173 38.065 29.6173 38.4894C29.6173 38.9135 29.7505 39.2713 30.0169 39.563C30.2833 39.8543 30.6093 40 30.995 40ZM30.0937 33.6458H31.7785C31.8233 32.8117 31.9658 32.1339 32.206 31.6123C32.4465 31.091 32.9415 30.4257 33.691 29.6162C34.4695 28.7601 35.049 27.9932 35.4294 27.3156C35.8098 26.6379 36 25.8534 36 24.9621C36 23.4497 35.5168 22.2446 34.5504 21.3465C33.5839 20.4488 32.4407 20 31.1206 20C29.8657 20 28.8002 20.3751 27.9243 21.1254C27.0486 21.8757 26.4072 22.7379 26 23.712L27.6036 24.4426C27.8834 23.7441 28.2833 23.1267 28.8033 22.5904C29.3236 22.0541 30.0736 21.786 31.0534 21.786C32.1853 21.786 33.012 22.1272 33.5335 22.8097C34.0546 23.4924 34.3152 24.2435 34.3152 25.0628C34.3152 25.7271 34.1519 26.3205 33.8253 26.843C33.4987 27.3659 33.0737 27.8918 32.5502 28.4208C31.539 29.4464 30.8768 30.316 30.5635 31.0295C30.2503 31.7429 30.0937 32.615 30.0937 33.6458Z" fill="#1C1B1F"/>
</g>
</svg>
