<svg width="24" height="24" viewBox="0 0 24 24" fill="none" xmlns="http://www.w3.org/2000/svg">
<mask id="mask0_365_1772" style="mask-type:alpha" maskUnits="userSpaceOnUse" x="0" y="0" width="24" height="24">
<rect width="24" height="24" fill="#D9D9D9"/>
</mask>
<g mask="url(#mask0_365_1772)">
<path d="M12 21C10.7615 21 9.59483 20.7632 8.5 20.2895C7.40517 19.8157 6.45167 19.1727 5.6395 18.3605C4.82733 17.5483 4.18433 16.5948 3.7105 15.5C3.23683 14.4052 3 13.2385 3 12C3 10.7577 3.23683 9.59 3.7105 8.497C4.18433 7.40417 4.82733 6.45167 5.6395 5.6395C6.45167 4.82733 7.40517 4.18433 8.5 3.7105C9.59483 3.23683 10.7615 3 12 3C13.2423 3 14.41 3.23683 15.503 3.7105C16.5958 4.18433 17.5483 4.82733 18.3605 5.6395C19.1727 6.45167 19.8157 7.40417 20.2895 8.497C20.7632 9.59 21 10.7577 21 12C21 13.2385 20.7632 14.4052 20.2895 15.5C19.8157 16.5948 19.1727 17.5483 18.3605 18.3605C17.5483 19.1727 16.5958 19.8157 15.503 20.2895C14.41 20.7632 13.2423 21 12 21ZM12 20.0077C12.5872 19.2539 13.0712 18.5135 13.452 17.7865C13.8327 17.0597 14.1423 15.9 14.3807 15H9.61925C9.88342 15.9512 10.1994 17.1365 10.5673 17.8635C10.9353 18.5903 11.4128 19.3051 12 20.0077ZM10.727 19.8577C10.2603 19.3078 9.83433 18.6279 9.449 17.8182C9.06383 17.0086 8.777 15.8383 8.5885 15H4.75375C5.32692 16.2435 6.13942 17.6096 7.19125 18.4057C8.24325 19.2019 9.42183 19.6859 10.727 19.8577ZM13.273 19.8577C14.5782 19.6859 15.7567 19.2019 16.8087 18.4057C17.8606 17.6096 18.6731 16.2435 19.2463 15H15.4115C15.159 15.8512 14.8401 17.0278 14.4548 17.8375C14.0696 18.6472 13.6757 19.3206 13.273 19.8577ZM4.34625 14H8.38075C8.30508 13.5897 8.25158 13.5362 8.22025 13.147C8.18875 12.758 8.173 12.3757 8.173 12C8.173 11.6243 8.18875 11.242 8.22025 10.853C8.25158 10.4638 8.30508 10.4103 8.38075 10H4.34625C4.23725 10.3462 4.15225 10.3772 4.09125 10.7855C4.03042 11.1938 4 11.5987 4 12C4 12.4013 4.03042 12.8062 4.09125 13.2145C4.15225 13.6228 4.23725 13.6538 4.34625 14ZM9.38075 14H14.6193C14.6949 13.5897 14.7484 13.5426 14.7797 13.1663C14.8112 12.7901 14.827 12.4013 14.827 12C14.827 11.5987 14.8112 11.2099 14.7797 10.8337C14.7484 10.4574 14.6949 10.4103 14.6193 10H9.38075C9.30508 10.4103 9.25158 10.4574 9.22025 10.8337C9.18875 11.2099 9.173 11.5987 9.173 12C9.173 12.4013 9.18875 12.7901 9.22025 13.1663C9.25158 13.5426 9.30508 13.5897 9.38075 14ZM15.6193 14H19.6538C19.7628 13.6538 19.8477 13.6228 19.9088 13.2145C19.9696 12.8062 20 12.4013 20 12C20 11.5987 19.9696 11.1938 19.9088 10.7855C19.8477 10.3772 19.7628 10.3462 19.6538 10H15.6193C15.6949 10.4103 15.7484 10.4638 15.7797 10.853C15.8112 11.242 15.827 11.6243 15.827 12C15.827 12.3757 15.8112 12.758 15.7797 13.147C15.7484 13.5362 15.6949 13.5897 15.6193 14ZM15.4115 9H19.2463C18.6602 7.73083 17.8573 6.36475 16.8375 5.59425C15.8177 4.82375 14.6295 4.33333 13.273 4.123C13.7397 4.73717 14.1593 5.43942 14.5318 6.22975C14.9043 7.02025 15.1975 8.1745 15.4115 9ZM9.61925 9H14.3807C14.1166 8.06167 13.7909 6.86675 13.4038 6.10775C13.0166 5.34875 12.5487 4.64358 12 3.99225C11.4513 4.64358 10.9834 5.34875 10.5963 6.10775C10.2091 6.86675 9.88342 8.06167 9.61925 9ZM4.75375 9H8.5885C8.8025 8.1745 9.09575 7.02025 9.46825 6.22975C9.84075 5.43942 10.2603 4.73717 10.727 4.123C9.35767 4.33333 8.16633 4.82692 7.153 5.60375C6.1395 6.38075 5.33975 7.74367 4.75375 9Z" fill="#1C1B1F"/>
</g>
</svg>
