<svg width="20" height="20" viewBox="0 0 20 20" fill="none" xmlns="http://www.w3.org/2000/svg">
    <path d="M13.028 8.01h-1.1l-.438-1.137H9.487L9.073 8.01H8L9.952 3h1.07l2.006 5.01Zm-1.863-1.982-.69-1.859-.677 1.86h1.367ZM13 11h2.003c.396 0 .691.017.885.051.196.032.37.1.523.205.155.105.284.245.386.42.103.174.154.369.154.585 0 .235-.064.45-.191.646a1.165 1.165 0 0 1-.513.441c.305.089.54.24.704.455.164.214.246.466.246.755 0 .228-.053.45-.16.667-.105.214-.25.386-.434.516a1.434 1.434 0 0 1-.677.236c-.169.018-.576.03-1.22.034H13V11Zm1.012.834v1.159h.663c.394 0 .639-.006.735-.017a.667.667 0 0 0 .406-.178c.1-.1.15-.231.15-.393a.539.539 0 0 0-.13-.376c-.083-.098-.21-.157-.379-.178-.1-.011-.388-.017-.864-.017h-.581Zm0 1.993v1.34h.936c.365 0 .596-.01.694-.031a.623.623 0 0 0 .366-.198.617.617 0 0 0 .143-.428.654.654 0 0 0-.109-.383.618.618 0 0 0-.318-.229c-.137-.047-.435-.071-.895-.071h-.817ZM3 9.998a4.002 4.002 0 0 1 3-3.874v1.045a3.001 3.001 0 0 0 1 5.829h2.043l-1.147-1.146.708-.707 2.353 2.353-2.353 2.354-.708-.707 1.147-1.147H7a4 4 0 0 1-4-4Z" fill="#000"/>
</svg>
