<svg width="24" height="24" viewBox="0 0 24 24" fill="none" xmlns="http://www.w3.org/2000/svg">
<mask id="mask0_372_2132" style="mask-type:alpha" maskUnits="userSpaceOnUse" x="0" y="0" width="24" height="24">
<rect width="24" height="24" fill="#D9D9D9"/>
</mask>
<g mask="url(#mask0_372_2132)">
<path d="M11 19V18H14.827C14.9295 18 15.0224 17.9808 15.1057 17.9423C15.1891 17.9038 15.2628 17.8461 15.327 17.7693L19.75 12L15.327 6.23075C15.2628 6.15392 15.1891 6.09625 15.1057 6.05775C15.0224 6.01925 14.9295 6 14.827 6H4.6155C4.436 6 4.2885 6.05767 4.173 6.173C4.05767 6.2885 4 6.436 4 6.6155V11H3V6.60575C3 6.16475 3.15817 5.78683 3.4745 5.472C3.79083 5.15733 4.17117 5 4.6155 5H14.827C15.0827 5 15.3249 5.0555 15.5538 5.1665C15.7826 5.2775 15.9711 5.431 16.1193 5.627L21 12L16.1193 18.373C15.9711 18.569 15.7826 18.7225 15.5538 18.8335C15.3249 18.9445 15.0827 19 14.827 19H11Z" fill="#1C1B1F"/>
<path d="M5 20V17H2V16H5V13H6V16H9V17H6V20H5Z" fill="#5C89FF"/>
</g>
</svg>
