<svg width="24" height="24" viewBox="0 0 24 24" fill="none" xmlns="http://www.w3.org/2000/svg">
<mask id="mask0_365_2251" style="mask-type:alpha" maskUnits="userSpaceOnUse" x="0" y="0" width="24" height="24">
<rect width="24" height="24" fill="#D9D9D9"/>
</mask>
<g mask="url(#mask0_365_2251)">
<path d="M7 18L11.1907 11.7335L7.34491 6H8.6321L11.9692 11.031H11.9922L15.3814 6H16.6744L12.765 11.7335L17 18H15.707L11.9922 12.4641H11.9692L8.29296 18H7Z" fill="#1C1B1F"/>
<path d="M18 20.0001V17.846C18 17.614 18.0767 17.4214 18.23 17.2683C18.3832 17.1151 18.5758 17.0385 18.8078 17.0385H20V16H18L18 15H20.1923C20.4243 15 20.617 15.0766 20.7703 15.2298C20.9235 15.3829 21 15.5756 21 15.8077V17.1925C21 17.4245 20.9235 17.6171 20.7703 17.7702C20.617 17.9234 20.4243 18 20.1923 18H19V19H21L21 20.0001H18Z" fill="#5C89FF"/>
</g>
</svg>
