<svg width="20" height="20" viewBox="0 0 20 20" fill="none" xmlns="http://www.w3.org/2000/svg">
<path fill-rule="evenodd" clip-rule="evenodd" d="M6 4H14V6H6V4ZM5 6V4C5 3.44772 5.44772 3 6 3H14C14.5523 3 15 3.44772 15 4V6H17C17.5523 6 18 6.44772 18 7V10.6713C18.6254 11.4442 19 12.4284 19 13.5C19 15.9853 16.9853 18 14.5 18C13.4284 18 12.4442 17.6254 11.6713 17H6C5.44772 17 5 16.5523 5 16V14H3C2.44772 14 2 13.5523 2 13V7C2 6.44772 2.44772 6 3 6H5ZM17 7V9.75777C16.285 9.27914 15.4251 9 14.5 9C13.4284 9 12.4442 9.3746 11.6713 10H6C5.44772 10 5 10.4477 5 11V13H3V7H6H14H17ZM6 11H10.7578C10.2791 11.715 10 12.5749 10 13.5C10 14.4251 10.2791 15.285 10.7578 16H6V11ZM4 8H5V9H4V8ZM14.5 17C16.433 17 18 15.433 18 13.5C18 11.567 16.433 10 14.5 10C12.567 10 11 11.567 11 13.5C11 15.433 12.567 17 14.5 17ZM16.5482 11.5033L17.3423 12.3852L14.2957 16.474L13.9611 16.1024L13.9576 16.1056L11.9502 13.8762L12.6933 13.2071L14.2159 14.5038L16.5482 11.5033Z" fill="black"/>
</svg>
