<svg width="60" height="60" viewBox="0 0 60 60" fill="none" xmlns="http://www.w3.org/2000/svg">
<mask id="mask0_695_1293" style="mask-type:alpha" maskUnits="userSpaceOnUse" x="0" y="0" width="60" height="60">
<rect width="60" height="60" fill="#D9D9D9"/>
</mask>
<g mask="url(#mask0_695_1293)">
<path d="M41.1999 42.843L30.1168 31.8512L25.3859 36.5429C25.6076 36.919 25.7709 37.3153 25.8758 37.7319C25.9807 38.1483 26.0332 38.5793 26.0332 39.0247C26.0332 40.393 25.5423 41.5642 24.5605 42.5384C23.5787 43.5128 22.3985 44 21.0198 44C19.6411 44 18.4598 43.5132 17.4757 42.5395C16.4919 41.5656 16 40.395 16 39.0277C16 37.6605 16.4911 36.489 17.4734 35.5134C18.456 34.5374 19.6371 34.0495 21.0168 34.0495C21.466 34.0495 21.9005 34.1016 22.3203 34.2059C22.7405 34.3099 23.1401 34.4719 23.5193 34.6917L28.2501 30L23.5193 25.3083C23.1401 25.5281 22.7405 25.6901 22.3203 25.7941C21.9005 25.8984 21.466 25.9505 21.0168 25.9505C19.6371 25.9505 18.456 25.4637 17.4734 24.49C16.4911 23.5161 16 22.3455 16 20.9783C16 19.611 16.4909 18.4396 17.4727 17.4639C18.4545 16.488 19.6348 16 21.0137 16C22.3924 16 23.5736 16.4872 24.5574 17.4616C25.5412 18.4358 26.0332 19.607 26.0332 20.9753C26.0332 21.4207 25.9807 21.8517 25.8758 22.2681C25.7709 22.6847 25.6076 23.081 25.3859 23.4571L44 41.9172V42.843H41.1999ZM33.9669 28.033L32.0998 26.1818L41.1999 17.157H44V18.0828L33.9669 28.033ZM21.0168 24.4464C21.9791 24.4464 22.803 24.1065 23.4886 23.4266C24.1738 22.747 24.5165 21.9299 24.5165 20.9753C24.5165 20.0206 24.1738 19.2035 23.4886 18.5239C22.803 17.8441 21.9791 17.5041 21.0168 17.5041C20.0542 17.5041 19.2301 17.8441 18.5446 18.5239C17.8593 19.2035 17.5167 20.0206 17.5167 20.9753C17.5167 21.9299 17.8593 22.747 18.5446 23.4266C19.2301 24.1065 20.0542 24.4464 21.0168 24.4464ZM21.0168 42.4959C21.9791 42.4959 22.803 42.1559 23.4886 41.4761C24.1738 40.7965 24.5165 39.9794 24.5165 39.0247C24.5165 38.0701 24.1738 37.253 23.4886 36.5734C22.803 35.8935 21.9791 35.5536 21.0168 35.5536C20.0542 35.5536 19.2301 35.8935 18.5446 36.5734C17.8593 37.253 17.5167 38.0701 17.5167 39.0247C17.5167 39.9794 17.8593 40.7965 18.5446 41.4761C19.2301 42.1559 20.0542 42.4959 21.0168 42.4959Z" fill="#1C1B1F"/>
</g>
</svg>
