<svg xmlns="http://www.w3.org/2000/svg" width="20" height="20" fill="none" viewBox="0 0 20 20">
  <path stroke="#000" d="m14.854 10.618-.043.292.235.178 1.393 1.059-1.315 2.211-1.68-.65-.249-.097-.218.153c-.455.317-.822.523-1.107.634l-.27.106-.043.287-.25 1.709H8.694l-.25-1.709-.042-.281-.263-.109a5.037 5.037 0 0 1-1.102-.628l-.222-.165-.258.1-1.68.65-1.316-2.211 1.394-1.059.235-.178-.043-.292A4.764 4.764 0 0 1 5.118 10c0-.301.01-.502.028-.618l.043-.292-.235-.178L3.56 7.853l1.316-2.211 1.68.65.249.097.218-.153c.455-.317.822-.523 1.107-.634l.27-.106.043-.288.25-1.708h2.614l.25 1.708.041.282.264.109c.386.158.753.367 1.102.628l.222.165.258-.1 1.68-.65 1.315 2.211-1.393 1.059-.235.178.043.292c.017.116.029.317.029.618s-.012.502-.029.618Zm.368 3.776h-.002.002Zm-6.514 2.212ZM4.78 14.394ZM3.494 12.03v.002-.002Zm0-4.062Zm7.798-4.575Zm3.929 2.212Zm1.285 2.363v-.002.002Zm0 4.062v.002-.002Z"/>
  <circle cx="10.07" cy="10" r="2.5" stroke="#000"/>
</svg>
