<svg width="60" height="60" viewBox="0 0 60 60" fill="none" xmlns="http://www.w3.org/2000/svg">
<mask id="mask0_696_1383" style="mask-type:alpha" maskUnits="userSpaceOnUse" x="0" y="0" width="60" height="60">
<rect width="60" height="60" transform="matrix(-1 0 0 1 60 0)" fill="#D9D9D9"/>
</mask>
<g mask="url(#mask0_696_1383)">
<path d="M34 40V38H14V40H34ZM34 22V20H14V22H34Z" fill="#1C1B1F"/>
<path d="M42.9997 24C43.825 24 44.5313 23.7063 45.1188 23.1189C45.7063 22.5311 46 21.8248 46 21C46 20.1752 45.7063 19.4689 45.1188 18.8811C44.5313 18.2937 43.825 18 42.9997 18C42.1748 18 41.4687 18.2937 40.8812 18.8811C40.2937 19.4689 40 20.1752 40 21C40 21.8248 40.2937 22.5311 40.8812 23.1189C41.4687 23.7063 42.1748 24 42.9997 24Z" fill="#5C89FF"/>
<path d="M42.9997 42C43.825 42 44.5313 41.7063 45.1188 41.1189C45.7063 40.5311 46 39.8248 46 39C46 38.1752 45.7063 37.4689 45.1188 36.8811C44.5313 36.2937 43.825 36 42.9997 36C42.1748 36 41.4687 36.2937 40.8812 36.8811C40.2937 37.4689 40 38.1752 40 39C40 39.8248 40.2937 40.5311 40.8812 41.1189C41.4687 41.7063 42.1748 42 42.9997 42Z" fill="#5C89FF"/>
</g>
</svg>
