<svg width="60" height="60" viewBox="0 0 60 60" fill="none" xmlns="http://www.w3.org/2000/svg">
<mask id="mask0_696_1337" style="mask-type:alpha" maskUnits="userSpaceOnUse" x="0" y="0" width="60" height="60">
<rect width="60" height="60" fill="#D9D9D9"/>
</mask>
<g mask="url(#mask0_696_1337)">
<path d="M46 44L39.9285 37.9621H21.1072C20.2726 37.9621 19.558 37.6665 18.9634 37.0752C18.3688 36.4842 18.0715 35.7736 18.0715 34.9432V34H38.8123C39.6887 34 40.4392 34.2933 41.0637 33.6726C41.6879 33.0518 42 32.3057 42 31.4341V18H42.4553C43.29 18 44.5135 18.1824 45.1081 18.7737C45.7027 19.3647 46 20.0753 46 20.9057V44ZM13.9732 31.2489L17.2408 27.9999H34.8123C35.1665 27.9999 35.4574 27.8867 35.685 27.6604C35.9129 27.4341 36.0268 27.1448 36.0268 26.7926V15.17C36.0268 14.8178 35.9129 14.5284 35.685 14.3017C35.4574 14.0754 35.1665 13.9623 34.8123 13.9623H15.1877C14.8335 13.9623 14.5426 14.0754 14.315 14.3017C14.0871 14.5284 13.9732 14.8178 13.9732 15.17V31.2489ZM12 36V15.17C12 14.2981 12.3123 13.5518 12.9368 12.9311C13.561 12.3104 14.3113 12 15.1877 12H34.8123C35.6887 12 36.4392 12.3104 37.0637 12.9311C37.6879 13.5518 38 14.2981 38 15.17V26.7926C38 27.6642 37.6879 28.4103 37.0637 29.031C36.4392 29.6518 35.6887 29.9621 34.8123 29.9621H18.0715L12 36Z" fill="#1C1B1F"/>
</g>
</svg>
