<svg width="20" height="20" viewBox="0 0 20 20" fill="none" xmlns="http://www.w3.org/2000/svg">
<path fill-rule="evenodd" clip-rule="evenodd" d="M9.6463 8.35359L7.6463 6.35359L4.20696 9.79293C3.81643 10.1835 3.81643 10.8166 4.20696 11.2071L6.79274 13.7929C7.18327 14.1835 7.81643 14.1835 8.20696 13.7929L12.7927 9.20714C13.1833 8.81662 13.1833 8.18346 12.7927 7.79293L10.207 5.20714C9.81643 4.81662 9.18327 4.81662 8.79274 5.20714L8.3534 5.64648L10.3534 7.64648L9.6463 8.35359ZM3.49985 9.08582L6.93919 5.64648L4.6463 3.35359L5.3534 2.64648L7.6463 4.93938L8.08564 4.50004C8.86668 3.71899 10.133 3.71899 10.9141 4.50004L13.4999 7.08582C14.2809 7.86687 14.2809 9.1332 13.4998 9.91425L8.91406 14.5C8.13301 15.2811 6.86668 15.2811 6.08564 14.5L3.49985 11.9143C2.7188 11.1332 2.7188 9.86687 3.49985 9.08582ZM15.9998 13.5C15.9998 14.3285 15.3283 15 14.4998 15C13.6714 15 12.9998 14.3285 12.9998 13.5C12.9998 12.6716 14.4998 11 14.4998 11C14.4998 11 15.9998 12.6716 15.9998 13.5Z" fill="black"/>
</svg>
