<svg width="24" height="24" viewBox="0 0 24 24" fill="none" xmlns="http://www.w3.org/2000/svg">
<mask id="mask0_365_1959" style="mask-type:alpha" maskUnits="userSpaceOnUse" x="0" y="0" width="24" height="24">
<rect width="24" height="24" fill="#D9D9D9"/>
</mask>
<g mask="url(#mask0_365_1959)">
<path d="M5.6155 21C5.15517 21 4.77083 20.8458 4.4625 20.5375C4.15417 20.2292 4 19.8448 4 19.3845V4.6155C4 4.15517 4.15417 3.77083 4.4625 3.4625C4.77083 3.15417 5.15517 3 5.6155 3H13.5L18 7.5V11H17V8H13V4H5.6155C5.4615 4 5.32042 4.06408 5.19225 4.19225C5.06408 4.32042 5 4.4615 5 4.6155V19.3845C5 19.5385 5.06408 19.6796 5.19225 19.8078C5.32042 19.9359 5.4615 20 5.6155 20H9V21H5.6155Z" fill="#1C1B1F"/>
<path d="M19 16V14H14V16H13V13H20V16H19ZM19 22V20H14V22H19ZM20 23H13V21H11V17.2331C11 16.8942 11.1146 16.6051 11.3439 16.3657C11.5732 16.1263 11.8539 16.0067 12.186 16.0067H20.814C21.1417 16.0067 21.4213 16.1263 21.6528 16.3657C21.8843 16.6051 22 16.8942 22 17.2331V21H20V23ZM21.0169 20V17.6204C21.0169 17.4448 20.9545 17.2978 20.8297 17.1795C20.7048 17.0612 20.5592 17.002 20.3927 17.002H12.5748C12.4068 17.002 12.2659 17.0614 12.1522 17.1802C12.0386 17.2989 11.9818 17.4461 11.9818 17.6217V20H13V19H20V20H21.0169Z" fill="#1C1B1F"/>
</g>
</svg>
