<svg width="20" height="20" fill="none" xmlns="http://www.w3.org/2000/svg"><path fill-rule="evenodd" clip-rule="evenodd" d="M6.353 2.646 8.5 4.793l.94-.94a1.5 1.5 0 0 1 2.12 0l3.586 3.586a1.5 1.5 0 0 1 0 2.122l-5.585 5.585a1.5 1.5 0 0 1-2.122 0l-3.586-3.585a1.5 1.5 0 0 1 0-2.122L7.793 5.5 5.646 3.354l.707-.708zm4.293 5.708L8.5 6.207l-3.94 3.94a.5.5 0 0 0 0 .707l3.586 3.585a.5.5 0 0 0 .707 0l5.586-5.585a.5.5 0 0 0 0-.708l-3.586-3.585a.5.5 0 0 0-.707 0l-.939.939 2.146 2.146-.707.708z" fill="#000"/><path d="M15.5 15a1.5 1.5 0 0 0 1.5-1.5c0-.828-1.5-2.5-1.5-2.5S14 12.672 14 13.5a1.5 1.5 0 0 0 1.5 1.5z" fill="#000"/><path d="M3.5 16.5h13v2h-13v-2z" stroke="#000"/></svg>