<svg width="24" height="24" viewBox="0 0 24 24" fill="none" xmlns="http://www.w3.org/2000/svg">
<mask id="mask0_365_1853" style="mask-type:alpha" maskUnits="userSpaceOnUse" x="0" y="0" width="24" height="24">
<rect width="24" height="24" fill="#D9D9D9"/>
</mask>
<g mask="url(#mask0_365_1853)">
<path d="M6 16H17L13.6029 11L10.4485 15.3976L8.34558 12.6071L6 16Z" fill="#1C1B1F"/>
<path d="M5.6155 20C5.15517 20 4.77083 19.8458 4.4625 19.5375C4.15417 19.2292 4 18.8448 4 18.3845V5.6155C4 5.15517 4.15417 4.77083 4.4625 4.4625C4.77083 4.15417 5.15517 4 5.6155 4H17.3845C17.8448 4 18.2292 4.15417 18.5375 4.4625C18.8458 4.77083 19 5.15517 19 5.6155V18.3845C19 18.8448 18.8458 19.2292 18.5375 19.5375C18.2292 19.8458 17.8448 20 17.3845 20H5.6155ZM5.6155 19H17.3845C17.5385 19 17.6796 18.9359 17.8077 18.8077C17.9359 18.6796 18 18.5385 18 18.3845V5.6155C18 5.4615 17.9359 5.32042 17.8077 5.19225C17.6796 5.06408 17.5385 5 17.3845 5H5.6155C5.4615 5 5.32042 5.06408 5.19225 5.19225C5.06408 5.32042 5 5.4615 5 5.6155V18.3845C5 18.5385 5.06408 18.6796 5.19225 18.8077C5.32042 18.9359 5.4615 19 5.6155 19Z" fill="#1C1B1F"/>
</g>
</svg>
