<svg width="24" height="24" viewBox="0 0 24 24" fill="none" xmlns="http://www.w3.org/2000/svg">
<mask id="mask0_365_1876" style="mask-type:alpha" maskUnits="userSpaceOnUse" x="0" y="0" width="24" height="24">
<rect width="24" height="24" fill="#D9D9D9"/>
</mask>
<g mask="url(#mask0_365_1876)">
<path d="M5.6155 20C5.15517 20 4.77083 19.8458 4.4625 19.5375C4.15417 19.2292 4 18.8448 4 18.3845V5.6155C4 5.15517 4.15417 4.77083 4.4625 4.4625C4.77083 4.15417 5.15517 4 5.6155 4H19.3845C19.8448 4 20.2292 4.15417 20.5375 4.4625C20.8458 4.77083 21 5.15517 21 5.6155V18.3845C21 18.8448 20.8458 19.2292 20.5375 19.5375C20.2292 19.8458 19.8448 20 19.3845 20H5.6155ZM11.9625 15H5V18.3845C5 18.564 5.05767 18.7115 5.173 18.827C5.2885 18.9423 5.436 19 5.6155 19H11.9625V15ZM12.9625 15V19H19.3845C19.564 19 19.7115 18.9423 19.827 18.827C19.9423 18.7115 20 18.564 20 18.3845V15H12.9625ZM11.9625 14V10H5V14H11.9625ZM12.9625 14H20V10H12.9625V14ZM5 9H20V5.6155C20 5.436 19.9423 5.2885 19.827 5.173C19.7115 5.05767 19.564 5 19.3845 5H5.6155C5.436 5 5.2885 5.05767 5.173 5.173C5.05767 5.2885 5 5.436 5 5.6155V9Z" fill="#1C1B1F"/>
</g>
</svg>
