<svg width="24" height="24" viewBox="0 0 24 24" fill="none" xmlns="http://www.w3.org/2000/svg">
<mask id="mask0_365_2110" style="mask-type:alpha" maskUnits="userSpaceOnUse" x="0" y="0" width="24" height="24">
<rect width="24" height="24" fill="#D9D9D9"/>
</mask>
<g mask="url(#mask0_365_2110)">
<path d="M10.6862 21L10.3347 18.1077C10.0244 18.0116 9.68879 17.8603 9.3279 17.6538C8.96702 17.4474 8.6601 17.2263 8.40715 16.9905L5.81356 18.125L4 14.875L6.24186 13.1365C6.21317 12.9558 6.18952 12.7697 6.17088 12.578C6.15208 12.3863 6.14268 12.2001 6.14268 12.0192C6.14268 11.8512 6.15208 11.6747 6.17088 11.4895C6.18952 11.3042 6.21317 11.0955 6.24186 10.8635L4 9.125L5.81356 5.9135L8.38843 7.02875C8.67882 6.78008 8.99295 6.55575 9.33082 6.35575C9.66853 6.15575 9.99692 6.00125 10.316 5.89225L10.6862 3H14.3138L14.6653 5.9115C15.038 6.04617 15.3674 6.20067 15.6534 6.375C15.9394 6.54933 16.2339 6.76725 16.5369 7.02875L19.1864 5.9135L21 9.125L18.6833 10.9212C18.7369 11.1276 18.7669 11.317 18.7732 11.4895C18.7794 11.6618 18.7824 11.832 18.7824 12C18.7824 12.1552 18.7762 12.3189 18.7637 12.4913C18.7513 12.6637 18.7226 12.8724 18.6777 13.1173L20.957 14.875L19.1434 18.125L16.5369 16.9712C16.2339 17.2327 15.9291 17.4571 15.6225 17.6443C15.3159 17.8314 14.9968 17.9795 14.6653 18.0885L14.3138 21H10.6862ZM11.5277 20H13.4293L13.7883 17.2923C14.2782 17.1589 14.7191 16.9759 15.1111 16.7432C15.5032 16.5106 15.9024 16.1917 16.3087 15.7865L18.7338 16.85L19.7005 15.15L17.5727 13.5058C17.6537 13.2211 17.7073 12.9593 17.7336 12.7203C17.7597 12.4811 17.7727 12.241 17.7727 12C17.7727 11.7462 17.7597 11.5061 17.7336 11.2797C17.7073 11.0536 17.6537 10.8046 17.5727 10.5328L19.738 8.85L18.7713 7.15L16.29 8.21925C15.9959 7.88725 15.6091 7.576 15.1298 7.2855C14.6506 6.99517 14.1972 6.80258 13.7696 6.70775L13.4723 4H11.5333L11.2304 6.6885C10.7406 6.79617 10.2902 6.96958 9.87944 7.20875C9.46881 7.44775 9.06028 7.77625 8.65386 8.19425L6.22873 7.15L5.26203 8.85L7.37117 10.4693C7.29015 10.6936 7.23343 10.9372 7.20102 11.2C7.16861 11.4628 7.15241 11.7359 7.15241 12.0192C7.15241 12.2731 7.16861 12.525 7.20102 12.775C7.23343 13.025 7.28391 13.2686 7.35246 13.5058L5.26203 15.15L6.22873 16.85L8.63515 15.8C9.01661 16.1962 9.41266 16.5138 9.82329 16.753C10.2341 16.992 10.6969 17.1782 11.2117 17.3115L11.5277 20ZM12.4737 14.5C13.1519 14.5 13.7266 14.2577 14.1979 13.773C14.6689 13.2885 14.9045 12.6975 14.9045 12C14.9045 11.3025 14.6689 10.7115 14.1979 10.227C13.7266 9.74233 13.1519 9.5 12.4737 9.5C11.792 9.5 11.2164 9.74233 10.747 10.227C10.2777 10.7115 10.043 11.3025 10.043 12C10.043 12.6975 10.2777 13.2885 10.747 13.773C11.2164 14.2577 11.792 14.5 12.4737 14.5Z" fill="#1C1B1F"/>
</g>
</svg>
