<svg width="60" height="60" viewBox="0 0 60 60" fill="none" xmlns="http://www.w3.org/2000/svg">
<mask id="mask0_696_1370" style="mask-type:alpha" maskUnits="userSpaceOnUse" x="0" y="0" width="60" height="60">
<rect width="60" height="60" transform="matrix(-1 0 0 1 60 0)" fill="#D9D9D9"/>
</mask>
<g mask="url(#mask0_696_1370)">
<path d="M29.9615 46C32.1795 46 34.2584 45.5827 36.198 44.748C38.1377 43.9133 39.8325 42.771 41.2825 41.321C42.7325 39.871 43.8749 38.1762 44.7095 36.2365C45.5442 34.2968 45.9615 32.218 45.9615 30C45.9615 27.782 45.5442 25.7032 44.7095 23.7635C43.8749 21.8238 42.7325 20.129 41.2825 18.679C39.8325 17.229 38.1377 16.0867 36.198 15.252C34.2584 14.4173 32.1795 14 29.9615 14C27.6642 14 25.4764 14.4743 23.398 15.423C21.32 16.3717 19.5079 17.6948 17.9615 19.3925V14.6155H15.9615V22.923H24.269V20.923H19.3075C20.6999 19.3897 22.3064 18.1858 24.127 17.3115C25.9474 16.4372 27.8922 16 29.9615 16C33.8615 16 37.1699 17.3583 39.8865 20.075C42.6032 22.7917 43.9615 26.1 43.9615 30C43.9615 33.9 42.6032 37.2083 39.8865 39.925C37.1699 42.6417 33.8615 44 29.9615 44C26.4615 44 23.416 42.8603 20.825 40.581C18.234 38.3013 16.6667 35.441 16.123 32H14.1C14.5744 36.0283 16.3212 39.3687 19.3405 42.021C22.3595 44.6737 25.8999 46 29.9615 46Z" fill="#1C1B1F"/>
</g>
</svg>
