<svg width="24" height="24" viewBox="0 0 24 24" fill="none" xmlns="http://www.w3.org/2000/svg">
<mask id="mask0_365_1847" style="mask-type:alpha" maskUnits="userSpaceOnUse" x="0" y="0" width="24" height="24">
<rect width="24" height="24" fill="#D9D9D9"/>
</mask>
<g mask="url(#mask0_365_1847)">
<path d="M6.077 13H14V12H6.077V13ZM6.077 8H18V7H6L6.077 8ZM3 20V4.60822C3 4.14996 3.15417 3.76736 3.4625 3.46041C3.77083 3.15347 4.15517 3 4.6155 3H19.3845C19.8448 3 20.2292 3.15347 20.5375 3.46041C20.8458 3.76736 21 4.14996 21 4.60822V15.3287C21 15.7869 20.8458 16.1695 20.5375 16.4765C20.2292 16.7834 19.8448 16.9369 19.3845 16.9369H6.077L3 20ZM5.65 15.9414H19.3845C19.5385 15.9414 19.6796 15.8776 19.8078 15.75C19.9359 15.6224 20 15.482 20 15.3287V4.60822C20 4.45491 19.9359 4.31446 19.8078 4.18687C19.6796 4.05929 19.5385 3.99549 19.3845 3.99549H4.6155C4.4615 3.99549 4.32042 4.05929 4.19225 4.18687C4.06408 4.31446 4 4.45491 4 4.60822V17.5782L5.65 15.9414Z" fill="#1C1B1F"/>
</g>
</svg>
