<svg width="20" height="20" viewBox="0 0 20 20" fill="none" xmlns="http://www.w3.org/2000/svg">
    <path d="M12 17H7v.5a.5.5 0 0 0 .5.5h4a.5.5 0 0 0 .5-.5zm-5-1h5v-1H7zm8-8.5a5.5 5.5 0 1 0-9.11 4.15c.607.528 1.11 1.295 1.11 2.2V14h2V9.707L7.146 7.854a.5.5 0 1 1 .708-.708L9.5 8.793l1.646-1.647a.5.5 0 1 1 .707.708L10 9.707V14h2v-.15c0-.905.503-1.672 1.11-2.2A5.5 5.5 0 0 0 15 7.5m1 0a6.5 6.5 0 0 1-2.234 4.905c-.47.41-.766.923-.766 1.446V17.5a1.5 1.5 0 0 1-1.5 1.5h-4A1.5 1.5 0 0 1 6 17.5v-3.65c0-.522-.295-1.035-.766-1.445A6.5 6.5 0 1 1 16 7.5" fill="#000"/>
</svg>
