<svg width="24" height="24" viewBox="0 0 24 24" fill="none" xmlns="http://www.w3.org/2000/svg">
<mask id="mask0_365_1929" style="mask-type:alpha" maskUnits="userSpaceOnUse" x="0" y="0" width="24" height="24">
<rect width="24" height="24" transform="matrix(-4.37114e-08 -1 -1 4.37114e-08 24 24)" fill="#D9D9D9"/>
</mask>
<g mask="url(#mask0_365_1929)">
<path d="M3 17.3845C3 17.8448 3.15417 18.2292 3.4625 18.5375C3.77083 18.8458 4.15517 19 4.6155 19L19.3845 19C19.8448 19 20.2292 18.8458 20.5375 18.5375C20.8458 18.2292 21 17.8448 21 17.3845L21 9.5L16.5 5L4.6155 5C4.15517 5 3.77083 5.15417 3.4625 5.4625C3.15417 5.77083 3 6.15517 3 6.6155L3 17.3845ZM16 10L20 10L20 17.3845C20 17.5385 19.9359 17.6796 19.8077 17.8077C19.6796 17.9359 19.5385 18 19.3845 18L4.6155 18C4.4615 18 4.32042 17.9359 4.19225 17.8078C4.06408 17.6796 4 17.5385 4 17.3845L4 6.6155C4 6.4615 4.06408 6.32042 4.19225 6.19225C4.32041 6.06408 4.4615 6 4.6155 6L16 6L16 10Z" fill="#1C1B1F"/>
</g>
</svg>
