<svg width="60" height="60" viewBox="0 0 60 60" fill="none" xmlns="http://www.w3.org/2000/svg">
<mask id="mask0_696_1335" style="mask-type:alpha" maskUnits="userSpaceOnUse" x="0" y="0" width="60" height="60">
<rect width="60" height="60" fill="#D9D9D9"/>
</mask>
<g mask="url(#mask0_696_1335)">
<path d="M30 40H31.9257L32.0556 26H29.9444L30 40ZM31.0069 48C28.3796 48 25.9094 47.5014 23.5963 46.5043C21.2836 45.5071 19.2717 44.1539 17.5607 42.4446C15.8496 40.7353 14.4952 38.7252 13.4973 36.4142C12.4991 34.1036 12 31.6345 12 29.0069C12 26.3796 12.4986 23.9094 13.4957 21.5963C14.4929 19.2836 15.8461 17.2717 17.5554 15.5607C19.2647 13.8496 21.2748 12.4952 23.5858 11.4973C25.8964 10.4991 28.3655 10 30.9931 10C33.6204 10 36.0906 10.4986 38.4037 11.4957C40.7164 12.4929 42.7283 13.8461 44.4393 15.5554C46.1504 17.2647 47.5048 19.2748 48.5027 21.5858C49.5009 23.8964 50 26.3655 50 28.9931C50 31.6204 49.5014 34.0906 48.5043 36.4037C47.5071 38.7164 46.1539 40.7283 44.4446 42.4393C42.7353 44.1504 40.7252 45.5048 38.4142 46.5027C36.1036 47.5009 33.6345 48 31.0069 48ZM31 45.8889C35.7148 45.8889 39.7083 44.2528 42.9806 40.9806C46.2528 37.7083 47.8889 33.7148 47.8889 29C47.8889 24.2852 46.2528 20.2917 42.9806 17.0194C39.7083 13.7472 35.7148 12.1111 31 12.1111C26.2852 12.1111 22.2917 13.7472 19.0194 17.0194C15.7472 20.2917 14.1111 24.2852 14.1111 29C14.1111 33.7148 15.7472 37.7083 19.0194 40.9806C22.2917 44.2528 26.2852 45.8889 31 45.8889Z" fill="#1C1B1F"/>
<path d="M31.9256 22H29.9999L29.9443 20H32.0554L31.9256 22Z" fill="#1C1B1F"/>
</g>
</svg>
