<svg width="24" height="24" viewBox="0 0 24 24" fill="none" xmlns="http://www.w3.org/2000/svg">
<mask id="mask0_373_1466" style="mask-type:alpha" maskUnits="userSpaceOnUse" x="0" y="0" width="24" height="24">
<rect width="24" height="24" transform="matrix(1 0 0 -1 0 24)" fill="#D9D9D9"/>
</mask>
<g mask="url(#mask0_373_1466)">
<path d="M11 7H7.077C5.949 7 4.9875 7.43865 4.1925 8.31595C3.3975 9.19325 3 10.2542 3 11.4989C3 12.7436 3.3975 13.8049 4.1925 14.6829C4.9875 15.561 5.949 16 7.077 16H11V15H7C6.15383 15 5.42942 14.6674 4.82675 14.0022C4.22425 13.3372 4 12.434 4 11.5C4 10.566 4.30125 9.6628 4.90375 8.99779C5.50642 8.3326 6.23083 8 7.077 8H11V7ZM8 11V12H16V11H8Z" fill="#1C1B1F"/>
<path d="M13 7H16.923C18.051 7 19.0125 7.43865 19.8075 8.31595C20.6025 9.19325 21 10.2542 21 11.4989C21 12.7436 20.6025 13.8049 19.8075 14.6829C19.0125 15.561 18.051 16 16.923 16H13V15H17C17.8462 15 18.5706 14.6674 19.1733 14.0022C19.7758 13.3372 20 12.434 20 11.5C20 10.566 19.6988 9.6628 19.0963 8.99779C18.4936 8.3326 17.7692 8 16.923 8H13V7Z" fill="#1C1B1F"/>
</g>
</svg>
