<svg width="24" height="24" viewBox="0 0 24 24" fill="none" xmlns="http://www.w3.org/2000/svg">
<mask id="mask0_605_3456" style="mask-type:alpha" maskUnits="userSpaceOnUse" x="0" y="0" width="24" height="24">
<rect width="24" height="24" fill="#D9D9D9"/>
</mask>
<g mask="url(#mask0_605_3456)">
<path d="M1.94788 17.9999L1.99998 16.9999H21V17.9999H1.94788ZM10.5541 12.0295L9.80624 11.5901L10.7544 10H9V9H10.7544L9.80624 7.40042L10.5541 6.96099L11.5022 8.59207L12.4503 6.96099L13.1981 7.40042L12.25 9H14V10H12.25L13.1981 11.5901L12.4503 12.0295L11.5022 10.3488L10.5541 12.0295Z" fill="#1C1B1F"/>
<path d="M2.80624 11.59L3.55405 12.0295L4.50219 10.3487L5.45033 12.0295L6.19814 11.59L5.25 9.99995H7V8.99995H5.25L6.19814 7.40036L5.45033 6.96094L4.50219 8.59202L3.55405 6.96094L2.80624 7.40036L3.75438 8.99995H2V9.99995H3.75438L2.80624 11.59Z" fill="#1C1B1F"/>
<path d="M16.8062 11.59L17.5541 12.0295L18.5022 10.3487L19.4503 12.0295L20.1981 11.59L19.25 9.99995H21V8.99995H19.25L20.1981 7.40036L19.4503 6.96094L18.5022 8.59202L17.5541 6.96094L16.8062 7.40036L17.7544 8.99995H16V9.99995H17.7544L16.8062 11.59Z" fill="#1C1B1F"/>
</g>
</svg>
