<svg width="60" height="60" viewBox="0 0 60 60" fill="none" xmlns="http://www.w3.org/2000/svg">
<mask id="mask0_696_1353" style="mask-type:alpha" maskUnits="userSpaceOnUse" x="0" y="0" width="60" height="60">
<rect width="60" height="60" fill="#D9D9D9"/>
</mask>
<g mask="url(#mask0_696_1353)">
<path d="M13 44C12.1563 44 11.4455 43.7108 10.8675 43.1325C10.2892 42.5545 10 41.8437 10 41V19.231C10 18.3873 10.3275 17.6378 10.9825 16.9825C11.6378 16.3275 12.3873 16 13.231 16H23.1925L27.1925 20H42.769C43.459 20 44.061 20.1865 44.575 20.5595C45.089 20.9325 45.4487 21.4127 45.654 22H26.3885L22.3885 18H13.231C12.872 18 12.577 18.1153 12.346 18.346C12.1153 18.577 12 18.872 12 19.231V40.769C12 41.0513 12.0705 41.2822 12.2115 41.4615C12.3525 41.6412 12.5383 41.795 12.769 41.923L17.277 26H49.708L45.196 41.881C45.0063 42.5167 44.643 43.0288 44.106 43.4175C43.5687 43.8058 42.9692 44 42.3075 44H13ZM14.854 42H43.077L47 28H18.777L14.854 42Z" fill="#1C1B1F"/>
</g>
</svg>
