<svg width="24" height="24" viewBox="0 0 24 24" fill="none" xmlns="http://www.w3.org/2000/svg">
<mask id="mask0_365_2331" style="mask-type:alpha" maskUnits="userSpaceOnUse" x="0" y="0" width="24" height="24">
<rect width="24" height="24" fill="#D9D9D9"/>
</mask>
<g mask="url(#mask0_365_2331)">
<path d="M10.0475 20.947C9.92921 20.9152 9.83963 20.8466 9.7788 20.7412C9.71796 20.6359 9.70217 20.5219 9.73141 20.3995L14.5293 2.49345C14.5652 2.37278 14.6359 2.28204 14.7412 2.2212C14.8466 2.16037 14.9585 2.14575 15.0768 2.17734C15.1951 2.20916 15.2847 2.27776 15.3456 2.38313C15.4064 2.4885 15.4222 2.60241 15.3929 2.72485L10.595 20.6309C10.5591 20.7516 10.4885 20.8423 10.3831 20.9032C10.2778 20.964 10.1659 20.9786 10.0475 20.947Z" fill="#1C1B1F"/>
</g>
</svg>
