<svg width="60" height="60" viewBox="0 0 60 60" fill="none" xmlns="http://www.w3.org/2000/svg">
<mask id="mask0_696_1339" style="mask-type:alpha" maskUnits="userSpaceOnUse" x="0" y="0" width="60" height="60">
<rect width="60" height="60" fill="#D9D9D9"/>
</mask>
<g mask="url(#mask0_696_1339)">
<path d="M18 38H40L33.2059 28L26.8971 36.7951L22.6912 31.2142L18 38Z" fill="#1C1B1F"/>
<path d="M17.231 46C16.3103 46 15.5417 45.6917 14.925 45.075C14.3083 44.4583 14 43.6897 14 42.769V17.231C14 16.3103 14.3083 15.5417 14.925 14.925C15.5417 14.3083 16.3103 14 17.231 14H40.769C41.6897 14 42.4583 14.3083 43.075 14.925C43.6917 15.5417 44 16.3103 44 17.231V42.769C44 43.6897 43.6917 44.4583 43.075 45.075C42.4583 45.6917 41.6897 46 40.769 46H17.231ZM17.231 44H40.769C41.077 44 41.3592 43.8718 41.6155 43.6155C41.8718 43.3592 42 43.077 42 42.769V17.231C42 16.923 41.8718 16.6408 41.6155 16.3845C41.3592 16.1282 41.077 16 40.769 16H17.231C16.923 16 16.6408 16.1282 16.3845 16.3845C16.1282 16.6408 16 16.923 16 17.231V42.769C16 43.077 16.1282 43.3592 16.3845 43.6155C16.6408 43.8718 16.923 44 17.231 44Z" fill="#1C1B1F"/>
</g>
</svg>
