<svg width="20" height="20" viewBox="0 0 20 20" fill="none" xmlns="http://www.w3.org/2000/svg">
<path fill-rule="evenodd" clip-rule="evenodd" d="M5 3H4V4H3C2.44772 4 2 4.44772 2 5V15C2 15.5523 2.44772 16 3 16H17C17.5523 16 18 15.5523 18 15V5C18 4.44772 17.5523 4 17 4H16V3H15V4H13V3H12V4H8V3H7V4H5V3ZM15 6V5L13 5V6H12V5L8 5V6H7V5H5V6H4V5H3V15H17V5H16V6H15ZM6 8H5V9H6V8ZM5 10H6V11H5V10ZM6 12H5V13H6V12ZM8 8H9V9H8V8ZM9 10H8V11H9V10ZM8 12H9V13H8V12ZM12 8H11V9H12V8ZM11 10H12V11H11V10ZM12 12H11V13H12V12ZM14 8H15V9H14V8ZM15 10H14V11H15V10Z" fill="black"/>
</svg>
