<svg xmlns="http://www.w3.org/2000/svg" width="24" height="24" fill="none" viewBox="0 0 24 24">
  <path stroke="#383838" stroke-linecap="round" stroke-linejoin="round" stroke-width="1.667" d="M11.993 16.167h.008"/>
  <path fill="#383838" d="M9.833 9.5a.5.5 0 1 0 1 0h-1Zm3.57.9-.42-.27.42.27ZM11.5 13.25a.5.5 0 1 0 1 0h-1ZM19.004 12A7.004 7.004 0 0 1 12 19.004v1A8.004 8.004 0 0 0 20.004 12h-1ZM12 19.004A7.004 7.004 0 0 1 4.996 12h-1A8.004 8.004 0 0 0 12 20.004v-1ZM4.996 12A7.004 7.004 0 0 1 12 4.996v-1A8.004 8.004 0 0 0 3.996 12h1ZM12 4.996A7.004 7.004 0 0 1 19.004 12h1A8.004 8.004 0 0 0 12 3.996v1ZM10.833 9.5c0-.644.523-1.167 1.167-1.167v-1c-1.197 0-2.167.97-2.167 2.167h1ZM12 8.333c.644 0 1.167.523 1.167 1.167h1c0-1.197-.97-2.167-2.167-2.167v1ZM13.167 9.5c0 .233-.068.449-.185.63l.841.541c.218-.338.344-.74.344-1.171h-1Zm-.185.63c-.109.17-.244.342-.398.534-.15.186-.32.393-.474.604-.303.417-.61.94-.61 1.565h1c0-.295.145-.601.419-.977.135-.185.283-.365.444-.565a7.4 7.4 0 0 0 .46-.62l-.84-.541ZM11.5 12.833v.417h1v-.417h-1Z"/>
</svg>
