<svg width="60" height="60" viewBox="0 0 60 60" fill="none" xmlns="http://www.w3.org/2000/svg">
<mask id="mask0_696_1420" style="mask-type:alpha" maskUnits="userSpaceOnUse" x="0" y="0" width="60" height="60">
<rect width="60" height="60" fill="#D9D9D9"/>
</mask>
<g mask="url(#mask0_696_1420)">
<path d="M20.0626 42.0003V40.0003H34.7741C36.7903 40.0003 38.5081 39.2888 39.9275 37.8658C41.3466 36.4428 42.1251 35.1139 42.1251 33.0626C42.1251 31.0113 41.3596 29.5546 39.9405 28.1442C38.5211 26.7339 36.8033 26.0287 34.7871 26.0287L19.0987 26.0286L24.863 31.9596L23.4872 33.3751L15.3751 25.0286L23.4872 16.6826L24.863 18.0981L19.0987 24.0286L34.7871 24.0287C37.3317 24.0287 39.5056 24.9314 41.3086 26.7367C43.1116 28.5417 44.0691 30.4676 44.0691 33.0626C44.0691 35.6573 43.0985 37.4553 41.2955 39.2733C39.4925 41.0913 37.3187 42.0003 34.7741 42.0003H20.0626Z" fill="#1C1B1F"/>
</g>
</svg>
