<svg width="24" height="24" viewBox="0 0 24 24" fill="none" xmlns="http://www.w3.org/2000/svg">
<mask id="mask0_365_2203" style="mask-type:alpha" maskUnits="userSpaceOnUse" x="0" y="0" width="24" height="24">
<rect width="24" height="24" fill="#D9D9D9"/>
</mask>
<g mask="url(#mask0_365_2203)">
<path d="M10.5 20.873C9.41283 20.6756 8.40992 20.3106 7.49125 19.778C6.57275 19.2451 5.77983 18.5874 5.1125 17.8047C4.44517 17.022 3.92625 16.1359 3.55575 15.1462C3.18525 14.1564 3 13.1076 3 12C3 10.5603 3.31058 9.2212 3.93175 7.9827C4.55292 6.7442 5.48467 5.6602 6.727 4.7307H3.75V3.7307H8.5V8.4807H7.5V5.40945C6.327 6.21979 5.45042 7.1977 4.87025 8.3432C4.29008 9.4887 4 10.7076 4 12C4 13.909 4.59708 15.5965 5.79125 17.0625C6.98558 18.5285 8.55517 19.457 10.5 19.848V20.873ZM10.575 15.9077L7.04225 12.3692L7.75 11.6615L10.575 14.4865L16.25 8.81145L16.9578 9.52495L10.575 15.9077ZM15.5 20.2885V15.5385H16.5V18.6095C17.6603 17.7826 18.5338 16.7974 19.1203 15.6537C19.7068 14.5102 20 13.2923 20 12C20 10.091 19.4029 8.40345 18.2087 6.93745C17.0144 5.47145 15.4448 4.54295 13.5 4.15195V3.12695C15.6872 3.51795 17.484 4.53654 18.8905 6.1827C20.2968 7.82887 21 9.76795 21 12C21 13.4396 20.6894 14.782 20.0683 16.027C19.4471 17.2718 18.5153 18.359 17.273 19.2885H20.25V20.2885H15.5Z" fill="#1C1B1F"/>
</g>
</svg>
