<svg width="60" height="60" viewBox="0 0 60 60" fill="none" xmlns="http://www.w3.org/2000/svg">
<mask id="mask0_696_1396" style="mask-type:alpha" maskUnits="userSpaceOnUse" x="0" y="0" width="60" height="60">
<rect width="60" height="60" fill="#D9D9D9"/>
</mask>
<g mask="url(#mask0_696_1396)">
<path d="M18 18H34V34H18V18Z" fill="white"/>
<path fill-rule="evenodd" clip-rule="evenodd" d="M32 20H20V32H32V20ZM18 18V34H34V18H18Z" fill="#1C1B1F"/>
<rect x="26" y="26" width="16" height="16" fill="#5C89FF"/>
<path d="M22 42H26V46H22V42Z" fill="#5C89FF"/>
<path d="M42 22H46V26H42V22Z" fill="#5C89FF"/>
<path d="M42 42H46V46H42V42Z" fill="#5C89FF"/>
<path d="M14 14H18V18H14V14Z" fill="#1C1B1F"/>
<path d="M34 14H38V18H34V14Z" fill="#1C1B1F"/>
<path d="M14 34H18V38H14V34Z" fill="#1C1B1F"/>
</g>
</svg>
