<svg width="24" height="24" viewBox="0 0 24 24" fill="none" xmlns="http://www.w3.org/2000/svg">
<mask id="mask0_365_1981" style="mask-type:alpha" maskUnits="userSpaceOnUse" x="0" y="0" width="24" height="24">
<rect width="24" height="24" fill="#D9D9D9"/>
</mask>
<g mask="url(#mask0_365_1981)">
<path fill-rule="evenodd" clip-rule="evenodd" d="M17 6V9H7V6H17ZM6 5V9H5.01828C4.44896 9 3.97021 9.18687 3.58202 9.56062C3.19401 9.93437 3 10.3975 3 10.95V16H6V20H14V19.0175L7 19V15H14V14H6V15H4.00914V10.95C4.00914 10.6737 4.10585 10.4422 4.29927 10.2553C4.49269 10.0684 4.73236 9.97499 5.01828 9.97499H19C19.2859 9.97499 19.5256 10.0684 19.719 10.2553C19.9124 10.4422 20.0091 10.6737 20.0091 10.95L19.9999 13H21V16L21.0183 10.95C21.0183 10.3975 20.8249 9.93437 20.438 9.56062C20.0512 9.18687 19.5718 9 19 9H18V5H6Z" fill="#1C1B1F"/>
<path d="M17.4695 20.1481L14.4383 17.1855L15.1485 16.4453L17.4687 18.7106L21.7265 14.5625L22.4383 15.3026L17.4695 20.1481Z" fill="#5C89FF"/>
</g>
</svg>
