<svg width="24" height="24" viewBox="0 0 24 24" fill="none" xmlns="http://www.w3.org/2000/svg">
<mask id="mask0_352_1496" style="mask-type:alpha" maskUnits="userSpaceOnUse" x="0" y="0" width="24" height="24">
<rect width="24" height="24" fill="#D9D9D9"/>
</mask>
<g mask="url(#mask0_352_1496)">
<path d="M7 18V5H11.6931C12.6769 5 13.5665 5.31135 14.3618 5.93404C15.1569 6.55657 15.5545 7.39494 15.5545 8.44917C15.5545 9.1824 15.3802 9.78016 15.0317 10.2424C14.6834 10.7047 14.3081 11.0403 13.9059 11.2491C14.401 11.4226 14.8738 11.7656 15.3243 12.2783C15.7748 12.7909 16 13.4812 16 14.349C16 15.603 15.5452 16.525 14.6355 17.115C13.7258 17.705 12.8093 18 11.8861 18H7ZM9.07551 16.0453H11.8082C12.5681 16.0453 13.1052 15.8309 13.4196 15.402C13.734 14.973 13.8912 14.5617 13.8912 14.1679C13.8912 13.7742 13.734 13.3628 13.4196 12.9339C13.1052 12.505 12.5532 12.2905 11.7635 12.2905H9.07551V16.0453ZM9.07551 10.3962H11.5799C12.1665 10.3962 12.6316 10.2258 12.9751 9.88481C13.3184 9.54403 13.4901 9.13588 13.4901 8.66036C13.4901 8.15475 13.3085 7.74153 12.9454 7.4207C12.5821 7.10003 12.1368 6.9397 11.6096 6.9397H9.07551V10.3962Z" fill="#1C1B1F"/>
</g>
</svg>
