<svg width="20" height="20" viewBox="0 0 20 20" fill="none" xmlns="http://www.w3.org/2000/svg">
    <path d="m16.203 9.426-4.551 3.934.71.709 3.94-4.545-.099-.098Zm-5.265 3.229 4.611-3.986a1 1 0 0 1 1.361.05l.098.098a1 1 0 0 1 .049 1.362l-3.989 4.6c-.011.08-.258 1.61-2.206 2.585-1.106.553-2.518.341-3.558.041a9.307 9.307 0 0 1-1.44-.541s.57.032 1.256-.566c.36-.315.753-.804 1.11-1.565.993-2.111 2.572-2.085 2.708-2.078Zm-.354 1.052a1.622 1.622 0 0 0-.2.074c-.327.144-.83.488-1.248 1.377a6.294 6.294 0 0 1-.912 1.443c.815.16 1.61.159 2.19-.132.812-.405 1.224-.908 1.436-1.275.029-.05.055-.099.077-.145l-1.342-1.342ZM5.626 9 8 3.3 10.376 9h-4.75Zm5.166 1 .367.88.806-.665-3.503-8.407H7.54l-5 12 .923.384L5.21 10h5.583Z" fill="#000"/>
</svg>
