<svg xmlns="http://www.w3.org/2000/svg" width="20" height="20" fill="none" viewBox="0 0 20 20">
  <path fill="#000" d="M3 9.403c.377-.01.683-.11.919-.299a1.39 1.39 0 0 0 .477-.794c.079-.335.12-.908.125-1.719.005-.81.02-1.345.044-1.602.045-.408.125-.736.243-.984.122-.247.272-.444.448-.59.177-.15.402-.264.676-.342.187-.049.49-.073.912-.073h.411v1.144h-.228c-.51 0-.847.092-1.014.276-.166.18-.25.586-.25 1.217 0 1.272-.027 2.076-.08 2.41-.089.52-.24.921-.456 1.203-.21.281-.544.531-1 .75.54.223.929.566 1.169 1.027.245.457.367 1.207.367 2.25 0 .948.01 1.511.03 1.69.039.331.137.562.294.693.161.13.475.196.94.196h.228V17h-.411c-.48 0-.828-.039-1.044-.116a1.736 1.736 0 0 1-.779-.547c-.206-.247-.34-.563-.404-.947-.059-.383-.09-1.012-.096-1.886-.005-.874-.046-1.479-.125-1.814a1.394 1.394 0 0 0-.477-.794c-.236-.194-.542-.296-.919-.306V9.403Zm14 0v1.187c-.377.01-.686.112-.926.306a1.411 1.411 0 0 0-.47.794c-.079.33-.12.9-.125 1.712-.005.81-.02 1.345-.044 1.602-.045.413-.128.74-.25.984a1.689 1.689 0 0 1-.441.59c-.177.15-.402.264-.676.342-.187.053-.49.08-.912.08h-.411v-1.144h.228c.51 0 .847-.092 1.014-.276.166-.18.25-.588.25-1.224 0-1.214.022-1.984.066-2.31.078-.538.235-.968.47-1.288.235-.326.569-.578 1-.758-.564-.267-.96-.62-1.19-1.056-.231-.442-.346-1.185-.346-2.23 0-.946-.013-1.512-.037-1.696-.034-.326-.132-.551-.294-.678-.157-.13-.468-.196-.934-.196h-.227V3h.411c.48 0 .828.039 1.044.117.314.106.573.286.779.539.206.252.338.57.397.954.064.383.098 1.012.103 1.886.005.874.046 1.479.125 1.814.078.33.235.593.47.787.24.194.549.296.926.306Z"/>
</svg>
