<svg xmlns="http://www.w3.org/2000/svg" width="20" height="20" fill="none" viewBox="0 0 20 20">
  <path fill="#000" fill-rule="evenodd" d="M4 5h1V4H4v1Zm0 2h1V6H4v1Zm1 2H4V8h1v1Zm-1 2h1v-1H4v1Zm1 2H4v-1h1v1Zm-1 2h1v-1H4v1Zm7-8h-1V6h1v1Zm-1 2h1V8h-1v1Zm1 4h-1v-1h1v1Zm-1 2h1v-1h-1v1Zm-5 2H4v-1h1v1ZM6 5h1V4H6v1Zm3 0H8V4h1v1Zm1 0h1V4h-1v1Zm3 0h-1V4h1v1Zm1 0h1V4h-1v1ZM7 17H6v-1h1v1Zm1 0h1v-1H8v1Zm3 0h-1v-1h1v1Zm1 0h1v-1h-1v1Zm3 0h-1v-1h1v1Zm-9-6h1v-1H6v1Zm3 0H8v-1h1v1Zm1 0h1v-1h-1v1Zm3 0h-1v-1h1v1Zm1 0h1v-1h-1v1Z" clip-rule="evenodd" opacity=".4"/>
  <path fill="#000" d="M17 17h-1V4h1v13Z"/>
</svg>
