<svg xmlns="http://www.w3.org/2000/svg" width="20" height="20" fill="none" viewBox="0 0 20 20">
  <path fill="#000" fill-rule="evenodd" d="M8 3h3V2H4v1h3v9h1V3Zm5.879 8.836H15V7.283c0-1.74-.823-2.611-2.468-2.611-.898 0-1.69.219-2.379.656v1.149c.68-.575 1.44-.862 2.284-.862.961 0 1.442.595 1.442 1.784l-2.099.294c-1.54.215-2.31.976-2.31 2.284 0 .61.196 1.1.588 1.47.396.368.943.553 1.64.553.948 0 1.666-.42 2.154-1.258h.027v1.094ZM12.19 8.527l1.689-.232v.697c0 .597-.182 1.092-.547 1.484-.36.387-.818.58-1.374.58-.406 0-.731-.106-.978-.32a1.083 1.083 0 0 1-.362-.841c0-.47.132-.796.397-.978.264-.187.656-.317 1.175-.39Zm-6.747 9.204C5.99 16.684 7.396 15 10 15s4.011 1.684 4.556 2.731l.887-.462C14.798 16.029 13.11 14 10 14c-3.11 0-4.798 2.03-5.443 3.269l.886.462Z" clip-rule="evenodd"/>
</svg>
