<svg width="24" height="24" viewBox="0 0 24 24" fill="none" xmlns="http://www.w3.org/2000/svg">
<mask id="mask0_371_2069" style="mask-type:alpha" maskUnits="userSpaceOnUse" x="0" y="0" width="24" height="24">
<rect width="24" height="24" fill="#D9D9D9"/>
</mask>
<g mask="url(#mask0_371_2069)">
<path fill-rule="evenodd" clip-rule="evenodd" d="M4.4625 20.5375C4.77083 20.8458 5.15517 21 5.6155 21H18.3845C18.8448 21 19.2292 20.8458 19.5375 20.5375C19.8458 20.2292 20 19.8448 20 19.3845V6.6155C20 6.15517 19.8458 5.77083 19.5375 5.4625C19.2292 5.15417 18.8448 5 18.3845 5H9V6H18.3845C18.5385 6 18.6796 6.06408 18.8077 6.19225C18.9359 6.32042 19 6.4615 19 6.6155V19.3845C19 19.5385 18.9359 19.6796 18.8077 19.8078C18.6796 19.9359 18.5385 20 18.3845 20H5.6155C5.4615 20 5.32042 19.9359 5.19225 19.8078C5.06408 19.6796 5 19.5385 5 19.3845V10H4V19.3845C4 19.8448 4.15417 20.2292 4.4625 20.5375Z" fill="#1C1B1F"/>
<rect x="9" y="5" width="1" height="16" fill="#1C1B1F"/>
<rect x="4" y="16" width="0.999999" height="16" transform="rotate(-90 4 16)" fill="#1C1B1F"/>
<rect x="14" y="5" width="1" height="16" fill="#1C1B1F"/>
<rect x="4" y="11" width="0.999999" height="16" transform="rotate(-90 4 11)" fill="#1C1B1F"/>
<path d="M8 5V4H1V5H8Z" fill="#5C89FF"/>
</g>
</svg>
