<svg width="24" height="24" viewBox="0 0 24 24" fill="none" xmlns="http://www.w3.org/2000/svg">
<mask id="mask0_365_2100" style="mask-type:alpha" maskUnits="userSpaceOnUse" x="0" y="0" width="24" height="24">
<rect width="24" height="24" transform="matrix(-1 0 0 1 24 0)" fill="#D9D9D9"/>
</mask>
<g mask="url(#mask0_365_2100)">
<path d="M14 17V16H4V17H14ZM14 8V7H4V8H14Z" fill="#1C1B1F"/>
<path d="M18.4999 9C18.9125 9 19.2657 8.85315 19.5594 8.55944C19.8531 8.26554 20 7.9124 20 7.5C20 7.0876 19.8531 6.73446 19.5594 6.44056C19.2657 6.14685 18.9125 6 18.4999 6C18.0874 6 17.7343 6.14685 17.4406 6.44056C17.1469 6.73446 17 7.0876 17 7.5C17 7.9124 17.1469 8.26554 17.4406 8.55944C17.7343 8.85315 18.0874 9 18.4999 9Z" fill="#5C89FF"/>
<path d="M18.4999 18C18.9125 18 19.2657 17.8531 19.5594 17.5594C19.8531 17.2655 20 16.9124 20 16.5C20 16.0876 19.8531 15.7345 19.5594 15.4406C19.2657 15.1469 18.9125 15 18.4999 15C18.0874 15 17.7343 15.1469 17.4406 15.4406C17.1469 15.7345 17 16.0876 17 16.5C17 16.9124 17.1469 17.2655 17.4406 17.5594C17.7343 17.8531 18.0874 18 18.4999 18Z" fill="#5C89FF"/>
</g>
</svg>
