<svg xmlns="http://www.w3.org/2000/svg" width="20" height="20" fill="none" viewBox="0 0 20 20">
  <path fill="#000" fill-rule="evenodd" d="M15.355 4.916A41.964 41.964 0 0 0 17 3.205L16.919 3h-1.155l-.045.205c.173.022.26.11.26.264a.65.65 0 0 1-.029.192.924.924 0 0 1-.101.21 2.593 2.593 0 0 1-.251.317 6.306 6.306 0 0 1-.377.39L14.68 3h-1.008l-.045.205c.108.008.19.028.247.059a.41.41 0 0 1 .154.125c.046.053.094.13.142.23.049.098.112.242.19.431l.386.933A36.366 36.366 0 0 0 13 6.795l.077.205h1.155l.045-.205a.367.367 0 0 1-.203-.088.246.246 0 0 1-.057-.171c0-.056.006-.11.016-.164a.815.815 0 0 1 .082-.188c.04-.072.11-.167.21-.284.1-.12.203-.232.308-.335.108-.106.195-.188.26-.247L15.456 7h1.009l.045-.205a.868.868 0 0 1-.231-.054.575.575 0 0 1-.146-.113 1.212 1.212 0 0 1-.162-.251 7.908 7.908 0 0 1-.24-.544l-.376-.917ZM9.507 16.032c.5-.348 1.022-.823 1.566-1.423l-.683-.723c-.603.615-1.18 1.071-1.732 1.368a3.826 3.826 0 0 1-1.842.445c-.684 0-1.176-.175-1.478-.523-.301-.356-.452-.923-.452-1.702 0-.519.044-1 .132-1.446 2.31 0 4.048-.315 5.217-.945C11.412 10.453 12 9.507 12 8.247c0-.771-.224-1.339-.673-1.702C10.886 6.182 10.221 6 9.331 6c-.905 0-1.757.2-2.559.6A5.931 5.931 0 0 0 4.71 8.28a7.488 7.488 0 0 0-1.29 2.447c-.28.905-.42 1.754-.42 2.547 0 .534.066 1.03.199 1.49.132.453.334.846.606 1.18.28.326.629.585 1.048.778.42.185.92.278 1.5.278a5.81 5.81 0 0 0 1.654-.222c.5-.149 1-.397 1.5-.746Zm-2.525-5.06c-.508.066-1.1.104-1.776.11.22-.785.518-1.493.893-2.123.383-.638.82-1.142 1.313-1.513.5-.378 1.007-.567 1.522-.567.412 0 .72.13.926.389.213.252.32.604.32 1.057 0 .244-.03.482-.088.711-.052.223-.15.438-.298.646a2.3 2.3 0 0 1-.573.556c-.243.17-.548.319-.916.444a8.152 8.152 0 0 1-1.323.29Z" clip-rule="evenodd"/>
</svg>
