<svg width="24" height="24" viewBox="0 0 24 24" fill="none" xmlns="http://www.w3.org/2000/svg">
<mask id="mask0_364_1633" style="mask-type:alpha" maskUnits="userSpaceOnUse" x="0" y="0" width="24" height="24">
<rect width="24" height="24" fill="#D9D9D9"/>
</mask>
<g mask="url(#mask0_364_1633)">
<rect x="6" y="5" width="12" height="3" fill="#5C89FF"/>
<path fill-rule="evenodd" clip-rule="evenodd" d="M10.251 19.7105C10.444 19.9035 10.6808 20 10.9615 20H13.0193C13.3001 20 13.5369 19.9035 13.7298 19.7105C13.9228 19.5177 14.0193 19.2808 14.0193 19V14H17.3462C17.8064 14 18.1971 13.8458 18.5182 13.5375C18.8394 13.2292 19 12.8512 19 12.4037V4H7.6345C6.90633 4 6.28525 4.25383 5.77125 4.7615C5.25708 5.26917 5 5.88075 5 6.59625V12.4037C5 12.8512 5.15733 13.2292 5.472 13.5375C5.78683 13.8458 6.17433 14 6.6345 14H9.9615V19C9.9615 19.2808 10.058 19.5177 10.251 19.7105ZM18 10H6V6.59625C6 6.13592 6.15733 5.75483 6.472 5.453C6.78683 5.151 7.17433 5 7.6345 5H12.5192H13.5193H15.3655H16.3655H18V10ZM17.3462 13H6.6345C6.45517 13 6.30458 12.9423 6.18275 12.827C6.06092 12.7115 6 12.5704 6 12.4037V11H18V12.4037C18 12.5704 17.9359 12.7115 17.8077 12.827C17.6796 12.9423 17.5257 13 17.3462 13ZM13 19L13.0193 14H11V19H13Z" fill="#1C1B1F"/>
</g>
</svg>
