<svg width="24" height="24" viewBox="0 0 24 24" fill="none" xmlns="http://www.w3.org/2000/svg">
<mask id="mask0_365_2210" style="mask-type:alpha" maskUnits="userSpaceOnUse" x="0" y="0" width="24" height="24">
<rect width="24" height="24" fill="#D9D9D9"/>
</mask>
<g mask="url(#mask0_365_2210)">
<path d="M7.50225 6.50025C7.22508 6.50025 6.98875 6.59725 6.79325 6.79125C6.59775 6.98525 6.5 7.22075 6.5 7.49775C6.5 7.77492 6.597 8.01125 6.791 8.20675C6.985 8.40242 7.22058 8.50025 7.49775 8.50025C7.77492 8.50025 8.01125 8.40325 8.20675 8.20925C8.40225 8.01508 8.5 7.7795 8.5 7.5025C8.5 7.22533 8.403 6.989 8.209 6.7935C8.015 6.598 7.77942 6.50025 7.50225 6.50025ZM7.50225 15.5C7.22508 15.5 6.98875 15.597 6.79325 15.791C6.59775 15.9852 6.5 16.2207 6.5 16.4978C6.5 16.7749 6.597 17.0112 6.791 17.2067C6.985 17.4023 7.22058 17.5 7.49775 17.5C7.77492 17.5 8.01125 17.403 8.20675 17.209C8.40225 17.015 8.5 16.7795 8.5 16.5025C8.5 16.2253 8.403 15.989 8.209 15.7935C8.015 15.5978 7.77942 15.5 7.50225 15.5ZM4.76925 4H19.2308C19.4488 4 19.6314 4.07333 19.7788 4.22C19.9263 4.3665 20 4.548 20 4.7645V10.1155C20 10.3732 19.9263 10.585 19.7788 10.751C19.6314 10.9172 19.4488 11.0003 19.2308 11.0003H4.76925C4.55125 11.0003 4.36858 10.9172 4.22125 10.751C4.07375 10.585 4 10.3732 4 10.1155V4.7645C4 4.548 4.07375 4.3665 4.22125 4.22C4.36858 4.07333 4.55125 4 4.76925 4ZM5 5.00025V10.0003H19V5.00025H5ZM4.76925 13H19.1923C19.4371 13 19.6329 13.0812 19.7797 13.2435C19.9266 13.4057 20 13.6066 20 13.8462V19.077C20 19.3603 19.9266 19.585 19.7797 19.751C19.6329 19.9172 19.4371 20.0002 19.1923 20.0002H4.80775C4.56292 20.0002 4.36708 19.9172 4.22025 19.751C4.07342 19.585 4 19.3603 4 19.077V13.8462C4 13.6066 4.067 13.4057 4.201 13.2435C4.335 13.0812 4.52442 13 4.76925 13ZM5 14V19H19V14H5Z" fill="#1C1B1F"/>
</g>
</svg>
