<svg width="20" height="20" viewBox="0 0 20 20" fill="none" xmlns="http://www.w3.org/2000/svg">
    <g opacity=".4" fill="#000">
        <path d="M6 12.584a6.667 6.667 0 0 1 6.584-6.583 5.001 5.001 0 1 0-6.583 6.583"/>
        <path d="M13 7.333q0 .173-.01.344.01.16.01.323a5 5 0 0 1-5.323 4.99 6 6 0 0 1-.578.005l-.015-.079-.08-.015a6 6 0 0 1 .006-.578 5 5 0 0 1 5.313-5.313 6 6 0 0 1 .578-.005l.015.079.08.015q.004.117.004.234"/>
        <path d="M14 7.416a6.667 6.667 0 0 1-6.584 6.583 5.001 5.001 0 1 0 6.583-6.583"/>
    </g>
    <path d="M8 3a5 5 0 0 1 4.584 3 7 7 0 0 0-1.064.098 4 4 0 1 0-5.422 5.422q-.09.52-.098 1.064A5.001 5.001 0 0 1 8 3m6 4.416a7 7 0 0 1-.098 1.064 4 4 0 1 1-5.422 5.422q-.52.09-1.064.098a5.001 5.001 0 1 0 6.583-6.584" fill="#000"/>
    <path d="M7 12v1h1a5 5 0 0 0 5-5V7h-1a5 5 0 0 0-5 5m5-4a4 4 0 0 1-4 4 4 4 0 0 1 4-4" fill="#000"/>
</svg>
