<svg width="20" height="20" viewBox="0 0 20 20" fill="none" xmlns="http://www.w3.org/2000/svg">
    <path d="M11.146 3.146a.5.5 0 0 1 .708 0l5 5a.5.5 0 0 1-.708.708l-.646-.647-2.529 2.529-.476 3.335a.5.5 0 0 1-.141.283l-1.5 1.5a.5.5 0 0 1-.708 0L7.5 13.207l-3.146 3.146a.5.5 0 1 1-.708-.707L6.793 12.5 4.146 9.854a.5.5 0 0 1 0-.708l1.5-1.5a.5.5 0 0 1 .283-.141l3.335-.476L11.793 4.5l-.647-.646a.5.5 0 0 1 0-.708M12.5 5.207 9.854 7.854a.5.5 0 0 1-.283.141l-3.335.476L5.207 9.5l5.293 5.293 1.029-1.029.476-3.335a.5.5 0 0 1 .141-.283L14.793 7.5z" fill="#000"/>
</svg>
