<svg width="24" height="24" viewBox="0 0 24 24" fill="none" xmlns="http://www.w3.org/2000/svg">
<mask id="mask0_365_2049" style="mask-type:alpha" maskUnits="userSpaceOnUse" x="0" y="0" width="24" height="24">
<rect width="24" height="24" transform="matrix(1.19249e-08 -1 -1 -1.19249e-08 24 24)" fill="#D9D9D9"/>
</mask>
<g mask="url(#mask0_365_2049)">
<path d="M7 8.00004C8.92832 8.01155 10.5658 8.69066 11.9126 10.0374C13.2709 11.3957 13.9501 13.0499 13.9501 14.9999L13.9501 15.7769L11.8501 13.6769L11.1423 14.3844L14.4501 17.6921L17.7578 14.3844L17.0386 13.6769L14.9501 15.7654L14.9501 14.9999C14.9501 13.8909 14.7414 12.8515 14.3241 11.8816C13.9067 10.9118 13.3356 10.0644 12.6106 9.33939C11.8856 8.61439 11.0381 8.04322 10.0683 7.62589C9.11305 7.21483 8.09028 7.00621 7 7.00003L7 8.00004Z" fill="#1C1B1F"/>
</g>
</svg>
