<svg width="24" height="24" viewBox="0 0 24 24" fill="none" xmlns="http://www.w3.org/2000/svg">
<mask id="mask0_605_3463" style="mask-type:alpha" maskUnits="userSpaceOnUse" x="0" y="0" width="24" height="24">
<rect width="24" height="24" fill="#D9D9D9"/>
</mask>
<g mask="url(#mask0_605_3463)">
<path d="M13.0558 13.052C14.5161 12.075 15.6713 10.9945 16.5213 9.8105C17.3713 8.6265 17.7963 7.45633 17.7963 6.3C17.7963 5.6 17.6543 5.04167 17.3703 4.625C17.0863 4.20833 16.711 4 16.2443 4C15.2686 4 14.4551 4.66892 13.8038 6.00675C13.1526 7.34458 12.8271 9.00067 12.8271 10.975C12.8271 11.3878 12.8472 11.7657 12.8876 12.1088C12.9279 12.4516 12.984 12.766 13.0558 13.052ZM18.0001 20V18H20.0001V20H18.0001ZM3.40006 16L2.71156 15.3115L4.31156 13.7115L2.71156 12.1115L3.40006 11.423L5.00006 13.023L6.60006 11.423L7.28856 12.1115L5.68856 13.7115L7.28856 15.3115L6.60006 16L5.00006 14.4L3.40006 16ZM14.8156 16C14.3156 16 13.8732 15.8818 13.4886 15.6453C13.1039 15.4088 12.7872 15.0546 12.5386 14.5828C12.1476 14.8161 11.7376 15.0308 11.3088 15.227C10.88 15.4232 10.4386 15.6129 9.98456 15.7963L9.63081 14.8635C10.0718 14.684 10.5048 14.492 10.9298 14.2875C11.3548 14.083 11.7609 13.866 12.1481 13.6365C12.0391 13.2698 11.9574 12.8603 11.9031 12.4078C11.8486 11.9551 11.8213 11.466 11.8213 10.9405C11.8213 8.6045 12.2354 6.69708 13.0636 5.21825C13.8917 3.73942 14.952 3 16.2443 3C17.0085 3 17.6239 3.30158 18.0906 3.90475C18.5572 4.50792 18.7906 5.314 18.7906 6.323C18.7906 7.69233 18.3075 9.0545 17.3413 10.4095C16.3753 11.7647 15.0647 12.975 13.4096 14.0405C13.5776 14.3622 13.7817 14.6035 14.0221 14.7645C14.2626 14.9253 14.5328 15.0058 14.8328 15.0058C15.3686 15.0058 15.9369 14.75 16.5376 14.2385C17.1382 13.727 17.6783 13.0404 18.1578 12.1788L19.0213 12.5865C18.9301 13.1135 18.8961 13.577 18.9193 13.977C18.9423 14.377 19.0532 14.7206 19.2521 15.0078C19.4699 14.8988 19.6786 14.7731 19.8781 14.6308C20.0774 14.4884 20.3193 14.248 20.6038 13.9095L21.3906 14.5385C20.9572 15.0103 20.5566 15.3718 20.1886 15.623C19.8206 15.8743 19.4718 16 19.1423 16C18.8436 16 18.5856 15.8317 18.3683 15.4952C18.151 15.1587 18.002 14.7353 17.9213 14.225C17.5186 14.7698 17.0308 15.2019 16.4578 15.5213C15.8846 15.8404 15.3372 16 14.8156 16Z" fill="#1C1B1F"/>
<path d="M13.0001 18V20H15.0001V18H13.0001Z" fill="#1C1B1F"/>
<path d="M8.00006 18V20H10.0001V18H8.00006Z" fill="#1C1B1F"/>
<path d="M3.00006 18V20H5.00006V18H3.00006Z" fill="#1C1B1F"/>
</g>
</svg>
