<svg width="20" height="20" viewBox="0 0 20 20" fill="none" xmlns="http://www.w3.org/2000/svg">
<path fill-rule="evenodd" clip-rule="evenodd" d="M16.5 3.08564L15.9142 2.49985C15.1332 1.7188 13.8668 1.7188 13.0858 2.49985L6.5 9.08564C5.87891 9.70672 5.75171 10.6347 6.1184 11.3815L3.5 13.9998H6.5L7.6184 12.8815C8.36518 13.2481 9.29313 13.1209 9.91421 12.4998L16.5 5.91406C17.281 5.13301 17.281 3.86669 16.5 3.08564ZM13.7929 3.20696C14.1834 2.81643 14.8166 2.81643 15.2071 3.20696L15.7929 3.79274C16.1834 4.18327 16.1834 4.81643 15.7929 5.20696L15.3536 5.6463L13.3536 3.6463L13.7929 3.20696ZM12.6464 4.3534L7.20711 9.79274C6.81658 10.1833 6.81658 10.8164 7.20711 11.207L7.79289 11.7927C8.18342 12.1833 8.81658 12.1833 9.20711 11.7927L14.6464 6.3534L12.6464 4.3534Z" fill="black"/>
<path fill-rule="evenodd" clip-rule="evenodd" d="M3 19V16H17V19H3ZM4 17H16V18H4V17Z" fill="black"/>
</svg>
