<svg width="60" height="60" viewBox="0 0 60 60" fill="none" xmlns="http://www.w3.org/2000/svg">
<mask id="mask0_696_1405" style="mask-type:alpha" maskUnits="userSpaceOnUse" x="0" y="0" width="60" height="60">
<rect width="60" height="60" fill="#D9D9D9"/>
</mask>
<g mask="url(#mask0_696_1405)">
<path d="M23 48C19.9493 48 17.3533 46.9293 15.212 44.788C13.0707 42.6467 12 40.0507 12 37C12 33.949 13.0707 31.3529 15.212 29.2115C17.3533 27.0705 19.9493 26 23 26C26.051 26 28.6471 27.0705 30.7885 29.2115C32.9295 31.3529 34 33.949 34 37C34 40.0507 32.9295 42.6467 30.7885 44.788C28.6471 46.9293 26.051 48 23 48ZM23 46.1667C25.5361 46.1667 27.6979 45.2729 29.4854 43.4854C31.2729 41.6979 32.1667 39.5361 32.1667 37C32.1667 34.4639 31.2729 32.3021 29.4854 30.5146C27.6979 28.7271 25.5361 27.8333 23 27.8333C20.4639 27.8333 18.3021 28.7271 16.5146 30.5146C14.7271 32.3021 13.8333 34.4639 13.8333 37C13.8333 39.5361 14.7271 41.6979 16.5146 43.4854C18.3021 45.2729 20.4639 46.1667 23 46.1667Z" fill="#1C1B1F"/>
<path d="M37 48C33.9493 48 31.3533 46.9293 29.212 44.788C27.0707 42.6467 26 40.0507 26 37C26 33.949 27.0707 31.3529 29.212 29.2115C31.3533 27.0705 33.9493 26 37 26C40.051 26 42.6471 27.0705 44.7885 29.2115C46.9295 31.3529 48 33.949 48 37C48 40.0507 46.9295 42.6467 44.7885 44.788C42.6471 46.9293 40.051 48 37 48ZM37 46.1667C39.5361 46.1667 41.6979 45.2729 43.4854 43.4854C45.2729 41.6979 46.1667 39.5361 46.1667 37C46.1667 34.4639 45.2729 32.3021 43.4854 30.5146C41.6979 28.7271 39.5361 27.8333 37 27.8333C34.4639 27.8333 32.3021 28.7271 30.5146 30.5146C28.7271 32.3021 27.8333 34.4639 27.8333 37C27.8333 39.5361 28.7271 41.6979 30.5146 43.4854C32.3021 45.2729 34.4639 46.1667 37 46.1667Z" fill="#1C1B1F"/>
<path d="M31 36C27.9493 36 25.3533 34.9293 23.212 32.788C21.0707 30.6467 20 28.0507 20 25C20 21.949 21.0707 19.3529 23.212 17.2115C25.3533 15.0705 27.9493 14 31 14C34.051 14 36.6471 15.0705 38.7885 17.2115C40.9295 19.3529 42 21.949 42 25C42 28.0507 40.9295 30.6467 38.7885 32.788C36.6471 34.9293 34.051 36 31 36ZM31 34.1667C33.5361 34.1667 35.6979 33.2729 37.4854 31.4854C39.2729 29.6979 40.1667 27.5361 40.1667 25C40.1667 22.4639 39.2729 20.3021 37.4854 18.5146C35.6979 16.7271 33.5361 15.8333 31 15.8333C28.4639 15.8333 26.3021 16.7271 24.5146 18.5146C22.7271 20.3021 21.8333 22.4639 21.8333 25C21.8333 27.5361 22.7271 29.6979 24.5146 31.4854C26.3021 33.2729 28.4639 34.1667 31 34.1667Z" fill="#1C1B1F"/>
</g>
</svg>
