<svg width="24" height="24" viewBox="0 0 24 24" fill="none" xmlns="http://www.w3.org/2000/svg">
<mask id="mask0_364_1588" style="mask-type:alpha" maskUnits="userSpaceOnUse" x="0" y="0" width="24" height="24">
<rect width="24" height="24" fill="#D9D9D9"/>
</mask>
<g mask="url(#mask0_364_1588)">
<path d="M4.55778 19L3.14428 17.5865C2.82511 17.2673 2.66136 16.8885 2.65303 16.45C2.64469 16.0115 2.80011 15.6243 3.11928 15.2885L13.273 4.73451C13.5924 4.39868 13.9703 4.23401 14.4068 4.24051C14.8433 4.24684 15.2212 4.4096 15.5405 4.72876L19.6308 8.81926C19.9501 9.13843 20.1129 9.52051 20.1193 9.96551C20.1256 10.4103 19.9692 10.7923 19.65 11.1115L11.9615 19H4.55778ZM11.5345 18L18.9423 10.3923C19.0449 10.2898 19.0963 10.1423 19.0963 9.95001C19.0963 9.75768 19.0449 9.61026 18.9423 9.50776L14.8578 5.42301C14.7551 5.32051 14.6109 5.26926 14.425 5.26926C14.2392 5.26926 14.0949 5.32693 13.9923 5.44226L3.82703 15.9578C3.72436 16.0731 3.67303 16.2237 3.67303 16.4095C3.67303 16.5955 3.72436 16.7398 3.82703 16.8423L4.98453 18H11.5345Z" fill="#1C1B1F"/>
<path d="M16.7115 18H22V19H15.7115L16.7115 18Z" fill="#5C89FF"/>
</g>
</svg>
