<svg width="24" height="24" viewBox="0 0 24 24" fill="none" xmlns="http://www.w3.org/2000/svg">
<mask id="mask0_372_2061" style="mask-type:alpha" maskUnits="userSpaceOnUse" x="0" y="0" width="24" height="24">
<rect width="24" height="24" fill="#D9D9D9"/>
</mask>
<g mask="url(#mask0_372_2061)">
<path d="M5 19H6.098L16.7962 8.302L15.698 7.20375L5 17.902V19ZM4 20V17.4808L17.1807 4.2865C17.2832 4.19517 17.3963 4.12458 17.52 4.07475C17.6438 4.02492 17.7729 4 17.9072 4C18.0416 4 18.1717 4.02117 18.2977 4.0635C18.4236 4.10583 18.5398 4.18208 18.6462 4.29225L19.7135 5.3655C19.8237 5.47183 19.899 5.5885 19.9395 5.7155C19.9798 5.84267 20 5.96975 20 6.09675C20 6.23225 19.9772 6.36192 19.9315 6.48575C19.8858 6.60942 19.8132 6.7225 19.7135 6.825L6.51925 20H4ZM16.2375 7.7625L15.698 7.20375L16.7962 8.302L16.2375 7.7625Z" fill="#1C1B1F"/>
<rect x="10" y="19" width="7" height="1" fill="#1C1B1F"/>
</g>
</svg>
