<svg width="20" height="20" viewBox="0 0 20 20" fill="none" xmlns="http://www.w3.org/2000/svg">
<path fill-rule="evenodd" clip-rule="evenodd" d="M14.7986 7C13.6999 5.7725 12.1034 5 10.3264 5C8.10552 5 6.16649 6.2066 5.12906 8H4C5.12346 5.63505 7.53397 4 10.3264 4C12.2851 4 14.0559 4.80447 15.3264 6.10102V4H16.3264V8H12.3264V7H14.7986ZM5.52759 14C6.62623 15.2275 8.2228 16 9.9998 16C12.2206 16 14.1597 14.7934 15.1971 13H16.3262C15.2027 15.3649 12.7922 17 9.9998 17C8.04111 17 6.27032 16.1955 4.9998 14.899V17H3.9998V13H7.9998V14H5.52759ZM16 10H15V11H16V10ZM15 9H14V10V11V12H15H16H17V11V10V9H16H15ZM4 10H5V11H4V10ZM3 9H4H5H6V10V11V12H5H4H3V11V10V9Z" fill="black"/>
</svg>
