<svg xmlns="http://www.w3.org/2000/svg" width="20" height="20" fill="none" viewBox="0 0 20 20">
  <path fill="#000" fill-rule="evenodd" d="m6.854 5.147 2 2-.708.707L7 6.707V16H6V6.707L4.854 7.854l-.708-.707 2-2 .354-.354.354.354ZM10 7.997V10h5.01V8.294c-.004-.644-.015-1.051-.033-1.22a1.434 1.434 0 0 0-.236-.677 1.336 1.336 0 0 0-.516-.434 1.487 1.487 0 0 0-.667-.16c-.29 0-.541.082-.755.246-.214.164-.366.399-.455.704a1.165 1.165 0 0 0-.44-.513 1.16 1.16 0 0 0-.647-.191 1.12 1.12 0 0 0-.584.154 1.274 1.274 0 0 0-.42.386 1.272 1.272 0 0 0-.206.523 5.573 5.573 0 0 0-.05.885Zm1.993.991h-1.159v-.58c0-.477.006-.765.017-.866a.567.567 0 0 1 .178-.379.539.539 0 0 1 .376-.13c.162 0 .293.05.393.15a.666.666 0 0 1 .178.407c.011.096.017.341.017.735v.663Zm2.174 0h-1.34v-.817c0-.46.024-.758.072-.895a.618.618 0 0 1 .229-.318.654.654 0 0 1 .382-.11.62.62 0 0 1 .428.144c.104.094.17.216.198.366.02.098.03.33.03.694v.936Zm.844 3.085v-1.1L10 12.977v1.07L15.01 16v-1.073l-1.138-.414V12.51l1.138-.437Zm-3.842 1.452 1.86-.69v1.367l-1.86-.677Z" clip-rule="evenodd"/>
</svg>
